<svg width="80" height="80" viewBox="0 0 80 80" fill="none" xmlns="http://www.w3.org/2000/svg"><path d="M40 5C20.68 5 5 20.68 5 40s15.68 35 35 35 35-15.68 35-35S59.32 5 40 5zm0 67.48c-17.36 0-31.64-13.72-32.2-31.08h4.76c.84 0 1.4-.56 1.4-1.4 0-.56-.56-1.4-1.4-1.4H7.8C8.36 21.52 22.64 7.8 40 7.8c17.36 0 31.64 13.72 32.48 30.8h-4.76c-.84 0-1.4.56-1.4 1.4 0 .84.56 1.4 1.4 1.4h4.76C71.64 58.76 57.36 72.48 40 72.48z" fill="#172852"/><path d="M38.6001 36.9195v6.16c0 .84.56 1.4 1.4 1.4.84 0 1.4-.56 1.4-1.4v-6.16c0-.84-.56-1.4-1.4-1.4-.84 0-1.4.56-1.4 1.4z" fill="#172852"/><path d="M41.12 26.2797c-.28-.28-.56-.56-1.12-.56s-.84.28-1.12.56l-8.4 13.16c-.28.56-.28 1.12 0 1.4l8.4 13.16c.28.28.56.56 1.12.56s.84-.28 1.12-.56l8.4-13.16c.28-.56.28-1.12 0-1.4l-8.4-13.16zM40 50.6397l-6.72-10.64 6.72-10.64 6.72 10.64-6.72 10.64z" fill="#172852"/></svg>