<svg width="80" height="80" viewBox="0 0 80 80" fill="none" xmlns="http://www.w3.org/2000/svg"><path d="M68.1416 40.469c0-16.1947-.7965-22.3009-1.3274-24.9557l2.6548-2.6549L67.8761 11l-2.6549 2.6549c-1.8584-.531-7.6991-1.593-25.4867-1.593-17.7876-.2654-23.6283.7965-25.4867 1.593L11.5929 11 10 12.8584l2.6549 2.6549c-.531 2.3894-1.3275 8.761-1.3275 24.9557 0 16.4602.7965 22.5664 1.3275 24.9558L10 68.0796l1.8584 1.8585 2.6549-2.6549c1.8584.531 7.6991 1.5929 25.4867 1.5929 17.5221 0 23.3628-1.0619 25.4867-1.5929l2.6549 2.6549L70 68.0796l-2.6549-2.6548c0-2.3894.7965-8.7611.7965-24.9558zm-24.9558 1.5929l-1.8584 1.8585-1.5929-1.593-1.5929 1.593-1.8584-1.8585 1.5929-1.5929-1.5929-1.5929 1.8584-1.8584 1.5929 1.5929 1.5929-1.5929 1.8584 1.8584-1.5929 1.5929 1.5929 1.5929z" fill="#172852"/></svg>