<svg width="80" height="80" viewBox="0 0 80 80" fill="none" xmlns="http://www.w3.org/2000/svg"><path d="M61.2496 34.6383c7.624-7.624 7.521-19.9872 0-27.61121-7.624-7.624009-19.9873-7.624009-27.6113 0l-.309-.30909c-7.624-7.624001-19.9873-7.624001-27.6113 0-7.624 7.624-7.624 19.9873 0 27.6113.10303.103.20605.206.30908.309L33.6383 62.2496l27.6113-27.6113c-.103.1031-.103.1031 0 0-.103.1031-.103.1031 0 0z" fill="#172852"/><path d="M42.229 23.311h22.3097v13.5452H42.229V23.311z" fill="#fff"/><path d="M54.1706 18.5273c2.9119 0 6.4557.573 9.5127 2.3361 3.2373 2.1031 5.4605 5.0303 5.5771 8.8181 3.7418 2.0144 6.6984 5.6496 6.7557 10.0807 0 4.2449-1.7174 7.6332-4.5459 9.6602-.7548.5409-1.5729.9777-2.4413 1.347.1902.8198.2297 1.6592.2525 2.4621 0 3.2641-1.0229 6.0176-2.778 8.0396.0699.4575.0711.9617.0841 1.389 0 4.2449-1.7174 7.6331-4.5459 9.6601-2.8284 2.027-6.5242 2.7781-10.5649 2.7781-2.6321 0-6.0068-.8111-8.9866-2.736-2.9797-1.9249-5.535-5.2221-5.535-9.7022.0389-3.4756 1.4853-5.9253 2.8201-7.8291-2.9692-1.927-5.514-5.2133-5.514-9.6812.02-4.9604 2.8626-8.2144 6.4611-10.0809-.667-1.3896-1.0734-2.9645-1.0734-4.7354 0-4.4015 2.3368-7.6426 5.2615-9.4286 2.7349-1.5351 6.3329-2.355 9.2602-2.3776zm0 4.0409c-2.3227 0-5.1364.5348-7.1555 1.7678-1.5908.9714-3.1412 2.3173-3.1358 4.2302.0122 4.3924 6.4549 6.0824 11.0911 6.0824 4.6293 0 10.416-1.7787 10.123-5.8508-.1482-2.0593-1.6501-3.3929-3.4305-4.4197-2.1776-1.2559-5.1695-1.8099-7.4923-1.8099zm14.6268 11.491c-.6991 2.5075-2.1223 4.545-4.0618 5.935-2.4948 1.788-5.669 2.5733-9.1549 2.736 1.857.8795 3.9794 1.3469 6.1243 1.3469 4.6293 0 9.7362-2.1256 10.123-5.8507.0091-1.939-1.4652-3.1789-3.0306-4.1672zm-25.6547 4.3565c-2.2389.9314-4.5273 3.0563-4.6511 4.9669-.1698 4.3892 6.4549 6.0823 11.0911 6.0823.7233 0 1.435-.0505 2.1256-.1473-2.6624-1.7921-4.9441-4.6967-5.2825-8.5657-1.2083-.6257-2.3855-1.4735-3.2831-2.3362zm21.8665 13.4905c-.9941.1574-2.0346.2388-3.0937.2736-.695 1.0335-1.5701 1.9159-2.5676 2.6308-1.9261 1.3803-4.2533 2.1628-6.8188 2.5255.8011.1308 1.6214.2104 2.4413.2104 4.5424 0 8.6075-1.9295 10.0388-5.6403zm-23.3818 7.6187c-.1892.4143-.5906.6586-.442 1.3679.9009 4.2991 6.4549 6.0824 11.0911 6.0824 2.5042 0 4.8595-.6002 6.7136-1.7469-1.5226.2971-3.1402.4421-4.8195.4421-2.632 0-6.0067-.8112-8.9865-2.7361-1.3357-.8628-2.5835-2.0121-3.5567-3.4094z" fill="#172852"/><path fill-rule="evenodd" clip-rule="evenodd" d="M65.7651 17.4646l.0885.0575c3.3776 2.1943 6.2736 5.4334 7.1352 9.7838 3.8203 2.6676 6.9405 6.9668 7.0108 12.4044l.0003.0257v.0258c0 5.364-2.2092 10.0319-6.2091 12.8983-.1754.1257-.3521.2464-.5299.3626.0009.0322.0019.0639.0027.095l.0017.0567v.0567c0 3.4765-.9291 6.6656-2.6967 9.2753.0003.0116.0006.0223.0009.0321l.0018.0606v.0605c0 5.3641-2.2092 10.0318-6.209 12.8983l-.0001.0001c-3.7817 2.7101-8.4337 3.5237-12.8856 3.5237-3.3578 0-7.4906-1.0107-11.1482-3.3735h-.0001c-3.8051-2.4581-7.3571-6.8837-7.3571-13.0486v-.0223l.0002-.0223c.0312-2.7817.7486-5.0621 1.6405-6.9034-2.4705-2.5504-4.3346-6.0984-4.3346-10.5623v-.008l.0001-.008c.0213-5.2985 2.4667-9.16 5.7026-11.7264-.2039-.9749-.3149-2.0003-.3149-3.0739 0-5.9615 3.2136-10.4132 7.1689-12.8286l.0625-.0382.0639-.0359c3.395-1.9055 7.6694-2.8602 11.1795-2.8872l.0307 3.9837c-1.1569.009-2.4186.1424-3.6904.3953-1.4788.2941-2.9712.7498-4.3284 1.359-.4289.1925-.8443.4003-1.2414.6233-.4814.2939-.9468.6273-1.3886.9988-1.6803 1.4132-3.0174 3.3777-3.5818 5.8214-.1887.8168-.2911 1.6872-.2911 2.6084 0 1.7709.4064 3.3458 1.0734 4.7354-1.7908.9289-3.3943 2.2013-4.556 3.8567-.6734.9595-1.1983 2.0478-1.5251 3.2723-.2423.908-.3757 1.8909-.38 2.9519 0 4.0604 2.1017 7.1448 4.7136 9.1201.1668.1261.3356.2476.506.3647.0976.0669.1958.1324.2944.1964-.3347.4774-.6765.9892-1.0012 1.5428-.2118.361-.4164.7398-.6072 1.1386-.029.0607-.0578.1218-.0861.1835-.3878.8422-.7112 1.772-.9106 2.8083-.1293.6721-.2064 1.389-.215 2.1559 0 4.4801 2.5552 7.7773 5.535 9.7023 2.9798 1.9249 6.3545 2.7359 8.9865 2.7359 4.0408 0 7.7365-.751 10.565-2.778 2.8284-2.0271 4.5459-5.4153 4.5459-9.6602-.0022-.0702-.004-.1425-.0058-.2163-.0095-.3754-.0199-.7903-.0783-1.1726 1.755-2.0221 2.778-4.7756 2.778-8.0396-.011-.3861-.0258-.7806-.0594-1.1773-.0363-.4283-.0944-.8593-.1931-1.2849.2848-.1211.5642-.2495.8377-.3864.5605-.2806 1.0963-.5971 1.6036-.9606 2.8284-2.027 4.5459-5.4152 4.5459-9.6601-.0086-.6623-.0819-1.3068-.2129-1.9308-.612-2.9142-2.4828-5.3805-4.8933-7.1184-.1974-.1422-.3983-.2796-.6024-.4119-.0999-.0647-.2005-.1282-.3018-.1905-.2444-.1503-.4931-.2934-.7453-.4292-.0004-.0141-.0009-.0282-.0014-.0422-.0277-.7928-.1479-1.5478-.3504-2.2652-.65-2.3031-2.1485-4.2199-4.1625-5.7616-.3401-.2604-.6949-.5101-1.0628-.7491-3.0571-1.7631-6.6008-2.3361-9.5127-2.3361V14.543c3.3594 0 7.655.6496 11.503 2.8689l.0915.0527zm-3.3484 7.3804c-.2432-.1631-.4956-.3185-.7538-.4674-2.1776-1.2559-5.1695-1.8099-7.4923-1.8099-.9294 0-1.9374.0856-2.9417.2673-1.1841.2143-2.3629.5622-3.4016 1.0608-.282.1353-.5536.2818-.8122.4397-.3431.2095-.6843.4364-1.0084.6827-1.1296.8583-2.0518 1.9516-2.123 3.3618-.0031.0613-.0046.1232-.0044.1857.0122 4.3924 6.4549 6.0824 11.0911 6.0824 4.6292 0 10.416-1.7786 10.123-5.8508-.0114-.1581-.0308-.3118-.0576-.4615-.2721-1.5178-1.3141-2.6156-2.6191-3.4908zM39.4045 41.2464c-.4632.6114-.7836 1.2554-.8844 1.8832-.0135.0845-.0231.1687-.0286.2525-.1249 3.2302 3.4301 5.0001 7.1642 5.7097 1.3398.2545 2.7027.3726 3.9269.3726.7234 0 1.435-.0505 2.1257-.1473-.7505-.5051-1.4707-1.0987-2.1257-1.7773-.6171-.6394-1.1764-1.3544-1.6484-2.1422-.8042-1.3421-1.3553-2.8954-1.5084-4.6462-1.2083-.6257-2.3856-1.4735-3.2831-2.3362-1.4112.5871-2.8421 1.6483-3.7382 2.8312zm3.4252 2.1145c-.1036.1089-.1853.2063-.2482.2893.089.0885.2228.1997.413.3246-.059-.202-.1139-.4067-.1648-.6139zm-.4137.5499c-.0001 0 .0008-.0023.0029-.0069-.0017.0046-.0028.0069-.0029.0069zm.041-.4109s.0004.0007.0011.0022c-.0008-.0014-.0011-.0021-.0011-.0022zm16.5331 21.7279c-1.3779.8522-3.0326 1.4026-4.8195 1.6291-.6176.0782-1.2509.1178-1.8941.1178-2.8472 0-6.0406-.6725-8.2898-2.1873-1.4132-.9518-2.4537-2.2361-2.8013-3.895-.0039-.0186-.0074-.0369-.0106-.0549-.0841-.4792.0909-.7392.2645-.9971.0623-.0925.1244-.1847.1742-.2867.0048-.0097.0094-.0194.0139-.0293.2674.384.5556.7493.8606 1.095.805.9123 1.7275 1.6887 2.6961 2.3145 2.3033 1.4879 4.8426 2.3103 7.0924 2.607.6608.0872 1.2966.129 1.8941.129 1.6792 0 3.2969-.145 4.8195-.4421zm5.0814-11.5985c.3805-.5235.6965-1.0982.9377-1.7236-.9941.1574-2.0346.2388-3.0938.2737-.695 1.0335-1.57 1.9158-2.5675 2.6307-1.2945.9277-2.7701 1.5853-4.3775 2.027-.7844.2155-1.6.3796-2.4414.4985.8012.1309 1.6215.2105 2.4414.2105 2.0014 0 3.9102-.3746 5.5419-1.1112.5374-.2426 1.0446-.5244 1.5153-.845.7971-.543 1.489-1.1972 2.0439-1.9606zm7.7468-15.3184c.0035-.0282.0067-.0566.0097-.085.0012-.2496-.0223-.4875-.0673-.7148-.3046-1.5392-1.5994-2.5913-2.9633-3.4524-.0033.0118-.0066.0235-.0099.0352-.3782 1.3411-.964 2.5471-1.7254 3.5906-.4937.6766-1.0611 1.2848-1.6937 1.8173-.2043.172-.4153.336-.6328.4919-.9234.6618-1.9398 1.1862-3.0306 1.5925-1.8565.6915-3.9286 1.041-6.1243 1.1435 1.857.8795 3.9794 1.3469 6.1243 1.3469 1.7933 0 3.6582-.319 5.2927-.9263.0001 0 .0001 0 .0001-.0001.1208-.0449.2404-.0913.3585-.1394 2.3787-.9668 4.1977-2.567 4.462-4.6999zM54.1706 26.5515c-1.8718 0-3.8886.457-5.0793 1.1841-.6309.3852-1.0043.7008-1.1928.9251-.0004.0004-.0007.0008-.0011.0013.0153.0225.0371.0504.068.0858.1769.2024.5792.527 1.3399.8642 1.5458.6852 3.7299 1.0522 5.6651 1.0522 1.906 0 3.8805-.3812 5.1847-1.0066.5771-.2768.8511-.5191.9557-.6369-.0129-.0462-.0471-.1131-.1452-.2275-.2027-.2364-.593-.5608-1.293-.9645-1.397-.8057-3.6429-1.2772-5.502-1.2772zm-6.3082 2.0334c.0005-.0095.0007-.0194.0007-.0296v-.0007m-.0007.0303c-.0007-.0076-.0002-.014.0002-.0199.0002-.0033.0005-.0065.0005-.0097" fill="#fff"/></svg>