<svg width="32" height="32" viewBox="0 0 32 32" fill="none" xmlns="http://www.w3.org/2000/svg"><path d="M15.9948 5.34206c3.4719 0 3.8794.01548 5.2516.07738 1.2691.05675 1.9552.26826 2.4143.44881.6087.23731 1.0421.51588 1.496.96985.454.45396.7377.8873.9699 1.49603.1754.45912.3921 1.14523.4488 2.41427.0619 1.3722.0774 1.7798.0774 5.2516s-.0155 3.8794-.0774 5.2516c-.0567 1.269-.2683 1.9551-.4488 2.4143-.2373.6087-.5159 1.042-.9699 1.496-.4539.454-.8873.7377-1.496.9698-.4591.1754-1.1452.3921-2.4143.4489-1.3722.0619-1.7797.0773-5.2516.0773-3.4718 0-3.8793-.0154-5.2515-.0773-1.26909-.0568-1.9552-.2683-2.41433-.4489-.60873-.2373-1.04207-.5158-1.49603-.9698-.45397-.454-.7377-.8873-.96984-1.496-.1754-.4592-.39207-1.1453-.44881-2.4143C5.35238 19.8794 5.3369 19.4718 5.3369 16s.01548-3.8794.07739-5.2516c.05674-1.26904.26825-1.95515.44881-2.41427.2373-.60873.51587-1.04207.96984-1.49603.45396-.45397.8873-.7377 1.49603-.96985.45913-.17539 1.14524-.39206 2.41433-.44881 1.3722-.06706 1.7849-.07738 5.2515-.07738zm0-2.34206c-3.5285 0-3.9722.01548-5.3599.07738-1.38252.06191-2.32657.28373-3.15196.60357-.85635.33016-1.57857.77897-2.3008 1.50119-.72222.72223-1.16587 1.44961-1.50119 2.3008-.31984.82539-.54166 1.76944-.60357 3.15716C3.01548 12.0226 3 12.4663 3 15.9948c0 3.5286.01548 3.9723.07738 5.36.06191 1.3825.28373 2.3265.60357 3.1571.33016.8564.77897 1.5786 1.50119 2.3008.72223.7222 1.44961 1.1659 2.3008 1.5012.82539.3198 1.76944.5417 3.15716.6036 1.3877.0619 1.8262.0773 5.3599.0773 3.5337 0 3.9722-.0154 5.3599-.0773 1.3826-.0619 2.3266-.2838 3.1572-.6036.8563-.3302 1.5785-.779 2.3008-1.5012.7222-.7222 1.1658-1.4496 1.5011-2.3008.3199-.8254.5417-1.7694.6036-3.1571.0619-1.3877.0774-1.8262.0774-5.36 0-3.5337-.0155-3.9722-.0774-5.3599-.0619-1.38252-.2837-2.32657-.6036-3.15712-.3301-.85635-.7789-1.57857-1.5011-2.3008-.7223-.72222-1.4496-1.16587-2.3008-1.50119-.8254-.31984-1.7695-.54166-3.1572-.60357C19.9671 3.01548 19.5234 3 15.9948 3z" fill="#fff"/><path d="M15.9947 9.32422c-3.6833 0-6.67536 2.98688-6.67536 6.67538 0 3.6885 2.98686 6.6754 6.67536 6.6754 3.6885 0 6.6754-2.9869 6.6754-6.6754s-2.9869-6.67538-6.6754-6.67538zm0 11.00358c-2.3936 0-4.3333-1.9397-4.3333-4.3333 0-2.3937 1.9397-4.3334 4.3333-4.3334 2.3937 0 4.3334 1.9397 4.3334 4.3334 0 2.3936-1.9397 4.3333-4.3334 4.3333zM22.9334 10.6149c.8604 0 1.558-.69752 1.558-1.55794 0-.86042-.6976-1.55794-1.558-1.55794s-1.5579.69752-1.5579 1.55794c0 .86042.6975 1.55794 1.5579 1.55794z" fill="#fff"/></svg>