<svg viewBox="0 0 46 60" fill="none" xmlns="http://www.w3.org/2000/svg">
<path d="M42.2529 57.1291C42.7529 57.0291 43.0529 56.8291 43.1529 56.3291C43.2529 55.5291 42.6529 55.0291 42.1529 54.5291C36.5529 49.4291 36.3529 41.1291 37.7529 34.2291C38.4529 30.8291 39.3529 27.4291 39.7529 23.9291C40.2529 19.0291 39.0529 14.6291 35.9529 10.7291C31.9529 5.72911 26.7529 3.42911 20.3529 3.82911C18.1529 3.92911 15.9529 4.62911 13.8529 5.42911C11.4529 6.42911 9.35292 8.02911 7.65292 10.0291C4.55292 13.6291 2.65292 18.5291 3.05292 23.3291C3.25292 26.3291 4.35292 29.5291 6.85292 31.4291C8.45292 32.6291 10.6529 33.1291 12.5529 32.7291C13.5529 32.5291 14.5529 32.1291 15.2529 31.4291C16.0529 30.7291 16.4529 29.6291 17.5529 29.4291C19.3529 29.0291 20.6529 30.8291 21.0529 32.3291C21.4529 34.1291 21.6529 35.9291 21.7529 37.8291C21.9529 40.8291 22.4529 43.8291 23.9529 46.5291C25.4529 49.4291 27.7529 51.9291 30.6529 53.6291C32.4529 54.7291 34.3529 55.4291 36.3529 56.0291C37.8529 56.4291 39.3529 56.9291 40.8529 57.0291C41.2529 57.1291 41.7529 57.2291 42.2529 57.1291Z" fill="#172852"/>
</svg>
