<svg viewBox="0 0 57 60" fill="none" xmlns="http://www.w3.org/2000/svg">
<path d="M36.353 10.8291C33.753 7.8291 30.453 5.6291 26.353 5.1291C25.653 5.0291 24.853 5.0291 24.153 5.0291C23.553 5.0291 22.853 4.9291 22.353 4.5291C21.553 3.9291 21.353 3.5291 20.853 3.0291C20.453 2.5291 19.953 2.1291 19.353 2.0291C17.953 1.7291 18.053 3.8291 17.953 4.6291C17.853 5.5291 17.553 6.3291 17.253 7.1291C16.853 7.9291 16.353 8.4291 15.853 9.1291C14.353 10.9291 13.053 12.4291 11.753 14.2291C9.45298 17.3291 7.45298 20.5291 5.85298 23.9291C4.05298 27.7291 2.65298 31.8291 2.15298 36.0291C1.65298 39.9291 1.85298 44.0291 3.45298 47.6291C3.65298 48.1291 3.95298 48.6291 4.25298 49.1291C6.55298 53.1291 10.353 55.7291 14.653 56.9291C21.553 58.9291 29.953 55.8291 31.853 48.5291C34.453 38.7291 20.353 29.9291 28.153 19.9291C29.353 18.4291 31.053 17.4291 32.653 16.4291C34.253 15.4291 35.253 14.8291 36.553 13.5291C37.353 12.7291 37.053 11.7291 36.353 10.8291C36.353 10.9291 36.353 10.9291 36.353 10.8291Z" fill="#172852"/>
</svg>
