<svg width="80" height="80" viewBox="0 0 80 80" fill="none" xmlns="http://www.w3.org/2000/svg"><path d="M16.1504 39.5928c0 3.0973-2.4778 5.5752-5.5752 5.5752C7.47788 45.168 5 42.6901 5 39.5928c0-3.0973 2.47788-5.5752 5.5752-5.5752 3.0974 0 5.5752 2.4779 5.5752 5.5752zM30.7081 39.5928c0 3.0973-2.4779 5.5752-5.5753 5.5752-3.0973 0-5.5752-2.4779-5.5752-5.5752 0-3.0973 2.4779-5.5752 5.5752-5.5752 3.0974 0 5.5753 2.4779 5.5753 5.5752zM45.5752 39.5928c0 3.0973-2.4778 5.5752-5.5752 5.5752-3.0973 0-5.5752-2.4779-5.5752-5.5752 0-3.0973 2.4779-5.5752 5.5752-5.5752 3.0974 0 5.5752 2.4779 5.5752 5.5752zM60.1329 39.5928c0 3.0973-2.4779 5.5752-5.5753 5.5752-3.0973 0-5.5752-2.4779-5.5752-5.5752 0-3.0973 2.4779-5.5752 5.5752-5.5752 3.0974 0 5.5753 2.4779 5.5753 5.5752zM23.584 26.2744c0 3.0974-2.4778 5.5753-5.5752 5.5753-3.0973 0-5.5752-2.4779-5.5752-5.5753 0-3.0973 2.4779-5.5752 5.5752-5.5752 3.0974 0 5.5752 2.4779 5.5752 5.5752zM38.1417 26.2744c0 3.0974-2.4779 5.5753-5.5753 5.5753-3.0973 0-5.5752-2.4779-5.5752-5.5753 0-3.0973 2.4779-5.5752 5.5752-5.5752 3.0974 0 5.5753 2.4779 5.5753 5.5752zM53.0088 26.2744c0 3.0974-2.4778 5.5753-5.5752 5.5753-3.0973 0-5.5752-2.4779-5.5752-5.5753 0-3.0973 2.4779-5.5752 5.5752-5.5752 3.0974 0 5.5752 2.4779 5.5752 5.5752zM67.5665 26.2744c0 3.0974-2.4779 5.5753-5.5753 5.5753-3.0973 0-5.5752-2.4779-5.5752-5.5753 0-3.0973 2.4779-5.5752 5.5752-5.5752 3.0974 0 5.5753 2.4779 5.5753 5.5752zM30.7081 13.5752c0 3.0974-2.4779 5.5752-5.5753 5.5752-3.0973 0-5.5752-2.4778-5.5752-5.5752C19.5576 10.4779 22.0355 8 25.1328 8c3.0974 0 5.5753 2.4779 5.5753 5.5752zM45.5752 13.5752c0 3.0974-2.4778 5.5752-5.5752 5.5752-3.0973 0-5.5752-2.4778-5.5752-5.5752C34.4248 10.4779 36.9027 8 40 8c3.0974 0 5.5752 2.4779 5.5752 5.5752zM60.1329 13.5752c0 3.0974-2.4779 5.5752-5.5753 5.5752-3.0973 0-5.5752-2.4778-5.5752-5.5752C48.9824 10.4779 51.4603 8 54.5576 8c3.0974 0 5.5753 2.4779 5.5753 5.5752zM23.584 52.9112c0-3.0974-2.4778-5.5753-5.5752-5.5753-3.0973 0-5.5752 2.4779-5.5752 5.5753 0 3.0973 2.4779 5.5752 5.5752 5.5752 3.0974 0 5.5752-2.4779 5.5752-5.5752zM38.1417 52.9112c0-3.0974-2.4779-5.5753-5.5753-5.5753-3.0973 0-5.5752 2.4779-5.5752 5.5753 0 3.0973 2.4779 5.5752 5.5752 5.5752 3.0974 0 5.5753-2.4779 5.5753-5.5752zM53.0088 52.9112c0-3.0974-2.4778-5.5753-5.5752-5.5753-3.0973 0-5.5752 2.4779-5.5752 5.5753 0 3.0973 2.4779 5.5752 5.5752 5.5752 3.0974 0 5.5752-2.4779 5.5752-5.5752zM67.5665 52.9112c0-3.0974-2.4779-5.5753-5.5753-5.5753-3.0973 0-5.5752 2.4779-5.5752 5.5753 0 3.0973 2.4779 5.5752 5.5752 5.5752 3.0974 0 5.5753-2.4779 5.5753-5.5752zM30.7081 65.6104c0-3.0974-2.4779-5.5752-5.5753-5.5752-3.0973 0-5.5752 2.4778-5.5752 5.5752 0 3.0973 2.4779 5.5752 5.5752 5.5752 3.0974 0 5.5753-2.4779 5.5753-5.5752zM45.5752 65.6104c0-3.0974-2.4778-5.5752-5.5752-5.5752-3.0973 0-5.5752 2.4778-5.5752 5.5752 0 3.0973 2.4779 5.5752 5.5752 5.5752 3.0974 0 5.5752-2.4779 5.5752-5.5752zM60.1329 65.6104c0-3.0974-2.4779-5.5752-5.5753-5.5752-3.0973 0-5.5752 2.4778-5.5752 5.5752 0 3.0973 2.4779 5.5752 5.5752 5.5752 3.0974 0 5.5753-2.4779 5.5753-5.5752zM75.0001 39.5928c0 3.0973-2.4779 5.5752-5.5753 5.5752-3.0973 0-5.5752-2.4779-5.5752-5.5752 0-3.0973 2.4779-5.5752 5.5752-5.5752 3.0974 0 5.5753 2.4779 5.5753 5.5752z" fill="#172852"/></svg>