<svg width="80" height="80" viewBox="0 0 80 80" fill="none" xmlns="http://www.w3.org/2000/svg"><path d="M40 75c-2.2649 0-4.2467-1.1245-5.6622-2.8112-1.9818 1.1245-4.2467 1.4056-6.2285.5622-1.9817-.8434-3.6804-2.5301-4.5297-4.498-2.2649.5623-4.5298 0-6.2285-1.4056-1.6986-1.4056-2.548-3.6546-2.548-5.9036-2.2649-.2812-4.2466-1.6868-5.37908-3.6546-1.13244-1.9679-1.13244-4.2169-.56622-6.1848-1.98178-1.1245-3.39733-2.8112-3.68044-5.0602-.28311-2.249.28311-4.498 1.69866-6.1848-1.41555-1.6867-2.26488-3.9357-1.69866-6.1847.28311-2.249 1.69866-4.2169 3.68044-5.0602-.56622-1.9679-.56622-4.2169.56622-6.1848 1.13248-1.9679 3.11418-3.0924 5.37908-3.3735 0-2.249.8494-4.2168 2.548-5.9036 1.6987-1.4056 3.9636-1.9679 6.2285-1.4056.5662-2.24901 2.2649-3.93575 4.2466-4.498 2.2649-.84338 4.5298-.56225 6.5116.56224C35.7533 6.1245 37.7351 5 40 5c2.2649 0 4.2467 1.1245 5.6622 2.81124 1.9818-1.12449 4.2467-1.40562 6.2285-.56224 1.9817.84337 3.6804 2.53012 4.5297 4.498 2.2649-.5623 4.5298 0 6.2285 1.4056 1.6986 1.4056 2.548 3.6546 2.548 5.9036 2.2649.2811 4.2466 1.6868 5.3791 3.6546 1.1324 1.9679 1.1324 4.2169.5662 6.1848 1.9818 1.1245 3.3973 2.8112 3.6804 5.0602.2832 2.249-.2831 4.498-1.6986 6.1848 1.4155 1.6867 2.2649 3.9357 1.6986 6.1847-.2831 2.249-1.6986 4.2169-3.6804 5.0602.8493 1.9679.5662 4.498-.5662 6.1848-1.1325 1.9679-3.1142 3.0924-5.3791 3.6546 0 2.249-.8494 4.2169-2.548 5.9036-1.6987 1.4056-3.9636 1.9679-6.2285 1.4056-.5662 1.9679-2.2649 3.6547-4.5297 4.498-1.9818.8434-4.5298.5623-6.2285-.5622C44.2467 73.8755 42.2649 75 40 75zm-5.3791-6.1847s.2831 0 0 0c.5662 0 1.1324.2811 1.1324.8433.8494 1.6868 2.2649 2.5302 4.2467 2.5302 1.6987 0 3.3973-1.1245 4.2467-2.5302l.8493-.8433c.5662 0 .8493 0 1.1324.2811 1.4156 1.1245 3.1143 1.6867 4.8129 1.1245 1.6987-.5623 2.8311-2.249 3.1142-3.9358 0-.5622.2832-.8433.5663-1.1245.2831-.2811.8493-.2811 1.1324 0 1.6987.8434 3.3973.5623 4.8129-.5622s1.9818-2.8113 1.4156-4.7791c0-.5623 0-.8434.2831-1.1245s.8493-.5623 1.1324-.5623c1.6987.2812 3.3973-.8433 4.2467-2.249.8493-1.4056.8493-3.3735-.2831-4.7791-.2832-.2811-.2832-.8434-.2832-1.1245.2832-.2811.5663-.8434.8494-.8434 1.6986-.5622 3.1142-1.9678 3.3973-3.6546.2831-1.6867-.2831-3.3735-1.9818-4.498-.2831-.2811-.5662-.5622-.5662-1.1245 0-.5622.2831-.8433.5662-1.1245 1.4156-1.1245 2.2649-2.8112 1.9818-4.498-.2831-1.6867-1.6987-3.0923-3.3973-3.6546-.2831 0-.8494-.5622-.8494-.8433-.2831-.2812 0-.8434.2832-1.1245 1.1324-1.4057 1.1324-3.3735.2831-4.7792-.8494-1.4056-2.548-2.5301-4.2467-2.249-.5662 0-.8493-.2811-1.1324-.5622s-.2831-.8434-.2831-1.1245c.5662-1.6867 0-3.6546-1.4156-4.7791-1.4156-1.1245-3.1142-1.4056-4.8129-.5623-.2831.2812-.8493.2812-1.1324 0-.2831-.2811-.5663-.5622-.5663-1.1245-.2831-1.6867-1.4155-3.3735-3.1142-3.93571-1.6986-.56225-3.3973 0-4.8129 1.12451-.2831.2811-.8493.5622-1.1324.2811-.5662 0-.8493-.2811-.8493-.8434-.8494-1.40558-2.548-2.24896-4.2467-2.24896-1.6987 0-3.3973 1.1245-4.2467 2.53016l-.8493.8433c-.5662 0-.8493 0-1.1324-.2811-1.4156-1.40561-3.1143-1.96786-4.8129-1.12448-1.6987.56228-2.8311 1.96788-3.1142 3.65458 0 .5623-.2832.8434-.5663 1.1245-.2831.2812-.8493.2812-1.1324 0-1.6987-.5622-3.6805-.5622-5.096.5623-1.4156 1.1245-1.9818 2.8112-1.4156 4.7791 0 .5622 0 .8434-.2831 1.1245-.2831.5622-.8493.5622-1.1324.5622-1.6987 0-3.3973.8434-4.5298 2.249-.8493 1.6868-.5662 3.3735.2831 4.7792.2831.2811.2831.8433.2831 1.1245-.2831.5622-.5662.8433-.8493 1.1245-1.98178.2811-3.11422 1.6867-3.39733 3.6546-.28311 1.6867.28311 3.3735 1.98177 4.498.28316.2811.56626.5622.56626 1.1245 0 .5622-.2831.8433-.56626 1.1245-1.41555 1.1245-2.26488 2.8112-1.98177 4.498.28311 1.6867 1.69866 3.0923 3.39733 3.6546.2831 0 .8493.5622.8493.8433.2831.2812 0 .8434-.2831 1.1245-.8493 1.4057-1.1324 3.3735-.2831 4.7792.8493 1.4056 2.548 2.5301 4.2467 2.249.5662 0 .8493.2811 1.1324.5622s.2831.8434.2831 1.1245c-.5662 1.6867 0 3.6546 1.4156 4.7791 1.4155 1.1245 3.1142 1.4056 4.8129.5623.2831-.2812.8493-.2812 1.1324 0 .2831.2811.5662.5622.5662 1.1245.2831 1.6867 1.4156 3.3735 3.1143 3.9357 1.6986.5623 3.3973.2811 4.8128-1.1245.8494-.2811 1.1325-.5622 1.4156-.5622z" fill="#172852"/></svg>