<svg width="80" height="80" viewBox="0 0 80 80" fill="none" xmlns="http://www.w3.org/2000/svg"><path d="M75.4265 59.7721C77.2279 57.9706 78 55.9118 78 53.3382c0-2.3161-1.0294-4.6323-2.5735-6.4338l-6.6912-6.6912s-.2574 0-.2574-.2573c2.5736-4.1177 3.8603-9.2647 3.8603-14.6691 0-.7721-.5147-1.2868-1.0294-1.2868s-1.2867.5147-1.2867 1.2868c0 16.4706-13.3824 29.8529-29.853 29.8529-16.4706-.2573-29.5956-13.3823-29.5956-29.8529 0-.7721-.77203-1.2868-1.28674-1.2868C8.77206 24 8 24.5147 8 25.2868c0 17.7573 14.4118 32.1691 32.1691 32.1691 5.9191 0 11.3235-1.5441 15.9559-4.375l6.6912 6.6912c1.8014 1.8014 3.8603 2.5735 6.4338 2.5735 2.3162 0 4.6324-1.0294 6.1765-2.5735zm-1.5442-11.0662c1.2868 1.2867 1.8015 2.8309 1.8015 4.6323 0 1.2868-.5147 2.5736-1.0294 3.603L64.3603 46.6471c1.2868-1.2868 2.3162-2.8309 3.0882-4.1177l6.4338 6.1765zm-9.2647 9.2647l-6.1764-6.1765c1.5441-1.0294 2.8309-2.0588 4.1176-3.3456l10.2941 10.2941c-1.0294.7721-2.3161 1.0295-3.6029 1.0295-1.8015 0-3.3456-.5147-4.6324-1.8015z" fill="#172852"/></svg>