<svg width="358" height="77" viewBox="0 0 358 77" fill="none" xmlns="http://www.w3.org/2000/svg"><path fill="#fff" d="M0 0h358v77H0z"/><path d="M69.5982 51.7638h-6.1334V25.9294h5.9475v3.5313c1.6727-2.9737 4.8323-4.0889 7.6202-4.0889 6.3192 0 9.2929 4.4606 9.2929 10.2223v16.3555h-6.1333V36.7092c0-3.1596-1.4869-5.7616-5.204-5.7616-3.5313 0-5.3899 2.7879-5.3899 6.1333v14.6829zM173.493 46.9314c4.088 0 6.876-3.3454 6.876-8.1778 0-4.8323-2.973-7.9919-6.876-7.9919-4.089 0-6.877 3.1596-6.877 7.9919 0 5.0182 2.974 8.1778 6.877 8.1778zm6.876 14.8687v-13.196c-1.301 2.2303-3.903 3.7172-7.62 3.7172-7.434 0-12.452-5.9475-12.452-13.5677 0-7.4343 4.646-13.3818 12.266-13.3818 4.461 0 7.063 2.2303 7.806 4.0889v-3.5313h5.948v35.8707h-5.948zM218.099 42.2849c2.788 0 5.018 2.2303 5.018 5.0182s-2.23 4.8323-5.018 4.8323-4.833-2.2303-4.833-4.8323c0-2.7879 2.231-5.0182 4.833-5.0182zM249.881 51.7635V25.9292h5.947v3.3455c1.487-2.602 4.647-4.0889 7.62-4.0889 3.346 0 6.32 1.4869 7.806 4.4606 2.045-3.3455 5.019-4.4606 8.364-4.4606 4.646 0 9.107 2.9737 9.107 9.8505v16.7272h-5.947V35.9656c0-2.9738-1.487-5.2041-5.019-5.2041-3.159 0-5.389 2.6021-5.389 5.7617v15.2403h-5.948V35.9656c0-2.9738-1.487-5.2041-5.018-5.2041-3.346 0-5.39 2.4162-5.39 5.7617v15.2403h-6.133zM128.887 40.9838c0 5.0181-2.974 6.6909-6.32 6.6909-2.416 0-3.717-1.6728-3.717-3.3455 0-2.0444 1.487-3.1596 3.532-3.5313l6.69-.9293v1.1152h-.185zm5.947 6.6909V34.8504c0-5.204-2.974-9.6646-10.966-9.6646-5.761 0-9.664 3.3454-10.593 7.2485l5.575 1.301c.558-2.0445 2.416-3.5313 5.018-3.5313 3.346 0 4.833 1.6727 4.833 3.903 0 .9293-.372 1.6727-1.859 1.8586l-6.691.9293c-4.46.5575-7.806 3.1596-7.806 7.806 0 4.0889 3.346 7.8061 8.736 7.8061 4.088 0 6.69-2.0444 7.991-4.0889 0 2.0445.186 3.1596.186 3.3455h5.762c0-.3718-.186-1.8586-.186-4.0889zM325.897 30.3898c4.088 0 6.133 2.7879 6.133 5.7616h-12.267c.186-2.9737 2.416-5.7616 6.134-5.7616zm.743 16.9132c-3.903 0-6.877-2.7879-7.063-6.691h18.586c0-.1858.186-.9292.186-2.0444 0-8.1778-4.46-13.3818-12.452-13.3818-6.505 0-12.453 5.3899-12.453 13.5677 0 8.7353 6.133 13.7535 13.196 13.7535 5.576 0 9.479-2.9737 11.152-6.8768l-5.204-1.6727c-1.116 1.8586-2.974 3.3455-5.948 3.3455zM29.6384 36.5232l-3.903-.9293c-1.6728-.3717-2.6021-1.301-2.6021-2.7878 0-1.6728 1.4869-2.9738 3.7172-2.9738 2.602 0 3.903 1.4869 4.4606 2.7879l5.204-1.4869C35.5859 28.5313 32.9838 25 26.8505 25c-5.3899 0-9.4788 3.7172-9.4788 8.3636 0 3.5313 2.4162 6.5051 6.8768 7.4344l3.7172.9293c2.0444.3717 2.9737 1.4868 2.9737 2.7878 0 1.6728-1.301 2.9738-3.903 2.9738-2.7879 0-4.4606-1.4869-5.0182-3.3455L17 46.002c.9293 2.7879 3.903 6.5051 10.4081 6.5051 6.505 0 9.6646-4.2748 9.6646-8.1778 0-3.9031-2.4161-6.8768-7.4343-7.8061z" fill="#172852"/></svg>