<svg width="422" height="77" viewBox="0 0 422 77" fill="none" xmlns="http://www.w3.org/2000/svg"><path fill="#fff" d="M0 0h422v77H0z"/><path d="M25.7659 41.5559c-3.358 1.932-5.52 3.174-7.498 4.278-1.518.828-3.036 1.334-4.232 1.61.69 1.518 1.61 3.45 2.116 4.278.276.46.644.736 1.012.736.23 0 .552-.092.782-.322.414-.368.966-.736 1.472-1.012 2.898 1.978 5.29 4.186 6.532 5.888.414.598.598.966 1.104.92.92-.046 2.392-.276 3.404-.552.782-.184.69-.874.69-1.518 0-1.058-.23-3.956-.368-5.98-.092-2.024-.138-3.588-.184-5.52 4.738-2.438 7.912-3.128 10.534-3.128 3.22 0 5.06 1.656 5.06 4.646 0 3.266-2.392 4.738-4.968 4.738-1.702 0-3.542-.092-5.75-.828.966 1.334 1.288 2.898 1.38 3.91 0 .736.276 1.196 1.012 1.38.966.23 2.438.414 3.772.414 6.21 0 9.982-3.45 9.982-9.338 0-5.52-4.094-9.154-9.798-9.2-2.944-.046-6.992.69-11.316 2.53.046-2.208.046-4.462.092-6.67 2.76-.552 3.542-.782 6.578-1.748.46-.138.598-.276.598-.736 0-1.196-.092-2.438-.276-3.588-.046-.46-.368-.552-.782-.414-1.978.69-3.864 1.288-5.888 1.702.046-1.472.092-2.622.23-3.818.092-.598.322-1.196.644-1.794.184-.322.276-.552.276-.736 0-.414-.368-.736-.92-.874-1.242-.368-3.174-.69-5.474-.828.276 1.196.322 2.53.322 3.726 0 1.978-.046 3.726-.046 5.244-1.932.184-3.91.368-5.842.368-1.196 0-2.392-.046-3.588-.23.184 1.61.368 3.128.506 4.002.092.69.322.966 1.104.966 3.082 0 5.428-.184 7.728-.368v7.866zm.23 4.83c.092 1.518.184 3.634.276 4.83.046.414-.092.46-.46.368-1.472-.598-3.036-1.38-4.324-2.07 1.656-1.196 3.22-2.254 4.508-3.128zm15.364-17.434c3.68 1.242 6.9 2.944 9.338 5.658.138.23.782.184.92 0 .69-.92 1.886-2.346 2.484-3.266.092-.184.184-.322.184-.46s-.092-.276-.276-.46c-2.392-2.438-5.52-4.37-9.752-5.612-.322-.092-.46.046-.782.552-.782 1.15-1.518 2.346-2.116 3.588zM82.9899 31.1139c-.23-.598-.506-1.288-.828-2.438-.506-1.84-.644-2.53-.92-3.542-.092-.598-.184-.92-.184-1.518 0-.644-.276-.966-.69-.966-1.794 0-4.186.276-6.164.69 1.196 1.61 1.794 2.99 2.116 3.818.92 2.438 1.564 4.278 2.116 5.934-2.76 1.196-4.324 1.748-5.336 2.116-1.656.598-2.438.828-4.508 1.196.874 1.518 1.656 3.128 2.806 4.508.368.46.828.69 1.104.69.23 0 .552-.184.874-.46.736-.552 1.242-.874 2.392-1.426 1.15-.552 2.622-1.242 4.37-2.07 2.484 6.9 4.462 13.11 6.624 20.424.138.46.276.552.598.506 1.472-.414 2.806-.874 3.956-1.472.644-.322.598-.506.414-1.104-2.392-7.13-4.692-13.57-7.13-20.47 2.806-1.288 4.922-2.116 7.59-3.036 2.438-.782 4.37-1.288 6.808-1.288 2.9441 0 4.7841 1.334 4.7841 3.772 0 3.22-2.668 5.106-6.9001 5.106-1.748 0-3.082-.138-5.106-.46 1.196 1.426 1.702 2.714 2.254 4.416.184.552.414.782 1.242.828.598.046 1.104.046 2.024.046 7.4981 0 11.8681-3.634 11.8681-9.568 0-5.06-3.772-8.51-9.7061-8.51-2.714 0-5.06.322-8.096 1.288-2.576.782-5.428 1.84-8.372 2.99zm3.68-9.706c2.392 1.472 4.094 3.22 5.704 5.06.138.138.276.23.368.23.138 0 .276-.092.414-.184 1.15-.736 2.208-1.61 3.036-2.53.138-.184.23-.322.23-.506s-.092-.322-.23-.506c-1.38-1.656-3.496-3.22-4.968-4.186-.23-.138-.368-.184-.506-.184s-.276.046-.506.184c-.966.598-2.254 1.61-3.542 2.622zM124.298 31.9419c.966 1.978 2.116 3.772 2.944 4.784.506.69.874.966 1.334.966.23 0 .598-.138 1.242-.69.552-.414 1.702-.92 3.174-1.656 6.992-3.082 12.466-4.738 16.606-4.738 5.106 0 7.912 2.668 7.912 6.992 0 4.232-2.438 7.176-6.348 9.154-3.128 1.518-6.394 2.392-12.466 3.404 1.518.966 2.668 2.346 3.22 3.634.322.874.69.92 1.61.736 4.232-.92 7.82-1.656 11.684-3.818 5.474-2.944 8.096-6.762 8.096-12.788 0-7.222-5.29-12.19-13.524-12.19-3.726 0-9.476 1.426-16.56 3.818-5.198 1.748-6.9 2.162-8.924 2.392zM200.198 31.6199c-3.036 6.808-6.946 11.684-12.052 15.962v-18.63c1.15-2.208 2.116-4.462 2.99-6.716.414-1.196.644-1.564.92-1.84.368-.322.506-.506.506-.828 0-.322-.23-.46-.736-.69-1.334-.552-2.806-1.012-4.462-1.426-.092 1.15-.368 2.162-.69 3.266-1.748 5.474-4.784 10.626-8.74 14.95.598.92 1.242 2.484 1.564 3.956.138.552.276.828.506.828.23 0 .506-.23.828-.598.92-1.058 1.794-2.208 2.668-3.358-.046 1.84-.046 3.68-.046 5.198v10.442c0 4.508-.092 6.716-.092 6.992 0 .46.046.506.46.506h3.91c.46 0 .506-.046.506-.506 0-.23-.092-2.484-.092-6.992v-4.416c.69.736 1.426 1.61 2.07 2.714.322.598.506.874.736.874.23 0 .506-.276.966-.69 4.554-4.232 7.866-9.154 10.488-15.364 0 4.094-.046 8.188-.138 11.776h-.874c-3.588 0-4.738-.092-5.014-.092-.46 0-.506.046-.506.506v3.358c0 .506.046.552.506.552.276 0 1.426-.092 5.014-.092h.828c-.092 4.324-.184 7.406-.184 7.866 0 .46.046.506.552.506h3.956c.46 0 .506-.046.506-.506s-.092-3.496-.138-7.866h1.012c3.588 0 4.738.092 5.014.092.46 0 .506-.046.506-.552v-3.358c0-.46-.046-.506-.506-.506-.276 0-1.426.092-5.014.092h-1.058c-.046-3.588-.092-7.682-.092-11.822 2.484 5.75 5.428 10.258 10.718 15.456.46.46.736.736.966.736.23 0 .414-.322.736-.966.552-1.104 1.288-2.116 2.254-3.082-6.21-5.244-9.614-9.522-12.788-15.732h4.784c4.462 0 6.026.092 6.348.092.414 0 .46-.046.46-.506v-3.542c0-.506-.046-.506-.46-.506-.322 0-1.886.046-6.348.046h-6.532v-3.082c0-3.128.046-4.094.276-4.646.138-.322.322-.598.322-.966 0-.23-.276-.46-.736-.46-1.564-.23-3.174-.322-4.83-.368.23 1.978.322 3.588.322 6.532v2.99h-4.646c-4.508 0-6.026-.046-6.302-.046-.46 0-.506 0-.506.506v3.542c0 .46.046.506.506.506.276 0 1.794-.092 6.302-.092h2.576zM265.702 31.9419c2.944 0 3.772.092 4.094.092.46 0 .506-.046.506-.46v-1.84c1.104.828 2.3 1.564 3.542 2.208.506.276.874.46 1.104.46.322 0 .46-.368.69-1.15.368-1.334.92-2.668 1.472-3.312-5.106-1.932-8.878-4.83-11.592-8.556l.322-.23c.322-.184.414-.368.414-.644 0-.322-.23-.46-.598-.598-1.334-.276-2.622-.552-4.094-.782-.322 1.058-.736 1.84-1.334 2.806-2.208 3.496-5.612 6.624-9.522 8.51v-2.024c0-.46-.046-.506-.506-.506-.23 0-1.104.092-3.45.092v-3.22h.644c2.806 0 4.094.092 4.37.092.506 0 .552-.046.552-.46v-2.944c0-.46-.046-.506-.552-.506-.276 0-1.564.092-4.37.092h-6.808c-3.082 0-4.232-.092-4.692-.092-.46 0-.506.046-.506.506 0 .276.092 2.024.092 5.658v11.5c0 3.68-.092 5.336-.092 5.658 0 .46.046.506.506.506s1.61-.092 4.692-.092h7.728c-.184 6.946-.46 9.982-1.012 11.132-.414.828-.966 1.104-2.07 1.104-.782 0-1.794-.138-3.128-.322.368.874.69 1.84.92 2.99.23 1.38.23 1.38.966 1.472.69.092 1.426.092 2.07.092 1.886 0 3.496-.782 4.232-2.714.598.506 1.242 1.196 1.794 2.024.46.644.69.966 1.012.966.23 0 .552-.184 1.104-.506 4.048-2.208 7.636-5.336 9.384-9.246 1.978 3.45 5.06 6.578 9.062 8.97.552.276.828.46 1.058.46.322 0 .46-.276.874-1.058.598-1.196 1.472-2.438 2.208-3.174-4.6-1.656-8.372-4.416-10.58-8.05h1.38c3.864 0 5.198.092 5.52.092.46 0 .506-.046.506-.506 0-.276-.092-1.196-.092-3.496v-4.048c0-2.3.092-3.174.092-3.496 0-.46-.046-.506-.506-.506-.322 0-1.656.092-5.52.092h-2.07v-3.036h.184zm-18.952 7.222v-3.266c2.346.046 3.22.092 3.45.092.46 0 .506-.046.506-.506v-2.53c0-.506-.046-.552-.506-.552-.23 0-1.104.092-3.45.092v-3.128c2.346.046 3.22.092 3.45.092h.322c.414.644.874 1.426 1.196 2.116.322.782.506 1.104.782 1.104.23 0 .552-.184 1.058-.46 1.15-.644 2.254-1.426 3.358-2.3v1.656c0 .414.046.46.506.46.23 0 1.058-.092 3.864-.092v3.036H259.4c-3.864 0-5.198-.092-5.52-.092-.46 0-.506.046-.506.506 0 .322.092 1.196.092 3.496v4.048c0 2.3-.092 3.174-.092 3.496 0 .46.046.506.506.506.322 0 1.656-.092 5.52-.092h.828l-.368.828c-1.794 3.634-5.152 6.302-9.338 8.096.644-2.438 1.058-6.164 1.288-12.88 0-.92.046-2.116.138-3.22 0-.506-.092-.598-.552-.598-.276 0-1.104.092-3.864.092h-.782zm11.868-10.672c1.794-1.702 3.45-3.588 4.784-5.612 1.38 1.978 3.174 3.91 5.244 5.612h-10.028zm6.532 14.996c.184-1.472.23-3.128.276-5.106h4.002v5.106h-4.278zm-3.91-5.106c-.046 2.024-.092 3.726-.276 5.106h-3.404v-5.106h3.68zm-21.85.782v-3.266h3.542v3.266h-3.542zm0-13.156v-3.22h3.542v3.22h-3.542zm0 6.486v-3.128h3.542v3.128h-3.542zm-3.496 12.052c-.644-.184-.644-.184-.69.368-.23 3.726-.598 6.9-1.564 9.522-.138.506-.092.644.46 1.012l1.38.92c.23.184.414.23.506.23.138 0 .184-.092.276-.368 1.15-3.174 1.472-6.532 1.656-10.534 0-.506-.046-.552-.644-.736l-1.38-.414zm3.128.506c-.506.092-.506.184-.414.644.368 2.806.506 5.612.506 8.694 0 .46.092.414.644.23l1.242-.368c.506-.184.552-.368.552-.782-.138-2.806-.414-5.566-.828-8.326-.046-.414-.092-.46-.69-.322l-1.012.23zm3.036-.23c-.506.138-.506.184-.414.598.46 2.162.828 4.554 1.058 7.084.046.506.138.46.644.276l.92-.368c.46-.184.506-.322.46-.736-.23-2.254-.644-4.738-1.104-6.808-.092-.414-.184-.368-.644-.276l-.92.23zm2.714-.46c-.414.184-.414.138-.276.506.506 1.518.92 3.358 1.196 5.106.046.368.184.414.598.184l.874-.414c.368-.184.414-.276.368-.644-.276-1.702-.782-3.404-1.334-4.922-.092-.322-.184-.368-.598-.184l-.828.368zM291.278 20.3959v35.696h13.386c8.142 0 12.65-3.818 12.65-10.12 0-4.6-2.898-7.728-8.188-8.602v-.322c4.324-.736 7.084-3.68 7.084-7.774 0-5.612-3.266-8.878-12.19-8.878h-12.742zm6.072 4.646h5.98c4.968 0 6.716 1.656 6.716 4.83 0 3.174-2.392 5.198-7.268 5.198h-5.428v-10.028zm0 14.674h5.842c4.968 0 7.866 2.162 7.866 5.796 0 3.726-2.346 5.934-7.084 5.934h-6.624v-11.73zM346.431 19.7979c-9.108 0-15.318 6.716-15.318 18.538 0 11.776 6.118 18.446 15.272 18.446s15.318-6.762 15.318-18.538c0-11.822-6.118-18.446-15.272-18.446zm0 4.784c5.244 0 8.694 4.554 8.694 13.708 0 9.108-3.45 13.708-8.694 13.708-5.244 0-8.74-4.6-8.74-13.708 0-9.154 3.496-13.708 8.74-13.708zM402.367 20.3959h-6.532l-5.842 10.028c-.506.92-.966 1.794-1.472 2.668-.506-.874-.92-1.702-1.426-2.576l-5.75-10.12h-7.038l10.35 17.388-11.086 18.308h6.486l6.67-11.454c.414-.782.782-1.472 1.196-2.208.46.736.782 1.426 1.242 2.208l6.624 11.454h7.13l-11.178-18.538 10.626-17.158z" fill="#172852"/></svg>