<svg width="800" height="285" viewBox="0 0 800 285" fill="none" xmlns="http://www.w3.org/2000/svg"><path d="M214.301 55.3068c1.2-4 1.1-7.3-.3-9.8-1.4-2.5-4.2-4.4-8.2-5.5-3.7-1-7.4-1-10.7-1-1.6 0-2.7 0-3-.4-.4-.4-.3-1.5-.1-3.1.4-4 .6-7.2.6-10.2 0-1.2-.3-2.9-2.4-3-1.8-.1-3.1.8-3.4 2.6-.1.8-.2 1.6-.2 2.4v.9c0 .9-.1 1.9-.1 2.8 0 2-.1 4-.3 6-.3 3.1-.4 3.2-3.5 3.8-5.6 1.1-11.5 2.8-18.8 5.2-.3.1-.5.2-.8.3-.9.4-1.8.7-2.8.6v-.3c-.4-3.7-.7-7.1.5-10.6.7-2 .2-3.3-1.4-4-1.8-.7-3.3 0-4.3 2-.6 1.3-.9 2.8-.9 4.7v2.4c0 1.8-.1 3.7 0 5.5.2 2.5-.6 3.9-2.8 5.1-8.5 4.6-15.8 10.6-21.8 15.8-1.1.9-2.1 2-3.2 3.4-.7.8-1 1.7-.9 2.5.1.7.4 1.3 1.1 1.8.7.6 1.8.7 2.9.4.9-.3 1.6-.8 1.8-1.6 1-2.9 3.2-4.5 5.5-6.2.7-.5 1.3-1 2-1.5 4.5-3.7 9.5-7.6 15.5-10.7.1.2.2.3.2.5.2.4.3.6.3.8.2 1.2.3 2.2.3 3.2.3 16 5.8 31.5 17.3 49.0002 1.1 1.6 2.1 2.1 3.1 2.1.6 0 1.2-.2 1.7-.5.7-.4 1.2-1 1.3-1.6.2-1-.4-2-.9-2.8-.1-.2-.2-.4-.3-.5-1.4-2.4-2.7-4.7-4.1-7.1002-1-1.7-1.9-3.3-2.9-5-7.4-12.7-9.1-26.6-9.8-38.5-.1-2 .6-3.1 2.5-3.7 1.2-.4 2.5-.8 3.7-1.3 1.9-.7 4-1.4 6-2 3.3-.9 6.8-1.8 10.8-2.7.5-.1 1.5-.3 1.8-.1.2.2.1 1.4 0 2-.2 1.5-.4 3.2-.8 5-.3 1.5-.6 2.9-.9 4.4-.4 2.1-.9 4.3-1.2 6.5l-.1.4c-.2 1.2-.6 3.1 1.6 3.6 1.9.4 3.2-.5 3.9-2.7.2-.8.4-1.5.5-2.3l.4-2.3c.8-4.3 1.6-8.5 2.3-12.8.5-3.1.5-3.1 3.7-3.2 2-.1 4.3-.1 6.4.1 4 .5 6.6 1.8 7.8 4 1.2 2.2.9 5.2-.7 8.8-.8 1.6-1.8 3.2-3.3 4.9-2 2.4-4.6 4.5-8.1 6.7l-.6.4c-.7.4-1.5.9-2.2 1.4-.6.5-.8 1.3-.5 2.2.3.8 1 1.3 1.8 1.3s1.7-.1 2.4-.4c9-4.7 14.4-10.4 16.6-18.1zM15.9012 103.507c3.4 1.9 6.3-.4 8.3-2 8.5-6.8002 13.6-13.8002 16-22.0002.6-2.2 1.9-3.2 4.1-3.5 3.8-.4 6.8-.7 9.5-.9 3.2-.2 6.5.4 9.6 1.9 6.4 3 8.9 8.5 7 15.3-.5 1.8-1.2 3.5-1.9 5-1 2.1-2.1 4.1002-3.2 6.1002-.4.8-.9 1.6-1.3 2.3-.4.7-1.3 2.4.4 3.4.4.3.9.4 1.4.4.7 0 1.4-.3 2.1-.8.4-.4.8-.8 1.2-1.5 2.8-4.5 5.6-9.4002 7-15.0002.8-3 1.2-5.6.4-8.3-1.9-6.9-6.6-11.1-15-13.1-5.7-1.4-11.4-.6-16.5.2-1.1.2-2.1.3-2.3 0-.2-.2-.1-1.3.1-2.2 1.2-7.5 1.8-15.6 1.7-25.6v-.1c0-3.4 0-3.4 3.4-4.4 4.3-1.3 8.8-2 12.9-2.6 1.9-.3 2.8-1.3 2.7-2.8-.2-2.1-1.9-2-3-1.9h-.2c-3.5.1-6.9 1-10.2 1.9l-1.2.2c-2.4.6-3.7 1-4.4.6-.7-.4-1-1.9-1.5-4.3-.2-1-.6-3.1-3.1-2.8-2 .3-2.9 1.6-2.6 3.8.1.5.2.9.3 1.4.1.5.2.9.3 1.3.4 3 .3 3.1-2.5 4.3l-6.7 2.8c-3.7 1.6-7.3 3.1-11 4.7-.9.4-1.9.9-2.9 1.4-1.5.9-1.6 2-1.4 2.7.4 1.4 1.6 1.4 2.6 1.3h.1c1 0 1.9-.4 2.8-.9.3-.1.5-.3.8-.4 2.9-1.3 5.9-2.5 8.8-3.7 2.3-1 4.5-1.9 6.8-2.9.1-.1.3-.1.4-.2.9-.4 1.6-.7 2.6-.4 0 .1 0 .2.1.3.1.4.2.7.2 1.1.7 9.6-.5 18.9-1.7 26.7-.3 1.9-1.2 3-3.4 3.8-7.4 2.9-12.9 6.9-17 12.4-1.8 2.4-3.6 5.3-3.8 8.9-.1 3.3 0 6.4002 3.2 8.1002zm3.3-4.9002c-.4-.2-.7-.8-.8-1.3-.3-1-.2-2.1.3-3.3 2.8-8 9.1-11.9 15.6-15 .1 1.7-.4 2.8-1 3.9l-.3.6c-2.5 5.4-6.5 10-12.4 14.6-.4.3-1 .7-1.4.5zM305.801 66.2068c1.2-6.6-.2-13-4-17.4-4.1-4.8-10.8-7.3-19.3-7.1-9.6.6-21 5.1-32.2 12.8-.4.3-.8.6-1.2 1-.9 1-1.4 2.1-1.4 3 0 .7.4 1.4 1 1.9 1 .8 2.3 1.2 3.5.8 1-.3 1.8-1 2.2-1.9.8-2.2 2.6-3.2 4.4-4.3l.3-.2c4.1-2.4 7.9-4.1 11.7-5.4 6.1-2 10.8-2.8 15.5-2.6 7.8.4 12.9 5.3 13.6 13.1.4 4.7-.5 9.4-2.8 14.8-3.3 7.4-7.6 14-11.8 20.1-.3.4-.5.8-.8 1.1-.5.7-1 1.4-1.5 2.2-.5.8-1.3 2.1002 0 3.2002.6.5 1.2.8 1.9.8.6 0 1.2-.2 1.8-.6 1-.7 1.8-1.7002 2.4-2.6002 5.4-7.5 9.4-13.9 12.6-20.4 2-4.1 3.4-8.2 4.1-12.3zM90.3011 79.1068c.4 1 .9 1.6 1.5 2 .4.3.9.4 1.3.4s.8-.1 1.2-.3c2.6-1 1.6-3.6 1.3-4.4-.4-1.1-.8-2.2-1.3-3.3l-1.5-3.9c-1.9-5.7-3.8-11.4-5.7-17.3-.4-1.4-1-3-2.8-2.9-1.1.1-2 .5-2.6 1.3-.6.9-.7 2-.3 3.4 2.4 6.9 5.3 16 8.9 25zM206.302 192.407c-1.4.6-2.7 1.4-4 2.3-.7.6-1.2 1.2-1.3 1.9-.1.6.1 1.2.6 1.7 1 1.2 2.3 1.6 3.6 1.1.5-.2.9-.5 1.2-.7.2-.1.3-.2.5-.4 4.2-2.7 8.9-4.4 13.4-5.9 1.3-.4 2.6-.9 3.8-1.4.7-.3 1.3-.3 1.7 0 .4.3.5.9.5 1.3-.1 2.7-.2 5.5-.4 8.2l-.1 2.7c0 .3-.1 1.4-.9 1.5-.6.1-1.2.3-1.7.5-1.2.4-2.4.8-3.9.4-2.6-.7-4.3-.6-5.3.3-1 .9-1.4 2.4-1.2 5 .3 4.1.5 8.2.6 12.2.3 8.1.7 16.4 2.2 24.6.3 1.9.7 3 1.5 3.6.4.3.9.4 1.5.4s1.3-.1 2-.3c5.1-1.1 10.3-1.6 15.4-2l3-.3c1.7-.2 3.3-.3 5 .2 1.9.6 3.2.8 4.2.2.9-.5 1.4-1.7 1.9-3.7.7-2.6 1-4.6 1-6.5V223.707v-2.4-3.6c0-2.9 0-5.9-.2-8.9-.3-5.8-1.2-6.7-7-6.7h-1c-2.8 0-5.7 0-8.5.6-.8.2-1.5.2-1.8-.1-.3-.3-.5-.8-.5-1.7 0-1.4.1-2.8.1-4.2 0-1.4 0-2.8.1-4.2.1-4.1.1-4.1 4-4.8 2.2-.4 4.4-.8 6.6-1.1 1.9-.3 3.8-.6 5.7-1 1-.2 1.8-.6 2.2-1.3.4-.6.5-1.2.3-2-.3-1.4-1.5-2.1-3.2-1.9-3.5.5-6.4.9-9.4 1.4h-.1c-2.7.5-4.2.8-4.8.3-.6-.5-.6-1.9-.7-4.5v-1c0-2.5-1.3-3.2-2.4-3.3-1.9-.2-3.3.8-3.7 2.7-.2.8-.2 1.6-.2 2.4v1.7c-.1 4.5-.1 4.5-3.2 5.5-.7.2-1.5.5-2.4.8-4.5 1.6-9 3.5-13.3 5.3l-1.4.7zm38.5 20.9c.1 1.4-.5 2.1-1.8 2.3l-2 .3c-6.6.9-13.5 1.9-20 4-.4.1-.7.1-1 0-.3-.2-.5-.6-.5-1.1-.1-.9-.1-1.7-.2-2.3v-.5c0-4.1 0-4.1 3.1-5l1-.3c5.9-1.6 12-3.3 18.3-3.1 1.2 0 2 .3 2.4.7.4.4.5 1 .5 2 0 .9.1 1.9.2 3zm-3.5 15.2c-4.9 1-9.8 2-14.6 2.9l-5.8 1.2c-.1-.1-.1-.2-.2-.3-.1-.2-.2-.4-.3-.4-.9-5.9-.8-6.2 5-7.8 4-1.1 8.1-1.7 12.1-2.3 1.6-.2 3.3-.5 4.9-.8.3-.1.6-.1.8-.1.5 0 .9.1 1.1.3.4.3.7 1 .8 1.9.5 4.3.2 4.6-3.8 5.4zm3.8 9.1c-.2 6-.2 6-6.1 6.2-4.2.1-8.4.7-12.5 1.2l-2.4.3c-1 .1-1.7 0-2.1-.3-.4-.3-.6-.9-.7-1.8-.1-1-.1-2-.2-3-.1-1.5.5-2.2 2.2-2.5 2.7-.5 5.4-1.1 8-1.7 3.3-.7 6.6-1.4 10-2.1.9-.2 1.6-.3 2.2-.3.5 0 .9.1 1.1.3.5.4.6 1.6.5 3.7h.4-.4zM343.502 215.207c-1.4-.3-2-.7-2.3-1.2-.3-.6 0-1.6.6-3.1.2-.4.4-.7.6-1.1.3-.5.6-1 .8-1.5.2-.7.2-1.4-.1-1.9-.3-.6-.9-1-1.7-1.3-2.1-.6-3.8.1-4.7 2-.6 1.3-.9 2.7-1.3 4l-.2.8c-.5 1.9-1.4 2.7-2.9 2.9-3.9.4-7.7 1.5-12.9 4 .5-6.4.8-11.3 1.4-16.5.3-3.3 1.8-4.8 5.2-5.3 1.6-.3 3.3-.6 4.9-.9 3-.6 6.2-1.2 9.3-1.4 1.1-.1 2.4-.1 3.6-1 .7-.5 1.4-1.3 1.2-2.5-.2-1.1-1-1.9-2.1-1.9-1.3-.1-2.7-.1-4.1.1-3.1.5-6.3 1.1-9.3 1.6-1.3.2-2.6.5-3.9.7-.2 0-.4.1-.5.1-.8.2-1.2.3-1.6-.3.3-1.6.9-3.1 1.5-4.7l.3-.6c.4-.9.3-1.8-.1-2.5-.5-.7-1.4-1-2.4-.9-1.7.1-3 1.1-3.7 2.9-.8 1.9-1.3 3.6-1.7 5.2-.5 2.1-1.7 3.3-4 3.9-3.3.9-6.6 2-9.8 3l-.2.1c-1.2.4-2.3.9-3.2 1.6-.8.6-1.1 1.6-.7 2.7.4 1.2 1.4 1.4 2.3 1.5 1 .1 1.9-.3 2.7-.6.3-.1.5-.2.8-.3l.3-.1c2.8-1 5.7-2.1 8.8-2.5 0 .1.1.2.1.3.1.3.2.5.2.7-.8 5.7-1.1 11.5-1.3 17.1-.1 1.1-.1 2.2-.2 3.3-.1 1.5-.8 2.7-2.3 3.8-2.7 2-5.2 4.6-7.3 7.6-1.6 2.3-3.4 5.5-3.2 9.5.1 2.9 1.3 5.5 3.4 7.3 2 1.8 4.5 2.6 7.2 2.5 2-.1 3.9-.5 5.5-1.2.4-.2.5-.1.8.3.4.4 1 1 2.5.6s2.3-1.9 2.2-4.1c0-1.2.7-2 1.5-2.9.3-.3.6-.6.8-1 5.8-6.4 10.1-12.6 12.9-18.8.5-1.2 1.4-3.9 1.7-4.8h1.5c2 .1 4.2 1.2 6.1 3 .8.7 2.6 2.6 3.2 4.6 2.4 7.9 1.3 14.9-3.4 21.3-1.8 2.5-3.4 4-5.8 6.3l-.9.8c-1.2 1.2-1.4 2.5-.4 3.7.2.3.5.4.9.4 1.2 0 3-1.1 4.5-2.3 1.9-1.6 4.6-4.1 6.5-6.8 4.3-5.9 6.5-14.4 5.3-21-1.9-8.9-5.7-13.4-12.9-15.2zm-23.4 21.1c-.3-2.5-.5-5.1-.8-7.6-.2-1.9.5-3.3 2.3-4.6 3.6-2.5 6.7-3.7 10.2-3.7h.4c-1.5 6-5.1 10.7-8.6 15.3-.9 1.2-1.9 2.5-2.8 3.8-.2.2-.3.3-.4.3V239.507l-.3-3.2zm-6.4 9.8c-.7.7-1.9.9-3.1.6-2.9-.6-4.6-3.7-4-6.8.6-2.9 2.8-5.9 6.3-8.8.2 1.2.3 2.4.5 3.6.4 3.1.8 6.1 1.1 9 .2 1-.1 1.9-.8 2.4zM105.501 209.207c-3.2-.2-6.5997 0-10.4997.6-2.6.4-4 .6-4.6.1-.6-.5-.7-1.9-.8-4.4 0-.5 0-1-.1-1.6-.1-2-.1-4-.9-5.9-.6-1.4-1.6-3.1-3.8-2.5-2.1.6-3.2 2.2-2.8 4.2.1.6.3 1.2.6 1.8.2.5.4 1 .5 1.5 1.8 8.1.9 9.6-7.1 11.6-.9.2-1.5.2-1.8 0-.2-.2-.4-.6-.4-1.2 0-1.7-.1-3.4-.2-5.1-.2-3.5-.5-7.1.6-10.6.3-1.1.3-2-.2-2.6-.5-.7-1.4-1-2.8-1-2.8 0-4.2 1.6-4.2 4.6 0 3.1.2 6.2.3 9.2.1 1.9.2 3.9.3 5.8.1 4 .1 4-3.5 5.5-1.7.7-3.5 1.5-5.2 2.2l-7.2 3c-1.3.5-2.3 1-3.2 1.6-.9.5-1.5 1.2-1.6 2-.1.6 0 1.3.4 2 1.1 1.7 2.7 2.1 4.4 1.2.4-.2.7-.5 1-.7.2-.2.4-.4.6-.5 3.2-2.1 6.7-3.5 10.2-4.8 1.2-.5 2.4-.9 3.7-1.4.7 1.1.7 2 .6 2.9v.3c-.1 5.1.5 10.2 1.1 14.5.4 3 1 5.9 1.6 8.3.4 1.6 1.8 2.4 3.6 2 1.5-.3 2.4-1.4 2.3-2.9 0-1.2-.2-2.3-.5-3.5-1.4-6.4-1.6-13-1.8-19.4l-.1-2.4c0-1.6 0-2.7 1.5-3.3.6-.2 1.2-.5 1.8-.7 1.9-.8 3.8-1.5 5.7-1.6.6 1.3.6 2.6.5 3.9v1.2c.1 6.9-.2 14-.9 20.9-.1 1.3-.3 2.7-.1 4.1.1.9.6 1.6 1.2 2 .8.4 1.8.4 2.7-.1 1.1-.5 1.7-1.4 1.8-2.7.1-.5.2-1 .2-1.5.2-1.5.5-3 .5-4.5.2-5.7.3-11.5.4-17.1l.6-3.9c.1-4.3.1-4.3 4.5-5.2 2.7-.5 5.5-.5 8.3997-.5 4.7.1 5.4.8 5.5 5.4 0 .5-.1 1-.1 1.6 0 .3-.1.6-.1.9-.6 7.6-2.9 15-7.2 23.5-1.7997 3.5-3.7997 4.8-7.1997 4.9-8.1.1-15.9 2-23.5 3.9-2 .5-4 1-5.9 1.4-.6.1-1.2.4-1.9.8-1.2.6-1.7 1.7-1.3 3 .3 1 1.1 1.6 2.3 1.7h.6c1.7 0 3.3-.5 4.9-.9 9.1-2.6 16.1-4 22.9-4.4 1.4-.1 2-.1 2.3 1.5.4 1.8 1.3 2.4 1.9 2.6.9.3 2-.1 3.1-1.2 1.5997-1.6 7.6997-11.3 8.9997-13.9 4.7-9.6 6.8-18.1 6.7-26.5-.4-6.9-2.5-9.2-9.3-9.7zM185.602 174.807c-1.2.3-2.1.9-2.6 2-1.9 3.9-4.1 7.6-6.4 11.2-2.6 4.2-5.2 8.6-7.3 13.2-2.4 5.5-5.5 11-9.5 16.9-1.5 2.2-2.8 4.5-4 6.8l-1.5 2.7c-.9 1.6-.7 2.9.5 3.7 1.5.9 3.1.6 4.1-.7.5-.7 1-1.5 1.4-2.2.2-.4.4-.8.7-1.2 2.8-4.5 5.5-9 8.4-13.6l3.1-5c.4 1 .4 1.9.4 2.8v25.8c-.1 11.2-.2 22.8 1 34.2.4 3.6.9 5.3 3.2 5.3h.2c1.1 0 1.8-.3 2.3-.9.8-.9 1-2.4.7-4.9-.9-8-1-16.2-.9-23.9v-42.9c0-.3 0-.7.1-1.1.1-1.1.3-2.3-.6-3.1-1.7-1.4-1-2.5-.1-3.9l.2-.3c1.2-2.1 2.5-4.1 3.8-6.2 1.3-2 2.5-4.1 3.7-6.2.9-1.5 1.9-3.2 2.5-5 .4-1 .2-1.9-.4-2.6-.9-.9-1.9-1.2-3-.9zM417.901 214.307c-.6.1-1.3.2-1.9.3-1.2.3-2.4.5-3.5.2 0-.8.5-1.3 1-1.9.2-.2.3-.4.4-.5 2.7-3.6 5.8-7.6 8-12.1l.1-.1c1-2.1 2-4.2 2-6.6 0-3.2-1.5-5.1-4.2-5.4-5.4-.7-10.3.8-14.7 4.4-1.1.9-1.6 1.9-1.6 2.9 0 .9.5 1.7 1.3 2.4 1.1.9 2.1.9 2.7.8.9-.2 1.7-.9 2.1-1.8 1.1-2.3 3-2.8 5.3-3.3 1.2-.3 2-.2 2.4.2.3.4.3 1.2-.1 2.4-.8 2.5-2.2 5.1-4.2 7.7l-8.4 11.1c-1.7 2.3-3.4 4.5-5.1 6.8l-.1.1c-.7.9-1.4 1.8-1.8 2.8-.6 1.2-.3 2.4.6 3.2.9.8 2.1.9 3.3.2.7-.4 1.5-1 2-1.7 3.8-6 9.8-6.3 16.2-6.7h.1c1.9-.1 3.5.7 4.7 2.4 3 4.4 3.8 9.2 2.5 14.4-.8 3.1-1.2 3.2-4.8 3.1-6.5-.1-11.1 2.2-13.8 7.1-1.7 2.9-1.3 6.3 1 8.8 1.2 1.4 2.8 2.1 4.6 2.1 1.1 0 2.4-.3 3.7-.8 2-.8 3.8-2.2 5.7-4.2 3.2-3.4 6-7.5 8.5-12.4 2.6-5.1 2.8-10.8.6-16.8-2.5-7.1-6.9-9.8-14.6-9.1zm3.8 31c-.9 2.7-3 4.5-5.1 6-.6.5-1.2.6-1.7.3s-.9-1-.9-1.9c0-1.1.3-2 1.1-2.8 1.3-1.2 2.9-1.8 5.2-1.8.4.1.9.2 1.4.2zM403.701 60.5068c-1.8-5-5.4-7.8-10.4-8-10.3-.4-19.8 1.7-28.1 6.3-4.2 2.3-7.3 5.7-9.2 9.9-2.1 4.7-2.4 8.9-1 12.9 1.6 4.4 4.7 6.2 9.4 5.6 3.5-.5 6.6-2.4 9.4-5.8 4-5 6.4-10.7 7-17.1.6-5.8.7-6 6.4-6.3l1.5-.1c5.6-.1 7.6 1 9 5 .5 1.5.6 3 .6 4.6v.2c.2 6.4-1.9 12.3-3.8 16.7-.7 1.7-1.6 3.4-2.4 5-.5 1-1 2-1.5 3.1s-1.4 3 .4 4.1c.5.3 1.1.5 1.6.5 1.1 0 2.1-.6 2.9-1.7.3-.5.7-1 1.1-1.7 4.1-7.6 6.7-14.6 7.9-21.6.7-4.4.4-8.2-.8-11.6zm-36.6 19.8c-1.2 1.1-2.4 2.1-4 1.5-1.8-.7-2.2-2.5-2.4-4.1-.5-4.8 1-8.9 4.4-12.2 2.6-2.4 5.5-3.9 9.3-4.9.3 8.3-2.1 14.6-7.3 19.7zM32.0012 189.407c2.3-3.4 4.5-6.7 6.8-10.1.1-.2.3-.4.4-.6.7-1 1.8-2.3 0-3.7-2.4-2-4.3.1-4.9.7-.6.7-1.1 1.5-1.6 2.2-.1.2-.3.5-.4.7-.8 1.2-1.6 2.5-2.4 3.7-1.6 2.5-3.2 5.1-5 7.5-7.5 9.9-12.6 21.2-17.50003 32.2-1.6 3.5-3.2 7.1-4.8 10.6l-.1.1c-.1.3-.3.5-.3.9-.3 1.2-.5 2.7 1.2 3.5 1.3.6 2.6.3 3.6-.9.9-1.1 1.5-2.3 2-3.5 1.20003-2.6 2.40003-5.2 3.60003-7.9 1.3-2.8 2.5-5.6 3.8-8.5.1-.3.3-.6.4-1 .3-.9.6-1.8 1.5-2.4.4 1 .4 2 .4 3v1.2l.3 6.9c.1 3.1.2 6.4.5 9.5.5 5.2 1.4 10.3 2.3 15.3.8 4.3 1.6 8.8 2.1 13.2.1 1 .3 2.2 1.2 2.9.4.3 1 .5 1.6.5h.6c2.1-.3 3.2-1.8 2.9-4.1l-.2-1.6c-.3-2.1-.5-4.3-1-6.3-3.9-17.4-4.5-35.3-4.6-50.4 0-1.9.3-3.2 1.2-4.4 2.2-3 4.3-6.1 6.4-9.2zM524.701 227.307c-1.1.5-1.8 1.5-2.4 2.5-.1.2-.3.4-.4.6-2.4 3.3-4.5 6.2-7.2 8.8-1.5 1.5-3 3-4.9 4-1.5.8-2.6 1.1-3.4.8-.8-.2-1.4-1-2.1-2.4-1.5-2.9-2.2-5.6-2.3-8.4-.1-2.7.1-5.3.3-6.6 0-.4.3-.8.6-1 1.3-.7 3.8-2.1 6.4-3 1.7-.6 3.5-1.2 5.1-1.9 1.2-.5 1.7-1.7 1.4-3-.4-1.3-1.4-1.9-2.8-1.6-.8.1-1.5.4-2.3.6-.4.1-.7.2-1.1.3-1.9.5-4 1.1-5.8 1.8h-.2l-.1-.1c.1-3.8.6-7.2 1.6-11.1.3-1.4 1-1.9 2.4-2 .8 0 1.6-.1 2.4-.1 1 0 2-.1 3.1-.1 2.2-.1 3.6-1.1 3.7-2.8.1-.7-.1-1.3-.5-1.7-.7-.8-2.1-.9-3.1-.9h-2.1c-.5 0-1 0-1.5.1-1.6.1-2.7.1-3-.3-.4-.5-.1-2.1.7-5 .4-1.5.9-3.2-1.3-4.1-1.3-.6-3.2-.7-4.6 1.9-.7 1.4-.8 2.9-.8 4.1v.3c-.1 1.9-.1 3.2-.7 4.2-.5.8-1.5 1.4-3.5 1.9-1.7.4-5 1.6-6.9 2.8l-.2.1c-1.1.7-2.2 1.5-2.8 2.8-.6 1.3-.5 2.4.3 3.2 1 1.1 2.3.9 3.2.7.7-.2 1.2-.6 1.6-1.1l.5-.5c2-1.7 4.2-2.8 6.7-3.4 0 .4 0 .7-.1 1v.4c0 .9-.1 1.8-.2 2.6 0 .4-.1.9-.1 1.3-.2 2.9-.6 6.5-1.4 8.4-.2.3-2 .8-3.2 1.1-.9.2-1.8.5-2.7.8-.8.1-1.8.8-2.3 1.7-.4.8-.4 1.7 0 2.4.8 1.3 2.1 1.8 3.8 1.6.8-.1 1.5-.4 2.3-.7.4-.2.8-.3 1.3-.5v1c0 .9-.1 1.9-.1 2.8-.3 4.6.7 9 2.9 13.2 1.7 3.2 4.1 4.7 7.1 4.7 1.1 0 2.3-.2 3.5-.6 1.7-.6 3.3-1.3 4.6-2.2 6.1-4 10.3-9.8 14.4-15.9.8-1.2.9-2.4.1-3.3-.8-.5-1.9-1.1-3.9-.2zM607.602 207.707c-1.7-.5-3.4-.6-5.2-.7h-.4c-6.5.5-12.5 2.7-17.6 6.5-3.2 2.4-5.8 5.5-7.7 9.3-1.2 2.4-1.6 4.7-1.2 7 .8 4.6 3.2 7.6 7.1 8.8 3.8 1.2 7.1-.1 10.1-3.8.8-1 1.5-2.1 2.2-3.4 3.1-5.2 5.2-10.7 6.3-16.3.2-1.3.6-2 1.1-2.3.5-.3 1.3-.3 2.6 0 4.1 1 7.2 4.6 7.5 8.9.2 2.7-.2 5-1.3 7l-.1.1c-1.4 2.7-2.9 5.5-4.5 8.1-1.6 2.7-3.3 5.5-4.9 8.1-1.2 2-2.4 3.9-3.6 5.9-.6.9-1.7 2.9.1 4.1.6.4 1.1.6 1.7.6 1 0 2-.5 2.8-1.5.4-.5.8-1 1.2-1.7l1.3-2.2c3.3-5.5 6.7-11.1 10-16.6 1.5-2.6 2.6-5.2 3.3-7.9 2-8-2.6-15.7-10.8-18zm-12.6 6.5c-1 6.3-3.4 12.1-7.2 17.5-.8 1.1-1.6 1.7-2.3 1.7-.8 0-1.6-.6-2.4-1.8-1.7-2.3-1.8-4.8-.5-7.6 2.3-4.7 6.6-8.1 12.4-9.8z" fill="#172852"/><path d="M252.601 258.207c-.2 0-.5.1-.7.1-.1 0-.3.1-.4.1 0 0-.1 0-.1.1-11 3.6-23.3 4.5-38.8 2.7-5-.6-5.4-1-6-5.8-.2-1.3-.2-2.6-.2-3.9v-2.1c-.1-5.4-.2-10.9-.7-16.4-.2-1.6-.3-3.5.1-5.3.3-1.2.1-2.2-.4-2.9-.6-.7-1.6-1-2.9-.9-2.4.2-3.5 1.7-3.4 4.7.2 3.2.4 6.4.6 9.4.1 1.2.2 2.4.2 3.6h-.2l.2 4.3c.1 3 .3 6.1.4 9.1.1 2.6.8 5.1 1.5 7.4.8 2.7 2.4 3.9 5.4 4.1 8.3.6 14.6.9 19.9.9 1.8 0 3.5 0 5.1-.1 8.6-.4 14.5-1.8 21.1-4l.2-.1c1.5-.5 3.8-1.2 3.2-3.6-.6-2.1-2.6-1.7-4.1-1.4zM797.802 240.207c-.3-3.7-1.9-6.8-4.5-8.8-2.7-2-6.2-2.8-10-2.1-5.8 1.1-10.3 4.4-12.6 9.5-2.4 5.4-2.1 12.1.9 17.1 1.5 2.5 3.8 4.2 6.9 5.2.5.2 1 .2 1.5.2.7 0 1.4.1 2 .4v.1c-.1.3-.2.6-.4.8-.3.7-1.1 2.1.1 3.2.6.6 1.2.8 1.8.8.7 0 1.3-.2 1.9-.5.6-.2 1-.7 1.3-1 8.3-8 11.8-15.9 11.1-24.9zm-9.8 14.3c-.6 1-2 1.5-3.8 1.6-2.6.1-5.4-1.1-6.6-2.7-2-2.7-2.1-5.6-2.1-7.1 0-5.7 2.2-9.5 6.2-11 1.2-.4 2.3-.7 3.3-.7s1.9.2 2.7.6c1.6.8 2.9 2.4 3.5 4.7 1.4 4.6.3 9.2-3.2 14.6zM677.601 246.207c-1.1.3-1.9.9-2.6 1.6-.3.2-.5.5-.8.7-.7.6-1.7 1.2-2.1 1-.4-.1-.7-1.1-1-1.9-.1-.4-.2-.8-.2-1.3-.1-.4-.1-.8-.2-1.1-1.9-8.1-1.4-16.4-.9-24.5v-.2c.4-7 1.4-14.3 5.7-20.5.5-.7 1-1.7.4-2.8-.7-1.3-2.1-1.3-3-1.2-1.7.1-3 1-3.8 2.8l-.5 1c-.9 1.9-1.8 3.9-2.5 5.9-2.8 8-3.1 16.4-3.1 24.3-.4 5.3.2 11.5 1.8 19.3.5 2.3 1.5 4.2 3.2 5.8 1 1 2 1.4 3 1.4.4 0 .7-.1 1.1-.2 3.5-1.2 6-3.8 8.3-6.4.7-.7.6-1.9-.2-2.9-.8-1.2-2.1-.9-2.6-.8zM51.8012 194.207c-2.1 1-4.1 2.3-5.6 3.3s-1.8 2.6-.9 4.1c.5.8 1.3 1.2 2.4 1.2.4 0 .8-.1 1.3-.2.6-.1 1.5-.5 1.9-1.1 1.8-2.3 4.4-3.3 6.9-4.3.5-.2.9-.4 1.4-.6 16.1-6.5 29.7-10.1 42.5998-11.1 1.4-.1 4-.3 4.1-3 0-2.4-1.9-2.5-3.8-2.5h-1.3c-.9998.2-2.0998.3-3.1998.5-2.7.4-5.7.9-8.7 1.5-13 2.7-25.4 6.7-37.1 12.2zM46.2008 230.107c-.3-1.1-.7-2.2-1-3.2-.3-1-.4-1.8-.2-2.7.2-.9.1-1.6-.3-2.1-.5-.6-1.3-1-2.7-1.1-1.6-.1-2.7.4-3.4 1.2-.8 1-.9 2.5-.3 4.4.4 1.2.7 2.4 1.1 3.6 2.4 7.7 4.8 15.7 8.4 23.2 1.2 2.5 2.5 4.9 3.8 7 1.1 1.8 2.3 2.9 3.4 3.1.2 0 .4.1.6.1.6 0 1.1-.2 1.7-.5 2.2-1.4 1.2-3.7-.1-5.8-5.2-8.5-8.2-18-11-27.2zM724.602 228.307c-1.2.5-1.9 1.5-2.6 2.5l-.3.4c-3.2 4.3-7.4 5.6-12.7 4-.2-.1-.4-.1-.6-.2-.9-.3-1.9-.7-3-.4-1.2.3-2.5.8-2.9 2.3-.4 1.7 1 2.4 2.1 2.9 1.8.8 3.7 1 5.5 1.1.5 0 .9.1 1.4.1.5 0 1 .1 1.5.1 6 0 11-3 15.1-9 .3-.5 1.3-1.9.3-3.2-.9-1.1-2.2-1.3-3.8-.6zM704.102 215.807c1.4-2.1 3.6-2.8 5.9-3.6.4-.1.7-.2 1.1-.3 1.2-.4 2.5-.6 3.8-.8.7-.1 1.3-.2 2-.4 2.1-.4 3-1.4 2.7-3.1-.3-2-1.9-2-3-2h-.4c-5.7.4-10.7 2.1-15.3 5.2-1.2.8-2 1.7-2.5 2.7-.5 1-.3 2 .3 2.8.8.9 1.6 1.2 2.2 1.2.3 0 .6-.1.9-.2 1.2-.4 1.9-.9 2.3-1.5zM683.102 34.1068c-.2-4.8-.6-9.6-1.1-14.3-.4-3.5-.9-4-4.5-4.4-6.9-.8-13.8 0-20.5 2.1l-.6.2c-1.2.4-2.3.8-3.5.6-2.1-.3-3.4-.3-4.1.4-.8.7-.9 2-1 4.2-.1 6.8-.1 13.5 0 20.1 0 2 .5 10.7 1.6 12.6l.2.4c.6 1.1 1.2 2.3 3 2 1.8-.3 2.8-1.5 2.6-3.2-.1-1 .3-1.5 1.3-1.7 6.9-1.7 14.1-2.3 20.3-2.6.5 0 .8.1 1 .3.3.2.4.7.4 1.2 0 1 .1 2.1.1 3.1.3 8.7-.2 17.6-.8 26.2-.1 2-.3 4-.4 6-.3 5.5-1.4 11.5-3.4 18.7002h-.1c-.1 0-.3 0-.4-.1-1.7-1.3-3.3-1.3-4.5.2-1.4 1.6-.4 2.9.3 4 .1.2.2.3.3.5.3.5.7 1 1.1 1.5 1 1.1 2.1 1.7 3.2 1.7h.1c1.1 0 2.1-.6 3-1.8 1.5-1.8 2.4-3.9 2.9-6.2.6-3.1 1.3-6.1002 1.9-9.2002 1-4.8 1.2-9.8 1.5-14.6.1-2.7.3-5.4.6-8.1 1.1-10.9.5-22-.1-32.7-.1-2.3-.2-4.7-.4-7.1zm-10.3-14.3c3.4 0 3.5.2 3.7 3.9V24.6068c0 .5 0 .9.1 1.3 0 .6 0 1 .1 1.4.1.7.1 1.3-.2 1.6-.3.3-.9.5-1.9.5-5.9.1-12.1 1.2-18.9 3.4-.9.3-1.8.5-2.1.3-.3-.2-.3-1.1-.4-1.9v-1.2c-.1-6.3-.1-6.3 5.4-8.1l1.2-.4c3.7-1.2 7.8-1.8 12.6-1.8.2.1.3.1.4.1zm-13.8 17.1c6-1.9 12.3-2.5 18.2-2.9.1 1 .1 1.9.2 2.8.2 2.3.3 4.5.5 6.6.1.9 0 1.5-.4 1.9-.3.4-.8.5-1.6.6-6.7.2-13.4 1.1-19.9 2.6-.7.2-1.1.1-1.5-.1-.3-.3-.5-.8-.6-1.6 0-.7-.1-1.5-.2-2.2-.4-6-.4-6 5.3-7.7zM590.701 107.807c.1.7.2 1.4.4 2.1v.2c.3 1.3 1.2 2 2.4 2h.3c1.7-.1 2.7-1.1 2.7-2.6 0-1.2.1-2.5-.2-3.7-.7-3.6-.7-7.2002-.6-10.8002v-.3c.1-7.1.1-14.2.2-21.2v-4.2c0-.6 0-1.2.1-1.8v-.8c0-1.1.4-1.6 1.7-2.1 3.2-1.3 6.5-2.3 9.8-3.3l.3-.1c1.8-.5 3.5-1.1 5.3-1.6 2.3-.7 4.7-1.4 7.1-2.1 3-1 3.1-1.5 2.5-4.6-.2-1.1-.1-2.1.1-3.3v-.1c.3-2.1.6-4.3.9-6.4.7-5 1.5-10.2 2.1-15.3.6-4.5.2-7-1.2-8.3-1.4-1.3-3.9-1.5-8.3-.6-7 1.4-12.2 2.8-16.9 4.7-.3-.3-.3-.5-.2-.9v-.2c.3-2.2-1-2.9-2.2-3-1.5-.2-2.7.4-3.4 1.8-.4.7-.5 1.6-.5 2.3-.3 3.5-.6 7-.8 10.5-.9 11.5-1.9 23.3-1.9 35v2.7c0 7 0 14.3-.4 21.4-.3 4 .1 8.1002.4 12.0002.2.8.2 1.7.3 2.6zm7.9-60.6002c5.6-3 10.8-5 16-6 .6-.1 1.2-.4 1.8-.8 1.2-.8 1.6-1.7 1.2-2.7-.3-.9-1.1-1.4-2-1.4h-.2c-1.1.1-2.1.3-3.1.5-4.5.9-8.6 2.5-13 4.3l-1.5.6c-.3-2.6 0-5.1.3-7.6.2-1.4.4-2.9.4-4.4 0-.2.3-.5.5-.6l3-1.2c4.9-2 10-4 15.5-4.5 1.4-.1 2.2-.2 2.5.1.3.3.3 1.1.3 2.5-.1 4.2-.8 8.4-1.4 12.4-.3 2-.6 4.1-.9 6.1-.1 1.2-.3 2.3-.5 3.5-.2 1.2-.4 2.4-.5 3.6-.2 1.3-.8 2-2.2 2.4-4.3 1.3-8.7 2.6-13.3 4l-4.8 1.4c-.2-3.4 0-6.4.1-9.3l.1-.8c0-.9.4-1.4 1.7-2.1zM762.901 48.7068l-3.6.3c-1.2.1-2.5.3-3.7.3-1.2.1-2.5.3-3.6.5-1.9.4-3.8.7-5.8.5.1-.4.2-.7.3-1.1.5-1.9 1-3.7 2.2-5.2.8-.9.9-2 .1-2.9-.8-.9-2-1.2-3.3-.7-1.3.5-2.2 1.5-2.8 3-.2.4-.3.8-.5 1.2-.5 1.3-1.1 2.7-1.3 4.1-.4 2.3-1.6 3.4-4.3 4-2.3.5-4.7 1.2-6.9 1.8-1.2.3-2.3.7-3.5 1-1.4.4-2.4.9-3.3 1.6-1 .8-1.3 1.8-.8 2.8.5.9 1.3 1.5 2.5 1.5.8 0 1.4-.3 1.9-.6.2-.1.4-.3.6-.4 3.5-1.6 7.2-2.6 11.3-3.1 0 1.4-.2 2.7-.5 3.9l-.3 1.5-.1.5c-.8 5-1.6 10.3 2.3 14.7 1.7 2 1.4 3.5.2 5.6-2.5 4.5-3.7 8.5-3.6 12.5.1 3.7 1.8 6.2002 5.3 7.7002 1.5.6 3.1 1 5.2 1.1h2.1c3.5 0 7.2-.3 11.3-.9.2 0 .4-.1.6-.1 1.6-.2 3.3-.4 3.8-2.7.1-.7-.1-1.1-.3-1.3002-.7-.7-2.2-.9-4.8-.6l-1.4.2c-3.7.5-7.6 1.0002-11.4.4-2-.3-3.3-.9-4-2-.7-1-.9-2.5-.6-4.5.3-1.7.8-3.5 1.4-5.3 1.1-3 1.1-3 4.5-2.5.7.1 1.8.2 2.8-.5.6-.4.9-.9.9-1.5.1-.8-.4-1.7-1.5-2.7-1.7-1.7-1.7-1.7-.2-3.4 1.6-1.7 3.1-2.5 4.9-2.6.6 0 1.2-.3 1.6-.8.4-.5.6-1.1.5-1.8-.2-1.7-1.6-2-2.6-2-1.7-.1-3.4.4-5.1 1.6-1.1.7-2.1 1.6-3.1 2.4l-1.2.9c-2.1-2.8-2.8-4.2-2.8-6.2.1-2.1.3-4.3.8-6.4.3-1.5.5-2.7.7-3.7.6-3.6.6-3.6 5-4.2.8-.1 1.7-.3 2.8-.4 2.6-.4 5.4-.7 8-1.1 1.2-.1 2.4-.3 3.6-.4 1-.1 3.3-.4 3.1-2.6-.1-1.6-2.1-1.4-3.4-1.4zM569.901 48.7068c-1.3.1-2.5.2-3.6.5-3.1.7-6.2 1.4-9.3 2-4.2.9-8.3 1.8-12.5 2.7l-.4.1c-1.3.3-2.4.6-3.7-.7-.9-.9-1.9-1.2-2.9-1-.8.2-1.5.9-1.8 1.8-.7 2.2-2.3 2.7-4.1 3.2l-.6.2c-12.3 3.8-22.3 7.6-31.4 11.8-1.2.6-2.4 1.3-3.9 2.3-1 .6-1.3 1.7-1 2.8.5 1.7 2.1 1.7 2.9 1.7 1.3 0 2.4-.4 3.1-1.3.7-.8 1.4-1.4 2.3-1.8 8.8-4 18.4-7.5 30.1-11.2.7-.2 1.2-.2 1.5 0 .3.2.4.7.4 1.5.1 15.5-.2 29.6-.9 42.9002-.1 1.6-.4 2.5-2.1 2.4-1.6-.1-2.8.8-3 2.3-.2 1.2.9 2.9 1.9 4 1 1.1 2.6 2.3 3.8 2.3h.1c1.5-.2 2.7-1.1 3.3-2.5.4-1 .9-2.2 1-3.5.1-.8.2-1.6.3-2.5.3-3 .7-6.1.7-9.1002.1-9.6.3-19.4.5-28.9l.2-7.8c.1-3.2.1-3.2 3.3-4 5.1-1.2 10.3-2.3 15.3-3.4 2.6-.6 5.2-1.1 7.8-1.7 1.2-.3 2.4-.5 3.5-.9 1.2-.4 1.8-1.3 1.6-2.5-.1-1.1-1-1.7-2.4-1.7zM483.701 37.0068c-1.3-1-3.1-1.1-6-.5-5.8 1.2-10.7 2.8-14.9 4.8-.9.4-1.6.6-2.1.5-.4-.1-.7-.5-1-1.1-.6-1.4-2-2-3.5-1.5-1.3.4-2.3 1.5-2.5 2.9-.2 1-.2 2.1-.2 3.1V59.1068c-.2 4.8.2 9.9.4 14.8.1 2.2.3 4.5.4 6.8.1 2.6 1.1 4 3.3 4.7 1.2.4 2.5.5 3.7.5 2.7 0 5.3-.8 7.9-1.5l.8-.2c1-.3 1.3-1.4 1.1-2.4-.2-1-.9-1.5-2-1.6-2.3-.1-4.6.1-6.8.6-.8.2-1.4.1-1.8-.1-.3-.2-.5-.7-.5-1.3-.2-2.5-.3-5.1-.4-7.6l-.2-3.1c0-.7.3-1 1-1.5l.2-.1c2.3-1.7 4.9-2.4 7.7-3.1.9-.2 1.7-.5 2.6-.7.6-.2 1.1-.3 1.7-.4.6-.1 1.2-.3 1.7-.5 1.5-.5 2.2-1.4 2-2.7-.3-1.9-2.1-1.8-2.9-1.7-1 .1-2.1.3-3.1.6-3.6 1-6.6 1.9-9.4 2.7-.6.2-1.1.2-1.4 0-.2-.2-.4-.6-.4-1.2 0-.8-.1-1.6-.1-2.4-.1-1.4-.1-2.9-.1-4.3 0-1.7.3-4.7 1.1-5.4 1.2-1.1 4.1-2 5.5-2.5.4-.1.7-.2.8-.3 3.2-1.3 6.6-2.4 10.1-3.2 1.6-.4 2.4-.4 2.9-.1.4.3.6 1.2.7 2.8.2 3.6-.4 7.3-1 10.9l-.2 1.5c-1.1 6.8-2.3 13.5-3.5 19.8-.2 1-.5 2.8 1.5 3.4 1.9.5 3.4-.3 3.9-2.3l.6-2.7 1.2-6.9c.7-3.7 1.3-7.4 2-11.1 1-5.7 1.4-10.1 1.1-14.3 0-3.2-.6-5-1.9-6zM647.001 67.3068c-1.3-1-3.3-1-6-.5-.3.1-.6.1-.9.2-.3.1-.5.1-.8.2-4.2.8-8.2 2.4-12.2 4.1l-.1-.1-.2-.2c-.1-1-.4-2.7-2.4-2.7-1.6 0-2.7.8-3.3 2.5-.2.6-.3 1.1-.4 1.8-1.5 10.2.4 20.5 2 29.6002.2 1 .6 1.7 1.3 2.2.5.3 1.1.5 1.8.5.3 0 .6 0 1-.1.9-.2 1.7-.5 2.6-.8l.4-.1c4.5-1.6 8.5-2.2 12.2-2 4.4.3 5.2.2 6-4.2002 1.5-8.4 1.3-16.7.8-24.4-.1-2.9-.5-5-1.8-6zm-6.4 12.7h-.1c-3.4.9-6.8 1.9-10.2 2.8l-4 1.1c0-.1-.1-.1-.1-.1-1.1-5.6-.9-5.9 3.8-8.6 2.9-1.6 6.3-2.7 10.5-3.5.5-.1 1-.1 1.3-.1.4 0 .6.1.8.2.4.3.6 1.1.7 2.2.1.6.1 1.3.1 1.9v.2c.1 3.1.1 3.1-2.8 3.9zm-9.1 7.5c.7-.2 1.5-.5 2.4-.8 1.9-.6 3.9-1.1 5.8-1.5.7-.2 1.5-.3 2.2-.5.2 0 .4-.1.6-.1.3 0 .5.1.8.3.4 2.8.3 6-.5 10.2-.2 1.1-.7 1.6-1.9 1.8l-1.3.1c-3.4.4-7 .8-10.4 1.8-.4.1-.7.1-1 0-.4-.2-.5-.8-.6-1.2 0-.1 0-.3-.1-.4-.2-1.5-.4-2.8-.6-3.8-.7-4.3-.7-4.3 4.6-5.9zM497.602 57.4068h.5c1.8 0 3.5-.7 4.9-1.3l1.8-.9c.7-.4 1.5-.8 2.2-1.1 11.9-4.7 26-10 40.6-13.7l.3-.1c1.1-.3 2.2-.6 3.1-1.5.6-.6.8-1.4.6-2.1-.2-.7-.8-1.2-1.5-1.4-1.3-.3-2.5 0-3.7.4-3.3 1-6.6 2-9.9 2.9-2.5.7-5.1 1.5-7.6 2.3-.2.1-.3.1-.5.2-.7.3-1.3.5-2-.1l.5-4c.4-3.5.8-7.1 1.2-10.6.2-1.5.9-2.4 2.4-2.8 2.6-.7 5-1.4 7.3-2.2.2-.1.4-.1.6-.2 1.4-.4 3.5-1 2.9-3.3-.6-2.3-2.6-1.7-4-1.3-.2.1-.5.1-.7.2-.9.2-1.7.5-2.5.7-1.5.5-3.1 1-5 1.1.1-.6.2-1.1.3-1.7.2-1.5.4-2.8 1.6-4 1-1 .9-1.9.7-2.4-.3-.89998-1.4-1.39998-2.7-1.49998-2.2-.1-3.7.9-4.5 2.99998-.6 1.7-.8 3.6-.8 5.4-.1 2.5-1.1 3.7-3.5 4.3-3.3.8-6.6 1.8-9.7 2.8-1.3.4-2.7.8-4 1.2-.3.1-.6.2-.8.2-.7.2-1.5.4-2.2.7-1.2.5-1.8 1.5-1.6 2.6.2 1.1 1 1.8 2.3 1.9 1.5.1 2.9-.2 4.1-.7 5-1.7 9.4-3.1 14.2-4.2-.2 1.4-.3 2.7-.5 4.1-.4 3.6-.9 6.9-1.1 10.4-.2 2.5-1.4 3.4-3.6 4.2-4.1 1.5-8.1 3.1-12.1 4.6-1.9.8-3.9 1.5-5.9 2.3-.2.1-.3.1-.5.2-.8.3-1.7.6-2.4 1.4-.7.7-.8 1.6-.4 2.5.1 1.1.7 1.4 1.6 1.5z" fill="#172852"/><path d="M512.201 87.8068c3.4 1.5 7 3 10.5 4.3.8.3 1.5.4 2.1.4.5 0 .9-.1 1.3-.3.6-.3 1.1-.9 1.4-1.6.7-2.1-1-2.7-2.2-3.2-.2-.1-.4-.2-.6-.2-.9-.4-1.8-.7-2.7-1.1-2.1-.8-4.2-1.6-6.1-2.9-.5-.3-1.1-.4-1.6-.5-.2 0-.4-.1-.6-.1h-.1c-1.5 0-3.2 0-3.7 2s1.4 2.8 2.1 3.1l.2.1z" fill="#172852"/></svg>