<svg width="220" height="50" viewBox="0 0 220 50" fill="none" xmlns="http://www.w3.org/2000/svg"><path d="M188.669 26.4561c-2 1.3-3.7 3.2-6.2 4-1.2-1.5-1.3-3.1-1.5-4.8-.1-1.1-.3-2.3-.6-3.4-.9-2.7-2.4-3.1-4.4-1.2-1.3 1.2-2.4 2.7-3.8 4.3-.1-1.1-.1-1.9-.2-2.7-.5-3.7-1.8-4.4-5.4-2.8-2.8 1.3-4.9 3.4-7.2 5.7-.5-2.1-.1-3.8.2-5.6.2-1.1 0-2.1-1.3-2.1-1-.1-1.4.7-1.5 1.6-.6 5.8-1.1 11.5-1.7 17.3-.1.7.4 1.3 1.1 1.5.7.2 1.3-.2 1.5-.9.5-1.7.9-3.5 1.4-5.3 1.6-4.7 4.3-8.5 9.6-10.4 0 2.8-.1 5.2 0 7.7.1 1.5-1.3 3.7 1 4.2 1.8.4 2-1.9 2.7-3.1 1.4-2.3 2.2-5.1 4.7-6.7.8 1.1.6 2.1.8 3.1.2 1 .4 2 .7 2.9.8 3 2.2 3.8 5 2.8 2.4-.9 4.2-2.6 6.1-4.2.6-.5 1.4-1.2.8-2.1-.3-.8-1.1-.2-1.8.2zM134.269 19.2562c1.2-2.2 2.4-4 3.2-6 1.5-3.80002-.9-6.70002-4.9-6.20002-1.6.2-3.3.7-4.8 1.3-1.2.4-3.1 1.1-2.4 2.60002.8 1.8 2.1.5 3.2-.3.1-.1.3-.2.4-.2 1.9-.80002 4.1-1.60002 5.5 0 1.5 1.6-.1 3.5-1.1 4.9-1.4 2-3.1 3.9-4.7 5.8-.4.5-.9 1.1-.5 1.8s1.1.6 1.7.3c.4-.2.9-.5 1.3-.7 3.3-1.2 5-.3 5.9 3 .4 1.3.3 2.5 0 3.9-.6 2.5-1.8 4.6-3.3 6.6-.6.8-1.3 1.5-1.9 2.3-.5.6-1.4 1.2-.6 2.1.7.8 1.7.4 2.2-.2 3.3-3.6 6.3-7.3 6.6-12.5.5-4.8-.6-6.5-5.8-8.5zM59.3692 19.5562c-.9-.2-2 .3-3-.4.8-1.6 1.7-3.2 2.5-4.9.5-1.2 1.2-2.4 1-3.8-.1-1.29998-.6-2.29998-1.8-2.69998-1.9-.8-6.4.5-7.8 2.2-.3.29998-.4.99998-.2 1.29998.2.3.9.7 1.2.6 1.2-.5 2.3-1.2 3.5-1.8.4-.19998 1-.19998 1.4 0 .7.3.8 1.1.5 1.7-.7 1.7-1.4 3.4-2.4 4.9-1.1 1.9-2.4 3.6-3.6 5.4-.5.7-1.2 1.4-.5 2.2.7.9 1.5.3 2.1-.2.9-.8 1.9-1.3 3-1.7 1.4-.5 2.9-1.1 4.2.1 1.4 1.2 1.4 2.8.9 4.6-.9 2.9-2.6 5.3-4.6 7.6-.4.5-.9 1.1-.3 1.7.7.7 1.6.5 2.2-.1 3-3 5.2-6.5 6-10.7.7-3.2-1.1-5.4-4.3-6zM12.9697 36.2561c-2.3 1.2-3.30001-.1-4.20001-1.9-1.8-3.4-2.6-7.1-2.8-11v-6.4c0-.8-.5-1.2-1.2-1.3-1.3.1-1.6.9-1.7 2-.2 4.3 0 8.6 1 12.8.6 2.4 1.4 4.8 3 6.8 2.1 2.7 4.00001 3 6.90001 1.1.5-.3 1.2-.8.8-1.6-.5-.5-1.1-.9-1.8-.5zM95.0693 29.3561c-1.2 1.1-2.4 2.3-3.7 3.4-2.1 1.8-3.5 1.6-4.7-.9-1.8-3.6-2.5-7.5-2.7-11.4.2-.6.3-1.1.4-1.6.2-.6-.1-1-.5-1.3-.7-.5-1.3 0-1.8.4-.7.6-1 1.3-1 2.2 0 5.1.9 9.9 3.6 14.3.9 1.5 2.4 2.5 4.2 2.2 3.5-.7 5.8-3.1 7.6-6 .1-.2 0-.6-.2-.9-.2-.4-.7-.8-1.2-.4zM32.07 16.4561c-.2-.9-.4-1.7-1.5-1.5-.9.2-1.5.8-1.4 1.8.1 1 .4 1.9.6 2.9.5 3.1.9 6.2 1.3 9.3.1.9.3 1.7 1.4 1.7 1.3 0 1.6-.9 1.6-2v-1.4c-.7-3-1.3-6.9-2-10.8zM109.27 16.3562c-1 0-2.2.5-2.1 1.7.5 3.7 1.3 7.4 2.1 11.1.1.3.8.7 1.2.7.4 0 .9-.3 1.2-.7.3-.4.3-.9.4-1.4-.6-3.2-1.2-6.4-1.6-9.7-.2-1.1-.4-1.7-1.2-1.7zM215.87 30.7562c-.7-1.5-2.1-.2-3 .2-3.4 1.4-6.9 2.4-10.6 1.9-1.8-.3-3.1-1-3.2-3.1-.1-1.9.6-3.1 2.5-3.7 1.7-.5 3.4-1.2 5.1-2 1.3-.7 2.6-1.4 3.7-2.5 1.2-1.1 2.4-2.5 1.2-4.3-1.1-1.7-2.9-1.6-4.5-1.1-1.3.4-2.4 1.1-3.6 1.6-2.9 1.3-4.3 4.6-7.3 5.8-.6.3-.6 1.1-.3 1.8.5.9.5 1.9.3 2.9 0 5.1 1.5 6.9 6.5 7.4 1.1.1 2.4.2 3.5-.1 2.6-.6 5.1-1.4 7.6-2.3.9-.5 3-.7 2.1-2.5zm-10.7-10.9c1.4-1 3.4-2.2 4.2-1.6.8.6-1.1 2.2-2.7 3.1-1.7.9-5.4 2.3-5.4 2.3s2.6-2.9 3.9-3.8z" fill="#172852"/></svg>