<svg width="240" height="50" viewBox="0 0 240 50" fill="none" xmlns="http://www.w3.org/2000/svg"><path d="M203.245 30.9996c-1-.2-1.3-.9-1.3-1.8 0-1 0-2-.1-3-.3-3.1-1.8-4-4.8-2.8-1.7.7-3.2 1.7-4.7 2.5-1-.8-.7-1.9-1-2.8-1.2-3.6-2.7-4.2-5.8-2.2-1.8 1.2-3.4 2.5-5.9 4.3.8-2.3 1.1-3.9 2.3-5.1.6-.6.5-1.2-.1-1.7-.8-.6-1.6-.5-2.2.2-.5.6-1 1.3-1.3 2.1-1.9 4.4-3.2 9.1-4.5 13.7-.2.8-.2 1.7-.1 2.5 0 .5.4.9 1 .9.3 0 .7-.1.9-.3.8-.7 1-1.7 1.3-2.6 1.7-4.5 4.8-7.9 8.5-10.9.6-.5 1.2-1.3 2.1-.8 1 .6 1.1 1.6 1 2.6-.1.8-.3 1.6-.5 2.4-.6 2.1-1.2 4.2-1.7 6.2-.1.5-.2 1 .3 1.3.6.4 1.4.5 1.8-.1 1-1.3 1.9-2.7 2.8-4.1 1.8-2.7 3.8-5 7.1-5.7 1.1 1.7.5 3.4.7 5 .3 2.5 1.6 3.4 4.1 2.8.6-.2 1.3-.5 1.5-1.2.3-1.1-.6-1.3-1.4-1.4zM159.045 28.3996c-1.4.9-2.7 1.9-4.1 2.8-4.9 3-5.5 3.1-9.7-.1-3.2-2.4-6.6-4.6-11.9-2.3 3.2-5.9 5.7-10.7 8.8-15.2.5-.7 2-1 1.2-2.3-.5-1-2.1-.6-3.4.8-.5.6-1 1.3-1.4 2-4.6 7.1-8.4 14.7-12.2 22.3-.1.3-.4.6-.4.9.1.4.3.9.6 1.2.1.2.6.1.9 0 1.2-.5 1.7-1.6 2.3-2.5 1.5-2.1 3.3-3.7 5.3-5.2 1.2-.9 2.4-1.1 3.7-.2 1.8 1.2 3.7 2.2 5.5 3.4 1.7 1.1 3.4 2.2 5.5 1.9 4.3-.7 7.6-3.2 10.6-6.1.4-.4.2-.9-.1-1.3-.3-.4-.7-.4-1.2-.1zM114.845 13.8996c-2.5-.3-4.8.7-7.3.8-.8-1.8-.6-3.4-.2-5 .2-.8 0-1.3-.8-1.6-.9-.3-1.6.1-2 .9-.5 1.1-.5 2.2-.5 3.4 0 3-.1 3-3 3.9-1.5996.5-3.1996 1-4.6996 1.6-.8.3-1.7.6-1.3 1.7.3 1 1.1.9 2 .6 2.2-.8 4.2996-1.6 6.5996-1.7.7.5.9 1.2.8 1.8-.8 4.6-.4 9.3-1.4 13.9-.3 1.6-2.2 4.8.1 5.2 2.8.6 2.1-3 2.6-4.8 1.1-4.4 1.1-8.9 1.3-13.4.1-3.7.2-3.7 3.7-4.4 1.5-.3 2.9-.7 4.3-1.1.3-.1.5-.8.5-1.2.1-.2-.4-.5-.7-.6zM64.0451 23.8996c-4.2-.2-8.2 1.2-12.1 2.7-.3.1-.6.3-.8.5-.5.4-1.1.9-.7 1.6.3.6.9 1 1.6.6l1.8-.9c2.8-1.3 5.7-1.7 8.7-2.2 2.5-.4 3.8 1.1 3.3 3.5-.2 1.1-.8 2.2-1.3 3.2-.7 1.5-1.9 2.7-2.2 4.9.9 0 1.6.2 1.9 0 2.4-2.4 4.2-5.2 4.7-8.5.3-3.5-1.3-5.3-4.9-5.4zM10.9452 34.9996c-4.49999-.8-4.49999-.8-5.29999-4.8-1-4.4-1-8.9.4-13.2.3-1 .2-1.6-.7-1.9-.9-.3-1.6.3-2.1 1-.8 1.3-.5 2.9-.8 4.3-.9 4.1-.3 8.3.6 12.3 1.1 4.8 4.5 5.9 8.49999 3 .6-.6-.4-.6-.6-.7zM89.5453 28.0996c-.7.5-1.2 1.1-2.1 1.9-.4-.7-.6-1-.7-1.3-1.1-3.2-1.2-6.5-.9-9.8.1-.7-.2-1.4-.9-1.6-.9-.2-1.6.4-1.9 1.2-.1.9-.1 1.7-.2 2.5-.3 3.2.4 6.3 1.2 9.3.4 1.4.7 3.1 2.4 3.5 2 .4 2.8-1.4 3.8-2.7l.9-1.2c.3-.5.8-1.1.2-1.8-.5-.5-1.2-.3-1.8 0zM238.145 30.2996c-1.9-1-3.1.6-4.5 1.2-3.5 1.7-7 2.8-11 2.5-2.3-.2-4.2-.9-5.1-3.9 1.4-.1 2.2-.1 3-.2 4.1-.8 7.4-2.9 9.7-6.3.8-1.1 1.2-2.5.3-3.7-.8-1.1-2.1-1-3.2-.8-4.3.7-7.6 3-10.4 6.2-4 4.7-2.8 9.4 3.2 10.9 6.8 1.7 12.6-.7 17.9-4.9.1-.2 0-.7.1-1zm-15.8-6.5c1.4-1 4.8-2.7 5.6-2.1.8.6-2 3.2-3.6 4.1-1.7.9-5.4 2.1-5.4 2.1s2.1-3.2 3.4-4.1zM37.8452 26.7996c-2 0-4 0-6 .1-1.2 0-1.8-.6-1.8-1.8 0-.5.1-1 .1-1.5-.3-4.5-.4-8.8 5.9-9 .2 0 .7-.3.5-1.2-.1-.6-.8-.7-1.2-.6-1.6.2-3.2.5-5.2.8-.1-1.4 1-2.8-.8-3.2-1.5-.39997-2.3.8-2.3 1.9 0 2.3-1.2 3.1-3.2 3.7-1.7.5-3.4 1.4-4.9 2.3-.5.3-.9 1-.4 1.7.5.6 1.1.9 1.7.5 1.5-1.1 3.2-1.8 4.9-2.4.9-.3 1.8-.2 2 .8.6 2.4.6 5 .2 7.4-.4 2.2-2.2 1.6-4 2.5-.4.2-.9.4-1.3.7-2.2 1.6-2.4 4.2-.5 5.9 1.7 1.5 3.7 2.1 6 1.4 2.1-.7 2.3-2.7 2.3-4.5-.1-2.3 1.3-2.9 3.1-3.1 1.6-.2 3.3-.2 5-.4.4 0 .9-.4.9-1-.1-.6-.6-.9-1-1zm-12.5 7.7c-1.4 0-2.5-1.6-2.1-2.6.4-1 3.8-1.4 3.8-1.4.5 2.8-.2 4.1-1.7 4z" fill="#172852"/></svg>