<svg width="485" height="100" viewBox="0 0 485 100" fill="none" xmlns="http://www.w3.org/2000/svg"><path d="M480.932 37.318c-.1-.5-.4-.9-1-1.3l-.2-.1c-2.8-.9-4.8-3-6.9-5.1l-.2-.2c-5.7-5.7-10.2-12.5-14.5-19.1-.6-.9-1.2-1.90003-1.9-2.80003-.8-1.2-.8-1.7-.2-2.5 1.9-2.2.2-3.7-.7-4.5l-.2-.1c-2.1-.999998-3.4-.6-4.2-.1-1.4 1-2.3 2-3.3 3.2-9.6 11.20003-17.3 24.10003-23 38.20003-.4.9-.8 2-.4 3 .3.6.8 1.1 1.6 1.4.6.2 1.1.3 1.7.3 1.4 0 2.6-.7 3.3-2.1.4-.7.7-1.5 1-2.2.1-.3.3-.7.4-1 4.7-10.8 9.8-19.8 15.8-27.6.2-.2.3-.4.5-.6.4-.6.9-1.2 1.5-1.6.2.3.4.5.6.8.7 1.1 1.5 2.2 2.2 3.3 2.8 4.5 6 9 9.9 13.7 3.2 3.9 6.4 7 9.7 9.5 2.9 2.1 5.4 2 7.8-.4l.1-.1c.4-.6.8-1.3.6-2zM372.732 58.818l-.3-.1c-.4-.2-.8-.4-1.3-.5-4.1-.9-7.6-2.9-11.4-5.1-.6-.4-1.2-.7-1.9-1.1-3.2-1.8-6.6-3.7-9.8-5.4-2.4-1.3-4.8-2.6-7.2-4-.9-.5-1.8-.9-2.8-1.3-1.9-.8-3.6-1.5-4.5-2.9-1-1.6-.8-3.6-.5-5.7.1-1 .2-2 .2-2.9 0-3.6 0-3.6 3.6-4.1 2.3-.3 4.7-.6 7-.8 2.4-.3 4.9-.6 7.4-.9 2.4-.3 4-1 4.6-2.1.3-.6.4-1.2.1-1.9-.9-2.2-2.9-2.1-4.3-2-.3 0-.6.1-.9 0-5.3 0-10.5.8-15.5 1.6-1.1.2-1.4 0-1.4-.1-.1-.1-.1-.3-.1-.8.1-1.1.2-2.2.2-3.3 0-2.2.1-4.2.9-6.10003.9-2.1.5-3.6-1.3-4.5-1.9-1-3.8-.6-5.2 1-1.4 1.6-1.6 3.5-1.6 5.10003v.7c0 1.8 0 3.6-.1 5.4 0 .5 0 .9-.1 1.3-.1 3.1-.1 3.1-2.7 3.8-2.3.6-4.6 1.2-7 1.8-4.1 1.1-8.2 2.1-12.3 3.2-1.7.5-3.1 1-4.4 1.5-1.4.6-2 2.1-1.5 3.6.4 1.4 1.6 2.2 3.2 2.1.7 0 1.4-.2 2.2-.5 5-2 10.4-3.3 15.6-4.5 1.3-.3 2.7-.6 4-1 .4-.1 1.5-.4 2.3-.2v1.4c0 2 0 3.9-1.4 5.6-4.3 4.9-8.1 10.3-11.8 15.4-4 5.5-8 11.3-12.7 16.4-.6.6-1.9 2.1-.7 3.8 1.2 1.6 3.1 1.8 4.8.7 1-.7 1.8-1.6 2.5-2.4l.4-.5c4.2-4.8 8-10 11.6-15.1 1.8-2.5 3.6-5.1 5.5-7.5.1-.2.2-.3.4-.5.2-.3.4-.5.5-.7-.6 4.9-.6 9.8-.7 14.6 0 2.1 0 4.3-.1 6.4 0 1.1-.1 2-.3 2.3-.2.3-1.1.5-2.3.7-1.1.3-2.2.5-3.3.7-1.6.3-3.3.7-5 1.1-1.4.4-2.4 1.1-2.9 2.1-.3.7-.3 1.5 0 2.3.5 1.2 1.7 2.5 4.5 1.6 2.4-.7 5.1-1.4 7.8-1.6.4 0 .7.1 1 .3.3.2.4.6.4.9 0 1.1 0 2.3-.1 3.3l-.3 3.3c-.3 2.6-.5 5.1-1 7.8-.2.7-.7 2.7 1 3.7.6.4 1.3.6 2 .6.8 0 1.6-.2 2.3-.7 1.8-1.2 2-3.1 2.2-4.7 0-.3.1-.5.1-.8l.2-1.4c.5-3.4 1-6.6.8-10-.1-3.6.1-4.1 1.8-4.4 2.7-.4 10.3-.8 12.9-.9h2.4c2.5 0 4.9.1 6.4-1.1 1-.8 1.4-1.9 1.1-3.1-.3-1.1-1.1-1.9-2.1-2-1.2-.1-2.4-.2-3.6-.2-5.5 0-11.3 0-17.1.9-1.3.2-1.6.1-1.7 0-.1-.1-.3-.4-.2-1.7.1-4.7.4-9.4.6-14 .1-1.6.2-3.2.2-4.7.9 0 1.6.4 2.3.9.3.2.6.3.9.5 6.3 3.1 12.7 6.6 19.6 10.8 4.4 2.7 8.2 4.4 11.9 5.5 1.4.4 3.1.8 4.9.3 1.1-.3 2-1.1 2.2-2.2.8-1.2.2-2.4-1.1-3zM416.932 51.918c-1 0-2 .2-3 .4l-1.5.3c-.4.1-.8.1-1.3.2-.9.2-1.8.4-2.6.2 0-.3 0-.5-.1-.7-.1-.9-.1-1.8-.1-2.6 0-1.2 0-2.1.2-2.4.3-.3 1.2-.6 2.6-1 .3-.1.7-.2 1-.3.6-.2 1.3-.3 1.9-.6 1.1-.4 2.1-.9 2.8-1.4 1-.6 1.4-1.7 1.1-2.7-.4-1.3-1.4-2.1-2.7-2.1-.8 0-1.7.1-2.7.3-1.1.2-2.2.5-3.6.9-.3.1-.6.2-1 .3v-1.8-5.6c0-.9.2-1.4 1.6-1.6 1.3-.2 2.7-.4 4-.7l1-.2c1.9-.4 2.9-1.7 2.7-3.4-.1-.9-.6-2.3-3.2-2.2-1.2 0-2.3.1-3.5.1l-1.5.1c-.6 0-.9-.1-1-.9-.8-4.3.4-6.2 4.6-7.4.5-.2 1.1-.3 1.6-.4 1.6-.4 3.2-.8 4.7-1.7 1.3-.8 1.8-2.2 1.2-3.7-.5-1.2-1.7-1.80003-3.1-1.60003-1.4.30003-3 .70003-4.9 1.20003-1.9.5-3.8 1.1-5.6 1.6-4.3 1.3-8.7 2.6-13.2 3.5-.4-.9-.3-1.8-.2-2.7 0-.4.1-.8.1-1.2 0-.8.1-3.20003-2.4-3.60003-2.6-.4-3.8.9-4.3 2.10003-.8 1.8-.9 3.6-.9 5.2 0 1.2-.1 2.4-.1 3.6-.1 2.5-.1 5.2-.3 7.7-1 12.7-1.2 24-.7 34.6.1 1.8.2 4.2 2.7 5.4 2.6 1.2 4.7.1 6.4-1.2 5.7-4.3 12.8-5.7 19.6-7.1l.9-.2c.3-.1.7-.1.9.1.3.2.4.6.4.9v.4c.1 1 .2 1.9.1 2.8-1.2 8.8-3.5 16.6-7 23.7-.9 1.9-2 3.2-4 3.2-.8 0-1.7.4-2.3.8-1.2.7-1.7 1.7-1.6 2.9.2 1.2 1 2.1 2.3 2.5.7.2 1.4.3 2.1.3 1.7 0 3.3-.5 4.8-1.6 3.2-2.3 5.5-5.5 7-9.5 2.6-6.9 4.5-13.9 5.9-21 .5-2.7.3-5.5-.7-8.3-.7-3.1-2.1-4-5.1-3.9zm-24.9-14.6c.1-.8.5-1.3 1.1-1.5.8-.3 1.5-.6 2.3-.9 1.3-.6 2.6-1.2 3.7-1.2.4 0 .8.1 1.2.3.9.5.8 1.8.6 3.8-.1.8-.2 1.6-.2 2.4.1 2.7.1 2.7-2.6 3.5-.7.2-1.4.4-2 .7-1.5.5-2.8 1-4.4 1.1-.5-2.4-.2-4.9.2-7.4l.1-.8zm8.3-10.8c-.6.9-2.4 1.4-5.6 2.4-.6.2-1.2.3-1.9.4h-.2c-.3-3.4-.4-5.3.2-6.3.6-1 2.3-1.4 6-2.3.5-.1 1-.2 1.6-.3h.2s0 .1.1.1c.1 3.3.2 5.1-.4 6zm-8.8 26.6c0-.8.5-1.1 1-1.3 2.5-.9 5.1-1.6 7.5-2.3h.3c.2 0 .3 0 .4.1.3.2.8 1.4.7 3.2-.1 1.6-.5 2.5-.8 2.6-2.1 1-4.3 1.8-6.6 2.7-.7.3-1.4.5-2.1.8-.5-1.4-.5-2.7-.5-4.2.1-.5.1-1 .1-1.6zM53.9324 47.018c-3.8-.3-7.3-.1-10.7.5-.7.1-1.4.3-2.1.5-1.6.4-3.2.8-5 .7 0-1.7 0-3.3.1-4.9.1-3.4.1-6.5 0-9.8 0-.7-.1-1.5-.1-2.4-.1-1.6-.2-4.2 0-5l2.4-.9c1.8-.7 3.4-1.3 5.2-1.8.2-.1.5-.1.8-.2.7-.1 1.7-.3 2.4-1.1.4-.4 1.2-1.3.9-2.6-.2-1.1-1.1-1.8-2.2-1.9-1-.1-2.2-.2-3.2 0-1.8.3-3.5.8-5.2 1.2-.5.1-1 .2-1.5.4v-.7c-.1-1-.1-2-.1-2.9.1-2.8-1.6-3.5-3-3.7-2.3-.2-4 .9-4.3 3-.2 1.1-.2 2.1-.1 3.2v.9c0 1.5 0 2.4-.2 2.7-.3.4-1.1.7-2.6 1.4-5.5 2.3-10.3 4.4-14.7 6.3-2.29997 1-4.19997 2.3-5.59997 3.9-1.3 1.5-1.5 3.1-.5 4.3.7.9 1.6 1.2 2.2 1.2.9.1 1.9-.3 2.7-1.1 3.69997-3.5 8.29997-5.2 13.09997-7 1.4-.5 2.9-1.1 4.3-1.7 1.4-.6 1.8-.6 1.9-.6.1.2.2.9.3 2.2.1 1.9.1 3.8.1 5.7 0 3.2 0 6.4.3 9.7.3 3.8-.9 5.8-4.5 7.4-5.6 2.4-10.6 6.5-15 12-3.39997 4.3-4.69997 9-3.89997 14.1.7 4.7 4.19997 7.8 8.99997 8.1 7.5.6 14.7-3.8 17.7-10.6.9-2 1.4-4.1 1.8-6.1l.2-.7c.6-2.6.9-5.3 1.1-7.9.2-1.8.3-3.6.6-5.4.3-1.5.7-2.1 1.9-2.4 5.2-1.5 10.4-2.1 15.4-1.6 2.5.2 4.2 1.5 5.4 4 1.1 2.2 1.3 4.6.7 7.1-.8 3.7-1.9 6.9-3.3 9.6-2.2 4.4-4.3 8.9-6.3 13.3l-.9 1.9c-.4.8-.7 1.6-1 2.4l-.3.8c-.5 1.3-.3 2.4.7 3.3.6.5 1.3.8 2.1.8.6 0 1.1-.2 1.7-.5 1-.6 1.8-1.4 2.3-2.6 1.3-3.1 2.9-6.2 4.4-9.2 2-4.1 4.2-8.4 5.9-12.8 1.6-4.2 2.3-8.1 2-12-1.1-7.5-5.8-12-13.3-12.5zm-25.3 11.6v.3c-.3 6.8-1.2 12-2.9 16.7-1.1 2.9-3.2 4.9-6.5 5.8-2.1.6-4 .3-5.2-.7-1.2-1.1-1.8-2.9-1.5-5.1.3-2 1.1-4 2.4-5.9 3.1-4.5 7.5-8 13.7-11.1zM164.432 27.018c-4.5-1.4-8.9-.7-13.1 0h-.3l-1.5.3c-1.1.3-2.2.5-2.9.3-.6-.2-.7-.6-.6-1.9 0-.8.1-1.6-.3-2.4v-.4c-.5-1.9-1.6-2.8-3.3-2.8-2.1.1-3.4 1.3-3.6 3.2-.1 1.5-.1 3 0 4.6 0 1.4-.4 1.9-1.7 2.3-1.5.4-3 .9-4.4 1.4-1.1.4-2.1.7-3.2 1.1-2.9.9-5.8 2.2-8.7 3.6-1.5.7-3.1 1.5-4.7 2.1 0-.6.1-1.2.1-1.8 0-.2.1-.4.1-.6.4-3.7-1.4-4.5-2.4-4.7-2.2-.4-4.2 1.3-4.8 3.9-.3 1.6-.4 3.2-.2 4.7 0 .2.1.5.1.7.2 1.7.3 2.1-2.4 3.7-5.2 3.2-9.7998 7.3-13.7998 10.9-1.5 1.3-2.7 2.8-3.8 4.1-1.5 1.8-.8 3.2-.3 3.9 1 1.3 2.4 1.2 3.5 1.1 1.5-.1 2.3-1.1 2.9-1.9.1-.2.2-.3.4-.5 3.8-4.7 8.9998-8.5 14.0998-12.1l.1-.1c.4 1.8.7 3.3 1.1 4.9 1.7 8.6 3.7 17.7 7.9 26.2 2.8 5.7 7.1 10.2 13.3 13.8.7.4 1.6.9 2.5 1.1.3.1.6.1 1 .1 1.4 0 2.6-.8 3.4-2.2 1.2-2.2-.8-3.4-1.6-4-.4-.2-.8-.5-1.2-.7-.5-.3-.9-.6-1.4-.9-4-2.6-7.1-6.1-9.2-10.2-4.9-10.2-7-20.9-8.5-31.1-.2-1.2.1-1.8 1.1-2.3 6.8-3.7 13.4-6.3 20.6-8.2V42.118c0 2.7 1.8 3.2 2.8 3.3 1.7.1 3.1-.7 3.7-2.2.4-1 .5-2 .6-3 0-.3.1-.7.1-1 .2-1 .2-1.9.2-2.8v-.6c0-1.2.5-1.8 1.7-2 .5-.1 1.1-.2 1.6-.3 3.6-.6 7-1.3 10.5-.8 2.2.3 3.7 1 4.4 2.2.7 1.2.6 2.9-.3 4.9-.9 2-2.3 3.9-4.5 6.1-5.7 5.6-11.7 9.5-18.3 11.9-1.5.6-2.9 1.2-4.2 1.9-1.2.6-1.6 2-1.1 3.3.3.9 1.2 1.5 2.4 1.6 1.7.2 3.3-.4 4.8-.9 8-2.8 15.2-7.4 21.9-14.1 2.9-2.8 4.7-5.4 5.9-8.2 1.3-3 1.2-6.1 0-8.8-1.2-2.8-3.5-4.7-6.5-5.6z" fill="#172852"/><path d="M474.932 88.018l-.3-.2c-7.8-4.8-12.9-11.8-18.1-19.4 2.7-1.1 3.3-1.8 5.5-4.5l.5-.6c1.2-1.4 3.1-4 5.4-7.4 1.6-2.4 2.1-4.6 1.4-6.6-.7-2-2.6-3.4-5.5-4.2-1.1-.3-2.3-.4-3.5-.4h-4.2c-.5 0-.6 0-.5-1.1v-1.1c0-1.4-.1-2.9.6-3.7.4-.3 2.5-.6 3.6-.7 1.1-.2 2.1-.3 2.6-.5 2.2-.8 1.9-2.8 1.8-3.5-.2-1.3-1.2-2.2-2.7-2.2-1 0-2.1 0-3.2.3-6.5 1.4-12.2 2.6-17.5 3.8-1.4.3-2.8.8-4 1.3-1.1.5-1.8 1.2-2.1 2-.2.5-.3 1.4.2 2.4.8 1.6 2.3 2 4.2 1.2 1.7-.7 3.5-1.1 5.4-1.6.9-.2 1.8-.4 2.6-.6.8-.2 1.1-.1 1.1-.1s.2.2.2 1c0 3.7-.6 4.6-4.3 5.8l-.5.2c-.9.3-1.9.6-2.8.9-1.8.6-3.2 1-5.1.3-2.7-.9-4.3-.3-5.1.4-.8.7-1.7 2.2-1 5.2.2 1.1.6 2.1 1 3 .2.6.4 1.1.6 1.7.5 1.6 1 3 1.6 4.6.6 1.5 1.1 3 1.7 4.7.7 1.9 2.2 2.8 4.1 2.4.8-.2 1.4-.3 1.9-.5.7-.2 1.1-.3 1.5-.3-1.3 6.6-4 12-8.3 16.6-.3.4-.7.7-1.1 1.1-.5.4-.9.9-1.4 1.4-.9 1-1 2.4-.3 3.4.4.6 1.3 1.4 3.1 1.2 2-.2 3.3-1.6 4.3-2.6 3.5-3.5 6.1-7.5 8-11.7.9-2 1.6-4.1 2.4-6.1.2-.6.5-1.3.7-1.9.8.4 1.4 1.2 2 2.1.2.3.5.7.7 1 .9 1.2 1.8 2.3 2.7 3.5 1.4 1.8 2.8 3.7 4.3 5.5 3.2 3.8 7.2 7 11.8 9.6.8.4 1.6.7 2.4.7.4 0 .8-.1 1.2-.2.9-.3 1.7-.9 2.1-1.7 1.5-2-.6-3.2-1.7-3.9zm-20.9-26.6c-.4.3-1 .7-1.6.2-.2-.1-.2-.4-.1-1.2v-.2c.4-2.1.8-4 1.2-5.8.7-2.9 1.4-3.8 5-3.8h.3c.1 0 .2 0 .3.1.4.1 1 .2 1.5.4 1.4.5 1.6.8 1.6.9 0 .1 0 .5-.8 1.6-1.9 2.7-4.4 5.3-7.4 7.8zm-7.5-7.8c-.1 2.2-.7 4.3-1.2 6.4l-.6 2.4c-.2.8-.8 1.2-2.3 1.4-.9.1-1.4-.2-1.8-1.1-.3-.7-.6-1.4-.9-2-.8-1.8-1.3-3-1-3.7.3-.8 1.9-1.6 5-2.7.2-.1.5-.2.7-.3.6-.2 1.1-.4 1.8-.4h.3zM298.533 16.218c-1.2-1.3-2.8-1.3-4.8 0-1.7 1.1-2.8 2.7-3.9 4.3l-3.1 4.6c-4.4 6.6-8.9 13.4-13.3 20.2-2.2 3.3-4 6.9-5.6 10.7-.5 1.3-.9 2.4-1.1 3.4-.3 1.6.3 2.9 1.7 3.5 1.3.5 2.6.3 3.7-.7 1-.9 1.5-2.1 1.8-3.1.1-.2.2-.5.3-.7 1.2-2.9 3.2-7.2 6.3-11.6 0 1.6 0 3-.2 4.2-.9 9.9-.8 20-.7 29.7v3c0 1.6.1 2.9.3 4.1.3 2 1.5 3.1 3.2 3.1h.6c2-.3 3.3-1.6 3.4-3.4.1-1.7 0-3.2-.2-4.6-.6-4.2-.7-8.9-.3-14.6.3-4 .4-8 .5-11.9.1-2.5.1-4.9.2-7.4.1-1.9.2-3.8.4-5.7l.3-4.2c.2-3.4 1.2-6.4 3.2-9.1.7-1 1.4-2 2-2.9 1.4-2.1 2.9-4.3 4.6-6.1.7-.7 2.7-2.7.7-4.8zM244.732 36.918c-5.2-1.9-10.4-2.7-15.5-2.5-12.2.6-24.4 3.4-36 8.5l-.6.3c-1.2.5-2.5 1.1-3.6 2.2-.4.5-1.6 1.7-.7 3.3.7 1.2 1.9 1.8 3.1 1.5 1.1-.3 2.1-.7 3-1.1.3-.1.5-.2.8-.3 10.9-4.6 21.9-7.4 31.7-8.1h.1c5.7 0 12.1 1.1 14.5 2.1 3.6 1.5 4.5 3.5 3.4 7.2-.7 2.3-1.9 4.4-2.9 5.9-4 5.9-8.8 11.3-14.7 16.5l-.6.5c-1.1.9-2.1 1.9-3.1 2.9-.7.8-.9 1.7-.6 2.6.4.9 1.3 1.6 2.4 1.8h.7c1.9 0 3.1-1.1 4.2-2.1l.3-.2c6.5-5.7 11.7-11.2 15.8-16.7 2.1-2.9 4.3-6.1 5.4-9.8 2-7.2-.3-12.1-7.1-14.5zM76.1324 38.818c-1.4-2.2-2.7-4.3-3.1-6.9-.3-1.7-2.1-1.8-2.9-1.8h-.1c-1.5 0-2.8.6-3.6 1.6-.7.9-.9 2.2-.5 3.5 1.2 4.1 3.7 7.6 5.9 10.6.7.9 1.6 1.3 2.6 1.3.3 0 .7 0 1-.1 1.2-.3 2.1-1 2.5-2 .3-.7.5-1.8-.3-3.2-.3-1.1-.9-2.1-1.5-3zM385.233 83.018v-.9-.6-3.4c.1-3.1-1.6-4-3.1-4.2-.9-.1-1.9.2-2.7.8-.9.8-1.5 1.9-1.5 3.1-.2 3.9-.1 7.9 0 10.9 0 1 .4 1.8 1 2.4.6.6 1.4.8 2.4.8h.2c2.3-.1 3.7-1.4 3.8-3.6v-3.8c-.1-.4-.1-1-.1-1.5zM398.732 81.618c-.8-2-1.6-4-1.4-6.1.1-1.5-.9-2.6-2.8-2.8-1.4-.1-2.5.2-3.3.9-.9.8-1.4 2.1-1.4 3.9v.1c.3 2.7 1.3 5.4 2.8 7.9.7 1.1 1.6 1.7 2.8 1.7.6 0 1.2-.1 1.9-.4 1.8-.8 2.5-2.6 1.7-4.5l-.3-.7zM404.832 78.818c.9-.5 1.4-1.2 1.4-1.9.1-1.3-.4-2.3-.7-3.1-.3-.6-.5-1.1-.4-1.6.2-1.9-.8-3.2-2.7-3.4-2.1-.2-3.8.7-4.5 2.5-1 2.3.5 6.4 2.8 7.6.6.3 1.3.5 1.9.5.9 0 1.7-.3 2.2-.6zM409.933 73.018c.5 0 .9-.1 1.3-.2 1-.3 1.7-.9 1.9-1.6.7-2.4-.5-5-1.6-6-1-1-2.3-1.5-3.4-1.4-.8.1-1.5.5-2 1.2-1.4 2-1 5.3 1 7.1.8.6 1.9.9 2.8.9z" fill="#172852"/></svg>