<svg width="800" height="285" viewBox="0 0 800 285" fill="none" xmlns="http://www.w3.org/2000/svg"><path d="M131.332 56.6c2.4 1.7 3.7-.9 5-2.6.3-.4 1-1.5 1.4-1.9 4.1-5.9 8.7-11.4 13.6-16.6 1-1.1 2.1-2 3.3-2.9 3.5-2.6 4.4-2.9 3.8-6.4-.1-.7-.7-1.2-1.5-1.2-.9 0-1.7.4-2.3 1-.4.4-.9.8-1.3 1.2-7.7 7.5-14.8 15.6-20.8 24.5-1 1.4-3.6 3.2-1.2 4.9zM404.331 254.8c-9.7-3.4-15.6-11.5-21.9-19.1-1-1.2-3.8-4.8-4.5-5.6-.7-.9-.2-2.2 1-2.4 1.6-.3 3.3-.5 4.6-.6 5.1-.4 10.2-1.2 15.4-1.1 1.3 0 2.7.1 3.8-.9.6-.6 1.3-1.2 1-2.1-.2-.5-.9-1.1-1.4-1.3-.8-.3-1.6-.3-2.5-.2-5.8.5-11.6.9-17.4 1.5-4.3.5-8.6 1.2-13.1 1.8-.7.1-1.2-.5-1-1.2 1.7-5.5 2.2-11.3 2.8-11.9.9-1 4-1.7 5.7-1.9 2.5-.2 4.9-.6 7.4-1.1 1.4-.3 2.6-1 2.3-2.7-.3-1.3-1.5-1.6-2.8-1.5-1.6.2-3.3.5-4.9.7-8.7 1.1-8.6 1.1-8.3-7.9.1-2.7 1.1-4 3.7-4.3l8.4-1.2c1.4-.2 2.7-.9 2.5-2.5-.2-1.7-1.6-1.9-3.1-1.7-2.8.4-5.6.9-8.4 1.4-1.1.2-2.6.6-2.8-1.1-.4-3.6-.8-7.4 1-10.7 1.2-2.2 4-1.9 6.2-2.4 4.1-.9 8.1-1.9 12.3-1.8 1.6 0 3.1-.3 3.2-2.2.1-1.4-2.6-1.9-5.7-1.9-1.2 0-8 2-11.3 1.4-.5-.9-.2-1.3.1-1.7 3.3-5.2 6-10.7 10-15.4.7-.8 1.3-1.6.6-2.6-.8-1.1-2-1.1-3.1-.8-1.5.4-2.4 1.7-3.2 3-3.1 4.9-6.6 9.7-9.1 14.9-2.3 4.7-6.1 6.1-10.5 7.2-1.6.4-2.4 0-3.2-1.4-1.9-3.4-3.4-6.8-3.5-10.8-.1-2-.3-4-.6-5.9-.1-1.1-.9-1.8-2-1.8s-2 .5-2.4 1.4c-.4.9-.4 1.9-.5 2.9-.4 6.1 1.3 11.8 4.7 17.6-3.7 1.5-6.9 2.7-10.1 4-1.7.7-3.4 1.4-4.8 2.7-1.1 1-1.7 2.2-.7 3.5 1 1.2 2.6 1.2 3.6.3 5.4-4.9 12.6-5.7 19.1-8.1 1.2-.5 3-1.2 4.2-.4v4c-.2 7.8-.2 7.8-7.7 10.4-2.2.8-4.5 1.4-6.4 2.8-1 .8-1.5 1.9-.9 3 .7 1.2 1.9 1.3 3.1.9.8-.3 1.4-.8 2.1-1.2 2-1.3 4.2-2 6.4-2.6 2.5-.7 3.2-1 3.2 1.4 0 1.6 0 5.4.2 7.5.2 2.5.3 2.5-2.3 3.2-1.1.3-4.8.4-10.2 2.3-2.2.8-7.8 2.7-9.4 4.4-.6.6-1.1 1.3-.7 2.2.5 1 1.4 1.5 2.4 1.3.8-.2 1.5-.7 2.2-1 5.7-2.4 10.7-4 17.2-5.2.2 0 .7 0 .6.4-1.2 6.2-2.7 12.2-3 13.1-.1.2-.3.4-.5.5-1.1.4-4.4 1.6-6.3 2-9.9 2.1-19.5 5.6-29 9.2-1.5.5-3.8 1.1-3 3.2.8 2.3 3 1.1 4.8.9.2 0 .3-.2.4-.2 7.8-3.4 15.9-5.8 24.1-8.1 1.2-.3 2.8-1 4.5-1.3.8-.1 1.5.7 1.1 1.4-1 2.1-2.2 3.6-3.1 5-3.5 5.1-7.1 10-10.7 15-.8 1.1-1.5 2.2-2 3.4-.4.8-.1 1.6.6 2.2.8.6 1.5.4 2.3 0 1.2-.6 1.9-1.8 2.7-2.9 5.5-7.7 11.4-15.1 15.7-23.6.2-.4.4-.7.6-1 .5-.8 1.4-1.3 2.3-1.5l2.3-.4c1.3-.2 2.6.3 3.3 1.3 2.4 3.2 7.7 10.3 10.4 13.3 4.2 4.7 7.8 8.6 12.9 11.6 2.3 1.4 4.7 2.6 7.4 2.9 1.3.2 2.8.1 3.3-1.5 1-1.5-.5-2-1.7-2.4zM556.832 229.3c-8.7-4.5-17.3-9.2-26.3-13.2-5.6-2.5-7.9-5.7-7.2-11.9.7-5.9-1-5.4 5.5-7.7 3.1-1.1 6.3-2.2 9.4-3.3 1.5-.5 3.7-.9 3.1-3.1-.6-2.4-2.6-1.2-4.2-.8-1.5.4-3 1-4.5 1.4-2 .5-4 1.2-5.9 2-2 .8-3.2.5-3.3-1.3 0-.6-.1-12.1-.1-12.8.1-2.3 1.4-3.4 3.9-3.7 2.3-.2 4.6-.7 6.9-1.1 1.3-.2 2.2-.9 2.2-2.3-.1-1.5-1.4-1.7-2.6-1.8-1-.1-2 .2-3 .3-7.9 1-8.3.6-7.1-7.4.1-1 .5-2 .9-2.9.6-1.2.6-2.2-.7-2.9-1.1-.7-2.2-.4-3.2.3-1.2.8-1.7 2-1.8 3.4-.2 2.1-.3 4.5-.3 7.2.1 2-.3 2.8-1.1 4-.9 1.5-1.8 1.8-4.8 2.8-2 .7-4 1.6-5.9 2.7-1.1.6-2.3 1.7-1.4 3.2.8 1.3 1.8 1.4 3.2 1.3 1.1-.1 2.2-.8 2.8-1.6.9-1.4 2.5-1.6 3.8-2.2 1.6-.6 2.5-.2 2.7 1.2.1.6 0 13.1.1 13.4.2 2.5-1 3.5-2.9 4.3-3.8 1.3-7.5 2.8-11.2 4.1-.8.3-1.6.5-2.4.8-1 .4-1.6 1.2-1.4 2.3.2 1.2 1.2 1.4 2.3 1.5 1.6.1 2.9-.5 4.3-1 3.4-1.2 6.5-2.9 10.6-3.6.2 0 .9-.6.9.9 0 2.3.6 5.8-.8 8.4-6.7 11.9-13.7 23.5-23 33.6-.4.5-.9.9-1.3 1.5-.5.7-1 1.4-.4 2.2.7 1 1.7 1 2.7.8 1.9-.5 3-2.1 4.2-3.5 5.6-6.4 10.5-13.3 15.1-20.4.9-1.3 1.3-3 3-3.7.7.6.7 1.2.7 1.9-.2 6.1-1.7 27-2.1 31.2-.1 1.2.2 2.4 1.7 2.6 1.2.2 2.3-.1 3-1.2.6-1 .7-2.2.8-3.3.4-4.8.6-9.6 1.2-14.4.7-5.9.7-11.9.9-18 0-.6.5-1 1.1-.9 1.9.3 3 1.2 4.3 1.8 8.5 4.2 16.9 8.5 25.4 12.7 3.8 1.9 6.1 1.9 6.5-.1.5-2.8-2.6-2.8-4.3-3.7zM272.231 219c-1.2 1.2-2.1 2.5-3.1 3.9-4.3 6-9.5 11.1-16.4 14.1-7.3 3.2-13-.2-13.8-8.2-.3-2.8 0-5.6-.1-8.5-.1-2.8 1.3-4 4.1-4.6 7.5-1.4 14.9-3.2 22.4-4.8 1.1-.2 2.3-.3 3.3-1 .9-.6 1.4-1.4 1-2.5-.3-.9-1.2-1.1-2-1.1-.8.1-1.6.2-2.4.4-6.3 1.3-12.7 2.7-19 4-1.9.4-3.8 1.1-5.9.3.5-4.1 1.4-8 2.3-11.8.6-2.3 1.6-3.3 4-3.6 4-.5 7.9-1.2 11.8-1.9 1.4-.3 2.6-1 2.2-2.7-.4-1.4-1.7-1.3-2.9-1.2l-6 .6c-1.9.3-3.8 1.2-6.3.2.9-4.3 2.5-8.1 5.1-11.4.6-.7 1.5-1.5.7-2.6-.8-1-2.4-.7-3.8.4-3.2 2.6-4.3 5.9-5.2 7.9-1.3 2.7-2.3 5.1-3.2 6.7-.9 1.6-5.8 2.4-9.8 2.6-1.2.1-2.3.1-3.5.3-1 .2-1.9.5-2.8.9-.8.3-1.3 1.1-1.2 2 .1.9.8 1.4 1.8 1.5 1.3 0 2.7.1 4 0 2.5-.3 4.9-.7 7.4-1.1 2.1-.4 2.8.5 2.4 2.5-.7 3.2-1.5 6.5-2 9.7-.4 2.6-1.7 3.7-4.1 4.2-2.4.5-4.9 1.1-7.3 1.8-1.9.5-4.2.9-4 3.6.1 1.3 2.4 1.9 4.7 1.1.6-.2 5.3-1.8 6.6-2.2 2.1-.7 2.8.2 2.5 2.2-.5 4.2-.4 8.3.7 12.3 1.8 6.6 7.7 10.6 14.4 9.3 12.4-2.3 20.2-10.8 26.8-20.7.6-.8.7-2-.1-2.8-1.1-.8-2.4-.7-3.3.2zM76.0316 47c-1.5-.1-3 .1-4.4.4-8.7 1.9-17.5 3.8-26.3 5.6-3 .6-3.2.3-2.5-2.6 1-4.5 2.3-9 3.4-13.5.4-1.7 1.4-2.7 2.9-3.8 1.8-1.4 1.2-3.5-1-4.1-1.9-.5-3.7-.1-4.7 1.7-.8 1.4-1.4 3-1.8 4.6-1.4 5.1-2.9 10.2-3.9 15.4-.7 3.3-2.2 4.7-5.5 5.2-7.4 1.1-14.7 2.5-22.1 3.8-1.50004.3-3.40004.7-3.10004 2.5.3 2.1 2.3 2 4.00004 1.8.5-.1.9-.3 1.4-.4 7.3-1.2 14.6-2.5 22.7-3.8-.4 2.3-.6 3.8-.9 5.2-1.7 7.8-3.6 15.5-5.1 23.3-1.1 5.7-2.6 11.3-2.5 17.2 0 1.2.3 2.4 1.7 2.6 1.5.2 2.6-.6 2.9-2 .3-1.4.6-2.9.8-4.4 1.7-13.3 5-26.3 8-39.4.7-2.9 1.9-4.2 4.7-4.8 9.6-1.9 19.2-4 28.7-6.1 1.1-.2 2.2-.6 3.3-1.1.8-.3 1.3-1.1 1.2-2-.3-.7-1-1.2-1.9-1.3zM135.031 196.4c-1.9-.1-4.1.4-5.9.5-.8 0-1.3-.8-1.1-1.5 1-3.3 2.5-6.6 5.5-8.4.7-.4 1.4-1.1 1.1-2-.3-1.1-1.2-1.5-2.3-1.6-1.8-.2-3.3.5-4.4 1.9-1.1 1.4-2.1 2.9-2.9 4.6-1.2 2.4-2.5 5.4-4.1 7-2.2 2.2-3.9 2.2-7.5 3.2-4.4 1.3-9.7 3.3-13.2 6.4-1.1998 1-2.1998 3-.9998 4.2.8998.9 3.1998.5 4.5998-1.2 2.5-3 8-4.4 12.9-6 .6-.2 1 .4.8.9-1.4 2.7-1.9 4.4-2.7 6.2-3 6.7-6 13.3-9 20-.5 1.1-.9 2.3.5 3 1.3.6 2.7.4 3.5-.9 1.2-1.8 2-3.9 3-5.8 3.9-7 5.2-10.8 8.6-17.7 1.6-3.4 2.5-6 4-7.5 1.4-1.4 6.1-1.1 7.5-1.1 5.7.2 8.4 3.1 8.4 8.8 0 4.4-2.2 7.9-4.4 11.4-.9 1.4-1.9 2.7-2.6 4.2-.4.8-.2 1.7.6 2.2.5.3 1.3.4 1.9.2.7-.3 1.5-.8 2-1.4 3.7-4.5 6.8-9.5 7.9-15.3 1.5-7.7-3.6-13.8-11.7-14.3zM174.432 65.2c-1.5-2.4-3.9-1.2-5.9-.8-5.9 1.1-11.7 2.4-17.6 3.4-3.9.7-4.2.3-3.6-3.4.5-3.1 1.1-6.2 1.6-9.3.2-1.5.6-2.8 1.7-4 1.9-2.1 1.6-3.8-.3-4.8-1.9-1-4-.3-4.9 1.8-.5 1.2-.8 2.5-1 3.8-.8 4.7-1.6 9.5-2.3 14.2-.4 2.4-1.3 3.9-3.9 4.3-5.1.8-10.1 2-15.2 2.4-2 .1-4.6-.7-5.4 2.2-.4 1.7 1.8 2.5 5.7 2 4.6-.6 9.2-1.4 13.8-2.2 3.1-.5 3.4-.1 3.1 3.1-.1.7-.3 1.3-.3 2-.9 7.4-1.7 14.8-2.6 22.2h.1v2c0 1.6.3 3.1 2.3 3.1 1.9 0 2.7-1.2 2.9-2.8.2-1.6.2-3.3.3-5 .3-7.5 1.6-14.8 2.5-22.2.3-2.9 1.5-4.6 4.8-5.1 6.4-.9 12.7-2.5 19.1-3.7 3.9-.6 5.9-1.8 5.1-3.2zM639.331 211.2c-1.5.2-2.3 1.3-3.2 2.2-3.2 3.1-6.3 6.3-9.6 9.4-2.7 2.5-5.7 4.5-9.3 5.7-7.1 2.3-12.8-1.1-13.9-8.4-.4-2.8-.6-5.6-.4-8.4.6-8.4 0-16.9 1.3-25.3.2-1.1.3-2.4-1.1-2.9-1.6-.5-3 0-3.7 1.7-.4.9-.7 1.9-.7 2.9-.1 7.1-1.3 14.2-1.1 20.9 0 3.4-.1 6.4 0 9.4.5 11.9 9.1 18 20.5 14.2 10-3.3 16.1-11.4 23-18.5.6-.6.9-1.4.2-2.2-.3-.7-1.2-.8-2-.7zM430.831 67.9c-1.6.2-2.6 1.4-3.7 2.4-6.4 5.3-12.7 10.7-19.9 14.8-6.2 3.5-7.5 2.7-7.4-4.2 0-1.2.1-2.3.2-3.5.6-10.2 1.2-20.5 1.9-30.7.1-1.5.2-2.8-1.6-3-1.4-.2-2.7.4-3.1 1.9-.5 1.7-.8 3.6-.9 5.4-.5 8.9-.9 17.8-1.3 26.8h-.1v4c0 1.5-.1 3 0 4.5.3 4.1 2.1 5.5 6.2 5.4 2.9-.1 5.5-1.3 8-2.6 8.3-4.6 15.5-10.8 22.7-16.9.4-.3.7-.7 1-1.1.6-.7.9-1.4.3-2.2-.6-1-1.4-1.1-2.3-1zM57.0317 216.8c-1.6.6-2.8 1.8-4.1 2.8-4.9 4-9.8 8-15.7 10.4-6.4 2.6-9.7.7-10-6.1-.3-6-.3-11.9.4-17.9.7-5.8 1.2-11.5 2.3-17.2.3-1.4-.1-2.7-1.7-3.1-1.5-.4-2.5.6-3.2 1.8-.3.6-.4 1.3-.5 1.9-1.4 9.7-2.5 19.4-2.9 29.2-.2 3 .2 6 .7 8.9 1.2 6.2 5.3 9.1 11.5 7.8 10.2-2.1 17.7-8.8 25.2-15.4.6-.5 1.1-1.3.5-2.2-.5-.9-1.4-1.3-2.5-.9zM793.131 218.1c-1.8-4.3-4.6-6.1-9.4-5.8-7.7.5-15.5 6.8-17.6 14.2-2.5 8.7 3.6 15.4 12.4 13.6 2.5-.5 4.8-1.3 7-2.5 1.2-.6 2.2-1.7 3.6-1.6 3.1.2 4.1-1.7 4.5-4.2.3-2 .5-3.9.7-5.9 0-2.6-.1-5.3-1.2-7.8zm-6.4 13.5c-2.5 2.1-5.2 3.6-8.3 4.3-3.6.9-5.7-.4-6.9-3.9-.7-2.3-.7-4.6.3-6.8 1-2.3 2.5-4.3 4.7-5.7 2.8-1.8 5.7-3.7 9.2-2.4 2 .7 3.6 5 3.5 9.2.2 2-.7 3.8-2.5 5.3zM247.031 94.6c.8-.1 1.7-.2 2.5-.3 1.1-.2 1.9-1 1.9-2 0-1.2-1.1-1.6-2.1-1.6s-2 0-3 .1c-4.3.5-8.5 1-13.6 1.6.6-2.5 1.3-4.6 1.7-6.6.8-4.3 1.1-8.6-.8-12.7-2.2-4.9-9.4-7-14.1-4.3-1.1.7-1.9 1.5-1.5 2.8.4 1.3 1.5 1.7 2.8 1.4.5-.1.9-.4 1.4-.5 3.7-.8 5.8.2 6.8 3.7.7 2.2.6 4.5.5 6.9-.1 2.8-.5 4.9-1.3 8.3-.4 1.6-.5 2.2-2.1 2.6-4.7 1.1-9.3 2.4-13.9 3.7-.8.2-1.6.3-2.4.7-1.2.5-2.7 1.1-2.1 2.8.4 1.4 1.8 1.3 3 1.2.7-.1 1.3-.3 1.9-.4 4.4-.3 8.2-2.4 12.4-3.4 7.3-1.9 14.6-2.9 22-4zM481.431 192.4c-5.4.5-11.5 2.1-17.3 4.7-.5.2-.9.4-1.3.7-.8.6-1.5 1.4-1.1 2.5.4 1.2 1.5 1.2 2.5 1 1.4-.3 3-.2 4.3-1.1 2.8-2 6.1-2.5 9.4-3.1 6.6-1.1 8.1.7 6.4 7.3-.2 1-.6 1.9-.8 2.9-.7 3-3.1 5.5-2.5 8.9.2 1.3-1.5 1.6-2.5 2-3.7 1.5-7.3 3.1-10.8 5.1-1.4.8-2.9 1.7-3.9 3.1-1.3 1.8-.8 3.2 1.4 3.6 1.5.3 3.2.3 3.9-1.3 1.2-2.6 3.6-3.4 5.8-4.4 3.3-1.5 6.8-2.8 10.1-4.2 1.1-.4 2.2-.8 3.1-1.5 1.4-1.1 2.1-2.6-.1-3.3-2.4-.7-1.8-1.9-1.1-3.3 1.5-3.4 2.6-6.8 3.2-10.4 1.1-6-1.7-9.3-8.7-9.2zM305.631 63.7c-1.8-.2-3.6-.2-5.4-.3-6.2.3-12.2 1.6-18.2 2.7-1.6.3-3.3.5-4.6 1.7-.5.5-1 1-.9 1.7.1 1 .8 1.4 1.6 1.7 1.1.3 2.3.2 3.4-.3 2.9-1.3 6.1-1.6 9.2-2 3.9-.6 7.8-1.5 11.9-1.2 4.1.3 6 2.5 5.5 6.6-.3 2.8-1.5 5.4-2.8 7.9-2.9 5.6-6.7 10.7-10.5 15.7-.8 1.1-1.6 2.1-2.3 3.2-.6.9-.6 1.9.3 2.7.9.8 1.9.6 2.7 0 .8-.6 1.5-1.3 2.1-2.1 4.2-5.4 8.2-10.8 11.6-16.7 2.1-3.6 3.7-7.4 4-11.6.5-5.5-2.2-8.9-7.6-9.7zM703.431 207.1c-1.4 1.2-2.6 2.5-3.9 3.8-3.5 3.5-6.7 7.4-11 10.1-2.8 1.8-4.1 1.4-5.4-1.7-.9-2.1-1.5-4.4-1.9-6.7-.7-4.2-1.2-8.5-1.8-12.8-.2-1.4-.5-2.7-2.3-2.6-1.9.1-2.6 1.2-2.6 3v3.1c.5 5 1.2 10.5 2.8 15.9 2.2 7.3 7.2 9.1 13.7 5.1 6-3.7 10.4-9.2 15.2-14.3.9-.9 1.3-2 .2-3.1-.8-.9-2.1-.6-3 .2zM356.731 91.8c1.3.4 2.3-.1 3.1-1 .8-.9.9-2.1 1-3.3 1-7.2 1.8-14.4 3-21.6.8-5 .8-10.3 3.1-15 .7-1.3 1.2-2.5-.2-3.4-1.4-1-2.9-.5-4 .7-1.1 1.1-1.399 2.6-1.699 4.1-2.5 12.2-3.701 24.5-5.301 35.8-.7 2.2-.4 3.3 1 3.7zM457.631 226c-3.2-7.3-5.4-15-6.7-22.8-.6-3.6-.8-7.2-1.2-10.9-.1-1.3-.2-2.8-2.2-2.9-2 0-2.7 1.3-2.8 3.2-.1 3.2.8 6.2 1 9.3.4 8.6 3.2 16.5 6.1 24.4.5 1.4 1.2 2.7 2.1 3.9.8 1 2 1 3.2.5 1.3-.6 1.4-1.7 1.1-2.9.1-.6-.3-1.2-.6-1.8zM179.831 207.8c-3.8-6.9-8.7-13.2-10.4-21.2-.3-1.5-1.8-1.8-3.2-1.6-1.6.3-2.8 1.2-2.6 3 .1 1 .5 1.9 1 2.8 4.5 9.2 9.2 18.3 15.2 26.6.8 1.1 1.6 2.1 2.6 3 .9.8 2.2.7 3.3.1.8-.4 1.2-1.1 1.1-2.4-.3-.5-.9-1.3-1.4-2.1-1.9-2.8-4-5.4-5.6-8.2zM312.631 41.3c-1.5-.2-3-.2-4.3-.3-11.2.9-22.2 2.4-32.9 5.2-1 .3-1.9.6-2.8 1.1-1.3.7-2.1 1.7-1.4 3.2.7 1.3 1.9 1.1 3 .7 11.5-4.1 23.5-5.4 35.6-5.8 1 0 2-.1 2.9-.4.9-.4 1.8-1.1 1.6-2.2-.1-.8-.9-1.4-1.7-1.5zM731.432 191.4c-1-.3-2-.2-2.8.5-.7.5-1 1.3-1.1 2.1-1.2 6.3 0 12.5.2 18.8 0 1.1.8 1.8 1.9 1.9 1.3.1 2.3-.5 2.7-1.7.3-.9.3-2 .3-2.9-.1-2.5-.2-4.9-.3-7.1.1-3.3-.2-6.3.3-9.2.2-1.1 0-2-1.2-2.4zM477.532 96c.8 1.6 2.2 2 3.8 1.3 1.6-.7 1.5-2.1 1-3.4-1.2-2.9-2.5-5.7-3.8-8.6-.5-1.1-1.4-1.8-2.7-1.9-2-.1-3.4 1.7-2.6 3.7 1.3 3 2.9 6 4.3 8.9z" fill="#fff"/></svg>