<svg width="240" height="50" viewBox="0 0 240 50" fill="none" xmlns="http://www.w3.org/2000/svg"><path d="M28.0149 19.1111c-2.1-.5-2.6-1.1-1.3-2.9.3-.4 0-1-.5-1.2-.4-.1-1-.2-1.4 0-.4.2-1 .6-1.1 1-1 3.7-4 4.3-7 4.9-.2-.6-.5-.8-.5-1.1-.1-.7 0-1.3 0-2 .1-4.6.1-4.6 4.4-5.9 1.8-.5 3.5-.9 5.3-1.4.4-.1.9-.70003.8-1.10003 0-.8-.7-1.1-1.4-1-2.6.5-5.1 1.1-7.6 1.60003-1.1-1.80003-.2-3.50003-.6-5.10003-.1-.4-.4-1-1-.9-.3 0-.7.1-.9.3-.3.4-.8.9-.7 1.2.7 5.20003-2.4 7.00003-6.80001 7.80003-.1 0-.3.2-.4.3-.4.3-.8.6-.6 1.2.2.7.8 1.1 1.5 1 1.7-.2 3.10001-1.8 5.00001-1 0 1.3-.1 2.5 0 3.6.3 3.2-.7 5.6-3.60001 7.5-2.5 1.7-4.3 4.2-5.2 7.1-.8 2.4-.5 4.7 1.4 6.5 1.8 1.8 3.9 1.5 6.00001.4 1.3-.7 2.6-1.6 3.6.5.3.7 1.2.6 1.8.3.6-.3.9-1 .6-1.7-.4-1.2-1.3-2.4-.3-3.8 2.7-3.7 4.3-7.8 6.1-12 .9-2.1 2-2.4 4-1.3 1.2.7 2 1.7 2.6 2.9.9 2.2 1.1 4.5.5 6.8-.8 3.4-2.2 6.6-3.9 9.7-.4.7-1 1.5 0 2.2.8.6 1.7.2 2.1-.6 2.7-4.4 4.9-9.2 5-14.4 0-4.3-1.7-8.5-5.9-9.4zm-16.7 18.2c-2.40001 1.3-4.20001.2-4.30001-2.5 0-1.4.5-2.6 1.2-3.7 1.1-1.6 2.10001-3.3 4.80001-4.3 0 2.8-.1 5.1 0 7.3.2 1.7-.5 2.5-1.7 3.2zm5.3-5.4c-1.4-7.1-1.2-7.5 4.1-9.7-.7 3.6-2.7 6.3-4.1 9.7zM199.415 28.6111c-1.9.2-3.4.5-3.9-2.3-.8-4.3-1.8-4.6-5.6-2.4-.9.5-1.7 1.1-2.4 1.7-2 1.6-4 3.2-6.2 5-.5-2.4-.2-4.6-1.2-6.6-1.6-3.5-3.6-4.1-6.6-1.8-1.4 1.1-2.7 2.3-4.7 4.1 1.1-5 3.1-8.7 5.9-12.1-2.5-1.2-3.7 0-4.6 1.8-2.9 5.3-5 10.8-6.4 16.7-.4 1.6-1.5 3.9 0 4.6 2.3 1 2.5-1.9 3.4-3.3 2.5-3.9 5.1-7.7 9.1-10.2 1.6 1.6 1.8 3.4 1.9 5.2 0 1.3 0 2.7.2 4 .3 1.8 2 2.5 3.4 1.4s2.6-2.5 4-3.8c2-1.9 3.9-4 6.9-4.7.2 1 .3 1.7.4 2.3.7 2.9 1.6 3.5 4.5 3 .8-.1 1.7-.2 2.4-.5.4-.1.9-.6.9-1 0-.9-.7-1.1-1.4-1.1zM150.215 30.1111c-2 .9-3.9 2.3-6 2.3-2.7 0-3.6-2.7-5.1-4.4-1.6-1.6-3.2-2.3-5.3-1.3-.7.3-1.5.5-3.1 1 2.5-5.8 4.5-10.9 7.5-15.5.5-.7 1-1.5 0-2.1-.8-.5-1.7-.1-2.2.6-.9 1.2-1.7 2.5-2.3 3.8-3.3 7.1-6.6 14.1-9.9 21.2-.5 1-.8 1.9.4 2.5 1 .5 1.6-.3 2-1 1.1-2.3 2.6-4.2 4.6-5.9 3.8-3.3 4.4-3.3 7.9.5 2.9 3.2 4.8 3.7 8.9 2 1.4-.6 2.7-1.2 4-2 .9-.5 2.7-.7 1.8-2.3-1.1-1.2-2.3.2-3.2.6zM236.514 27.9111c-.5-.9-1.2-1-2.1-.5-2.7 1.7-5.4 3.2-8.1 5-2.4 1.6-5.1 2.5-7.9 3.1-3.1.7-6.1-.8-7.1-3.4-.7-1.7-.1-2.9 1.8-3.1 3.9-.3 6.4-2.5 8.6-5.4.8-1 1.7-2.2.8-3.6-.8-1.3-2.2-1.2-3.6-1.2-5.1.1-8.4 3.3-10.2 8.6-1.9 5.6 1.5 10.8 8.2 10.4 2.4.2 4.8-.6 7-1.6 4.1-1.8 7.8-4.4 11.6-6.8.6-.3 1.4-.7 1-1.5zm-23.8-3c1.4-2.6 3.8-3.5 7-3.8-.9 3.3-3.1 4.6-5.8 5.4-.4.1-1-.1-1.3-.3-.4-.3-.2-.8.1-1.3zM72.615 32.5111c-3.9 2.2-6.9.7-9.7-2.3-.8-.8-1.8-1.4-2.8-2.1-2-1.4-4.1-2.8-7.3-1.5 2.2-4.8 4.1-9 7.2-12.5.5-.6.7-1.1.1-1.7-.5-.5-1.2-.6-1.8-.2-1.2.7-1.8 1.9-2.5 3-2.9 4.8-5.4 9.9-7.8 15-1 2.0999-2 4.1999-2.9 6.2999-.3.6-.3 1.3001.3 1.8001.9.6 1.6 0 2.1-.7.6-.8.9-1.8 1.5-2.6 1.3-1.7 2.7-3.4 4.1-5 1.3-1.6 2.7-1.7 4.3-.4 1.8 1.5 3.7 2.8 5.4 4.4 3 2.8 8.5 2 10.7.3.4-.3.6-.7.5-1.3-.1-.8-.8-.9-1.4-.5zM114.515 22.1111c-.6-.4-1.3-.4-1.8.1-.7.7-1.3 1.5-1.9 2.2-2.6 3.2-5 6.6-8.1 9.5-2.7 2.5-4.2998 2.1-5.9998-1.3-.7-1.2-.7-2.5-.7-3.8v-9h.1v-9.5c0-1.00004-.3-1.60004-1.3-1.60004-.7 0-1.3.5-1.5 1.1-.2.60004-.2 1.30004-.2 2.00004v18c0 1.9.6 3.6 1.5 5.2 1.8 3.2 4.8 4 7.9998 2.2 1-.6 2-1.3 2.7-2.2 3.1-3.7 6.1-7.4 9.2-11.2.3-.5.8-1.1 0-1.7z" fill="#172852"/></svg>