<svg width="368" height="346" viewBox="0 0 368 346" fill="none" xmlns="http://www.w3.org/2000/svg">
<path d="M300.25 133.164C305.06 48.451 204.803 44.4888 146.009 36.64C122.013 33.3666 95.4338 36.2549 76.7539 50.8205C68.9439 57.2406 60.084 58.2034 52.9441 62.2292C44.5608 67.6283 34.294 82.8272 28.2038 92.3103C12.07 116.194 8.71214 149.678 30.9806 171.401C64.2084 203.076 128.036 217.497 172.781 211.087C187.091 209.067 196.844 204.912 210.357 202.67C223.647 201.226 234.323 199.911 247.933 194.253C273.909 184.312 290.17 163.045 300.25 133.164Z" fill="#F4ECE5"/>
<path d="M349.44 270.022C369.421 236.239 334.304 220.277 314.9 208.668C306.996 203.901 296.838 201.272 286.997 204.525C282.811 206.02 279.425 205.144 275.996 205.76C271.825 206.757 264.866 211.472 260.637 214.459C249.702 221.869 241.282 235.013 244.591 247.04C249.687 264.685 269.48 279.689 286.915 283.485C292.484 284.712 296.879 284.417 302.21 285.439C307.29 286.753 311.404 287.746 317.506 287.392C328.968 287.065 339.385 280.738 349.44 270.022Z" fill="#F4ECE5"/>
<path d="M240.132 322.934C251.15 305.711 235.711 299.895 227.326 295.346C223.912 293.475 219.342 292.745 214.613 294.816C212.595 295.75 211.072 295.507 209.451 295.981C207.466 296.676 203.996 299.297 201.881 300.948C196.428 305.067 191.842 311.802 192.748 317.39C194.19 325.577 202.578 331.732 210.459 332.641C212.976 332.939 215.027 332.568 217.444 332.78C219.729 333.145 221.584 333.406 224.43 332.918C229.758 332.164 234.914 328.591 240.132 322.934Z" fill="#F4ECE5"/>
</svg>
