<svg width="32" height="32" viewBox="0 0 32 32" fill="none" xmlns="http://www.w3.org/2000/svg"><path d="M11.5763 27.2c10.3025 0 15.9399-8.5435 15.9399-15.9399 0-.2403 0-.4807-.011-.721 1.0925-.78664 2.043-1.78083 2.7969-2.90613-1.0051.44794-2.0867.74292-3.223.88495 1.1581-.68829 2.0431-1.79174 2.4691-3.10276-1.0816.64458-2.2833 1.10344-3.5616 1.35472C24.9597 5.67736 23.5066 5 21.9006 5c-3.0918 0-5.6046 2.5128-5.6046 5.6046 0 .437.0546.8631.142 1.2783-4.6541-.2295-8.78386-2.46912-11.54794-5.85593-.48071.83031-.75384 1.79173-.75384 2.8187 0 1.94473.99419 3.65993 2.49095 4.66503-.91772-.0327-1.78081-.284-2.53465-.6992v.0765c0 2.7094 1.93376 4.9819 4.49026 5.4954-.46979.1311-.96142.1966-1.4749.1966-.36054 0-.71014-.0327-1.04882-.0983.71013 2.2287 2.78592 3.8457 5.23314 3.8894-1.92281 1.5076-4.33728 2.4035-6.95932 2.4035-.44794 0-.89587-.0218-1.33288-.0765C5.4691 26.2714 8.4189 27.2 11.5763 27.2z" fill="#fff"/></svg>