<svg width="64" height="80" viewBox="0 0 64 80" fill="none" xmlns="http://www.w3.org/2000/svg"><path d="M21.181 47.9333L5.33333 32.0095C1.90476 28.5809 0 24.0095 0 19.1333c0-4.8 1.90476-9.3714 5.33333-12.79997C8.7619 2.90476 13.3333 1 18.1333 1c4.8762 0 9.4477 1.90476 12.8762 5.33333L32 7.4l.9905-.99048c3.4285-3.42857 8-5.33333 12.8762-5.33333 4.8762 0 9.3714 1.90476 12.8 5.33333C62.0952 9.83809 64 14.4095 64 19.2857s-1.9048 9.4476-5.3333 12.8762L43.9619 46.7904c-.7619-.2285-1.5238-.3809-2.1333-.5333l-1.7524-14.4c-.1524-5.0285-4.3429-9.0666-9.3714-9.0666-5.0286 0-9.1429 3.8857-9.3715 8.9142v10.0572l-.1523 6.1714zm16.4571 2.1333l-2.1333-17.9047c0-2.6667-2.1334-4.8-4.8-4.8-2.5905 0-4.7238 2.0571-4.8 4.6476v9.7524l-.1524 27.5809L20.0381 65s-3.2-2.8191-7.0857-2.8191c-1.981 0-4.1905.7619-6.24764 2.9714 0 0 3.88574 5.4096 9.98094 11.2h44.9524c2.0571-8.2285.3048-17.0666.3048-17.0666-9.981-6.781-24.3048-9.2191-24.3048-9.2191z" fill="#172852"/></svg>