<?xml version="1.0" encoding="UTF-8"?>
<svg width="47px" height="76px" viewBox="0 0 47 76" version="1.1" xmlns="http://www.w3.org/2000/svg" xmlns:xlink="http://www.w3.org/1999/xlink">
    <!-- Generator: Sketch 61 (89581) - https://sketch.com -->
    <title>ico-pagetop-txt</title>
    <desc>Created with Sketch.</desc>
    <g id="Page-1" stroke="none" stroke-width="1" fill="none" fill-rule="evenodd">
        <g id="200318_kodomonooka-ver2" transform="translate(-1341.000000, -5887.000000)">
            <g id="Group-47" transform="translate(1332.000000, 5887.000000)">
                <g id="ico-pagetop-txt" transform="translate(9.916800, -0.000900)">
                    <path d="M45.182,22.591 C45.182,10.115 35.068,1.84741111e-13 22.591,1.84741111e-13 C10.115,1.84741111e-13 -1.0658141e-13,10.115 -1.0658141e-13,22.591 C-1.0658141e-13,22.739 0.009,22.886 0.011,23.034 L-1.0658141e-13,23.034 L-1.0658141e-13,46.068 L0.011,46.068 C0.009,46.215 -1.0658141e-13,46.362 -1.0658141e-13,46.511 C-1.0658141e-13,58.153 8.807,67.734 20.121,68.965 L22.591,75.551 L25.061,68.965 C36.375,67.734 45.182,58.153 45.182,46.511 C45.182,46.362 45.173,46.215 45.171,46.068 L45.182,46.068 L45.182,23.034 L45.171,23.034 C45.173,22.886 45.182,22.739 45.182,22.591" id="Fill-1" fill="#FFFFFF"></path>
                    <path d="M30.2402,32.5329 C30.8102,32.5329 31.0952,32.0389 31.0952,31.5449 C31.0952,31.0509 30.8102,30.5569 30.2402,30.5569 L23.3812,30.5569 L23.3812,24.6289 L28.6822,24.6289 C29.2522,24.6289 29.5182,24.1349 29.5182,23.6409 C29.5182,23.1469 29.2522,22.6529 28.6822,22.6529 L23.3812,22.6529 L23.3812,17.1999 C23.3812,16.6489 22.8492,16.3639 22.2982,16.3639 C21.7662,16.3639 21.2152,16.6489 21.2152,17.1999 L21.2152,30.5569 L14.8882,30.5569 C14.3372,30.5569 14.0522,31.0509 14.0522,31.5449 C14.0522,32.0389 14.3372,32.5329 14.8882,32.5329 L30.2402,32.5329 Z M30.0692,52.5689 C30.7342,52.5689 31.2282,51.9799 31.2282,51.3719 C31.2282,50.9729 31.0192,50.5549 30.5252,50.2889 C27.7512,48.7879 24.3882,46.4129 22.2982,44.5509 C21.8042,44.1139 21.2912,43.9049 20.7592,43.9049 C20.2462,43.9049 19.7332,44.0949 19.2202,44.4559 C18.0612,45.2919 16.5982,46.4319 15.1352,47.6099 C14.7932,47.8759 14.6412,48.1989 14.6412,48.5029 C14.6412,49.0729 15.1352,49.5859 15.7242,49.5859 C15.9712,49.5859 16.2372,49.4909 16.5032,49.2819 C17.7762,48.1989 19.2582,47.0399 20.1702,46.3179 C20.3602,46.1659 20.5122,46.0899 20.6832,46.0899 C20.8542,46.0899 21.0442,46.1849 21.2342,46.3749 C23.1152,48.1609 26.5162,50.7259 29.3662,52.3599 C29.6132,52.4929 29.8412,52.5689 30.0692,52.5689 Z" id="上へ" fill="#E5555D" fill-rule="nonzero"></path>
                </g>
            </g>
        </g>
    </g>
</svg>