<?xml version="1.0" encoding="UTF-8"?>
<svg width="28px" height="28px" viewBox="0 0 28 28" version="1.1" xmlns="http://www.w3.org/2000/svg" xmlns:xlink="http://www.w3.org/1999/xlink">
    <!-- Generator: Sketch 61 (89581) - https://sketch.com -->
    <title>ico-instagram-white</title>
    <desc>Created with Sketch.</desc>
    <g id="Page-1" stroke="none" stroke-width="1" fill="none" fill-rule="evenodd">
        <g id="200318_kodomonooka-ver2" transform="translate(-534.000000, -6186.000000)" fill="#FFFFFF">
            <path d="M557.334182,6194.16709 C557.334182,6194.81109 556.809818,6195.33418 556.165818,6195.33418 C555.521818,6195.33418 555,6194.81109 555,6194.16709 C555,6193.52436 555.521818,6193 556.165818,6193 C556.809818,6193 557.334182,6193.52436 557.334182,6194.16709 M548,6193 C544.133455,6193 541,6196.13473 541,6200.00127 C541,6203.86782 544.133455,6207 548,6207 C551.866545,6207 555,6203.86782 555,6200.00127 C555,6196.13473 551.866545,6193 548,6193 M548,6204.66709 C545.422727,6204.66709 543.334182,6202.57855 543.334182,6200.00127 C543.334182,6197.424 545.422727,6195.33418 548,6195.33418 C550.577273,6195.33418 552.665818,6197.424 552.665818,6200.00127 C552.665818,6202.57855 550.577273,6204.66709 548,6204.66709 M548,6188.33418 C551.800364,6188.33418 552.249636,6188.34818 553.750182,6188.41564 C555.137455,6188.47927 555.892182,6188.71218 556.392364,6188.90564 C557.055455,6189.164 557.531455,6189.47327 558.030364,6189.97091 C558.528,6190.46855 558.836,6190.942 559.094364,6191.60636 C559.287818,6192.10909 559.522,6192.86255 559.584364,6194.24982 C559.651818,6195.75036 559.665818,6196.20091 559.665818,6200 C559.665818,6203.80036 559.651818,6204.24964 559.584364,6205.75145 C559.522,6207.13873 559.287818,6207.89218 559.094364,6208.39364 C558.836,6209.058 558.528,6209.53145 558.030364,6210.02909 C557.531455,6210.528 557.055455,6210.83727 556.392364,6211.09436 C555.892182,6211.28909 555.137455,6211.52073 553.750182,6211.58436 C552.249636,6211.65182 551.800364,6211.66709 548,6211.66709 C544.198364,6211.66709 543.750364,6211.65182 542.249818,6211.58436 C540.862545,6211.52073 540.107818,6211.28909 539.607636,6211.09436 C538.942,6210.83727 538.468545,6210.528 537.969636,6210.02909 C537.472,6209.53145 537.164,6209.058 536.905636,6208.39364 C536.712182,6207.89218 536.478,6207.13873 536.415636,6205.75145 C536.348182,6204.24964 536.334182,6203.80036 536.334182,6200 C536.334182,6196.20091 536.348182,6195.75036 536.415636,6194.24982 C536.478,6192.86255 536.712182,6192.10909 536.905636,6191.60636 C537.164,6190.942 537.472,6190.46855 537.969636,6189.97091 C538.468545,6189.47327 538.942,6189.164 539.607636,6188.90564 C540.107818,6188.71218 540.862545,6188.47927 542.249818,6188.41564 C543.750364,6188.34818 544.199636,6188.33418 548,6188.33418 M548,6186 C544.198364,6186 543.722364,6186.01527 542.228182,6186.084 C540.737818,6186.15273 539.719636,6186.38818 538.83,6186.73436 C537.909818,6187.09327 537.128364,6187.57055 536.350727,6188.34945 C535.571818,6189.12836 535.093273,6189.90855 534.735636,6190.83 C534.388182,6191.72091 534.152727,6192.73655 534.084,6194.22818 C534.016545,6195.72236 534,6196.19709 534,6200 C534,6203.80291 534.016545,6204.27891 534.084,6205.77309 C534.152727,6207.26345 534.388182,6208.28036 534.735636,6209.17127 C535.093273,6210.09273 535.571818,6210.87291 536.350727,6211.65055 C537.128364,6212.43073 537.909818,6212.908 538.83,6213.26691 C539.719636,6213.61182 540.737818,6213.84855 542.228182,6213.916 C543.722364,6213.98473 544.198364,6214 548,6214 C551.801636,6214 552.280182,6213.98473 553.771818,6213.916 C555.262182,6213.84855 556.280364,6213.61182 557.17,6213.26691 C558.092727,6212.908 558.871636,6212.43073 559.651818,6211.65055 C560.430727,6210.87291 560.908,6210.09273 561.264364,6209.17127 C561.611818,6208.28036 561.847273,6207.26345 561.916,6205.77309 C561.983455,6204.27891 562,6203.80291 562,6200 C562,6196.19709 561.983455,6195.72236 561.916,6194.22818 C561.847273,6192.73655 561.611818,6191.72091 561.264364,6190.83 C560.908,6189.90855 560.430727,6189.12836 559.651818,6188.34945 C558.871636,6187.57055 558.092727,6187.09327 557.17,6186.73436 C556.280364,6186.38818 555.262182,6186.15273 553.771818,6186.084 C552.280182,6186.01527 551.801636,6186 548,6186" id="ico-instagram-white"></path>
        </g>
    </g>
</svg>