<?xml version="1.0" encoding="UTF-8"?>
<svg width="19px" height="24px" viewBox="0 0 19 24" version="1.1" xmlns="http://www.w3.org/2000/svg" xmlns:xlink="http://www.w3.org/1999/xlink">
    <!-- Generator: Sketch 61 (89581) - https://sketch.com -->
    <title>ico-paper-white</title>
    <desc>Created with Sketch.</desc>
    <g id="Page-1" stroke="none" stroke-width="1" fill="none" fill-rule="evenodd">
        <path d="M10.5189016,17.4833454 C10.5831551,17.6619472 10.5019928,17.884324 10.3447407,17.9604925 C10.2703418,17.9972635 10.0572906,18.0445404 9.87974792,18.0638014 C9.35811061,18.1180824 6.95113911,18.1425963 6.89111277,18.0935684 C6.80403231,18.0235284 6.07610732,17.973625 5.89264655,18.0252794 C5.58744222,18.1119539 5.13344022,17.9307255 4.72340117,17.5603893 L4.60673026,17.4544539 L4.78934559,17.2600931 C5.11991316,16.9063914 5.20530273,16.8818774 6.03129893,16.8906324 C6.60281727,16.8967609 6.79642334,16.8958854 7.4009139,16.8827529 C7.64524645,16.8783754 7.83800708,16.9020139 7.88619723,16.9440378 C7.93016018,16.9816843 7.99441373,16.9948168 8.02738594,16.9738048 C8.11615728,16.9177729 9.3251384,16.9545438 9.74616819,17.0272103 C10.1511346,17.0972502 10.4419664,17.2688481 10.5189016,17.4833454 M14.728354,8.84829615 C14.7596354,8.93409508 14.7604808,9.01376551 14.7308904,9.04615898 C14.7021453,9.07767696 14.6793184,9.1380864 14.6776276,9.18974086 C14.6767821,9.23789332 14.6083014,9.32982074 14.5313662,9.38760369 C14.3994773,9.48741061 14.3428328,9.49266361 13.8829127,9.44188465 C13.4196108,9.39198119 13.0121081,9.38935469 11.4099968,9.42612566 C10.7666159,9.44100915 9.09179659,9.3832262 8.83140066,9.33682474 C8.73924755,9.32106575 8.50421486,9.2667848 8.3046907,9.21513034 C7.93354195,9.11970092 7.46685833,9.13721091 7.33412404,9.25102581 C7.29523373,9.28341928 7.25634343,9.29392527 7.24028005,9.27553979 C7.2250621,9.2589053 7.01285633,9.23264033 6.77444187,9.21863234 C6.53602741,9.20462435 6.22659588,9.18011037 6.09555247,9.16435138 C5.96197274,9.1477169 5.80979329,9.15997389 5.75399416,9.19061636 C5.5891331,9.28254378 5.10554065,9.16960438 4.85021737,8.97962104 C4.55684922,8.76162172 4.47399597,8.5523774 4.61687556,8.38865904 C4.67182924,8.32562309 4.75214617,8.27396863 4.79526368,8.27396863 C4.83922663,8.27396863 4.95082489,8.23194467 5.05058697,8.17678821 C5.1985392,8.09449128 5.42173572,8.0761058 6.40836577,8.06472431 C7.11853649,8.05596932 7.61734689,8.02707784 7.65877351,7.99293337 C7.69512749,7.96229089 7.77798074,7.94478091 7.83377987,7.9561624 C8.343581,8.05859581 8.62004032,8.13301325 8.68683019,8.1872942 C8.79081947,8.26959114 11.2823351,8.3063621 12.8235747,8.24770365 C13.1896508,8.23369567 13.6537981,8.23632216 13.8550131,8.25383215 C14.1762808,8.28184813 14.2481433,8.3107396 14.4476675,8.49546995 C14.5753291,8.61278685 14.6979181,8.76775022 14.728354,8.84829615 M14.8458704,11.9029131 C14.9363326,12.1349204 14.908433,12.2154663 14.6700186,12.4150801 L14.4316041,12.614694 L13.7662418,12.597184 C13.4001657,12.588429 13.0628346,12.5630395 13.0180262,12.542903 C12.9732178,12.5227666 12.8954372,12.4973771 12.8514742,12.4886221 C12.804975,12.4789916 12.6570227,12.4457226 12.5183704,12.4133291 C12.3814089,12.3818112 12.01956,12.3406627 11.7143556,12.3214017 C11.4099968,12.3030162 11.0227846,12.2583658 10.8553872,12.2224703 C10.3810946,12.1209124 10.3176865,12.1139084 9.58046169,12.0911454 C9.19747676,12.0788884 8.81195551,12.0508725 8.72064784,12.028985 C8.33597203,11.9344311 8.14912949,11.9300536 6.58590845,11.971202 C5.5214978,12.0000935 5.25264745,11.9913385 5.11653139,11.9248006 C4.70649234,11.7251867 4.51626804,11.2279031 4.76144603,10.9950203 C4.96519739,10.801535 5.42765381,10.7446276 5.89264655,10.8549405 C6.05074408,10.8925869 6.30860369,10.9048439 6.49206446,10.8838319 C7.09655502,10.8129165 7.21745313,10.8076635 7.27325226,10.8444345 C7.30453359,10.864571 7.6646916,10.8855829 8.08064874,10.8925869 C8.49576044,10.8987154 8.8812817,10.9092214 8.94215347,10.9153499 C9.00387069,10.9214784 9.10363277,10.9214784 9.16365911,10.9162254 C9.31583855,10.9013419 10.3286773,11.0142813 10.6330362,11.0799438 C10.7708431,11.1097107 11.1352283,11.1333492 11.4455053,11.1333492 C11.7557823,11.1333492 12.033087,11.1491082 12.0643684,11.1683692 C12.0948042,11.1867547 12.3382914,11.2051402 12.6105235,11.2086422 C12.8819101,11.2112687 13.143997,11.2384091 13.1972598,11.2681761 C13.2505226,11.2988186 13.5413544,11.3303366 13.8406406,11.3399671 L14.3867957,11.357477 L14.592238,11.5667214 C14.7029908,11.6805363 14.8196617,11.8346241 14.8458704,11.9029131 M15.0276403,14.6012018 C15.0910484,14.9689115 14.9414052,15.4513116 14.7638626,15.4513116 C14.7232814,15.4513116 14.6649459,15.4854561 14.628592,15.5318575 C14.5313662,15.6535519 14.2202438,15.6929494 13.8660039,15.6255359 C13.6884612,15.5931425 13.0340896,15.5528695 12.4076175,15.5371105 C11.6754653,15.518725 11.1724277,15.4793276 10.9940396,15.4267976 C10.7023624,15.3409987 10.0184003,15.2832157 8.9979526,15.2587018 C8.65977606,15.2508223 8.34865365,15.2219308 8.30722702,15.1956658 C8.2658004,15.1685253 7.69512749,15.1553928 7.0348378,15.1658988 C4.85613546,15.2009188 5.02184196,15.2158023 4.79188192,14.962783 C4.39959713,14.5329129 4.5788307,14.1109222 5.194312,14.0146173 C5.33296438,13.9927298 5.51557971,13.9962318 5.60519649,14.0224968 C5.78020285,14.0741513 6.53602741,14.0916612 7.05766472,14.0557658 C7.24112549,14.0426333 7.6503191,14.0557658 7.97243225,14.0846572 C8.29200908,14.1126732 8.90326317,14.1468177 9.33021105,14.1599502 C10.4005398,14.1923437 10.9864306,14.2501266 11.3482795,14.3586885 C11.4539597,14.3902065 11.6534839,14.3902065 11.8420173,14.359564 C12.1861119,14.3017811 12.7415669,14.3166645 12.9622271,14.389331 C13.0383168,14.4147205 13.4610375,14.4392344 13.9048942,14.4444874 C15.0301766,14.4576199 15.0014316,14.4541179 15.0276403,14.6012018 M17.0228818,4.5075708 C16.9070564,4.49181181 16.7540315,4.46379584 16.6770963,4.44453485 C16.6001612,4.42527387 16.3888008,4.40426189 16.2053401,4.39638239 C15.9119719,4.3841254 15.3083268,4.32809345 15.0690669,4.29132248 C15.0217222,4.28344299 14.9439416,4.25892901 14.8889879,4.23178853 C14.8331888,4.20552355 14.7562536,4.19939506 14.7089089,4.21778054 C14.6429645,4.24229452 14.6243647,4.20377256 14.6201375,4.0374277 C14.6167558,3.9192353 14.605765,3.53751762 14.5947743,3.18118942 C14.584629,2.82573672 14.5964652,2.52456497 14.6226739,2.50705498 C14.6488825,2.489545 14.6522643,2.40637257 14.6302828,2.32057364 C14.5753291,2.10169882 14.678473,1.8907035 14.8196617,1.93535396 C14.8805335,1.95461495 14.9701503,2.0123979 15.0191859,2.06492786 C15.0682215,2.11745781 15.2212463,2.25666219 15.3658168,2.38098309 C15.5095418,2.50442849 15.6236764,2.62174539 15.6236764,2.64713487 C15.6236764,2.69441183 15.8671635,2.94305362 16.3828827,3.42107621 C16.9146653,3.9157333 17.2308604,4.28431849 17.2308604,4.41039038 C17.2308604,4.52420529 17.2122607,4.53383578 17.0228818,4.5075708 M17.4286937,7.2408795 C17.4117849,7.4763888 17.3889579,7.72327959 17.3779672,7.78631554 C17.3678219,7.84935149 17.3847307,7.93602592 17.4168575,7.97892538 C17.4582841,8.03320633 17.4540569,8.09011379 17.4033304,8.17065972 C17.352604,8.25120565 17.3492222,8.30461111 17.3923397,8.34838607 C17.47529,8.4350605 17.47529,9.13545991 17.3923397,9.13545991 C17.3585221,9.13545991 17.344995,9.17223088 17.3619038,9.21863234 C17.3779672,9.2641583 17.3703582,9.31581276 17.344995,9.33332274 C17.3187863,9.35083273 17.3061047,9.50842259 17.3170954,9.68614894 C17.3280862,9.86475079 17.3120228,10.0731196 17.2815869,10.154541 C17.2443875,10.2517215 17.2443875,10.3138819 17.2815869,10.3383959 C17.3128682,10.3594079 17.337386,10.6710856 17.3390769,11.0615583 C17.3407678,11.4406495 17.344995,11.8109857 17.3475313,11.8880296 C17.3509131,11.9633225 17.3247044,12.0386155 17.2925776,12.049997 C17.2114153,12.0780129 17.214797,12.2531128 17.2976503,12.3389117 C17.3500676,12.3931927 17.3492222,12.4334656 17.295114,12.5253931 C17.2579145,12.5893045 17.2452329,12.6742279 17.2672144,12.7092479 C17.2900413,12.7451434 17.3179409,12.9990382 17.3280862,13.2695674 C17.3492222,13.826385 17.3627493,13.9515814 17.4151666,14.0732758 C17.4574387,14.1704562 17.4346118,14.4558689 17.381349,14.5101499 C17.3585221,14.5329129 17.3424587,14.6160853 17.3424587,14.7018842 C17.3424587,14.7876832 17.3137137,14.8839881 17.2756688,14.92251 C17.2164879,14.9846705 17.1801339,15.2096738 17.1505435,15.7095839 C17.1429345,15.8356558 17.1759067,16.0090046 17.2232514,16.0939281 C17.2900413,16.214747 17.295114,16.2804094 17.2452329,16.3924733 C17.1412436,16.6253561 17.1048896,17.0762382 17.1708341,17.3170005 C17.2097244,17.4605824 17.2114153,17.5612648 17.1759067,17.5980358 C17.14378,17.6313048 17.1412436,17.6820837 17.1699886,17.7162282 C17.1978882,17.7494972 17.2333967,17.8799466 17.2503056,18.0060184 C17.2672144,18.1320903 17.2976503,18.3325797 17.3170954,18.4507721 C17.3399223,18.589101 17.3289316,18.6959119 17.2866595,18.7493173 C17.2494601,18.7957188 17.2410057,18.8666342 17.2663689,18.9069072 C17.3247044,18.9988346 17.3323134,19.5845436 17.2756688,19.5845436 C17.2545328,19.5845436 17.2469238,19.711491 17.2596054,19.8603259 C17.3441495,20.8715275 17.3399223,21.0763944 17.2283241,21.2672532 C17.1674523,21.3705621 17.0981261,21.503638 17.0702266,21.5710514 C16.9958277,21.7487778 16.5553528,21.8949862 16.011734,21.9221266 C14.5702565,21.9930421 13.6707069,22.0061746 13.6216713,21.9562711 C13.5937717,21.9273796 13.4060838,21.9203757 13.1947234,21.9405121 C12.8869828,21.9702791 11.3820972,21.9676526 9.96851926,21.9343836 C9.80196732,21.9308816 9.56270742,21.9387611 9.44180931,21.9527691 C9.31922031,21.9676526 9.00894334,21.9475161 8.74854741,21.9072432 C8.48815147,21.8678457 8.25734598,21.8485847 8.23282819,21.8643437 C8.20831039,21.8801027 7.98342299,21.8888577 7.73401779,21.8836047 C6.78035996,21.8652192 6.29338574,21.8923597 5.8038752,21.9904156 C5.63394149,22.0254356 5.08355918,22.0657085 4.58474879,22.0797165 C4.08593839,22.0937245 3.61756389,22.1077325 3.54739226,22.1112345 C3.3478681,22.1199895 3.24303337,22.106857 3.06549069,22.0499495 C2.97333758,22.0201826 2.78818593,21.9842871 2.64953355,21.9694036 C2.22765832,21.9230021 1.97909856,21.8713477 1.7897197,21.7908018 C1.57413216,21.6979988 1.51241494,21.6157019 1.58681378,21.519397 C1.61640423,21.4817505 1.64092203,21.1464343 1.64092203,20.7734716 C1.64092203,20.3768704 1.66543983,20.0651927 1.7017938,20.0214177 C1.74406587,19.9688878 1.74575675,19.8121734 1.70686645,19.4961182 C1.67643056,19.2430989 1.67389424,19.0303526 1.7017938,19.0119671 C1.80662853,18.9419272 1.88863634,18.510306 1.80662853,18.4577761 C1.74322043,18.4175031 1.74913852,18.0173999 1.81677383,17.8335451 C1.85650957,17.7241077 1.85566413,17.6566942 1.81508294,17.6041643 C1.75928381,17.5323733 1.7652019,17.1620372 1.83452809,16.3810918 C1.84720971,16.2427629 1.83706442,16.1210685 1.81254662,16.1053095 C1.78802882,16.0895506 1.79394691,16.0168841 1.82607368,15.9415912 C1.86834575,15.8444108 1.86750031,15.7551098 1.82353736,15.6229094 C1.78126529,15.4968376 1.78041985,15.4049101 1.82015559,15.3304927 C1.85735501,15.2613283 1.85989133,15.1834088 1.82691912,15.1177464 C1.77111999,15.0091845 1.78802882,13.4297838 1.8489006,13.0857126 C1.87088207,12.9596407 1.86073678,12.8642113 1.82353736,12.8405728 C1.74575675,12.7915448 1.73814778,12.542903 1.81254662,12.4956261 C1.84551883,12.4746141 1.8489006,12.4080762 1.82015559,12.3336587 C1.79479235,12.2636188 1.77365632,11.9370576 1.77365632,11.6043678 C1.77365632,11.2699271 1.77196544,10.7201136 1.77027455,10.3699139 C1.76942911,10.0197142 1.76689279,9.66163496 1.7652019,9.56620554 C1.76351102,9.47165162 1.78718338,9.25277681 1.81761927,9.08117895 C1.85397325,8.87718762 1.85397325,8.59615236 1.81931015,8.27396863 C1.77281088,7.84322299 1.70010292,6.50633562 1.71109366,6.26469782 C1.71616631,6.13512393 1.69503027,5.42071653 1.67389424,5.00135238 C1.65529453,4.65377918 1.63669482,2.61824339 1.64684012,2.10169882 C1.65022188,1.95286395 1.69249395,1.82153906 1.76266558,1.74274413 C1.8243828,1.67445518 1.8734184,1.60704174 1.8734184,1.59128275 C1.8734184,1.51073682 2.17270463,1.26647253 2.2394945,1.2927375 C2.2783848,1.30849649 2.48298161,1.26997452 2.68842385,1.20956507 C3.02660039,1.10888266 3.1821616,1.10100317 4.20176386,1.12901914 C4.82823589,1.14652913 5.47584396,1.1797981 5.64324135,1.20343658 C5.80979329,1.22707506 6.07441643,1.22707506 6.22575043,1.20256108 C6.48614637,1.16228811 6.707652,1.17104311 7.14051797,1.23933205 C7.4398042,1.28660901 8.69866637,1.40129941 8.91509935,1.40129941 C9.01993408,1.40129941 9.18479514,1.39779742 9.27525736,1.39341992 C9.36656503,1.38816692 9.64048802,1.38466493 9.88482057,1.38466493 L11.49285,1.38466493 L13.0290169,1.38466493 C13.4280652,1.38466493 13.4999278,1.42843989 13.4060838,1.61404573 C13.3621208,1.69984466 13.3612754,1.75587662 13.402702,1.80928207 C13.4407469,1.85743453 13.4508922,2.09644583 13.4331379,2.48079001 C13.3984748,3.2039524 13.3976294,3.34315678 13.423838,3.70999097 C13.4356742,3.87020734 13.4111564,4.10571664 13.3697298,4.24317002 C13.3274577,4.38149891 13.3071671,4.5136993 13.3223851,4.54171527 C13.3392939,4.57323325 13.3283032,4.60737772 13.2944855,4.6283897 C13.2564407,4.65202818 13.2564407,4.69755414 13.2944855,4.77197158 C13.3325304,4.84638902 13.3325304,4.89191498 13.2944855,4.91642896 C13.186269,4.9838424 13.243759,5.25962467 13.4052383,5.44347951 C13.4957006,5.54678843 13.5971535,5.63258735 13.6275894,5.63258735 C13.6605616,5.63258735 13.6825431,5.65622583 13.6825431,5.69037031 C13.6825431,5.76828974 14.5871653,5.64484434 14.7418811,5.54591293 C14.8247343,5.49338297 16.011734,5.50476446 16.4826448,5.56342291 C16.9763826,5.62470786 17.172525,5.68949481 17.2815869,5.82782369 C17.3213226,5.88035365 17.3821944,5.91975111 17.4202393,5.91975111 C17.4904109,5.91975111 17.4937927,6.35662524 17.4286937,7.2408795 M18.9411882,4.8612725 C18.9124432,4.73432511 18.8701712,4.62051021 18.8473443,4.60212472 C18.8245173,4.58549023 18.6655744,4.36398892 18.4939498,4.11184513 C18.0019029,3.38780724 17.95794,3.33965478 17.6696445,3.18994441 C17.5191559,3.11202497 17.3974124,3.02359955 17.3974124,2.99208158 C17.3974124,2.9614391 17.3585221,2.93429862 17.3145591,2.93429862 C17.2689053,2.93429862 17.1750613,2.8458732 17.1065805,2.73643579 C17.0372543,2.62699838 16.9222743,2.50968148 16.8487209,2.47466151 C16.776013,2.44051704 16.5367531,2.21113623 16.322011,1.97037393 C16.1072689,1.72873614 15.8147462,1.40392591 15.6786301,1.25509104 C15.542514,1.10538066 15.3675077,0.911895325 15.2922634,0.827847396 C14.9870591,0.482900686 14.5330571,0.12219499 14.3588962,0.0880505183 C14.260825,0.0679140352 14.0875095,0.067038536 13.9708386,0.0845485212 C13.3130852,0.186981935 13.1397697,0.194861428 11.7980543,0.186106436 C11.6315024,0.185230937 11.3922425,0.186981935 11.2713444,0.190483932 C11.1496008,0.19311043 10.9872761,0.191359431 10.9103409,0.186106436 C10.8046608,0.179102442 9.89581131,0.214997911 9.44180931,0.244764886 C9.0368429,0.270154365 7.03061059,0.14495797 6.86321321,0.0827975227 C6.81755938,0.0661630367 6.22067779,0.0521550485 5.53248853,0.0521550485 C4.84514472,0.0521550485 4.26517196,0.0398980588 4.24065416,0.0250145713 C4.15526458,-0.0283908838 2.84313962,0.0101310838 2.37222879,0.0801710249 C2.08985138,0.12219499 1.7897197,0.132700981 1.6240132,0.106436003 C0.891860996,-0.00825440069 0.808162303,0.0153840794 0.315269999,0.481149688 C0.187608356,0.601093087 0.065864803,0.695647007 0.0379652386,0.695647007 C-0.0381244823,0.695647007 0.00837479158,1.21744457 0.104755105,1.44157238 C0.32203353,1.94673545 0.332178826,2.05617286 0.332178826,3.95075327 C0.332178826,5.05300684 0.35331486,5.80506071 0.38459619,5.80506071 C0.412495754,5.80506071 0.409113989,5.86021716 0.376141776,5.92325311 C0.333024268,6.00642554 0.332178826,6.09222447 0.373605452,6.21829636 C0.405732223,6.31635228 0.431940905,6.63766051 0.431940905,6.93095276 C0.431940905,7.22336952 0.453076938,7.4772643 0.47928562,7.49302329 C0.50464886,7.50878228 0.517330481,7.64886216 0.506339743,7.79769703 C0.496194447,7.94653191 0.489430916,8.09974428 0.492812682,8.13038675 C0.496194447,8.16190473 0.507185185,8.65568631 0.517330481,9.22388533 C0.528321218,9.79295985 0.551993576,10.3882994 0.569747844,10.5423872 C0.607792704,10.8715749 0.607792704,10.9039684 0.569747844,11.2883126 C0.528321218,11.7146807 0.524939453,12.3100202 0.561293431,12.8957292 C0.604410939,13.5908757 0.606947263,13.8631559 0.574820492,14.3026566 C0.513948715,15.1352564 0.522403129,15.7848768 0.595111084,15.8759287 C0.632310503,15.9214547 0.651755654,15.9853661 0.637383151,16.0107556 C0.621319766,16.0378961 0.594265643,16.3031724 0.575665933,16.5964646 C0.557911665,16.8888814 0.515639598,17.1655392 0.484358268,17.2049366 C0.442931642,17.2565911 0.442086201,17.286358 0.481821944,17.312623 C0.564675196,17.365153 0.559602548,18.7055424 0.475903855,18.7598233 C0.433631788,18.7860883 0.42855914,18.8955257 0.458995028,19.1196535 C0.518175922,19.5503991 0.539311956,20.7480821 0.488585475,20.8198731 C0.466604,20.8505156 0.434477229,21.0229889 0.417568402,21.2015908 C0.401505017,21.3793171 0.347396771,21.6051959 0.299206614,21.7006253 C0.250171016,21.7960548 0.210435273,21.9965441 0.210435273,22.140126 C0.210435273,22.8028789 0.82507113,23.1478256 1.84551883,23.0585247 C2.13973242,23.0331352 2.31812054,23.0401392 2.33925658,23.0786612 C2.35785629,23.1119301 2.50242676,23.1390706 2.66306061,23.1390706 C2.82369447,23.1390706 3.07817231,23.1609581 3.23119719,23.1880986 C3.38506752,23.2143636 3.71986229,23.2283716 3.98025823,23.2196166 C4.23896328,23.2099861 4.7343919,23.1916006 5.07764109,23.1793436 C5.42173572,23.1662111 5.97211803,23.1276891 6.29761295,23.0926692 C7.17940827,22.9972397 8.3824713,22.9692238 8.88719979,23.0322597 C9.13153233,23.0629022 9.94315602,23.0979222 10.6972897,23.1101792 C11.4514234,23.1224361 12.1100222,23.1557051 12.1666668,23.1845966 C12.2241568,23.2134881 12.3298369,23.2257451 12.4076175,23.2117371 C12.6629408,23.1679621 13.2057142,23.1416971 14.3479054,23.1198096 C15.1240206,23.1058017 15.6608758,23.0655287 16.0387881,22.9954887 C16.6322879,22.8851758 16.919738,22.8764208 17.0262636,22.9648463 C17.1792885,23.0926692 18.2631443,22.9263243 18.3231706,22.7661079 C18.3375431,22.7267105 18.3874242,22.706574 18.4263145,22.722333 C18.4668957,22.739843 18.5421399,22.7127025 18.592021,22.662799 C18.670647,22.5840041 18.678256,22.4815707 18.6452838,21.9527691 C18.6233023,21.6130754 18.6004754,21.0229889 18.592021,20.6386447 C18.5852574,20.2543006 18.5624305,19.8979724 18.5421399,19.8463179 C18.5184676,19.7824064 18.5277674,19.7648965 18.5700395,19.7920369 C18.6165388,19.8209284 18.6233023,19.7631455 18.5954027,19.5792906 C18.5742667,19.4409617 18.5548216,19.2877494 18.5531307,19.2404724 C18.5522852,19.1949464 18.5362218,19.1144005 18.5201585,19.0679991 C18.5032496,19.0198466 18.482959,18.8675097 18.4753501,18.7239278 C18.4373052,18.0638014 18.3924968,17.5314978 18.3612155,17.386165 C18.3409249,17.288109 18.3519156,17.2303261 18.3899605,17.2303261 C18.4660502,17.2303261 18.4711229,17.0009453 18.3984149,16.8065845 C18.3645973,16.714657 18.3654427,16.6498701 18.4009512,16.6262316 C18.4652048,16.5850831 18.4584412,15.7437283 18.3924968,15.6518009 C18.3696699,15.620283 18.375588,15.4793276 18.4060239,15.3357457 C18.5032496,14.8769841 18.548058,14.338552 18.5243857,13.9008024 C18.511704,13.6652931 18.5032496,13.4437918 18.5066314,13.4131493 C18.5150858,13.3291014 18.5184676,11.5982393 18.5125495,10.5992947 C18.5032496,8.99187803 18.5666577,6.78561988 18.6224569,6.75059991 C18.6410566,6.73921842 18.65712,6.5317251 18.6588108,6.2900873 C18.6605017,6.049325 18.6867104,5.83482768 18.7171463,5.8155667 C18.7678728,5.78229773 19.0122053,5.17907874 18.9995237,5.11691829 C18.9969874,5.1002838 18.9707787,4.9873444 18.9411882,4.8612725" id="Fill-4" fill="#FFFFFF"></path>
    </g>
</svg>