<?xml version="1.0" encoding="UTF-8"?>
<svg width="30px" height="29px" viewBox="0 0 30 29" version="1.1" xmlns="http://www.w3.org/2000/svg" xmlns:xlink="http://www.w3.org/1999/xlink">
    <title>ico-line-pink</title>
    <g id="Symbols" stroke="none" stroke-width="1" fill="none" fill-rule="evenodd">
        <path d="M13.7482829,27.8250606 C13.6909288,27.6773516 13.7270776,26.9931617 13.8286126,26.3046458 C14.0174112,25.0243999 13.937193,24.4951121 13.5,24.1365063 C13.3708456,24.0305622 12.509261,23.7920648 11.5853717,23.6065098 C5.65717705,22.4158886 1.51320978,18.991429 0.292594128,14.2744733 C-0.697130384,10.4497706 0.864300577,6.32721556 4.36616328,3.51926917 C5.57552777,2.5495474 8.00850887,1.28312733 9.58254127,0.804028421 C11.0451963,0.358829316 13.4599698,0 14.9933084,0 C16.526647,0 18.9414204,0.358829316 20.404075,0.804028421 C21.0259094,0.993299659 22.2251614,1.498181 23.0690795,1.92598642 C26.5865834,3.70910391 28.8309322,6.33148257 29.6940206,9.66681067 C30.7509177,13.7510888 29.0760545,17.6064858 24.572289,21.4566164 C21.3241783,24.2333257 15.2919246,28.0936442 14.2010607,28.0936442 C14.0093871,28.0936442 13.805637,27.9727856 13.7482829,27.8250606 L13.7482829,27.8250606 Z M9.41051119,15.8058006 C9.72028372,15.6893973 9.82481488,15.536347 9.82481488,15.1991927 C9.82481488,14.4973234 9.56372956,14.3651468 8.17735709,14.3651468 L6.9175368,14.3651468 L6.9175368,11.7038526 C6.9175368,9.45150797 6.87646181,8.99769982 6.65023039,8.75063003 C6.31854555,8.38839094 5.98165507,8.37951371 5.59775229,8.72289368 C5.33068977,8.96176629 5.30238258,9.28775736 5.30238258,12.1245065 C5.30238258,15.3220516 5.35787282,15.6420947 5.94844427,15.8507008 C6.3741537,16.0010725 8.98081718,15.9672668 9.41051119,15.8058006 L9.41051119,15.8058006 Z M12.0456519,15.5095812 C12.1913631,15.3308442 12.2475462,14.4140569 12.2475462,12.2151018 C12.2475462,9.71584693 12.202359,9.10451389 11.9961152,8.81348897 C11.6972244,8.39173366 11.3325727,8.36081263 10.9277617,8.72289368 C10.6601016,8.96229946 10.632392,9.29091811 10.632392,12.2257812 C10.632392,15.3421191 10.6452971,15.4734114 10.9739648,15.7009388 C11.3489907,15.9605558 11.734058,15.8918 12.0456519,15.5095812 L12.0456519,15.5095812 Z M14.7962402,13.6686683 C14.8211023,12.559157 14.8937842,11.6534706 14.9577556,11.6560344 C15.0217254,11.6586045 15.7547648,12.5862436 16.5867291,13.7174715 C17.4186934,14.8487011 18.2316635,15.8084377 18.3933275,15.8502219 C18.5549932,15.892006 18.8373318,15.8223067 19.0207455,15.6953357 C19.3391506,15.4749136 19.3542248,15.3174796 19.3542248,12.2124423 C19.3542248,9.46889208 19.3145388,8.92118422 19.1004146,8.70955469 C18.7864286,8.39922687 18.5381907,8.39286068 18.1333507,8.68475401 C17.8626444,8.87993808 17.8088,9.16873292 17.7390706,10.7995024 L17.6583129,12.6881984 L16.142594,10.6572162 C15.3089483,9.54017648 14.4940206,8.58455994 14.3316459,8.53362404 C14.1692696,8.48268973 13.8883087,8.51935279 13.7072855,8.61510744 C13.3922319,8.7817554 13.3781542,8.93195789 13.3781542,12.1268403 C13.3781542,15.3442566 13.3904616,15.4729979 13.71984,15.7010171 C13.9422613,15.8549917 14.1818614,15.8936454 14.4062806,15.8117581 C14.7298767,15.6936835 14.7538101,15.5621565 14.7962402,13.6686683 L14.7962402,13.6686683 Z M24.6482949,15.7129816 C24.8457281,15.5763049 25.0061517,15.3428406 25.0047918,15.1941722 C24.9992195,14.5844036 24.7256398,14.4466781 23.35805,14.3651468 L22.0192292,14.2853299 L22.0192292,13.6467953 L22.0192292,13.0082607 L23.3888897,12.9284439 C24.7096675,12.8514765 24.7641354,12.8328696 24.9149795,12.4071251 C25.1715774,11.6829103 24.7567493,11.4247954 23.225806,11.3560811 L21.9384715,11.2983017 L21.9384715,10.6766691 L21.9384715,10.0550381 L23.1774983,10.0550381 C24.8290953,10.0550381 25.4555038,9.53208625 24.7399581,8.75063003 C24.5136056,8.50342614 24.2150395,8.45870158 22.7911551,8.45870158 C21.8663323,8.45870158 20.9690721,8.53306372 20.7972456,8.62395114 C20.5036654,8.77924117 20.4848327,8.99039339 20.4848327,12.1268403 C20.4848327,16.1644767 20.365132,15.9614833 22.7460486,15.9614833 C23.8814278,15.9614833 24.3842043,15.895802 24.6482949,15.7129816 Z" id="path2996" fill="#E5555D" fill-rule="nonzero"></path>
    </g>
</svg>