<?xml version="1.0" encoding="UTF-8"?>
<svg width="29px" height="29px" viewBox="0 0 29 29" version="1.1" xmlns="http://www.w3.org/2000/svg" xmlns:xlink="http://www.w3.org/1999/xlink">
    <!-- Generator: Sketch 61 (89581) - https://sketch.com -->
    <title>ico-facebook-white</title>
    <desc>Created with Sketch.</desc>
    <g id="Page-1" stroke="none" stroke-width="1" fill="none" fill-rule="evenodd">
        <g id="200318_kodomonooka-ver2" transform="translate(-487.000000, -6184.000000)" fill="#FFFFFF">
            <path d="M516,6198.58826 C516,6190.5313 509.508491,6184 501.500627,6184 C493.492762,6184 487,6190.5313 487,6198.58826 C487,6205.86978 492.302234,6211.90557 499.234865,6213 L499.234865,6202.80461 L495.553001,6202.80461 L495.553001,6198.58826 L499.234865,6198.58826 L499.234865,6195.3743 C499.234865,6191.71778 501.399118,6189.69787 504.711292,6189.69787 C506.297826,6189.69787 507.957046,6189.98283 507.957046,6189.98283 L507.957046,6193.57252 L506.128646,6193.57252 C504.327816,6193.57252 503.765135,6194.69848 503.765135,6195.85217 L503.765135,6198.58826 L507.786613,6198.58826 L507.144981,6202.80461 L503.765135,6202.80461 L503.765135,6213 C510.697766,6211.90557 516,6205.86978 516,6198.58826" id="ico-facebook-white"></path>
        </g>
    </g>
</svg>