<?xml version="1.0" encoding="UTF-8"?>
<svg width="26px" height="25px" viewBox="0 0 26 25" version="1.1" xmlns="http://www.w3.org/2000/svg" xmlns:xlink="http://www.w3.org/1999/xlink">
    <!-- Generator: Sketch 61 (89581) - https://sketch.com -->
    <title>ico-line-s-white</title>
    <desc>Created with Sketch.</desc>
    <g id="Page-1" stroke="none" stroke-width="1" fill="none" fill-rule="evenodd">
        <g id="line" transform="translate(-1.000000, 0.000000)" fill="#FFFFFF" fill-rule="nonzero">
            <path d="M12.6833354,24.1588626 C12.6345136,24.0331276 12.6652847,23.4507216 12.7517148,22.8646332 C12.9124267,21.7748437 12.8441422,21.3242957 12.471991,21.0190381 C12.3620478,20.9288548 11.6286372,20.7258376 10.8421909,20.5678868 C5.79590724,19.554389 2.26841946,16.639371 1.22938935,12.6241356 C0.386901728,9.36841692 1.71604558,5.85915594 4.69695182,3.46893518 C5.72640456,2.64347459 7.79744193,1.56545417 9.13731256,1.15762867 C10.382375,0.778659847 12.4379134,0.473211965 13.743144,0.473211965 C15.0483747,0.473211965 17.1039131,0.778659847 18.3489751,1.15762867 C18.878302,1.31874287 19.8991466,1.74851527 20.6175188,2.11267799 C23.6117393,3.63052906 25.5222064,5.86278816 26.2568969,8.7019344 C27.1565642,12.1786127 25.7308629,15.4604595 21.8971025,18.7378234 C19.1321987,21.1014541 13.9973364,24.3874903 13.0687555,24.3874903 C12.9055963,24.3874903 12.7321572,24.2846112 12.6833354,24.1588626 L12.6833354,24.1588626 Z M8.99087463,13.9276542 C9.25456368,13.8285678 9.34354421,13.698286 9.34354421,13.4112887 C9.34354421,12.8138334 9.12129939,12.70132 7.94117136,12.70132 L6.8687689,12.70132 L6.8687689,10.4359347 C6.8687689,8.51866133 6.83380446,8.13236419 6.64122847,7.92204986 C6.3588869,7.61369946 6.07211411,7.60614286 5.74532284,7.89843973 C5.51799001,8.10177632 5.49389396,8.37927117 5.49389396,10.7940098 C5.49389396,13.5158704 5.54112916,13.7883021 6.04384393,13.9658748 C6.40622247,14.0938764 8.62510427,14.0650999 8.99087463,13.9276542 L8.99087463,13.9276542 Z M11.2339973,13.6755021 C11.3580316,13.523355 11.4058566,12.7429541 11.4058566,10.8711276 C11.4058566,8.74367576 11.3673918,8.22328801 11.1918298,7.97555756 C10.9374037,7.61654491 10.6269996,7.59022385 10.2824106,7.89843973 C10.054569,8.10223018 10.0309817,8.3819617 10.0309817,10.8802184 C10.0309817,13.5329526 10.0419669,13.6447131 10.3217402,13.8383923 C10.6409752,14.0593872 10.9687578,14.0008599 11.2339973,13.6755021 L11.2339973,13.6755021 Z M13.5753928,12.1084536 C13.5965562,11.1639993 13.6584256,10.3930479 13.7128803,10.3952302 C13.7673336,10.3974179 14.391322,11.1870564 15.0995187,12.1499966 C15.8077154,13.1129381 16.4997435,13.9298991 16.6373575,13.9654671 C16.7749729,14.0010352 17.0153093,13.9417048 17.1714373,13.8336227 C17.4424747,13.6459918 17.4553064,13.5119786 17.4553064,10.8688638 C17.4553064,8.53345928 17.4215243,8.06723147 17.2392544,7.88708512 C16.9719787,7.62292338 16.7606701,7.61750426 16.4160563,7.86597392 C16.1856217,8.03212133 16.1397875,8.27795345 16.0804314,9.66612068 L16.0116877,11.2738438 L14.7214555,9.5450017 C14.0118276,8.59413902 13.3181331,7.78068528 13.1799141,7.73732689 C13.0416938,7.69396985 12.8025302,7.72517871 12.648437,7.80668837 C12.3802525,7.94854485 12.3682691,8.07640239 12.3682691,10.7959964 C12.3682691,13.5347721 12.3787456,13.6443611 12.6591239,13.8384589 C12.8484565,13.9695274 13.0524124,14.0024308 13.2434457,13.9327255 C13.5189019,13.8322163 13.5392748,13.720256 13.5753928,12.1084536 L13.5753928,12.1084536 Z M21.9618014,13.8486435 C22.1298633,13.7322996 22.2664214,13.5335668 22.2652638,13.4070151 C22.2605204,12.887959 22.02764,12.7707223 20.8635004,12.70132 L19.72385,12.6333772 L19.72385,12.0898345 L19.72385,11.5462919 L20.8897522,11.478349 C22.0140439,11.4128317 22.0604088,11.3969929 22.1888125,11.0345845 C22.4072375,10.4181079 22.0541215,10.1983916 20.7509297,10.1398996 L19.6551063,10.0907158 L19.6551063,9.56156073 L19.6551063,9.03240699 L20.7098086,9.03240699 C22.1157049,9.03240699 22.6489254,8.58725234 22.0398283,7.92204986 C21.8471492,7.71162139 21.5929994,7.67355031 20.3809399,7.67355031 C19.5936989,7.67355031 18.8299201,7.73684993 18.6836554,7.81421643 C18.4337499,7.94640465 18.4177188,8.1261447 18.4177188,10.7959964 C18.4177188,14.2329717 18.3158255,14.0601767 20.3425438,14.0601767 C21.3090176,14.0601767 21.7369983,14.0042666 21.9618014,13.8486435 Z" id="path2996"></path>
        </g>
    </g>
</svg>