<?xml version="1.0" encoding="UTF-8"?>
<svg width="28px" height="28px" viewBox="0 0 28 28" version="1.1" xmlns="http://www.w3.org/2000/svg" xmlns:xlink="http://www.w3.org/1999/xlink">
    <!-- Generator: Sketch 61 (89581) - https://sketch.com -->
    <title>ico-instagram</title>
    <desc>Created with Sketch.</desc>
    <g id="Page-1" stroke="none" stroke-width="1" fill="none" fill-rule="evenodd">
        <g id="200318_kodomonooka-ver2" transform="translate(-742.000000, -46.000000)" fill="#E5555D">
            <path d="M765.500818,53.8754091 C765.500818,54.4964091 764.995182,55.0008182 764.374182,55.0008182 C763.753182,55.0008182 763.25,54.4964091 763.25,53.8754091 C763.25,53.2556364 763.753182,52.75 764.374182,52.75 C764.995182,52.75 765.500818,53.2556364 765.500818,53.8754091 M756.5,52.75 C752.771545,52.75 749.75,55.7727727 749.75,59.5012273 C749.75,63.2296818 752.771545,66.25 756.5,66.25 C760.228455,66.25 763.25,63.2296818 763.25,59.5012273 C763.25,55.7727727 760.228455,52.75 756.5,52.75 M756.5,64.0004091 C754.014773,64.0004091 752.000818,61.9864545 752.000818,59.5012273 C752.000818,57.016 754.014773,55.0008182 756.5,55.0008182 C758.985227,55.0008182 760.999182,57.016 760.999182,59.5012273 C760.999182,61.9864545 758.985227,64.0004091 756.5,64.0004091 M756.5,48.2508182 C760.164636,48.2508182 760.597864,48.2643182 762.044818,48.3293636 C763.382545,48.3907273 764.110318,48.6153182 764.592636,48.8018636 C765.232045,49.051 765.691045,49.3492273 766.172136,49.8290909 C766.652,50.3089545 766.949,50.7655 767.198136,51.4061364 C767.384682,51.8909091 767.6105,52.6174545 767.670636,53.9551818 C767.735682,55.4021364 767.749182,55.8365909 767.749182,59.5 C767.749182,63.1646364 767.735682,63.5978636 767.670636,65.0460455 C767.6105,66.3837727 767.384682,67.1103182 767.198136,67.5938636 C766.949,68.2345 766.652,68.6910455 766.172136,69.1709091 C765.691045,69.652 765.232045,69.9502273 764.592636,70.1981364 C764.110318,70.3859091 763.382545,70.6092727 762.044818,70.6706364 C760.597864,70.7356818 760.164636,70.7504091 756.5,70.7504091 C752.834136,70.7504091 752.402136,70.7356818 750.955182,70.6706364 C749.617455,70.6092727 748.889682,70.3859091 748.407364,70.1981364 C747.7655,69.9502273 747.308955,69.652 746.827864,69.1709091 C746.348,68.6910455 746.051,68.2345 745.801864,67.5938636 C745.615318,67.1103182 745.3895,66.3837727 745.329364,65.0460455 C745.264318,63.5978636 745.250818,63.1646364 745.250818,59.5 C745.250818,55.8365909 745.264318,55.4021364 745.329364,53.9551818 C745.3895,52.6174545 745.615318,51.8909091 745.801864,51.4061364 C746.051,50.7655 746.348,50.3089545 746.827864,49.8290909 C747.308955,49.3492273 747.7655,49.051 748.407364,48.8018636 C748.889682,48.6153182 749.617455,48.3907273 750.955182,48.3293636 C752.402136,48.2643182 752.835364,48.2508182 756.5,48.2508182 M756.5,46 C752.834136,46 752.375136,46.0147273 750.934318,46.081 C749.497182,46.1472727 748.515364,46.3743182 747.6575,46.7081364 C746.770182,47.0542273 746.016636,47.5144545 745.266773,48.2655455 C744.515682,49.0166364 744.054227,49.7689545 743.709364,50.6575 C743.374318,51.5165909 743.147273,52.4959545 743.081,53.9343182 C743.015955,55.3751364 743,55.8329091 743,59.5 C743,63.1670909 743.015955,63.6260909 743.081,65.0669091 C743.147273,66.5040455 743.374318,67.4846364 743.709364,68.3437273 C744.054227,69.2322727 744.515682,69.9845909 745.266773,70.7344545 C746.016636,71.4867727 746.770182,71.947 747.6575,72.2930909 C748.515364,72.6256818 749.497182,72.8539545 750.934318,72.919 C752.375136,72.9852727 752.834136,73 756.5,73 C760.165864,73 760.627318,72.9852727 762.065682,72.919 C763.502818,72.8539545 764.484636,72.6256818 765.3425,72.2930909 C766.232273,71.947 766.983364,71.4867727 767.735682,70.7344545 C768.486773,69.9845909 768.947,69.2322727 769.290636,68.3437273 C769.625682,67.4846364 769.852727,66.5040455 769.919,65.0669091 C769.984045,63.6260909 770,63.1670909 770,59.5 C770,55.8329091 769.984045,55.3751364 769.919,53.9343182 C769.852727,52.4959545 769.625682,51.5165909 769.290636,50.6575 C768.947,49.7689545 768.486773,49.0166364 767.735682,48.2655455 C766.983364,47.5144545 766.232273,47.0542273 765.3425,46.7081364 C764.484636,46.3743182 763.502818,46.1472727 762.065682,46.081 C760.627318,46.0147273 760.165864,46 756.5,46" id="Fill-3"></path>
        </g>
    </g>
</svg>