<?xml version="1.0" encoding="UTF-8"?>
<svg width="64px" height="63px" viewBox="0 0 64 63" version="1.1" xmlns="http://www.w3.org/2000/svg" xmlns:xlink="http://www.w3.org/1999/xlink">
    <!-- Generator: Sketch 61 (89581) - https://sketch.com -->
    <title>ico-pagetop-choucho</title>
    <desc>Created with Sketch.</desc>
    <g id="Page-1" stroke="none" stroke-width="1" fill="none" fill-rule="evenodd">
        <g id="200318_kodomonooka-ver2" transform="translate(-1332.000000, -5970.000000)">
            <g id="Group-47" transform="translate(1332.000000, 5887.000000)">
                <g id="ico-pagetop-choucho" transform="translate(0.000000, 83.000000)">
                    <path d="M63.3693,50.4875 C63.2983,50.4915 63.2343,49.8665 63.2263,49.0925 C63.2173,48.1435 63.1513,47.6595 63.0213,47.5915 C62.8833,47.5155 62.8983,47.4115 63.0813,47.2085 C63.2703,46.9955 63.3063,46.7195 63.2263,46.0635 C63.1683,45.5845 63.1583,45.1555 63.2043,45.0985 C63.2503,45.0425 63.2523,43.9835 63.2093,42.7295 C63.1623,41.3955 63.1983,40.3725 63.2953,40.2435 C63.3843,40.1265 63.3943,39.9315 63.3173,39.8235 C63.1203,39.5445 62.7543,34.0575 62.9183,33.8365 C62.9943,33.7335 62.9893,32.2125 62.9083,30.4445 C62.8263,28.6765 62.8203,27.1515 62.8943,27.0465 C62.9763,26.9285 62.9573,26.8135 62.8463,26.7535 C62.6153,26.6265 62.3503,21.3505 62.5663,21.1905 C62.6483,21.1295 62.6313,20.9215 62.5223,20.6855 C62.4223,20.4665 62.3873,20.2315 62.4453,20.1675 C62.5823,20.0135 62.5453,19.1135 62.4023,19.1225 C62.2173,19.1325 62.0763,18.0765 62.1693,17.3625 C62.2533,16.7135 62.2133,16.5675 61.8123,16.0525 C61.5593,15.7285 61.3183,15.4755 61.2653,15.4795 C61.2113,15.4825 60.9653,15.3175 60.7123,15.1075 C60.4593,14.8975 60.0663,14.6695 59.8293,14.5935 C59.3703,14.4475 58.1403,14.6335 58.1513,14.8475 C58.1563,14.9195 57.9253,14.9715 57.6353,14.9665 C57.3443,14.9605 56.6493,15.0705 56.0773,15.2145 C55.5133,15.3555 54.4993,15.5145 53.8423,15.5645 C53.1833,15.6145 52.4573,15.6965 52.2403,15.7445 C51.3483,15.9415 50.5213,16.0915 49.8153,16.1795 C49.3993,16.2325 48.9003,16.3955 48.7003,16.5455 C48.4983,16.6945 47.8733,16.8915 47.2993,16.9855 C46.2133,17.1635 43.9203,17.8325 43.4623,18.1045 C43.3163,18.1925 43.0123,18.2735 42.7873,18.2865 C42.5623,18.2985 42.1593,18.4375 41.8943,18.5935 C41.6133,18.7585 41.2003,18.8605 40.9083,18.8345 C40.6333,18.8095 40.1943,18.8925 39.9353,19.0175 C39.6753,19.1435 39.1483,19.3485 38.7543,19.4785 C38.3573,19.6085 37.8813,19.7855 37.6803,19.8775 C36.6783,20.3355 36.6073,19.9855 37.4123,18.5715 C37.7343,18.0055 37.9963,17.4695 37.9923,17.3855 C37.9863,17.3005 38.2013,16.8505 38.4753,16.3685 C39.3083,14.9035 39.4483,14.6245 39.4383,14.4455 C39.4323,14.3465 39.5613,14.1085 39.7303,13.9055 C39.8983,13.7025 40.0243,13.4075 40.0153,13.2375 C40.0063,13.0675 40.3153,12.1735 40.7093,11.2315 C41.1013,10.2925 41.4123,9.4185 41.4043,9.2765 C41.3963,9.1315 41.4613,9.0145 41.5513,9.0095 C41.6413,9.0055 41.7043,8.8645 41.6943,8.6875 C41.6843,8.5145 41.8183,8.3235 41.9923,8.2595 C42.1663,8.1975 42.3053,8.0845 42.3013,8.0085 C42.2973,7.9345 42.5593,7.7475 42.8743,7.5995 C43.5333,7.2895 44.2763,6.5895 44.6583,5.9195 C44.8673,5.5515 44.8823,5.2865 44.7363,4.4575 C44.6393,3.8985 44.5533,3.0835 44.5453,2.6385 C44.5313,1.7375 44.2993,1.2255 43.6643,0.6965 C43.2713,0.3685 43.1443,0.3555 41.8813,0.5165 C41.1293,0.6115 40.3093,0.7615 40.0473,0.8525 C39.7783,0.9445 39.4803,0.9895 39.3593,0.9555 C39.2453,0.9235 39.0553,1.0365 38.9473,1.2045 C38.8393,1.3715 38.6883,1.4655 38.6203,1.4075 C38.5513,1.3495 38.2773,1.4695 38.0153,1.6745 C36.7023,2.6985 36.2223,4.2425 36.9493,5.0945 C37.7783,6.0635 38.1943,7.3155 37.8803,7.8935 C37.8163,8.0105 37.7773,8.3835 37.7963,8.7045 C37.8133,9.0255 37.7813,9.3765 37.7253,9.4665 C37.6693,9.5575 37.5473,9.9265 37.4543,10.2865 C37.2053,11.2555 37.1283,11.4655 36.4063,13.1165 C36.0393,13.9595 35.7493,14.7475 35.7573,14.8845 C35.7653,15.0295 35.7213,15.1365 35.6503,15.1405 C35.5843,15.1445 35.3433,15.5695 35.1073,16.0975 C34.8733,16.6265 34.5993,17.1095 34.4923,17.1875 C34.3863,17.2645 34.1933,17.5835 34.0643,17.8955 C33.9353,18.2105 33.7653,18.4685 33.6853,18.4735 C33.6043,18.4775 33.5483,18.5935 33.5563,18.7385 C33.6073,19.6715 31.0723,19.7615 30.5383,19.4725 C30.3163,19.3515 29.8783,18.4765 29.8303,18.4735 C29.7503,18.4685 29.5803,18.2105 29.4513,17.8955 C29.3223,17.5835 29.1303,17.2645 29.0233,17.1875 C28.9163,17.1095 28.6423,16.6265 28.4083,16.0975 C28.1733,15.5695 27.9313,15.1445 27.8653,15.1405 C27.7953,15.1365 27.7503,15.0295 27.7593,14.8845 C27.7663,14.7475 27.4763,13.9595 27.1093,13.1165 C26.3883,11.4655 26.3103,11.2555 26.0613,10.2865 C25.9693,9.9265 25.8473,9.5575 25.7903,9.4665 C25.7343,9.3765 25.7023,9.0255 25.7203,8.7045 C25.7383,8.3835 25.6993,8.0105 25.6363,7.8935 C25.3213,7.3155 25.7373,6.0635 26.5663,5.0945 C27.2943,4.2425 26.8133,2.6985 25.5013,1.6745 C25.2383,1.4695 24.9653,1.3495 24.8953,1.4075 C24.8273,1.4655 24.6773,1.3715 24.5683,1.2045 C24.4613,1.0365 24.2703,0.9235 24.1563,0.9555 C24.0353,0.9895 23.7373,0.9445 23.4693,0.8525 C23.2063,0.7615 22.3873,0.6115 21.6353,0.5165 C20.3713,0.3555 20.2443,0.3685 19.8513,0.6965 C19.2173,1.2255 18.9843,1.7375 18.9713,2.6385 C18.9633,3.0835 18.8773,3.8985 18.7793,4.4575 C18.6343,5.2865 18.6483,5.5515 18.8573,5.9195 C19.2393,6.5895 19.9823,7.2895 20.6413,7.5995 C20.9563,7.7475 21.2193,7.9345 21.2153,8.0085 C21.2113,8.0845 21.3493,8.1975 21.5233,8.2595 C21.6973,8.3235 21.8313,8.5145 21.8213,8.6875 C21.8113,8.8645 21.8743,9.0055 21.9653,9.0095 C22.0553,9.0145 22.1193,9.1315 22.1113,9.2765 C22.1033,9.4185 22.4143,10.2925 22.8063,11.2315 C23.2003,12.1735 23.5103,13.0675 23.5003,13.2375 C23.4913,13.4075 23.6173,13.7025 23.7853,13.9055 C23.9543,14.1085 24.0833,14.3465 24.0773,14.4455 C24.0673,14.6245 24.2073,14.9035 25.0403,16.3685 C25.3143,16.8505 25.5293,17.3005 25.5233,17.3855 C25.5193,17.4695 25.7813,18.0055 26.1033,18.5715 C26.9083,19.9855 26.8383,20.3355 25.8363,19.8775 C25.6353,19.7855 25.1583,19.6085 24.7623,19.4785 C24.3673,19.3485 23.8413,19.1435 23.5803,19.0175 C23.3213,18.8925 22.8833,18.8095 22.6073,18.8345 C22.3153,18.8605 21.9023,18.7585 21.6213,18.5935 C21.3563,18.4375 20.9533,18.2985 20.7283,18.2865 C20.5043,18.2735 20.1993,18.1925 20.0543,18.1045 C19.5963,17.8325 17.3033,17.1635 16.2173,16.9855 C15.6423,16.8915 15.0173,16.6945 14.8153,16.5455 C14.6153,16.3955 14.1163,16.2325 13.7003,16.1795 C12.9943,16.0915 12.1673,15.9415 11.2753,15.7445 C11.0583,15.6965 10.3323,15.6145 9.6743,15.5645 C9.0163,15.5145 8.0033,15.3555 7.4383,15.2145 C6.8663,15.0705 6.1723,14.9605 5.8813,14.9665 C5.5913,14.9715 5.3593,14.9195 5.3643,14.8475 C5.3763,14.6335 4.1453,14.4475 3.6863,14.5935 C3.4493,14.6695 3.0563,14.8975 2.8043,15.1075 C2.5513,15.3175 2.3053,15.4825 2.2513,15.4795 C2.1973,15.4755 1.9563,15.7285 1.7033,16.0525 C1.3033,16.5675 1.2633,16.7135 1.3473,17.3625 C1.4393,18.0765 1.2993,19.1325 1.1133,19.1225 C0.9713,19.1135 0.9333,20.0135 1.0703,20.1675 C1.1293,20.2315 1.0943,20.4665 0.9933,20.6855 C0.8853,20.9215 0.8673,21.1295 0.9493,21.1905 C1.1653,21.3505 0.9003,26.6265 0.6703,26.7535 C0.5583,26.8135 0.5393,26.9285 0.6213,27.0465 C0.6953,27.1515 0.6893,28.6765 0.6073,30.4445 C0.5263,32.2125 0.5213,33.7335 0.5983,33.8365 C0.7623,34.0575 0.3953,39.5445 0.1983,39.8235 C0.1213,39.9315 0.1323,40.1265 0.2213,40.2435 C0.3173,40.3725 0.3533,41.3955 0.3063,42.7295 C0.2643,43.9835 0.2653,45.0425 0.3113,45.0985 C0.3573,45.1555 0.3483,45.5845 0.2893,46.0635 C0.2103,46.7195 0.2453,46.9955 0.4343,47.2085 C0.6173,47.4115 0.6333,47.5155 0.4943,47.5915 C0.3643,47.6595 0.2993,48.1435 0.2893,49.0925 C0.2813,49.8665 0.2183,50.4915 0.1463,50.4875 C-0.0537,50.4755 -0.0467,52.3135 0.1543,52.5505 C0.2613,52.6755 0.3333,52.9155 0.3223,53.1075 C0.3063,53.3965 1.0843,54.3875 1.3593,54.4285 C1.4133,54.4365 1.9203,54.5055 2.4953,54.5825 C3.0713,54.6595 3.7113,54.7925 3.9293,54.8805 C4.1463,54.9675 4.7843,55.1475 5.3563,55.2825 C5.9293,55.4175 6.6733,55.6135 7.0233,55.7215 C7.3723,55.8305 7.8223,55.9585 8.0233,56.0075 C8.6583,56.1605 9.0583,56.3425 9.2643,56.5725 C9.3773,56.6985 9.6613,56.8205 9.8703,56.8325 C10.0833,56.8435 10.5723,56.9415 10.9373,57.0455 C11.3113,57.1505 12.3903,57.4335 13.3593,57.6795 C14.3283,57.9265 15.2283,58.1955 15.3803,58.2845 C15.5303,58.3735 15.9263,58.4605 16.2643,58.4785 C16.6003,58.4975 16.9373,58.5815 17.0173,58.6665 C17.0973,58.7495 17.7383,58.8995 18.4263,58.9955 C19.1133,59.0905 19.8373,59.2775 20.0143,59.4055 C20.1933,59.5365 20.9633,59.7125 21.7323,59.8005 C22.5003,59.8875 23.1943,60.0075 23.2793,60.0675 C23.5813,60.2775 27.0963,60.9935 28.8243,61.1975 C29.8163,61.3135 30.6703,61.4775 30.7153,61.5595 C30.8063,61.7275 31.2753,61.9685 31.7583,62.1345 C32.2403,61.9685 32.7093,61.7275 32.8013,61.5595 C32.8463,61.4775 33.6993,61.3135 34.6913,61.1975 C36.4203,60.9935 39.9343,60.2775 40.2363,60.0675 C40.3213,60.0075 41.0153,59.8875 41.7833,59.8005 C42.5533,59.7125 43.3223,59.5365 43.5023,59.4055 C43.6793,59.2775 44.4023,59.0905 45.0903,58.9955 C45.7773,58.8995 46.4193,58.7495 46.4983,58.6665 C46.5783,58.5815 46.9153,58.4975 47.2523,58.4785 C47.5903,58.4605 47.9853,58.3735 48.1363,58.2845 C48.2873,58.1955 49.1873,57.9265 50.1563,57.6795 C51.1253,57.4335 52.2043,57.1505 52.5783,57.0455 C52.9433,56.9415 53.4323,56.8435 53.6453,56.8325 C53.8543,56.8205 54.1393,56.6985 54.2523,56.5725 C54.4573,56.3425 54.8573,56.1605 55.4923,56.0075 C55.6933,55.9585 56.1433,55.8305 56.4923,55.7215 C56.8433,55.6135 57.5873,55.4175 58.1593,55.2825 C58.7313,55.1475 59.3693,54.9675 59.5873,54.8805 C59.8053,54.7925 60.4443,54.6595 61.0203,54.5825 C61.5963,54.5055 62.1023,54.4365 62.1563,54.4285 C62.4323,54.3875 63.2103,53.3965 63.1933,53.1075 C63.1823,52.9155 63.2553,52.6755 63.3613,52.5505 C63.5623,52.3135 63.5693,50.4755 63.3693,50.4875" id="Fill-4" fill="#FFFFFF"></path>
                    <path d="M59.5578,43.4172 C59.4158,43.5752 59.3788,44.6362 59.4258,47.1632 C59.4378,47.8232 59.3698,48.5352 59.2758,48.7342 C59.1798,48.9352 59.1188,49.3882 59.1378,49.7412 C59.1588,50.0952 59.1118,50.4272 59.0348,50.4792 C58.9548,50.5342 58.8578,50.7882 58.8088,51.0642 C58.7608,51.3412 58.6268,51.5582 58.4988,51.5652 C58.3708,51.5722 58.2778,51.6332 58.2818,51.7062 C58.2928,51.9192 57.3788,52.2902 56.3438,52.4952 C55.7937991,52.6032 54.7018,52.9442 53.9288,53.2472 C53.1568,53.5512 52.2658,53.8622 51.9608,53.9382 C51.6538,54.0132 50.8018,54.2432 50.0568,54.4532 C47.8038,55.0872 47.1448,55.2632 46.6428,55.3562 C46.3708,55.4072 46.0628,55.4902 45.9278,55.5482 C45.7968,55.6052 45.3738,55.7142 44.9758,55.7942 C43.9548,55.9982 43.8698,56.0212 43.0698,56.2902 C42.6708,56.4242 42.0078,56.6052 41.5628,56.7022 C41.1218,56.7982 39.8908,57.0762 38.8098,57.3242 C37.1078,57.7142 36.8228,57.7442 36.6158,57.5602 C36.3268,57.3022 36.1688,55.6342 36.4168,55.4622 C36.5028,55.4032 36.5608,55.1462 36.5458,54.8892 C36.5318,54.6322 36.5898,54.3762 36.6758,54.3172 C36.7818,54.2452 36.7688,54.1102 36.6348,53.8932 C36.5318,53.7222 36.4858,53.4482 36.5378,53.3022 C36.5918,53.1512 36.6388,52.5632 36.6418,51.9832 C36.6448,51.4032 36.6978,50.6092 36.7598,50.2042 C36.8208,49.8042 36.8598,48.5392 36.8448,47.4122 C36.8298,46.2842 36.8508,45.2872 36.8908,45.2102 C36.9298,45.1332 36.9708,44.4972 36.9808,43.8042 C36.9908,43.1102 37.0648,42.2422 37.1448,41.8852 C37.3518,40.9582 37.3578,40.8742 37.3218,39.6192 C37.3028,38.9912 37.3258,38.4192 37.3718,38.3272 C37.4418,38.1902 37.3658,34.9922 37.2448,33.0502 C37.2248,32.7182 37.2568,32.0182 37.3168,31.5152 C37.3768,31.0042 37.4628,29.8312 37.5078,28.8942 C37.5538,27.9562 37.6578,26.5302 37.7408,25.7062 C37.8248,24.8802 37.8808,24.1592 37.8678,24.0882 C37.8548,24.0192 37.8868,23.7972 37.9388,23.6012 C38.0318,23.2492 38.7818,22.8602 39.4398,22.8232 C39.5688,22.8162 39.7558,22.7282 39.8398,22.6322 C39.9268,22.5352 40.3188,22.4052 40.7028,22.3482 C41.6768,22.2002 43.0918,21.8312 43.4658,21.6282 C43.8038,21.4432 44.3188,21.3062 45.4828,21.0882 C45.8968,21.0102 46.2448,20.8822 46.2398,20.8082 C46.2358,20.7312 46.4008,20.6612 46.6098,20.6492 C46.8188,20.6382 47.0348,20.5752 47.0928,20.5112 C47.1518,20.4442 47.5358,20.3512 47.9518,20.3012 C48.3688,20.2512 49.1618,20.0342 49.7288,19.8152 C50.9028,19.3632 52.7318,19.0602 54.6778,18.9922 C55.4338,18.9672 56.1138,18.8882 56.1988,18.8162 C56.2858,18.7432 56.7088,18.7242 57.1618,18.7712 C57.6168,18.8172 58.0488,18.8192 58.1468,18.7762 C58.4598,18.6342 58.9958,21.4512 58.6948,21.6612 C58.5698,21.7482 58.8138,25.1552 59.0078,26.0462 C59.0398,26.1902 59.0008,26.4152 58.9258,26.5262 C58.8298,26.6692 58.8518,26.8772 58.9908,27.1752 C59.2038,27.6312 59.2718,29.4092 59.0878,29.7482 C59.0308,29.8552 59.0628,30.0792 59.1588,30.2352 C59.2538,30.3922 59.2888,30.5782 59.2348,30.6422 C59.0878,30.8152 59.1038,31.7132 59.3438,36.8552 C59.4568,39.2822 59.5038,41.3572 59.4478,41.4582 C59.3918,41.5592 59.4238,42.0072 59.5198,42.4532 C59.6218,42.9312 59.6378,43.3272 59.5578,43.4172 M33.7828,25.8082 C33.6958,25.9232 33.6458,26.2902 33.6718,26.6272 C33.7178,27.2322 33.7168,28.9612 33.6678,31.2842 C33.6548,31.9132 33.5958,32.4872 33.5338,32.5802 C33.4718,32.6732 33.4448,33.3582 33.4728,34.1142 C33.6448,38.7772 33.6158,42.7132 33.3868,45.5602 C33.3128,46.4982 33.2278,47.5482 33.1988,47.9062 C33.1698,48.2622 33.1528,49.2542 33.1608,50.1072 C33.1678,50.9612 33.0978,51.8252 33.0018,52.0262 C32.9028,52.2352 32.8708,53.0082 32.9268,53.8432 C33.0058,55.0302 32.9708,55.3982 32.7338,55.8592 C32.5498,56.2162 32.4588,56.7132 32.4868,57.2102 C32.5528,58.3842 32.3658,58.8082 31.7448,58.8252 C31.1508,58.8082 30.9628,58.3842 31.0298,57.2102 C31.0568,56.7132 30.9658,56.2162 30.7828,55.8592 C30.5448,55.3982 30.5098,55.0302 30.5888,53.8432 C30.6448,53.0082 30.6138,52.2352 30.5138,52.0262 C30.4178,51.8252 30.3478,50.9612 30.3558,50.1072 C30.3638,49.2542 30.3458,48.2622 30.3178,47.9062 C30.2878,47.5482 30.2038,46.4982 30.1288,45.5602 C29.9008,42.7132 29.8708,38.7772 30.0428,34.1142 C30.0718,33.3582 30.0438,32.6732 29.9828,32.5802 C29.9198,32.4872 29.8618,31.9132 29.8478,31.2772 C29.8188,29.8852 29.1988,27.6042 29.9538,26.3292 C30.4228,25.5372 30.6828,25.6162 31.4888,25.3772 C31.8158,25.2792 34.2848,25.1382 33.7828,25.8082 M26.9008,57.5602 C26.6938,57.7442 26.4088,57.7142 24.7058,57.3242 C23.6248,57.0762 22.3938,56.7982 21.9538,56.7022 C21.5078,56.6052 20.8448,56.4242 20.4468,56.2902 C19.6458,56.0212 19.5608,55.9982 18.5398,55.7942 C18.1418,55.7142 17.7188,55.6052 17.5878,55.5482 C17.4538,55.4902 17.1448,55.4072 16.8728,55.3562 C16.3708,55.2632 15.7118,55.0872 13.4588,54.4532 C12.7138,54.2432 11.8628,54.0132 11.5548,53.9382 C11.2498,53.8622 10.3598,53.5512 9.5868,53.2472 C8.8148,52.9442 7.7218,52.6032 7.1718,52.4952 C6.1368,52.2902 5.2228,51.9192 5.2348,51.7062 C5.2388,51.6332 5.1458,51.5722 5.0168,51.5652 C4.8888,51.5582 4.7548,51.3412 4.7068,51.0642 C4.6588,50.7882 4.5608,50.5342 4.4818,50.4792 C4.4048,50.4272 4.3578,50.0952 4.3778,49.7412 C4.3978,49.3882 4.3358,48.9352 4.2408,48.7342 C4.1468,48.5352 4.0788,47.8232 4.0898,47.1632 C4.1368,44.6362 4.0998,43.5752 3.9578,43.4172 C3.8778,43.3272 3.8938,42.9312 3.9958,42.4532 C4.0918,42.0072 4.1238,41.5592 4.0688,41.4582 C4.0118,41.3572 4.0588,39.2822 4.1718,36.8552 C4.4118,31.7132 4.4278,30.8152 4.2818,30.6422 C4.2268,30.5782 4.2618,30.3922 4.3578,30.2352 C4.4538,30.0792 4.4858,29.8552 4.4278,29.7482 C4.2448,29.4092 4.3118,27.6312 4.5258,27.1752 C4.6638,26.8772 4.6858,26.6692 4.5898,26.5262 C4.5148,26.4152 4.4758,26.1902 4.5078,26.0462 C4.7028,25.1552 4.9468,21.7482 4.8218,21.6612 C4.5208,21.4512 5.0558,18.6342 5.3698,18.7762 C5.4668,18.8192 5.8998,18.8172 6.3538,18.7712 C6.8068,18.7242 7.2308,18.7432 7.3178,18.8162 C7.4028,18.8882 8.0818,18.9672 8.8378,18.9922 C10.7848,19.0602 12.6138,19.3632 13.7868,19.8152 C14.3548,20.0342 15.1478,20.2512 15.5648,20.3012 C15.9808,20.3512 16.3648,20.4442 16.4228,20.5112 C16.4818,20.5752 16.6978,20.6382 16.9068,20.6492 C17.1158,20.6612 17.2808,20.7312 17.2768,20.8082 C17.2718,20.8822 17.6198,21.0102 18.0338,21.0882 C19.1978,21.3062 19.7118,21.4432 20.0498,21.6282 C20.4238,21.8312 21.8388,22.2002 22.8138,22.3482 C23.1978,22.4052 23.5888,22.5352 23.6758,22.6322 C23.7598,22.7282 23.9478,22.8162 24.0768,22.8232 C24.7348,22.8602 25.4848,23.2492 25.5778,23.6012 C25.6288,23.7972 25.6618,24.0192 25.6488,24.0882 C25.6348,24.1592 25.6918,24.8802 25.7758,25.7062 C25.8588,26.5302 25.9618,27.9562 26.0078,28.8942 C26.0528,29.8312 26.1388,31.0042 26.1998,31.5152 C26.2588,32.0182 26.2908,32.7182 26.2718,33.0502 C26.1508,34.9922 26.0748,38.1902 26.1438,38.3272 C26.1908,38.4192 26.2128,38.9912 26.1948,39.6192 C26.1588,40.8742 26.1638,40.9582 26.3708,41.8852 C26.4518,42.2422 26.5258,43.1102 26.5358,43.8042 C26.5448,44.4972 26.5858,45.1332 26.6248,45.2102 C26.6648,45.2872 26.6858,46.2842 26.6708,47.4122 C26.6568,48.5392 26.6958,49.8042 26.7558,50.2042 C26.8188,50.6092 26.8708,51.4032 26.8738,51.9832 C26.8768,52.5632 26.9238,53.1512 26.9778,53.3022 C27.0308,53.4482 26.9848,53.7222 26.8808,53.8932 C26.7468,54.1102 26.7348,54.2452 26.8398,54.3172 C26.9258,54.3762 26.9848,54.6322 26.9698,54.8892 C26.9548,55.1462 27.0128,55.4032 27.0988,55.4622 C27.3468,55.6342 27.1898,57.3022 26.9008,57.5602 M63.3698,50.4872 C63.2978,50.4912 63.2348,49.8662 63.2268,49.0932 C63.2168,48.1442 63.1518,47.6592 63.0218,47.5912 C62.8828,47.5162 62.8988,47.4112 63.0808,47.2082 C63.2708,46.9952 63.3058,46.7202 63.2268,46.0632 C63.1678,45.5842 63.1588,45.1552 63.2038,45.0992 C63.2498,45.0422 63.2518,43.9832 63.2088,42.7302 C63.1618,41.3962 63.1988,40.3722 63.2948,40.2432 C63.3838,40.1262 63.3948,39.9322 63.3178,39.8232 C63.1208,39.5442 62.7538,34.0582 62.9178,33.8362 C62.9948,33.7332 62.9898,32.2122 62.9088,30.4442 C62.8268,28.6772 62.8208,27.1512 62.8948,27.0462 C62.9768,26.9292 62.9568,26.8132 62.8458,26.7532 C62.6158,26.6262 62.3508,21.3512 62.5668,21.1902 C62.6488,21.1292 62.6308,20.9212 62.5228,20.6862 C62.4218,20.4662 62.3868,20.2312 62.4458,20.1672 C62.5818,20.0142 62.5448,19.1132 62.4028,19.1222 C62.2168,19.1322 62.0768,18.0762 62.1688,17.3622 C62.2528,16.7132 62.2128,16.5672 61.8128,16.0532 C61.5598,15.7292 61.3188,15.4762 61.2648,15.4802 C61.2108,15.4822 60.9648,15.3172 60.7118,15.1072 C60.4588,14.8972 60.0668,14.6692 59.8288,14.5942 C59.3708,14.4472 58.1398,14.6342 58.1518,14.8482 C58.1568,14.9192 57.9248,14.9722 57.6348,14.9662 C57.3438,14.9602 56.6498,15.0702 56.0778,15.2142 C55.5128,15.3552 54.4988,15.5152 53.8418,15.5642 C53.1838,15.6142 52.4568,15.6962 52.2408,15.7442 C51.3488,15.9412 50.5218,16.0912 49.8158,16.1802 C49.3998,16.2322 48.9008,16.3962 48.7008,16.5452 C48.4978,16.6942 47.8728,16.8922 47.2988,16.9852 C46.2128,17.1632 43.9198,17.8322 43.4618,18.1052 C43.3168,18.1922 43.0118,18.2732 42.7868,18.2862 C42.5628,18.2982 42.1598,18.4382 41.8948,18.5942 C41.6138,18.7592 41.2008,18.8602 40.9088,18.8342 C40.6328,18.8102 40.1948,18.8932 39.9358,19.0182 C39.6748,19.1442 39.1488,19.3492 38.7538,19.4792 C38.3578,19.6082 37.8808,19.7852 37.6798,19.8772 C36.6778,20.3352 36.6078,19.9852 37.4118,18.5712 C37.7348,18.0052 37.9958,17.4702 37.9928,17.3862 C37.9868,17.3012 38.2018,16.8512 38.4758,16.3682 C39.3088,14.9032 39.4488,14.6242 39.4388,14.4452 C39.4328,14.3472 39.5618,14.1082 39.7308,13.9052 C39.8988,13.7022 40.0248,13.4072 40.0158,13.2372 C40.0058,13.0672 40.3158,12.1732 40.7088,11.2312 C41.1018,10.2922 41.4118,9.4182 41.4048,9.2762 C41.3968,9.1312 41.4608,9.0152 41.5508,9.0102 C41.6418,9.0052 41.7038,8.8642 41.6948,8.6882 C41.6848,8.5152 41.8188,8.3232 41.9928,8.2602 C42.1658,8.1972 42.3048,8.0842 42.3008,8.0092 C42.2968,7.9352 42.5598,7.7472 42.8738,7.6002 C43.5338,7.2892 44.2768,6.5892 44.6588,5.9192 C44.8678,5.5522 44.8818,5.2862 44.7368,4.4572 C44.6388,3.8982 44.5528,3.0832 44.5448,2.6392 C44.5318,1.7372 44.2988,1.2262 43.6638,0.6962 C43.2718,0.3682 43.1448,0.3552 41.8808,0.5172 C41.1288,0.6112 40.3098,0.7622 40.0468,0.8532 C39.7788,0.9442 39.4808,0.9892 39.3598,0.9552 C39.2458,0.9232 39.0548,1.0362 38.9478,1.2042 C38.8388,1.3712 38.6888,1.4652 38.6208,1.4072 C38.5508,1.3502 38.2778,1.4702 38.0148,1.6752 C36.7028,2.6982 36.2218,4.2422 36.9498,5.0952 C37.7788,6.0632 38.1948,7.3152 37.8798,7.8942 C37.8168,8.0112 37.7778,8.3832 37.7958,8.7042 C37.8138,9.0252 37.7818,9.3762 37.7258,9.4662 C37.6688,9.5582 37.5468,9.9272 37.4538,10.2862 C37.2048,11.2552 37.1278,11.4652 36.4068,13.1162 C36.0388,13.9592 35.7488,14.7472 35.7568,14.8852 C35.7658,15.0292 35.7208,15.1372 35.6508,15.1412 C35.5838,15.1452 35.3428,15.5692 35.1078,16.0982 C34.8728,16.6262 34.5998,17.1092 34.4928,17.1882 C34.3858,17.2652 34.1938,17.5832 34.0648,17.8962 C33.9358,18.2102 33.7658,18.4692 33.6858,18.4742 C33.6048,18.4782 33.5478,18.5942 33.5558,18.7382 C33.6078,19.6712 31.0728,19.7622 30.5378,19.4732 C30.3168,19.3522 29.8778,18.4772 29.8298,18.4742 C29.7498,18.4692 29.5798,18.2102 29.4518,17.8962 C29.3228,17.5832 29.1298,17.2652 29.0238,17.1882 C28.9158,17.1092 28.6428,16.6262 28.4088,16.0982 C28.1728,15.5692 27.9318,15.1452 27.8658,15.1412 C27.7948,15.1372 27.7498,15.0292 27.7588,14.8852 C27.7668,14.7472 27.4768,13.9592 27.1098,13.1162 C26.3878,11.4652 26.3108,11.2552 26.0618,10.2862 C25.9688,9.9272 25.8468,9.5582 25.7898,9.4662 C25.7348,9.3762 25.7028,9.0252 25.7198,8.7042 C25.7388,8.3832 25.6998,8.0112 25.6358,7.8942 C25.3218,7.3152 25.7378,6.0632 26.5668,5.0952 C27.2938,4.2422 26.8138,2.6982 25.5008,1.6752 C25.2388,1.4702 24.9648,1.3502 24.8958,1.4072 C24.8278,1.4652 24.6768,1.3712 24.5688,1.2042 C24.4608,1.0362 24.2708,0.9232 24.1568,0.9552 C24.0358,0.9892 23.7378,0.9442 23.4688,0.8532 C23.2058,0.7622 22.3868,0.6112 21.6348,0.5172 C20.3708,0.3552 20.2448,0.3682 19.8518,0.6962 C19.2168,1.2262 18.9848,1.7372 18.9708,2.6392 C18.9628,3.0832 18.8768,3.8982 18.7798,4.4572 C18.6338,5.2862 18.6488,5.5522 18.8578,5.9192 C19.2398,6.5892 19.9828,7.2892 20.6418,7.6002 C20.9558,7.7472 21.2188,7.9352 21.2148,8.0092 C21.2108,8.0842 21.3498,8.1972 21.5238,8.2602 C21.6978,8.3232 21.8308,8.5152 21.8218,8.6882 C21.8118,8.8642 21.8738,9.0052 21.9648,9.0102 C22.0548,9.0152 22.1198,9.1312 22.1118,9.2762 C22.1038,9.4182 22.4138,10.2922 22.8068,11.2312 C23.2008,12.1732 23.5098,13.0672 23.4998,13.2372 C23.4918,13.4072 23.6178,13.7022 23.7858,13.9052 C23.9538,14.1082 24.0828,14.3472 24.0778,14.4452 C24.0678,14.6242 24.2068,14.9032 25.0398,16.3682 C25.3148,16.8512 25.5298,17.3012 25.5238,17.3862 C25.5198,17.4702 25.7818,18.0052 26.1038,18.5712 C26.9088,19.9852 26.8378,20.3352 25.8358,19.8772 C25.6348,19.7852 25.1588,19.6082 24.7618,19.4792 C24.3678,19.3492 23.8408,19.1442 23.5798,19.0182 C23.3218,18.8932 22.8828,18.8102 22.6078,18.8342 C22.3158,18.8602 21.9028,18.7592 21.6208,18.5942 C21.3568,18.4382 20.9538,18.2982 20.7288,18.2862 C20.5038,18.2732 20.1998,18.1922 20.0538,18.1052 C19.5958,17.8322 17.3028,17.1632 16.2168,16.9852 C15.6428,16.8922 15.0178,16.6942 14.8158,16.5452 C14.6158,16.3962 14.1168,16.2322 13.7008,16.1802 C12.9948,16.0912 12.1668,15.9412 11.2758,15.7442 C11.0588,15.6962 10.3318,15.6142 9.6738,15.5642 C9.0168,15.5152 8.0028,15.3552 7.4388,15.2142 C6.8668,15.0702 6.1718,14.9602 5.8808,14.9662 C5.5908,14.9722 5.3598,14.9192 5.3648,14.8482 C5.3758,14.6342 4.1458,14.4472 3.6868,14.5942 C3.4498,14.6692 3.0568,14.8972 2.8038,15.1072 C2.5508,15.3172 2.3048,15.4822 2.2508,15.4802 C2.1978,15.4762 1.9558,15.7292 1.7038,16.0532 C1.3028,16.5672 1.2628,16.7132 1.3468,17.3622 C1.4398,18.0762 1.2988,19.1322 1.1138,19.1222 C0.9708,19.1132 0.9338,20.0142 1.0708,20.1672 C1.1288,20.2312 1.0938,20.4662 0.9938,20.6862 C0.8848,20.9212 0.8678,21.1292 0.9498,21.1902 C1.1648,21.3512 0.9008,26.6262 0.6698,26.7532 C0.5588,26.8132 0.5388,26.9292 0.6208,27.0462 C0.6958,27.1512 0.6898,28.6772 0.6078,30.4442 C0.5268,32.2122 0.5218,33.7332 0.5978,33.8362 C0.7618,34.0582 0.3958,39.5442 0.1988,39.8232 C0.1208,39.9322 0.1318,40.1262 0.2208,40.2432 C0.3178,40.3722 0.3538,41.3962 0.3068,42.7302 C0.2638,43.9832 0.2658,45.0422 0.3118,45.0992 C0.3578,45.1552 0.3478,45.5842 0.2888,46.0632 C0.2098,46.7202 0.2448,46.9952 0.4348,47.2082 C0.6178,47.4112 0.6328,47.5162 0.4948,47.5912 C0.3648,47.6592 0.2988,48.1442 0.2888,49.0932 C0.2818,49.8662 0.2178,50.4912 0.1468,50.4872 C-0.0532,50.4762 -0.0462,52.3132 0.1548,52.5502 C0.2608,52.6762 0.3328,52.9152 0.3228,53.1072 C0.3058,53.3962 1.0838,54.3882 1.3598,54.4292 C1.4128,54.4372 1.9198,54.5052 2.4948,54.5822 C3.0718,54.6592 3.7108,54.7922 3.9288,54.8802 C4.1468,54.9682 4.7848,55.1472 5.3568,55.2822 C5.9288,55.4172 6.6728,55.6132 7.0238,55.7222 C7.3718,55.8302 7.8228,55.9582 8.0238,56.0072 C8.6588,56.1602 9.0588,56.3432 9.2638,56.5722 C9.3768,56.6982 9.6618,56.8202 9.8698,56.8322 C10.0828,56.8442 10.5728,56.9412 10.9378,57.0452 C11.3118,57.1502 12.3908,57.4342 13.3598,57.6802 C14.3288,57.9272 15.2288,58.1952 15.3798,58.2842 C15.5308,58.3732 15.9258,58.4602 16.2638,58.4792 C16.6008,58.4972 16.9378,58.5812 17.0178,58.6662 C17.0968,58.7492 17.7388,58.8992 18.4258,58.9952 C19.1138,59.0902 19.8368,59.2772 20.0138,59.4052 C20.1938,59.5362 20.9628,59.7122 21.7328,59.8002 C22.4998,59.8882 23.1948,60.0072 23.2798,60.0672 C23.5808,60.2772 27.0958,60.9932 28.8248,61.1972 C29.8168,61.3132 30.6698,61.4782 30.7148,61.5602 C30.8068,61.7282 31.2758,61.9692 31.7578,62.1352 C32.2408,61.9692 32.7088,61.7282 32.8008,61.5602 C32.8458,61.4782 33.6998,61.3132 34.6918,61.1972 C36.4198,60.9932 39.9348,60.2772 40.2368,60.0672 C40.3218,60.0072 41.0158,59.8882 41.7838,59.8002 C42.5528,59.7122 43.3228,59.5362 43.5018,59.4052 C43.6788,59.2772 44.4028,59.0902 45.0898,58.9952 C45.7778,58.8992 46.4188,58.7492 46.4978,58.6662 C46.5788,58.5812 46.9148,58.4972 47.2518,58.4792 C47.5898,58.4602 47.9858,58.3732 48.1358,58.2842 C48.2868,58.1952 49.1878,57.9272 50.1568,57.6802 C51.1248,57.4342 52.2038,57.1502 52.5788,57.0452 C52.9438,56.9412 53.4328,56.8442 53.6458,56.8322 C53.8548,56.8202 54.1388,56.6982 54.2518,56.5722 C54.4568,56.3432 54.8578,56.1602 55.4928,56.0072 C55.6938,55.9582 56.1438,55.8302 56.4928,55.7222 C56.8428,55.6132 57.5868,55.4172 58.1598,55.2822 C58.7318,55.1472 59.3698,54.9682 59.5868,54.8802 C59.8048,54.7922 60.4448,54.6592 61.0208,54.5822 C61.5958,54.5052 62.1028,54.4372 62.1568,54.4292 C62.4318,54.3882 63.2098,53.3962 63.1938,53.1072 C63.1828,52.9152 63.2548,52.6762 63.3618,52.5502 C63.5628,52.3132 63.5698,50.4762 63.3698,50.4872" id="Fill-7" fill="#E5555D"></path>
                </g>
            </g>
        </g>
    </g>
</svg>