<?xml version="1.0" encoding="UTF-8"?>
<svg width="125px" height="125px" viewBox="0 0 125 125" version="1.1" xmlns="http://www.w3.org/2000/svg" xmlns:xlink="http://www.w3.org/1999/xlink">
    <!-- Generator: Sketch 61 (89581) - https://sketch.com -->
    <title>ico-dashed-circle</title>
    <desc>Created with Sketch.</desc>
    <g id="Page-1" stroke="none" stroke-width="1" fill="none" fill-rule="evenodd">
        <g id="200318_kodomonooka-ver2" transform="translate(-946.000000, -6206.000000)" fill="#FFFFFF" fill-rule="nonzero">
            <path d="M1011.03737,6206.05058 L1012.03657,6206.09049 L1011.95675,6208.0889 L1010.95755,6208.04899 C1010.14054,6208.01636 1009.32125,6208 1008.5,6208 L1007.5,6208 L1007.5,6206 L1008.5,6206 C1009.34787,6206 1010.19376,6206.01689 1011.03737,6206.05058 Z M1027.12725,6208.82313 L1028.08192,6209.12081 L1027.48657,6211.03014 L1026.5319,6210.73247 C1025.75043,6210.48879 1024.96357,6210.26099 1024.17172,6210.04922 L1023.20567,6209.79087 L1023.72237,6207.85877 L1024.68842,6208.11712 C1025.50665,6208.33594 1026.31973,6208.57134 1027.12725,6208.82313 Z M1041.9426,6215.69067 L1042.78694,6216.22647 L1041.71534,6217.91516 L1040.871,6217.37936 C1040.17914,6216.94033 1039.47844,6216.51538 1038.76931,6216.1048 L1037.90389,6215.60375 L1038.90601,6213.87292 L1039.77142,6214.37398 C1040.50401,6214.79813 1041.22788,6215.23713 1041.9426,6215.69067 Z M1054.50285,6226.19126 L1055.17997,6226.92713 L1053.70823,6228.28138 L1053.03111,6227.54551 C1052.47611,6226.94235 1051.90896,6226.35045 1051.33005,6225.77019 L1050.62377,6225.06226 L1052.03963,6223.6497 L1052.74591,6224.35763 C1053.34384,6224.95695 1053.92962,6225.56829 1054.50285,6226.19126 Z M1063.87893,6239.5002 L1064.34357,6240.3857 L1062.57258,6241.31498 L1062.10794,6240.42948 C1061.72692,6239.70335 1061.33115,6238.9851 1060.92092,6238.27516 L1060.42059,6237.40932 L1062.15227,6236.40868 L1062.6526,6237.27452 C1063.07641,6238.00796 1063.48529,6238.75 1063.87893,6239.5002 Z M1069.50737,6254.86171 L1069.72464,6255.83782 L1067.77242,6256.27235 L1067.55515,6255.29624 C1067.37688,6254.49532 1067.18239,6253.69888 1066.97185,6252.90728 L1066.71481,6251.94088 L1068.64762,6251.42681 L1068.90465,6252.39321 C1069.12221,6253.21117 1069.32317,6254.03413 1069.50737,6254.86171 Z M1070.94352,6271.18091 L1070.90135,6272.18002 L1068.90313,6272.09567 L1068.9453,6271.09656 C1068.97981,6270.27912 1068.99802,6269.45939 1068.99985,6268.63767 L1069.00207,6267.63767 L1071.00207,6267.64213 L1070.99984,6268.64212 C1070.99795,6269.49049 1070.97915,6270.33686 1070.94352,6271.18091 Z M1068.13538,6287.25978 L1067.83557,6288.21378 L1065.92757,6287.61415 L1066.22739,6286.66016 C1066.47282,6285.87919 1066.7024,6285.09281 1066.91594,6284.30142 L1067.17645,6283.33595 L1069.10739,6283.85697 L1068.84688,6284.82245 C1068.62622,6285.64021 1068.389,6286.45279 1068.13538,6287.25978 Z M1061.23228,6302.06371 L1060.69454,6302.90682 L1059.00832,6301.83135 L1059.54605,6300.98824 C1059.98703,6300.29683 1060.41392,6299.59653 1060.82643,6298.88776 L1061.32945,6298.02349 L1063.058,6299.02952 L1062.55498,6299.8938 C1062.12883,6300.62601 1061.68783,6301.34946 1061.23228,6302.06371 Z M1050.70422,6314.59881 L1049.96682,6315.27427 L1048.6159,6313.79948 L1049.3533,6313.12402 C1049.95802,6312.57009 1050.5515,6312.00398 1051.13335,6311.42607 L1051.84286,6310.72137 L1053.25226,6312.14038 L1052.54275,6312.84508 C1051.94178,6313.44198 1051.3288,6314.02668 1050.70422,6314.59881 Z M1037.37554,6323.94396 L1036.48899,6324.40661 L1035.5637,6322.63352 L1036.45024,6322.17087 C1037.17687,6321.79168 1037.89565,6321.39774 1038.60615,6320.98932 L1039.47312,6320.49096 L1040.46983,6322.22491 L1039.60286,6322.72327 C1038.86883,6323.1452 1038.12625,6323.5522 1037.37554,6323.94396 Z M1022.00279,6329.53738 L1021.02619,6329.75246 L1020.59602,6327.79927 L1021.57262,6327.58419 C1022.37393,6327.40771 1023.17079,6327.215 1023.96283,6327.00624 L1024.92981,6326.75137 L1025.43955,6328.68532 L1024.47258,6328.94019 C1023.65416,6329.15591 1022.83076,6329.35502 1022.00279,6329.53738 Z M1005.6787,6330.93744 L1004.67969,6330.89305 L1004.76847,6328.89502 L1005.76749,6328.93941 C1006.58537,6328.97576 1007.40557,6328.99578 1008.22779,6328.9994 L1009.22778,6329.0038 L1009.21897,6331.00378 L1008.21898,6330.99938 C1007.37009,6330.99564 1006.52322,6330.97497 1005.6787,6330.93744 Z M989.602287,6328.09186 L988.648991,6327.78982 L989.253065,6325.88323 L990.206361,6326.18527 C990.986719,6326.43251 991.772518,6326.66391 992.563363,6326.87928 L993.528223,6327.14205 L993.002693,6329.07177 L992.037833,6328.809 C991.220637,6328.58645 990.408651,6328.34734 989.602287,6328.09186 Z M974.823455,6321.16014 L973.981495,6320.6206 L975.060576,6318.93668 L975.902536,6319.47622 C976.592544,6319.91839 977.291464,6320.34651 977.998872,6320.76029 L978.862054,6321.26518 L977.852269,6322.99155 L976.989087,6322.48665 C976.258284,6322.05919 975.536261,6321.61692 974.823455,6321.16014 Z M962.307463,6310.60167 L961.633634,6309.86278 L963.111408,6308.51512 L963.785237,6309.25401 C964.337467,6309.85956 964.901891,6310.45391 965.47813,6311.03668 L966.181241,6311.74776 L964.759082,6313.15399 L964.05597,6312.44291 C963.460802,6311.84099 962.877836,6311.22711 962.307463,6310.60167 Z M952.990438,6297.24947 L952.529814,6296.36188 L954.305005,6295.44063 L954.765629,6296.32823 C955.143249,6297.05588 955.535641,6297.77571 955.942533,6298.48729 L956.438923,6299.35539 L954.702725,6300.34817 L954.206334,6299.48007 C953.785968,6298.74492 953.380575,6298.00124 952.990438,6297.24947 Z M947.431706,6281.86162 L947.218893,6280.88453 L949.173079,6280.4589 L949.385892,6281.436 C949.560483,6282.2376 949.751296,6283.03479 949.958174,6283.82718 L950.210788,6284.79475 L948.275653,6285.29997 L948.02304,6284.3324 C947.809272,6283.51363 947.612107,6282.6899 947.431706,6281.86162 Z M946.068951,6265.53841 L946.115562,6264.53949 L948.113389,6264.63271 L948.066777,6265.63163 C948.028593,6266.44994 948.006752,6267.27061 948.001338,6268.09332 L947.994757,6269.0933 L945.994801,6269.08014 L946.001381,6268.08016 C946.006971,6267.23075 946.029523,6266.38339 946.068951,6265.53841 Z M948.950203,6249.47005 L949.254372,6248.51743 L951.159608,6249.12577 L950.855438,6250.07839 C950.606439,6250.85822 950.373276,6251.64352 950.15613,6252.4339 L949.891209,6253.39817 L947.962669,6252.86832 L948.22759,6251.90405 C948.451972,6251.08734 948.692905,6250.27587 948.950203,6249.47005 Z M955.917398,6234.70276 L956.458868,6233.86204 L958.140309,6234.94498 L957.598839,6235.7857 C957.154741,6236.47523 956.72469,6237.17372 956.308986,6237.88075 L955.802139,6238.74278 L954.078066,6237.72909 L954.584913,6236.86705 C955.014364,6236.13665 955.458629,6235.41507 955.917398,6234.70276 Z M966.503211,6222.21203 L967.243616,6221.53987 L968.587939,6223.02068 L967.847534,6223.69284 C967.240449,6224.24397 966.64454,6224.80733 966.0602,6225.38255 L965.34755,6226.08407 L963.94451,6224.65877 L964.65716,6223.95725 C965.260696,6223.36314 965.876181,6222.78127 966.503211,6222.21203 Z M979.876665,6212.92516 L980.765309,6212.46656 L981.682507,6214.24385 L980.793864,6214.70245 C980.065219,6215.07848 979.34437,6215.4693 978.631742,6215.87465 L977.762519,6216.36907 L976.773678,6214.63062 L977.642901,6214.1362 C978.379131,6213.71743 979.123866,6213.31365 979.876665,6212.92516 Z M995.274288,6207.40226 L996.251855,6207.19164 L996.673106,6209.14677 L995.695539,6209.3574 C994.893492,6209.53021 994.095832,6209.71924 993.302939,6209.92436 L992.334809,6210.17481 L991.833916,6208.23854 L992.802047,6207.9881 C993.621341,6207.77615 994.445554,6207.58082 995.274288,6207.40226 Z" id="ico-dashed-circle"></path>
        </g>
    </g>
</svg>