<?xml version="1.0" encoding="UTF-8"?>
<svg width="29px" height="30px" viewBox="0 0 29 30" version="1.1" xmlns="http://www.w3.org/2000/svg" xmlns:xlink="http://www.w3.org/1999/xlink">
    <!-- Generator: Sketch 61 (89581) - https://sketch.com -->
    <title>ico-facebook</title>
    <desc>Created with Sketch.</desc>
    <g id="Page-1" stroke="none" stroke-width="1" fill="none" fill-rule="evenodd">
        <g id="200318_kodomonooka-ver2" transform="translate(-697.000000, -44.000000)" fill="#E5555D">
            <path d="M726,59.0852174 C726,51.306087 719.508491,45 711.500627,45 C703.492762,45 697,51.306087 697,59.0852174 C697,66.1156522 702.302234,71.9433043 709.234865,73 L709.234865,63.1561739 L705.553001,63.1561739 L705.553001,59.0852174 L709.234865,59.0852174 L709.234865,55.982087 C709.234865,52.4516522 711.399118,50.5013913 714.711292,50.5013913 C716.297826,50.5013913 717.957046,50.7765217 717.957046,50.7765217 L717.957046,54.2424348 L716.128646,54.2424348 C714.327816,54.2424348 713.765135,55.3295652 713.765135,56.4434783 L713.765135,59.0852174 L717.786613,59.0852174 L717.144981,63.1561739 L713.765135,63.1561739 L713.765135,73 C720.697766,71.9433043 726,66.1156522 726,59.0852174" id="Fill-1"></path>
        </g>
    </g>
</svg>