<?xml version="1.0" encoding="UTF-8"?>
<svg width="21px" height="15px" viewBox="0 0 21 15" version="1.1" xmlns="http://www.w3.org/2000/svg" xmlns:xlink="http://www.w3.org/1999/xlink">
    <!-- Generator: Sketch 61 (89581) - https://sketch.com -->
    <title>ico-mail</title>
    <desc>Created with Sketch.</desc>
    <g id="Page-1" stroke="none" stroke-width="1" fill="none" fill-rule="evenodd">
        <g id="200318_kodomonooka-ver2" transform="translate(-1148.000000, -51.000000)" fill="#FFFFFF">
            <path d="M1165.97854,52.935323 C1165.95676,53.0116877 1165.83652,53.1688568 1165.7189,53.2763001 C1165.12817,53.8152924 1164.59145,54.3214303 1164.20722,54.7014776 C1163.60429,55.2972995 1163.16342,55.695106 1163.10243,55.695106 C1163.07368,55.695106 1162.89681,55.8513872 1162.70948,56.0440747 C1162.39843,56.3628527 1162.03946,56.6576558 1161.96279,56.6576558 C1161.94362,56.6576558 1161.81467,56.7748667 1161.67701,56.9196043 C1161.53237,57.0696697 1161.34766,57.1993121 1161.24224,57.223287 C1161.03487,57.2703489 1160.96255,57.3440497 1160.91202,57.5607122 C1160.88937,57.6548361 1160.77,57.7773747 1160.59313,57.8883698 C1160.43978,57.9851576 1160.24462,58.1432147 1160.16794,58.2346747 C1160.09214,58.3252467 1159.9902,58.4033873 1159.94925,58.4033873 C1159.90743,58.4033873 1159.8508,58.4389057 1159.82553,58.4815278 C1159.79852,58.5250379 1159.69571,58.5942989 1159.58941,58.637809 C1159.27575,58.7665633 1158.62664,58.6244896 1158.62664,58.4273622 C1158.62664,58.386516 1158.52906,58.3216948 1158.40533,58.2799607 C1158.28074,58.2373385 1158.14395,58.1725174 1158.09516,58.1325591 C1158.04811,58.0943768 1157.95924,58.0428751 1157.90609,58.0233399 C1157.84946,58.0038048 1157.73793,57.8794902 1157.65167,57.7409683 C1157.44082,57.4044311 1157.28835,57.2596934 1157.14372,57.2596934 C1157.01999,57.2596934 1156.7133,57.0527985 1156.43536,56.7828583 C1156.34823,56.6976141 1156.19314,56.5635319 1156.09295,56.4862793 C1155.99275,56.4090267 1155.90998,56.3095751 1155.90998,56.266065 C1155.90998,56.1825966 1155.53184,55.8460594 1155.22515,55.6560357 C1155.04828,55.5468165 1154.45145,55.0175917 1153.81889,54.4093384 C1153.39458,54.0008763 1153.31006,53.9289515 1153.06349,53.7664546 C1152.93977,53.6847622 1152.8387,53.5870865 1152.8387,53.5489041 C1152.8387,53.5116098 1152.76203,53.4476766 1152.67315,53.4112702 C1152.58254,53.3730878 1152.46318,53.2638686 1152.40741,53.1670809 C1152.35252,53.0711811 1152.18088,52.9299953 1152.02666,52.8545186 C1151.87332,52.7781539 1151.75134,52.6884699 1151.75831,52.6556153 C1151.77922,52.5508359 1153.15149,52.3261817 1153.58278,52.3563724 C1153.70998,52.365252 1153.99054,52.3918909 1154.20923,52.4149779 C1154.45667,52.4407287 1154.73287,52.4274093 1154.94721,52.3785714 C1155.17897,52.3252938 1155.73223,52.3057586 1156.66625,52.3155262 C1157.42165,52.3235179 1158.07338,52.3093105 1158.11258,52.2844476 C1158.191,52.2329458 1158.15963,52.2347218 1159.8839,52.1796682 C1160.74648,52.1521414 1161.27622,52.1592451 1161.48794,52.2045311 C1161.66045,52.2400495 1162.10481,52.2658004 1162.47075,52.2604726 C1163.64001,52.2418254 1165.02971,52.252481 1165.12207,52.2808957 C1165.48888,52.3910029 1165.75201,52.4265213 1165.86614,52.3812353 C1165.94717,52.3492687 1166.06392,52.3563724 1166.17632,52.3998825 L1166.35668,52.4691435 L1166.18852,52.6316404 C1166.09355,52.7231003 1166.00206,52.8562945 1165.97854,52.935323 M1167.41267,53.8889932 C1167.35778,53.9786773 1167.35778,54.0337309 1167.41442,54.1420621 C1167.47976,54.2663767 1167.47976,54.395131 1167.41354,55.0628777 C1167.41093,55.0957323 1167.42487,55.3097309 1167.44578,55.5326091 C1167.46669,55.7545994 1167.46408,55.9748138 1167.43968,56.013884 C1167.33861,56.1763809 1167.34123,61.7074904 1167.44317,61.8104939 C1167.50677,61.875315 1167.49632,62.6016672 1167.43097,62.6425134 C1167.38479,62.6709281 1167.35778,63.3564341 1167.36824,64.1928934 C1167.37172,64.4273151 1167.35255,64.4814807 1167.26891,64.4814807 C1167.21054,64.4814807 1167.09814,64.5480778 1167.00927,64.635098 C1166.86899,64.772732 1166.83501,64.7816116 1166.68689,64.7230061 C1166.50915,64.6528572 1165.89577,64.5525176 1165.38781,64.5116714 C1164.99312,64.4797048 1163.45704,64.4805928 1162.08128,64.5143353 C1161.46093,64.5294306 1160.91899,64.5391982 1160.8702,64.5356464 C1160.61317,64.5169992 1159.802,64.4850326 1159.54149,64.4832567 C1159.37943,64.4823687 1159.06315,64.4797048 1158.83923,64.4779289 C1158.41056,64.4734891 1157.42165,64.5613972 1156.68368,64.6706164 C1156.44233,64.7061349 1156.0459,64.7309978 1155.79758,64.72567 C1155.54926,64.7203423 1155.32273,64.7185663 1155.28962,64.7212302 C1154.91758,64.7531968 1153.59672,64.7540848 1153.57842,64.7221182 C1153.56448,64.6990312 1153.35276,64.6768322 1153.10444,64.6715044 C1152.85612,64.6661766 1152.61129,64.6395378 1152.55553,64.6111231 C1152.43965,64.5525176 1151.73478,64.566725 1151.40979,64.63421 C1151.25645,64.6670646 1151.13185,64.6510813 1150.9907,64.5809324 C1150.82429,64.498352 1150.78421,64.4397466 1150.7572,64.2355155 C1150.7389,64.0961056 1150.68314,63.9424884 1150.62999,63.882995 C1150.54809,63.791535 1150.54461,63.723162 1150.60211,63.3626498 C1150.67878,62.8751592 1150.68227,62.7535085 1150.62738,62.3450464 C1150.55506,61.80783 1150.53677,61.465965 1150.50976,60.1784214 C1150.49494,59.480484 1150.46793,58.7932022 1150.45051,58.6440247 C1150.43221,58.4939593 1150.40956,57.9158966 1150.39997,57.3502654 C1150.39039,56.7837463 1150.36164,56.2918159 1150.33463,56.2483058 C1150.3111,56.2083475 1150.31894,56.1310949 1150.35292,56.0893607 C1150.39823,56.0325312 1150.39997,55.9597184 1150.35989,55.8513872 C1150.30413,55.6995458 1150.31982,55.2733245 1150.3991,54.8222403 C1150.42263,54.6908221 1150.43657,54.3711561 1150.43134,54.1180872 C1150.41914,53.5639995 1150.4749,53.5302569 1150.9968,53.7735583 C1151.13185,53.8374915 1151.2608,53.8889932 1151.27997,53.8889932 C1151.3488,53.8889932 1151.74524,54.2681526 1151.80797,54.395131 C1151.84195,54.463504 1151.94999,54.5602918 1152.04496,54.6055778 C1152.13906,54.6508638 1152.25407,54.7405479 1152.29589,54.8009292 C1152.33858,54.8621985 1152.49628,54.9865131 1152.6505,55.0779731 C1152.98682,55.2786523 1153.14539,55.4109585 1153.4547,55.7483837 C1153.6882,56.0041165 1153.79624,56.1151116 1154.37477,56.6931743 C1154.52202,56.8405758 1154.66752,56.9586746 1154.70238,56.9586746 C1154.73636,56.9586746 1154.91497,57.1078521 1155.09794,57.2898841 C1155.28091,57.4710281 1155.45691,57.6202056 1155.4874,57.6202056 C1155.51877,57.6202056 1155.73572,57.8093413 1155.97184,58.0419871 C1156.20796,58.2746329 1156.42229,58.4637686 1156.45017,58.4637686 C1156.47718,58.4637686 1156.50071,58.4992871 1156.50158,58.5410212 C1156.50332,58.6253775 1156.99037,58.9654666 1157.20906,59.0338396 C1157.36241,59.0826775 1157.86688,59.3623852 1157.91567,59.4263184 C1157.9331,59.4494054 1158.08296,59.5310978 1158.2546,59.6101263 C1158.53777,59.7406566 1158.55868,59.7637436 1158.52906,59.9200248 C1158.51163,60.0097088 1158.52209,60.0887374 1158.55258,60.0887374 C1158.58395,60.0887374 1158.63797,60.1544465 1158.67543,60.2388028 C1158.81135,60.5460373 1159.44129,60.6632482 1159.77761,60.4448097 C1159.87868,60.3791006 1159.99369,60.3116156 1160.04335,60.2894166 C1160.19147,60.2237074 1160.39796,60.0114847 1160.39796,59.9262405 C1160.39796,59.8836184 1160.41974,59.8472119 1160.44501,59.8472119 C1160.50426,59.8472119 1160.7517,59.6438689 1160.7517,59.595031 C1160.7517,59.5781597 1160.8702,59.435198 1161.01832,59.2727011 C1161.16644,59.1102043 1161.28406,59.0063128 1161.28406,59.0382794 C1161.28406,59.0693581 1161.3041,59.0649183 1161.32849,59.0293998 C1161.35202,58.9921054 1161.48184,58.8926538 1161.61776,58.8065216 C1161.75281,58.7195014 1161.87827,58.6005146 1161.89744,58.5383573 C1161.91748,58.4762001 1162.06299,58.3492216 1162.22853,58.24977 C1162.39407,58.1503184 1162.5239,58.0402112 1162.5239,58.0002529 C1162.5239,57.9602947 1162.57704,57.9114568 1162.64152,57.8919217 C1162.70687,57.8714986 1162.76001,57.817333 1162.76001,57.771159 C1162.76001,57.724985 1162.81316,57.6708194 1162.87851,57.6512842 C1162.94298,57.6308611 1162.99613,57.5820233 1162.99613,57.542065 C1162.99613,57.5021068 1163.14686,57.3520414 1163.33593,57.2028639 C1163.525,57.0536864 1163.76373,56.8334721 1163.87264,56.7064937 C1163.98243,56.5795152 1164.09221,56.4773997 1164.11835,56.4773997 C1164.14449,56.4773997 1164.27169,56.3743962 1164.40151,56.2491937 C1165.08722,55.5876627 1165.34337,55.3736641 1165.5063,55.3266022 C1165.6065,55.2972995 1165.73284,55.1969599 1165.78686,55.1046119 C1165.91581,54.8826216 1166.06915,54.715685 1166.25561,54.5958102 C1166.33925,54.5425326 1166.47169,54.3853634 1166.54575,54.2530573 C1166.61893,54.1207511 1166.71216,54.0097559 1166.74963,54.0097559 C1166.78622,54.0097559 1166.86551,53.9555903 1166.92301,53.8889932 C1166.98139,53.8232841 1167.05196,53.7691185 1167.07984,53.7691185 C1167.10772,53.7691185 1167.18353,53.7149528 1167.248,53.6483558 C1167.31335,53.5826466 1167.3935,53.5275931 1167.42574,53.5275931 C1167.50764,53.5275931 1167.50067,53.7451435 1167.41267,53.8889932 M1168.89647,51.6744183 C1168.73528,51.3503125 1168.51833,51.1940314 1168.128,51.1194427 C1167.72111,51.0404141 1167.03018,51.04219 1167.00404,51.1212186 C1166.98836,51.1682805 1166.93521,51.1691685 1166.81671,51.1238825 C1166.70432,51.0812603 1166.61545,51.0803724 1166.53965,51.1212186 C1166.46384,51.1611768 1166.3741,51.1585129 1166.26171,51.111451 C1166.14931,51.0643891 1165.58907,51.0475178 1164.50258,51.0563974 C1162.3174,51.0750446 1161.78069,51.0723807 1160.95907,51.0404141 C1160.56961,51.0253188 1160.06426,51.0075596 1159.83686,51.0022318 C1159.20517,50.9862485 1158.15005,51.0590613 1158.02371,51.1265463 C1157.96098,51.1602889 1157.83813,51.1709444 1157.74316,51.1505213 C1157.64906,51.1309862 1157.56106,51.1389778 1157.54276,51.1691685 C1157.52447,51.1993592 1157.20906,51.2091267 1156.8135,51.1904795 C1156.42926,51.1718324 1155.89081,51.1656166 1155.61461,51.1771601 C1154.82958,51.2091267 1153.38151,51.2153425 1152.95719,51.1878157 C1152.73066,51.1727203 1152.35514,51.2073508 1152.04147,51.271284 C1151.38627,51.4062541 1150.99768,51.4177976 1150.51847,51.317458 C1150.25883,51.2632924 1150.10199,51.2588525 1149.98089,51.3014747 C1149.88592,51.3343292 1149.75784,51.361856 1149.69423,51.361856 C1149.6315,51.361856 1149.45202,51.4550919 1149.29867,51.568751 L1149.01812,51.7765338 L1149.03903,52.2160746 C1149.05035,52.4602639 1149.07301,52.8633982 1149.08869,53.1217949 C1149.10699,53.4112702 1149.09653,53.5879744 1149.05994,53.5879744 C1148.97717,53.5879744 1148.98239,56.4347776 1149.06517,56.5191339 C1149.11309,56.5670838 1149.11309,56.5963865 1149.06517,56.6256892 C1148.98849,56.6727511 1148.97542,56.9373635 1149.04774,56.9826496 C1149.11831,57.0270476 1149.12877,57.6042223 1149.05994,57.6477324 C1149.03031,57.6663796 1149.0216,57.7409683 1149.0399,57.8137811 C1149.10176,58.0641861 1149.15752,58.8731187 1149.14532,59.3481778 C1149.12441,60.1127123 1149.1279,60.7058703 1149.15317,60.9607151 C1149.16711,61.0947972 1149.1915,61.442878 1149.2098,61.7430088 C1149.2281,62.0440276 1149.25946,62.3255113 1149.28037,62.3752371 C1149.33614,62.5075433 1149.34485,62.9382044 1149.29344,63.0074654 C1149.26905,63.0403199 1149.25511,63.3475545 1149.26295,63.6840917 C1149.27427,64.1538231 1149.25859,64.3180959 1149.19499,64.3704856 C1149.12528,64.429091 1149.13051,64.4557299 1149.23071,64.5480778 C1149.33091,64.6404258 1149.33962,64.6892636 1149.28647,64.8757355 C1149.24465,65.0266888 1149.24552,65.1163729 1149.28996,65.1616589 C1149.32742,65.1998412 1149.35443,65.2637744 1149.35443,65.3117243 C1149.35443,65.4387028 1149.662,65.7210744 1149.85716,65.774352 C1150.02619,65.821414 1150.45312,65.8365093 1150.89051,65.8116464 C1151.00377,65.8054307 1151.37407,65.798327 1151.71648,65.7965511 C1152.0589,65.7947752 1152.45533,65.7912233 1152.60258,65.7876715 C1152.74809,65.7841196 1153.17589,65.8320695 1153.54792,65.8933388 C1153.91996,65.9546081 1154.26673,66.002558 1154.31553,66 C1154.40527,65.9954544 1155.0657,65.9554961 1156.11647,65.8906749 C1156.44146,65.8702518 1156.93286,65.8462769 1157.20906,65.8356214 C1157.48613,65.8258538 1157.82942,65.8018788 1157.97666,65.7823437 C1158.49682,65.7130827 1159.2923,65.6722365 1159.45349,65.707755 C1159.86648,65.798327 1160.13658,65.8107585 1160.37444,65.752153 C1160.57309,65.7024272 1160.82925,65.7024272 1161.39036,65.752153 C1161.80334,65.7885594 1162.43154,65.8294056 1162.78964,65.8453889 C1163.14948,65.8604843 1163.46575,65.8729157 1163.49799,65.8746916 C1163.53023,65.8764676 1163.66354,65.8524926 1163.79336,65.8223019 C1164.03906,65.7636965 1165.86614,65.7699122 1166.3924,65.8311816 C1166.78796,65.8764676 1167.24974,65.8853472 1167.28547,65.8480528 C1167.30028,65.8311816 1167.43707,65.8560445 1167.58519,65.9022184 C1167.73243,65.9475045 1167.92934,65.9865747 1168.0156,65.9865747 C1168.22907,65.9865747 1168.66558,65.7636965 1168.66558,65.6553653 C1168.66558,65.6074154 1168.68998,65.5647932 1168.71873,65.5647932 C1168.78582,65.5647932 1168.84681,65.2762059 1168.88427,64.7824995 C1168.90083,64.565837 1168.93829,64.360718 1168.96966,64.3225357 C1169.00364,64.2799136 1169.0019,64.2381794 1168.96356,64.2142045 C1168.92958,64.1920054 1168.9017,64.0818983 1168.9017,63.9673513 C1168.9017,63.8528043 1168.87817,63.7595684 1168.84855,63.7595684 C1168.77798,63.7595684 1168.66558,63.4052719 1168.72483,63.3679776 C1168.75097,63.3511063 1168.75968,62.7517326 1168.74487,62.0289323 C1168.73093,61.3070199 1168.72221,60.6739037 1168.72657,60.6179622 C1168.73877,60.4590171 1168.74748,59.7450964 1168.74138,59.3055557 C1168.73877,59.0888932 1168.73615,58.7807707 1168.73615,58.613834 C1168.73615,58.4477853 1168.72134,58.0783935 1168.70392,57.7889182 C1168.68562,57.5003309 1168.69259,57.2525897 1168.71873,57.2357185 C1168.7954,57.1877686 1168.7954,56.5981624 1168.71873,56.5981624 C1168.67865,56.5981624 1168.66732,56.5342292 1168.6891,56.4321137 C1168.70827,56.3406537 1168.73877,56.0644978 1168.75706,55.8185326 C1168.77449,55.5716794 1168.81718,55.352353 1168.85116,55.331042 C1168.8895,55.307067 1168.9017,55.1534498 1168.88427,54.9367873 C1168.86772,54.7440997 1168.87469,54.5265493 1168.89908,54.4608401 C1168.92435,54.3915792 1168.90693,54.2477295 1168.85726,54.1207511 C1168.79889,53.9706856 1168.79017,53.8659062 1168.83112,53.7895416 C1168.86336,53.7291602 1168.8834,53.5160496 1168.87556,53.3180343 C1168.86685,53.119131 1168.87643,52.9291073 1168.8956,52.8962527 C1168.91564,52.8616223 1168.93568,52.7577308 1168.94003,52.6556153 C1168.94526,52.5552757 1168.96617,52.3545965 1168.98708,52.2045311 C1169.01758,51.9931963 1168.99667,51.8759855 1168.89647,51.6744183" id="ico-mail"></path>
        </g>
    </g>
</svg>