<?xml version="1.0" encoding="UTF-8"?>
<svg width="144px" height="218px" viewBox="0 0 144 218" version="1.1" xmlns="http://www.w3.org/2000/svg" xmlns:xlink="http://www.w3.org/1999/xlink">
    <!-- Generator: Sketch 61 (89581) - https://sketch.com -->
    <title>img-girl1</title>
    <desc>Created with Sketch.</desc>
    <g id="Page-1" stroke="none" stroke-width="1" fill="none" fill-rule="evenodd">
        <g id="200318_kodomonooka-ver2" transform="translate(-1052.000000, -3736.000000)">
            <g id="Group-43" transform="translate(1052.000000, 3736.000000)">
                <path d="M85.9217,61.0751 C85.7567,62.3101 85.3227,64.1811 84.2597,64.9481 C83.1797,65.7251 81.6537,65.1811 80.5557,65.9271 C80.1467,66.2041 79.8647,66.6331 79.6267,67.0651 C78.8947,68.3941 78.4577,69.8871 78.3597,71.4001 C78.0367,76.3501 74.1687,78.5701 70.5177,81.4481 C66.3917,84.6991 62.5197,84.6001 57.3647,84.6511 C54.0137,84.6831 53.2307,84.8871 54.5007,88.2211 C57.3767,95.7661 63.0317,102.3041 65.9367,110.0241 C68.9467,118.0301 70.8817,126.3881 73.7707,134.4351 C74.3707,136.1091 75.1177,137.8951 76.6617,138.7781 C77.7237,139.3861 78.9977,139.4611 80.2197,139.5221 C83.9077,139.7061 87.5967,139.8901 91.2857,140.0741 C96.3577,140.3271 101.8147,140.7221 105.7337,143.9521 C109.6527,147.1801 110.5777,154.3471 106.2087,156.9351 C121.4807,169.1281 130.9897,188.2481 131.4977,207.7831 C131.5177,208.5331 131.5187,209.3131 131.2027,209.9951 C130.6647,211.1561 129.3597,211.7361 128.1277,212.0841 C121.0467,214.0821 112.8577,211.2021 108.5857,205.2121 C105.8447,201.3661 104.7317,196.6371 103.1427,192.1901 C101.5847,187.8271 99.5237,183.6441 97.0127,179.7521 C94.1437,175.3041 89.5287,170.7921 84.3557,171.9051 C82.2917,172.3491 80.5347,173.6431 78.6777,174.6441 C68.1617,180.3121 54.8037,176.4751 43.6157,180.6611 C41.6887,181.3831 39.5697,182.3461 37.6687,181.5561 C35.1377,180.5071 34.7097,177.1791 34.5327,174.4451 C34.2227,169.6241 33.9667,165.6181 35.4927,160.8211 C36.0757,158.9901 36.8267,157.1111 36.5457,155.2101 C36.2417,153.1521 34.7937,151.4831 33.5197,149.8411 C28.6287,143.5401 27.9377,138.4401 26.9067,130.8831 C24.9087,116.2661 26.0127,100.1971 35.1817,88.6391 C36.2127,87.3391 37.4087,85.8801 37.1747,84.2361 C36.7767,81.4461 33.0727,80.9411 30.5337,79.7171 C27.2587,78.1371 26.1087,75.0391 24.2817,72.1751 C23.5877,71.0871 22.7957,70.1921 22.3027,69.0381 C21.7687,67.7861 21.7577,66.4761 20.4327,65.7001 C20.0337,65.4671 19.5837,65.3411 19.1397,65.2161 C18.0847,64.9211 16.8977,64.7521 15.8777,64.4011 C15.1737,64.1591 14.0357,63.0831 13.4387,63.0171 C11.5447,61.2991 10.9537,58.5541 11.7107,56.1581 C12.3737,54.0541 14.8397,51.9051 14.4077,49.5661 C14.2717,48.8271 13.8227,48.1901 13.4077,47.5631 C10.3977,43.0111 9.0627,39.0701 9.7437,33.6671 C10.3507,28.8661 12.1717,24.3431 15.7467,20.9821 C19.3767,17.5701 24.1427,15.5921 28.9757,14.3811 C45.3587,10.2731 60.5697,15.4441 73.8587,24.9871 C77.5237,27.6201 80.5717,31.1181 82.8017,35.0341 C85.3207,39.4601 85.0787,45.9281 82.4217,50.2281 C81.9397,51.0081 81.3527,51.8641 81.5537,52.7581 C81.7167,53.4791 82.3517,53.9831 82.9507,54.4181 C84.5807,55.6001 85.3067,56.0541 85.7807,58.0511 C86.0167,59.0401 86.0567,60.0691 85.9217,61.0751" id="Fill-1" fill="#FFFFFF"></path>
                <path d="M0.1746,79.207 C0.4506,78.21 1.0246,76.719 1.2206,76.486 C1.6256,76.005 2.6136,75.577 3.4236,75.532 C3.8946,75.506 4.2756,75.548 4.2786,75.626 C4.2826,75.704 4.5206,75.885 4.8116,76.03 C5.9186,76.586 7.2736,79.702 6.6106,80.167 C6.5086,80.237 6.4366,80.444 6.4466,80.633 C6.4756,81.147 5.0326,82.72 4.2566,83.021 C3.7016,83.236 3.4386,83.248 2.8626,83.083 C2.0566,82.852 1.0596,82.052 0.7026,81.35 C0.3296,80.615 -0.0164,79.858 0.0006,79.817 C0.0096,79.798 0.0846,79.533 0.1746,79.207" id="Fill-3" fill="#E5555D"></path>
                <path d="M4.0457,68.415 C4.1957,67.878 4.3357,67.392 4.3627,67.311 C4.3907,67.231 4.4447,66.995 4.4847,66.785 C4.5247,66.575 4.6347,66.398 4.7277,66.394 C4.8217,66.389 4.8887,66.233 4.8777,66.045 C4.8567,65.649 5.1917,65.234 5.5497,65.215 C5.6997,65.206 5.9417,65.022 6.1117,64.786 C6.4817,64.275 7.9777,64.04 9.3687,64.272 C10.0557,64.388 10.4107,64.587 10.8897,65.125 C11.2267,65.503 11.6057,65.821 11.7117,65.815 C11.8237,65.809 12.1557,66.036 12.4777,66.339 C12.7997,66.643 13.1187,66.87 13.2157,66.864 C13.4237,66.853 14.0357,67.687 14.0537,68.008 C14.0607,68.14 14.2587,68.582 14.4827,68.966 C15.0357,69.917 15.0507,70.615 14.5547,72.456 C14.1827,73.837 14.0587,74.058 13.3107,74.66 C12.8587,75.023 12.1847,75.46 11.8337,75.616 C10.7647,76.091 7.9067,76.125 7.3987,75.669 C7.3027,75.584 7.0867,75.514 6.9367,75.519 C6.3087,75.538 4.7077,73.024 4.6407,71.913 C4.6297,71.732 4.4787,71.355 4.2917,71.045 C3.8087,70.241 3.7397,69.509 4.0457,68.415" id="Fill-6" fill="#E5555D"></path>
                <path d="M8.4949,55.9843 C8.6849,54.8403 8.9109,54.1723 9.2859,53.6453 C9.5809,53.2323 9.8069,52.8213 9.8009,52.7103 C9.7949,52.5973 9.8709,52.5073 9.9779,52.5023 C10.0809,52.4963 10.1609,52.3973 10.1549,52.2843 C10.1259,51.7563 11.2019,51.0733 12.9089,50.5363 C14.9879,49.8813 15.3219,49.8623 16.3539,50.3363 C16.8779,50.5763 17.4439,50.7633 17.6149,50.7543 C17.7849,50.7453 18.2979,50.9783 18.7489,51.2713 C19.8929,52.0143 19.9089,52.7793 18.8079,54.0113 C18.2629,54.6213 17.5609,54.7083 16.2189,54.3353 C15.1439,54.0373 14.1039,54.1963 13.4659,54.7573 C12.5839,55.5333 12.5169,57.9513 13.3379,59.4543 C13.7079,60.1333 14.9269,61.3043 15.7459,61.7683 C16.0339,61.9313 16.7439,62.4043 17.3139,62.8113 C17.8849,63.2183 18.4379,63.5513 18.5359,63.5463 C18.6339,63.5413 18.7359,63.9133 18.7609,64.3643 C18.8059,65.1553 18.7769,65.2053 18.1419,65.4583 C16.4579,66.1293 13.3919,65.2893 11.3909,63.6083 C11.2519,63.4923 11.0549,63.3963 10.9639,63.4013 C10.8699,63.4073 10.4369,63.1163 10.0019,62.7563 C9.3749,62.2373 9.1559,61.8973 8.9469,61.1153 C8.8039,60.5763 8.6159,60.1323 8.5339,60.1373 C8.2469,60.1533 8.2239,57.6243 8.4949,55.9843" id="Fill-8" fill="#E5555D"></path>
                <path d="M6.9461,30.7939 C7.0061,30.7159 7.0021,26.4089 6.9411,25.2609 C6.9141,24.7329 6.9481,23.9829 7.0191,23.5569 C7.0891,23.1369 7.1721,22.2819 7.2021,21.6569 C7.3191,19.2899 7.3711,18.8009 7.5261,18.6169 C7.6081,18.5209 7.6691,18.2789 7.6591,18.0909 C7.6481,17.9029 7.7941,17.3939 7.9741,16.9869 C8.1601,16.5709 8.3761,15.8129 8.4571,15.2979 C8.5371,14.7829 8.7581,14.1779 8.9481,13.9479 C9.1451,13.7109 9.2891,13.4519 9.2831,13.3449 C9.2771,13.2409 9.4621,12.6739 9.6891,12.0939 C10.1441,10.9359 10.7591,10.1849 11.5781,9.7909 C11.8531,9.6579 12.0871,9.4339 12.0801,9.3079 C12.0721,9.1729 12.2011,8.9389 12.3801,8.7619 C12.5551,8.5879 13.0861,8.0509 13.5871,7.5399 C16.0171,5.0609 17.4731,4.0349 18.7121,3.9309 C20.0651,3.8169 20.3651,3.7669 20.4501,3.6369 C20.6611,3.3159 23.0991,2.6909 24.7341,2.5389 C25.7121,2.4479 26.7051,2.3159 26.9271,2.2469 C27.1541,2.1769 27.7651,2.1889 28.2991,2.2739 C28.8331,2.3589 29.6231,2.4299 30.0741,2.4319 C31.1131,2.4359 32.1041,2.6139 32.1151,2.7979 C32.1201,2.8819 32.3991,2.9829 32.7421,3.0269 C33.0841,3.0709 33.6061,3.2189 33.9121,3.3579 C34.2221,3.5009 34.6731,3.6369 34.9401,3.6699 C35.2061,3.7019 35.5151,3.8019 35.6411,3.8959 C35.7671,3.9869 36.1761,4.1709 36.5621,4.3069 C37.2561,4.5509 37.2561,4.5509 37.9511,3.8189 C38.5731,3.1659 39.2681,2.7169 41.0321,1.8299 C41.3391,1.6759 41.9511,1.3629 42.4101,1.1279 C43.6581,0.4859 43.8751,0.4159 45.0821,0.2639 C45.6811,0.1889 46.2551,0.0779 46.3341,0.0229 C46.4141,-0.0341 46.8051,0.0229 47.2101,0.1499 C48.5471,0.5739 49.4481,0.6699 51.9211,0.6499 C53.2801,0.6399 55.0981,0.7599 55.9971,0.9189 C56.8931,1.0779 58.2161,1.3129 58.9541,1.4429 C60.7181,1.7559 65.4141,3.8299 68.1511,5.5049 C68.5181,5.7299 69.0091,5.9789 70.1141,6.4989 C71.0071,6.9199 72.8291,8.1889 73.1001,8.5779 C73.1911,8.7079 73.3871,8.8079 73.5391,8.7989 C73.6891,8.7899 73.8161,8.8679 73.8221,8.9719 C73.8351,9.1949 74.5751,9.9869 75.9841,11.2879 C76.5631,11.8219 77.0281,12.2789 77.0301,12.3149 C77.0321,12.3519 77.5501,12.8399 78.1861,13.4029 C78.8221,13.9669 79.5581,14.7089 79.8281,15.0589 C80.0921,15.4029 80.3711,15.7359 80.4341,15.7879 C80.6091,15.9279 81.7461,17.2939 81.8561,17.4949 C81.9121,17.5979 82.3691,18.2409 82.8861,18.9489 C83.4051,19.6569 83.9511,20.5879 84.1191,21.0529 C84.2861,21.5159 84.4961,21.9609 84.5901,22.0559 C84.6851,22.1499 84.7651,22.3289 84.7731,22.4609 C84.7801,22.5899 85.0141,23.1369 85.2911,23.6689 C87.1751,27.3039 87.2611,27.5589 87.8251,31.1399 C87.9071,31.6629 88.0691,32.2439 88.1921,32.4599 C88.3251,32.6929 88.3981,33.4679 88.3781,34.4329 C88.3591,35.3029 88.3591,37.0019 88.3801,38.1909 C88.3991,39.3799 88.3411,40.5579 88.2511,40.7949 C88.1631,41.0259 88.0131,41.4319 87.9301,41.6629 C87.8451,41.9009 87.7111,42.6099 87.6321,43.2379 C87.5511,43.8649 87.4231,44.5949 87.3431,44.8589 C87.2651,45.1219 87.1851,45.7939 87.1681,46.3429 C87.1281,47.5339 86.7581,48.2479 86.0201,48.5559 C85.7241,48.6789 85.4891,48.8459 85.4931,48.9289 C85.4981,49.0109 85.2711,49.1869 84.9951,49.3149 C84.7191,49.4439 84.3651,49.6349 84.2171,49.7349 C82.9971,50.5589 82.0031,50.5599 81.1401,49.7379 C80.8221,49.4349 80.5021,49.2069 80.4001,49.2129 C80.3041,49.2179 80.2141,49.0909 80.2061,48.9399 C80.1971,48.7899 80.1151,48.6619 80.0301,48.6669 C79.9421,48.6719 79.7341,48.3239 79.5711,47.8989 C79.1931,46.9169 77.8411,44.6339 76.8861,43.3639 C76.7001,43.1169 76.4171,42.6829 76.2621,42.4079 C76.1081,42.1329 75.8111,41.7459 75.6101,41.5569 C75.4021,41.3599 75.2391,41.1639 75.2361,41.1059 C75.2321,41.0479 74.8681,40.5779 74.4221,40.0559 C73.9751,39.5319 73.6081,39.0119 73.6011,38.8929 C73.5951,38.7789 73.5101,38.6479 73.4251,38.6179 C73.3361,38.5869 72.7491,37.9579 72.1201,37.2189 C71.4911,36.4789 70.7301,35.6299 70.4281,35.3289 C70.1281,35.0319 69.4651,34.3349 68.9671,33.7959 C67.3291,32.0179 62.1021,27.4899 61.1151,26.9929 C60.7481,26.8089 60.7881,27.0369 61.3921,28.5899 C62.3991,31.1779 62.9211,35.0409 62.4171,36.1819 C62.2711,36.5119 62.0301,36.8919 61.8821,37.0239 C61.7381,37.1529 61.6181,37.3799 61.6261,37.5109 C61.6411,37.7929 60.5631,38.1049 59.3951,38.1549 C58.7731,38.1829 58.1591,38.0049 57.0921,37.4889 C56.2961,37.1059 55.4561,36.6389 55.2401,36.4589 C55.0171,36.2749 54.5711,35.9899 54.2211,35.8079 C53.8791,35.6299 53.1141,35.0909 52.5201,34.6089 C51.9221,34.1229 50.8921,33.3479 50.2041,32.8629 C48.9261,31.9649 48.1791,31.4179 47.7821,31.0899 C47.6621,30.9899 46.8181,30.4059 45.8961,29.7839 C44.9731,29.1619 44.1951,28.5979 44.1541,28.5219 C44.1101,28.4399 44.0121,28.3879 43.9111,28.3939 C43.8171,28.3979 43.7711,28.9299 43.8071,29.5889 C43.9571,32.2629 43.1261,34.1099 41.3381,35.0809 C39.9151,35.8529 38.7191,35.8939 37.1901,35.2239 C36.7251,35.0199 36.3601,34.8959 36.3621,34.9429 C36.3651,34.9899 35.7671,34.7689 35.0321,34.4509 C34.2971,34.1329 33.6371,33.8769 33.5641,33.8809 C33.3831,33.8909 31.4851,33.1719 30.5541,32.7399 C30.1581,32.5569 29.4361,32.3369 28.9401,32.2499 C28.0821,32.0989 28.0201,32.1179 27.4921,32.6989 C27.1901,33.0319 26.8731,33.3099 26.7901,33.3149 C26.7091,33.3179 26.6461,33.4359 26.6531,33.5669 C26.6611,33.7009 26.4331,34.2319 26.1521,34.7379 C25.8701,35.2449 25.6431,35.7869 25.6521,35.9369 C25.6611,36.0879 25.5991,36.2139 25.5161,36.2189 C25.4341,36.2229 25.1951,36.6899 24.9891,37.2489 C24.3841,38.8879 24.2581,39.1909 23.9621,39.7049 C23.8061,39.9729 23.4331,40.8869 23.1331,41.7339 C22.8321,42.5819 22.4461,43.5089 22.2751,43.7929 C22.0981,44.0869 21.9681,44.3929 21.9741,44.4999 C21.9801,44.6059 21.7531,44.9649 21.4541,45.3219 C21.1551,45.6789 20.9241,45.9889 20.9261,46.0309 C20.9401,46.2769 19.8211,47.2019 18.9401,47.6709 C17.4911,48.4419 16.1201,48.5429 14.9901,47.9589 C14.5041,47.7069 13.7311,47.4099 13.2531,47.2899 C12.7741,47.1699 12.1261,46.8369 11.7951,46.5399 C11.0191,45.8469 9.8801,44.3739 9.8611,44.0419 C9.8521,43.8909 9.7481,43.6899 9.6181,43.5729 C9.4881,43.4579 9.3541,43.1829 9.3081,42.9399 C9.2641,42.7039 8.9651,41.6929 8.6481,40.7099 C8.0481,38.8479 7.6021,36.5189 7.4401,34.3929 C7.3881,33.7159 7.3001,33.0379 7.2391,32.8739 C7.1181,32.5409 6.8841,30.8769 6.9461,30.7939" id="Fill-10" fill="#E5555D"></path>
                <path d="M19.3446,67.8828 C19.5416,67.6458 19.6856,67.3948 19.6806,67.2978 C19.6656,67.0498 20.9156,66.4358 21.4996,66.4038 C22.5356,66.3448 23.3756,66.7898 23.6596,67.5478 C24.0066,68.4728 25.1306,70.5098 25.3626,70.6348 C25.4556,70.6858 25.5446,70.8618 25.5536,71.0118 C25.5756,71.4258 26.7556,72.9278 27.9126,74.0158 C29.4466,75.4578 32.0036,77.2848 33.6956,78.1478 C34.1806,78.3948 34.7406,78.7348 34.9556,78.9108 C35.1736,79.0908 35.4366,79.2248 35.5586,79.2178 C35.6746,79.2108 36.0106,79.3708 36.2856,79.5648 C36.5646,79.7598 37.0846,80.0038 37.4296,80.1008 C38.1016,80.2878 38.5536,80.6058 38.5706,80.9018 C38.5746,80.9928 38.9566,81.5878 39.4076,82.2048 C39.9506,82.9488 40.3246,83.2978 40.4936,83.2208 C40.6496,83.1498 41.1096,83.4798 41.6546,84.0528 C42.4836,84.9258 42.7206,85.0518 44.5446,85.5818 C45.6386,85.9018 46.6666,86.1538 46.8326,86.1448 C47.0016,86.1348 47.1726,86.2248 47.2216,86.3498 C47.2716,86.4738 47.7256,86.5758 48.2546,86.5818 C50.6556,86.6108 51.0796,86.5318 52.2746,85.8388 L53.0606,85.3818 L52.3496,84.8168 C51.4596,84.1118 51.2506,83.5718 51.6166,82.9308 L51.8966,82.4438 L54.3876,82.4178 C55.7656,82.4038 57.6386,82.3878 58.5786,82.3828 C59.6146,82.3768 61.0806,82.2138 62.3326,81.9658 C63.4726,81.7388 64.6386,81.5228 64.9496,81.4778 C65.8676,81.3458 68.0096,80.4638 67.9956,80.2238 C67.9926,80.1618 68.3356,80.0438 68.7466,79.9648 C69.2136,79.8738 69.6806,79.6208 69.9656,79.3018 C70.2146,79.0238 70.5456,78.7788 70.6826,78.7708 C70.8146,78.7638 70.9326,78.6748 70.9276,78.5868 C70.9216,78.4948 71.1976,78.3458 71.5326,78.2588 C72.1276,78.1048 73.1206,77.2918 73.1036,76.9738 C73.0986,76.8888 73.2596,76.6248 73.4746,76.3668 C74.3906,75.2668 74.9866,74.1868 75.4846,72.7238 C76.0806,70.9718 76.3236,70.6508 77.3036,70.3188 C77.8406,70.1358 78.0836,70.1518 78.5546,70.3998 C78.8856,70.5728 79.1986,70.7928 79.2776,70.9058 C79.6446,71.4338 79.4076,75.0728 79.0046,75.0958 C78.9246,75.1008 78.8626,75.2368 78.8696,75.3868 C78.8786,75.5418 78.7256,75.8478 78.5306,76.0668 C78.3346,76.2848 78.1776,76.5158 78.1816,76.5768 C78.1956,76.8218 77.0596,78.2268 76.8386,78.2378 C76.6996,78.2458 76.4986,78.4748 76.3766,78.7648 C76.2536,79.0548 76.0176,79.3758 75.8316,79.5038 C75.6526,79.6278 75.0496,80.2018 74.4956,80.7778 C73.9426,81.3528 73.3856,81.8308 73.2616,81.8378 C73.1296,81.8448 73.0116,81.9148 72.9776,82.0048 C72.8846,82.2478 70.9266,83.6678 70.6626,83.6828 C70.5176,83.6908 69.9386,83.8858 69.3656,84.1188 C67.6296,84.8278 66.3216,85.2888 65.7356,85.3968 C65.4206,85.4538 64.7646,85.6038 64.2426,85.7368 C61.5246,86.4308 57.0606,86.3728 55.2836,85.6218 C54.9356,85.4748 54.8096,85.4948 54.7036,85.7148 C54.6276,85.8718 54.3976,86.2138 54.1806,86.4898 C53.9626,86.7668 53.7436,87.0778 53.6816,87.1978 C53.6196,87.3168 53.0456,87.8198 52.3946,88.3268 C51.4556,89.0568 50.9566,89.3038 49.9306,89.5428 C48.0846,89.9738 46.2536,89.7878 45.3536,89.0798 C44.8066,88.6508 42.2206,88.1128 41.4746,88.2748 C41.1386,88.3468 40.7476,88.3068 40.5816,88.1838 C40.3366,88.0008 40.1776,88.0468 39.6526,88.4518 C39.3086,88.7178 39.0226,89.0098 39.0276,89.0918 C39.0396,89.3288 37.8486,89.3068 37.3066,89.0588 C36.8606,88.8558 36.7296,88.8618 36.4206,89.1018 C35.9106,89.4988 34.9096,91.0768 34.3696,92.3348 C34.1196,92.9158 33.8726,93.4248 33.8136,93.4808 C33.5306,93.7448 32.2946,97.0778 32.3196,97.5118 C32.3276,97.6778 32.1836,98.0948 31.9926,98.4448 C31.8036,98.7958 31.6596,99.2378 31.6706,99.4368 C31.6816,99.6238 31.6086,99.8298 31.5156,99.8698 C31.4176,99.9118 31.2646,100.3648 31.1666,100.8998 C31.0706,101.4338 30.8906,102.1338 30.7596,102.4898 C30.3696,103.5508 30.0866,104.8928 30.1206,105.5098 C30.1386,105.8298 30.0856,106.3448 30.0046,106.6498 C29.9236,106.9538 29.7736,108.0228 29.6736,109.0098 C29.5736,109.9978 29.4066,111.5888 29.3026,112.5248 C29.1986,113.4748 29.0966,114.5718 29.0726,114.9928 C29.0486,115.4098 28.9886,115.8808 28.9386,116.0388 C28.8656,116.2688 28.9076,121.1208 29.0036,123.4018 C29.0836,125.3228 29.7316,131.5138 29.9076,132.0388 C30.0266,132.3948 30.1476,133.0928 30.1746,133.5828 C30.2016,134.0758 30.4286,135.2488 30.6796,136.1978 C30.9306,137.1478 31.2686,138.5058 31.4326,139.2258 C32.0556,141.9478 32.6406,144.0398 33.3306,146.0138 C34.4196,149.1258 34.7096,150.0508 34.7806,150.6358 C34.8286,151.0388 34.8886,151.0558 35.6726,150.8888 C36.1396,150.7888 36.6826,150.5908 36.8946,150.4428 C37.0996,150.2988 37.6126,150.1048 38.0036,150.0218 C38.3966,149.9388 38.9866,149.7278 39.2816,149.5638 C39.5936,149.3908 40.0336,149.2188 40.2986,149.1668 C40.5596,149.1148 40.9646,148.9308 41.2196,148.7468 C41.4686,148.5678 42.1786,148.3338 42.7956,148.2308 C44.0126,148.0258 44.8946,147.7478 45.8026,147.2848 C46.1266,147.1198 46.8776,146.9168 47.4776,146.8318 C49.2396,146.5828 51.4596,146.1108 51.4526,145.9858 C51.4466,145.8618 50.8476,144.2818 50.5636,143.6368 C50.2916,143.0208 49.7036,141.8528 49.1776,140.8808 C48.8996,140.3668 48.5646,139.5758 48.4146,139.0818 C48.2696,138.5988 48.0796,138.2028 47.9976,138.2078 C47.9136,138.2128 47.7896,137.9928 47.7176,137.7138 C47.3736,136.3728 47.2496,136.0208 46.8526,135.2498 C46.6156,134.7908 46.3836,134.1738 46.3296,133.8618 C46.2766,133.5538 45.9926,132.2948 45.7006,131.0648 C45.4086,129.8338 45.1176,128.4898 45.0536,128.0778 C44.9886,127.6618 44.8556,126.9558 44.7536,126.4898 C44.5256,125.4348 44.2926,121.4728 44.2846,118.4888 C44.2816,117.2418 44.2506,115.5618 44.2156,114.7528 C44.1546,113.3208 44.1696,113.2648 44.7926,112.5678 C45.4076,111.8798 45.4706,111.8548 46.3996,111.9148 C47.9276,112.0148 47.9366,112.0338 48.0936,115.7648 C48.1686,117.5548 48.1926,119.0748 48.1466,119.1608 C47.9976,119.4338 47.9996,121.9478 48.1486,122.1638 C48.2246,122.2758 48.3426,123.0408 48.4126,123.8868 C48.5766,125.8508 49.0646,128.4968 49.6756,130.7478 C49.9376,131.7158 50.2676,132.9378 50.4056,133.4458 C50.5406,133.9538 50.8776,134.8368 51.1456,135.3888 C51.4186,135.9508 51.8136,136.8708 52.0356,137.4638 C52.2576,138.0558 52.5016,138.5238 52.5856,138.5188 C52.6706,138.5138 52.7496,138.7548 52.7676,139.0748 C52.7856,139.3958 52.8686,139.6358 52.9596,139.6308 C53.0456,139.6258 53.2816,140.0278 53.4726,140.5088 C54.8236,143.9088 55.6066,145.7658 55.8916,146.2478 C56.4096,147.1258 56.3566,147.8318 55.7256,148.4268 C55.4206,148.7148 54.9606,148.9628 54.7076,148.9778 C54.4476,148.9918 54.0086,149.1408 53.6986,149.3208 C53.1986,149.6118 52.6636,149.7418 49.2446,150.4138 C48.5726,150.5458 47.7576,150.7518 47.4196,150.8758 C47.0866,150.9968 46.6826,151.0588 46.5306,151.0108 C46.3756,150.9618 46.2556,151.0058 46.2616,151.1108 C46.2736,151.3158 45.8876,151.5058 45.0486,151.7078 C44.7696,151.7758 44.3906,151.9218 44.1986,152.0368 C44.0086,152.1518 43.6606,152.2338 43.4336,152.2178 C42.7506,152.1718 41.1836,153.2958 40.9846,153.9728 C40.7576,154.7408 41.0636,156.6728 41.5196,157.3618 C41.7246,157.6718 41.8496,157.9998 41.8086,158.1198 C41.7676,158.2368 42.0066,158.5908 42.3436,158.9118 C42.6806,159.2338 42.9526,159.5258 42.9556,159.5678 C42.9646,159.7308 44.0476,160.5158 44.2546,160.5088 C44.3706,160.5058 44.6636,160.6988 44.9216,160.9488 C45.2556,161.2748 45.5786,161.3848 46.1056,161.3558 C46.5006,161.3338 46.8356,161.4018 46.8406,161.5038 C46.8476,161.6118 46.9366,161.6878 47.0496,161.6808 C47.1566,161.6748 47.8176,161.9058 48.4936,162.1858 C49.2866,162.5138 50.0716,162.6958 50.6466,162.6848 C51.8726,162.6598 52.4876,163.0528 52.8566,164.0958 C53.0206,164.5588 53.2186,164.9258 53.3026,164.9208 C53.5826,164.9048 53.5166,166.0988 53.1986,166.7968 C53.0246,167.1758 52.8016,168.0368 52.7086,168.6848 C52.5686,169.6738 52.4256,169.9898 51.8606,170.5638 C51.0556,171.3788 50.2886,171.5198 49.7136,170.9568 C49.3906,170.6408 49.3106,170.2618 49.1996,168.5298 C49.0426,166.0648 48.9056,165.8618 47.4266,165.9118 C46.8616,165.9318 46.4086,165.8518 46.3586,165.7238 C46.3126,165.6068 46.1016,165.5108 45.9126,165.5218 C45.7246,165.5318 45.5506,165.4658 45.5466,165.3818 C45.5416,165.2938 45.2956,165.1148 45.0046,164.9868 C44.7146,164.8588 44.3836,164.6928 44.2766,164.6208 C44.1686,164.5498 43.3776,164.0818 42.5186,163.5818 C39.6886,161.9348 38.0816,160.2298 38.0016,158.7848 C37.9836,158.4658 37.8396,158.0218 37.6826,157.8028 C37.5256,157.5828 37.2526,156.8348 37.0796,156.1458 C36.8236,155.1208 36.6986,154.8918 36.4066,154.9078 C35.9166,154.9358 34.8846,154.4458 34.4806,153.9958 C34.0966,153.5688 33.9826,152.6638 34.2166,151.9138 C34.3696,151.4228 34.3506,151.4028 33.8666,151.5368 C33.4306,151.6578 33.2236,151.5538 32.4506,150.8218 C31.6216,150.0378 30.2176,147.9008 30.1886,147.3788 C30.1816,147.2488 30.0886,146.9878 29.9906,146.8228 C29.5956,146.1538 29.1046,144.9848 28.8446,144.0918 C28.6936,143.5708 28.4596,142.9608 28.3136,142.7048 C28.1696,142.4548 27.8876,141.6138 27.6906,140.8508 C27.4926,140.0878 27.1646,138.9668 26.9666,138.3788 C26.7316,137.6798 26.5736,136.6258 26.5156,135.3628 C26.4656,134.2898 26.3286,133.2648 26.2076,133.0678 C26.0866,132.8698 25.9426,131.7878 25.8836,130.6398 C25.8246,129.4898 25.6616,128.2208 25.5176,127.7888 C25.3496,127.2878 25.3046,126.7848 25.3916,126.3788 C25.4656,126.0318 25.4626,125.1668 25.3856,124.4528 C25.2336,123.0478 25.2696,118.6228 25.4536,116.1388 C25.5166,115.3048 25.6056,114.0248 25.6526,113.2948 C25.7836,111.2478 26.2906,107.8258 26.6126,106.8198 C26.6786,106.6108 26.8176,105.9578 26.9166,105.3858 C27.2986,103.1938 28.4756,99.1908 29.1186,97.8978 C29.2016,97.7328 29.3526,97.3558 29.4676,97.0278 C29.7386,96.2578 30.3276,94.9238 30.4486,94.8058 C30.5076,94.7488 30.6616,94.4868 30.7856,94.2348 C30.9096,93.9818 31.1676,93.4578 31.3506,93.0888 C32.4906,90.7778 33.7946,89.0768 35.1576,88.1248 C35.5756,87.8318 36.0356,87.3148 36.2056,86.9448 C36.3706,86.5868 36.7736,85.9688 37.0866,85.5918 C37.6756,84.8858 37.7196,84.7258 37.6016,83.7318 C37.5186,83.0368 37.5186,83.0368 36.5756,83.0788 C36.1236,83.0998 35.6796,83.0628 35.5706,82.9948 C35.4626,82.9278 34.8576,82.7448 34.2256,82.5878 C33.5936,82.4308 32.7266,82.1268 32.2996,81.9108 C31.8746,81.6978 30.6226,81.1428 29.5396,80.6868 C28.4566,80.2318 27.5526,79.7678 27.5466,79.6648 C27.5406,79.5618 27.4426,79.4818 27.3286,79.4878 C27.2156,79.4938 26.5206,78.9568 25.7896,78.2988 C25.0596,77.6408 24.3326,77.0078 24.1816,76.8998 C23.2166,76.2028 21.9876,74.7798 21.3226,73.5898 C20.1846,71.5568 19.8816,70.9198 19.8596,70.5178 C19.8476,70.3108 19.7766,70.0848 19.6986,70.0168 C19.6246,69.9488 19.5176,69.6678 19.4666,69.4058 C19.4166,69.1448 19.2866,68.7768 19.1866,68.6098 C19.0526,68.3878 19.0976,68.1798 19.3446,67.8828" id="Fill-12" fill="#E5555D"></path>
                <path d="M109.9256,202.3525 C109.8166,202.1705 109.7096,201.7045 109.6886,201.3085 C109.6336,200.3385 109.9626,200.1355 111.3676,200.2705 C112.1466,200.3445 112.5626,200.3075 112.7306,200.1475 C112.8566,200.0275 113.0216,199.9865 113.0746,200.0615 C113.1316,200.1415 114.8526,200.1025 116.9046,199.9735 C121.9676,199.6575 124.8296,199.2915 126.1306,198.7985 C126.9266,198.4975 127.2926,198.6405 127.3276,199.2675 C127.3666,199.9705 127.7386,200.8115 128.8936,202.8065 C129.4436,203.7575 129.8916,204.5845 129.895646,204.6585 C129.9046,204.8405 128.5896,205.2975 127.9496,205.3325 C127.6666,205.3485 127.3126,205.5325 127.1516,205.7465 C126.9026,206.0755 126.4296,206.1845 123.8606,206.5045 C119.0956,207.0985 118.2666,207.1575 117.6326,206.9455 C117.3136,206.8385 116.4336,206.7675 115.6596,206.7865 C113.6796,206.8325 113.4216,206.8515 112.4046,207.0235 C111.5636,207.1655 111.4936,207.1465 111.3026,206.7145 C111.1876,206.4565 111.0876,206.0875 111.0756,205.8765 C111.0646,205.6735 110.8816,205.1895 110.6776,204.8235 C110.4736,204.4575 110.2586,203.8075 110.2116,203.4135 C110.1636,203.0195 110.0316,202.5305 109.9256,202.3525 M89.4826,170.5435 C89.1116,170.3065 88.4716,169.8575 88.0376,169.5285 L87.2586,168.9395 L87.9536,168.3625 C88.3326,168.0475 88.9156,167.5685 89.2366,167.3085 C89.6686,166.9575 90.1516,166.7895 91.0706,166.6675 C91.7636,166.5775 92.6546,166.3975 93.0776,166.2635 C93.4996,166.1295 94.3816,165.9265 95.0546,165.8075 C97.3926,165.3935 100.6986,164.3365 101.6426,163.7035 C102.6246,163.0425 103.6506,162.2495 104.0866,161.8125 C104.4316,161.4655 104.8486,161.6505 105.7046,162.5285 C106.0536,162.8855 107.3816,164.1345 108.6816,165.3285 C111.9196,168.3005 113.2516,169.5565 113.6016,169.9635 C113.7696,170.1605 114.2996,170.7475 114.7646,171.2495 C115.2296,171.7525 115.6236,172.2695 115.6306,172.3815 C115.6366,172.4955 115.7276,172.5835 115.8296,172.5785 C115.9436,172.5725 116.0226,172.6435 116.0296,172.7555 C116.0346,172.8595 116.2906,173.1955 116.5966,173.4985 C117.1306,174.0305 118.1536,175.4525 118.4116,176.0235 C119.1546,177.6625 120.1906,179.5415 120.5306,179.8715 C120.7216,180.0545 121.0276,180.6185 121.1966,181.0995 C121.3716,181.5935 121.7796,182.5315 122.1166,183.2105 C122.4546,183.8905 122.7356,184.6335 122.7486,184.8845 C122.7626,185.1295 122.8566,185.4145 122.9536,185.5055 C123.0526,185.5995 123.1906,186.0125 123.2596,186.4235 C123.3306,186.8425 123.5336,187.5805 123.7216,188.0975 C123.9086,188.6165 124.1876,189.4315 124.3536,189.9515 C124.5206,190.4705 124.7226,191.0415 124.8136,191.2485 C124.9046,191.4545 125.0936,192.0255 125.2436,192.5455 C125.3956,193.0665 125.5606,193.6055 125.6206,193.7715 C125.7196,194.0455 125.2956,194.3185 124.5116,194.4845 C124.4116,194.5055 124.1966,194.5805 124.0486,194.6445 C123.3956,194.9285 119.8416,195.4085 118.5746,195.3835 C117.8186,195.3685 116.5746,195.3515 115.8246,195.3475 C115.0696,195.3425 114.3456,195.2775 114.2106,195.2015 C114.0756,195.1245 113.2236,195.0965 112.2996,195.1375 C111.1886,195.1865 110.5806,195.1355 110.4786,194.9845 C110.3916,194.8565 110.2746,194.7655 110.2116,194.7785 C109.0906,194.9895 108.8146,194.8655 108.2796,193.9075 C107.9846,193.3755 107.6176,192.5445 107.4516,192.0275 C107.2846,191.5075 107.0816,191.0535 106.9876,190.9955 C106.8966,190.9375 106.6966,190.3785 106.5406,189.7455 C106.3856,189.1125 106.2006,188.6025 106.1276,188.6065 C106.0546,188.6115 105.8756,188.3095 105.7216,187.9205 C105.5676,187.5335 105.2816,187.0385 105.0726,186.7955 C104.8706,186.5615 104.6896,186.1815 104.6776,185.9675 C104.6646,185.7465 104.4786,185.3745 104.2526,185.1235 C104.0276,184.8715 103.8396,184.4865 103.8256,184.2485 C103.8136,184.0235 103.6166,183.6605 103.4046,183.4695 C103.1866,183.2745 103.0056,183.0725 103.0026,183.0205 C102.9926,182.8505 100.8876,180.1155 100.7216,180.0565 C100.6416,180.0285 100.5626,179.8985 100.5556,179.7855 C100.5486,179.6685 100.3086,179.4125 100.0326,179.2295 C99.7586,179.0455 99.4356,178.7195 99.3326,178.5225 C98.8806,177.6525 97.0246,175.7255 95.8646,174.9225 C95.5896,174.7335 95.2636,174.3485 95.1566,174.0895 C95.0496,173.8285 94.6196,173.4265 94.2106,173.2075 C93.8026,172.9885 93.2016,172.6185 92.8906,172.3935 C92.5746,172.1655 91.8356,171.7555 91.2346,171.4755 C90.6326,171.1955 89.8516,170.7795 89.4826,170.5435 M30.6016,167.8865 C30.5416,169.6465 30.8406,172.9985 31.0756,173.2235 C31.1796,173.3245 31.2736,173.6095 31.2876,173.8735 C31.3176,174.3955 31.6476,175.3075 32.2196,176.4465 C32.4326,176.8695 32.6136,177.3455 32.6226,177.4995 C32.6316,177.6515 32.7266,177.7785 32.8266,177.7725 C32.9276,177.7665 33.0236,177.8935 33.0306,178.0435 C33.0396,178.1955 33.1346,178.3225 33.2356,178.3165 C33.3426,178.3105 33.4296,178.4185 33.4386,178.5695 C33.4556,178.8895 35.3926,180.6515 35.7066,180.6335 C35.8246,180.6265 36.1106,180.7665 36.3086,180.9285 C36.8226,181.3485 38.1126,182.0065 38.5046,182.0495 C38.6766,182.0675 38.9196,182.1275 39.0226,182.1765 C39.1276,182.2275 39.6936,182.3505 40.2656,182.4485 C40.8366,182.5445 41.5326,182.7015 41.7946,182.7915 C42.4746,183.0265 43.0566,183.0515 45.9596,182.9695 C48.3736,182.9015 50.3386,182.5385 50.6296,182.1065 C50.7846,181.8745 51.5036,181.4535 51.7676,181.4385 C51.8996,181.4305 52.2326,181.2945 52.4876,181.1435 C52.7456,180.9905 53.4686,180.7735 54.0676,180.6675 C54.6646,180.5625 55.4686,180.4055 55.8226,180.3245 C56.1776,180.2435 56.6256,180.1625 56.8046,180.1475 C56.9926,180.1305 57.1306,180.0625 57.1266,179.9875 C57.1156,179.7985 59.4586,179.1435 60.7716,178.9665 C61.6326,178.8515 62.3356,178.9095 63.6166,179.1985 C67.4816,180.0725 70.5856,180.2545 72.6946,179.7325 C74.4076,179.3085 76.5876,178.5255 76.7646,178.2695 C76.8636,178.1265 77.2216,177.9355 77.5746,177.8365 C77.9276,177.7385 78.2936,177.5805 78.4046,177.4795 C78.5126,177.3795 79.2376,176.8325 79.9996,176.2755 C80.7616,175.7175 81.9426,174.7905 82.5956,174.2325 C83.6966,173.2965 83.8236,173.2345 84.1406,173.4855 C84.3386,173.6415 84.5676,173.7545 84.6746,173.7485 C84.9766,173.7315 86.8076,174.5395 86.9566,174.7545 C87.0246,174.8515 87.2146,174.9285 87.3646,174.9205 C87.6486,174.9055 89.2426,175.7525 89.3606,175.9805 C89.4016,176.0605 89.5296,176.1225 89.6426,176.1165 C89.9246,176.1005 91.5436,177.3315 92.8816,178.5795 C93.4636,179.1225 94.4946,180.0765 95.1936,180.7165 C96.4926,181.9105 97.2086,182.7165 97.8286,183.6865 C98.0276,183.9975 98.3516,184.4695 98.5766,184.7785 C98.7966,185.0785 99.1266,185.6065 99.3136,185.9555 C99.4986,186.3035 99.8556,186.8355 100.1066,187.1385 C100.3596,187.4445 100.6966,188.0595 100.8626,188.5225 C101.0306,188.9855 101.2176,189.3945 101.2826,189.4435 C101.3476,189.4915 101.5296,189.8265 101.6826,190.1765 C101.8356,190.5275 102.0426,190.9905 102.1356,191.1905 C102.2316,191.3945 102.4706,191.9265 102.6746,192.3875 C102.8776,192.8455 103.2696,193.6485 103.5486,194.1805 C103.8896,194.8275 104.1096,195.6035 104.2186,196.5415 C104.3086,197.3115 104.5296,198.2415 104.7116,198.6115 C104.8976,198.9875 105.0486,199.6215 105.0576,200.0555 C105.0896,201.7155 105.9046,205.2355 106.3556,205.6675 C106.4556,205.7645 106.5566,206.0725 106.5736,206.3355 C106.6076,206.8435 107.0696,208.0895 107.3016,208.2965 C107.3786,208.3665 107.4506,208.6195 107.4646,208.8645 C107.4786,209.1095 107.5736,209.4505 107.6776,209.6265 C107.7836,209.8085 107.9796,210.1865 108.1266,210.4985 C108.5806,211.4565 109.0036,212.1175 109.5966,212.7965 C109.9096,213.1575 110.1796,213.5105 110.1826,213.5665 C110.1856,213.6235 110.3906,213.8675 110.6296,214.0985 C111.3286,214.7775 111.5926,215.0885 111.6106,215.2525 C111.6186,215.3355 112.0376,215.6755 112.5476,216.0125 C113.0576,216.3505 113.6346,216.7825 113.8386,216.9795 C114.0416,217.1765 114.3486,217.3375 114.5196,217.3385 C114.6896,217.3395 115.3096,217.4515 115.8836,217.5835 C116.5806,217.7455 117.4046,217.7755 118.3246,217.6755 C119.7516,217.5195 121.5206,217.0525 121.5086,216.8355 C121.5046,216.7645 121.8626,216.5805 122.2886,216.4335 C122.7146,216.2875 123.3286,216.0275 123.6266,215.8675 C124.0936,215.6175 124.3486,215.6045 125.3216,215.7825 C125.9506,215.8985 126.8896,215.9565 127.4056,215.9125 C127.9326,215.8665 128.7246,215.9105 129.2056,216.0095 C129.6836,216.1095 130.1496,216.1815 130.2536,216.1725 C132.1336,216.0125 134.2086,215.7065 134.4686,215.5485 C134.6596,215.4325 135.4746,215.2965 136.2836,215.2475 C137.0936,215.1965 138.3796,215.0055 139.1506,214.8225 C139.9136,214.6405 140.7376,214.5135 140.9666,214.5415 C141.2836,214.5815 141.4476,214.4585 141.6466,214.0325 C141.7906,213.7215 142.1166,213.2825 142.3756,213.0515 C143.0716,212.4305 143.4316,210.5335 143.1416,209.0185 C142.9086,207.8045 142.4226,207.0765 141.5246,206.5995 C141.2486,206.4535 140.7796,206.1135 140.4426,205.8165 C139.8996,205.3375 139.2086,205.0365 137.2866,204.4345 C136.9406,204.3265 136.6676,204.1675 136.6616,204.0735 C136.6566,203.9785 136.5486,203.9095 136.4166,203.9165 C136.2866,203.9235 135.6086,203.4695 134.8966,202.8975 C133.4736,201.7545 132.2076,199.8445 132.1386,198.7345 C132.1166,198.3955 132.0296,198.1175 131.9476,198.1225 C131.8656,198.1255 131.7866,197.9425 131.7746,197.7155 C131.7346,196.9815 131.2846,195.8825 130.8776,195.5185 C130.6786,195.3405 130.4946,195.0915 130.4896,194.9925 C130.4836,194.8795 130.4106,194.8075 130.3096,194.8135 C130.1046,194.8255 129.6436,193.3585 129.5976,192.5485 C129.5786,192.2095 129.4716,191.6955 129.3536,191.3735 C128.8686,190.0585 128.1846,187.5145 128.1506,186.9075 C128.1296,186.5485 128.0276,186.1015 127.9256,185.9275 C127.8226,185.7525 127.5186,184.9775 127.2546,184.2175 C126.9896,183.4585 126.6896,182.6625 126.5906,182.4605 C126.2896,181.8455 126.1456,181.4275 125.9886,180.7185 C125.9066,180.3455 125.7616,179.9715 125.6616,179.8775 C125.5606,179.7825 125.4716,179.5205 125.4576,179.2755 C125.4346,178.8425 125.1506,178.2915 124.6736,177.7515 C124.3236,177.3555 122.3266,173.8435 122.3106,173.5955 C122.3036,173.4855 122.1586,173.2905 122.0016,173.1785 C121.8406,173.0645 121.6946,172.7335 121.6786,172.4515 C121.6616,172.1675 121.4696,171.7885 121.2536,171.6155 C121.0356,171.4405 120.8536,171.2045 120.8466,171.0895 C120.8316,170.8155 120.1046,169.9775 119.1916,169.1805 C118.7746,168.8175 118.4336,168.4645 118.4296,168.3915 C118.4256,168.3175 118.2616,168.1085 118.0536,167.9125 C117.8486,167.7185 117.5556,167.3445 117.3936,167.0705 C117.2286,166.7925 116.8236,166.3565 116.4686,166.0745 C116.1156,165.7925 115.6086,165.2245 115.3206,164.7875 C115.0316,164.3505 114.5886,163.8785 114.3166,163.7195 C114.0516,163.5655 113.6696,163.1415 113.4816,162.7935 C113.2926,162.4455 113.0476,162.1565 112.9456,162.1625 C112.7336,162.1735 111.5236,161.3895 110.8676,160.8155 C110.6286,160.6065 110.0106,160.1785 109.5026,159.8715 C108.9946,159.5635 108.4566,159.2045 108.3166,159.0775 C108.1696,158.9475 107.8916,158.7445 107.6766,158.6125 C107.3036,158.3835 107.3106,158.3495 107.9786,157.0845 C108.3586,156.3655 108.6546,155.6645 108.6456,155.5075 C108.6376,155.3525 108.7936,155.1105 108.9926,154.9695 C109.2186,154.8105 109.3456,154.5155 109.3276,154.1955 C109.3126,153.9135 109.3646,153.5285 109.4436,153.3485 C109.8606,152.3995 110.4466,150.1175 110.4176,149.5545 C110.3836,148.8755 109.9846,146.6845 109.8386,146.3755 C109.7416,146.1705 109.5356,145.4295 109.3736,144.7025 C108.8036,142.1465 108.3436,141.4665 106.1746,139.9725 C105.7616,139.6895 105.3076,139.3555 105.1896,139.2495 C104.8326,138.9305 103.7696,138.4975 103.3926,138.5195 C103.2036,138.5305 102.9466,138.4435 102.8156,138.3255 C102.6826,138.2065 102.4246,138.0965 102.2346,138.0785 C100.8666,137.9445 100.0116,137.7115 99.5116,137.3385 C99.0276,136.9775 95.2776,136.2635 93.2306,136.1435 C92.6616,136.1105 92.0296,136.0465 91.8066,136.0015 C91.5856,135.9565 89.3066,136.0455 86.7456,136.1995 C82.5676,136.4485 82.0426,136.5145 81.6546,136.8355 C81.0576,137.3285 80.8566,137.8865 81.1026,138.3645 C81.3536,138.8535 81.8146,139.0415 83.4926,139.3405 C85.5536,139.7075 85.6526,139.7185 87.1586,139.7135 C89.0096,139.7085 90.0576,139.8225 90.3896,140.0635 C90.5306,140.1665 91.4176,140.2185 92.3786,140.1795 C93.8676,140.1185 94.8896,140.1605 96.0896,140.3295 C96.4536,140.3805 98.4396,141.1435 99.6026,141.6785 C100.0996,141.9085 100.9926,142.2335 101.5686,142.3945 C103.1806,142.8475 104.9856,144.0615 105.0226,144.7175 C105.0296,144.8495 105.1276,145.0445 105.2346,145.1405 C105.6966,145.5535 106.3386,148.0065 106.4346,149.7195 C106.5226,151.3015 106.4836,151.5725 106.0236,152.5195 C105.7406,153.1015 105.5216,153.6715 105.5296,153.8025 C105.5356,153.9345 105.4776,154.0715 105.3946,154.1125 C105.3146,154.1535 104.9936,154.6075 104.6856,155.1155 C104.3776,155.6235 104.0466,156.0475 103.9536,156.0525 C103.8586,156.0585 103.7446,156.2255 103.6926,156.4355 C103.6416,156.6415 102.9096,157.4815 102.0686,158.3015 C100.8856,159.4545 100.3636,159.8315 99.7806,159.9585 C99.3696,160.0485 98.9336,160.1865 98.8246,160.2595 C98.5976,160.4145 98.4776,160.4575 97.6956,160.6655 C97.3786,160.7505 97.0176,160.8665 96.8606,160.9325 C96.3846,161.1355 95.8766,161.2465 94.2476,161.4985 C92.6556,161.7475 91.8716,161.9035 91.1656,162.1155 C90.9616,162.1755 90.2236,162.3225 89.5306,162.4385 C88.8386,162.5545 88.1806,162.7705 88.0746,162.9155 C87.9736,163.0555 87.7126,163.1915 87.5246,163.2025 C87.3226,163.2125 86.9526,163.4695 86.6786,163.7875 C86.4026,164.1075 85.9546,164.5215 85.6466,164.7425 C85.3366,164.9625 85.0416,165.2375 84.9636,165.3745 C84.8866,165.5115 84.7266,165.6235 84.6006,165.6315 C84.4726,165.6385 84.2226,165.8695 84.0256,166.1645 C83.8356,166.4465 83.4566,166.9985 83.1956,167.3725 C82.9346,167.7455 82.7176,168.1205 82.7216,168.1915 C82.7356,168.4265 81.0466,170.3215 80.5886,170.5845 C80.3326,170.7325 79.9926,171.0465 79.8166,171.2995 C79.6386,171.5555 79.3246,171.8175 79.0946,171.9035 C78.7376,172.0375 78.4716,172.2405 77.4276,173.1745 C77.3216,173.2705 76.9156,173.4775 76.5466,173.6255 C76.1766,173.7745 75.8666,173.9645 75.8706,174.0405 C75.8746,174.1175 75.5206,174.3545 75.0966,174.5565 C74.6626,174.7645 73.9486,175.1445 73.4916,175.4115 C73.0346,175.6775 72.3956,175.9645 72.0546,176.0555 C71.1576,176.2965 67.9026,176.4385 65.5166,176.3395 C63.8316,176.2715 63.3756,176.1865 63.1256,175.8945 C62.6146,175.2975 60.3236,175.0135 57.5206,175.1995 C56.1656,175.2895 54.7006,175.4785 54.2386,175.6245 C53.7756,175.7715 53.2796,175.9165 53.1236,175.9515 C52.9746,175.9855 52.7586,176.0675 52.6616,176.1275 C52.5586,176.1935 52.2376,176.3125 51.9216,176.4045 C51.3086,176.5815 49.1336,177.5335 48.6766,177.8235 C48.3486,178.0315 47.5846,178.2225 46.1986,178.4445 C45.7126,178.5225 45.2256,178.6405 45.1366,178.7025 C44.9006,178.8675 42.8786,178.5155 42.8666,178.3085 C42.8626,178.2175 42.8066,178.1735 42.7296,178.1995 C42.4076,178.3025 40.2466,178.0525 39.6496,177.8425 C38.6866,177.5045 36.2826,175.2385 36.2106,174.5995 C36.1216,173.8115 36.1026,173.7505 35.7856,173.2635 C35.2106,172.3775 34.9276,171.1205 34.7936,168.8615 C34.7186,167.5995 34.7056,166.5305 34.7656,166.4635 C35.0506,166.1455 35.4836,164.1955 35.5286,163.0225 C35.5726,161.8675 35.5336,161.6925 35.1446,161.3245 C34.2946,160.5225 32.6266,160.7475 31.8086,161.7755 C31.5886,162.0515 31.4216,162.4525 31.4286,162.6835 C31.4366,162.9105 31.3676,163.1505 31.2796,163.2115 C31.1876,163.2755 31.0906,163.6375 31.0606,164.0365 C31.0296,164.4315 30.9266,165.1295 30.8266,165.6075 C30.7296,166.0775 30.6266,167.1105 30.6016,167.8865" id="Fill-14" fill="#E5555D"></path>
                <path d="M33.0487,53.1044 C33.1257,52.9464 33.2827,52.5724 33.3957,52.2824 C33.5087,51.9934 33.7557,51.7434 33.9417,51.7324 C34.1287,51.7224 34.3257,51.6314 34.3827,51.5284 C34.4387,51.4284 34.7977,51.1824 35.1647,50.9944 C35.5317,50.8044 35.9867,50.5594 36.1547,50.4584 C36.4257,50.2964 37.3767,50.3534 38.8267,50.6194 C39.3997,50.7234 40.3407,51.6804 40.3687,52.1864 C40.3787,52.3564 40.4707,52.5334 40.5807,52.5924 C40.9157,52.7724 40.8767,54.4064 40.5167,55.2754 C40.3237,55.7404 39.9167,56.3924 39.5947,56.7524 C39.2747,57.1114 38.9447,57.5544 38.8557,57.7484 C38.6987,58.0854 37.6157,58.3754 36.1487,58.4724 C35.4017,58.5224 34.7007,58.0744 34.0737,57.1454 C33.8907,56.8734 33.6427,56.6604 33.5177,56.6674 C33.1047,56.6904 32.7227,53.7844 33.0487,53.1044" id="Fill-17" fill="#E5555D"></path>
                <path d="M35.7293,45.0224 C35.9953,44.4894 36.4513,44.2384 37.6443,43.9644 C38.3333,43.8074 38.6043,43.8394 39.1653,44.1434 C40.2163,44.7144 40.5833,44.9044 41.0513,45.1204 C41.3033,45.2354 41.5043,45.4594 41.5143,45.6344 C41.5243,45.8044 41.6313,46.0344 41.7503,46.1414 C42.0643,46.4214 42.1263,47.5934 41.8473,47.9674 C41.5333,48.3904 40.5743,48.4184 39.6463,48.0314 C39.2293,47.8574 38.3723,47.7084 37.7293,47.6974 C36.8973,47.6824 36.4433,47.5734 36.1303,47.3124 C35.5933,46.8634 35.3903,45.7024 35.7293,45.0224" id="Fill-19" fill="#E5555D"></path>
                <path d="M44.0282,71.0371 C44.4962,70.3391 45.5042,69.9751 46.2882,69.9321 C46.9122,69.8961 48.5212,71.2051 48.7462,71.9291 C48.8692,72.3261 49.0142,72.4241 49.4472,72.3991 C49.7492,72.3831 50.1722,72.5281 50.3912,72.7241 C50.9112,73.1891 51.7492,73.0241 53.2492,72.1601 C53.4142,72.0651 53.6622,71.9751 53.7772,71.9701 C53.8972,71.9631 54.1362,71.8131 54.3152,71.6341 C54.7992,71.1491 56.6512,70.9351 57.1112,71.3111 C57.5872,71.6991 57.6792,73.1401 57.2542,73.5201 C56.7862,73.9391 56.1802,74.2911 55.9002,74.3071 C55.7572,74.3141 55.4372,74.4881 55.2032,74.6851 C54.9642,74.8871 54.2352,75.2661 53.5712,75.5361 C50.6922,76.7051 47.9522,75.5961 45.5682,73.9291 C44.8562,73.4311 43.8582,72.9951 43.7752,72.0311 C43.7422,71.6461 43.8422,71.3151 44.0282,71.0371" id="Fill-21" fill="#E5555D"></path>
                <path d="M54.5672,163.1318 C55.1422,162.1738 56.2972,161.7708 57.1742,162.2198 C57.6602,162.4688 57.7752,162.6598 57.8612,163.3548 C57.9172,163.8048 58.0382,164.2718 58.1252,164.3688 C58.5072,164.7978 58.2002,168.0708 57.7462,168.3998 C57.6262,168.4858 57.4462,168.7318 57.3462,168.9448 C57.0252,169.6308 56.3372,169.8978 55.5862,169.6278 C54.9492,169.3998 54.2632,168.4558 54.4632,168.0858 C54.6642,167.7158 54.6622,165.8248 54.4612,165.7168 C54.0542,165.4958 54.1212,163.8738 54.5672,163.1318" id="Fill-23" fill="#E5555D"></path>
                <path d="M50.1004,65.6015 C50.4304,64.8505 50.6424,64.7085 51.4544,64.6975 C53.0394,64.6745 53.7274,65.7855 52.8554,66.9585 C52.2784,67.7365 51.2614,68.0085 50.4834,67.5955 C49.9814,67.3305 49.8814,67.1715 49.8924,66.6615 C49.8994,66.3215 49.9934,65.8485 50.1004,65.6015" id="Fill-25" fill="#E5555D"></path>
                <path d="M56.286,150.6826 C56.717,150.2766 56.982,150.1646 57.348,150.2376 C57.616,150.2896 58.233,150.3736 58.726,150.4246 C59.221,150.4756 59.778,150.6386 59.974,150.7896 C60.172,150.9416 60.479,151.1046 60.666,151.1576 C60.857,151.2106 61.007,151.3366 61.013,151.4496 C61.018,151.5606 61.155,151.6396 61.325,151.6296 C61.937,151.5956 65.776,154.7826 66.059,155.5596 C66.146,155.7996 66.323,156.1026 66.465,156.2546 C66.9,156.7216 67.763,158.3166 68.052,159.1876 C68.205,159.6516 68.466,160.2996 68.638,160.6476 C69.057,161.4966 69.265,163.8986 69.01,164.9706 C68.778,165.9476 68.429,166.4476 67.672,166.8896 C67.215,167.1576 67.101,167.1586 66.615,166.9026 C66.006,166.5816 65.839,166.0536 65.532,163.4836 C65.415,162.5076 65.256,161.9666 65.014,161.7176 C64.817,161.5176 64.562,161.1586 64.435,160.9006 C63.789,159.5956 62.753,157.8446 62.445,157.5366 C62.248,157.3396 62.082,157.0846 62.076,156.9716 C62.069,156.8556 61.707,156.4566 61.251,156.0636 C60.795,155.6696 60.25,155.1996 60.011,154.9906 C59.772,154.7826 59.446,154.5496 59.273,154.4646 C59.105,154.3816 58.607,154.0436 58.193,153.7316 C57.772,153.4126 57.053,152.9206 56.603,152.6426 C55.566,152.0016 55.476,151.4456 56.286,150.6826" id="Fill-27" fill="#E5555D"></path>
                <path d="M59.2967,161.4707 C59.3497,161.0437 59.5597,160.7817 60.1247,160.4327 C60.8007,160.0157 60.9617,159.9877 61.6117,160.1637 C62.8857,160.5107 63.4007,161.8457 63.7087,165.6067 C63.8327,167.1107 63.4747,168.0097 62.5327,168.5617 C61.8567,168.9567 61.7847,168.9647 61.1437,168.7047 C60.3827,168.3967 60.1637,167.8437 60.2417,166.4227 C60.2747,165.8337 60.1517,165.2567 59.8457,164.5557 C59.3697,163.4687 59.1807,162.4057 59.2967,161.4707" id="Fill-29" fill="#E5555D"></path>
                <path d="M56.158,94.0673 C56.233,93.9333 56.282,93.6913 56.271,93.5043 C56.261,93.3183 56.503,92.9083 56.823,92.5663 C57.312,92.0453 57.489,91.9693 58.059,92.0353 C59.96,92.2563 60.38,92.6623 60.474,94.3743 C60.511,95.0143 60.679,95.6073 60.945,96.0283 C61.175,96.3933 61.373,96.9283 61.389,97.2313 C61.406,97.5333 61.508,97.8233 61.615,97.8803 C61.722,97.9373 61.822,98.2093 61.838,98.4913 C61.853,98.7683 62.025,99.4633 62.216,100.0183 C62.407,100.5763 62.819,101.8363 63.126,102.8003 C63.433,103.7653 63.87,104.9813 64.091,105.4853 C64.704,106.8863 64.995,107.6923 65.014,108.0413 C65.023,108.2103 65.117,108.5063 65.213,108.6713 C65.572,109.2923 65.84,109.9213 66.124,110.8113 C66.278,111.2953 66.484,111.7423 66.574,111.7883 C66.665,111.8353 66.755,112.1653 66.775,112.5223 C66.795,112.8803 66.892,113.3123 66.992,113.4833 C67.482,114.3253 68.052,115.5423 68.31,116.2993 C68.954,118.1903 69.051,118.4493 69.228,118.7603 C69.323,118.9243 69.413,119.1773 69.419,119.2973 C69.44,119.6713 70.346,122.0793 70.763,122.8683 C70.976,123.2713 71.272,123.9343 71.419,124.3413 C71.854,125.5463 72.096,126.1623 72.291,126.5603 C72.39,126.7633 72.685,127.4633 72.952,128.1293 C73.22,128.7943 73.596,129.6573 73.797,130.0643 C73.999,130.4743 74.374,131.3733 74.644,132.0943 C75.109,133.3353 75.392,133.9753 75.756,134.6013 C75.915,134.8783 76.075,136.0193 76.0900592,136.9813 C76.094,137.2563 75.895,137.5453 75.549,137.7673 C75.238,137.9663 75.009,138.2503 75.018,138.4203 C75.035,138.7183 74.344,139.1943 73.854,139.2213 C73.704,139.2303 73.563,139.3313 73.527,139.4573 C73.492,139.5803 73.164,139.7183 72.789,139.7703 C71.999,139.8783 70.465,140.4283 69.346,141.0063 C68.923,141.2243 68.527,141.4073 68.471,141.4103 C68.414,141.4143 68.018,141.5993 67.596,141.8213 C65.762,142.7863 61.268,143.5263 60.222,143.0373 C59.658,142.7723 59.401,141.7463 59.716,141.0103 C59.84,140.7203 60.054,140.4853 60.176,140.5043 C60.309,140.5233 60.4,140.4633 60.394,140.3593 C60.388,140.2603 60.66,140.2073 61.002,140.2403 C61.49,140.2883 62.04,140.0573 63.632,139.1393 C64.748,138.4963 65.754,137.9733 65.889,137.9653 C66.02,137.9593 66.372,137.8113 66.646,137.6503 C66.927,137.4843 67.559,137.2693 68.046,137.1743 C68.531,137.0813 69.23,136.8063 69.589,136.5693 C70.047,136.2673 70.546,136.1243 71.243,136.0953 C72.185,136.0573 72.48,135.8873 72.03,135.6433 C71.926,135.5873 71.826,135.3593 71.814,135.1523 C71.803,134.9403 71.609,134.4643 71.387,134.0993 C71.161,133.7273 70.765,132.8593 70.494,132.1373 C70.222,131.4163 69.837,130.5763 69.623,130.2403 C69.414,129.9123 69.232,129.4893 69.221,129.3093 C69.212,129.1213 69.131,128.9073 69.034,128.8093 C68.94,128.7163 68.64,128.0093 68.371,127.2513 C68.101,126.4913 67.694,125.5593 67.472,125.1953 C67.25,124.8303 67.053,124.2683 67.035,123.9543 C67.017,123.6393 66.815,122.9363 66.59,122.4013 C66.362,121.8653 65.75,120.2953 65.234,118.9263 C64.718,117.5573 64.167,116.1753 64.015,115.8683 C63.863,115.5613 63.385,114.3923 62.955,113.2833 C62.526,112.1733 62.014,110.9683 61.824,110.6173 C61.545,110.1003 60.847,108.2353 60.303,106.5463 C60.253,106.3913 60.009,105.6943 59.753,104.9713 C59.497,104.2503 59.284,103.5083 59.272,103.2983 C59.261,103.0883 59.115,102.6943 58.939,102.4013 C58.763,102.1093 58.621,101.7653 58.612,101.6173 C58.603,101.4663 58.517,101.2163 58.41,101.0333 C58.305,100.8553 58.095,100.2673 57.934,99.7103 C57.61,98.5753 56.946,97.1803 56.656,97.0253 C56.551,96.9673 56.44,96.5443 56.416,96.0923 C56.39,95.6403 56.29,95.2213 56.194,95.1713 C55.982,95.0603 55.962,94.4183 56.158,94.0673" id="Fill-31" fill="#E5555D"></path>
                <path d="M60.2674,54.7412 C60.3454,54.6532 60.4284,54.4592 60.4514,54.3062 C60.4734,54.1532 60.5124,53.9192 60.5384,53.7822 C60.6094,53.4002 61.5924,52.2682 61.8664,52.2542 C61.9964,52.2462 62.1534,52.1052 62.2014,51.9512 C62.3294,51.5432 63.7964,51.3032 64.7904,51.5272 C65.2694,51.6352 65.6564,51.7932 65.6614,51.8822 C65.6654,51.9702 65.8384,52.0322 66.0464,52.0202 C66.2534,52.0092 66.4264,52.0632 66.4304,52.1402 C66.4354,52.2202 66.6794,52.5332 66.9894,52.8552 C67.7814,53.6802 68.3854,55.4002 68.1624,56.1892 C67.9884,56.8042 67.3374,57.4262 66.8404,57.4532 C66.6964,57.4622 66.2274,57.6482 65.8054,57.8652 C64.1344,58.7262 61.6144,58.2112 60.8184,56.8452 C60.3704,56.0762 60.0774,54.9552 60.2674,54.7412" id="Fill-33" fill="#E5555D"></path>
                <path d="M64.9783,45.5449 C65.6243,44.2249 67.2933,43.8159 68.3963,44.7079 C69.2073,45.3649 69.8823,46.5239 69.7313,46.9989 C69.4333,47.9349 69.0523,48.0119 66.4273,47.6729 C65.0573,47.4949 64.4573,46.6129 64.9783,45.5449" id="Fill-35" fill="#E5555D"></path>
                <path d="M77.9422,64.8408 C78.1672,64.6128 78.6792,64.3538 79.0722,64.2698 C79.4722,64.1848 80.3612,63.8548 81.0802,63.5258 C82.0192,63.0948 82.4182,62.8008 82.5492,62.4428 C82.6482,62.1718 82.8442,61.7948 82.9842,61.6058 C83.1262,61.4138 83.3072,60.6058 83.3922,59.7888 C83.5362,58.4208 83.5172,58.2718 83.1292,57.6788 C82.5222,56.7488 80.4922,55.1818 79.9362,55.2128 C78.7882,55.2768 77.8822,54.3118 78.8112,54.0138 C79.0152,53.9478 79.1792,53.8268 79.1742,53.7438 C79.1582,53.4478 80.3632,53.0408 81.4732,52.9668 C82.4142,52.9038 82.7452,52.9688 83.3062,53.3208 C84.1292,53.8388 85.6752,55.1658 85.6862,55.3638 C85.6902,55.4348 85.8622,55.7128 86.0582,55.9668 C86.9812,57.1598 87.3412,59.8618 86.8012,61.5338 C86.3102,63.0538 85.8002,64.1998 85.3952,64.6918 C84.5252,65.7478 81.7922,66.8198 79.6652,66.9378 C78.8922,66.9808 78.6482,66.9048 78.1662,66.4738 C77.4692,65.8518 77.4062,65.3848 77.9422,64.8408" id="Fill-37" fill="#E5555D"></path>
                <path d="M83.0887,72.6015 C83.5527,70.4045 83.6957,69.9555 84.0617,69.5755 C84.5697,69.0455 86.5457,68.3975 87.6227,68.4085 C88.0577,68.4125 88.6247,68.3345 88.9157,68.2335 C89.7317,67.9485 92.4677,68.5915 92.4947,69.0745 C92.5007,69.1915 92.7637,69.4965 93.1007,69.7775 C93.5097,70.1185 93.7047,70.4525 93.7267,70.8465 C93.7447,71.1665 93.8447,71.4665 93.9527,71.5235 C94.0617,71.5805 94.1827,72.2475 94.2257,73.0195 C94.2877,74.1305 94.2267,74.5625 93.9217,75.1525 C93.4997,75.9685 92.7517,76.8535 92.1927,77.1975 C91.9907,77.3215 91.8317,77.5145 91.8387,77.6285 C91.8517,77.8595 91.1737,78.5725 90.9287,78.5855 C90.8467,78.5905 90.6497,78.7435 90.4937,78.9215 C90.2447,79.2085 90.0767,79.2285 89.1237,79.0745 C88.5327,78.9785 87.8167,78.8035 87.5537,78.6895 C87.2937,78.5775 86.7747,78.4405 86.4327,78.3935 C86.0897,78.3465 85.5347,78.1105 85.2327,77.8835 C84.9167,77.6475 84.6037,77.4365 84.5167,77.4035 C84.2067,77.2865 83.4657,75.8675 83.2077,74.8995 C82.9057,73.7635 82.8937,73.5275 83.0887,72.6015" id="Fill-39" fill="#E5555D"></path>
                <path d="M88.7108,83.583 C88.7368,83.298 88.8428,83.047 88.9388,83.041 C89.0378,83.036 89.1108,82.881 89.1038,82.692 C89.0878,82.342 90.4758,80.626 91.0608,80.272 C91.8128,79.818 93.6388,80.113 94.4908,80.826 C94.6758,80.98 95.0228,81.531 95.2608,82.047 C95.8048,83.226 95.8218,84.98 95.2958,85.614 C95.0988,85.853 94.9558,86.115 94.9618,86.228 C94.9678,86.335 94.7748,86.663 94.5438,86.94 C93.8018,87.83 92.5508,87.689 90.3488,86.468 C88.9008,85.666 88.5708,85.083 88.7108,83.583" id="Fill-41" fill="#E5555D"></path>
            </g>
        </g>
    </g>
</svg>