<?xml version="1.0" encoding="UTF-8"?>
<svg width="36px" height="43px" viewBox="0 0 36 43" version="1.1" xmlns="http://www.w3.org/2000/svg" xmlns:xlink="http://www.w3.org/1999/xlink">
    <!-- Generator: Sketch 61 (89581) - https://sketch.com -->
    <title>img-nav-information-white</title>
    <desc>Created with Sketch.</desc>
    <g id="Page-1" stroke="none" stroke-width="1" fill="none" fill-rule="evenodd">
        <g id="200318_kodomonooka-ver2" transform="translate(-581.000000, -6406.000000)" fill="#FFFFFF">
            <path d="M611.46724,6418.08355 C611.341783,6418.12731 611.21438,6418.19831 611.1074,6418.30237 C610.963464,6418.3403 610.746588,6418.42394 610.589036,6418.59899 C610.578338,6418.60386 610.566668,6418.60969 610.554025,6418.61455 C610.328396,6418.70403 609.993842,6418.90923 609.780856,6419.06581 C609.683601,6419.13778 609.586347,6419.20391 609.521187,6419.24087 C609.384059,6419.28561 609.169128,6419.4062 608.868613,6419.77382 C608.796645,6419.86135 608.695501,6419.94402 608.685775,6419.95277 C608.51169,6420.02571 608.267583,6420.17451 608.111004,6420.36804 C608.111004,6420.36804 608.104196,6420.36999 608.097388,6420.37388 C607.969013,6420.42348 607.721015,6420.53046 607.556656,6420.60826 C607.438006,6420.6637 607.29407,6420.72691 607.233773,6420.74831 C606.967297,6420.83778 606.710546,6421.09259 606.613292,6421.19762 C606.588006,6421.22388 606.564665,6421.24528 606.546187,6421.26181 C606.331255,6421.34058 606.155226,6421.49716 606.052136,6421.63624 C605.987949,6421.70626 605.518212,6422.01261 605.23812,6422.19545 C605.013463,6422.34036 604.815065,6422.44345 604.74407,6422.47457 C604.38812,6422.55821 604.044813,6422.86845 603.976735,6422.93263 C603.918383,6422.98807 603.860031,6423.03378 603.824047,6423.06004 C603.620786,6423.132 603.456426,6423.27788 603.348474,6423.41988 C603.214264,6423.48893 603.015866,6423.62119 602.708543,6423.8828 C602.521815,6424.0423 602.381769,6424.1415 602.342868,6424.16484 C602.038463,6424.29127 601.520099,6424.58887 601.231254,6424.86604 C601.19138,6424.89133 601.127192,6424.92148 601.062032,6424.94968 C600.552421,6425.16656 600.093382,6425.44179 599.526391,6425.8697 L598.887432,6426.35208 C598.452707,6426.67983 598.200819,6426.78292 598.090922,6426.81599 C597.883771,6426.87726 597.594926,6426.9998 597.43543,6427.12331 C597.415979,6427.13498 597.365407,6427.15346 597.344984,6427.15735 C597.072672,6427.20208 596.778965,6427.34019 596.602935,6427.50552 C596.568896,6427.53372 596.432741,6427.62514 596.301448,6427.69322 C595.892008,6427.90329 595.777249,6427.97331 595.07702,6428.44305 C594.317466,6428.95266 594.156997,6429.03921 593.518038,6429.2804 C593.116379,6429.43115 592.488118,6429.76473 592.088404,6430.03898 C591.801504,6430.23544 591.587545,6430.36868 591.505852,6430.41536 C591.329822,6430.47955 591.188804,6430.59722 591.093495,6430.69739 C590.982625,6430.75769 590.689891,6430.89287 590.291149,6431.04167 C590.124845,6431.10392 589.277762,6431.42291 589.024902,6431.59797 C588.983083,6431.62714 588.822613,6431.71078 588.702991,6431.75455 C588.439433,6431.85083 588.085428,6432.07062 587.873414,6432.2379 C587.824787,6432.27485 587.781995,6432.30598 587.747956,6432.32737 C587.720725,6432.33029 587.693494,6432.33612 587.666263,6432.34293 C587.58846,6431.89654 587.493151,6431.27022 587.41632,6430.75964 C587.223757,6429.4895 587.023414,6427.92371 586.969924,6427.26822 C586.86489,6425.99224 586.686915,6424.21541 586.515748,6422.74202 C586.340691,6421.23263 586.284283,6420.60145 586.25219,6419.80105 C586.239547,6419.47039 586.19092,6418.83338 586.093666,6418.54161 C586.075187,6418.48326 586.039203,6418.25763 586.039203,6418.05437 C586.039203,6417.63034 586.004192,6417.17811 585.841778,6415.51215 C585.812601,6415.21164 585.765919,6414.71661 585.736743,6414.39178 C585.573356,6412.5848 585.529592,6412.19384 585.400244,6411.40803 C585.351617,6411.1153 585.330221,6410.90134 585.325359,6410.79339 C585.358425,6410.67279 585.370096,6410.5308 585.362315,6410.36255 C585.522784,6410.42771 585.673528,6410.48606 585.759112,6410.51816 C585.826217,6410.54247 585.889432,6410.56678 585.929306,6410.58526 C586.160771,6410.7292 586.529364,6410.83326 586.837659,6410.83812 C587.017579,6410.94802 587.247098,6411.00637 587.503849,6410.9947 C587.539833,6410.99665 587.6614,6411.02096 587.78005,6411.0657 C588.190462,6411.21839 589.052133,6411.41873 589.584112,6411.40803 C589.730966,6411.47903 589.963403,6411.5685 590.352419,6411.69201 C590.571241,6411.76106 590.728792,6411.82136 590.808541,6411.8554 C590.944696,6411.9653 591.130451,6412.03824 591.364834,6412.04213 C591.519467,6412.11604 591.694525,6412.14327 591.866664,6412.13744 L591.866664,6412.13841 C592.069925,6412.14716 593.03663,6412.34751 593.330337,6412.43795 C593.473301,6412.52743 593.652248,6412.57605 593.853564,6412.57216 L593.844811,6412.57216 C593.862317,6412.57411 593.919697,6412.5848 593.982912,6412.60523 C594.12782,6412.65191 594.47988,6412.75208 594.757054,6412.82502 C595.390178,6412.99327 596.78869,6413.38229 596.940407,6413.42994 C596.940407,6413.42994 598.153164,6413.80826 598.271814,6413.84813 C598.479938,6413.91621 598.791151,6413.959 598.992467,6413.96678 C599.077078,6413.9697 599.363004,6414.01541 599.598359,6414.07863 C599.943611,6414.17102 600.120613,6414.20603 600.227593,6414.21575 C600.348188,6414.24688 600.708028,6414.34899 601.227364,6414.50946 C601.336289,6414.5435 602.232971,6414.8197 602.682284,6414.87222 C602.827193,6414.97531 603.01003,6415.02685 603.202593,6415.00838 L603.363062,6414.98309 C603.382513,6414.98601 603.403909,6414.9899 603.426278,6414.99476 C603.441838,6414.99865 603.797788,6415.08132 603.985488,6415.09104 C604.174161,6415.10174 604.838406,6415.31278 604.997903,6415.41392 C605.173932,6415.53063 605.457914,6415.65706 605.769127,6415.67359 C605.885832,6415.74264 606.025878,6415.79419 606.184402,6415.82725 C606.262205,6415.84281 606.498532,6415.91284 606.707628,6415.99064 C606.782514,6416.01787 607.16764,6416.15889 607.352423,6416.19098 C607.414665,6416.20557 607.525535,6416.24836 607.621816,6416.29213 C607.932057,6416.4312 608.291896,6416.54402 609.225535,6416.79299 C609.267354,6416.80466 609.302366,6416.81633 609.330569,6416.82703 C609.494929,6417.00889 609.746817,6417.11879 610.026908,6417.11003 C610.098876,6417.12268 610.277824,6417.16839 610.48692,6417.24522 C610.906085,6417.39888 611.145329,6417.45237 611.290238,6417.46793 C611.417641,6417.52628 611.604368,6417.57588 611.88057,6417.5895 C611.910719,6417.62256 611.943785,6417.65466 611.978796,6417.68383 C611.777481,6417.75872 611.602423,6417.89487 611.46724,6418.08355 M615.725021,6415.69402 C615.670559,6415.65511 615.619015,6415.61524 615.586921,6415.58606 C615.200822,6415.09201 614.239952,6414.84013 614.06295,6414.84596 C613.990982,6414.8411 613.721589,6414.78566 613.566955,6414.73023 C613.199334,6414.59894 612.788922,6414.4764 612.467012,6414.40054 C611.938922,6414.27702 611.659803,6414.18658 611.273705,6414.01152 C611.000421,6413.88801 610.56375,6413.74407 610.260318,6413.70809 C610.166954,6413.69642 609.886862,6413.61278 609.707915,6413.52428 C609.347103,6413.34533 609.140924,6413.28114 609.009631,6413.26072 C608.963922,6413.24127 608.908487,6413.21209 608.854997,6413.18097 C608.487377,6412.96799 608.30843,6412.91158 608.145043,6412.91158 C608.036118,6412.89602 607.701564,6412.82794 607.371873,6412.74138 C607.257114,6412.71221 607.062606,6412.66747 606.880741,6412.66261 C606.813635,6412.64218 606.68137,6412.5955 606.525763,6412.5284 C606.50923,6412.52159 604.875363,6411.8272 604.307399,6411.88263 L604.306427,6411.88263 C604.119699,6411.89722 603.229824,6411.76204 602.337033,6411.50042 C601.79241,6411.3419 601.024103,6411.15712 600.587433,6411.08029 C599.709229,6410.92565 598.946757,6410.71558 598.494526,6410.50357 C598.264034,6410.39659 597.945041,6410.27405 597.641608,6410.27891 L597.641608,6410.27794 C597.560887,6410.27113 597.280796,6410.18749 597.081425,6410.07954 C596.916093,6409.9891 596.642809,6409.89379 596.333542,6409.90254 C596.145841,6409.88698 595.307512,6409.64871 595.0352,6409.50963 C594.731768,6409.35305 594.371928,6409.2772 593.102763,6409.0574 C592.456996,6408.94556 592.028106,6408.84247 591.928907,6408.80746 C591.686744,6408.67422 591.15282,6408.40872 590.780337,6408.328 C590.543037,6408.18795 590.163746,6408.13154 589.87782,6408.10917 C589.666778,6408.09264 589.339032,6408.02165 589.198986,6407.97302 C588.930565,6407.87674 588.548357,6407.78726 588.306195,6407.76198 C588.301332,6407.76198 588.297442,6407.76101 588.293552,6407.76101 C588.146698,6407.65208 587.95608,6407.59081 587.739204,6407.59276 L587.739204,6407.59178 C587.706137,6407.58887 587.59624,6407.56747 587.47759,6407.52954 C587.365748,6407.49356 587.174158,6407.44104 586.98354,6407.42937 C586.703448,6407.21638 586.306652,6407.05786 586.255107,6407.03744 C586.035313,6406.95088 585.606423,6406.74567 585.338002,6406.59687 C585.036514,6406.43154 584.540519,6406.20591 584.235141,6406.11547 C583.886972,6406.01238 583.47656,6405.97639 583.079763,6406.0153 C582.780221,6406.04447 582.350358,6406.12908 582.001216,6406.36736 C581.492578,6406.71552 581.419637,6407.08801 581.340861,6407.66861 C581.263058,6408.25019 581.261113,6408.56141 581.454649,6408.98446 C581.507166,6409.10019 581.571353,6409.30929 581.585942,6409.39974 C581.611228,6409.54951 581.667635,6409.78389 581.798928,6409.98618 C581.769752,6410.42771 581.897154,6411.77273 581.90299,6411.83206 C581.977875,6412.62565 582.051788,6413.44648 582.067349,6413.65265 C582.0868,6413.90162 582.197669,6414.81484 582.291033,6415.51799 C582.398985,6416.33298 582.460255,6416.95151 582.463173,6417.03612 C582.435942,6417.40082 582.480679,6417.52434 582.50402,6417.5895 C582.595438,6417.85208 582.761743,6419.28755 582.805507,6420.73469 C582.834683,6421.70431 582.858024,6421.96885 583.084626,6423.8828 C583.155621,6424.47411 583.238287,6425.22783 583.271354,6425.57016 C583.351102,6426.41141 583.688574,6428.86707 584.151503,6431.97823 C584.367407,6433.43315 584.486057,6434.48738 584.488974,6434.62062 C584.39172,6435.53189 584.558024,6436.46553 584.718494,6437.36805 C584.80505,6437.85335 584.886743,6438.31141 584.924672,6438.74225 C585.031652,6440.00363 585.090977,6441.29419 585.148356,6442.54391 L585.211572,6443.85878 C585.220324,6444.02995 585.213517,6444.26725 585.206709,6444.5415 C585.177533,6445.7601 585.136686,6447.42703 585.962373,6448.19437 C586.284283,6448.49488 586.698586,6448.62909 587.158597,6448.58435 L587.248071,6448.57366 C587.819924,6448.49099 588.286744,6448.19437 588.662144,6447.95707 C589.191206,6447.62348 589.259284,6447.11679 588.654364,6443.24511 C588.607682,6442.94362 588.571698,6442.71896 588.561,6442.62074 L588.453048,6441.68029 C588.320783,6440.52978 588.183654,6439.34036 588.096126,6438.17137 L588.075703,6437.91073 C588.038746,6437.45558 587.999844,6436.98584 588.065977,6436.60752 C588.103906,6436.38578 588.125302,6436.30312 588.116549,6436.30409 C588.116549,6436.30409 588.115577,6436.30506 588.114604,6436.30506 C588.14378,6436.27394 588.181709,6436.24574 588.229364,6436.20586 C588.304249,6436.14362 588.393723,6436.06776 588.505565,6435.96662 C588.592121,6435.8859 588.682568,6435.81879 588.727304,6435.78961 C588.976275,6435.70014 589.412945,6435.46965 589.627877,6435.15066 C589.741664,6435.04757 590.044124,6434.82486 590.19973,6434.72857 C590.376733,6434.68481 590.533312,6434.57783 590.661687,6434.4125 C590.764776,6434.37554 590.872728,6434.31816 590.96901,6434.23939 C590.999158,6434.23841 591.029307,6434.2355 591.060428,6434.23258 C591.220898,6434.21799 591.52433,6434.16645 591.75385,6434.00014 L592.070898,6433.77548 C592.161344,6433.75992 592.403507,6433.72102 593.326447,6433.07234 C594.300933,6432.3867 594.586859,6432.26805 594.65591,6432.25054 C595.038118,6432.18733 596.212947,6431.5435 596.473587,6431.31204 C596.515407,6431.27606 596.691436,6431.15741 596.892752,6431.04459 C597.123244,6430.91622 597.411116,6430.74699 597.548244,6430.65849 C597.628965,6430.60695 598.030624,6430.3998 598.479938,6430.1907 C598.811574,6430.03607 599.373702,6429.76473 599.563348,6429.65094 L600.141037,6429.30083 C600.46781,6429.1034 600.610774,6428.98572 600.692467,6428.88944 C600.810144,6428.79705 601.124275,6428.59963 601.251678,6428.5403 C601.49773,6428.47611 601.706826,6428.31273 601.798245,6428.20283 C601.84201,6428.1649 602.026792,6428.03555 602.242696,6427.91398 C602.548074,6427.74087 602.731884,6427.61347 602.847616,6427.5133 C603.127708,6427.44716 603.444756,6427.26238 603.5955,6427.15832 C603.677193,6427.10191 603.761804,6427.04842 603.819184,6427.01827 C603.933944,6426.98035 604.133314,6426.8792 604.601106,6426.51353 C604.835488,6426.32972 605.224504,6426.06713 605.450134,6425.93973 C605.66701,6425.81816 605.83915,6425.71021 605.968498,6425.61782 C606.170786,6425.5935 606.351679,6425.49139 606.480054,6425.33967 C607.177365,6424.97205 608.757743,6423.76026 608.834574,6423.67176 C608.784002,6423.73109 608.740237,6423.75832 608.739265,6423.75929 C608.761633,6423.7447 608.841382,6423.7058 608.934746,6423.67274 C609.124391,6423.60563 610.596817,6422.75369 611.185204,6422.17016 C611.286348,6422.14682 611.382629,6422.11181 611.46724,6422.0661 C611.580055,6422.00386 611.672446,6421.92216 611.742469,6421.82783 C611.801794,6421.7899 611.898076,6421.73057 612.026451,6421.66444 C612.087721,6421.63137 612.631371,6421.3435 612.821989,6421.17525 C612.874506,6421.13538 613.114723,6420.98853 613.407458,6420.83778 C613.721589,6420.67537 614.028911,6420.49836 614.202023,6420.26107 C614.227309,6420.24842 614.258431,6420.23383 614.295387,6420.21925 C614.530742,6420.12588 614.883774,6419.98097 615.084117,6419.89539 C615.235834,6419.8312 615.409918,6419.76507 615.484804,6419.74465 C615.953568,6419.63767 616.327996,6419.23309 616.539038,6418.60483 C616.7812,6417.88709 616.812321,6416.83772 616.3066,6416.22989 C616.162665,6416.05775 615.924392,6415.83795 615.725021,6415.69402" id="img-nav-information-white"></path>
        </g>
    </g>
</svg>