<?xml version="1.0" encoding="UTF-8"?>
<svg width="75px" height="47px" viewBox="0 0 75 47" version="1.1" xmlns="http://www.w3.org/2000/svg" xmlns:xlink="http://www.w3.org/1999/xlink">
    <!-- Generator: Sketch 61 (89581) - https://sketch.com -->
    <title>img-nav-childcare</title>
    <desc>Created with Sketch.</desc>
    <g id="Page-1" stroke="none" stroke-width="1" fill="none" fill-rule="evenodd">
        <g id="200318_kodomonooka-ver2" transform="translate(-610.000000, -133.000000)" fill="#0099CB">
            <g id="Group-9" transform="translate(611.000000, 133.000000)">
                <g id="Group-2" transform="translate(0.000000, -0.000000)">
                    <path d="M60.1023359,26.1627485 C59.9609566,26.19923 59.8506118,26.2678497 59.8506118,26.3182288 C59.8506118,26.3694765 59.7394049,26.4545998 59.5980256,26.5119277 C59.4566463,26.568387 59.3463015,26.6535103 59.3463015,26.704758 C59.3463015,26.7907499 57.9135428,27.3214675 57.2988877,27.4647873 C57.1368187,27.5021373 57.0264739,27.5959467 57.0264739,27.6958362 C57.0264739,27.7913828 56.9506118,27.9199363 56.8497497,27.9955049 C56.7083704,28.1006061 56.6980256,28.1527224 56.7988877,28.2543492 C56.8695773,28.3247062 56.9247497,28.5036388 56.9247497,28.6556446 C56.9247497,28.8085191 56.9747497,28.9483645 57.0359566,28.9709482 C57.0980256,28.993532 57.1497497,29.2706169 57.1523359,29.5963438 C57.1549222,29.921202 57.2100946,30.2338998 57.2756118,30.3025196 C57.4238877,30.4545254 57.4092325,31.754827 57.2583704,31.9077014 C56.9713015,32.1969469 56.3299222,31.3691664 56.3057842,30.6777569 C56.2937153,30.3528986 56.2419911,30.2295567 56.103198,30.1956812 C56.0023359,30.1704916 55.9169911,30.0888428 55.9169911,30.0176171 C55.9169911,29.8534508 55.4023359,29.4556298 54.8773359,29.213289 C54.4704394,29.0256703 53.7790601,29.0612831 53.3549222,29.2932007 C52.9109566,29.5346728 52.5307842,29.8230496 52.3057842,30.0888428 C52.1764739,30.2408486 52.015267,30.3728766 51.9583704,30.3728766 C51.8980256,30.3728766 51.7273359,30.5057731 51.5635428,30.6777569 C51.2307842,31.0286733 51.1963015,30.8810104 51.4799222,30.3224975 C51.5885428,30.1088207 51.6807842,29.8299985 51.6807842,29.7179485 C51.6807842,29.6032926 51.8394049,29.3270762 52.0342325,29.1029762 C52.228198,28.8788761 52.3687153,28.6486958 52.3463015,28.5896307 C52.3247497,28.5323027 52.3687153,28.3707422 52.4419911,28.2395829 C52.6583704,27.8530537 52.6238877,27.3814012 52.3557842,27.0504628 C52.2290601,26.8941139 52.0238877,26.5979196 51.9023359,26.3946661 C51.7807842,26.1914125 51.6126808,25.9985822 51.5299222,25.968181 C51.4454394,25.9369113 51.378198,25.8309415 51.378198,25.7293147 C51.378198,25.4444123 51.1419911,24.9875261 50.9954394,24.9875261 C50.8463015,24.9875261 50.6721635,24.5705957 50.6721635,24.2153363 C50.6721635,23.9903677 50.7126808,23.9712583 51.1868187,23.9712583 C51.6704394,23.9712583 52.3687153,24.257898 52.4730256,24.4993701 C52.4919911,24.5445376 52.6135428,24.581019 52.7445773,24.581019 C52.8756118,24.581019 53.0100946,24.6261865 53.0445773,24.6826458 C53.1471635,24.8468121 53.6368187,24.787747 53.8997497,24.5784132 C54.041129,24.4654945 54.2049222,24.3768968 54.2730256,24.3760282 C54.4557842,24.3734224 54.728198,23.7879827 54.6557842,23.554328 C54.6213015,23.4431466 54.640267,23.3614977 54.7014739,23.3614977 C54.7618187,23.3614977 54.8075084,23.3006954 54.8075084,23.2190465 C54.8075084,23.1400034 54.9178532,22.9714941 55.0592325,22.8377289 C55.2049222,22.7004894 55.3118187,22.4876812 55.3118187,22.3348067 C55.3118187,21.9387229 55.5497497,21.426246 55.9066463,21.054483 C56.0928532,20.8616528 56.1945773,20.665348 56.1583704,20.5715387 C56.1204394,20.4733864 56.1583704,20.4143212 56.2592325,20.4143212 C56.3471635,20.4143212 56.4204394,20.5003131 56.4204394,20.6028085 C56.4204394,20.7079097 56.4919911,20.9328784 56.5825084,21.1152854 C56.8195773,21.5930181 57.1049222,22.8533638 57.0678532,23.2598709 C57.0204394,23.7879827 57.1945773,24.3386782 57.4799222,24.5645155 C57.6213015,24.6765655 57.7316463,24.8442063 57.7316463,24.9467017 C57.7316463,25.1412692 58.165267,25.4704704 58.690267,25.673724 C58.941129,25.7710077 59.678198,25.8778461 60.2230256,25.8952182 C60.4514739,25.9030357 60.3644049,26.0949974 60.1023359,26.1627485 M63.0600946,24.1745119 C62.8273359,23.8644199 62.2100946,23.6655094 61.8264739,23.7766908 C61.4497497,23.8861351 60.9592325,23.8140409 60.3540601,23.5612768 C60.1023359,23.4561756 59.7609566,23.3154616 59.5876808,23.2459732 C59.2247497,23.099179 58.8419911,22.5901765 58.8419911,22.2540264 C58.8419911,22.1315531 58.8006118,21.9491461 58.7506118,21.852731 C58.7006118,21.7545786 58.6307842,21.4757564 58.5945773,21.2325471 C58.5583704,20.9884691 58.4583704,20.685326 58.3730256,20.5567724 C58.2885428,20.4316933 58.2307842,20.1910898 58.2463015,20.0382153 C58.2626808,19.8862094 58.2135428,19.6360512 58.141129,19.4996803 C58.0644049,19.3580977 58.015267,19.2460476 58.0299222,19.2460476 C58.0437153,19.2460476 57.9799222,18.9915464 57.8894049,18.6866661 C57.6342325,17.8241414 57.0359566,17.539239 56.0583704,17.8119809 C55.8359566,17.8745205 55.566129,18.0161031 55.4583704,18.1281531 C55.1445773,18.4530113 54.6057842,19.1609243 54.6006118,19.2556023 C54.5980256,19.30685 54.416129,19.5509279 54.1928532,19.8045606 C53.7997497,20.2501549 53.5816463,20.627998 53.4471635,21.0953075 C53.4135428,21.2108319 53.1919911,21.5217925 52.9618187,21.7762937 C52.5385428,22.2436032 52.5385428,22.2436032 52.1342325,22.1315531 C51.9126808,22.0707508 51.6764739,21.9752043 51.6100946,21.9213508 C51.4971635,21.82841 50.5307842,21.7406809 49.4118187,21.720703 C48.6756118,21.7076739 47.7540601,22.213202 47.515267,22.7612917 C47.2419911,23.3918989 47.2885428,23.9069816 47.6695773,24.4594143 C47.8523359,24.7234702 48.078198,24.9953435 48.1764739,25.0683064 C48.2747497,25.1430064 48.3523359,25.3123843 48.3523359,25.4548355 C48.3523359,25.5938123 48.4669911,25.8613426 48.6049222,26.0437497 C48.7419911,26.2270253 48.8566463,26.4285416 48.8566463,26.4867382 C48.8566463,26.5431975 48.9273359,26.6187661 49.0083704,26.6491673 C49.0885428,26.6786999 49.1592325,26.7499255 49.1592325,26.8011732 C49.1592325,26.8541581 49.315267,27.1364547 49.5075084,27.4309117 C49.8187153,27.9086444 49.841129,27.9876875 49.7195773,28.1779119 C49.6445773,28.2960422 49.5040601,28.6660679 49.4066463,29.0013494 C49.3092325,29.3366309 49.1687153,29.7075252 49.0937153,29.8247869 C49.016129,29.9463915 48.9816463,30.103609 49.0135428,30.1904695 C49.0445773,30.2755928 49.0006118,30.413701 48.9126808,30.5057731 C48.8238877,30.5969766 48.7557842,30.7298732 48.7557842,30.8106534 C48.7557842,30.8853535 48.665267,31.0338849 48.5644049,31.1250884 C48.4368187,31.2406129 48.3609566,31.4707932 48.3376808,31.8164979 C48.3066463,32.2629608 48.340267,32.3758795 48.5790601,32.6347238 C48.7299222,32.7971529 48.8566463,32.9804285 48.8566463,33.0360192 C48.8566463,33.1645727 49.1187153,33.4216798 49.2506118,33.4216798 C49.3100946,33.4216798 49.3609566,33.4590298 49.3609566,33.5033287 C49.3609566,33.6006124 50.1678532,33.8281869 50.5109566,33.8281869 C50.6471635,33.8281869 50.9092325,33.7621729 51.1109566,33.6753124 C51.3126808,33.5901892 51.5618187,33.5233066 51.6807842,33.5233066 C51.9833704,33.5233066 52.7850946,33.1411204 52.853198,32.9647936 C52.8842325,32.8831448 52.965267,32.8119192 53.0273359,32.8119192 C53.0919911,32.8119192 53.2540601,32.7224528 53.3954394,32.6086656 C53.5368187,32.4948784 53.7256118,32.4054121 53.8238877,32.4054121 C53.9247497,32.4054121 54.0006118,32.3619818 54.0006118,32.3037853 C54.0006118,32.1569911 54.4342325,32.1717573 54.5859566,32.3246318 C54.6523359,32.392383 54.7066463,32.5278853 54.7066463,32.6295121 C54.7066463,32.7311389 54.7471635,32.8119192 54.7971635,32.8119192 C54.8471635,32.8119192 54.9463015,32.959582 55.0195773,33.1428576 C55.091129,33.3252647 55.2764739,33.6066927 55.4325084,33.7725962 C55.5859566,33.9350253 55.715267,34.1321986 55.715267,34.2042928 C55.715267,34.4370789 56.3704394,34.843586 56.8549222,34.9113372 C57.1169911,34.94695 57.378198,35.0381535 57.4394049,35.1137222 C57.4997497,35.1884222 57.6609566,35.2509618 57.7928532,35.2509618 C57.9238877,35.2509618 58.0350946,35.2978664 58.0350946,35.3525885 C58.0350946,35.4741932 58.7014739,35.4933025 58.7756118,35.373435 C58.8066463,35.3213187 59.0230256,35.228378 59.265267,35.1606268 C59.8299222,35.0025407 60.1592325,34.7454337 60.1885428,34.4379476 C60.2023359,34.2954963 60.2592325,34.0948486 60.3178532,33.9801928 C60.4359566,33.7543555 60.3980256,33.5945322 60.0566463,32.8631668 C59.9238877,32.5782644 59.8221635,32.2881504 59.8247497,32.2021585 C59.828198,32.1179038 59.7850946,31.9276794 59.7290601,31.7756735 C59.6506118,31.5619967 59.6618187,31.4664501 59.7790601,31.3439769 C59.8937153,31.224978 59.9247497,30.9930605 59.9083704,30.4032777 C59.878198,29.3566088 60.1644049,28.7477168 60.6868187,28.7477168 C60.8187153,28.7477168 61.0126808,28.6539074 61.1109566,28.5444632 C61.2109566,28.4324132 61.3644049,28.3403411 61.453198,28.3403411 C61.5437153,28.3403411 61.7256118,28.2517434 61.8669911,28.1370875 C62.0083704,28.0241689 62.1635428,27.933834 62.2204394,27.9329654 C62.366129,27.9303595 63.3928532,26.8263627 63.5894049,26.46068 C63.9540601,25.7805624 63.9075084,25.110868 63.4609566,24.6418213 C63.3350946,24.5097934 63.1514739,24.295248 63.0600946,24.1745119 M67.3583704,13.2604912 C67.4842325,13.7382239 67.2488877,14.4270276 66.8144049,14.8491695 C66.6023359,15.0550289 66.4307842,15.2921581 66.4307842,15.3790185 C66.4307842,15.465879 66.315267,15.6126733 66.1738877,15.7038768 C65.9488877,15.850671 65.8256118,15.8567512 65.190267,15.7499128 C64.6057842,15.6517605 64.4213015,15.5753233 64.2428532,15.353829 C64.1195773,15.2009545 64.0178532,15.0202847 64.016129,14.9473219 C64.0126808,14.8752277 63.9368187,14.7032439 63.8488877,14.571216 C63.7126808,14.364488 63.7049222,14.2463577 63.7988877,13.7990262 C63.8609566,13.5045691 63.9945773,13.1962144 64.1014739,13.1024051 C64.2049222,13.0120702 64.3083704,12.8235829 64.3273359,12.6915549 C64.3609566,12.4570316 64.4342325,12.4179444 65.2713015,12.1860269 C65.4428532,12.1382536 65.6833704,12.0974292 65.8256118,12.0913489 C66.1790601,12.0765827 67.2644049,12.9043631 67.3583704,13.2604912 M60.3695773,13.1892656 C60.2885428,12.9764574 60.3144049,12.8539841 60.5006118,12.559527 C60.6299222,12.3554048 60.8221635,12.1729978 60.9342325,12.1478083 C61.0445773,12.1226187 61.3885428,12.1200129 61.691129,12.1425966 C62.165267,12.1773408 62.290267,12.2329316 62.5506118,12.5291258 C63.0066463,13.0433399 63.0118187,13.6261738 62.566129,14.2767589 C62.2428532,14.74928 62.2006118,14.7762067 61.7264739,14.8048707 C61.2919911,14.8317975 61.1868187,14.7961846 60.9195773,14.5356032 C60.7273359,14.3488531 60.5850946,14.0891403 60.541129,13.8441937 C60.5023359,13.6313855 60.4247497,13.333454 60.3695773,13.1892656 M55.3618187,13.0268364 C55.2738877,12.3866746 55.2980256,11.6353314 55.4075084,11.5997186 C55.466129,11.5806093 55.4971635,11.4824569 55.4730256,11.3903848 C55.4118187,11.1610731 55.8213015,10.5452322 56.1437153,10.3810659 C56.4238877,10.2386147 56.8497497,10.2273228 57.6264739,10.34111 C58.2014739,10.4253647 58.7626808,10.8266602 58.9695773,11.2991813 C59.0359566,11.4511871 59.1247497,11.5736604 59.1695773,11.5736604 C59.215267,11.5736604 59.3040601,11.7056884 59.3747497,11.8785407 C59.5100946,12.2086106 59.4100946,12.3962293 58.6833704,13.1788423 C58.5040601,13.3716726 58.3626808,13.5653715 58.3626808,13.6157506 C58.3626808,13.8051064 57.7169911,14.3175833 57.4049222,14.3766485 C57.2204394,14.4113927 56.9006118,14.3783857 56.6885428,14.3019485 C56.1738877,14.1186728 55.4118187,13.3855703 55.3618187,13.0268364 M49.4368187,11.9853792 C49.2850946,11.649229 49.2721635,11.5128581 49.3618187,11.1463068 C49.4204394,10.9030974 49.4695773,10.5999543 49.4721635,10.4609775 C49.4747497,10.328081 49.5506118,10.1708635 49.6333704,10.125696 C49.7238877,10.0753169 49.790267,9.97716459 49.790267,9.89204131 C49.790267,9.81039245 49.8350946,9.74437847 49.891129,9.74437847 C49.9463015,9.74437847 49.991129,9.65317496 49.991129,9.54112492 C49.991129,9.42907489 50.0549222,9.33787137 50.1333704,9.33787137 C50.2109566,9.33787137 50.4049222,9.26751438 50.566129,9.1823911 C51.1023359,8.89662008 52.2299222,9.19542017 52.765267,9.76435639 C53.1247497,10.1474112 53.1273359,10.1560972 53.0325084,10.684209 C52.9790601,10.9795347 52.9333704,11.354772 52.928198,11.5224127 C52.9109566,12.1834211 52.8575084,12.3823316 52.6445773,12.5829793 C52.5230256,12.6976352 52.3807842,12.7931817 52.3316463,12.7931817 C52.2816463,12.7931817 52.1592325,12.8843852 52.0592325,12.9964353 C51.9350946,13.1345435 51.7463015,13.1996888 51.4635428,13.1996888 C50.8894049,13.1996888 50.2945773,13.0911132 50.2945773,12.986012 C50.2945773,12.8435608 49.8713015,12.3866746 49.7394049,12.3866746 C49.6721635,12.3866746 49.5385428,12.2086106 49.4368187,11.9853792 M71.890267,11.106351 C71.7850946,11.2435906 71.490267,13.1996888 71.4919911,13.7486471 C71.4937153,13.9918565 71.4092325,14.2576496 71.2738877,14.439188 C71.0307842,14.7640463 70.9747497,15.2773918 71.1609566,15.465879 C71.3213015,15.6265709 71.3023359,15.9019187 71.1049222,16.2788932 C70.9971635,16.4821468 70.9290601,16.9138434 70.9092325,17.5027576 C70.8928532,18.0013368 70.8221635,18.5780904 70.7523359,18.7787382 C70.6807842,18.9889406 70.6394049,19.5205268 70.6566463,20.0286606 C70.6738877,20.515948 70.6506118,20.9693598 70.6066463,21.0397168 C70.5609566,21.1109424 70.516129,21.2777145 70.5040601,21.4210343 C70.3876808,22.7821382 70.3359566,23.2086232 70.2687153,23.3510744 C70.228198,23.4388035 70.1213015,23.6611664 70.0368187,23.8340188 C69.9471635,24.0164258 69.9169911,24.2101247 69.966129,24.2856933 C70.0135428,24.3586561 70.0014739,24.5097934 69.941129,24.6218434 C69.8799222,24.7330249 69.8256118,25.1143424 69.8195773,25.4704704 C69.8144049,25.8257298 69.7644049,26.1471137 69.7092325,26.1870695 C69.5273359,26.3164916 69.3264739,26.7924871 69.3876808,26.948836 C69.4187153,27.0304849 69.4187153,27.1269 69.3859566,27.1573012 C69.3523359,27.1877023 69.3100946,27.4977943 69.291129,27.8530537 C69.2195773,29.1637785 69.0747497,29.8586624 68.7376808,30.4953499 C68.6773359,30.6091371 68.616129,30.9062 68.5997497,31.1711245 C68.5825084,31.4325746 68.515267,31.9381026 68.4480256,32.3037853 C68.3816463,32.6677307 68.3109566,33.2792286 68.2919911,33.6657578 C68.2730256,34.052287 68.2204394,34.3945173 68.1756118,34.4283929 C67.8626808,34.6646534 67.7437153,34.9304465 67.8376808,35.1797361 C67.9066463,35.3630118 67.8980256,35.4481351 67.8075084,35.4846165 C67.7273359,35.5176235 67.6885428,35.7130596 67.7014739,36.0283631 C67.7135428,36.3028423 67.6876808,36.611197 67.6445773,36.7241157 C67.428198,37.2930519 67.3583704,37.6014066 67.4057842,37.7812079 C67.4350946,37.8897835 67.390267,38.1164894 67.3092325,38.2693638 C67.1100946,38.6454698 66.9109566,39.396813 66.9799222,39.508863 C67.0118187,39.5601107 66.9807842,39.645234 66.9100946,39.7016933 C66.841129,39.757284 66.6937153,40.0117853 66.5825084,40.2662865 C66.4006118,40.6832169 66.3350946,40.7388076 65.9118187,40.8395658 C65.6497497,40.9029739 65.3488877,41.0402135 65.2307842,41.1522635 C65.0195773,41.3537799 64.4135428,41.4232683 64.4135428,41.2469415 C64.4135428,41.1913508 64.2876808,41.1453147 64.1368187,41.1453147 C63.9825084,41.1453147 63.4557842,41.0593228 62.9514739,40.9516158 C62.4169911,40.8386972 62.0023359,40.7987413 61.9428532,40.8552007 C61.8178532,40.9759367 61.3273359,40.9681193 61.1057842,40.8430402 C60.9350946,40.7474936 59.865267,40.414818 59.5730256,40.3670447 C59.491129,40.353147 59.2247497,40.2697609 58.9928532,40.1846377 C58.7540601,40.0969086 58.3169911,39.9978876 58.0040601,39.9614062 C57.6919911,39.9240562 57.4230256,39.8571736 57.3945773,39.8085317 C57.3669911,39.7607585 57.2126808,39.7225398 57.0514739,39.7225398 C56.890267,39.7225398 56.7333704,39.6808468 56.7023359,39.6304677 C56.6471635,39.54187 55.6299222,39.330799 55.2868187,39.3368793 C54.7721635,39.3455653 54.1264739,39.2656537 54.1264739,39.1935595 C54.1264739,39.1475234 54.0359566,39.1127792 53.915267,39.1127792 C53.7954394,39.1127792 53.5868187,39.0311303 53.4359566,38.9242919 C53.2368187,38.7844465 53.0273359,38.7444907 52.6135428,38.7670744 C52.3014739,38.7844465 51.9273359,38.7384105 51.7566463,38.6619732 C51.2523359,38.4352674 50.7799222,38.299765 50.4954394,38.299765 C50.3549222,38.299765 50.1894049,38.2545975 50.1376808,38.2033499 C50.0850946,38.1494963 49.8299222,38.0904312 49.5678532,38.0704533 C49.3057842,38.051344 49.0626808,38.0035707 49.0230256,37.9644835 C48.9842325,37.9245277 48.8118187,37.8932579 48.6299222,37.8932579 C48.4480256,37.8932579 48.2014739,37.8133462 48.065267,37.7099823 C47.8988877,37.5840345 47.6213015,37.5197578 47.1773359,37.5023857 C46.4799222,37.4745903 46.0583704,37.3877298 45.3523359,37.1262798 C45.1006118,37.033339 44.4945773,36.9238948 43.991129,36.8813332 C43.0428532,36.8022901 42.7299222,36.7197727 42.7299222,36.5512633 C42.7299222,36.5008842 42.4471635,36.46614 42.0945773,36.4739575 C41.4488877,36.4869865 40.6868187,36.2168504 40.5919911,35.9423713 C40.5187153,35.7286945 40.6057842,34.2138475 40.6988877,34.0922428 C40.7445773,34.0314405 40.7928532,33.7369834 40.8040601,33.4416577 C40.8144049,33.1480693 40.8626808,32.7997587 40.9092325,32.6746796 C40.9592325,32.5426516 40.9566463,32.3750109 40.9040601,32.2785957 C40.8445773,32.1682829 40.8687153,31.9485259 40.9747497,31.6332223 C41.0644049,31.3691664 41.116129,31.046914 41.091129,30.9114116 C41.066129,30.7767778 41.0859566,30.4545254 41.1359566,30.1904695 C41.1868187,29.9264136 41.2316463,29.6215333 41.2376808,29.5094833 C41.2428532,29.3991705 41.2842325,29.1438006 41.328198,28.9501017 C41.3721635,28.7555342 41.4316463,28.402012 41.4592325,28.1683573 C41.4868187,27.9347026 41.5600946,27.6445885 41.6204394,27.5281955 C41.6842325,27.4057222 41.703198,27.2250524 41.666129,27.1060535 C41.6273359,26.9844488 41.653198,26.8645813 41.7264739,26.8159394 C41.7954394,26.7725092 41.8609566,26.5822847 41.8713015,26.3998777 C41.903198,25.8309415 42.2376808,23.9252223 42.3247497,23.8183839 C42.3704394,23.7627932 42.4100946,23.4431466 42.4118187,23.1069965 C42.415267,22.771715 42.465267,22.2731357 42.5230256,21.9995252 C42.5816463,21.725046 42.6359566,21.2924808 42.6445773,21.0345051 C42.6523359,20.7800039 42.7187153,20.4464596 42.790267,20.3022712 C42.8609566,20.1606886 42.9195773,19.9496176 42.916129,19.845385 C42.9144049,19.7385466 42.9368187,19.4692791 42.9669911,19.2460476 C42.9971635,19.0236848 43.0480256,18.636287 43.078198,18.392209 C43.1083704,18.148131 43.2023359,17.7164344 43.2850946,17.4419552 C43.3669911,17.1674761 43.4083704,16.8956027 43.3756118,16.8426178 C43.3419911,16.7887643 43.3695773,16.6801887 43.4359566,16.5985398 C43.503198,16.516891 43.5256118,16.450877 43.4868187,16.450877 C43.4488877,16.450877 43.465267,16.3900747 43.5230256,16.3188491 C43.6290601,16.1876897 43.6497497,16.0652164 43.790267,14.7240904 C43.8290601,14.3575392 43.8730256,13.9953309 43.8894049,13.9110762 C43.9066463,13.825953 43.9514739,13.5549482 43.991129,13.3013156 C44.0299222,13.0468144 44.0997497,12.7697294 44.1471635,12.6759201 C44.1937153,12.5838479 44.2583704,12.1981874 44.2885428,11.8220814 C44.3187153,11.4468441 44.4118187,11.0307824 44.4945773,10.9030974 C44.6006118,10.7397997 44.6359566,10.4757438 44.6109566,10.0284123 C44.591129,9.67315287 44.6135428,9.28662368 44.6609566,9.15980737 C44.7083704,9.03472826 44.7747497,8.53006881 44.8075084,8.04191284 C44.841129,7.55462549 44.8747497,7.04996603 44.8833704,6.92488693 C44.891129,6.80241363 44.9385428,6.69557523 44.9842325,6.69557523 C45.0307842,6.69557523 45.0419911,6.54356937 45.0092325,6.36029373 C44.9764739,6.1778867 44.9919911,5.88603545 45.0437153,5.72013191 C45.1376808,5.41959461 45.2135428,4.82633746 45.3359566,3.44351843 L45.4023359,2.68175192 L45.8514739,2.66611704 C46.0937153,2.65829959 46.3178532,2.60010306 46.3385428,2.53930072 C46.3945773,2.37252858 46.7747497,2.40292975 47.1773359,2.60792051 C47.5299222,2.78685312 48.3178532,2.99010667 48.9833704,3.07436135 C49.1773359,3.09868228 49.5178532,3.1725137 49.7394049,3.23765907 C50.1540601,3.36100097 51.1109566,3.57467778 52.1100946,3.76750807 C52.6497497,3.87174066 52.7445773,3.90127322 53.3497497,4.14361399 C53.5057842,4.20615355 53.7635428,4.25653263 53.9247497,4.25653263 C54.0859566,4.25653263 54.3256118,4.29822567 54.4600946,4.34860475 C54.591129,4.39811523 54.903198,4.46760363 55.1454394,4.50061061 C55.3919911,4.5344862 55.791129,4.60918623 56.0428532,4.66825136 C56.2919911,4.72644789 57.1118187,4.88974561 57.8583704,5.0287224 C58.6049222,5.16856779 59.3635428,5.35010622 59.5376808,5.43088648 C59.7135428,5.51253534 60.2540601,5.69146795 60.7480256,5.83218194 C61.2419911,5.97289594 61.8049222,6.1770181 62.0083704,6.28906813 C62.2100946,6.40111816 62.4816463,6.49232168 62.6083704,6.49232168 C62.7376808,6.49232168 62.9764739,6.53314611 63.1480256,6.58352519 C63.3187153,6.63477288 63.7230256,6.7251078 64.0557842,6.78677874 C64.3885428,6.8493183 64.6807842,6.93704739 64.7118187,6.98482066 C64.7419911,7.03259394 65.0195773,7.1316149 65.3221635,7.2037091 C65.6238877,7.27580331 65.991129,7.39393358 66.128198,7.46342197 C66.2695773,7.53377897 66.6023359,7.61803365 66.8850946,7.65451505 C67.4497497,7.72660926 67.8230256,7.81694417 69.003198,8.16525474 C69.4463015,8.29554548 70.0825084,8.47882112 70.4144049,8.57089324 C71.2523359,8.80367935 71.6144049,9.00953872 71.7480256,9.32744812 C71.8971635,9.68357613 71.9997497,10.9638998 71.890267,11.106351 M64.116129,43.7876108 C64.0057842,43.7876108 63.8600946,43.8709969 63.7842325,43.9804411 C63.6583704,44.1576365 63.5264739,44.1706656 62.1850946,44.141133 C60.6928532,44.1081261 59.8376808,44.0073679 59.5730256,43.8353841 C59.490267,43.780662 59.1497497,43.7285457 58.816129,43.7189911 C57.828198,43.6911957 56.8023359,43.5704596 56.6988877,43.4688328 C56.6471635,43.4193224 56.5066463,43.3802351 56.3756118,43.3802351 C56.2445773,43.3802351 56.0695773,43.3428851 55.9721635,43.2933746 C55.6100946,43.1083618 55.0549222,42.973728 54.6514739,42.973728 C54.4195773,42.973728 54.2273359,42.9329036 54.2273359,42.8825245 C54.2273359,42.7635256 53.6626808,42.5680895 53.3195773,42.5680895 C53.1687153,42.5680895 53.0187153,42.538557 52.9816463,42.5020756 C52.9454394,42.4647256 52.7747497,42.4195581 52.5937153,42.3995802 C52.4126808,42.3796023 52.0894049,42.2753697 51.8575084,42.1607138 C51.6256118,42.0469266 51.3488877,41.9583289 51.2273359,41.9583289 C51.1057842,41.9583289 50.9807842,41.9079498 50.9445773,41.8462789 C50.9083704,41.7846079 50.7126808,41.7550753 50.5109566,41.7802649 C50.2609566,41.8115347 49.8506118,41.7194625 49.2350946,41.4953625 C48.7307842,41.3120868 48.103198,41.155738 47.8230256,41.1444461 C46.9359566,41.1079647 46.8187153,41.0879868 46.4213015,40.9099228 C46.2092325,40.8152448 45.9799222,40.7388076 45.9066463,40.7388076 C45.8368187,40.7388076 45.7592325,40.6892971 45.740267,40.6319692 C45.7204394,40.5711668 45.4428532,40.5251308 45.1006118,40.5251308 C44.7669911,40.5251308 44.4497497,40.4877808 44.3937153,40.4426133 C44.2721635,40.3435924 43.1126808,39.9987562 42.2963015,39.8198236 C41.9738877,39.7494666 41.6885428,39.6530515 41.6609566,39.6052782 C41.6325084,39.5566363 41.5247497,39.5184177 41.4135428,39.5184177 C41.303198,39.5184177 41.2169911,39.4749874 41.2169911,39.4176595 C41.2169911,39.3585944 41.1514739,39.3160327 41.0609566,39.3160327 C40.9773359,39.3160327 40.7988877,39.2465444 40.6773359,39.1683699 C40.5549222,39.0884583 40.2290601,38.9929117 39.9669911,38.9599047 C39.7040601,38.9268977 39.415267,38.8313512 39.3359566,38.7523082 C39.2540601,38.6689221 39.1195773,38.5664267 39.0290601,38.5177848 C38.8868187,38.4422162 38.891129,38.4066034 39.0592325,38.2233278 C39.1618187,38.1112777 39.2626808,38.0105196 39.2756118,38.0044393 C39.2894049,37.9992277 39.578198,38.1078033 39.9213015,38.2493859 C40.2644049,38.3892313 40.6816463,38.5030185 40.8540601,38.5030185 C41.0290601,38.5030185 41.3885428,38.5742441 41.6713015,38.6654477 C41.9480256,38.754914 42.6290601,38.8504605 43.1833704,38.8791245 C43.7385428,38.9069198 44.2695773,38.9711966 44.3644049,39.0207071 C44.4600946,39.0719548 44.6463015,39.1127792 44.7876808,39.1127792 C44.928198,39.1127792 45.066129,39.157078 45.1006118,39.214406 C45.1333704,39.2691281 45.2868187,39.3160327 45.4376808,39.3160327 C45.5894049,39.3160327 45.7592325,39.3568572 45.8109566,39.4072363 C45.8635428,39.4576153 46.0885428,39.5227607 46.3100946,39.5514247 C46.8937153,39.6278619 47.5204394,39.7737875 48.378198,40.0326318 C48.791129,40.1577109 49.340267,40.2810528 49.5885428,40.3062423 C49.840267,40.3314319 50.0842325,40.3931028 50.1376808,40.4434819 C50.191129,40.4947296 50.4247497,40.535554 50.6678532,40.535554 C51.1704394,40.535554 52.190267,40.7527053 53.7937153,41.2009054 C54.0842325,41.2825543 54.6514739,41.3702834 55.0644049,41.3972101 C55.8816463,41.4510636 56.0738877,41.5023113 56.4566463,41.7663672 C56.6014739,41.8671254 57.0514739,42.0017591 57.465267,42.0695103 C57.878198,42.1372615 58.2540601,42.2302022 58.3066463,42.2779755 C58.3592325,42.3240116 58.4635428,42.3639674 58.5342325,42.3639674 C58.6049222,42.3639674 58.8618187,42.4525651 59.0937153,42.5576663 C59.3256118,42.6618989 59.6497497,42.7782919 59.7997497,42.8112989 C59.9514739,42.8451745 60.203198,42.9007652 60.3540601,42.9337722 C60.5057842,42.9667792 60.7238877,43.0362676 60.8333704,43.0857781 C60.9445773,43.1361572 61.3980256,43.1952223 61.8419911,43.217806 C62.2859566,43.2403897 62.6713015,43.2699223 62.6997497,43.28382 C62.7273359,43.2985863 63.0221635,43.3203014 63.3549222,43.3333305 C64.3135428,43.3706805 64.3135428,43.3706805 64.3135428,43.5843573 C64.3135428,43.7155166 64.2445773,43.7876108 64.116129,43.7876108 M38.7894049,31.2371384 C38.6928532,31.3570059 38.5635428,32.53744 38.5764739,33.1880251 C38.5816463,33.4321031 38.5514739,33.6249334 38.5092325,33.6249334 C38.4678532,33.6249334 38.4264739,33.808209 38.4187153,34.0314405 C38.4100946,34.2546719 38.3333704,34.5387057 38.2471635,34.6620476 C38.1618187,34.7836523 38.090267,34.9660593 38.090267,35.0633431 C38.090267,35.1649699 37.9997497,35.3282676 37.8790601,35.4446606 C37.7221635,35.5940607 37.6850946,35.7182712 37.7350946,35.9215247 C37.8204394,36.2646237 37.5764739,36.4626656 37.0618187,36.4671417 C36.7290601,36.4696144 36.6695773,36.4357389 36.6126808,36.2064272 C36.5773359,36.0613701 36.5954394,35.7738619 36.653198,35.571477 C36.7126808,35.3630118 36.7471635,34.9764826 36.7325084,34.6915802 C36.6988877,34.0722649 36.9325084,32.4453679 37.1178532,31.998905 C37.2195773,31.7565642 37.228198,31.552442 37.1549222,31.196314 C37.0247497,30.5665755 37.0471635,30.2877533 37.2437153,30.094923 C37.3428532,29.9976392 37.3850946,29.8352101 37.3540601,29.6719124 C37.3273359,29.5294612 37.3669911,29.2905948 37.440267,29.1533553 C37.5144049,29.0152471 37.5790601,28.7729063 37.5807842,28.6200318 C37.5842325,28.468026 37.6204394,28.3403411 37.6618187,28.3403411 C37.7023359,28.3403411 37.7445773,28.2343713 37.753198,28.111898 C37.7609566,27.9868189 37.815267,27.6089757 37.8738877,27.2736942 C37.9325084,26.9358069 37.9954394,26.3694765 38.015267,26.0037938 C38.0342325,25.6381112 38.0859566,25.2837204 38.1307842,25.2107576 C38.1747497,25.139532 38.2213015,24.8042505 38.2316463,24.4793922 C38.2428532,24.1536654 38.3023359,23.8192525 38.3626808,23.7480269 C38.4238877,23.6750641 38.5049222,23.3406512 38.5428532,23.0053697 C38.6678532,21.9083217 38.6850946,21.7927972 38.8325084,21.1152854 C38.9118187,20.7496027 39.0264739,20.3526503 39.0842325,20.2414689 C39.1428532,20.1302874 39.1626808,20.0104199 39.1299222,19.977413 C39.0523359,19.8975013 39.3014739,19.2964267 39.4118187,19.2964267 C39.4557842,19.2964267 39.490267,19.0931732 39.4876808,18.8499638 C39.4842325,18.6058858 39.5126808,18.3539904 39.5480256,18.2957938 C39.5842325,18.2367287 39.6385428,17.8588856 39.6687153,17.4523785 C39.6997497,17.0458714 39.7583704,16.6445759 39.8006118,16.5577154 C39.8419911,16.4699863 39.9066463,16.1972444 39.9463015,15.9427431 C40.0204394,15.4554558 40.1738877,14.9160521 40.3445773,14.5408148 C40.4230256,14.3679624 40.415267,14.2845764 40.3144049,14.2202996 C40.2437153,14.1760007 40.2049222,14.0926147 40.2342325,14.0483158 C40.2644049,14.0005425 40.3187153,13.5549482 40.3549222,13.0468144 C40.4307842,12.0001454 40.6609566,11.1671533 40.8738877,11.1671533 C41.0463015,11.1671533 41.0678532,10.9083091 40.9040601,10.8084195 C40.8342325,10.7649892 40.8307842,10.7033183 40.8945773,10.6381729 C40.9523359,10.580845 40.9738877,10.4757438 40.9445773,10.3949636 C40.916129,10.3133147 40.9264739,10.1760751 40.9704394,10.0744483 C41.0109566,9.9780332 41.0575084,9.73395522 41.0713015,9.54112492 C41.0850946,9.34482021 41.1687153,8.90617473 41.2575084,8.56046998 C41.3471635,8.21476522 41.4187153,7.81954999 41.4187153,7.67623018 C41.4187153,7.53117316 41.4876808,7.20892073 41.5756118,6.94486484 C41.6609566,6.68515197 41.7523359,6.17267507 41.7773359,5.8061238 C41.8014739,5.44130973 41.8704394,5.08083869 41.928198,5.00874449 C41.9868187,4.93578167 42.0488877,4.63263856 42.0669911,4.32775824 C42.1118187,3.58596964 42.3764739,3.03701133 42.6894049,3.03701133 C42.8238877,3.03701133 43.078198,2.94667642 43.2592325,2.83462639 C43.441129,2.72170775 43.7221635,2.6417961 43.8894049,2.65569378 C44.1704394,2.68001471 44.190267,2.70694147 44.1618187,3.03266831 C44.1454394,3.2254986 44.0799222,3.41659168 44.016129,3.45915332 C43.9557842,3.49910915 43.9316463,3.56686033 43.965267,3.60160453 C44.0006118,3.63634872 43.9859566,3.78401156 43.9350946,3.91603951 C43.8816463,4.0567535 43.815267,4.30778032 43.7833704,4.49018735 C43.6790601,5.099948 43.3971635,6.03196107 43.278198,6.15704018 C43.1833704,6.25779835 43.1799222,6.37592862 43.2644049,6.65040777 C43.3488877,6.92488693 43.3454394,7.09339628 43.2497497,7.35658357 C43.1790601,7.54941386 43.1523359,7.81346975 43.1885428,7.95592096 C43.2342325,8.13051055 43.1894049,8.316392 43.0480256,8.55004672 C42.9307842,8.74374561 42.8644049,8.98348057 42.8954394,9.10421665 C42.9583704,9.34829463 42.7618187,10.1508856 42.6394049,10.1508856 C42.5885428,10.1508856 42.5592325,10.3081031 42.5738877,10.5113566 C42.5876808,10.7146102 42.5618187,10.8944114 42.5135428,10.9230753 C42.466129,10.9508707 42.4273359,11.1775766 42.4273359,11.420786 C42.4273359,11.6648639 42.3859566,11.893307 42.3368187,11.9237082 C42.2859566,11.954978 42.2463015,12.1269618 42.2463015,12.3102374 C42.2463015,12.493513 42.1963015,12.7671236 42.1350946,12.9252097 C42.0756118,13.0780841 42.0238877,13.3673296 42.0238877,13.5497366 C42.0238877,13.7356181 41.9506118,14.0682937 41.8626808,14.2819705 C41.7678532,14.5104136 41.7014739,14.9473219 41.7014739,15.3338511 C41.7014739,15.780314 41.6394049,16.123413 41.5100946,16.3952863 C41.403198,16.6193864 41.3178532,16.8938655 41.3178532,17.0154702 C41.3178532,17.1353377 41.2738877,17.3663866 41.2187153,17.5288157 C41.1221635,17.8163239 40.7488877,20.0590618 40.6618187,20.872076 C40.5833704,21.6138646 40.5437153,21.8344903 40.4807842,21.8978984 C40.4419911,21.9369856 40.4100946,22.1115752 40.4100946,22.2844276 C40.4100946,22.4607544 40.3394049,22.8229627 40.2488877,23.1069965 C40.1583704,23.3918989 40.0773359,23.7497641 40.0644049,23.9200107 C39.9885428,24.9267238 39.8678532,25.5720972 39.7273359,25.7293147 C39.6083704,25.8613426 39.5600946,26.1358218 39.553198,26.7247359 C39.5471635,27.1720675 39.4997497,27.5698885 39.4471635,27.6089757 C39.3928532,27.6489316 39.3471635,27.8122293 39.3419911,27.9850817 C39.3256118,28.5236167 39.178198,29.5068775 39.0971635,29.61111 C39.0540601,29.6658322 39.0187153,29.8855892 39.0187153,30.0888428 C39.0187153,30.525751 38.9057842,31.09295 38.7894049,31.2371384 M74.2419911,9.165019 C74.2006118,9.06426083 74.1480256,8.89053984 74.1264739,8.77848981 C74.1040601,8.66730838 74.0428532,8.55960137 73.990267,8.53962346 C73.9368187,8.51964555 73.8299222,8.3520048 73.7488877,8.15917451 C73.4833704,7.52856734 72.5937153,6.89882878 71.9678532,6.89882878 C71.8066463,6.89882878 71.6756118,6.86495319 71.6756118,6.82239155 C71.6756118,6.78069851 71.3273359,6.63998451 70.8937153,6.50795657 C70.4600946,6.37506002 70.0221635,6.2308716 69.9100946,6.18309833 C69.7988877,6.13445645 69.3756118,6.02327503 68.9626808,5.93380872 C68.5488877,5.84347381 67.9644049,5.67757027 67.6514739,5.56291442 C67.340267,5.44738997 66.7333704,5.29017248 66.2997497,5.21199804 C65.866129,5.13382359 65.2575084,4.97834332 64.9437153,4.86629328 C64.6307842,4.75511185 64.1419911,4.66390834 63.8592325,4.66390834 C63.5066463,4.66390834 63.2816463,4.60744902 63.1428532,4.48323851 C62.9609566,4.321678 62.7497497,4.20789076 62.165267,3.95599533 C62.041129,3.90301043 61.7213015,3.83873367 61.4385428,3.81180692 C60.6618187,3.73623829 60.1316463,3.6328743 60.0756118,3.54514521 C59.9721635,3.38619051 58.4842325,3.03701133 57.9092325,3.03701133 C57.3238877,3.03701133 55.9419911,2.66611704 55.9419911,2.50889955 C55.9419911,2.4646007 55.7256118,2.42725069 55.4635428,2.42725069 C55.2006118,2.42725069 54.3687153,2.27177041 53.6221635,2.08241453 C52.8764739,1.89305866 51.9463015,1.7045714 51.565267,1.66635278 C50.6066463,1.56993764 50.3885428,1.52477018 50.0523359,1.35539222 C49.8894049,1.27374336 49.4773359,1.15821891 49.1247497,1.09654796 C48.6609566,1.0148991 48.4721635,0.935856049 48.428198,0.802090892 C48.3894049,0.683092019 48.2368187,0.601443157 47.9945773,0.568436171 C47.3592325,0.483312889 46.1221635,0.195804663 45.9368187,0.0915720734 C45.715267,-0.034375639 45.6790601,-0.0326384292 45.6307842,0.110681381 C45.6083704,0.178432565 45.3626808,0.220125601 44.9988877,0.217519786 C44.5859566,0.214045366 44.3721635,0.255738402 44.2997497,0.354759362 C44.1178532,0.602311762 43.4463015,0.787324609 43.0937153,0.685697834 C42.6695773,0.564961751 42.0506118,0.572779195 41.9738877,0.700464118 C41.9325084,0.769952511 41.8523359,0.769952511 41.7213015,0.700464118 C41.6135428,0.643136193 41.3730256,0.598837343 41.1721635,0.598837343 C40.8790601,0.598837343 40.7928532,0.649216428 40.6980256,0.87765952 C40.6325084,1.03661422 40.5273359,1.28937825 40.4557842,1.46223063 C40.3842325,1.635083 40.2747497,1.8991389 40.203198,2.07199128 C40.1316463,2.24484365 40.091129,2.42030185 40.1092325,2.47849837 C40.1695773,2.67132867 40.1075084,3.86652903 40.028198,4.03330117 C39.9833704,4.12797911 39.9333704,4.38942918 39.916129,4.61266065 C39.8997497,4.83589211 39.8514739,5.08778753 39.8100946,5.17117361 C39.7687153,5.25542828 39.7023359,5.59852722 39.6635428,5.93380872 C39.6256118,6.26909022 39.5023359,6.71902756 39.3919911,6.93444158 C39.2816463,7.14811839 39.2169911,7.40869986 39.2506118,7.50858943 C39.2842325,7.6102162 39.2644049,7.72139763 39.2049222,7.75787904 C39.1445773,7.79522905 39.1213015,7.86037442 39.1497497,7.9098849 C39.1773359,7.95678956 39.1256118,8.14353962 39.0385428,8.316392 C38.9514739,8.48924437 38.9006118,8.72811073 38.9273359,8.83494913 C38.9566463,8.94699916 38.9385428,9.05731199 38.8876808,9.08858176 C38.8368187,9.11985154 38.7971635,9.25622251 38.7971635,9.39867372 C38.7971635,9.54112492 38.7437153,9.75132731 38.6756118,9.87640642 C38.6083704,10.0006169 38.5213015,10.3437159 38.4790601,10.6485962 C38.4368187,10.9534765 38.3497497,11.2314301 38.2825084,11.2739917 C38.1609566,11.350429 38.1325084,12.6403073 38.2428532,13.0068585 C38.2704394,13.0971934 38.228198,13.2240098 38.1463015,13.296104 C38.0523359,13.3777528 38.0195773,13.5245471 38.0557842,13.7078227 C38.0850946,13.8598286 38.0566463,14.0934833 37.9945773,14.2107449 C37.9307842,14.3306124 37.8764739,14.6624195 37.8738877,14.9473219 C37.8713015,15.2356987 37.7773359,15.7394896 37.6618187,16.0851943 C37.5350946,16.4647747 37.4437153,17.0458714 37.4247497,17.5844064 C37.4049222,18.1733206 37.341129,18.5468207 37.2316463,18.7170672 C37.0092325,19.062772 36.8695773,19.5874094 36.9816463,19.6568977 C37.1213015,19.7437582 37.0988877,20.0998862 36.9213015,20.6175748 C36.7790601,21.0327679 36.6592325,21.6338425 36.5169911,22.6501103 C36.4894049,22.8455464 36.4049222,23.1886453 36.328198,23.4118768 C36.1756118,23.8618141 36.090267,24.2961166 36.0307842,24.9267238 C36.0100946,25.1499552 35.9428532,25.350603 35.8816463,25.3731867 C35.8126808,25.3992448 35.7713015,25.7136798 35.7713015,26.212259 C35.7713015,26.6491673 35.7023359,27.3084384 35.6195773,27.6697781 C35.5359566,28.0363293 35.4764739,28.3672678 35.4859566,28.4115667 C35.516129,28.5531493 35.3445773,29.2958065 35.2325084,29.5094833 C35.1738877,29.6206647 35.1187153,29.7813566 35.1100946,29.8647427 C35.0368187,30.5865534 34.8083704,31.5776316 34.6807842,31.7244258 C34.5747497,31.8468991 34.5618187,31.9363654 34.6359566,32.0293061 C34.7419911,32.1630713 34.7247497,33.9402369 34.6066463,34.9764826 C34.5704394,35.2917862 34.5566463,35.5740828 34.5756118,35.5966665 C34.5963015,35.6192502 34.5169911,35.7382491 34.3954394,35.8711457 C34.1704394,36.1152236 33.9928532,36.6129343 34.040267,36.8665669 C34.0549222,36.9447413 34.178198,37.2530961 34.3135428,37.5475531 C34.4488877,37.8420102 34.5609566,38.1295184 34.5609566,38.1825033 C34.5609566,38.2354882 34.7394049,38.477829 34.9592325,38.7210384 C35.1790601,38.9651164 35.3600946,39.1970339 35.3626808,39.2395955 C35.365267,39.284763 35.4040601,39.3160327 35.4583704,39.3160327 C35.5092325,39.3160327 35.690267,39.4489293 35.8721635,39.6209131 C36.053198,39.7920282 36.2566463,39.9257934 36.3359566,39.9257934 C36.416129,39.9257934 36.4773359,39.9692236 36.4773359,40.0274202 C36.4773359,40.0847481 36.5678532,40.1290469 36.6885428,40.1290469 C36.8669911,40.1290469 38.0100946,40.6232831 38.8264739,41.0549798 C38.9178532,41.1027531 39.1144049,41.1453147 39.2454394,41.1453147 C39.3764739,41.1453147 39.5204394,41.193088 39.553198,41.2469415 C39.5876808,41.3042694 39.6997497,41.3476996 39.8100946,41.3476996 C39.9178532,41.3476996 40.0971635,41.3937357 40.2083704,41.450195 C40.3195773,41.5057857 40.5014739,41.5969892 40.6118187,41.65258 C40.7213015,41.7081707 40.9497497,41.7550753 41.1109566,41.7550753 C41.2730256,41.7550753 41.5290601,41.8011114 41.6713015,41.8558335 C41.8178532,41.9131614 42.1549222,41.9670149 42.4376808,41.9783068 C42.7704394,41.9913359 42.9963015,42.0608243 43.103198,42.1815604 C43.1928532,42.2831871 43.3256118,42.3639674 43.4006118,42.3639674 C43.4756118,42.3639674 43.6273359,42.443879 43.7385428,42.5402942 C44.0169911,42.7843722 44.8480256,42.9667792 45.6954394,42.9711222 C46.1790601,42.973728 46.5307842,43.0380048 46.8144049,43.1769816 C47.0445773,43.2899002 47.4704394,43.4262712 47.7730256,43.4818619 C48.0756118,43.5383212 48.3488877,43.635605 48.3885428,43.7007503 C48.4256118,43.7632899 48.5644049,43.789348 48.6850946,43.7563411 C48.8109566,43.7233341 49.0437153,43.7641585 49.2049222,43.8475446 C49.3799222,43.9387481 49.7092325,43.9899958 50.0221635,43.9752295 C50.3144049,43.9613318 50.7471635,44.0221342 50.9997497,44.1124691 C51.2480256,44.2010668 51.7971635,44.376525 52.2100946,44.4981297 C52.6238877,44.620603 53.1514739,44.7865065 53.3756118,44.8646809 C53.5971635,44.9419868 53.9264739,45.0062635 54.0963015,45.0062635 C54.2678532,45.0062635 54.4247497,45.0479566 54.4437153,45.0983357 C54.4833704,45.2060427 54.8221635,45.2885601 55.6195773,45.3806322 C55.9118187,45.4153764 56.1764739,45.482259 56.2049222,45.5300323 C56.2316463,45.576937 56.4213015,45.6160242 56.6230256,45.6160242 C56.8230256,45.6160242 57.1773359,45.7046219 57.3997497,45.8097231 C57.6247497,45.9156929 58.0445773,46.0277429 58.3376808,46.0581441 C58.6299222,46.0894139 59.0359566,46.1962523 59.2454394,46.2970104 C59.5713015,46.4542279 59.8506118,46.475943 61.2626808,46.4490163 C62.5626808,46.425564 62.9445773,46.4498849 63.1126808,46.5671466 C63.3126808,46.7078606 63.5971635,46.7087292 64.4842325,46.5723582 C64.6773359,46.541957 64.9635428,46.3734477 65.165267,46.1701941 C65.3566463,45.9773638 65.5859566,45.8192777 65.6747497,45.8192777 C65.8178532,45.8192777 65.8738877,45.6464254 65.8316463,45.3319904 C65.8230256,45.2633706 65.8859566,45.2095171 65.9773359,45.2095171 C66.0678532,45.2095171 66.1626808,45.1435031 66.1937153,45.0575112 C66.2247497,44.9741251 66.3937153,44.7526309 66.5678532,44.5693553 C66.740267,44.3860796 66.953198,44.128104 67.0342325,44.000419 C67.3790601,43.461884 67.5454394,43.3046665 67.8333704,43.24647 C68.0247497,43.2082514 68.1497497,43.1066246 68.1963015,42.9537501 C68.2359566,42.8217222 68.3238877,42.6540814 68.3980256,42.5680895 C68.4704394,42.4829663 68.578198,42.2275964 68.6394049,41.9939417 C68.7014739,41.760287 68.8204394,41.5153404 68.9066463,41.4449834 C68.9980256,41.3702834 69.0575084,41.1652926 69.0488877,40.9516158 C69.0299222,40.4747517 69.1575084,39.6026724 69.265267,39.4680386 C69.315267,39.4063677 69.3738877,39.1327571 69.3963015,38.858278 C69.4187153,38.5837988 69.4868187,38.3423266 69.5480256,38.3197429 C69.6100946,38.2971592 69.6583704,38.0661103 69.6583704,37.7916311 C69.6583704,37.5267066 69.7023359,37.2878403 69.7540601,37.2678624 C69.8075084,37.2487531 69.8773359,36.9377925 69.9100946,36.5721098 C69.9445773,36.2064272 70.0350946,35.7799421 70.115267,35.6166444 C70.290267,35.261385 70.3040601,35.0477082 70.1523359,35.0477082 C70.0833704,35.0477082 70.0704394,34.9816942 70.1169911,34.8696442 C70.1592325,34.7714918 70.2049222,34.4883266 70.2204394,34.234694 C70.2557842,33.6457799 70.3247497,33.2661995 70.4264739,33.0968216 C70.4687153,33.025596 70.5195773,32.7563284 70.5359566,32.5122505 C70.5523359,32.2681725 70.6100946,31.9033584 70.6618187,31.7192142 C70.7135428,31.5368071 70.7342325,31.3205245 70.7075084,31.2519047 C70.6799222,31.1824163 70.7497497,30.835843 70.8635428,30.479715 C70.9773359,30.1244556 71.0704394,29.7066566 71.0704394,29.5503077 C71.0704394,29.3974332 71.1100946,29.2393471 71.1557842,29.2098146 C71.2014739,29.180282 71.2204394,29.0369622 71.1963015,28.9049343 C71.1695773,28.75814 71.2385428,28.514062 71.3635428,28.3108085 C71.4816463,28.1171096 71.5747497,27.8912723 71.5747497,27.797463 C71.5747497,27.7053909 71.6092325,27.6289536 71.6506118,27.6289536 C71.6919911,27.6289536 71.728198,27.4109338 71.7307842,27.1468779 C71.7342325,26.8836906 71.7678532,26.4103009 71.8066463,26.1054206 C71.8454394,25.8005403 71.8954394,25.3749239 71.9178532,25.1699331 C71.9394049,24.9675482 71.990267,24.7425795 72.028198,24.6826458 C72.0678532,24.6201062 72.115267,24.336941 72.1350946,24.042484 C72.1540601,23.7480269 72.2213015,23.3119872 72.2859566,23.0566174 C72.3506118,22.8021161 72.4238877,22.4069009 72.4523359,22.1671659 C72.4790601,21.9335112 72.5445773,21.7354693 72.5937153,21.7354693 C72.6428532,21.7354693 72.6790601,21.5834634 72.6730256,21.4001878 C72.6514739,20.760026 72.8040601,19.588278 72.9454394,19.3172732 C73.0307842,19.1531069 73.0876808,18.7274905 73.0876808,18.260181 C73.0876808,17.3559633 73.2445773,16.5064677 73.4506118,16.2988711 C73.6100946,16.1381792 73.6876808,15.6786872 73.7264739,14.6624195 C73.741129,14.2663357 73.7799222,13.9084704 73.8135428,13.8546169 C73.8471635,13.8025006 73.840267,13.5653715 73.7988877,13.3317168 C73.7437153,13.0216248 73.7764739,12.7011096 73.9195773,12.1625746 C74.0273359,11.7569361 74.1325084,11.1228545 74.1514739,10.7606462 C74.1713015,10.3949636 74.216129,9.93199714 74.2523359,9.72440056 C74.2876808,9.52027841 74.2833704,9.26403996 74.2419911,9.165019" id="Fill-1"></path>
                    <path d="M11.4757842,14.8098217 C11.3559566,14.6977717 11.2637153,14.5101531 11.2637153,14.3781251 C11.2637153,14.0862739 11.6369911,13.6719493 12.0309566,13.5268923 C12.4240601,13.3818353 12.4240601,13.3818353 12.736129,13.6259132 C13.1292325,13.9325308 13.1766463,14.0167855 13.1516463,14.3677018 C13.1335428,14.6213345 13.0490601,14.712538 12.6559566,14.9053683 C12.1413015,15.1581323 11.8206118,15.1320742 11.4757842,14.8098217 L11.4757842,14.8098217 Z M7.89906008,12.6608932 C7.70250836,12.2439628 7.83095663,11.7670987 8.23871525,11.4022847 C8.68612905,11.0001206 9.96371525,11.177316 10.1344049,11.6646034 C10.5197497,12.76252 10.5240601,12.8337456 10.2292325,13.2706538 C10.0197497,13.5816144 9.96285319,13.6059353 9.43871525,13.6059353 C8.81285319,13.6059353 8.36716353,13.437426 8.28268077,13.1690271 C8.25337043,13.0769549 8.18785319,12.9961747 8.14216353,12.9961747 C8.09561181,12.9961747 7.98526698,12.8433002 7.89906008,12.6608932 L7.89906008,12.6608932 Z M11.6671635,10.6483356 C11.6671635,10.3842797 11.7188877,10.2227192 11.8137153,10.1862378 C11.8973359,10.154968 11.9835428,10.0542098 12.0154394,9.95258307 C12.0464739,9.85269351 12.2369911,9.73022021 12.4490601,9.67289229 C12.661129,9.61643297 12.8542325,9.56518528 12.8878532,9.55736784 C13.0154394,9.52783527 13.6438877,9.7805993 13.9059566,9.96734936 C14.0576808,10.0750564 14.1559566,10.2218506 14.1283704,10.2982878 C14.1016463,10.3695134 14.1309566,10.469403 14.1887153,10.506753 C14.3421635,10.6049054 14.3163015,10.9940404 14.1413015,11.2276951 C14.0654394,11.3293219 13.9947497,11.4882766 13.9930256,11.5629766 C13.985267,11.8513534 13.5938877,12.0702419 13.1999222,12.0059651 C12.2525084,11.8513534 11.6671635,11.3336649 11.6671635,10.6483356 L11.6671635,10.6483356 Z M26.8059566,24.9777109 C26.7050946,25.1245051 26.5464739,25.5562017 26.4490601,25.9531542 C26.198198,26.9694219 26.0973359,27.1969964 25.8171635,27.3794034 C25.686129,27.4653953 25.6050946,27.5843942 25.6413015,27.6399849 C25.6757842,27.6938384 25.6697497,27.822392 25.6292325,27.9135955 C25.536129,28.1246665 25.4826808,28.4834003 25.4775084,28.9298632 C25.4749222,29.1843645 25.410267,29.288597 25.1818187,29.4075959 C24.9163015,29.5465727 24.8594049,29.5422297 24.5568187,29.3615599 C24.3749222,29.2538528 24.1413015,29.0228039 24.0421635,28.853426 C23.9413015,28.6814422 23.798198,28.5442026 23.7197497,28.5442026 C23.6430256,28.5442026 23.5525084,28.4573421 23.523198,28.3557154 C23.4930256,28.2540886 23.3568187,28.1099002 23.2249222,28.0412804 C23.0947497,27.971792 22.9257842,27.802414 22.8576808,27.6703861 C22.7895773,27.5383581 22.648198,27.4011186 22.5499222,27.3698488 C22.3766463,27.3168639 22.3783704,27.2942802 22.585267,26.8877731 C22.7033704,26.6541183 22.861129,26.4013543 22.9335428,26.3283915 C23.0033704,26.2580345 23.0637153,26.1451159 23.0637153,26.0843135 C23.0637153,26.026117 23.1456118,25.8819286 23.235267,25.7803018 C23.3257842,25.678675 23.4163015,25.5119029 23.4275084,25.4293854 C23.4378532,25.3416563 23.4964739,24.9724992 23.5585428,24.5963933 C23.6197497,24.2202874 23.6645773,23.8302838 23.6594049,23.7173651 C23.6447497,23.4229081 23.7783704,21.4034016 23.8214739,21.257476 C23.8430256,21.1862504 23.9464739,21.1254481 24.0473359,21.1254481 C24.148198,21.1254481 24.4154394,21.0325073 24.6275084,20.9239317 C25.0507842,20.7067805 26.1249222,20.6381607 26.2387153,20.8205677 C26.2723359,20.8752899 26.4326808,20.9230631 26.5835428,20.9230631 C27.0163015,20.9230631 27.135267,21.1254481 26.9999222,21.6335819 C26.9137153,21.9593088 26.9145773,22.0948112 27.0042325,22.2033868 C27.2568187,22.5091357 27.1128532,24.5295107 26.8059566,24.9777109 L26.8059566,24.9777109 Z M23.2154394,32.2018979 C23.1344049,32.2018979 23.0637153,32.2496712 23.0637153,32.3043933 C23.0637153,32.3591154 23.0033704,32.4051515 22.9335428,32.4051515 C22.861129,32.4051515 22.6223359,32.5884271 22.4033704,32.8125272 C22.1844049,33.0357586 21.9550946,33.2181657 21.8938877,33.2181657 C21.8335428,33.2181657 21.7016463,33.3102378 21.6016463,33.4222878 C21.5016463,33.5334693 21.3473359,33.6255414 21.2585428,33.6255414 C21.1680256,33.6255414 20.986129,33.7150077 20.8456118,33.8287949 C20.7042325,33.9417136 20.5395773,34.0311799 20.4723359,34.0311799 C20.4042325,34.0311799 20.2904394,34.1128287 20.2145773,34.2144555 C19.9904394,34.5158614 19.2714739,34.8441941 18.8387153,34.8441941 C18.6163015,34.8441941 18.4119911,34.8832813 18.3844049,34.9310546 C18.3568187,34.9779592 18.1378532,35.0239953 17.9050946,35.0326813 C17.6326808,35.042236 17.3999222,35.1221476 17.2645773,35.2507012 C17.1326808,35.3775175 16.9119911,35.4548233 16.6800946,35.4548233 C16.4714739,35.4548233 16.1154394,35.506071 15.873198,35.5712164 C15.2378532,35.7423316 14.9395773,35.6294129 14.6783704,35.1186732 C14.5594049,34.8850185 14.4499222,34.5314963 14.436129,34.3360602 C14.4214739,34.1380183 14.3844049,33.6663658 14.3499222,33.2694134 C14.3007842,32.6900539 14.3240601,32.492012 14.4757842,32.2018979 C14.6516463,31.8692222 14.7033704,31.8422955 15.3085428,31.7754129 C15.661129,31.7363257 16.1594049,31.6399105 16.4076808,31.5626047 C16.6594049,31.4826931 17.061129,31.4105988 17.310267,31.399307 C17.5525084,31.3888837 17.8076808,31.3419791 17.8654394,31.2976802 C17.9249222,31.2516441 18.1025084,31.1856302 18.273198,31.1456743 C18.4430256,31.1057185 18.7421635,30.9650045 18.9542325,30.8251591 C19.1654394,30.6861824 19.3749222,30.5767381 19.4283704,30.5767381 C19.4809566,30.5767381 19.6947497,30.3630613 19.9068187,30.0990054 C20.6887153,29.1235621 20.5818187,29.1869703 21.0775084,29.3945668 C21.2576808,29.4701355 21.6223359,29.7533007 21.9042325,30.0382031 C22.5904394,30.728744 22.6723359,30.8433998 22.6050946,31.0136464 C22.5473359,31.1613092 22.8016463,31.4913791 22.973198,31.4913791 C23.0275084,31.4913791 23.0654394,31.5521814 23.0559566,31.6234071 C23.0188877,31.8874629 23.0663015,31.999513 23.2154394,31.999513 C23.2956118,31.999513 23.3663015,32.0464176 23.3663015,32.1011398 C23.3663015,32.1549933 23.2956118,32.2018979 23.2154394,32.2018979 L23.2154394,32.2018979 Z M12.6309566,29.3667715 C12.6007842,29.317261 12.323198,29.1947877 12.0206118,29.097504 C11.7938877,29.0254098 11.5947497,28.9394179 11.510267,28.8812213 C11.4809566,28.862112 11.4654394,28.8456085 11.4654394,28.8343167 C11.4654394,28.7882806 11.3749222,28.7474562 11.2740601,28.7474562 C11.2240601,28.7474562 11.161129,28.7300841 11.1033704,28.7031573 C11.0456118,28.675362 10.9930256,28.6388806 10.961129,28.5997933 C10.8947497,28.5190131 10.7499222,28.4234666 10.6387153,28.3878538 C10.5559566,28.3617956 10.435267,28.2766723 10.2973359,28.1559362 C10.1594049,28.0352002 10.0033704,27.8771141 9.84906008,27.7059989 C9.61716353,27.4488918 9.39043939,27.1596464 9.23526698,26.9138312 C9.18354284,26.8313137 9.13957732,26.7540079 9.10595663,26.6845195 C9.07061181,26.6106881 9.03440491,26.5368567 8.99992215,26.4656311 C8.93009456,26.3231799 8.86457732,26.1937577 8.81716353,26.1042914 C8.7930256,26.0599926 8.77406008,26.0252484 8.76112905,26.0035333 C8.73526698,25.9609716 8.70509456,25.8836658 8.67406008,25.7915937 C8.65250836,25.7247111 8.6292325,25.6517483 8.6068187,25.5700994 C8.57147388,25.4406773 8.53785319,25.2982261 8.51026698,25.1618551 C8.49647388,25.0941039 8.48354284,25.0272213 8.47319801,24.9638132 C8.45250836,24.8387341 8.44043939,24.7284213 8.44043939,24.651984 C8.44043939,24.58597 8.42750836,24.5147444 8.4068187,24.4522049 C8.38612905,24.3887967 8.3568187,24.3340746 8.32406008,24.3010676 C8.28268077,24.2593746 8.26112905,24.2098641 8.25929696,24.1455874 C8.25768077,24.0813106 8.27664629,24.0013989 8.31371525,23.8997722 C8.3568187,23.7833791 8.42578422,23.5384325 8.48526698,23.2952231 C8.5042325,23.2135743 8.52319801,23.132794 8.53957732,23.0563568 C8.63871525,22.594259 8.74388767,22.2025182 8.85509456,21.8793971 C8.96630146,21.5562761 9.08526698,21.3026435 9.21026698,21.1176306 C9.33526698,20.9317492 9.46716353,20.8153561 9.60768077,20.764977 C9.67837043,20.7397875 9.75078422,20.73197 9.82406008,20.7406561 C9.89906008,20.7484735 9.97492215,20.7736631 10.0542325,20.8153561 C10.0818187,20.8301224 10.1326808,20.8448887 10.2025084,20.8579178 C10.4119911,20.8996108 10.7826808,20.9326178 11.1525084,20.9395666 C11.5913015,20.9473841 11.9447497,20.9213259 12.223198,20.8579178 C12.5016463,20.7945096 12.7059566,20.6937514 12.8473359,20.553906 C12.8930256,20.5096072 13.0378532,20.4600967 13.2154394,20.4210095 C13.3223359,20.3975572 13.4369911,20.3767106 13.5585428,20.3636816 C13.8809566,20.329806 14.3197497,20.2377338 14.5473359,20.1552164 C14.7688877,20.0753047 15.0318187,20.0075535 15.1214739,20.0075535 C15.2085428,20.0075535 15.3214739,19.9232989 15.385267,19.8199349 C15.3895773,19.8138547 15.3956118,19.8103802 15.3990601,19.8051686 C15.4283704,19.7513151 15.4956118,19.6826953 15.5809566,19.6132069 C15.6585428,19.5497988 15.7516463,19.4872592 15.848198,19.4334057 C15.8688877,19.4221138 15.8878532,19.4082162 15.9085428,19.3986615 C15.9637153,19.3699975 16.0206118,19.3361219 16.0766463,19.2996405 C16.1878532,19.2266777 16.2930256,19.1415544 16.3706118,19.0625114 C16.4094049,19.0234242 16.4413015,18.9852056 16.4628532,18.95133 C16.5050946,18.885316 16.5895773,18.7923753 16.6895773,18.6985659 C16.7904394,18.603888 16.9068187,18.5066043 17.0128532,18.4327728 C17.2240601,18.28511 17.4533704,18.0227913 17.5085428,17.8638366 C17.5818187,17.6492912 17.6456118,17.5632993 17.8895773,17.5789342 C17.9395773,17.5824086 17.9947497,17.5893575 18.060267,17.6006493 C18.1895773,17.6223645 18.3542325,17.6597145 18.5663015,17.7109622 C18.8887153,17.788268 19.2025084,17.9281134 19.2516463,18.0158425 C19.2895773,18.0844623 19.4076808,18.2364681 19.5464739,18.3980286 C19.5930256,18.4518821 19.6421635,18.5066043 19.6904394,18.5595892 C19.7387153,18.6134427 19.785267,18.669902 19.8275084,18.7272299 C19.910267,18.8427544 19.9766463,18.9591474 20.011129,19.0538254 C20.0283704,19.10073 20.0387153,19.1415544 20.0387153,19.1745614 C20.0387153,19.2275463 20.0490601,19.2935603 20.0671635,19.3630487 C20.1223359,19.5732511 20.2464739,19.8234093 20.3507842,19.9094012 C20.4042325,19.9537 20.4576808,20.0284001 20.5085428,20.1248152 C20.6094049,20.3167769 20.698198,20.5947305 20.7516463,20.8883189 C20.7783704,21.0342446 20.7964739,21.1845132 20.8025084,21.3287016 C20.8137153,21.580597 20.8533704,21.8437843 20.9085428,22.0739646 C20.9456118,22.2277077 20.9895773,22.3666845 21.036129,22.4787345 C21.1050946,22.6455067 21.1809566,22.7514765 21.248198,22.7514765 C21.3800946,22.7514765 21.3800946,23.3317046 21.248198,23.3751348 C21.2292325,23.3820836 21.210267,23.4281197 21.1921635,23.4906592 C21.1533704,23.629636 21.1197497,23.8797943 21.1076808,24.1742513 C21.1033704,24.2784839 21.0973359,24.3870595 21.0895773,24.4930293 C21.0671635,24.8135445 21.0318187,25.1166876 20.9999222,25.2417668 C20.9585428,25.4059331 20.8542325,25.6682518 20.7413015,25.9210158 C20.5818187,26.2780124 20.4016463,26.6132939 20.3507842,26.6132939 C20.3318187,26.6132939 20.2878532,26.6384835 20.2335428,26.6775707 C20.1792325,26.7166579 20.1145773,26.7696428 20.0533704,26.8261021 C19.9775084,26.8981963 19.9266463,26.9685533 19.8999222,27.0380417 C19.873198,27.1066615 19.8706118,27.1752813 19.8921635,27.2430325 C19.9042325,27.2812511 19.9076808,27.3203383 19.9007842,27.3620313 C19.8792325,27.4862419 19.761129,27.6365105 19.5042325,27.8840629 C19.0783704,28.2931758 18.9292325,28.3583212 18.0516463,28.5077212 C18.0154394,28.5138015 17.9818187,28.5224875 17.9473359,28.530305 C17.8947497,28.5442026 17.8438877,28.5581003 17.8007842,28.5746038 C17.7654394,28.5885015 17.7344049,28.6023992 17.711129,28.6162968 C17.6878532,28.6301945 17.6706118,28.6432236 17.6628532,28.6553841 C17.6326808,28.7057631 17.5068187,28.7483248 17.385267,28.750062 C17.073198,28.7535364 16.4197497,28.9958772 16.185267,29.1956563 C16.1499222,29.2260575 16.110267,29.251247 16.0654394,29.2720936 C15.9766463,29.3146552 15.8680256,29.3372389 15.7275084,29.3433192 C15.6568187,29.3467936 15.5783704,29.345925 15.4895773,29.3415819 C15.4214739,29.3381075 15.3550946,29.3372389 15.2921635,29.3372389 C15.1042325,29.3389761 14.9542325,29.3580854 14.9249222,29.387618 C14.9128532,29.3997785 14.8688877,29.4110703 14.7999222,29.4197564 C14.3249222,29.4814273 12.685267,29.4562378 12.6309566,29.3667715 L12.6309566,29.3667715 Z M11.8844049,35.5147571 C11.7913015,35.7180106 11.7326808,35.750149 11.5913015,35.6728432 C11.4921635,35.618121 11.2990601,35.5981431 11.148198,35.6268071 C10.9964739,35.6563397 10.8525084,35.6294129 10.8154394,35.5660048 C10.7792325,35.5052024 10.6137153,35.4548233 10.4525084,35.4548233 C10.2904394,35.4548233 10.1542325,35.4122617 10.1542325,35.3627512 C10.1542325,35.3123721 10.023198,35.2463581 9.86199112,35.2150884 C9.70078422,35.1846872 9.50164629,35.0917465 9.4180256,35.0066232 C9.33440491,34.9223685 9.09043939,34.8250848 8.86888767,34.7886034 C8.61630146,34.7469103 8.33699112,34.5957731 8.1068187,34.3768846 C7.90509456,34.1849229 7.70164629,34.0311799 7.64819801,34.0311799 C7.59043939,34.0311799 7.53785319,33.9990415 7.51716353,33.9503996 C7.4680256,33.8383496 6.75854284,33.3206611 6.65509456,33.3206611 C6.60940491,33.3206611 6.52147388,33.2338006 6.45337043,33.1226191 C6.38612905,33.0123063 6.16026698,32.8420597 5.94906008,32.7413016 C5.73699112,32.6396748 5.44561181,32.4442387 5.29819801,32.3043933 C5.14992215,32.1628107 4.91026698,31.9404478 4.75854284,31.8032083 C4.45595663,31.5287291 4.28526698,31.159572 4.36457732,30.9519755 C4.3930256,30.8798812 4.27492215,30.66273 4.10337043,30.4698997 C3.81285319,30.1441729 3.8042325,30.1094287 3.97233594,29.9886926 C4.40595663,29.677732 4.51199112,29.5439669 4.46026698,29.3771947 C4.43095663,29.2859912 4.44819801,29.1374598 4.49474974,29.0627598 C4.58785319,28.9150969 4.65768077,28.8881702 5.23268077,28.7804632 C5.38440491,28.7517992 5.51457732,28.6892597 5.51457732,28.6458294 C5.51457732,28.4851375 7.1292325,28.2410595 7.31026698,28.3739561 C7.37492215,28.4208607 7.4318187,28.5442026 7.4318187,28.6354062 C7.4318187,28.7326899 7.51026698,28.8942504 7.61285319,29.0063004 C7.71543939,29.1183505 7.82319801,29.2825168 7.86026698,29.3824064 C7.89647388,29.4805587 8.04216353,29.6125867 8.18268077,29.6768634 C8.32406008,29.7411402 8.44043939,29.8557961 8.44043939,29.9313647 C8.44043939,30.0025903 8.48871525,30.0686043 8.54130146,30.0686043 C8.59474974,30.0686043 8.64130146,30.1389613 8.64130146,30.2206101 C8.64130146,30.302259 8.69561181,30.372616 8.75768077,30.372616 C8.82147388,30.372616 9.01543939,30.4811916 9.18612905,30.6106137 C9.56974974,30.902465 10.1318187,31.1864988 10.3257842,31.1864988 C10.5180256,31.1864988 11.2637153,31.6069036 11.2637153,31.7146106 C11.2637153,31.7589094 11.3749222,31.7962594 11.5059566,31.7962594 C11.7266463,31.7962594 11.748198,31.8370839 11.748198,32.2531456 C11.748198,32.5076469 11.7775084,32.8394539 11.8137153,33.0001458 C11.8499222,33.1599691 11.8318187,33.5030681 11.773198,33.767124 C11.6887153,34.1493101 11.7007842,34.3464835 11.8335428,34.7529906 C11.9637153,35.149943 11.9749222,35.3167151 11.8844049,35.5147571 L11.8844049,35.5147571 Z M3.39733594,26.5220904 C3.39733594,26.5724695 3.30595663,26.6132939 3.19561181,26.6132939 C3.08440491,26.6132939 2.99388767,26.65933 2.99388767,26.7149207 C2.99388767,26.775723 2.95768077,26.8165475 2.90337043,26.8165475 C2.81371525,26.8165475 2.6430256,26.0339344 2.6930256,25.8506588 C2.70940491,25.7950681 2.73268077,24.58597 2.74647388,23.1631952 C2.76888767,20.8666038 2.79130146,20.5625921 2.94388767,20.4505421 C3.03440491,20.3827909 3.0930256,20.2603176 3.06974974,20.1908292 C3.04474974,20.118735 3.1318187,19.8555477 3.26112905,19.6114697 C3.39043939,19.3682603 3.49819801,19.1042044 3.49819801,19.0321102 C3.49819801,18.8696811 3.86630146,18.219096 4.17664629,17.8334354 C4.29906008,17.680561 4.40595663,17.4920737 4.40595663,17.4269284 C4.40595663,17.2740539 4.61199112,17.0612457 4.75854284,17.0612457 C4.81888767,17.0612457 4.99474974,17.2592876 5.14216353,17.4929423 C5.28871525,17.7257284 5.62061181,18.102703 5.86285319,18.3111682 C6.10509456,18.5196333 6.33785319,18.7810834 6.36716353,18.8801044 C6.39733594,18.9791253 6.53354284,19.1146277 6.66457732,19.1745614 C6.8818187,19.2753196 6.90250836,19.3369906 6.86888767,19.7738988 C6.80337043,20.6077595 6.7680256,20.7510794 6.51543939,21.2270748 C6.3792325,21.4815761 6.26716353,21.7795076 6.26112905,21.8985064 C6.23699112,22.3962171 6.10250836,23.2335522 5.99906008,23.5236662 C5.91716353,23.7564524 5.92061181,24.0622013 6.01112905,24.6928084 C6.1430256,25.6074494 6.15940491,25.894089 6.08699112,25.9731321 C6.06112905,26.0009274 5.72750836,26.0382775 5.35337043,26.0556496 C4.41630146,26.0990798 3.39733594,26.3414206 3.39733594,26.5220904 L3.39733594,26.5220904 Z M3.87664629,9.9577947 C3.71543939,9.80405163 3.60078422,9.5869004 3.6042325,9.43923757 C3.60854284,9.22729797 3.71974974,9.13262003 4.28440491,8.86422112 C4.97061181,8.53849427 5.21026698,8.47074309 5.20509456,8.60624546 C5.2042325,8.64620128 5.14043939,8.78865249 5.06112905,8.93110369 C4.9818187,9.0735549 4.9180256,9.27072821 4.91543939,9.37843522 C4.91199112,9.48701084 4.74388767,9.71458533 4.5318187,9.89699236 L4.15337043,10.2218506 L3.87664629,9.9577947 Z M5.9180256,12.0511325 C5.92406008,11.959929 5.96199112,11.8782802 5.99906008,11.8782802 C6.03785319,11.8782802 6.18440491,11.5890347 6.32147388,11.24333 C6.45940491,10.8976252 6.6542325,10.5180449 6.75078422,10.4103379 C6.84474974,10.3043681 6.92750836,10.1045889 6.92750836,9.98298424 C6.92750836,9.84313885 7.07319801,9.63467367 7.30509456,9.4444492 C7.51716353,9.27159682 7.77233594,9.00059209 7.88526698,8.82947692 C7.99992215,8.65749315 8.12147388,8.52459659 8.1680256,8.52459659 C8.24819801,8.52459659 8.85854284,8.1180895 8.94561181,8.00603946 C9.02837043,7.90093827 9.77147388,7.57955445 10.1042325,7.50572303 C10.6085428,7.3945416 12.536129,7.48400791 12.7973359,7.63167074 C12.9283704,7.70550216 13.0533704,7.79323126 13.0844049,7.83405569 C13.1145773,7.8722743 13.4369911,8.04165226 13.7904394,8.20494999 C14.1430256,8.36737911 14.5421635,8.60277104 14.6628532,8.71829549 C14.7835428,8.83468855 14.9033704,8.93110369 14.9249222,8.93110369 C15.0335428,8.93110369 15.7775084,9.72413998 15.8792325,9.94737144 C15.9430256,10.088954 16.1413015,10.5171763 16.3266463,10.9132601 C16.6249222,11.5490789 16.6594049,11.715851 16.6533704,12.4880408 C16.6447497,13.545133 16.4568187,14.5579263 16.1818187,15.0287102 C15.9913015,15.3535684 15.0438877,16.3498583 14.9249222,16.3498583 C14.8973359,16.3498583 14.6680256,16.5557176 14.4154394,16.8067444 C14.1637153,17.0577713 13.8800946,17.2644992 13.785267,17.2644992 C13.6895773,17.2644992 13.4473359,17.3965272 13.236129,17.5641679 C13.0240601,17.7318087 12.7068187,17.9194273 12.5145773,17.9906529 C12.323198,18.0618785 12.1714739,18.1582937 12.1714739,18.2095414 C12.1714739,18.3050879 11.4757842,18.2555774 10.6085428,18.0983599 C9.96285319,17.9810983 9.64992215,17.8716541 9.64992215,17.7622098 C9.64992215,17.7118308 9.45337043,17.6701377 9.21199112,17.6701377 C8.96974974,17.6701377 8.73871525,17.6362621 8.69733594,17.5945691 C8.65595663,17.5528761 8.45509456,17.4720958 8.25337043,17.4165051 C8.0318187,17.3557027 7.84561181,17.2245434 7.78440491,17.0864352 C7.73095663,16.9639619 7.60078422,16.8579921 7.5068187,16.8579921 C7.40164629,16.8579921 7.33009456,16.7815549 7.33009456,16.6695049 C7.33009456,16.5635351 7.24474974,16.4037118 7.13354284,16.3038222 C7.02492215,16.2056698 6.90768077,15.9937302 6.87147388,15.8313011 C6.83526698,15.668872 6.7430256,15.5012313 6.66457732,15.4569324 C6.51371525,15.3718091 6.19561181,14.6786624 6.27147388,14.6013566 C6.29906008,14.5744298 6.25337043,14.3833367 6.17061181,14.1800832 C6.08785319,13.9768296 6.04216353,13.8091889 6.06974974,13.8091889 C6.09819801,13.8091889 6.06026698,13.7075621 5.9818187,13.5755342 C5.86457732,13.375755 5.85250836,13.0978015 5.9180256,12.0511325 L5.9180256,12.0511325 Z M12.2171635,4.60284541 C12.348198,4.23629414 12.4723359,3.92793939 12.4947497,3.9114359 C12.9783704,3.54314742 12.9964739,3.54314742 13.3619911,3.9114359 C13.5533704,4.10426619 13.7844049,4.25714066 13.886129,4.25714066 C14.1387153,4.25714066 14.2335428,4.43954769 14.1990601,4.85647805 C14.1645773,5.26298515 13.8413015,5.60695269 13.5740601,5.52182941 C13.4800946,5.49142824 13.2257842,5.44539218 13.0137153,5.42020263 C12.8025084,5.3958817 12.4792325,5.34897703 12.3025084,5.31857586 L11.9800946,5.26298515 L12.2171635,4.60284541 Z M18.9387153,10.957559 C19.0835428,10.8680927 19.2714739,10.895888 20.1395773,11.1295427 C20.4438877,11.2111916 20.9663015,11.4092335 21.2990601,11.5681882 C21.6318187,11.7280115 22.0990601,11.9104185 22.3378532,11.9746953 C22.5800946,12.0407093 22.8490601,12.1675256 22.948198,12.2648094 C23.0473359,12.3612245 23.3059566,12.5575292 23.5378532,12.7112723 C23.7697497,12.865884 23.9800946,13.0769549 24.0171635,13.1942166 C24.0525084,13.3062666 24.1266463,13.4026818 24.1783704,13.4026818 C24.2318187,13.4026818 24.2766463,13.4582725 24.2792325,13.5294981 C24.2818187,13.6007237 24.4818187,13.8804145 24.7326808,14.1644483 C24.9844049,14.4493507 25.1818187,14.7108008 25.1818187,14.7594427 C25.1818187,14.8080845 25.2706118,14.9722509 25.3835428,15.1355486 C25.4973359,15.2979777 25.5775084,15.4604068 25.5680256,15.5064429 C25.5395773,15.6393394 25.7723359,16.1466047 25.9930256,16.4306385 C26.1042325,16.5730897 26.1904394,16.761577 26.1904394,16.8579921 C26.1904394,16.9526701 26.3042325,17.1620039 26.4447497,17.3253016 C26.7783704,17.7126994 26.735267,17.9315878 26.3318187,17.8925006 C26.1628532,17.8768657 25.8223359,17.9107413 25.560267,17.970675 C25.2473359,18.0419006 25.0033704,18.0436378 24.8292325,17.9758867 C24.5757842,17.8777343 24.536129,17.8864203 23.7197497,18.2321251 C23.0542325,18.5135531 22.9956118,18.5118159 22.8887153,18.2095414 C22.7663015,17.8638366 22.4947497,17.5450586 22.1766463,17.3739435 C22.0404394,17.3009806 21.8904394,17.1168364 21.8335428,16.9544073 C21.7766463,16.7919782 21.6490601,16.6373665 21.5413015,16.6034909 C21.436129,16.5704839 21.3499222,16.451485 21.3499222,16.339435 C21.3499222,16.227385 21.2835428,16.1109919 21.2033704,16.0805907 C21.1266463,16.0510582 21.0283704,15.9329279 20.9964739,15.8313011 C20.9645773,15.7296743 20.8671635,15.6384708 20.7895773,15.6384708 C20.7068187,15.6384708 20.5680256,15.5967778 20.4671635,15.5420557 C20.3663015,15.486465 20.2257842,15.4213196 20.1395773,15.3891812 C20.0585428,15.3596487 19.9171635,15.2910289 19.8369911,15.242387 C19.7542325,15.1920079 19.5344049,15.0929869 19.3525084,15.0243672 C18.9387153,14.8662811 18.7697497,14.4988612 18.9671635,14.1852948 C19.1990601,13.8144005 19.2671635,12.5288652 19.0895773,11.847879 C19.0076808,11.533444 18.9068187,11.2172718 18.8688877,11.1564695 C18.8283704,11.0930613 18.8585428,11.007938 18.9387153,10.957559 L18.9387153,10.957559 Z M29.7654394,22.6594043 C29.7154394,22.3684217 29.6723359,21.9158785 29.660267,21.5119773 C29.6516463,21.2427097 29.6326808,20.9743108 29.6094049,20.760634 C29.585267,20.5460886 29.5568187,20.3853967 29.5283704,20.3332804 C29.5016463,20.2802955 29.4688877,20.1413187 29.4387153,19.9597803 C29.4214739,19.8598907 29.4068187,19.7469721 29.3930256,19.6288418 C29.3818187,19.5332953 29.3706118,19.4351429 29.3628532,19.3369906 C29.3542325,19.2336266 29.3464739,19.1432917 29.3395773,19.0599056 C29.3387153,19.0434021 29.3369911,19.0277672 29.336129,19.0121323 C29.3223359,18.8531776 29.3094049,18.7246241 29.2964739,18.6090996 C29.2809566,18.4727287 29.2637153,18.3519926 29.2395773,18.2182274 C29.2050946,18.0271343 29.1585428,17.8065087 29.086129,17.4677528 C29.0663015,17.3765493 29.0413015,17.2783969 29.0137153,17.1802446 C28.9775084,17.0534282 28.9369911,16.9309549 28.8947497,16.8145619 C28.8378532,16.6564758 28.7792325,16.513156 28.7266463,16.4202153 C28.6973359,16.3672304 28.6688877,16.3125082 28.6430256,16.2586547 C28.5645773,16.0962256 28.510267,15.9450884 28.510267,15.8816802 C28.510267,15.7982941 28.4369911,15.5880917 28.3490601,15.4143708 C28.2930256,15.3057952 28.2421635,15.1607381 28.2007842,15.0191555 C28.1766463,14.9357695 28.1507842,14.848909 28.1413015,14.7846322 C28.1326808,14.7264357 28.1068187,14.6578159 28.0835428,14.5909333 C27.9723359,14.2747611 27.7214739,13.9003924 27.4809566,13.7266714 C27.4309566,13.69019 27.386129,13.6432853 27.3525084,13.5955121 C27.3197497,13.5477388 27.2999222,13.4999655 27.2999222,13.4634841 C27.2999222,13.4148423 27.2447497,13.3045294 27.1654394,13.1777131 C27.123198,13.1108305 27.0766463,13.0413421 27.0223359,12.9709851 C26.8663015,12.7677316 26.6792325,12.5123618 26.5938877,12.386414 C26.511129,12.2648094 26.3645773,12.0658988 26.2723359,11.9495058 C26.211129,11.8730685 26.160267,11.8096604 26.1171635,11.7532011 C26.0309566,11.641151 25.973198,11.5586336 25.9171635,11.46743 C25.8895773,11.4222626 25.861129,11.3744893 25.8309566,11.3188986 C25.7947497,11.256359 25.7171635,11.1712358 25.6171635,11.0791636 C25.5180256,10.9879601 25.3956118,10.8889392 25.2714739,10.7977357 C25.1473359,10.7074007 25.0206118,10.6240147 24.911129,10.5632123 C24.8025084,10.50241 24.7119911,10.4633228 24.6576808,10.4615856 C24.5671635,10.4581111 24.4723359,10.3894913 24.4413015,10.3034995 C24.4249222,10.2609378 24.3913015,10.2227192 24.348198,10.1957924 C24.3059566,10.1679971 24.2542325,10.150625 24.2033704,10.150625 C24.1016463,10.150625 23.911129,10.0611587 23.7697497,9.94737144 C23.6292325,9.8335842 23.4335428,9.74411789 23.3266463,9.74411789 C23.2249222,9.74411789 23.0576808,9.6572574 22.9723359,9.56171086 C22.9473359,9.5330469 22.9137153,9.50438294 22.873198,9.47398176 C22.7516463,9.38451546 22.5680256,9.29070613 22.3869911,9.21774332 C22.1447497,9.12045956 21.9042325,9.05878862 21.8137153,9.09440142 C21.7783704,9.1082991 21.6835428,9.07876653 21.561129,9.0214386 C21.4387153,8.96411068 21.2887153,8.87811879 21.1430256,8.77909783 C20.960267,8.65575594 20.8275084,8.57236986 20.6904394,8.51417334 C20.5990601,8.47508611 20.5068187,8.44729076 20.3973359,8.42557563 C20.2887153,8.40386051 20.1619911,8.38909423 20.0042325,8.37606515 C19.9249222,8.36911632 19.8378532,8.36390469 19.7404394,8.35695585 C19.5042325,8.34218956 19.260267,8.32916049 19.0576808,8.32047444 C18.8559566,8.312657 18.6956118,8.30918258 18.6266463,8.31178839 C18.4844049,8.31700002 18.248198,8.27009535 18.0869911,8.20494999 C17.9757842,8.15978253 17.8999222,8.1371988 17.8438877,8.13806741 C17.8163015,8.13806741 17.7930256,8.14501625 17.7740601,8.15630811 C17.7542325,8.16846858 17.7387153,8.18670928 17.7240601,8.21016162 C17.710267,8.23100813 17.6913015,8.24143139 17.6654394,8.24143139 C17.6137153,8.24143139 17.5344049,8.19626394 17.4223359,8.10419182 C17.3663015,8.05815576 17.3025084,8.00082783 17.2292325,7.93047083 C17.1137153,7.8192894 17.0085428,7.70897658 16.9335428,7.61951027 C16.8576808,7.53091257 16.811129,7.46316139 16.811129,7.43797185 C16.811129,7.34416252 15.9637153,6.77175188 15.661129,6.66057045 C15.5344049,6.61366579 15.5050946,6.58847624 15.6016463,6.45384248 C15.6344049,6.40954363 15.6800946,6.35308431 15.7421635,6.27925289 C15.8137153,6.19326101 15.8792325,6.0864226 15.9275084,5.98479583 C15.9749222,5.88403766 16.0042325,5.78675391 16.0042325,5.71987133 C16.0042325,5.58784338 16.048198,5.47579335 16.0999222,5.47579335 C16.1525084,5.47579335 16.2413015,5.30380958 16.2973359,5.09013277 C16.3249222,4.98850599 16.3395773,4.87906177 16.3421635,4.76874895 C16.3456118,4.65843613 16.3369911,4.5472547 16.3188877,4.43954769 C16.2818187,4.22326506 16.2033704,4.02522314 16.0921635,3.89145799 C16.0576808,3.85063356 16.035267,3.80720331 16.0249222,3.7707219 C16.0145773,3.73337189 16.0171635,3.70123351 16.0344049,3.6821242 C16.0516463,3.6638835 16.0542325,3.62479628 16.0447497,3.57441719 C16.0344049,3.52490671 16.0119911,3.46410437 15.9792325,3.40330203 C15.9128532,3.28169734 15.861129,3.16791009 15.8576808,3.13924613 C15.8378532,2.91514606 15.5507842,2.42785871 15.4395773,2.42785871 C15.3990601,2.42785871 15.3637153,2.41222382 15.3387153,2.38703428 C15.3137153,2.36184474 15.298198,2.32623193 15.298198,2.2854075 C15.298198,2.21591911 15.1766463,2.11689815 15.0335428,2.03959231 C14.961129,2.0013737 14.8844049,1.96836671 14.8128532,1.94752019 C14.7421635,1.92754228 14.6775084,1.91885623 14.6326808,1.92927949 C14.6085428,1.93449112 14.5680256,1.93275391 14.5240601,1.92580507 C14.4792325,1.91885623 14.4309566,1.90669576 14.3904394,1.89106087 C13.8154394,1.6669608 12.7818187,1.60789567 12.323198,1.77379921 C12.1568187,1.83373295 11.9680256,1.90148413 11.8430256,1.94491438 C11.8016463,1.96054927 11.7671635,1.97184113 11.7430256,1.98052718 C11.6421635,2.01527137 11.5663015,2.08041674 11.5663015,2.13340164 C11.5663015,2.18291212 11.5163015,2.22460516 11.4559566,2.22460516 C11.4257842,2.22460516 11.361129,2.24110865 11.2826808,2.2671668 C11.2050946,2.29235634 11.1128532,2.32796914 11.0266463,2.36705636 C10.9844049,2.38616567 10.9378532,2.40614359 10.8913015,2.4261215 C10.7516463,2.48518663 10.6076808,2.54164595 10.5378532,2.56509828 C10.5128532,2.57291573 10.4878532,2.59115643 10.4637153,2.61634597 C10.4395773,2.64153552 10.4163015,2.6745425 10.3947497,2.71449833 C10.3516463,2.79267277 10.3163015,2.89516815 10.2956118,3.00721819 C10.2757842,3.11405659 10.2378532,3.23826709 10.1913015,3.35466015 C10.1680256,3.41198808 10.1421635,3.46757879 10.1163015,3.51795787 C10.0904394,3.56833696 10.0637153,3.61176721 10.0378532,3.64738001 C9.87406008,3.87061147 9.81974974,4.07907665 9.85854284,4.4777663 C9.87147388,4.61066286 9.89561181,4.76527453 9.92837043,4.94768156 C9.96888767,5.17699326 9.98785319,5.30902121 9.97837043,5.38545844 C9.96888767,5.46189567 9.9318187,5.48274219 9.86199112,5.48708521 C8.98440491,5.54615035 8.35078422,5.79370275 8.32319801,6.0864226 C8.31543939,6.16720286 8.3042325,6.30009941 8.29992215,6.37045641 C8.29733594,6.39825177 8.27750836,6.43125875 8.23785319,6.47034597 C8.1568187,6.54852042 7.99906008,6.65014719 7.75768077,6.77956932 C7.63612905,6.84384609 7.49474974,6.9159403 7.33009456,6.99411474 C7.26888767,7.02451591 7.11285319,6.9880345 6.85595663,6.88380191 C6.59906008,6.78043793 6.24130146,6.60932276 5.77750836,6.36698199 C5.34388767,6.14114471 3.97147388,6.29141336 3.70337043,6.59455648 C3.68095663,6.61887741 3.58268077,6.67359952 3.46199112,6.72919024 C3.42233594,6.74743094 3.3792325,6.76567165 3.33699112,6.78391235 C3.21543939,6.83342283 3.06112905,6.9350496 2.89561181,7.06707755 C2.73009456,7.19823689 2.55337043,7.35979741 2.38699112,7.52917536 C2.22061181,7.69768472 2.06457732,7.87488012 1.94216353,8.03644063 C1.81888767,8.19800115 1.7292325,8.34479538 1.69388767,8.4542396 C1.62664629,8.65923036 1.55854284,9.24119565 1.54130146,9.73977487 C1.53785319,9.84574467 1.53526698,9.9404226 1.53268077,10.0246773 C1.52578422,10.3608274 1.53354284,10.5302053 1.58009456,10.6492042 C1.60337043,10.709138 1.63612905,10.7560426 1.68095663,10.8055531 C1.7042325,10.829874 1.7292325,10.8550636 1.75854284,10.8828589 C1.81285319,10.9341066 1.88009456,11.0218357 1.94906008,11.1217253 C2.0542325,11.2728625 2.16285319,11.4578754 2.2430256,11.6289906 C2.40078422,11.9720895 2.48268077,12.0971686 2.68699112,12.1840291 C2.7542325,12.2126931 2.83612905,12.2378826 2.93871525,12.2648094 C3.06457732,12.2978163 3.20250836,12.3290861 3.32319801,12.3508012 C3.44388767,12.3725164 3.54733594,12.386414 3.6042325,12.386414 C3.68699112,12.386414 3.73699112,12.4029175 3.76630146,12.452428 C3.79474974,12.5019385 3.80164629,12.584456 3.79561181,12.7164839 C3.79130146,12.8068188 3.79561181,12.9657735 3.80595663,13.1473119 C3.81543939,13.329719 3.8318187,13.5347097 3.85078422,13.7179854 L3.92147388,14.3885484 L3.52319801,14.5509775 C3.3818187,14.609174 3.2680256,14.6777938 3.17061181,14.7655229 C3.07406008,14.8541206 2.99474974,14.9626962 2.92319801,15.0999358 C2.81112905,15.3153498 2.55854284,15.6636604 2.35337043,15.8868918 C2.28785319,15.9581174 2.23268077,16.025 2.18612905,16.0884082 C2.09216353,16.2152245 2.03440491,16.3298803 2.00595663,16.442799 C1.99216353,16.5001269 1.98526698,16.5565862 1.98526698,16.6139142 C1.98526698,16.6590816 1.98095663,16.7042491 1.97492215,16.7459421 C1.96026698,16.8293282 1.93354284,16.9014224 1.89992215,16.9465898 C1.88268077,16.9700422 1.86371525,16.9856771 1.84388767,16.9934945 C1.7542325,17.0291073 1.63699112,17.1854562 1.51026698,17.4208481 C1.13009456,18.1261553 0.65940491,19.5350325 0.541301461,20.4653083 C0.519749737,20.6381607 0.478370427,20.8362026 0.447335944,20.9230631 C0.411991117,21.0168725 0.376646289,21.1558492 0.343025599,21.32349 C0.27578422,21.6587715 0.213715254,22.1130519 0.171473875,22.5751497 C0.15078422,22.8061986 0.135266979,23.0389847 0.126646289,23.2596103 C0.126646289,23.2665592 0.12578422,23.2726394 0.12578422,23.2795883 C0.115439392,23.5340895 0.099922151,23.7981454 0.0809566338,24.0283257 C0.0714738752,24.1577478 0.0602669786,24.2776153 0.049060082,24.3757677 C0.0387152545,24.4678398 0.0283704269,24.5416712 0.0180255993,24.5911817 C-0.000939917953,24.6875968 -0.00438819381,24.8682666 0.00509456481,25.0793376 C0.0145773234,25.28954 0.0361290476,25.5310122 0.0697497372,25.7499006 C0.113715254,26.0382775 0.145611806,26.2623775 0.168887668,26.4421787 C0.189577323,26.6046079 0.202508358,26.7322928 0.207680772,26.8313137 C0.213715254,26.9372835 0.211129048,27.0145894 0.199922151,27.0788661 C0.189577323,27.1422743 0.172335944,27.1926534 0.147335944,27.2430325 C0.118025599,27.3038348 0.10940491,27.3698488 0.121473875,27.4410744 C0.133542841,27.5131686 0.166301461,27.5887372 0.219749737,27.6703861 C0.24216353,27.7042617 0.265439392,27.7494291 0.286991117,27.802414 C0.354232496,27.9631059 0.413715254,28.1932862 0.436991117,28.3913282 C0.46716353,28.651041 0.61716353,29.1079272 0.764577323,29.3928296 C0.877508358,29.6091123 1.0318187,29.9808752 1.1542325,30.3248427 C1.19561181,30.4394986 1.23268077,30.5515486 1.26371525,30.6523068 C1.29561181,30.7539335 1.32750836,30.8512173 1.35854284,30.9389464 C1.45164629,31.2038709 1.53526698,31.3888837 1.56630146,31.3888837 C1.60768077,31.3888837 1.75164629,31.6077722 1.88440491,31.8726967 C1.9180256,31.937842 1.95595663,32.008199 1.99647388,32.0794246 C2.11888767,32.2913642 2.26285319,32.505041 2.35854284,32.6092736 C2.39474974,32.6483608 2.42492215,32.6926597 2.45854284,32.7360899 C2.50595663,32.7977609 2.54216353,32.8490086 2.57406008,32.9037307 C2.60078422,32.9471609 2.6318187,32.9966714 2.64043939,33.0253354 C2.65509456,33.0696342 2.69819801,33.1260936 2.75854284,33.1808157 C2.8180256,33.2346692 2.8930256,33.2876541 2.96888767,33.3250041 C3.0068187,33.3441134 3.05337043,33.373646 3.10595663,33.4092588 C3.15768077,33.4448716 3.21457732,33.4883018 3.27233594,33.5352065 C3.38957732,33.6298844 3.51199112,33.7419344 3.61371525,33.8487728 C3.71630146,33.9556112 3.82061181,34.0520264 3.9068187,34.1215148 C3.95078422,34.156259 3.98871525,34.1849229 4.02147388,34.2049009 C4.05337043,34.2240102 4.07750836,34.2344334 4.0930256,34.2344334 C4.12319801,34.2344334 4.15078422,34.2465939 4.17147388,34.2648346 C4.19130146,34.2830753 4.2042325,34.3091334 4.2042325,34.3360602 C4.2042325,34.3933881 4.31457732,34.5358393 4.45595663,34.661787 C4.59733594,34.7868661 4.70854284,34.9458208 4.70854284,35.0222581 C4.70854284,35.1004325 4.78354284,35.187293 4.88440491,35.2255116 C4.98612905,35.2628616 5.08354284,35.3175837 5.11457732,35.3523279 C5.22492215,35.4791443 6.00940491,35.8604618 6.16026698,35.8604618 C6.25164629,35.8604618 6.32147388,35.9056293 6.32147388,35.9620886 C6.32147388,36.0202851 6.38268077,36.0637154 6.46371525,36.0637154 C6.50337043,36.0637154 6.54216353,36.07327 6.57319801,36.0871677 C6.60509456,36.101934 6.62837043,36.1219119 6.63785319,36.1453642 C6.67492215,36.2356991 6.92578422,36.4181062 7.19733594,36.5787981 C7.26543939,36.6187539 7.33440491,36.6578411 7.40078422,36.6934539 C7.53612905,36.7638109 7.66285319,36.8220075 7.75854284,36.8524086 C7.80595663,36.8689121 7.84647388,36.8767296 7.87492215,36.8767296 C8.01630146,36.8767296 8.15164629,36.917554 8.18268077,36.9688017 C8.20509456,37.0052831 8.34992215,37.0695599 8.5318187,37.1260192 C8.59216353,37.1451285 8.6568187,37.1633692 8.72233594,37.1798727 C8.86888767,37.2163541 9.00595663,37.2554413 9.13009456,37.2953971 C9.50164629,37.414396 9.75164629,37.5403437 9.75164629,37.6185182 C9.75164629,37.6532624 9.8930256,37.6801891 10.0757842,37.687138 C10.1025084,37.6880066 10.1266463,37.6897438 10.1542325,37.6897438 C10.3766463,37.6897438 10.635267,37.7279624 10.7292325,37.7739984 C10.923198,37.8704136 11.0783704,37.9451136 11.2050946,38.0024415 C11.3318187,38.0589009 11.4309566,38.0988567 11.5154394,38.1240462 C11.6844049,38.1744253 11.7921635,38.1700823 11.9395773,38.1396811 C12.1214739,38.1023311 12.3499222,38.1292579 12.4844049,38.2022207 C12.5197497,38.22133 12.5835428,38.2378335 12.6671635,38.2517311 C13.0042325,38.3081905 13.6757842,38.3229567 14.2369911,38.2995044 C14.6576808,38.2812637 15.0171635,38.2430451 15.1266463,38.1831114 C15.2663015,38.1075427 15.4154394,38.0528206 15.5706118,38.0198136 C15.7257842,37.9868066 15.8878532,37.9746462 16.0550946,37.9850694 C16.2180256,37.9946241 16.3809566,38.0007043 16.536129,38.0033101 C16.9990601,38.010259 17.3878532,37.9842008 17.5068187,37.9329531 C17.5507842,37.9138438 17.6145773,37.8921287 17.6800946,37.873888 C17.7456118,37.8556473 17.8145773,37.8400124 17.8697497,37.8313264 C18.1619911,37.7852903 18.448198,37.728831 18.6947497,37.6680286 C18.8180256,37.6384961 18.9309566,37.6072263 19.0309566,37.5768251 C19.1292325,37.5455554 19.2154394,37.5160228 19.2818187,37.4864902 C19.4456118,37.4152646 19.7309566,37.2910541 19.9025084,37.2172227 C19.9878532,37.1798727 20.0844049,37.1459971 20.1688877,37.1208075 C20.2533704,37.095618 20.3266463,37.0799831 20.3663015,37.0799831 C20.4068187,37.0799831 20.4507842,37.0721657 20.4904394,37.0591366 C20.5292325,37.0469761 20.5637153,37.0287354 20.5826808,37.0087575 C20.6068187,36.9853052 20.6680256,36.9531668 20.748198,36.917554 C20.7895773,36.8993133 20.8344049,36.8810726 20.8835428,36.8628319 C21.1257842,36.7698912 21.4413015,36.6769504 21.561129,36.6752132 C21.5818187,36.6752132 21.6119911,36.6665272 21.6473359,36.6517609 C21.6835428,36.6352574 21.7249222,36.6135423 21.7697497,36.5866155 C21.860267,36.5318934 21.9645773,36.4563248 22.060267,36.3738073 C22.2516463,36.2087724 22.4490601,36.0724014 22.4990601,36.068927 C22.5266463,36.0680584 22.5697497,36.0411316 22.6188877,36.0003072 C22.6671635,35.9594828 22.7214739,35.9047607 22.773198,35.8456955 C22.8749222,35.7284339 22.9628532,35.5964059 22.9628532,35.5356036 C22.9628532,35.4886989 23.0283704,35.4539547 23.1197497,35.4539547 C23.1654394,35.4539547 23.2094049,35.440057 23.2456118,35.4157361 C23.2826808,35.3914152 23.311129,35.356671 23.3266463,35.3167151 C23.3404394,35.2793651 23.4085428,35.2081395 23.5068187,35.1247535 C23.6050946,35.0413674 23.7344049,34.9440836 23.8706118,34.8546173 C23.9395773,34.8094499 24.0094049,34.760808 24.0775084,34.7104289 C24.2818187,34.5601603 24.4723359,34.3994684 24.5490601,34.3065276 C24.5490601,34.3065276 24.5499222,34.3065276 24.5499222,34.305659 C24.6059566,34.2370392 24.6835428,34.160602 24.7697497,34.0832962 C24.9430256,33.9304217 25.1525084,33.7775472 25.3068187,33.6932926 C25.3835428,33.6507309 25.4473359,33.6255414 25.4844049,33.6255414 C25.561129,33.6255414 25.7050946,33.5134913 25.8594049,33.3580111 C25.9525084,33.2633331 26.0490601,33.1512831 26.1369911,33.0392331 C26.1938877,32.9662702 26.248198,32.8933074 26.2930256,32.8229504 C26.3706118,32.7048202 26.4266463,32.5962446 26.4438877,32.5172015 C26.4533704,32.4737713 26.4654394,32.4329468 26.4792325,32.3955968 C26.5188877,32.2826782 26.5723359,32.2018979 26.6145773,32.2018979 C26.6413015,32.2018979 26.6594049,32.1845258 26.6680256,32.1567305 C26.6766463,32.1289351 26.6740601,32.0907165 26.6594049,32.0498921 C26.6421635,32.0012502 26.6594049,31.9395792 26.7094049,31.8683536 C26.7594049,31.797128 26.8413015,31.7172164 26.9525084,31.6338303 C26.9999222,31.5973489 27.0456118,31.5582617 27.0869911,31.5191745 C27.2119911,31.40365 27.2999222,31.2855197 27.2999222,31.2264546 C27.2999222,31.1986592 27.311129,31.1778127 27.3214739,31.155229 C27.3395773,31.1152732 27.3663015,31.084872 27.4059566,31.084872 C27.436129,31.084872 27.4559566,31.0735801 27.4645773,31.0553394 C27.4723359,31.0370987 27.4688877,31.0119092 27.4516463,30.9832452 C27.4378532,30.9589243 27.4369911,30.9163627 27.4456118,30.8633778 C27.4723359,30.7061603 27.5869911,30.4612137 27.6930256,30.372616 C27.7016463,30.3656671 27.7171635,30.348295 27.7369911,30.3213683 C27.7783704,30.2675148 27.8404394,30.1797857 27.9085428,30.0781589 C27.9430256,30.0269112 27.9792325,29.9721891 28.0154394,29.9157298 C28.2585428,29.5361494 28.4119911,29.1739412 28.9163015,27.7824361 C29.1706118,27.0806034 29.423198,25.914067 29.4645773,25.2513214 C29.4688877,25.1757528 29.4749222,25.1001842 29.4826808,25.0289586 C29.5050946,24.8144131 29.5369911,24.6372177 29.5637153,24.5911817 C29.5818187,24.5607805 29.6025084,24.4730514 29.6206118,24.357527 C29.6387153,24.2420025 29.6550946,24.0978141 29.6654394,23.9562315 C29.6844049,23.6713291 29.7559566,23.3977185 29.8214739,23.3560255 C29.8447497,23.3412592 29.8628532,23.3238871 29.8740601,23.3013034 C29.885267,23.2787197 29.8913015,23.2500557 29.8913015,23.2144429 C29.8904394,23.1432173 29.8654394,23.0415905 29.8163015,22.888716 C29.7990601,22.8357311 29.7818187,22.7558195 29.7654394,22.6594043 L29.7654394,22.6594043 Z" id="Fill-4"></path>
                </g>
            </g>
        </g>
    </g>
</svg>