<?xml version="1.0" encoding="UTF-8"?>
<svg width="85px" height="227px" viewBox="0 0 85 227" version="1.1" xmlns="http://www.w3.org/2000/svg" xmlns:xlink="http://www.w3.org/1999/xlink">
    <!-- Generator: Sketch 61 (89581) - https://sketch.com -->
    <title>img-header-leaf-left</title>
    <desc>Created with Sketch.</desc>
    <g id="Page-1" stroke="none" stroke-width="1" fill="none" fill-rule="evenodd">
        <g id="200318_kodomonooka-ver2" transform="translate(0.000000, -8.000000)" fill="#BEEBEE">
            <g id="img-header-leaf-left" transform="translate(-3.000000, 8.000000)">
                <path d="M49.2165931,35.4080075 C49.4570216,35.5741218 49.7291431,35.6965218 49.8220359,35.6779432 C49.9138359,35.6593646 50.2810359,35.7905075 50.6176359,35.9609932 C51.2307288,36.2691789 51.2482145,36.3074289 51.3771716,37.5707718 C51.4744359,38.5499718 51.4121431,39.0089718 51.1159788,39.4493932 C50.6646288,40.1215003 49.5127573,40.8712003 49.3368073,40.6078218 C49.2723288,40.5105575 49.0712431,40.4690289 48.8942002,40.5149289 C48.7116931,40.5630146 48.2636216,40.4078289 47.8603573,40.1586575 C47.4560002,39.9083932 47.0713145,39.7379075 46.9707716,39.7641361 C46.6844431,39.8395432 46.5369073,38.9084289 46.7817073,38.5674575 C46.9052002,38.3958789 46.9806073,38.1270361 46.9456359,37.9915218 C46.8680431,37.6931718 47.2254073,36.2232789 47.5346859,35.5774003 C47.7871359,35.0473646 48.5827359,34.9675861 49.2165931,35.4080075 M26.3802502,32.1961003 C26.6545573,32.1228789 27.0228502,32.2103075 27.2173788,32.3939075 C27.4086288,32.5742289 27.7332073,32.6780503 27.9364788,32.6234075 C28.3091431,32.5261432 29.5943431,33.2769361 29.6927002,33.6496003 C29.7855931,34.0047789 29.5724859,36.3172646 29.3823288,37.0156003 C29.1725002,37.7838789 28.6708788,38.2909646 27.9277359,38.4854932 C27.6731002,38.5521575 27.4283002,38.7029718 27.3933288,38.8144432 C27.2829502,39.1707146 25.9278073,38.9215432 24.6590002,38.3106361 C23.0066002,37.5172218 22.8339288,37.3041146 22.7869359,36.0058003 C22.7060645,33.7250075 22.7683573,33.5129932 23.7136788,32.8769503 C24.3355145,32.4583861 24.7715645,32.2944575 25.2382145,32.3064789 C25.5966716,32.3163146 26.1114073,32.2660432 26.3802502,32.1961003 M51.9574788,5.66808606 C52.1334288,5.76862892 52.5476216,6.15659321 52.8776645,6.53035035 C53.8218931,7.60135035 53.9071359,9.07998606 53.0918645,10.2285789 C52.5869645,10.9378432 52.5869645,10.9378432 52.0558359,10.6646289 C51.4416502,10.3487932 50.4526145,10.6198218 49.9083716,11.2547718 C49.5925359,11.6219718 49.5368002,11.6143218 49.0144145,11.1225361 C48.7018573,10.8285575 48.3893002,10.4384075 48.3007788,10.2329503 C48.2100716,10.0253075 47.9477859,9.64608606 47.6931502,9.35647892 C47.3401573,8.95430749 47.2549145,8.69748606 47.2909788,8.14450035 C47.3172073,7.76090749 47.4243073,7.46583606 47.5292216,7.49534321 C47.6352288,7.52485035 48.1357573,7.21229321 48.6351931,6.80465749 C49.6690359,5.96097178 51.4219788,5.36099321 51.9574788,5.66808606 M10.2868359,14.4961861 C11.5928002,15.2480718 12.6506859,16.2360146 12.5359359,16.5988432 C12.5042431,16.6972003 12.6659859,17.0042932 12.8812788,17.2622075 C13.6462788,18.1703718 13.7009216,19.5331646 13.0135145,20.5757503 C12.0113645,22.0981003 11.7173859,22.3833361 11.0791573,22.4543718 C10.7338145,22.4937146 10.4278145,22.4456289 10.4026788,22.3483646 C10.3764502,22.2489146 10.1021431,22.2390789 9.76882163,22.3265075 C9.43659306,22.4139361 9.1601002,22.3964503 9.1295002,22.2849789 C9.10217877,22.1767861 8.92185735,22.1308861 8.72623592,22.1811575 C8.33499306,22.2838861 6.43560735,21.5877361 6.36457163,21.3156146 C6.34052877,21.2216289 5.99518592,20.8478718 5.6181502,20.5069003 C4.9679002,19.9189432 4.91871763,19.8118432 4.91871763,18.9758075 C4.91762877,18.1627218 5.13947877,17.6840503 6.54598592,15.4732003 C6.65308592,15.3059932 6.85963592,14.9497218 7.00826449,14.6808789 C7.1940502,14.3442789 7.54157877,14.1213361 8.12844306,13.9683361 C8.8847002,13.7694361 9.12840735,13.8295432 10.2868359,14.4961861 M28.2239002,5.18285749 C28.9670431,5.29870035 30.4238216,6.14785035 30.5221788,6.51942178 C30.5582431,6.65602892 30.7112431,6.78607892 30.8555002,6.79810035 C31.0227073,6.81230749 31.2216073,7.19371463 31.3811645,7.80025035 C31.6128502,8.68218606 31.5789716,8.87452892 31.0500288,9.72805035 C30.3582502,10.8416718 29.0173145,11.5225218 28.3943859,11.0744503 C28.2086002,10.9411218 27.8577931,10.8810146 27.6228288,10.9422146 C26.4753288,11.2438432 25.2524216,9.51494321 25.3518716,7.73030749 C25.4578788,5.83966463 26.5037431,4.91292178 28.2239002,5.18285749 M24.7671931,1.25840749 C24.2765002,1.70320035 23.7300716,2.05619321 23.5584931,2.03870749 C23.3694288,2.01794321 23.0208073,2.44087892 22.6710931,3.11845035 C22.3574431,3.72498606 21.9782216,4.26376463 21.8394288,4.29982892 C21.2689573,4.44955035 20.4580573,5.60470035 20.4886573,6.22435035 C20.5061431,6.57515749 20.4307359,7.02104321 20.3138002,7.25272892 C20.0668145,7.74342178 20.8580431,10.1651932 21.5082931,10.9159861 C21.7399788,11.1815503 22.0547216,11.6416432 22.2175573,11.9542003 C22.3803931,12.2667575 22.6929502,12.7170146 22.9235431,12.9716503 C23.1530431,13.2251932 23.3759859,13.5803718 23.4262573,13.7705289 C23.4765288,13.9595932 23.7224216,14.1770718 23.9726859,14.2557575 C24.2229502,14.3333503 24.4535431,14.4940003 24.4852359,14.6131218 C24.5606431,14.9005432 26.7561931,15.7737361 27.1485288,15.6710075 C27.3244788,15.6240146 27.4840359,15.6742861 27.5135431,15.7846646 C27.5419573,15.8939503 27.7987788,15.9190861 28.0927573,15.8414932 C28.9091216,15.6272932 29.1451788,15.7748289 29.6719359,16.8294361 C29.9407788,17.3649361 30.3047002,17.8567218 30.4959502,17.9419646 C30.6861073,18.0250218 30.8718931,18.2151789 30.9112359,18.3659932 C30.9527645,18.5233646 31.0675145,18.6184432 31.1789859,18.5889361 C31.2871788,18.5605218 31.4084859,18.6654361 31.4489216,18.8217146 C31.4904502,18.9779932 31.6674931,19.1889146 31.8445359,19.2927361 C32.3396002,19.5823432 32.9111645,20.2489861 32.8106216,20.4205646 C32.7614431,20.5036218 32.4259359,20.5462432 32.0412502,20.5178289 C31.6674931,20.4905075 30.9068645,20.4620932 30.3615288,20.4566289 C29.8161931,20.4500718 29.3462645,20.3757575 29.3233145,20.2894218 C29.3003645,20.2019932 29.1156716,20.1768575 28.9003788,20.2336861 C28.6850859,20.2894218 28.4534002,20.2686575 28.3692502,20.1845075 C28.2086002,20.0271361 27.5233788,19.9703075 25.7879216,19.9724932 C25.3278288,19.9724932 24.7759359,19.9342432 24.5617359,19.8872503 C24.3387931,19.8380718 24.0896216,19.8227718 23.9770573,19.8522789 C23.8710502,19.8796003 23.3552216,19.8326075 22.8514145,19.7495503 C22.3487002,19.6675861 21.5793288,19.5714146 21.1749716,19.5408146 C20.2569716,19.4730575 19.4591859,19.3725146 18.9466359,19.2621361 C18.7466431,19.2184218 18.4308073,19.2162361 18.2756216,19.2566718 C18.1204359,19.2971075 17.7761859,19.2676003 17.5477788,19.1965646 C17.1980645,19.0850932 17.1270288,18.9506718 17.1794859,18.4971361 C17.2778431,17.6359646 16.6571002,15.3070861 16.0330788,14.1945575 C15.7248931,13.6481289 15.1850216,12.9618146 14.8451431,12.6864146 C14.4943359,12.4011789 14.1763145,12.0132146 14.1205788,11.7979218 C14.0637502,11.5826289 13.8932645,11.4044932 13.7293359,11.3881003 C13.5697788,11.3728003 13.3195145,11.1192575 13.1741645,10.8230932 C12.9905645,10.4548003 12.6605216,10.2253003 12.1239288,10.0941575 C11.6988073,9.98924321 11.1797002,9.72477178 10.9884502,9.51385035 C10.7174216,9.21659321 10.4584145,9.17069321 9.89122163,9.32041463 C9.48030735,9.42860749 9.07157877,9.44172178 8.97868592,9.34992178 C8.88579306,9.25921463 8.42788592,9.28653606 7.95795735,9.40893606 C7.44868592,9.54226463 6.98094306,9.53898606 6.79297163,9.40128606 C6.33506449,9.06250035 5.83453592,9.25375035 5.0826502,10.0570003 C4.7231002,10.4395003 4.30562877,10.7870289 4.15481449,10.8263718 C4.0040002,10.8657146 3.88378592,11.0853789 3.88597163,11.3148789 C3.88815735,11.5760718 3.6674002,11.8427289 3.29692163,12.0252361 C2.96469306,12.1880718 2.69257163,12.4427075 2.67617877,12.6066361 C2.66087877,12.7563575 2.52973592,12.9268432 2.40296449,12.9607218 C2.2674502,12.9956932 1.9002502,13.5311932 1.58113592,14.1595861 C1.0128502,15.2797646 0.881707346,16.0797361 1.03689306,17.5037289 C1.07842163,17.8906003 1.0511002,18.5004146 0.97569306,18.8381075 C0.828157346,19.5047503 1.27950735,20.7440503 1.75708592,20.9844789 C1.90352877,21.0566075 2.08057163,21.2893861 2.1527002,21.5003075 C2.51771449,22.5778646 3.57341449,24.0499432 4.32639306,24.5297075 C6.27823592,25.7755646 7.3776502,26.3023218 7.79184306,26.1930361 C7.92954306,26.1580646 8.0661502,26.1985003 8.08691449,26.2837432 C8.10986449,26.3689861 8.47487877,26.4837361 8.88579306,26.5351003 C9.29670735,26.5853718 9.66172163,26.7001218 9.68357877,26.7853646 C9.74587163,27.0192361 13.0167931,26.1405789 13.1009431,25.8673646 C13.1381002,25.7460575 13.3217002,25.6564432 13.4943716,25.6772075 C13.8440859,25.7165503 14.5806716,24.9766861 14.8997859,24.2652361 C15.0921288,23.8357432 15.2068788,23.7898432 16.1041145,23.7811003 C16.6461716,23.7756361 17.6832931,23.8980361 18.3925573,24.0488503 C19.1018216,24.2007575 19.9640859,24.2532146 20.2963145,24.1668789 C20.6296359,24.0794503 21.2154073,24.0772646 21.5935359,24.1614146 C21.9705716,24.2455646 22.5672716,24.2870932 22.9148002,24.2532146 C23.2612359,24.2204289 23.8087573,24.2881861 24.1267788,24.4062146 C24.4448002,24.5242432 25.6600573,24.6706861 26.8283216,24.7318861 C27.9954931,24.7941789 29.1397145,24.9220432 29.3724931,25.0171218 C29.7593645,25.1755861 29.7156502,25.2520861 28.8216931,25.9886718 C28.2883788,26.4269075 27.7255573,26.8203361 27.5747431,26.8596789 C27.4228359,26.9001146 27.1692931,27.0684146 27.0053645,27.2389003 C26.7693073,27.4837003 26.5201359,27.5077432 25.7890145,27.3492789 C25.2786502,27.2389003 24.6502573,27.2083003 24.3781359,27.2804289 C24.1038288,27.3525575 23.8142216,27.3361646 23.7180502,27.2443646 C23.4207931,26.9580361 22.2569002,27.4093861 21.0602216,28.2738361 C20.2864788,28.8333789 19.5739359,29.8082075 19.5433359,30.3491718 C19.5236645,30.6901432 19.3750359,31.1218218 19.2122002,31.3152575 C19.0526431,31.5043218 18.9521002,31.7950218 18.9914431,31.9480218 C19.0329716,32.1053932 18.9783288,32.2551146 18.8701359,32.2846218 C18.7586645,32.3130361 18.7051145,32.4529218 18.7466431,32.6092003 C18.7848931,32.7556432 18.7105788,33.0288575 18.5870859,33.1960646 C18.4614073,33.3621789 18.4209716,33.7621646 18.4985645,34.0561432 C18.5750645,34.3490289 18.5433716,34.6681432 18.4275288,34.7435503 C18.3105931,34.8211432 18.3040359,35.3205789 18.4144145,35.8560789 C19.0788716,39.0515932 19.3116502,39.6253432 20.5203502,41.0580789 C21.3301573,42.0176075 21.8656573,42.3848075 22.7213645,42.5695003 C23.0994931,42.6503718 23.4404645,42.7531003 23.5104073,42.8055575 C23.9399002,43.1301361 26.1420073,43.5585361 26.6698573,43.4197432 C27.0119216,43.3301289 27.6119002,43.2623718 27.9911216,43.2711146 C28.7484716,43.2886003 30.2467788,42.4525646 30.5068788,41.8678861 C30.5855645,41.6886575 30.8686145,41.4810146 31.1232502,41.4132575 C31.5756931,41.2952289 31.9756788,40.6876003 33.0871145,38.4286646 C33.3002216,37.9958932 33.4422931,37.5740503 33.4138788,37.4636718 C33.3832788,37.3456432 33.4335502,37.2505646 33.5384645,37.2221503 C33.8280716,37.1456503 33.6849073,34.2331861 33.3198931,32.7807789 C33.1275502,32.0146861 32.7789288,30.9425932 32.5319431,30.3611932 L32.0904288,29.3153289 L33.2346502,28.6486861 C33.8696002,28.2793003 34.5187573,27.8476218 34.6958002,27.6793218 C34.8684716,27.5143003 35.2804788,27.1186861 35.5985002,26.8148718 C36.1154216,26.3187146 36.3077645,26.2476789 37.2410645,26.2159861 C37.8213716,26.1952218 38.4694359,26.2192646 38.6770788,26.2673503 C38.8781645,26.3143432 39.1732359,26.2717218 39.3032859,26.1766432 C39.4366145,26.0782861 39.9753931,26.0280146 40.4868502,26.0640789 C40.9983073,26.1012361 41.7862573,26.0564289 42.2190288,25.9657218 C42.6550788,25.8739218 43.1348431,25.8520646 43.2834716,25.9154503 C43.4331931,25.9810218 43.8659645,25.9799289 44.2451859,25.9143575 C44.6265931,25.8498789 45.0528073,25.8313003 45.1970645,25.8739218 C45.3336716,25.9143575 45.5413145,25.8662718 45.6309288,25.7711932 C45.7249145,25.6728361 46.0560502,25.6772075 46.3554931,25.7788432 C46.6538431,25.8815718 47.1041002,25.9165432 47.3379716,25.8564361 C47.7390502,25.7504289 49.0570359,25.7121789 49.8089216,25.7821218 C49.9859645,25.7996075 51.0558716,25.8684575 52.1815145,25.9340289 L54.2328073,26.0542432 L53.3148073,27.0596718 C52.8088145,27.6126575 51.9268788,28.4323003 51.3553145,28.8814646 C50.7826573,29.3317218 50.1979788,29.7994646 50.0591859,29.9207718 C49.6493645,30.2770432 48.3761859,30.6540789 48.0581645,30.5152861 C47.5587288,30.2956218 46.6735145,30.4191146 46.1817288,30.7753861 C45.8811931,30.9917718 45.6145359,31.0649932 45.4593502,30.9742861 C45.3008859,30.8813932 45.0746645,30.9830289 44.8309573,31.2540575 C44.6211288,31.4890218 44.4364359,31.6212575 44.4167645,31.5513146 C44.3992788,31.4791861 44.1686859,31.6398361 43.8867288,31.9207003 C43.6047716,32.2015646 43.4069645,32.4802432 43.4277288,32.5633003 C43.4495859,32.6441718 43.2332002,33.0977075 42.9556145,33.5567075 C42.6791216,34.0157075 42.4703859,34.4965646 42.4998931,34.6080361 C42.5294002,34.7206003 42.4529002,34.9479146 42.3283145,35.1129361 C42.2081002,35.2746789 42.1195788,35.7118218 42.1381573,36.0626289 C42.1578288,36.4134361 42.0835145,36.8658789 41.9786002,37.0462003 C41.8715002,37.2287075 41.7797002,37.7784146 41.7764216,38.2603646 C41.7665859,39.8329861 43.5949359,43.4962432 44.5730431,43.8590718 C46.5664145,44.5978432 48.1488716,45.0120361 49.5597502,45.1617575 C50.5717359,45.2688575 51.9476431,45.1267861 52.0154002,44.9060289 C52.0470931,44.7989289 52.2525502,44.6557646 52.4481716,44.6044003 C52.8492502,44.4983932 53.3410359,43.8612575 54.4929073,41.9520361 C55.1628288,40.8427861 55.5289359,39.5051289 55.5059859,38.2549003 C55.4983359,37.9019075 55.5464216,37.5084789 55.6152716,37.3478289 C55.7912216,36.9423789 55.3005288,34.7730575 54.8524573,33.9698075 C54.0087716,32.4551075 54.0175145,32.5436289 54.6808788,32.2234218 C55.0152931,32.0627718 55.3967002,31.8868218 55.5212859,31.8376432 C55.6469645,31.7873718 55.7431359,31.5283646 55.7354859,31.2584289 C55.7245573,30.8835789 55.8589788,30.7349503 56.3092359,30.6158289 C56.6425573,30.5284003 56.8764288,30.3852361 56.8502002,30.2857861 C56.7791645,30.0147575 59.7692216,27.6148432 60.3768502,27.4563789 C60.5528002,27.4093861 60.6686431,27.2913575 60.6402288,27.1875361 C60.6140002,27.0826218 60.6926859,26.8279861 60.8227359,26.6050432 C61.0872073,26.1536932 61.8478359,26.0444075 62.4161216,26.3755432 C62.6073716,26.4881075 63.2193716,26.5230789 63.7865645,26.4564146 C64.3548502,26.3875646 64.8313359,26.4116075 64.8575645,26.5088718 C64.8827002,26.6061361 65.1296859,26.6269003 65.4029002,26.5536789 C65.6761145,26.4826432 66.2280073,26.4706218 66.6203431,26.5274503 C67.0104931,26.5853718 67.8148359,26.5744432 68.3820288,26.5055932 C68.9503145,26.4356503 69.4431931,26.4400218 69.4617716,26.5132432 C69.4825359,26.5897432 69.8267859,26.5886503 70.2256788,26.5121503 C70.6245716,26.4367432 71.1349359,26.4159789 71.3546002,26.4673432 C71.5786359,26.5187075 71.9414645,26.5110575 72.1764288,26.4509503 C72.4103002,26.3886575 72.9545431,26.4214432 73.3993359,26.5252646 C74.3796288,26.7525789 75.5304073,26.8247075 76.0385859,26.6913789 C76.3904859,26.5984861 77.5860716,24.8291503 77.5325216,24.4794361 C77.5183145,24.3876361 77.4822502,24.0521289 77.4483716,23.7056932 C77.3806145,23.0117289 76.7325502,21.3899289 76.6057788,21.6041289 C76.5576931,21.6882789 76.3150788,21.6893718 76.0418645,21.6052218 C75.7784859,21.5254432 74.8976431,21.5123289 74.0780002,21.5779003 C73.2583573,21.6423789 72.5228645,21.6292646 72.4376216,21.5473003 C72.3556573,21.4675218 71.9316288,21.4926575 71.5207145,21.5997575 C71.1087073,21.7079503 70.6792145,21.7243432 70.5885073,21.6347289 C70.4945216,21.5440218 70.1360645,21.5451146 69.7830716,21.6369146 C69.4410073,21.7276218 68.7470431,21.7166932 68.2803931,21.6139646 C67.8148359,21.5101432 67.1208716,21.4992146 66.7777145,21.5888289 C66.4258145,21.6817218 66.0662645,21.6828146 65.9733716,21.5910146 C65.8793859,21.4992146 65.5690145,21.4882861 65.2750359,21.5658789 C64.9624788,21.6478432 64.6051145,21.5713432 64.3996573,21.3768146 C64.1614145,21.1527789 63.8368359,21.1057861 63.3658145,21.2292789 C62.9942431,21.3265432 62.5035502,21.3702575 62.2926288,21.3232646 C62.0784288,21.2751789 61.6183359,21.1855646 61.2664359,21.1232718 C60.4107288,20.9702718 59.4512002,20.4205646 58.9233502,19.7801503 C58.6905716,19.4971003 58.1747431,18.8993075 57.7845931,18.4577932 C57.3955359,18.0195575 56.8392716,17.1157646 56.5627788,16.4764432 C56.2873788,15.8371218 55.9016002,15.1322289 55.7169073,14.9300503 C55.4207431,14.6043789 55.4513431,14.4360789 55.9737288,13.5552361 C56.3070502,12.9913218 56.7015716,12.5170218 56.8720573,12.4722146 C57.0480073,12.4252218 57.1419931,12.2645718 57.0950002,12.0886218 C57.0512859,11.9214146 57.1223216,11.2973932 57.2534645,10.6974146 C57.3846073,10.0985289 57.4469002,9.44172178 57.3922573,9.23735749 C57.3419859,9.04173606 57.3408931,8.79037892 57.3900716,8.70404321 C57.4414359,8.61442892 57.5157502,8.07565035 57.5561859,7.47785749 C57.6392431,6.26369321 56.9409073,3.83864321 56.2458502,2.92610749 C55.7529716,2.28132178 53.8765359,1.12070749 53.4885716,1.22234321 C53.3333859,1.26387178 53.1935002,1.21032178 53.1629002,1.09775749 C53.1355788,0.989564635 52.9268431,0.951314635 52.6918788,1.01251463 C52.4569145,1.07480749 52.0623931,0.979728921 51.7979216,0.797221778 C51.3640573,0.498871778 51.1498573,0.519636064 49.1772502,1.05622892 C47.9270216,1.39720035 47.0079288,1.56003606 46.9773288,1.44637892 C46.8713216,1.04639321 46.3751645,1.46605035 45.5216431,2.67693606 C45.0178359,3.38947892 44.3927216,4.14682892 44.1326216,4.35884321 C43.8725216,4.56976463 43.6987573,4.90090035 43.7479359,5.08777892 C43.7993002,5.28340035 43.7293573,5.45935035 43.5840073,5.49760035 C43.2594288,5.58175035 42.5261216,6.94672892 42.3534502,7.78713606 C42.2026359,8.51716463 42.8102645,10.9651646 43.2200859,11.2842789 C43.3654359,11.3968432 43.7173359,11.9596646 44.0124073,12.5519932 C44.3074788,13.1443218 44.6255002,13.5934861 44.7293216,13.5672575 C44.8265859,13.5410289 44.9610073,13.6940289 45.0123716,13.8907432 C45.0681073,14.1005718 45.3894073,14.4612146 45.7533288,14.7202218 C46.1183431,14.9814146 46.4112288,15.2305861 46.4276216,15.2972503 C46.4855431,15.5147289 48.0636288,16.3453003 48.6865573,16.4840932 C49.0187859,16.5584075 49.3051145,16.6928289 49.3302502,16.7846289 C49.3532002,16.8731503 49.5116645,16.9146789 49.6668502,16.8742432 C49.8242216,16.8327146 49.9848716,16.8884503 50.0132859,16.9922718 C50.0406073,17.0993718 50.4231073,17.0797003 50.8482288,16.9507432 C51.2755359,16.8217861 51.7279788,16.7747932 51.8383573,16.8491075 C52.0864359,17.0108503 53.4175359,19.2173289 53.8863716,20.2446146 L54.2120431,20.9538789 L53.3344788,21.0391218 C52.8437859,21.0861146 52.3454431,21.0686289 52.2044645,20.9997789 C52.0503716,20.9243718 51.8798859,20.9975932 51.7629502,21.1888432 C51.6165073,21.4292718 51.5345431,21.4511289 51.4110502,21.2817361 C51.3214359,21.1604289 51.0427573,21.1167146 50.7881216,21.1833789 C50.5334859,21.2500432 50.2526216,21.2303718 50.1586359,21.1396646 C50.0657431,21.0478646 49.7367931,21.0413075 49.4220502,21.1243646 C49.1094931,21.2063289 48.7794502,21.1986789 48.6865573,21.1079718 C48.5914788,21.0150789 48.3510502,20.9866646 48.1357573,21.0424003 C47.9248359,21.0981361 47.5543573,21.1014146 47.3106502,21.0500503 C47.0669431,20.9986861 46.6833502,20.9156289 46.4571288,20.8664503 C46.1893788,20.8074361 45.9850145,20.8795646 45.8724502,21.0719075 C45.7424002,21.2948503 45.6506002,21.3232646 45.5052502,21.1888432 C45.4003359,21.0915789 44.8091002,21.0850218 44.2047502,21.1746361 C42.9949573,21.3538646 42.8714645,21.3604218 41.5873573,21.3276361 C41.0398359,21.3145218 40.6507788,21.1888432 40.6037859,21.0107075 C40.5108931,20.6577146 40.0005288,20.1440718 39.2519216,19.6501003 C38.9339002,19.4413646 38.6650573,19.2031218 38.6399216,19.1102289 C38.6169716,19.0217075 38.4596002,18.9801789 38.3033216,19.0206146 C38.1426716,19.0632361 37.7984216,18.8916575 37.5448788,18.6435789 C37.2924288,18.3976861 36.6607573,17.8086361 36.1602288,17.3540075 C35.6597002,16.8993789 35.2061645,16.3890146 35.1657288,16.2349218 C35.1231073,16.0786432 35.0127288,15.9048789 34.9176502,15.8502361 C34.8236645,15.7955932 34.4816002,15.3781218 34.1668573,14.9377003 C33.5395573,14.0557646 33.5603216,13.5694432 34.2302431,13.3924003 C34.4510002,13.3355718 34.7165645,12.8263003 34.9406002,12.0350718 C35.1395002,11.3345503 35.3766502,10.5061646 35.4728216,10.1794003 C35.7438502,9.25921463 35.5198145,6.94454321 35.0444216,5.75005035 C34.8127359,5.16974321 34.2816073,4.23535035 33.8455573,3.63865035 C33.0740002,2.58513606 31.4860788,1.16114321 31.1625931,1.23217892 C31.0653288,1.25294321 30.5833788,1.09557178 30.0872216,0.879186064 C29.5910645,0.662800349 29.1014645,0.509800349 28.9932716,0.538214635 C28.8883573,0.565536064 28.6523002,0.481386064 28.4850931,0.357893206 C28.3211645,0.235493206 27.9965859,0.172107492 27.8009645,0.223471778 C27.6064359,0.274836064 27.4020716,0.219100349 27.3736573,0.105443206 C27.2731145,-0.273778222 25.6797288,0.430021778 24.7671931,1.25840749" id="Fill-11" transform="translate(39.240760, 22.599098) scale(-1, -1) translate(-39.240760, -22.599098) "></path>
                <path d="M49.1411193,146.044053 C48.4744765,146.618896 48.4438765,146.720532 48.6121765,147.870218 C48.7094408,148.545603 48.9039693,149.113889 49.0482265,149.146675 C49.2001336,149.182739 49.3203479,149.321532 49.3400193,149.479996 C49.3968479,149.977246 50.2263265,150.397996 51.2394051,150.447175 C51.9071408,150.47996 52.1978408,150.410018 52.1748908,150.222046 C52.1584979,150.072325 52.3180551,149.712775 52.5377193,149.412239 C52.8273265,149.017718 52.8983622,148.568553 52.8000051,147.732518 C52.6710479,146.648403 52.6174979,146.568625 51.6951265,146.132575 C51.1618122,145.881218 50.7148336,145.592703 50.7039051,145.493253 C50.6645622,145.156653 49.8285265,145.451725 49.1411193,146.044053 M59.8227051,137.507746 C59.7221622,137.677139 59.3068765,138.333946 58.9210979,138.935018 C58.5364122,139.537182 58.2325979,140.242075 58.2631979,140.467203 C58.2927051,140.698889 58.1014551,141.189582 57.8315193,141.568803 C56.7135265,143.142518 57.1594122,145.162118 58.8030693,145.965368 C59.3658908,146.240768 59.7079551,146.542396 59.6336408,146.701953 C59.5494908,146.881182 59.6270836,146.908503 59.8631408,146.786103 C60.0598551,146.683375 60.5024622,146.675725 60.8587336,146.76971 C61.6434051,146.97626 62.5493836,146.925989 62.6695979,146.668075 C62.7133122,146.576275 62.8925408,146.530375 63.0586551,146.569718 C63.7034408,146.72381 64.9809908,145.699803 65.8640193,144.320618 C66.7230051,142.979682 65.6629336,139.160146 64.1099836,137.99516 C63.7438765,137.720853 62.3898265,137.308846 61.7679908,137.281525 C61.5581622,137.273875 61.0969765,137.252018 60.7046408,137.232346 C60.2893551,137.210489 59.9363622,137.32196 59.8227051,137.507746 M39.5447408,135.989768 C39.5611336,136.118725 39.4387336,136.232382 39.2584122,136.256425 C39.0824622,136.279375 38.5524265,136.90121 38.0650122,137.653096 C37.3502836,138.756882 37.1907265,139.228996 37.2071193,140.19836 C37.2235122,141.251875 37.2847122,141.420175 37.7426193,141.654046 C38.0376908,141.80486 38.2748408,142.03436 38.2945122,142.189546 C38.3141836,142.337082 38.6289265,142.70756 38.9873836,143.004818 C39.4922836,143.424475 39.8474622,143.521739 40.5239408,143.433218 C40.9982408,143.372018 41.4790979,143.413546 41.5687122,143.525018 C41.6659765,143.64851 41.8801765,143.628839 42.0910979,143.479118 C42.2878122,143.338139 42.7030979,143.084596 43.0243979,142.907553 C43.9281908,142.410303 44.7532979,140.696703 44.6101336,139.613682 C44.4593193,138.462903 43.8178122,137.033446 43.4735622,137.079346 C43.3325836,137.096832 42.9981693,136.950389 42.6943551,136.734003 C41.4539622,135.85316 39.4649622,135.383232 39.5447408,135.989768 M19.1006622,134.090382 C19.1148693,134.209503 18.9268979,134.342832 18.7006765,134.372339 C17.9793908,134.467418 17.5837765,134.775603 17.6406051,135.200725 C17.6690193,135.426946 17.5455265,135.764639 17.3619265,135.96026 C17.1772336,136.156975 16.8974622,136.75586 16.7357193,137.305568 C16.4679693,138.206082 16.4843622,138.404982 16.9247836,139.49456 C17.8460622,141.77426 18.3170836,142.089003 20.8197265,142.101025 C22.1978193,142.106489 22.5715765,142.040918 22.7934265,141.75131 C22.9453336,141.553503 23.3169051,141.196139 23.6283693,140.951339 C24.4622193,140.292346 24.8512765,138.910975 24.5081193,137.831232 C23.9540408,136.093589 22.9857693,135.199632 20.8197265,134.424796 C19.0143265,133.78001 19.0613193,133.789846 19.1006622,134.090382 M10.9446693,126.699389 C10.7566979,126.844739 10.4878551,126.926703 10.3709193,126.875339 C10.2507051,126.821789 9.92721934,127.128882 9.65619076,127.555096 C8.93271934,128.688389 9.21030505,130.389968 10.2758408,131.351682 C11.0091479,132.013953 11.1195265,132.041275 12.2866979,131.84456 C13.3423979,131.666425 13.6024979,131.521075 14.0789836,130.851153 C14.7193979,129.94736 14.8560051,129.050125 14.5161265,127.993332 C14.3303408,127.419582 14.0308979,127.133253 13.2254622,126.766053 C12.1020051,126.254596 11.5413693,126.238203 10.9446693,126.699389 M6.48799791,111.141475 C5.70660505,111.308682 5.39404791,111.539275 4.80718362,112.381868 C3.78864076,113.845203 3.76241219,113.964325 4.04655505,115.854968 C4.28698362,117.452725 4.35474076,117.601353 5.06400505,118.108439 C5.49459076,118.415532 5.94375505,118.614432 6.09894076,118.567439 C6.24975505,118.522632 6.79290505,118.608968 7.29452648,118.75541 C7.79614791,118.901853 8.32509076,118.968518 8.46060505,118.899668 C8.59393362,118.833003 8.96878362,118.836282 9.27587648,118.907318 C9.74361934,119.016603 10.0397836,118.86251 10.9413908,118.046146 C11.9468193,117.135796 12.0320622,116.974053 11.9632122,116.121625 C11.7555693,113.509696 11.4124122,112.869282 9.64854076,111.796096 C8.21580505,110.925089 7.84860505,110.848589 6.48799791,111.141475 M14.0975622,106.888075 C13.8789908,106.98206 13.7238051,107.227953 13.7445693,107.442153 C13.7664265,107.644332 13.6582336,108.049782 13.5194408,108.29786 C13.1445908,108.962318 13.2374836,109.366675 14.0101336,110.458439 C14.5467265,111.214696 14.7620193,111.353489 15.1947908,111.221253 C15.4811193,111.133825 15.9204479,111.023446 16.1510408,110.980825 C16.3903765,110.936018 16.6581265,110.695589 16.7663193,110.428932 C16.8734193,110.162275 17.0570193,109.813653 17.1859765,109.62896 C17.4930693,109.187446 17.1094765,107.389696 16.6286193,107.015939 C16.2089622,106.69136 14.7270479,106.615953 14.0975622,106.888075 M27.7560908,99.4708533 C26.9626765,101.364775 26.9353551,101.507939 27.1965479,102.389875 C27.3408051,102.876196 27.6588265,103.453225 27.9025336,103.672889 C28.5025122,104.214946 29.5833479,104.715475 30.0281408,104.65646 C30.2303193,104.629139 30.4620051,104.750446 30.5570836,104.930768 C30.6466979,105.102346 30.8521551,105.235675 30.9953193,105.218189 C31.1494122,105.197425 31.4761765,105.45206 31.7504836,105.807239 C32.0247908,106.160232 32.3220479,106.419239 32.4378908,106.405032 C32.5482693,106.389732 33.3296622,106.90556 34.1722551,107.552532 C35.0137551,108.199503 35.7339479,108.725168 35.7711051,108.719703 C35.9765622,108.692382 39.7491051,111.614682 40.0496408,112.034339 C40.4408836,112.579675 40.3217622,112.884582 39.8365336,112.580768 C39.6452836,112.461646 38.8256408,112.396075 38.0278551,112.438696 C37.2300693,112.480225 36.2005979,112.480225 35.7558051,112.438696 C35.3088265,112.397168 34.5394551,112.43651 34.0454836,112.526125 C33.5526051,112.616832 33.0094551,112.60481 32.8378765,112.502082 C32.6269551,112.373125 32.2105765,112.435418 31.5330051,112.69661 C30.8346693,112.965453 30.3997122,113.026653 30.0685765,112.900975 C29.7319765,112.77311 29.4718765,112.813546 29.1582265,113.044139 C28.8445765,113.273639 28.4391265,113.33156 27.7386051,113.24741 C25.9703622,113.035396 24.9616551,113.067089 21.6819908,113.435382 C19.1050336,113.726082 18.4340193,113.865968 18.3782836,114.129346 C18.3367551,114.31841 18.1706408,114.477968 17.9903193,114.50201 C17.8099979,114.52496 17.6930622,114.679053 17.7160122,114.859375 C17.7400551,115.039696 17.6395122,115.24406 17.4799551,115.33586 C16.9827051,115.62656 18.6088765,116.40686 19.9552765,116.523796 C20.6743765,116.587182 21.8688693,116.752203 22.5726693,116.886625 C24.0775336,117.176232 27.0042051,117.253825 28.5145336,117.047275 C29.1003051,116.966403 29.9385265,116.945639 30.3898765,117.000282 C30.8346693,117.054925 31.7723408,117.046182 32.4520979,116.981703 C33.1329479,116.917225 33.7875693,116.898646 33.8935765,116.941268 C33.9984908,116.982796 34.5864479,116.978425 35.1776836,116.931432 C36.2672622,116.844003 39.1764479,116.940175 39.8103051,117.085525 C40.2835122,117.193718 40.4736693,117.218853 40.7676479,117.213389 C41.1140836,117.206832 40.8507051,117.675668 40.3217622,118.007896 C39.3884622,118.591482 38.8474979,119.06906 38.6966836,119.440632 C38.6092551,119.65811 38.4081693,119.846082 38.2365908,119.869032 C38.0682908,119.890889 37.8300479,120.07121 37.7043693,120.271203 C37.5786908,120.473382 37.1251551,120.750968 36.6869193,120.898503 C36.2464979,121.046039 35.6989765,121.419796 35.4541765,121.73891 C35.2192122,122.04491 34.7908122,122.416482 34.5383622,122.535603 C34.2782622,122.658003 33.8771836,122.980396 33.6564265,123.249239 C33.4389479,123.511525 33.1307622,123.754139 32.9908765,123.771625 C32.8455265,123.791296 32.4149408,124.022982 32.0160479,124.297289 C31.1526908,124.889618 29.5647693,125.569375 28.7571479,125.689589 C28.0358622,125.798875 26.2829193,127.073146 26.0687193,127.643618 C25.9780122,127.884046 25.9255551,128.740846 25.9506908,129.563768 L25.9965908,131.04896 L26.7462908,131.248953 C27.3943551,131.421625 27.6009051,131.376818 28.2751979,130.921096 C28.6970408,130.63586 29.3276193,130.348439 29.6500122,130.292703 C29.9866122,130.235875 30.3669265,130.067575 30.5286693,129.903646 C30.8193693,129.608575 31.6368265,129.265418 32.8990765,128.910239 C33.3405908,128.785653 33.9034122,128.453425 34.1230765,128.190046 C34.3405551,127.926668 34.6432765,127.685146 34.7766051,127.66766 C35.0257765,127.634875 39.2321836,124.786889 39.4048551,124.533346 C39.4627765,124.450289 39.9305193,124.104946 40.4583693,123.756325 C41.9785336,122.75636 43.7052479,121.40996 43.7587979,121.184832 C43.7883051,121.063525 43.9445836,120.953146 44.1249051,120.930196 C44.3052265,120.906153 44.4287193,120.791403 44.4112336,120.662446 C44.3948408,120.538953 44.8046622,120.167382 45.3128408,119.843896 C45.8210193,119.519318 46.2822051,119.095289 46.3259193,118.907318 C46.3718193,118.712789 46.6188051,118.430832 46.8942051,118.25816 C47.1532122,118.09751 47.6220479,117.771839 47.8930765,117.564196 C48.2897836,117.26366 48.5160051,117.218853 48.8985051,117.364203 C49.1717193,117.466932 50.0022908,117.46256 50.7454336,117.354368 C52.6819765,117.07241 55.1518336,117.153282 56.2075336,117.534689 C56.7135265,117.717196 57.1080479,117.75326 57.0905622,117.616653 C57.0468479,117.284425 59.4500408,117.237432 60.5931693,117.547803 C61.3537979,117.755446 61.4980551,117.887682 61.4991479,118.390396 C61.5024265,119.193646 61.0576336,120.302896 60.4347051,121.053689 C60.1571193,121.38701 59.9363622,121.803389 59.9560336,121.955296 C59.9767979,122.11376 59.6117836,122.792425 59.1276479,123.49841 C58.6413265,124.205489 58.2741265,124.868853 58.2927051,125.008739 C58.3112836,125.14316 58.2238551,125.269932 58.0992693,125.286325 C57.9790551,125.302718 57.8927193,125.451346 57.9123908,125.60981 C57.9342479,125.764996 57.7440908,126.155146 57.5058479,126.442568 C57.2566765,126.746382 56.7386622,127.439253 56.3255622,128.020653 C55.9124622,128.603146 55.5550979,129.063239 55.5113836,129.069796 C55.4665765,129.07526 55.0010193,129.640268 54.4524051,130.356089 C53.9037908,131.070818 53.3595479,131.646753 53.2141979,131.666425 C53.0666622,131.685003 52.9136622,131.877346 52.8601122,132.114496 C52.8087479,132.338532 52.3344479,133.089325 51.8251765,133.753782 C51.3159051,134.417146 50.9082693,135.160289 50.9377765,135.373396 C50.9672836,135.598525 50.8929693,135.894689 50.7629193,136.061896 C50.5902479,136.287025 50.6339622,136.57226 50.9476122,137.288082 C51.3672693,138.242146 51.9126051,138.705518 52.5366265,138.635575 C53.1256765,138.56891 54.2207193,137.733968 54.4239908,137.197375 C54.6349122,136.642203 55.5550979,135.513282 55.8370551,135.465196 C56.0184693,135.434596 56.7561479,134.389825 57.3298979,133.350518 C57.6992836,132.681689 59.8729765,129.876325 60.0522051,129.836982 C60.1254265,129.820589 60.5724051,129.160503 61.0324979,128.388946 C61.4925908,127.616296 61.9865622,126.876432 62.1155193,126.76496 C62.2444765,126.654582 62.6521122,125.948596 63.0127551,125.213103 C63.3723051,124.47761 63.7602693,123.852496 63.8651836,123.839382 C63.9700979,123.825175 64.1340265,123.504968 64.2301979,123.124653 C64.3274622,122.739968 64.6957551,122.020868 65.0695122,121.488646 C65.4432693,120.957518 65.7186693,120.406718 65.6957193,120.236232 C65.6738622,120.062468 65.7918908,119.913839 65.9722122,119.889796 C66.1470693,119.866846 66.6607122,119.317139 67.1218979,118.659239 C68.0267836,117.37076 69.1600765,116.609039 69.8179765,116.85056 C70.0332693,116.929246 70.7064693,116.981703 71.3468836,116.968589 C71.9883908,116.954382 72.9031122,117.005746 73.4287765,117.084432 C73.9467908,117.162025 75.0287193,117.218853 75.8538265,117.212296 C76.6800265,117.204646 77.6592265,117.254918 78.0493765,117.32486 C78.4482693,117.395896 79.0449693,117.391525 79.4252836,117.316118 C79.8055979,117.24071 80.2044908,117.247268 80.3454693,117.333603 C80.4853551,117.417753 80.8470908,117.48551 81.1694836,117.487696 C81.4907836,117.490975 81.8601693,117.543432 82.0098908,117.606818 C82.1585193,117.670203 82.8415551,117.641789 83.5398908,117.543432 C84.2382265,117.445075 84.9212622,117.419939 85.0698908,117.486603 C85.4797122,117.671296 86.7004336,116.977332 87.2140765,116.268068 C87.5845551,115.75661 87.6577765,115.360996 87.5463051,114.503103 C87.3036908,112.662732 86.7966051,112.478039 82.6513979,112.716282 C81.6273908,112.775296 80.7749622,112.751253 80.7640336,112.664918 C80.7520122,112.578582 80.2449265,112.556725 79.6329265,112.619018 C79.0220193,112.680218 78.2417193,112.664918 77.8963765,112.584046 C77.5586836,112.50536 76.9182693,112.48241 76.5128193,112.53596 C76.1062765,112.58951 75.7073836,112.53596 75.6494622,112.420118 C75.5347122,112.192803 74.8473051,112.175318 71.9982265,112.32176 C70.9272265,112.376403 70.0201551,112.350175 69.9709765,112.261653 C69.9217979,112.174225 69.6606051,112.173132 69.3961336,112.259468 C68.5830479,112.525032 67.6519336,112.177503 67.3918336,111.509768 C67.2585051,111.170982 66.7033336,110.464996 66.1405122,109.91966 C65.5765979,109.374325 65.1088551,108.800575 65.0859051,108.624625 C65.0618622,108.444303 64.9525765,108.319718 64.8301765,108.337203 C64.7077765,108.353596 64.5263622,108.169996 64.4072408,107.909896 C64.2903051,107.657446 63.8531622,107.06621 63.4171122,106.572239 C62.9799693,106.07936 62.6204193,105.578832 62.6007479,105.441132 C62.5843551,105.305618 62.4663265,105.206168 62.3428336,105.221468 C62.2248051,105.23786 62.0914765,105.048796 62.0608765,104.822575 C62.0313693,104.597446 61.9045979,104.370132 61.7920336,104.343903 C61.3625408,104.241175 58.7178265,100.581196 57.4216979,98.2971248 C56.2119051,96.160589 55.6436193,95.3988676 55.1846193,95.2928605 C54.5693408,95.1486033 53.4710193,95.349689 53.5038051,95.5999533 C53.5201979,95.7201676 53.3759408,95.8458462 53.1956193,95.869889 C52.6502836,95.9409248 52.2787122,97.0458033 52.2907336,98.5594105 C52.3038479,100.212903 52.3486551,100.29596 54.0862979,101.85656 C54.7999336,102.496975 55.4184908,103.17236 55.4403479,103.330825 C55.4600193,103.490382 56.0851336,104.348275 56.8129765,105.216003 C57.5408193,106.083732 58.3112836,107.072768 58.5090908,107.390789 C58.7079908,107.70881 58.9506051,107.963446 59.0434979,107.951425 C59.1352979,107.939403 59.3057836,108.203875 59.4172551,108.532825 C59.5298193,108.862868 59.8653265,109.355746 60.1571193,109.616939 C60.4565622,109.886875 60.8390622,110.457346 61.0270336,110.913068 C61.2160979,111.370975 61.5472336,111.777518 61.7789193,111.836532 C62.0969408,111.91631 61.9679836,112.045268 61.2313979,112.378589 C60.7122908,112.614646 60.1614908,112.766553 60.0358122,112.708632 C59.9090408,112.649618 59.0708193,112.614646 58.1790479,112.632132 C57.2807193,112.647432 55.2622122,112.615739 53.6721051,112.55891 C52.0798122,112.503175 50.6896979,112.480225 50.5672979,112.508639 C50.4416193,112.538146 49.8328979,112.685682 49.1881122,112.84196 C47.2526622,113.311889 46.5980408,113.049603 45.5346908,111.38081 C45.0210479,110.576468 44.3773551,109.765568 44.0997693,109.574318 C43.8221836,109.383068 43.5839408,109.145918 43.5708265,109.046468 C43.5380408,108.799482 38.7163551,105.119832 38.4682765,105.151525 C38.3568051,105.166825 38.1775765,104.983225 38.0704765,104.744982 C37.9633765,104.506739 37.7240408,104.331882 37.5382551,104.355925 C37.1765193,104.402918 32.1592122,100.717803 32.1056622,100.366996 C32.0881765,100.245689 31.6750765,99.7812248 31.2117051,99.3593819 C30.4641908,98.6807176 30.2029979,98.5845462 29.2216122,98.623889 C28.1495193,98.6665105 28.0752051,98.7091319 27.7560908,99.4708533 M1.74718362,101.277346 C1.04119791,102.134146 0.813883622,103.384375 1.07835505,104.95481 C1.21059076,105.741668 1.38107648,106.361318 1.46194791,106.351482 C1.54172648,106.340553 1.90127648,106.79846 2.24771219,107.34926 C2.76572648,108.176553 3.09467648,108.431189 3.99846934,108.713146 C4.62139791,108.907675 5.20607648,108.966689 5.32519791,108.84866 C5.43994791,108.73391 5.91206219,108.514246 6.35248362,108.368896 C6.93060505,108.179832 7.33059076,107.826839 7.73494791,107.154732 C8.75458362,105.45971 8.81687648,103.820425 7.89996934,102.796418 C7.63003362,102.492603 7.19726219,101.982239 6.95027648,101.669682 C6.70329076,101.358218 6.29128362,101.125439 6.04539076,101.158225 C5.79731219,101.19101 5.58311219,101.125439 5.56781219,101.01506 C5.53611934,100.774632 3.73836934,100.544039 2.83676219,100.66316 C2.47502648,100.710153 1.98761219,100.986646 1.74718362,101.277346 M41.8681551,93.1497676 C41.3621622,93.3038605 41.2419479,93.5300819 41.0681836,94.6557248 C40.9567122,95.3813819 40.8572622,96.5540176 40.8485193,97.2534462 C40.8386836,97.9670819 40.8201051,98.891639 40.8026193,99.3484533 C40.7763908,100.069739 40.8933265,100.26536 41.7883765,100.996482 C42.4659479,101.55056 42.9959836,101.80301 43.3795765,101.751646 C43.6954122,101.710118 44.0287336,101.769132 44.1194408,101.883882 C44.2101479,101.998632 44.5205193,102.059832 44.8144979,102.021582 C45.1084765,101.983332 45.4068265,102.071853 45.4833265,102.220482 C45.5838693,102.416103 45.7062693,102.374575 45.9335836,102.069668 C46.1018836,101.844539 46.5674408,101.38991 46.9401051,101.087189 C47.3182336,100.782282 47.8122051,100.077389 48.0231265,99.5451676 C48.3444265,98.7288033 48.3597265,98.3889248 48.1127408,97.5026176 C47.6854336,95.9758962 47.2308051,95.3234605 45.6953408,94.0349819 C44.2483979,92.8219105 43.5008836,92.649239 41.8681551,93.1497676 M19.2427336,95.0721033 C19.0788051,95.2076176 18.7290908,95.357339 18.5039622,95.3868462 C18.0537051,95.4469533 17.2285979,96.474239 16.8963693,97.3889605 C16.7291622,97.8490533 16.7794336,98.172539 17.1400765,98.975789 C17.3936193,99.5375176 17.6209336,100.191046 17.6559051,100.455518 C17.6952479,100.749496 17.9717408,101.01506 18.3793765,101.15276 C18.7400193,101.274068 19.2930051,101.51996 19.5979122,101.691539 C20.0656551,101.957103 20.3082693,101.94836 21.0940336,101.640175 C22.4251336,101.117789 23.2229193,99.8839533 23.2076193,98.371439 C23.1802979,95.6666176 22.9475193,95.2764676 21.1486765,94.9048962 C20.0634693,94.6808605 19.6689479,94.7158319 19.2427336,95.0721033 M56.2392265,86.9325033 C55.0064836,88.694189 55.0032051,89.413289 56.2239265,91.1563962 C56.6348408,91.7454462 56.9834622,92.3913248 57.0140622,92.6251962 C57.0424765,92.8448605 57.2796265,93.0798248 57.5145908,93.1213533 C57.7506479,93.1628819 58.0413479,93.3475748 58.1287765,93.5115033 C58.2194836,93.6787105 58.4883265,93.7956462 58.7134551,93.7672319 C58.9385836,93.7377248 59.2719051,93.819689 59.4369265,93.9464605 C59.6751693,94.1300605 59.9145051,94.0939962 60.5166693,93.7836248 C61.9876551,93.0262748 62.6980122,91.2449176 62.1712551,89.6406033 C61.8455836,88.6493819 59.9494765,86.751089 59.3473122,86.8133819 C59.0926765,86.8385176 58.6205622,86.6964462 58.2708479,86.490989 C57.4009336,85.9762533 56.8195336,86.1019319 56.2392265,86.9325033 M26.3572336,88.9761462 C25.1736693,89.9291176 25.1496265,89.9619033 24.9070122,90.8733462 C24.5857122,92.0853248 24.9988122,94.1650319 25.7343051,95.0327605 C26.0665336,95.4250962 26.4424765,95.7190748 26.5878265,95.7004962 C26.7266193,95.6819176 26.9965551,95.8065033 27.1681336,95.9682462 C27.5866979,96.3638605 28.5429479,96.2228819 28.6555122,95.7496748 C28.7112479,95.5136176 28.8402051,95.4578819 29.0391051,95.5846533 C29.5418193,95.9015819 30.2969836,94.775939 30.7461479,93.0415748 C30.9734622,92.1629176 31.0718193,91.2766105 30.9647193,91.0624105 C30.3035408,89.726939 29.5560265,88.8592105 28.8555051,88.610039 C27.6763122,88.1925676 27.2533765,88.2548605 26.3572336,88.9761462 M48.8995979,85.0254676 C47.9214908,85.9063105 47.6548336,87.1904176 48.1848693,88.4745248 C48.7422265,89.8242033 48.9968622,89.9968748 50.1990051,89.8384105 C51.5060622,89.6668319 52.1869122,88.9575676 52.5224193,87.4221033 C52.7486408,86.3827962 52.7333408,86.2636748 52.2863622,85.5598748 C52.0033122,85.1150819 51.6426693,84.8298462 51.4022408,84.861539 C51.1760193,84.8910462 50.8525336,84.7806676 50.6733051,84.6134605 C50.2274193,84.195989 49.6788051,84.3227605 48.8995979,85.0254676 M20.2776693,86.3707748 C20.6536122,86.2669533 20.9934908,86.1642248 21.0612479,86.1358105 C21.1257265,86.108489 21.4972979,86.3653105 21.8819836,86.7040962 C22.3890693,87.1532605 22.6163836,87.5718248 22.7016265,88.2264462 C22.8939693,89.6930605 22.0677693,91.2547533 20.9923979,91.4536533 C20.7235551,91.5039248 20.3880479,91.6536462 20.2547193,91.7858819 C19.8886122,92.1465248 19.0285336,91.256939 18.7192551,90.1957748 C18.5345622,89.5619176 18.5520479,89.0023748 18.7826408,88.2144248 C19.1673265,86.9019033 19.3968265,86.6177605 20.2776693,86.3707748" id="Fill-16" transform="translate(44.282730, 117.415004) scale(-1, -1) translate(-44.282730, -117.415004) "></path>
                <path d="M62.9011987,183.407626 C63.8268487,182.804369 64.3317487,182.991248 64.9535844,184.167162 C65.2508416,184.729983 65.7021916,185.352912 65.9568273,185.553998 C66.8256487,186.238126 67.4081416,186.830455 67.3677058,186.988919 C67.343663,187.081812 67.7665987,187.650098 68.3195844,188.269748 C68.8725701,188.890491 69.3282916,189.460962 69.3457773,189.559319 C69.3665416,189.664233 69.455063,189.752755 69.5676273,189.780076 C69.8178916,189.843462 71.5008916,192.575605 71.4418773,192.821498 C71.291063,193.448798 71.4877773,194.693562 71.7489701,194.760226 C71.9074344,194.799569 72.3729916,195.361298 72.767513,195.990783 C73.1642201,196.620269 73.7434344,197.331719 74.0363201,197.550291 C74.335763,197.772141 74.5488701,198.069398 74.5128058,198.212562 C74.4767416,198.355726 74.5925844,198.689048 74.7696273,198.953519 C74.947763,199.219083 75.0362844,199.650762 74.9685273,199.921791 C74.8854701,200.255112 74.9663416,200.440898 75.2220701,200.502098 C76.1214916,200.715205 78.6088344,200.886783 78.8361487,200.751269 C78.9804058,200.664933 79.400063,200.671491 79.7738201,200.765476 C80.149763,200.860555 80.9191344,200.836512 81.503813,200.713019 C82.5562344,200.491169 82.5562344,200.491169 82.9125058,201.017926 C83.6042844,202.049583 83.5026487,203.999241 82.727813,204.520533 C82.1529701,204.908498 80.5442844,205.389355 80.1530416,205.290998 C79.9912987,205.250562 79.4820273,205.319412 79.0066344,205.446183 C78.5454487,205.568583 77.7760773,205.579512 77.3400273,205.469133 C76.0275058,205.139091 75.4493844,205.348919 75.0308201,206.306262 C74.4975058,207.523705 73.899713,210.159676 74.0745701,210.519226 C74.159813,210.695176 74.1794844,210.847083 74.121563,210.885333 C73.9794916,210.976041 72.9729701,213.851348 72.4188916,215.750733 C71.7697344,217.980162 70.4233344,221.619376 70.1096844,221.993133 C69.9665201,222.163619 69.577463,222.634641 69.2474201,223.038998 C68.6332344,223.787605 67.6758916,224.422555 66.4497058,224.894669 C66.058463,225.046576 65.7076558,225.289191 65.6704987,225.438912 C65.5623058,225.871683 64.3393987,226.503355 63.6847773,226.464012 C63.3547344,226.445433 62.6651416,226.200633 62.118713,225.908841 C61.2597273,225.448748 61.1416987,225.294655 61.1274916,224.629105 C61.1067273,223.604005 62.0203558,219.559341 62.3777201,219.094876 C62.5350916,218.891605 62.9263344,218.392169 63.2476344,217.985626 C63.5689344,217.579083 63.8836773,217.109155 63.9481558,216.943041 C64.4005987,215.749641 66.1131058,213.716926 66.7961416,213.563926 C67.0540558,213.506005 67.8037558,213.116948 68.452913,212.704941 L69.6397558,211.949776 L70.4287987,208.770655 L71.2167487,205.591533 L70.6779701,205.532519 C70.3763416,205.500826 70.0430201,205.562026 69.9228058,205.674591 C69.8091487,205.779505 69.722813,205.805733 69.7424844,205.729233 C69.7621558,205.651641 69.4222773,205.637433 69.0080844,205.698633 C68.5938916,205.762019 68.1917201,205.747812 68.1403558,205.669126 C68.0878987,205.590441 67.5589558,205.560933 66.9709987,205.607926 C66.3841344,205.653826 65.5109416,205.595905 65.0431987,205.476783 C64.5634344,205.357662 64.0803916,205.328155 63.9415987,205.411212 C63.8049916,205.492083 63.4968058,205.547819 63.2563773,205.533612 C62.2094201,205.470226 61.5788416,205.560933 61.5056201,205.784969 C61.4651844,205.908462 61.361363,206.191512 61.2750273,206.413362 C61.1897844,206.633026 60.864113,207.505126 60.5559273,208.336791 C59.7340987,210.566219 59.6313701,210.823041 59.3253701,211.416462 C59.1526987,211.749783 59.1373987,211.967262 59.280563,212.003326 C59.5734487,212.075455 59.1166344,213.892876 58.7800344,213.998883 C58.6488916,214.040412 58.5199344,214.392312 58.4991701,214.762791 C58.4762201,215.140919 58.3494487,216.021762 58.217213,216.719005 C58.0838844,217.417341 57.9232344,218.473041 57.8598487,219.066462 C57.7593058,219.998669 57.6084916,220.310133 56.7462273,221.377855 C56.1954273,222.058705 55.6369773,222.646662 55.4970916,222.691469 C55.3593916,222.735183 55.0949201,222.978891 54.920063,223.222598 C54.744113,223.466305 54.453413,223.636791 54.2829273,223.593076 C54.116813,223.551548 53.9517916,223.593076 53.9288416,223.682691 C53.8709201,223.913283 52.1879201,224.264091 50.8906987,224.313269 C49.771613,224.355891 48.1640201,223.913283 47.8449058,223.477233 C47.729063,223.318769 47.6842558,223.150469 47.7487344,223.113312 C47.8121201,223.073969 47.782613,222.656498 47.6809773,222.187662 C47.5203273,221.439055 47.5673201,221.173491 48.0569201,220.034733 C48.3672916,219.313448 48.7672773,218.644619 48.9552487,218.532055 C49.1464987,218.417305 49.3388416,218.152833 49.3978558,217.923333 C49.4546844,217.693833 49.5891058,217.539741 49.7071344,217.569248 C49.8218844,217.597662 49.9890916,217.329912 50.0787058,216.975826 C50.2819773,216.163833 51.0775773,214.811969 51.3158201,214.873169 C51.4098058,214.896119 51.5278344,214.737655 51.5857558,214.508155 C51.6414916,214.283026 52.3431058,213.646983 53.1627487,213.077605 C53.9834844,212.509319 54.6260844,211.941033 54.6085987,211.802241 C54.568163,211.466733 55.8544558,208.747705 56.2948773,208.239526 C56.4762916,208.028605 56.7538773,207.402398 56.9123416,206.842855 C57.230363,205.720491 57.2664273,205.747812 55.4577487,205.712841 C54.8413773,205.700819 53.9703701,205.676776 53.4785844,205.658198 C52.9966344,205.641805 52.189013,205.677869 51.6862987,205.740162 C51.1824916,205.801362 50.582513,205.813383 50.3508273,205.765298 C49.6809058,205.625412 49.0492344,206.017748 48.7705558,206.744498 C48.1683916,208.321491 47.0766273,210.515948 46.7924844,210.722498 C46.5607987,210.890798 46.5389416,211.054726 46.7127058,211.336683 C47.0187058,211.832841 46.9859201,212.166162 46.5389416,213.095091 C46.329113,213.532233 46.0099987,214.401055 45.824213,215.041469 C45.6417058,215.670955 45.0122201,216.931019 44.4417487,217.807491 C43.5128201,219.233669 43.207913,219.524369 41.7347416,220.381169 C40.5664773,221.060926 39.7992916,221.352719 39.1512273,221.360369 C38.6397701,221.365833 38.0944344,221.435776 37.9261344,221.515555 C37.5687701,221.684948 36.7633344,221.003005 36.2912201,220.131998 C35.9065344,219.421641 36.0300273,216.277491 36.4671701,215.656748 C36.6256344,215.430526 36.7218058,215.184633 36.6791844,215.115783 C36.4584273,214.761698 37.8999058,213.558462 40.3533701,212.048133 C40.9402344,211.687491 41.4046987,211.268926 41.410163,211.096255 C41.4221844,210.689712 42.5456416,208.989226 43.3193844,208.208926 C44.1980416,207.322619 44.8155058,206.421012 44.730263,206.149983 C44.6417416,205.868026 42.7347058,205.570769 42.3718773,205.782783 C42.2407344,205.859283 41.8779058,205.852726 41.5445844,205.769669 C41.2156344,205.686612 40.0244201,205.600276 38.8801987,205.575141 L36.8081416,205.530333 L36.422363,206.452705 C36.2114416,206.953233 35.9666416,207.406769 35.8835844,207.446112 C35.7983416,207.486548 35.4978058,207.947733 35.1994558,208.493069 C34.9011058,209.037312 34.5907344,209.496312 34.494563,209.534562 C34.0705344,209.703955 32.2552987,212.094033 32.1088558,212.677619 C32.0192416,213.030612 31.7809987,213.511469 31.579913,213.740969 C30.8476987,214.575912 30.6914201,214.790112 30.6258487,215.051305 C30.5078201,215.517955 27.8270416,217.105876 27.1899058,217.085112 C26.859863,217.076369 26.5494916,217.163798 26.5221701,217.275269 C26.4948487,217.383462 26.354963,217.454498 26.2292844,217.422805 C26.0959558,217.390019 25.7702844,217.517883 25.4926987,217.714598 C24.9987273,218.061033 24.9845201,218.058848 24.0075058,217.451219 C23.4720058,217.117898 22.9616416,216.873098 22.8916987,216.915719 C22.7102844,217.023912 22.0512916,215.708112 21.9649558,215.065512 C21.9267058,214.779183 21.9780701,214.205433 22.0775201,213.808726 C22.2654916,213.059026 23.4818416,211.415369 23.7900273,211.492962 C23.9594201,211.535583 25.5560844,210.365133 26.4882916,209.513798 C27.0959201,208.957533 27.8816844,208.534598 28.1712916,208.607819 C28.298063,208.639512 28.764713,208.435148 29.216063,208.151005 C29.6685058,207.865769 30.1449916,207.565233 30.2859701,207.477805 C31.7853701,206.548876 32.4563844,206.012283 32.5416273,205.675683 C32.6290558,205.327062 32.5470916,205.259305 32.0367273,205.260398 C31.694663,205.261491 31.0717344,205.221055 30.6192916,205.169691 C30.1668487,205.118326 29.7406344,205.147833 29.6499273,205.236355 C29.5624987,205.322691 29.0302773,205.280069 28.4882201,205.143462 C27.9472558,205.006855 27.127613,204.972976 26.7013987,205.070241 C26.263163,205.169691 25.3790416,205.129255 24.7091201,204.978441 C24.037013,204.828719 23.3353987,204.789376 23.1255701,204.889919 C22.874213,205.011226 22.2206844,204.913962 21.1923058,204.604683 L19.6371701,204.135848 L19.324613,204.831998 C18.3934987,206.901869 16.5159701,208.158655 14.6143987,207.985983 C13.9936558,207.928062 11.9467344,207.499662 10.0495344,207.028641 C7.17204155,206.313912 6.47042727,206.072391 5.76881298,205.553283 C5.30107012,205.207941 4.89452727,204.854948 4.85299869,204.757683 C4.73387727,204.481191 4.00166298,203.857169 3.70987012,203.783948 C3.56014869,203.745698 3.20715584,203.361012 2.91864155,202.919498 C2.63231298,202.480169 2.31210584,202.102041 2.20172727,202.074719 C2.08369869,202.046305 2.02359155,201.946855 2.05309869,201.826641 C2.08260584,201.714076 2.00938441,201.472555 1.88479869,201.264912 C1.76349155,201.060548 1.69464155,200.574226 1.72961298,200.162219 C1.81157727,199.220176 2.99842012,198.068305 4.79179869,197.192926 C5.95459869,196.625733 6.11743441,196.603876 6.83107012,196.920805 C7.64852727,197.283633 10.1686558,197.506576 10.710713,197.265055 C10.9347487,197.164512 11.0593344,197.201669 11.116163,197.384176 C11.200313,197.656298 12.2844273,198.142619 14.367413,198.845326 C15.0810487,199.086848 16.0165344,199.404869 16.4689773,199.561148 C16.9170487,199.716333 17.4405273,199.893376 17.6317773,199.954576 C17.8241201,200.013591 18.2437773,200.474776 18.5607058,200.973119 L19.141013,201.883469 L20.0087416,201.647412 C20.4841344,201.518455 20.9409487,201.353433 21.0196344,201.281305 C21.1005058,201.208083 21.4469416,201.167648 21.818513,201.187319 C23.1080844,201.257262 23.8107916,201.235405 23.9506773,201.121748 C24.0195273,201.066012 24.7626701,201.067105 25.5888701,201.125026 C26.416163,201.181855 27.5505487,201.144698 28.0904201,201.045248 C28.6248273,200.945798 29.3122344,200.919569 29.5887273,200.989512 C29.8750558,201.061641 30.394163,201.046341 30.7711987,200.955633 C31.1482344,200.863833 31.6279987,200.833233 31.862963,200.885691 C32.1744273,200.956726 32.1175987,200.841976 31.641113,200.443083 C31.2946773,200.151291 30.9711916,199.836548 30.9340344,199.755676 C30.7045344,199.249683 28.9548701,198.442062 27.1986487,198.030055 C26.1309273,197.779791 25.291613,197.508762 25.3123773,197.422426 C25.3353273,197.336091 24.977963,197.172162 24.518963,197.056319 C24.0610558,196.941569 23.7047844,196.772176 23.7277344,196.680376 C23.7900273,196.433391 22.0217844,195.099012 21.4381987,194.951476 C21.1464058,194.878255 20.862263,194.705583 20.824013,194.576626 C20.7846701,194.447669 20.4808558,194.268441 20.1672058,194.189755 C19.4655916,194.012712 19.209863,193.549341 18.8787273,191.849948 C18.5574273,190.203012 18.7869273,189.301405 19.8699487,187.956098 C20.5529844,187.110226 20.9016058,186.853405 21.4502201,186.798762 C22.3376201,186.709148 23.2250201,186.913512 23.3288416,187.231533 C23.371463,187.361583 23.7823773,187.568133 24.2195201,187.677419 C24.6577558,187.787798 25.0664844,187.992162 25.1058273,188.121119 C25.1484487,188.265376 25.2599201,188.337505 25.3812273,188.302533 C25.4937916,188.268655 25.9975987,188.492691 26.5167058,188.808526 C27.035813,189.123269 27.7297773,189.445662 28.083863,189.535276 C28.4379487,189.623798 28.787663,189.809583 28.8750916,189.956026 C28.9603344,190.099191 29.3144201,190.323226 29.6586701,190.451091 C30.0018273,190.580048 30.4870558,190.902441 30.730763,191.164726 C30.9744701,191.427012 31.3449487,191.684926 31.5504058,191.736291 C31.7569558,191.788748 31.9962916,192.047755 32.0815344,192.312226 C32.1667773,192.578883 32.406113,192.837891 32.6115701,192.889255 C32.9940701,192.985426 33.3721987,194.055333 33.1798558,194.494662 C33.1263058,194.615969 33.1896916,194.859676 33.3230201,195.039998 C33.4552558,195.220319 33.492413,195.467305 33.4060773,195.591891 C33.2596344,195.803905 34.127363,196.815891 34.5448344,196.919712 C34.6563058,196.948126 34.9623058,197.198391 35.2049201,197.461769 C35.4486273,197.727333 35.756813,198.004919 35.8737487,198.065026 C37.2627701,198.791776 38.1993487,199.784091 38.5151844,200.864926 C38.6157273,201.213548 38.7446844,201.266005 39.4178844,201.235405 C39.8430058,201.216826 40.4320558,201.208083 40.706363,201.216826 C40.9839487,201.226662 41.6746344,201.199341 42.2385487,201.158905 C42.802463,201.118469 43.3849558,201.168741 43.5281201,201.270376 C43.7729201,201.443048 46.7607916,201.080219 46.8165273,200.870391 C46.841663,200.779683 46.5214558,200.469312 44.1630701,198.305455 C43.7324844,197.908748 43.3040844,197.622419 43.1980773,197.656298 C43.0920701,197.690176 42.4942773,197.631162 41.8800916,197.524062 C40.8178344,197.340462 40.7282201,197.280355 40.2867058,196.458526 C39.9981916,195.920841 39.6156916,195.537248 39.2878344,195.454191 C38.9960416,195.380969 38.6343058,195.090269 38.4856773,194.810498 C38.3370487,194.529633 38.0845987,194.266255 37.9250416,194.225819 C37.6529201,194.158062 36.9534916,193.578848 36.7687987,193.270662 C36.5819201,192.957012 35.863913,192.378891 35.5721201,192.305669 C35.3841487,192.258676 35.2234987,192.071798 35.2027344,191.879455 C35.1841558,191.698041 35.0508273,191.508976 34.9174987,191.476191 C34.4617773,191.360348 34.150313,190.507919 33.6563416,188.012926 C33.392963,186.684012 34.6267987,184.390105 35.7458844,184.125633 C36.9480273,183.840398 38.0998987,184.004326 38.3304916,184.492833 C38.5654558,184.990083 40.2440844,186.328833 41.3784701,186.924441 C41.9063201,187.202026 42.7139416,187.805283 43.177313,188.269748 C43.6374058,188.730933 44.2067844,189.160426 44.4340987,189.217255 C44.6635987,189.275176 44.8275273,189.416155 44.799113,189.530905 C44.7706987,189.639098 44.8810773,189.773519 45.0275201,189.809583 C45.1848916,189.850019 45.4854273,190.412841 45.7127416,191.089319 C45.938963,191.766891 46.1859487,192.316598 46.2733773,192.338455 C46.359713,192.360312 46.497413,192.771226 46.5804701,193.257548 C46.7433058,194.207241 47.2285344,195.236712 47.5509273,195.317583 C47.6645844,195.347091 48.2099201,195.872755 48.7454201,196.472733 C49.6787201,197.516412 50.5803273,198.414741 51.3835773,199.106519 C51.5791987,199.275912 51.967163,199.602676 52.2775344,199.863869 C52.5889987,200.123969 52.8021058,200.421226 52.7693201,200.552369 C52.6797058,200.906455 52.9398058,201.220105 53.1627487,201.026669 C53.4228487,200.802633 54.5670701,200.627776 55.0249773,200.742526 C55.233713,200.794983 55.509113,200.717391 55.6063773,200.578598 C55.7965344,200.308662 57.3462058,200.323962 58.0959058,200.603733 C58.5516273,200.774219 58.9625416,200.381883 58.9002487,199.834362 C58.8794844,199.651855 58.7395987,199.461698 58.6008058,199.426726 C58.4565487,199.390662 58.1855201,199.079198 57.9866201,198.718555 C57.3921058,197.637719 56.6577058,197.128448 55.7866987,197.188555 C55.3582987,197.218062 54.881813,197.128448 54.7080487,196.985283 C54.5310058,196.841026 54.1288344,196.647591 53.7780273,196.540491 C53.099363,196.331755 50.6710344,194.365705 50.7420701,194.083748 C50.7650201,193.994133 50.6371558,193.879383 50.4710416,193.837855 C50.299463,193.794141 50.0885416,193.541691 50.0032987,193.276126 C49.916963,193.011655 49.7541273,192.770133 49.6393773,192.741719 C49.5257201,192.714398 49.2710844,192.339548 49.0765558,191.913333 C48.6995201,191.088226 48.272213,190.393169 47.7694987,189.783355 C47.361863,189.291569 47.7148558,186.698219 48.4033558,185.121226 C48.8394058,184.123448 49.1454058,183.849141 49.9847201,183.705976 C51.0710201,183.521283 51.8108844,183.843676 52.7594844,184.916862 C53.1561916,185.364933 53.6064487,185.764919 53.7550773,185.802076 C54.0053416,185.865462 54.5703487,186.525548 55.2960058,187.602012 C55.4446344,187.823862 55.9265844,188.220569 56.3517058,188.471926 C56.7757344,188.722191 57.2041344,189.088298 57.2904701,189.272991 C57.3800844,189.466426 57.5735201,189.643469 57.7396344,189.684998 C57.9079344,189.726526 58.010663,189.843462 57.9822487,189.956026 C57.9560201,190.063126 58.0969987,190.252191 58.2882487,190.365848 C58.4871487,190.483876 58.7100916,190.858726 58.7920558,191.212812 C59.089313,192.503476 60.5111201,194.960219 61.743863,196.310991 C62.2662487,196.881462 62.7656844,197.373248 62.845463,197.394012 C63.0990058,197.456305 63.7197487,198.809262 63.6519916,199.145862 C63.6170201,199.314162 63.6705701,199.660598 63.7645558,199.883541 C64.0060773,200.459476 66.2628273,200.891155 67.9119487,200.676955 C68.5993558,200.587341 69.3457773,200.501005 69.5556058,200.486798 C70.0473916,200.452919 69.9927487,199.944741 69.3840273,198.882483 C68.9064487,198.054098 68.4365201,197.707662 68.3370701,198.109833 C68.2343416,198.516376 66.8398558,197.976505 66.5382273,197.413683 C66.0945273,196.585298 66.0387916,196.498962 65.3808916,195.594076 C65.0519416,195.141633 64.6956701,194.758041 64.5787344,194.727441 C64.4661701,194.700119 64.2093487,194.359148 64.015913,193.977741 C63.8213844,193.595241 63.5295916,193.210555 63.3754987,193.129683 C63.2192201,193.046626 63.0804273,192.888162 63.0651273,192.774505 C63.052013,192.657569 62.9154058,192.537355 62.7481987,192.494733 C62.5820844,192.453205 62.4880987,192.296926 62.5296273,192.129719 C62.570063,191.971255 62.3263558,191.348326 61.9908487,190.754905 C61.6258344,190.109026 61.4269344,189.471891 61.5001558,189.180098 C61.567913,188.909069 61.544963,188.611812 61.4466058,188.513455 C61.346063,188.412912 61.3220201,188.126583 61.3897773,187.855555 C61.4575344,187.591083 61.3755701,187.111319 61.2061773,186.780183 C60.9646558,186.302605 60.9723058,186.023926 61.2498916,185.384605 C61.6848487,184.386826 62.0247273,183.977005 62.9011987,183.407626" id="Fill-20" transform="translate(42.547941, 204.769147) scale(-1, -1) translate(-42.547941, -204.769147) "></path>
            </g>
        </g>
    </g>
</svg>