<?xml version="1.0" encoding="UTF-8"?>
<svg width="30px" height="36px" viewBox="0 0 30 36" version="1.1" xmlns="http://www.w3.org/2000/svg" xmlns:xlink="http://www.w3.org/1999/xlink">
    <!-- Generator: Sketch 61 (89581) - https://sketch.com -->
    <title>img-nav-enter</title>
    <desc>Created with Sketch.</desc>
    <g id="Page-1" stroke="none" stroke-width="1" fill="none" fill-rule="evenodd">
        <g id="200318_kodomonooka-ver2" transform="translate(-765.000000, -138.000000)" fill="#0099CB">
            <path d="M790.708397,148.929483 C790.60567,148.965446 790.50135,149.023785 790.413754,149.109297 C790.295896,149.140464 790.118314,149.209193 789.989308,149.353044 C789.980548,149.35704 789.970992,149.361835 789.96064,149.36583 C789.775891,149.439354 789.501952,149.607979 789.327555,149.736646 C789.247922,149.795784 789.168289,149.850128 789.114934,149.880497 C789.002651,149.917258 788.826662,150.016356 788.580595,150.318442 C788.521666,150.390368 788.438847,150.458297 788.430884,150.46549 C788.28834,150.525428 788.088461,150.647701 787.960251,150.806736 C787.960251,150.806736 787.954677,150.808334 787.949103,150.811531 C787.843987,150.852289 787.640922,150.940197 787.506341,151.004131 C787.409189,151.049684 787.291331,151.10163 787.241959,151.119212 C787.023763,151.192736 786.813531,151.402118 786.733898,151.488429 C786.713193,151.510006 786.694081,151.527588 786.678951,151.541174 C786.502962,151.605907 786.358825,151.734574 786.274414,151.848855 C786.221856,151.906395 785.837227,152.158134 785.607883,152.308378 C785.42393,152.427455 785.261478,152.512167 785.203346,152.53774 C784.911888,152.606469 784.630782,152.861405 784.575039,152.91415 C784.527259,152.959703 784.479479,152.997264 784.450015,153.018841 C784.283581,153.07798 784.149001,153.197856 784.060608,153.314535 C783.950714,153.371276 783.788262,153.479963 783.536621,153.69494 C783.383725,153.826004 783.269053,153.90752 783.237199,153.9267 C782.987947,154.030592 782.563501,154.275138 782.32699,154.502902 C782.294341,154.523681 782.241783,154.548455 782.188429,154.571631 C781.77115,154.749846 781.395281,154.976011 780.931018,155.327647 L780.407828,155.724036 C780.051867,155.993356 779.845616,156.078068 779.755631,156.10524 C779.586012,156.155588 779.349501,156.256284 779.218902,156.357778 C779.202976,156.367368 779.161566,156.382553 779.144843,156.385749 C778.92187,156.422511 778.681377,156.535993 778.537241,156.671853 C778.509369,156.695028 778.397883,156.770151 778.290378,156.826093 C777.955121,156.998714 777.861154,157.056254 777.287794,157.442253 C776.665858,157.861019 776.534463,157.932145 776.011272,158.13034 C775.682387,158.254211 775.167955,158.528327 774.840663,158.753693 C774.605744,158.915126 774.430551,159.024612 774.363659,159.062972 C774.219523,159.115718 774.104054,159.212417 774.026014,159.294732 C773.935232,159.344281 773.695535,159.455365 773.369039,159.577639 C773.232866,159.628786 772.53926,159.890914 772.332213,160.034764 C772.297971,160.05874 772.166576,160.127468 772.068627,160.163431 C771.852821,160.242549 771.562955,160.423162 771.389355,160.560619 C771.349538,160.590988 771.314499,160.616561 771.286628,160.634143 C771.26433,160.63654 771.242033,160.641335 771.219736,160.64693 C771.156029,160.28011 771.077988,159.765444 771.015078,159.345879 C770.857404,158.302162 770.693359,157.015496 770.649561,156.476855 C770.563557,155.428342 770.417828,153.968257 770.277674,152.757513 C770.134334,151.517199 770.088146,150.998537 770.061867,150.340819 C770.051515,150.069101 770.011698,149.545644 769.932065,149.305893 C769.916935,149.257942 769.88747,149.072535 769.88747,148.905508 C769.88747,148.557069 769.858802,148.185455 769.725815,146.816475 C769.701925,146.569531 769.663701,146.162753 769.639811,145.89583 C769.506027,144.41097 769.470192,144.089703 769.364279,143.443973 C769.324463,143.203422 769.306943,143.027605 769.302962,142.938897 C769.330037,142.839799 769.339593,142.72312 769.333222,142.584864 C769.464617,142.638408 769.588049,142.686358 769.658126,142.712731 C769.713073,142.73271 769.764835,142.75269 769.797485,142.767874 C769.987012,142.886151 770.288822,142.971663 770.54126,142.975658 C770.688581,143.065965 770.876516,143.113915 771.086748,143.104325 C771.116212,143.105923 771.215754,143.125903 771.312907,143.162664 C771.648959,143.288134 772.35451,143.452764 772.790105,143.443973 C772.910351,143.502312 773.100675,143.575836 773.419208,143.677331 C773.598383,143.734072 773.727389,143.78362 773.792688,143.811591 C773.904175,143.901898 774.056274,143.961836 774.248191,143.965032 C774.374808,144.025769 774.518148,144.048146 774.659099,144.043351 L774.659099,144.04415 C774.825532,144.051343 775.617087,144.215972 775.85758,144.290295 C775.974641,144.363819 776.121166,144.403777 776.286007,144.40058 L776.27884,144.40058 C776.293174,144.402179 776.340158,144.41097 776.39192,144.427752 C776.510573,144.466112 776.798846,144.548427 777.025801,144.608365 C777.544214,144.746622 778.689341,145.06629 778.813569,145.105449 C778.813569,145.105449 779.806596,145.416327 779.903749,145.449093 C780.074164,145.505035 780.328991,145.540198 780.493832,145.546592 C780.563113,145.548989 780.797235,145.58655 780.989947,145.638496 C781.272645,145.714418 781.417578,145.743188 781.505175,145.75118 C781.60392,145.776753 781.898563,145.860666 782.323805,145.992529 C782.412994,146.0205 783.147214,146.247465 783.51512,146.29062 C783.633773,146.375332 783.783484,146.417688 783.941158,146.402504 L784.072553,146.381726 C784.088479,146.384123 784.105999,146.38732 784.124314,146.391316 C784.137056,146.394512 784.428514,146.462442 784.582206,146.470434 C784.736695,146.479224 785.28059,146.652645 785.411189,146.735758 C785.555325,146.831659 785.787854,146.935551 786.042681,146.949137 C786.138241,147.005878 786.252913,147.048234 786.382715,147.075406 C786.446422,147.088193 786.639931,147.145733 786.811142,147.209667 C786.87246,147.232044 787.187808,147.347923 787.339111,147.374296 C787.390077,147.386284 787.480859,147.421447 787.559696,147.45741 C787.813726,147.571691 788.108369,147.664395 788.872849,147.868983 C788.907091,147.878573 788.935759,147.888163 788.958853,147.896954 C789.093433,148.046399 789.299684,148.136705 789.529027,148.129513 C789.587956,148.139902 789.734481,148.177463 789.905693,148.240598 C790.248913,148.366867 790.444811,148.410821 790.563464,148.423608 C790.667784,148.471558 790.82068,148.512316 791.046838,148.523504 C791.071525,148.550676 791.0986,148.577049 791.127268,148.601024 C790.962427,148.66256 790.819087,148.774444 790.708397,148.929483 M794.194743,146.96592 C794.150149,146.933953 794.107943,146.901187 794.081664,146.877212 C793.76552,146.471233 792.978743,146.264247 792.83381,146.269042 C792.774881,146.265047 792.554297,146.219494 792.42768,146.173941 C792.126666,146.066053 791.790614,145.965357 791.527027,145.903022 C791.094618,145.801527 790.866071,145.727204 790.549927,145.583354 C790.326157,145.481859 789.968603,145.363582 789.720147,145.334012 C789.643699,145.324422 789.414356,145.255694 789.26783,145.182969 C788.972391,145.035921 788.803568,144.983176 788.696063,144.966394 C788.658635,144.95041 788.613244,144.926435 788.569446,144.900862 C788.268432,144.725843 788.121907,144.679491 787.988123,144.679491 C787.898934,144.666704 787.624995,144.610762 787.355038,144.539636 C787.261071,144.515661 787.101804,144.478899 786.95289,144.474903 C786.897943,144.458121 786.789641,144.419761 786.662228,144.364618 C786.64869,144.359024 785.310851,143.788415 784.845792,143.833968 L784.844996,143.833968 C784.6921,143.845956 783.963455,143.734871 783.232421,143.519894 C782.786475,143.389629 782.157372,143.237787 781.799818,143.174652 C781.080729,143.047584 780.456404,142.874963 780.086109,142.700744 C779.897378,142.612835 779.636181,142.512139 779.387725,142.516135 L779.387725,142.515336 C779.321629,142.509742 779.092285,142.441013 778.929037,142.352305 C778.79366,142.277982 778.569891,142.199663 778.316657,142.206856 C778.162964,142.194069 777.476525,141.998272 777.253552,141.883991 C777.005096,141.755324 776.710453,141.692989 775.671238,141.512376 C775.142473,141.420471 774.79129,141.335759 774.710064,141.306989 C774.511777,141.197503 774.07459,140.979329 773.769594,140.912998 C773.575289,140.797917 773.264719,140.751565 773.030597,140.733184 C772.857793,140.719598 772.589429,140.661259 772.474757,140.6213 C772.254969,140.542182 771.94201,140.468659 771.743723,140.44788 C771.739741,140.44788 771.736556,140.447081 771.733371,140.447081 C771.613124,140.357574 771.457043,140.307226 771.279461,140.308824 L771.279461,140.308025 C771.252385,140.305628 771.1624,140.288046 771.065247,140.256878 C770.973669,140.227309 770.816791,140.184154 770.66071,140.174564 C770.431366,139.999545 770.106462,139.86928 770.064256,139.852498 C769.884285,139.781372 769.533102,139.612746 769.313314,139.490473 C769.066451,139.354614 768.660321,139.169207 768.410272,139.094884 C768.125185,139.010171 767.789132,138.980602 767.464229,139.012569 C767.218958,139.036544 766.866979,139.106072 766.581095,139.301869 C766.164613,139.587972 766.104888,139.894055 766.040385,140.37116 C765.976678,140.849064 765.975086,141.104799 766.133556,141.452438 C766.176558,141.54754 766.229116,141.719361 766.241061,141.793684 C766.261766,141.916757 766.307953,142.109357 766.415458,142.275585 C766.391568,142.638408 766.495887,143.743662 766.500665,143.792411 C766.561983,144.444535 766.622504,145.119035 766.635246,145.28846 C766.651172,145.493047 766.741954,146.243469 766.818402,146.82127 C766.906795,147.490975 766.956964,147.999248 766.959353,148.068776 C766.937056,148.368465 766.973687,148.46996 766.992799,148.523504 C767.067655,148.73928 767.203828,149.918857 767.239663,151.108023 C767.263553,151.904797 767.282665,152.122172 767.46821,153.69494 C767.526343,154.180836 767.594031,154.800194 767.621106,155.081502 C767.686406,155.772785 767.962733,157.790692 768.341788,160.34724 C768.518574,161.5428 768.615726,162.409102 768.618115,162.518588 C768.538482,163.267412 768.674655,164.034616 768.80605,164.776247 C768.876924,165.175033 768.943816,165.551443 768.974873,165.905475 C769.062469,166.942 769.111046,168.0025 769.158029,169.029435 L769.209791,170.109914 C769.216958,170.250569 769.211384,170.445566 769.205809,170.670933 C769.181919,171.672294 769.148473,173.042073 769.82456,173.672619 C770.088146,173.919563 770.427384,174.029849 770.80405,173.993087 L770.877312,173.984296 C771.345556,173.916366 771.727796,173.672619 772.035181,173.477621 C772.468386,173.203506 772.524129,172.787138 772.02881,169.605637 C771.990586,169.357894 771.961122,169.173286 771.952362,169.09257 L771.863969,168.319771 C771.755668,167.374352 771.643385,166.396966 771.571715,165.436362 L771.554992,165.222184 C771.524731,164.848172 771.492878,164.462172 771.547029,164.151295 C771.578086,163.969084 771.595605,163.901154 771.588438,163.901953 C771.588438,163.901953 771.587642,163.902753 771.586845,163.902753 C771.610735,163.877179 771.641792,163.854003 771.680813,163.821237 C771.74213,163.77009 771.815393,163.707755 771.906971,163.624641 C771.977845,163.55831 772.051904,163.503167 772.088535,163.479192 C772.292396,163.405668 772.64995,163.216265 772.82594,162.954136 C772.919111,162.869424 773.16677,162.686414 773.294184,162.607296 C773.439116,162.571334 773.567326,162.483425 773.672442,162.347566 C773.756853,162.317197 773.845246,162.270046 773.924083,162.205313 C773.948769,162.204514 773.973456,162.202116 773.998938,162.199719 C774.130333,162.187731 774.378789,162.145375 774.566724,162.008717 L774.826329,161.824109 C774.900388,161.811322 775.098674,161.779355 775.854395,161.246308 C776.65232,160.682892 776.886442,160.585393 776.942982,160.571008 C777.255941,160.519062 778.217911,159.990011 778.431329,159.799808 C778.465571,159.770239 778.609707,159.67274 778.774548,159.580036 C778.963279,159.474546 779.198994,159.33549 779.311277,159.262765 C779.377372,159.220409 779.706258,159.050186 780.074164,158.878364 C780.345714,158.751296 780.805994,158.528327 780.961279,158.434824 L781.434301,158.147122 C781.701869,157.984891 781.81893,157.888191 781.885822,157.809073 C781.982178,157.733152 782.239394,157.57092 782.343713,157.522171 C782.545186,157.469425 782.716397,157.335165 782.791253,157.244858 C782.827088,157.213691 782.978391,157.107401 783.155177,157.007504 C783.405226,156.865252 783.555733,156.760561 783.650496,156.678246 C783.87984,156.623902 784.139445,156.47206 784.262876,156.386548 C784.329768,156.340197 784.399049,156.296242 784.446033,156.271468 C784.54,156.2403 784.703249,156.157186 785.086285,155.856698 C785.278201,155.705655 785.596734,155.489878 785.781484,155.385187 C785.959066,155.285291 786.100017,155.196583 786.205929,155.120661 C786.371567,155.100682 786.519685,155.016769 786.6248,154.892099 C787.195771,154.590012 788.489813,153.594245 788.552723,153.52152 C788.511314,153.57027 788.475479,153.592646 788.474682,153.593446 C788.492998,153.581458 788.558297,153.549491 788.634745,153.522319 C788.79003,153.467176 789.995679,152.767103 790.47746,152.2876 C790.560279,152.26842 790.639116,152.23965 790.708397,152.202089 C790.800772,152.150942 790.876423,152.083811 790.933759,152.006292 C790.982335,151.975124 791.061172,151.926375 791.166288,151.872031 C791.216457,151.844859 791.661608,151.608305 791.817689,151.470048 C791.860691,151.437282 792.057385,151.316607 792.297082,151.192736 C792.554297,151.059274 792.805938,150.913825 792.947686,150.718827 C792.96839,150.708438 792.993873,150.69645 793.024134,150.684463 C793.216846,150.607742 793.505915,150.488666 793.66996,150.418339 C793.794188,150.365593 793.936731,150.31125 793.998049,150.294467 C794.381882,150.206558 794.68847,149.874103 794.861274,149.357839 C795.059561,148.76805 795.085044,147.905745 794.670951,147.406263 C794.553093,147.26481 794.357992,147.084197 794.194743,146.96592" id="Fill-4"></path>
        </g>
    </g>
</svg>