<?xml version="1.0" encoding="UTF-8"?>
<svg width="136px" height="89px" viewBox="0 0 136 89" version="1.1" xmlns="http://www.w3.org/2000/svg" xmlns:xlink="http://www.w3.org/1999/xlink">
    <!-- Generator: Sketch 61 (89581) - https://sketch.com -->
    <title>img-bird</title>
    <desc>Created with Sketch.</desc>
    <g id="Page-1" stroke="none" stroke-width="1" fill="none" fill-rule="evenodd">
        <g id="200318_kodomonooka-ver2" transform="translate(-320.000000, -3756.000000)">
            <g id="Group-13" transform="translate(320.000000, 3756.000000)">
                <path d="M128.7737,50.3187 C128.5127,50.3487 128.3217,50.4507 128.3337,50.5527 C128.3527,50.7187 127.5407,51.2457 126.9927,51.4227 C126.2297,51.6687 125.5187,52.0207 124.5527,52.6317 C123.9667,53.0027 123.2547,53.4137 122.9917,53.5327 C122.7217,53.6557 122.3067,53.9277 122.0477,54.1517 C121.7947,54.3697 120.3987,54.9917 118.9577,55.5277 C117.5167,56.0637 115.9457,56.7647 115.4817,57.0807 C115.0107,57.4017 114.4827,57.6747 114.2937,57.6967 C114.1137,57.7177 113.8367,57.8847 113.7057,58.0497 C113.4037,58.4307 111.5197,59.6927 111.5007,59.5267 C111.4757,59.3187 110.2867,60.2777 109.9087,60.8097 C109.3717,61.5657 109.3497,63.8417 109.8347,68.6817 C110.0667,71.0117 110.2177,73.1587 110.1707,73.4787 C110.1247,73.7977 110.1697,75.0227 110.2727,76.2097 C110.5377,79.2667 110.5727,79.5857 110.8427,81.3647 C111.0217,82.5427 111.0187,83.0817 110.8337,83.4187 L110.5817,83.8747 L110.0697,83.4057 C109.7947,83.1537 109.5447,82.8217 109.5287,82.6867 C109.5127,82.5467 109.4197,82.4447 109.3187,82.4567 C109.2187,82.4687 109.0447,82.2147 108.9267,81.8827 C108.8087,81.5517 108.5857,81.2537 108.4217,81.2107 C108.2597,81.1677 108.1127,81.0027 108.0947,80.8417 C108.0767,80.6877 107.9147,80.5167 107.7467,80.4767 C107.5747,80.4357 107.2407,80.0887 107.0067,79.7097 C106.7737,79.3307 106.3977,78.8647 106.1757,78.6787 C105.9507,78.4907 105.6307,78.0307 105.4557,77.6457 C105.2807,77.2587 104.9447,76.7027 104.6997,76.3927 C104.4497,76.0757 104.1257,75.6297 103.9497,75.3617 C103.7767,75.0977 103.5827,74.8527 103.5087,74.8037 C103.4347,74.7557 103.2817,74.4647 103.1567,74.1337 C103.0327,73.8057 102.6927,73.2947 102.3797,72.9647 C102.0667,72.6357 101.8167,72.3187 101.8077,72.2387 C101.7987,72.1617 101.6267,71.9557 101.4207,71.7767 C101.0257,71.4337 100.6397,70.9537 100.0907,70.1237 C99.9167,69.8597 99.7207,69.6137 99.6467,69.5657 C99.5737,69.5177 99.3557,69.2027 99.1577,68.8607 C98.9607,68.5177 98.7477,68.2477 98.6817,68.2557 C98.6157,68.2637 98.3927,67.8627 98.1927,67.3787 C97.9927,66.8937 97.6427,66.4007 97.4267,66.2987 C97.2117,66.1977 97.0127,65.9687 96.9927,65.8007 C96.9717,65.6207 96.8797,65.4187 96.7747,65.3187 C96.6717,65.2227 96.3107,64.5497 95.9567,63.7987 C95.6027,63.0477 95.2637,62.4127 95.1897,62.3637 C95.1147,62.3157 94.8977,62.0327 94.6877,61.7117 C94.1807,60.9377 93.8877,60.7157 93.0597,60.4767 C92.6817,60.3667 91.6747,59.7497 90.8497,59.1217 C90.0247,58.4937 89.2237,57.9807 89.0927,57.9957 C88.9587,58.0117 88.4067,57.6927 87.8507,57.2767 C87.2947,56.8617 86.5937,56.4337 86.2747,56.3127 C85.9567,56.1927 85.6927,56.0247 85.6827,55.9347 C85.6497,55.6547 84.8947,55.0317 84.6257,55.0627 C84.4847,55.0787 84.3517,54.9777 84.3357,54.8427 C84.3197,54.7047 84.1127,54.5007 83.8767,54.3877 C83.6397,54.2767 83.4337,54.0757 83.4187,53.9437 C83.4027,53.8117 82.8797,53.3327 82.2577,52.8807 C81.1897,52.1047 81.1157,51.9977 80.9437,51.0017 C80.7067,49.6277 80.7667,49.4587 81.6907,48.8867 C82.1267,48.6167 82.6297,48.2747 82.8387,48.1057 C84.1377,47.0517 85.3537,46.1467 86.6337,45.2787 C87.4247,44.7437 88.2107,44.1937 88.3617,44.0697 C88.9377,43.6007 90.3387,42.8147 90.6697,42.7757 C90.8497,42.7547 91.0427,42.6037 91.0787,42.4537 C91.1157,42.3027 91.4007,42.0797 91.6937,41.9737 C92.2397,41.7767 93.8727,40.7927 94.0527,40.5527 C94.0977,40.4917 94.3677,40.2527 94.6467,40.0267 C94.9247,39.7997 95.1457,39.5157 95.1317,39.4007 C95.1187,39.2857 95.3337,38.7567 95.6057,38.2377 C95.8777,37.7187 96.0937,37.1987 96.0827,37.0947 C96.0697,36.9917 96.2637,36.7367 96.5047,36.5377 C96.7527,36.3337 96.9807,35.8937 97.0187,35.5437 C97.0567,35.1937 97.1537,34.9077 97.2377,34.8977 C97.3177,34.8887 97.4717,34.6577 97.5657,34.4027 C97.6667,34.1317 97.8877,33.6437 98.0747,33.2767 C98.2567,32.9197 98.5137,32.3007 98.6457,31.8997 C98.7777,31.4977 99.0687,30.8607 99.2937,30.4827 C99.5127,30.1117 99.6927,29.7307 99.6847,29.6547 C99.6657,29.4957 101.6487,25.5887 101.8317,25.4217 C101.9007,25.3597 102.0017,25.0877 102.0477,24.8377 C102.0947,24.5887 102.2347,24.2397 102.3467,24.0917 C102.4647,23.9367 102.7227,23.3877 102.9287,22.8557 C103.7357,20.7697 103.9527,20.2937 104.1147,20.2567 C104.2097,20.2347 104.3507,20.1907 104.4677,20.1467 C104.5787,20.1047 104.7507,20.0487 104.8687,20.0187 C104.9837,19.9877 105.3587,19.6057 105.7137,19.1577 C106.7767,17.8137 106.9117,18.0427 107.2147,21.7057 C107.5257,25.4687 107.5657,27.4077 107.3407,27.7657 C107.2447,27.9197 107.2497,28.1217 107.3537,28.2527 C107.5907,28.5497 107.8027,30.0077 107.6117,30.0297 C107.5357,30.0397 107.5397,30.5877 107.6197,31.2287 C107.6997,31.8687 107.6807,32.6247 107.5787,32.8787 C107.4497,33.1987 107.4637,33.4067 107.6247,33.5337 C107.7587,33.6397 107.8117,33.9077 107.7487,34.1597 C107.6877,34.3997 107.6707,35.0517 107.7127,35.5957 C107.7537,36.1397 107.7267,36.6967 107.6527,36.8217 C107.5777,36.9487 107.5727,37.5727 107.6427,38.2147 C107.7227,38.9577 107.6507,39.7097 107.4447,40.2907 C107.0837,41.3077 107.1317,42.2747 107.5717,42.8567 C107.9677,43.3787 108.8687,44.1067 109.0887,44.0817 C109.1787,44.0707 109.5147,44.1657 109.8557,44.2967 C110.1957,44.4277 110.6417,44.5097 110.8727,44.4827 C111.0927,44.4567 111.3807,44.5037 111.4937,44.5827 C111.6107,44.6657 112.4147,44.8157 113.3007,44.9207 C114.1867,45.0257 114.9047,45.1687 114.9127,45.2407 C114.9207,45.3117 115.5177,45.4597 116.2207,45.5657 C116.9237,45.6717 117.9447,45.8817 118.4587,46.0257 C118.9837,46.1727 119.8187,46.3607 120.3367,46.4467 C120.8547,46.5327 121.4597,46.6887 121.6977,46.7957 C121.9347,46.9027 122.5247,47.0027 123.0147,47.0187 C123.5037,47.0337 124.2507,47.2297 124.6807,47.4537 C125.1157,47.6807 125.8867,47.9497 126.4277,48.0627 C126.9897,48.1797 127.6947,48.5237 128.1077,48.8827 C128.5007,49.2227 128.8927,49.4917 128.9807,49.4817 C129.0687,49.4717 129.1627,49.6437 129.1887,49.8637 C129.2207,50.1427 129.0947,50.2807 128.7737,50.3187" id="Fill-1" fill="#FFFFFF"></path>
                <path d="M89.55,48.3475 C90.454,46.8545 93.199,47.4215 93.751,48.9275 C93.791,49.0355 93.822,49.1505 93.807,49.2645 C93.789,49.4015 93.708,49.5195 93.63,49.6325 C92.941,50.6195 92.272,51.9465 90.805,51.4465 C89.973,51.1625 89.403,50.3125 89.332,49.4355 C89.301,49.0605 89.355,48.6695 89.55,48.3475" id="Fill-3" fill="#7ED6DC"></path>
                <path d="M128.7737,50.3187 C128.5127,50.3487 128.3217,50.4507 128.3337,50.5527 C128.3527,50.7187 127.5407,51.2457 126.9927,51.4227 C126.2297,51.6687 125.5187,52.0207 124.5527,52.6317 C123.9667,53.0027 123.2547,53.4137 122.9917,53.5327 C122.7217,53.6557 122.3067,53.9277 122.0477,54.1517 C121.7947,54.3697 120.3987,54.9917 118.9577,55.5277 C117.5167,56.0637 115.9457,56.7647 115.4817,57.0807 C115.0107,57.4017 114.4827,57.6747 114.2937,57.6967 C114.1137,57.7177 113.8367,57.8847 113.7057,58.0497 C113.4037,58.4307 111.5197,59.6927 111.5007,59.5267 C111.4757,59.3187 110.2867,60.2777 109.9087,60.8097 C109.3717,61.5657 109.3497,63.8417 109.8347,68.6817 C110.0667,71.0117 110.2177,73.1587 110.1707,73.4787 C110.1247,73.7977 110.1697,75.0227 110.2727,76.2097 C110.5377,79.2667 110.5727,79.5857 110.8427,81.3647 C111.0217,82.5427 111.0187,83.0817 110.8337,83.4187 L110.5817,83.8747 L110.0697,83.4057 C109.7947,83.1537 109.5447,82.8217 109.5287,82.6867 C109.5127,82.5467 109.4197,82.4447 109.3187,82.4567 C109.2187,82.4687 109.0447,82.2147 108.9267,81.8827 C108.8087,81.5517 108.5857,81.2537 108.4217,81.2107 C108.2597,81.1677 108.1127,81.0027 108.0947,80.8417 C108.0767,80.6877 107.9147,80.5167 107.7467,80.4767 C107.5747,80.4357 107.2407,80.0887 107.0067,79.7097 C106.7737,79.3307 106.3977,78.8647 106.1757,78.6787 C105.9507,78.4907 105.6307,78.0307 105.4557,77.6457 C105.2807,77.2587 104.9447,76.7027 104.6997,76.3927 C104.4497,76.0757 104.1257,75.6297 103.9497,75.3617 C103.7767,75.0977 103.5827,74.8527 103.5087,74.8037 C103.4347,74.7557 103.2817,74.4647 103.1567,74.1337 C103.0327,73.8057 102.6927,73.2947 102.3797,72.9647 C102.0667,72.6357 101.8167,72.3187 101.8077,72.2387 C101.7987,72.1617 101.6267,71.9557 101.4207,71.7767 C101.0257,71.4337 100.6397,70.9537 100.0907,70.1237 C99.9167,69.8597 99.7207,69.6137 99.6467,69.5657 C99.5737,69.5177 99.3557,69.2027 99.1577,68.8607 C98.9607,68.5177 98.7477,68.2477 98.6817,68.2557 C98.6157,68.2637 98.3927,67.8627 98.1927,67.3787 C97.9927,66.8937 97.6427,66.4007 97.4267,66.2987 C97.2117,66.1977 97.0127,65.9687 96.9927,65.8007 C96.9717,65.6207 96.8797,65.4187 96.7747,65.3187 C96.6717,65.2227 96.3107,64.5497 95.9567,63.7987 C95.6027,63.0477 95.2637,62.4127 95.1897,62.3637 C95.1147,62.3157 94.8977,62.0327 94.6877,61.7117 C94.1807,60.9377 93.8877,60.7157 93.0597,60.4767 C92.6817,60.3667 91.6747,59.7497 90.8497,59.1217 C90.0247,58.4937 89.2237,57.9807 89.0927,57.9957 C88.9587,58.0117 88.4067,57.6927 87.8507,57.2767 C87.2947,56.8617 86.5937,56.4337 86.2747,56.3127 C85.9567,56.1927 85.6927,56.0247 85.6827,55.9347 C85.6497,55.6547 84.8947,55.0317 84.6257,55.0627 C84.4847,55.0787 84.3517,54.9777 84.3357,54.8427 C84.3197,54.7047 84.1127,54.5007 83.8767,54.3877 C83.6397,54.2767 83.4337,54.0757 83.4187,53.9437 C83.4027,53.8117 82.8797,53.3327 82.2577,52.8807 C81.1897,52.1047 81.1157,51.9977 80.9437,51.0017 C80.7067,49.6277 80.7667,49.4587 81.6907,48.8867 C82.1267,48.6167 82.6297,48.2747 82.8387,48.1057 C84.1377,47.0517 85.3537,46.1467 86.6337,45.2787 C87.4247,44.7437 88.2107,44.1937 88.3617,44.0697 C88.9377,43.6007 90.3387,42.8147 90.6697,42.7757 C90.8497,42.7547 91.0427,42.6037 91.0787,42.4537 C91.1157,42.3027 91.4007,42.0797 91.6937,41.9737 C92.2397,41.7767 93.8727,40.7927 94.0527,40.5527 C94.0977,40.4917 94.3677,40.2527 94.6467,40.0267 C94.9247,39.7997 95.1457,39.5157 95.1317,39.4007 C95.1187,39.2857 95.3337,38.7567 95.6057,38.2377 C95.8777,37.7187 96.0937,37.1987 96.0827,37.0947 C96.0697,36.9917 96.2637,36.7367 96.5047,36.5377 C96.7527,36.3337 96.9807,35.8937 97.0187,35.5437 C97.0567,35.1937 97.1537,34.9077 97.2377,34.8977 C97.3177,34.8887 97.4717,34.6577 97.5657,34.4027 C97.6667,34.1317 97.8877,33.6437 98.0747,33.2767 C98.2567,32.9197 98.5137,32.3007 98.6457,31.8997 C98.7777,31.4977 99.0687,30.8607 99.2937,30.4827 C99.5127,30.1117 99.6927,29.7307 99.6847,29.6547 C99.6657,29.4957 101.6487,25.5887 101.8317,25.4217 C101.9007,25.3597 102.0017,25.0877 102.0477,24.8377 C102.0947,24.5887 102.2347,24.2397 102.3467,24.0917 C102.4647,23.9367 102.7227,23.3877 102.9287,22.8557 C103.7357,20.7697 103.9527,20.2937 104.1147,20.2567 C104.2097,20.2347 104.3507,20.1907 104.4677,20.1467 C104.5787,20.1047 104.7507,20.0487 104.8687,20.0187 C104.9837,19.9877 105.3587,19.6057 105.7137,19.1577 C106.7767,17.8137 106.9117,18.0427 107.2147,21.7057 C107.5257,25.4687 107.5657,27.4077 107.3407,27.7657 C107.2447,27.9197 107.2497,28.1217 107.3537,28.2527 C107.5907,28.5497 107.8027,30.0077 107.6117,30.0297 C107.5357,30.0397 107.5397,30.5877 107.6197,31.2287 C107.6997,31.8687 107.6807,32.6247 107.5787,32.8787 C107.4497,33.1987 107.4637,33.4067 107.6247,33.5337 C107.7587,33.6397 107.8117,33.9077 107.7487,34.1597 C107.6877,34.3997 107.6707,35.0517 107.7127,35.5957 C107.7537,36.1397 107.7267,36.6967 107.6527,36.8217 C107.5777,36.9487 107.5727,37.5727 107.6427,38.2147 C107.7227,38.9577 107.6507,39.7097 107.4447,40.2907 C107.0837,41.3077 107.1317,42.2747 107.5717,42.8567 C107.9677,43.3787 108.8687,44.1067 109.0887,44.0817 C109.1787,44.0707 109.5147,44.1657 109.8557,44.2967 C110.1957,44.4277 110.6417,44.5097 110.8727,44.4827 C111.0927,44.4567 111.3807,44.5037 111.4937,44.5827 C111.6107,44.6657 112.4147,44.8157 113.3007,44.9207 C114.1867,45.0257 114.9047,45.1687 114.9127,45.2407 C114.9207,45.3117 115.5177,45.4597 116.2207,45.5657 C116.9237,45.6717 117.9447,45.8817 118.4587,46.0257 C118.9837,46.1727 119.8187,46.3607 120.3367,46.4467 C120.8547,46.5327 121.4597,46.6887 121.6977,46.7957 C121.9347,46.9027 122.5247,47.0027 123.0147,47.0187 C123.5037,47.0337 124.2507,47.2297 124.6807,47.4537 C125.1157,47.6807 125.8867,47.9497 126.4277,48.0627 C126.9897,48.1797 127.6947,48.5237 128.1077,48.8827 C128.5007,49.2227 128.8927,49.4917 128.9807,49.4817 C129.0687,49.4717 129.1627,49.6437 129.1887,49.8637 C129.2207,50.1427 129.0947,50.2807 128.7737,50.3187 M134.7497,48.0567 C134.4877,47.7217 134.2427,47.2147 134.2107,46.9417 C134.1677,46.5657 134.0087,46.4227 133.5757,46.3687 C132.8127,46.2747 129.3727,45.2177 129.1087,44.9967 C128.7357,44.6837 127.7727,44.3497 127.1177,44.3067 C126.7077,44.2797 126.3047,44.1677 126.2097,44.0547 C125.9897,43.7937 125.1537,43.5027 124.4567,43.4447 C123.6977,43.3817 122.1277,43.1527 121.7697,43.0517 C121.6017,43.0047 121.3587,42.9607 121.2507,42.9567 C121.1417,42.9537 120.8997,42.9097 120.7317,42.8627 C119.8137,42.6087 114.9867,41.8637 113.8617,41.8047 C112.6757,41.7407 112.1957,41.3267 111.9897,40.1867 C111.8887,39.6297 111.8857,39.0757 111.9827,38.9277 C112.0827,38.7747 112.1057,38.6027 112.0357,38.5157 C111.9697,38.4327 111.9587,37.9557 112.0117,37.4417 C112.0637,36.9357 112.1047,35.8257 112.1027,34.9927 C112.0997,34.1547 112.1167,32.7357 112.1407,31.8387 C112.1647,30.9417 112.1667,29.7987 112.1447,29.2977 C111.8727,22.9497 111.3107,17.0557 110.9247,16.4977 C110.6647,16.1217 110.6577,16.0057 110.8787,15.8017 C111.0807,15.6167 111.0817,15.5407 110.8827,15.4867 C110.7377,15.4467 110.5957,15.2047 110.5657,14.9437 C110.5357,14.6837 110.4097,14.4257 110.2847,14.3677 C110.1537,14.3057 110.0817,14.1577 110.1127,14.0117 C110.1737,13.7197 109.2667,12.3627 109.0287,12.3907 C108.6677,12.4327 108.5397,12.4117 108.3237,12.2737 C108.2047,12.1967 107.4827,12.2097 106.7417,12.2997 C105.1777,12.4927 104.5417,12.9547 103.3287,14.7827 C102.9487,15.3557 102.3177,16.2327 101.9167,16.7457 C101.5157,17.2597 101.1607,17.9127 101.1227,18.2097 C101.0857,18.4987 100.8037,19.1417 100.5127,19.6017 C100.2157,20.0727 99.7927,21.0267 99.5717,21.7237 C99.3517,22.4197 98.9057,23.4317 98.5827,23.9717 C97.7457,25.3697 96.6007,27.6057 96.6227,27.7977 C96.6327,27.8857 96.2587,28.5817 95.7877,29.3477 C95.3167,30.1137 94.9487,30.8627 94.9667,31.0177 C94.9857,31.1777 94.9267,31.3067 94.8287,31.3187 C94.7357,31.3297 94.5607,31.6037 94.4417,31.9227 C94.3247,32.2397 93.9727,32.8607 93.6727,33.2817 C92.6767,34.6777 92.3977,35.1177 92.4137,35.2577 C92.4537,35.6017 91.0757,37.1997 90.5877,37.3747 C90.2567,37.4937 90.1077,37.6557 90.1877,37.8137 C90.3977,38.2277 90.1017,38.4337 88.0117,39.3297 C87.4897,39.5537 86.7817,40.0517 86.4727,40.4127 C86.2667,40.6527 85.6827,41.0467 85.1817,41.2827 C84.6817,41.5187 84.1737,41.8587 84.0607,42.0327 C83.9467,42.2097 83.7517,42.3687 83.6247,42.3887 C83.4967,42.4097 83.0747,42.7287 82.6717,43.1097 C82.2697,43.4907 81.8737,43.8017 81.7787,43.8137 C81.6887,43.8237 81.4847,43.9897 81.3427,44.1687 C81.1957,44.3547 80.8667,44.5287 80.6067,44.5597 C80.3317,44.5917 80.0287,44.8297 79.8807,45.1317 C79.6947,45.5087 79.3697,45.7177 78.6807,45.9017 C78.1687,46.0387 77.3607,46.4677 76.9197,46.8387 C76.4767,47.2117 76.0287,47.5317 75.9357,47.5427 C75.8377,47.5537 75.7787,47.6827 75.7977,47.8427 C75.8167,48.0037 75.7157,48.1837 75.5627,48.2637 C75.2437,48.4297 75.4647,49.9547 75.8977,50.5747 C76.0427,50.7817 76.2117,51.3917 76.2747,51.9327 C76.3877,52.8937 76.4327,52.9507 78.4037,54.5897 C79.5177,55.5167 80.4307,56.3407 80.4477,56.4337 C80.4637,56.5277 80.9767,57.0027 81.5977,57.4987 C82.2187,57.9947 82.7277,58.4697 82.7377,58.5647 C82.7487,58.6577 82.9087,58.7167 83.0887,58.6957 C83.2677,58.6757 83.5867,58.8107 83.7837,58.9907 C83.9877,59.1787 84.4447,59.4367 84.8277,59.5807 C85.2107,59.7247 85.5907,59.9427 85.6987,60.0787 C85.8077,60.2167 86.0847,60.4227 86.3437,60.5607 C86.8097,60.8067 88.3827,61.8367 89.4897,62.6197 C89.8267,62.8577 90.3127,63.3607 90.5527,63.7177 C90.7927,64.0757 91.1277,64.4367 91.2847,64.5067 C91.4347,64.5727 91.5857,64.7317 91.5977,64.8357 C91.6317,65.1317 93.6127,68.2577 94.1267,68.8277 C94.3607,69.0887 94.8637,69.9507 95.2307,70.7207 C95.5967,71.4907 96.0277,72.2137 96.1767,72.3067 C96.3287,72.4017 96.6167,72.7227 96.8197,73.0247 C97.0237,73.3257 97.4377,73.7877 97.7447,74.0547 C98.6727,74.8607 100.6057,77.6077 100.6767,78.2227 C100.6977,78.4037 100.8577,78.6337 101.0437,78.7497 C101.2167,78.8577 101.3937,79.1347 101.4167,79.3357 C101.4397,79.5357 101.5557,79.7057 101.6617,79.6937 C101.7697,79.6807 101.8757,79.7897 101.8927,79.9307 C101.9097,80.0757 102.1217,80.3607 102.3737,80.5747 C102.6257,80.7897 102.8347,81.0387 102.8457,81.1397 C102.8667,81.3127 104.1557,82.7547 104.6557,83.1637 C104.8077,83.2887 104.9477,83.4787 104.9597,83.5757 C104.9897,83.8387 106.9627,86.0037 107.7207,86.6057 C110.2187,88.5897 110.8477,88.8317 112.7517,88.5387 C113.5897,88.4097 113.9907,88.2337 114.3557,87.8327 C114.6257,87.5367 114.9087,87.2907 114.9917,87.2807 C115.0767,87.2717 115.1227,87.0937 115.0967,86.8727 C115.0707,86.6517 115.1247,86.4247 115.2187,86.3517 C115.4217,86.1937 115.4227,84.2037 115.2207,82.7037 C115.1347,82.0637 115.1577,81.4047 115.2727,81.2347 C115.4197,81.0147 115.3817,80.4497 115.1397,79.2787 C114.5497,76.4217 114.3577,73.8107 114.6047,72.0267 C114.7067,71.2867 114.3727,69.1277 114.0047,68.1547 C113.9127,67.9087 113.8437,66.7717 113.8547,65.6317 C113.8737,63.3947 114.1037,62.7117 115.0187,62.1667 C115.3057,61.9947 115.8447,61.6757 116.2447,61.4417 C116.6437,61.2077 117.0517,61.0667 117.1717,61.1207 C117.2927,61.1747 117.5107,61.0647 117.6707,60.8687 C117.8307,60.6727 118.0397,60.5597 118.1487,60.6097 C118.4377,60.7407 119.8747,60.0757 120.8287,59.3687 C122.0247,58.4817 123.2047,57.8767 123.8957,57.7967 C124.2167,57.7587 124.5367,57.6027 124.6107,57.4487 C124.9157,56.8117 125.5577,56.3647 126.9187,55.8417 C127.7157,55.5357 128.8957,54.9447 129.5207,54.5387 C130.1437,54.1337 131.0657,53.6897 131.5497,53.5617 C133.0867,53.1537 133.9047,52.6047 134.4947,51.5817 C134.7957,51.0587 135.0257,50.4407 135.0007,50.2217 C134.9747,50.0017 135.0377,49.7557 135.1397,49.6737 C135.4347,49.4417 135.2577,48.7087 134.7497,48.0567" id="Fill-5" fill="#7ED6DC"></path>
                <path d="M43.1702,42.6141 C42.7092,42.3371 42.0862,42.1061 41.7602,42.0931 C41.2242,42.0711 39.2022,41.2951 38.4352,40.8171 C37.8662,40.4631 37.1792,40.1381 36.1042,39.7161 C35.5392,39.4941 34.5442,39.0511 33.8652,38.7191 C32.5272,38.0651 31.2902,37.6021 30.3222,37.3921 C29.3312,37.1771 26.5082,36.0141 25.7352,35.5031 C24.9762,35.0001 23.9012,34.4961 22.1992,33.8431 C20.9472,33.3631 18.9312,32.1111 17.9572,31.2091 C17.5892,30.8691 16.9752,30.5121 16.5612,30.3991 C16.1472,30.2851 15.7232,30.0861 15.5992,29.9451 C15.3552,29.6671 14.8432,29.3331 11.1952,27.0701 C8.9112,25.6531 8.4612,25.2541 6.9242,23.2851 C6.3352,22.5301 5.6732,21.3251 5.8572,21.3401 C5.9562,21.3481 6.2472,21.0601 6.5052,20.6971 C6.7632,20.3361 7.1942,19.9991 7.4652,19.9491 C7.7322,19.9011 8.0762,19.6471 8.2172,19.3961 C8.3612,19.1401 8.9202,18.7061 9.4682,18.4261 C10.5562,17.8681 10.7752,17.7431 12.2842,16.8251 C12.8372,16.4891 13.5132,16.0871 13.7592,15.9491 C14.0132,15.8071 14.2242,15.6061 14.2352,15.4941 C14.2702,15.1671 15.9982,14.1431 17.5632,13.5231 C18.3352,13.2171 19.1782,12.8061 19.4132,12.6221 C19.6522,12.4351 20.4512,12.0331 21.2032,11.7211 C21.9552,11.4081 22.6102,11.1071 22.6712,11.0451 C22.7322,10.9841 23.2322,10.7421 23.7752,10.5101 C24.3192,10.2801 24.7742,10.0251 24.7802,9.9481 C24.7942,9.7841 26.2232,9.0981 26.5032,9.1221 C26.6272,9.1321 26.9452,8.9361 27.2272,8.6771 C27.5082,8.4181 27.8312,8.2221 27.9602,8.2331 C28.0862,8.2431 28.4362,8.0911 28.7342,7.8931 C29.0332,7.6971 29.3872,7.5441 29.5192,7.5541 C29.6502,7.5661 30.1012,7.3531 30.5062,7.0911 C31.9782,6.1361 33.6762,5.4901 34.5482,5.5531 C34.7772,5.5701 35.4062,5.4351 35.9252,5.2591 C36.4532,5.0791 37.5692,4.9011 38.4202,4.8601 C39.2722,4.8191 40.0402,4.7471 40.1392,4.6991 C40.2362,4.6521 40.7272,4.7941 41.2132,5.0101 L42.1092,5.4071 L42.0132,6.5591 C41.9612,7.2011 41.8512,7.7661 41.7672,7.8341 C41.6012,7.9671 41.4382,8.4191 41.3682,8.9381 C41.3452,9.1071 41.1482,9.4541 40.9132,9.7381 C40.6782,10.0211 40.4902,10.3341 40.4802,10.4591 C40.4702,10.5791 40.3712,10.6721 40.2612,10.6631 C40.1532,10.6541 40.0392,10.9171 40.0122,11.2381 C39.9852,11.5581 39.8672,11.8761 39.7532,11.9321 C39.6412,11.9881 39.5252,12.2471 39.5052,12.4871 C39.4852,12.7301 39.2532,13.2841 39.0032,13.6871 C38.7522,14.0901 38.5232,14.6021 38.5072,14.7961 C38.4902,14.9971 38.3972,15.1511 38.2972,15.1421 C38.1982,15.1341 37.8672,15.7221 37.5642,16.4441 C37.2602,17.1661 36.7092,18.2191 36.3412,18.7751 C35.9752,19.3301 35.6622,19.9211 35.6492,20.0801 C35.6352,20.2401 35.5442,20.3641 35.4442,20.3561 C35.3422,20.3471 35.1382,20.5931 34.9732,20.9221 C34.8092,21.2521 34.5622,21.4931 34.4022,21.4801 C34.2422,21.4671 34.1152,21.5431 34.1052,21.6571 C34.0962,21.7671 33.7982,22.1161 33.4462,22.4301 C33.0932,22.7441 32.7352,23.1711 32.6512,23.3741 C32.5712,23.5691 32.4052,23.7371 32.2992,23.7281 C32.1802,23.7181 32.0662,24.2641 32.0172,25.0671 C31.9722,25.8101 31.8542,26.5851 31.7542,26.7811 C31.6272,27.0331 31.6672,27.2041 31.8882,27.3571 C32.0602,27.4761 32.1932,27.6941 32.1822,27.8361 C32.1382,28.3621 33.8632,29.7101 34.6652,29.7771 C34.9692,29.8021 36.0112,30.8301 37.5012,32.5781 C37.7772,32.9021 38.0762,33.2521 38.1452,33.3341 C38.2152,33.4161 38.7742,34.0161 39.3692,34.6461 C39.9622,35.2751 40.9542,36.3551 41.5352,37.0051 C42.1262,37.6661 42.8632,38.4371 43.1792,38.7251 C43.4982,39.0151 43.7062,39.3051 43.6492,39.3791 C43.5942,39.4521 43.7302,40.0111 43.9512,40.6151 C44.1712,41.2181 44.3762,41.9481 44.4032,42.2271 C44.4302,42.5111 44.5002,42.7921 44.5622,42.8641 C44.8762,43.2281 43.9002,43.0531 43.1702,42.6141" id="Fill-7" fill="#FFFFFF"></path>
                <path d="M43.1702,42.6141 C42.7092,42.3371 42.0862,42.1061 41.7602,42.0931 C41.2242,42.0711 39.2022,41.2951 38.4352,40.8171 C37.8662,40.4631 37.1792,40.1381 36.1042,39.7161 C35.5392,39.4941 34.5442,39.0511 33.8652,38.7191 C32.5272,38.0651 31.2902,37.6021 30.3222,37.3921 C29.3312,37.1771 26.5082,36.0141 25.7352,35.5031 C24.9762,35.0001 23.9012,34.4961 22.1992,33.8431 C20.9472,33.3631 18.9312,32.1111 17.9572,31.2091 C17.5892,30.8691 16.9752,30.5121 16.5612,30.3991 C16.1472,30.2851 15.7232,30.0861 15.5992,29.9451 C15.3552,29.6671 14.8432,29.3331 11.1952,27.0701 C8.9112,25.6531 8.4612,25.2541 6.9242,23.2851 C6.3352,22.5301 5.6732,21.3251 5.8572,21.3401 C5.9562,21.3481 6.2472,21.0601 6.5052,20.6971 C6.7632,20.3361 7.1942,19.9991 7.4652,19.9491 C7.7322,19.9011 8.0762,19.6471 8.2172,19.3961 C8.3612,19.1401 8.9202,18.7061 9.4682,18.4261 C10.5562,17.8681 10.7752,17.7431 12.2842,16.8251 C12.8372,16.4891 13.5132,16.0871 13.7592,15.9491 C14.0132,15.8071 14.2242,15.6061 14.2352,15.4941 C14.2702,15.1671 15.9982,14.1431 17.5632,13.5231 C18.3352,13.2171 19.1782,12.8061 19.4132,12.6221 C19.6522,12.4351 20.4512,12.0331 21.2032,11.7211 C21.9552,11.4081 22.6102,11.1071 22.6712,11.0451 C22.7322,10.9841 23.2322,10.7421 23.7752,10.5101 C24.3192,10.2801 24.7742,10.0251 24.7802,9.9481 C24.7942,9.7841 26.2232,9.0981 26.5032,9.1221 C26.6272,9.1321 26.9452,8.9361 27.2272,8.6771 C27.5082,8.4181 27.8312,8.2221 27.9602,8.2331 C28.0862,8.2431 28.4362,8.0911 28.7342,7.8931 C29.0332,7.6971 29.3872,7.5441 29.5192,7.5541 C29.6502,7.5661 30.1012,7.3531 30.5062,7.0911 C31.9782,6.1361 33.6762,5.4901 34.5482,5.5531 C34.7772,5.5701 35.4062,5.4351 35.9252,5.2591 C36.4532,5.0791 37.5692,4.9011 38.4202,4.8601 C39.2722,4.8191 40.0402,4.7471 40.1392,4.6991 C40.2362,4.6521 40.7272,4.7941 41.2132,5.0101 L42.1092,5.4071 L42.0132,6.5591 C41.9612,7.2011 41.8512,7.7661 41.7672,7.8341 C41.6012,7.9671 41.4382,8.4191 41.3682,8.9381 C41.3452,9.1071 41.1482,9.4541 40.9132,9.7381 C40.6782,10.0211 40.4902,10.3341 40.4802,10.4591 C40.4702,10.5791 40.3712,10.6721 40.2612,10.6631 C40.1532,10.6541 40.0392,10.9171 40.0122,11.2381 C39.9852,11.5581 39.8672,11.8761 39.7532,11.9321 C39.6412,11.9881 39.5252,12.2471 39.5052,12.4871 C39.4852,12.7301 39.2532,13.2841 39.0032,13.6871 C38.7522,14.0901 38.5232,14.6021 38.5072,14.7961 C38.4902,14.9971 38.3972,15.1511 38.2972,15.1421 C38.1982,15.1341 37.8672,15.7221 37.5642,16.4441 C37.2602,17.1661 36.7092,18.2191 36.3412,18.7751 C35.9752,19.3301 35.6622,19.9211 35.6492,20.0801 C35.6352,20.2401 35.5442,20.3641 35.4442,20.3561 C35.3422,20.3471 35.1382,20.5931 34.9732,20.9221 C34.8092,21.2521 34.5622,21.4931 34.4022,21.4801 C34.2422,21.4671 34.1152,21.5431 34.1052,21.6571 C34.0962,21.7671 33.7982,22.1161 33.4462,22.4301 C33.0932,22.7441 32.7352,23.1711 32.6512,23.3741 C32.5712,23.5691 32.4052,23.7371 32.2992,23.7281 C32.1802,23.7181 32.0662,24.2641 32.0172,25.0671 C31.9722,25.8101 31.8542,26.5851 31.7542,26.7811 C31.6272,27.0331 31.6672,27.2041 31.8882,27.3571 C32.0602,27.4761 32.1932,27.6941 32.1822,27.8361 C32.1382,28.3621 33.8632,29.7101 34.6652,29.7771 C34.9692,29.8021 36.0112,30.8301 37.5012,32.5781 C37.7772,32.9021 38.0762,33.2521 38.1452,33.3341 C38.2152,33.4161 38.7742,34.0161 39.3692,34.6461 C39.9622,35.2751 40.9542,36.3551 41.5352,37.0051 C42.1262,37.6661 42.8632,38.4371 43.1792,38.7251 C43.4982,39.0151 43.7062,39.3051 43.6492,39.3791 C43.5942,39.4521 43.7302,40.0111 43.9512,40.6151 C44.1712,41.2181 44.3762,41.9481 44.4032,42.2271 C44.4302,42.5111 44.5002,42.7921 44.5622,42.8641 C44.8762,43.2281 43.9002,43.0531 43.1702,42.6141 M50.3102,45.6011 C50.1852,45.5911 50.1032,45.4121 50.1222,45.1921 C50.1402,44.9711 50.0662,44.7371 49.9542,44.6531 C49.8382,44.5681 49.8122,44.3791 49.8902,44.2041 C49.9672,44.0341 49.9182,43.7521 49.7782,43.5591 C49.4332,43.0821 49.1692,41.8131 49.1852,40.7051 C49.2112,38.8501 49.0702,38.4541 48.0522,37.5071 C47.5282,37.0181 46.7612,36.2751 46.3522,35.8591 C45.2912,34.7791 45.1822,34.6821 44.9982,34.6671 C44.8962,34.6591 44.6592,34.4851 44.4552,34.2691 C44.2592,34.0621 43.6822,33.4911 43.1962,33.0251 C42.6162,32.4681 42.2732,31.9501 42.2272,31.5621 C42.1832,31.1961 41.9782,30.8751 41.6992,30.7411 C41.4472,30.6201 41.2512,30.4331 41.2602,30.3221 C41.2692,30.2101 41.1662,30.1121 41.0262,30.1011 C40.8882,30.0891 40.3692,29.5011 39.8732,28.7941 C39.3762,28.0871 38.8122,27.4961 38.6192,27.4801 C38.4082,27.4631 38.2812,27.2901 38.3012,27.0501 C38.3192,26.8291 38.2352,26.6411 38.1142,26.6311 C37.9772,26.6191 37.9572,26.4461 38.0612,26.1721 C38.1522,25.9321 38.3002,25.2341 38.3862,24.6351 C38.6012,23.1391 38.9722,22.1951 39.5292,21.7221 C39.7892,21.5021 39.9982,21.1691 40.0172,20.9461 C40.0352,20.7291 40.3082,20.1521 40.6282,19.6541 C40.9482,19.1561 41.2152,18.6501 41.2262,18.5231 C41.2362,18.3971 41.5202,17.8101 41.8492,17.2321 C43.1562,14.9381 43.6702,14.0551 43.8542,13.7851 C44.3372,13.0781 44.7792,12.1701 44.8072,11.8261 C44.8242,11.6251 44.9342,11.4531 45.0392,11.4611 C45.1512,11.4711 45.2602,11.2271 45.2872,10.9061 C45.3142,10.5861 45.5282,10.1261 45.7772,9.8571 C46.0212,9.5951 46.2332,9.2351 46.2472,9.0591 C46.2622,8.8781 46.3612,8.7451 46.4742,8.7551 C46.5832,8.7631 46.6972,8.5011 46.7232,8.1801 C46.7502,7.8591 46.8782,7.5371 47.0032,7.4761 C47.1432,7.4091 47.1962,7.1491 47.1382,6.8221 C47.0842,6.5141 47.0212,6.0581 46.9932,5.7701 C46.9662,5.4891 46.7072,4.6361 46.4142,3.8651 C45.9232,2.5731 45.7902,2.4101 44.6282,1.6701 C43.9382,1.2301 42.8382,0.7281 42.1872,0.5541 C40.8642,0.2031 36.9182,-0.1569 36.8992,0.0721 C36.8732,0.3861 35.7642,0.6191 34.3732,0.6011 C32.8612,0.5811 32.1092,0.8351 31.8592,1.4511 C31.7762,1.6551 31.4682,1.9261 31.1752,2.0511 C30.8822,2.1761 30.6732,2.3911 30.7122,2.5271 C30.7542,2.6761 30.4982,2.7961 30.0712,2.8271 C29.6452,2.8591 29.1082,3.1051 28.7292,3.4431 C28.3562,3.7751 27.9002,3.9901 27.6162,3.9671 C27.1752,3.9301 26.6132,4.2301 26.4022,4.6131 C26.3072,4.7861 24.3992,5.9211 24.2272,5.9061 C24.1472,5.9001 23.9572,5.9911 23.7852,6.1211 C23.2012,6.5591 22.9292,6.7141 21.6042,7.3581 C20.8682,7.7161 20.1592,7.9921 20.0092,7.9791 C19.8572,7.9671 19.6122,8.0881 19.4512,8.2561 C19.2932,8.4211 18.7372,8.7111 18.2172,8.9011 C17.6972,9.0911 17.2122,9.3141 17.1432,9.3971 C17.0032,9.5621 15.8262,10.1101 13.5472,11.0721 C12.6692,11.4431 11.8212,11.9261 11.6832,12.1351 C11.5442,12.3451 11.3082,12.5071 11.1592,12.4951 C11.0022,12.4821 10.8272,12.5991 10.7422,12.7731 C10.6582,12.9481 10.5212,13.0211 10.4152,12.9481 C10.3142,12.8781 9.9792,13.1041 9.6562,13.4611 C9.3342,13.8171 8.8142,14.1841 8.4782,14.2911 C8.1462,14.3981 7.8212,14.6061 7.7532,14.7561 C7.6812,14.9141 7.4992,15.0181 7.3192,15.0031 C7.1392,14.9881 7.0012,15.0661 6.9912,15.1881 C6.9812,15.3081 6.9002,15.3441 6.8022,15.2731 C6.7092,15.2051 6.0132,15.6581 5.2772,16.2671 C4.5412,16.8761 3.6292,17.4891 3.2792,17.6101 C2.4482,17.9001 1.8922,18.2771 1.8682,18.5691 C1.8572,18.6891 1.7582,18.7811 1.6492,18.7721 C1.5362,18.7631 1.4352,18.9261 1.4162,19.1471 C1.3982,19.3671 1.2262,19.6371 1.0222,19.7661 C0.4262,20.1421 -0.1088,21.1121 0.0192,21.5841 C0.0812,21.8141 0.4292,22.3041 0.8002,22.6881 C1.1722,23.0721 1.4652,23.4421 1.4592,23.5201 C1.4522,23.5961 1.6772,23.9221 1.9542,24.2371 C2.2312,24.5511 2.5682,25.0701 2.6972,25.3781 C2.8302,25.6951 3.1742,26.0731 3.4832,26.2401 C3.7932,26.4071 4.0282,26.6081 4.0212,26.6981 C4.0012,26.9391 4.5012,27.4851 4.7612,27.5061 C4.8792,27.5161 5.0222,27.6691 5.0672,27.8341 C5.1132,27.9991 5.2322,28.1031 5.3212,28.0571 C5.4192,28.0071 5.6102,28.1071 5.7762,28.2971 C5.9422,28.4861 6.1882,28.6331 6.3622,28.6481 C6.5232,28.6611 6.7752,28.8001 6.9032,28.9461 C7.2722,29.3671 8.9942,30.6811 9.2002,30.6981 C9.5072,30.7241 10.7702,31.4891 11.1602,31.8851 C11.3652,32.0931 11.8842,32.4051 12.3142,32.5771 C13.3882,33.0081 14.9612,34.0251 15.2372,34.4671 C15.3702,34.6801 15.6142,34.8621 15.7872,34.8761 C15.9632,34.8901 16.3152,35.0861 16.5972,35.3261 C16.8692,35.5571 17.4132,35.8421 17.7872,35.9491 C18.1642,36.0581 18.9582,36.4401 19.5342,36.7901 C20.1102,37.1401 20.8452,37.5181 21.1502,37.6201 C21.4582,37.7231 22.1532,38.0681 22.6922,38.3841 C23.7112,38.9831 25.1572,39.5721 26.7732,40.0481 C27.2852,40.1991 27.9392,40.4711 28.2352,40.6581 C28.5242,40.8391 28.9412,41.0091 29.1332,41.0251 C29.3322,41.0411 30.1482,41.3361 30.9462,41.6791 C31.7452,42.0231 32.5242,42.3141 32.6792,42.3271 C32.8292,42.3401 33.0602,42.5001 33.1752,42.6711 C33.2932,42.8451 33.5912,43.0081 33.8322,43.0281 C34.0722,43.0481 34.3532,43.1491 34.4492,43.2501 C34.5472,43.3541 35.0172,43.5901 35.5052,43.7811 C35.9942,43.9731 36.5182,44.2591 36.6832,44.4241 C36.8462,44.5871 37.5562,44.8551 38.2492,45.0181 C38.9412,45.1801 39.9602,45.4791 40.4952,45.6771 C41.0302,45.8761 42.0452,46.2121 42.7342,46.4181 C43.4242,46.6241 44.1042,46.9181 44.2352,47.0671 C44.4102,47.2651 44.9782,47.3501 46.3482,47.3801 C49.1082,47.4401 49.1282,47.4401 49.1432,47.2601 C49.1512,47.1571 49.2742,47.1371 49.4302,47.2141 C49.6012,47.2981 49.7922,47.1531 49.9462,46.8221 C50.0832,46.5311 50.2672,46.1471 50.3612,45.9581 C50.4582,45.7641 50.4362,45.6121 50.3102,45.6011" id="Fill-9" fill="#7ED6DC"></path>
                <path d="M12.2888,22.1805 C11.9518,20.2215 14.7348,18.6595 16.3348,19.5425 C16.4498,19.6055 16.5628,19.6815 16.6348,19.7905 C16.7218,19.9215 16.7408,20.0835 16.7568,20.2395 C16.9018,21.6035 17.3168,23.2435 15.6828,23.9085 C14.7538,24.2855 13.6298,23.9805 12.9138,23.2795 C12.6078,22.9805 12.3608,22.6025 12.2888,22.1805" id="Fill-11" fill="#7ED6DC"></path>
            </g>
        </g>
    </g>
</svg>