<?xml version="1.0" encoding="UTF-8"?>
<svg width="89px" height="93px" viewBox="0 0 89 93" version="1.1" xmlns="http://www.w3.org/2000/svg" xmlns:xlink="http://www.w3.org/1999/xlink">
    <!-- Generator: Sketch 61 (89581) - https://sketch.com -->
    <title>img-leaf-set2</title>
    <desc>Created with Sketch.</desc>
    <g id="Page-1" stroke="none" stroke-width="1" fill="none" fill-rule="evenodd">
        <g id="200318_kodomonooka-ver2" transform="translate(-396.000000, -5240.000000)" fill="#7ED6DC">
            <g id="Group" transform="translate(396.000000, 5240.000000)">
                <path d="M56.2021576,68.0671409 C56.0191271,68.223041 55.8652608,68.4151501 55.8612382,68.4925972 C55.8562099,68.5690386 55.6761964,68.8345716 55.46903,69.066913 C55.0959295,69.4903578 55.061737,69.4963926 54.0299279,69.3334519 C53.2304267,69.207726 52.8794507,69.0608782 52.5898201,68.7339909 C52.1493402,68.2351106 51.7933359,67.1629204 52.0397231,67.0774268 C52.1312383,67.045241 52.2066629,66.8943699 52.2066629,66.7455105 C52.2066629,66.5886046 52.4228802,66.2637289 52.7054712,65.9951785 C52.9890679,65.726628 53.2062908,65.4550601 53.2062908,65.3705723 C53.2062908,65.1261612 53.9766278,65.2036084 54.1978734,65.471153 C54.3074906,65.6039196 54.505606,65.7205932 54.6212571,65.7205932 C54.8746839,65.7205932 55.9698497,66.3130135 56.4183749,66.6942143 C56.7874528,67.0050087 56.6848753,67.6557658 56.2021576,68.0671409 M63.5273986,50.5691167 C63.5273986,50.8014581 63.3815777,51.0760434 63.1945246,51.1937228 C63.0114941,51.307379 62.8616505,51.5437436 62.8616505,51.7177482 C62.8616505,52.0345775 61.9957756,52.8995715 61.6789921,52.8995715 C61.3772936,52.8995715 59.5811814,52.2468027 59.0662826,51.9500897 C58.4980836,51.6232024 58.199402,51.1172815 58.199402,50.4856347 C58.199402,50.2693862 58.131017,50.0430796 58.0505641,49.9917835 C57.789092,49.8288427 58.270804,48.8039254 59.0220334,47.9218327 C59.9985311,46.7721953 60.2036861,46.679661 61.2465575,46.9140141 C63.0778678,47.3253891 63.2337454,47.419935 63.5424836,48.3050451 C63.7456273,48.8874074 63.7838424,49.2676024 63.6772423,49.6367336 C63.5957837,49.9193654 63.5273986,50.3407985 63.5273986,50.5691167 M79.2891372,76.4606002 C79.1724804,76.5792854 78.7762496,76.8277198 78.4101887,77.0127882 C77.362289,77.5398311 76.1675627,77.2994432 75.423373,76.4103099 C74.9647911,75.8611392 74.9647911,75.8611392 75.2936426,75.4950255 C75.6727771,75.0725866 75.6637261,74.2287145 75.2725237,73.6624452 C75.0462498,73.3345521 75.0643517,73.2923082 75.5641656,72.980508 C75.8638529,72.7924221 76.2389647,72.6254582 76.4209895,72.5972956 C76.6050257,72.569133 76.9630413,72.4393839 77.2456323,72.2975651 C77.6388461,72.1014327 77.8610973,72.0863456 78.2945376,72.2311818 C78.5942248,72.3307567 78.8064195,72.4786103 78.7601591,72.5560575 C78.7149043,72.6335046 78.8587139,73.0971816 79.0789539,73.5789632 C79.533513,74.5787353 79.6451415,76.0975039 79.2891372,76.4606002 M80.9695982,41.4615344 C80.098695,42.3436271 79.0920275,42.9782913 78.8265327,42.8113274 C78.7561364,42.766066 78.4765624,42.8284261 78.2271583,42.9471113 C77.3451928,43.3665328 76.250027,43.1251391 75.56316,42.35972 C74.5615207,41.2442801 74.3955865,40.9505844 74.4720168,40.4285706 C74.5142546,40.144933 74.6168321,39.9125916 74.6982907,39.9125916 C74.783772,39.9125916 74.8481344,39.6963431 74.8481344,39.4137113 C74.8481344,39.129068 74.9195364,38.9138253 75.0140686,38.9138253 C75.1075951,38.9138253 75.1810084,38.7800529 75.1810084,38.6140948 C75.1810084,38.2811727 76.1303533,36.9152868 76.3626611,36.9152868 C76.4441198,36.9152868 76.812192,36.7191544 77.1621623,36.4898304 C77.7655595,36.0955541 77.8610973,36.0794612 78.5268455,36.2534658 C79.1744917,36.4224413 79.5083715,36.6990383 80.9736208,38.2811727 C81.0842436,38.3998579 81.3235912,38.63924 81.5066216,38.8132446 C81.7369182,39.0315047 81.8394957,39.3543687 81.8394957,39.8542548 C81.8394957,40.4969655 81.7419465,40.6790165 80.9695982,41.4615344 M84.6332244,57.6781605 C84.3838203,58.2444298 83.4053112,59.2271032 83.0885278,59.2271032 C82.971871,59.2271032 82.8371123,59.3236607 82.7968858,59.4353053 C82.7506254,59.5640486 82.406689,59.6435073 81.8897788,59.6435073 C81.1415664,59.6435073 80.9937341,59.5771241 80.4265408,58.9776631 C79.6843623,58.1951453 79.4228902,56.9841537 79.9086249,56.5828367 C80.0544459,56.4631456 80.1751253,56.1966068 80.1751253,55.9964512 C80.1751253,55.0208184 81.8073145,54.4092878 83.2061902,54.8608951 C84.6865245,55.3396592 85.2074573,56.3655824 84.6332244,57.6781605 M88.4758584,55.7470111 C88.224443,55.2642237 88.0585087,54.7552854 88.1087918,54.6235246 C88.1641032,54.475671 87.9006198,54.1115689 87.4339927,53.6901358 C87.0176487,53.3149698 86.6676784,52.9005773 86.6676784,52.7839037 C86.6676784,52.2970931 85.9194659,51.4099713 85.419652,51.3063732 C85.1360553,51.2460248 84.7981529,51.0931421 84.6362414,50.9513233 C84.298339,50.6536045 82.2055566,50.7763129 81.4744405,51.1373976 C81.213974,51.2661409 80.7825451,51.4190236 80.4999541,51.484401 C80.2173631,51.5497785 79.7929738,51.703667 79.542564,51.8334161 C79.2931598,51.9631652 78.9643084,52.0677691 78.8023969,52.0677691 C78.641491,52.0677691 78.4172284,52.2166285 78.3025829,52.4006912 C78.1879374,52.5827423 78.0119466,52.7336133 77.9113804,52.7336133 C77.6659989,52.7336133 76.5125048,54.298649 76.5125048,54.6315711 C76.5125048,54.7814363 76.4400971,54.8971041 76.3455649,54.8971041 C76.253044,54.8971041 76.1796307,55.0972597 76.1796307,55.3477057 C76.1796307,56.0417125 76.0126908,56.1976126 75.0643517,56.3967624 C74.581634,56.4993547 74.1150069,56.6864348 74.007401,56.8202071 C73.9018065,56.9539794 73.7107308,57.0626066 73.5830117,57.0626066 C73.4492587,57.0626066 73.3496982,57.1340189 73.3496982,57.2295706 C73.3496982,57.3200932 73.2410867,57.3955287 73.1083393,57.3955287 C72.975592,57.3955287 72.7704369,57.4920862 72.6497575,57.6117772 C72.3168834,57.9457051 71.6672259,58.2605227 71.5515747,58.1448549 C71.4952577,58.0885297 71.5314615,57.8119328 71.6350447,57.5122023 C71.7346052,57.2205183 71.9156243,56.6210573 72.0342924,56.1875545 C72.1529605,55.7550575 72.3118551,55.3969902 72.3842628,55.3969902 C72.4596874,55.3969902 72.5180158,55.2561772 72.5180158,55.0721146 C72.5180158,54.8890577 72.5823782,54.710024 72.6668538,54.6597337 C72.8257483,54.5651878 73.0148128,54.0321101 73.3748397,52.6501313 C73.4713833,52.2840176 73.6161986,51.8525264 73.6986628,51.6926031 C73.7841441,51.5266449 73.8495121,51.3295068 73.8495121,51.2349609 C73.8495121,51.1444383 73.9943274,50.7431213 74.1652899,50.3609146 C74.3362525,49.9777022 74.5735887,49.3862876 74.6822002,49.0694584 C74.9275816,48.3533239 75.1739688,47.7397816 75.3700729,47.3545575 C75.4465032,47.2056981 75.5138825,46.9552522 75.5138825,46.8224856 C75.5138825,46.6907249 75.6084147,46.4221744 75.7130036,46.2562163 C75.8749151,46.0017471 75.9976059,45.9725787 76.3455649,46.1083627 C77.0103074,46.3678609 78.9934726,46.3598144 80.0091911,46.0952872 C80.5079994,45.9645323 81.1667079,45.6788831 81.4573442,45.4646462 C81.7570314,45.2453803 82.1321433,45.0743931 82.3151738,45.0743931 C82.4971986,45.0743931 82.6752007,44.975824 82.7224668,44.8490923 C82.7687273,44.7253781 83.0221541,44.579536 83.2886545,44.5252225 C83.6195172,44.4558218 83.8709327,44.2415849 84.0881557,43.8422795 C84.2591182,43.5264561 84.5789187,43.167383 84.7870907,43.0597617 C85.0797383,42.906879 85.1702478,42.7097408 85.1702478,42.2269535 C85.1702478,41.8769327 85.2446668,41.5500454 85.336182,41.4937202 C85.4287029,41.4384008 85.5031219,41.0692696 85.5031219,40.6699643 C85.5031219,40.2374673 85.6026824,39.8653187 85.7525261,39.7446218 C86.1175813,39.4509262 86.0693096,39.0134002 85.5886032,38.247981 C85.3583066,37.8808615 85.1702478,37.4765271 85.1702478,37.3487896 C85.1702478,37.2200463 85.0193986,37.0772217 84.8373738,37.0319604 C84.6292018,36.9796584 84.4632675,36.7483228 84.3958882,36.4154007 C84.3355485,36.1156702 84.1887218,35.8471197 84.0630141,35.7998468 C83.9463573,35.7565971 83.8377459,35.6157841 83.8377459,35.5081628 C83.8377459,35.3935008 83.4887812,34.9891664 83.0553409,34.6039423 C82.2829926,33.9179819 81.6735615,33.6464141 80.5079994,33.4724094 C80.1912159,33.4261423 79.7125208,33.2752713 79.4590941,33.1455222 C78.9602858,32.8880356 77.8802049,32.9886163 77.5895686,33.318521 C77.5010704,33.4201075 77.2788191,33.5126417 77.094783,33.5247114 C76.1635401,33.5910947 74.7706984,34.1231666 74.2326693,34.6220468 C72.8337936,35.9155146 72.1851417,36.6799279 72.1851417,37.0319604 C72.1851417,37.148634 72.1227907,37.2482089 72.0513887,37.2482089 C71.978981,37.2482089 71.8110355,37.5147477 71.6853278,37.8305711 C71.5586144,38.1474003 71.3916745,38.4139392 71.3182612,38.4139392 C71.1191401,38.4139392 71.1362364,41.2000246 71.3353574,41.3247446 C71.4248613,41.380064 71.4570425,41.5440105 71.4047481,41.6777829 C71.3011649,41.9463333 71.7346052,42.6876131 72.2334135,43.0899359 C72.5351121,43.3333412 72.5481857,43.4339219 72.3671665,44.1500565 C72.258555,44.5825535 71.9447885,45.38217 71.6772825,45.9152477 C71.4077651,46.4483254 71.1855138,47.1232219 71.1855138,47.4048479 C71.1855138,47.6874796 71.0648344,48.1541741 70.9190134,48.4368058 C70.7731924,48.7204434 70.6153035,49.1871379 70.5690431,49.4697696 C70.5237883,49.7524014 70.3548371,50.1738345 70.1949369,50.4031585 C70.0350366,50.6314767 69.6639474,51.567883 69.3712998,52.4841732 C69.0776465,53.3994575 68.7367272,54.2835619 68.6140364,54.4485142 C68.4068701,54.7241053 68.3545756,54.673815 67.9563335,53.8068094 C67.7179917,53.2918362 67.5228933,52.7607701 67.5228933,52.6330326 C67.5228933,52.5032835 67.4414347,52.2669189 67.3398628,52.1009607 C67.1940418,51.8625845 67.2282343,51.6594114 67.505797,51.1102408 C67.7008954,50.7270284 67.8557674,50.2341829 67.8557674,50.0028473 C67.8557674,49.7695001 67.9291807,49.5411819 68.0227072,49.4848567 C68.3123378,49.3078347 68.1966867,48.2879464 67.7582181,47.1554077 C67.4746215,46.4221744 66.8480942,45.6517263 66.4237048,45.5139307 C66.1572044,45.4274313 65.8444436,45.2192293 65.7247698,45.0492479 C65.6081131,44.8822839 65.3979297,44.741471 65.2671937,44.741471 C65.1344463,44.741471 65.0248292,44.6660354 65.0248292,44.5755128 C65.0248292,44.4799611 64.9262743,44.4085489 64.7925213,44.4085489 C64.6688249,44.4085489 64.4666868,44.2908694 64.359081,44.1581029 C64.2524809,44.0243306 63.9437427,43.907657 63.6933329,43.907657 C63.4439287,43.907657 63.1965359,43.8161285 63.1613377,43.7085072 C63.1251339,43.5988742 62.7278975,43.4892413 62.2783666,43.4661077 C59.5982777,43.3263005 59.0924298,43.391678 57.7005937,44.0545048 C56.7673395,44.4980657 56.3640691,44.8480865 56.0392403,45.4907972 C55.8954307,45.7734289 55.7425701,46.0238749 55.686253,46.0681304 C55.338294,46.3427157 54.5377871,48.0053146 54.5377871,48.4539046 C54.5377871,48.7445828 54.4653795,49.2364224 54.3798982,49.5361529 C54.2079301,50.1356139 54.558906,51.5014997 54.9702218,51.8303986 C55.0959295,51.9319851 55.2035353,52.2005356 55.2035353,52.4167841 C55.2035353,52.8010024 55.6027831,53.2465749 57.167593,54.6024027 C57.4672802,54.8619009 57.7730014,55.0640681 57.866528,55.0640681 C57.9670941,55.0640681 58.0334678,55.1244165 58.0334678,55.2149392 C58.0334678,55.4603561 60.3806826,55.9552131 61.6126184,55.9682886 C62.2612703,55.9753292 63.1874849,55.9210157 63.7023838,55.8475918 L64.6265871,55.7138194 L64.9172234,56.7628761 C65.0791349,57.3452384 65.2863013,57.95174 65.3838505,58.1277562 C65.4793883,58.2997492 65.7066679,58.7101184 65.8826588,59.0269476 C66.1692724,59.540915 66.185363,59.7088848 66.0164118,60.4592168 C65.9108173,60.9249054 65.756951,61.4358554 65.6754924,61.5917555 C65.5960451,61.7416207 65.5678866,61.9840202 65.6161584,62.1077345 C65.6664414,62.2344661 65.5950395,62.6740038 65.4582694,63.0733092 C65.3214994,63.4736204 65.1937804,64.1082846 65.1756785,64.4723867 C65.1565709,64.8385004 65.0741066,65.2237245 64.992648,65.3293342 C64.9101837,65.434944 64.8196742,65.77893 64.7925213,66.0947534 C64.7653684,66.4115826 64.6899438,66.7555686 64.6265871,66.8611783 C64.5652417,66.9607532 64.5622247,67.1357636 64.6175361,67.227292 C64.6768702,67.3228437 64.6034568,67.5853593 64.4596472,67.8016078 C64.3148319,68.0178563 64.1931468,68.3698888 64.1931468,68.5680328 C64.1931468,68.9100071 63.948771,69.9671103 63.7355707,70.5494725 C63.6842819,70.6862623 63.4077249,71.5240995 63.1190999,72.4051864 L62.5951501,74.012466 L61.9877303,73.0720365 C61.6528449,72.5540459 61.1852121,71.6820112 60.9468703,71.1318348 C60.7085284,70.5826642 60.4581186,70.0204181 60.3907393,69.8836283 C60.1936295,69.4833171 60.159437,68.3920165 60.3354279,68.1687274 C60.6150019,67.8166949 60.7024944,67.0854733 60.5214753,66.6197846 C60.4128638,66.336147 60.4098468,66.1088347 60.5144357,66.0032249 C60.6210358,65.8976152 60.5868433,65.6964538 60.4219148,65.4460079 C60.2801165,65.2297594 60.2127371,65.0547489 60.2730768,65.0547489 C60.3334165,65.0547489 60.2539692,64.8385004 60.0890407,64.5548629 C59.9241121,64.2722311 59.7440987,64.0559826 59.6737023,64.0559826 C59.606323,64.0559826 59.2895395,63.7894437 58.9828126,63.4736204 C58.6750801,63.1557853 58.336172,62.8902523 58.2416398,62.8902523 C58.1450963,62.8902523 57.9811734,62.7816251 57.8755789,62.6478528 C57.7730014,62.5181037 57.4421386,62.3571746 57.1595477,62.2988378 C56.8769567,62.240501 56.5320146,62.0876183 56.4103296,61.9659157 C56.2876388,61.8432072 55.8692835,61.6561271 55.4861263,61.5515232 C54.2380999,61.2155837 50.9415403,61.9045614 50.448766,62.6066147 C49.4441098,64.0388839 48.7843956,65.2126606 48.3710685,66.3029554 C48.0743983,67.0854733 47.9004188,68.2109713 48.0613247,68.3095404 C48.1397663,68.3578191 48.2111683,68.550934 48.2111683,68.7168922 C48.2111683,69.0588666 48.6154444,69.5838978 49.8936406,70.8984876 C50.6368247,71.6639067 51.623379,72.235205 52.6230069,72.4765987 C52.9066036,72.5449936 53.2083022,72.6646846 53.3219419,72.7531956 C53.6085556,72.9774906 55.4358432,73.0408564 56.1689707,72.8527705 C57.5507501,72.4967149 57.4793481,72.485651 57.5939936,73.0800829 C57.6513163,73.3798134 57.711656,73.7197762 57.7257353,73.8294091 C57.7388089,73.9400479 57.925862,74.0708028 58.1420793,74.1210932 C58.4417665,74.1914996 58.5322761,74.3292952 58.5322761,74.7115019 C58.5322761,74.9951394 58.5976441,75.2113879 58.6831254,75.2113879 C58.9124163,75.2113879 60.1976522,78.0920191 60.1976522,78.6079981 C60.1976522,78.7578634 60.2670428,78.874537 60.3565468,78.874537 C60.445045,78.874537 60.6300868,78.9902048 60.7809361,79.1410758 C61.084646,79.4458354 61.013244,80.0734589 60.6300868,80.4556656 C60.5013621,80.5854147 60.3454845,81.0641788 60.2811221,81.5308732 C60.2157541,81.9965619 60.0980917,82.3717279 60.0146217,82.3717279 C59.9321574,82.3717279 59.8647781,82.5628312 59.8647781,82.7961784 C59.8647781,83.0275141 59.7591836,83.4690633 59.6314645,83.7687938 C59.5047511,84.0685243 59.3458566,84.7102291 59.2824999,85.1769236 C59.2191432,85.643618 59.112543,86.0338711 59.0491863,86.0338711 C58.9858296,86.0338711 58.913422,86.3094623 58.8912974,86.6423844 C58.8681672,86.9753065 58.7786633,87.3846699 58.6911707,87.5496223 C58.6026724,87.7165862 58.5322761,88.0072645 58.5322761,88.2064142 C58.5322761,88.4065698 58.3934948,88.8320262 58.2175039,89.1649483 C57.8323354,89.8971758 57.5336539,90.7973731 57.5336539,91.2288643 C57.5336539,91.5285947 58.693182,92.8502251 58.9828126,92.8803993 C59.0582373,92.8884458 59.3317773,92.9296839 59.615374,92.9749452 C60.1815616,93.0664736 61.6075901,92.8884458 61.4627748,92.7436096 C61.4064578,92.6872844 61.4567408,92.4941694 61.5794316,92.2950197 C61.6991054,92.1019047 61.8931981,91.4038747 62.0118662,90.7380304 C62.13154,90.0721862 62.2964685,89.489824 62.3789328,89.4395336 C62.4593857,89.3892433 62.5287764,89.0472689 62.5287764,88.6982539 C62.5287764,88.348233 62.6052067,88.0022354 62.6947106,87.9489277 C62.7872315,87.8936083 62.8616505,87.6079591 62.8616505,87.3082286 C62.8616505,87.0165446 63.0145111,86.467374 63.1945246,86.1173531 C63.3735324,85.7683381 63.5273986,85.2181617 63.5273986,84.9274835 C63.5273986,84.627753 63.600812,84.341098 63.6933329,84.2857786 C63.7858537,84.2294534 63.8602727,83.9860481 63.8602727,83.736608 C63.8602727,83.4690633 63.9960371,83.2025245 64.1931468,83.0788102 C64.421432,82.9359856 64.5260209,82.6875513 64.5260209,82.2882459 C64.5260209,81.9714167 64.5954116,81.5721113 64.6758645,81.4141996 C64.7593344,81.2522647 64.9262743,80.9062671 65.0499707,80.6397283 C65.3506636,79.9899769 65.9872476,79.3422372 66.607741,79.0555822 C66.8802753,78.9288506 67.4645649,78.6442072 67.8980051,78.4249413 C68.3284284,78.207687 69.1631278,77.9532178 69.7283098,77.8667184 C70.2955031,77.7812248 70.9361097,77.6213015 71.1362364,77.5177034 C71.4570425,77.3497336 71.5837559,77.4090762 72.1760908,78.0085372 C72.5542196,78.3917496 72.8508899,78.8051363 72.8508899,78.9489667 C72.8508899,79.0998378 72.9584957,79.2074591 73.1083393,79.2074591 C73.2501376,79.2074591 73.7328553,79.3945392 74.1823862,79.6238632 C74.6319171,79.8531872 75.1397763,80.0392615 75.3147615,80.0392615 C75.4806957,80.0392615 75.6818281,80.0915634 75.7391508,80.1488944 C75.7994905,80.2082371 76.2128175,80.3792242 76.6794446,80.5371359 C77.6287894,80.8569826 79.7034699,80.807698 80.5743731,80.4456075 C81.1908438,80.1891267 82.5062495,78.9379028 82.5062495,78.6079981 C82.5062495,78.4752316 82.5776515,78.3746509 82.6721837,78.3746509 C82.7657103,78.3746509 82.8391236,78.2167392 82.8391236,78.0175894 C82.8391236,77.816428 82.9980182,77.5227324 83.1971392,77.3507394 C83.5259907,77.0681076 83.5531435,76.8930972 83.5390643,75.2113879 C83.5290077,74.1452325 83.5913587,73.3798134 83.6879022,73.3798134 C84.0278159,73.3798134 83.7975194,72.897026 83.0131031,71.964643 C82.5515043,71.4144665 82.0788432,70.7596862 81.9652034,70.5082344 C81.8515637,70.2577885 81.6242841,70.0495865 81.4653895,70.0495865 C81.2994553,70.0495865 81.1737476,69.9570522 81.1737476,69.833338 C81.1737476,69.556741 80.241499,68.6887296 79.6089377,68.3759236 C79.0598463,68.1033499 76.9851658,68.0761931 76.6462578,68.3356913 C76.5255784,68.4272198 76.0046455,68.5901605 75.4726504,68.7007993 C74.9396496,68.8124439 74.5152603,68.9703556 74.5152603,69.0588666 C74.5152603,69.1423486 74.3654167,69.2177841 74.1994825,69.2177841 C74.019469,69.2177841 73.665476,69.3978235 73.382885,69.6341882 C73.100294,69.869547 72.8398276,70.0495865 72.7835105,70.0495865 C72.5984687,70.0495865 71.6078918,71.1318348 71.3675386,71.5985292 C71.2388139,71.8479694 71.0728797,72.0481249 70.9944381,72.0481249 C70.9190134,72.0481249 70.8516341,72.1637927 70.8516341,72.2975651 C70.8516341,72.4303316 70.7741981,72.5470052 70.6856999,72.5470052 C70.596196,72.5470052 70.5308279,72.855788 70.5449072,73.2219017 C70.5579808,73.5880154 70.5016637,73.9571466 70.4202051,74.0315763 C70.239186,74.1935113 68.2057377,74.7919664 67.2895797,74.9518897 L66.6570184,75.0615227 L66.7736752,74.3453881 C66.8390432,73.9460827 66.9557,73.5518064 67.0401756,73.4542431 C67.1316908,73.3466218 67.1105719,73.1967565 66.9818472,73.06399 C66.8219469,72.897026 66.8219469,72.8276254 66.9818472,72.7642595 C67.0964926,72.7179924 67.1900192,72.5057671 67.1900192,72.2885128 C67.1900192,72.0722643 67.2644382,71.8540042 67.3569591,71.797679 C67.4484743,71.7423596 67.5228933,71.4818556 67.5228933,71.2153168 C67.5228933,70.9487779 67.5973122,70.6872681 67.6898331,70.6329545 C67.7833597,70.5756235 67.8557674,70.3915608 67.8557674,70.2074982 C67.8557674,70.0294703 67.9301863,69.7327573 68.0227072,69.5507062 C68.1142225,69.3666435 68.2600434,69.0789827 68.3465303,68.9090013 C68.4501135,68.7098515 68.4350286,68.5308179 68.3052982,68.4010688 C68.1554546,68.2522094 68.1514319,68.1717448 68.2892076,68.0852454 C68.3887681,68.0208738 68.5174929,67.5521677 68.5728043,67.0522816 C68.6824214,66.0525095 68.7035403,65.9529346 68.9971936,64.9380753 C69.1229013,64.5055783 69.3029148,64.2219408 69.4547697,64.2219408 C69.7554626,64.2219408 70.2693558,63.9232161 70.8194529,63.4303707 C71.0527664,63.2211628 71.2981479,63.0572163 71.3765896,63.0572163 C71.4520142,63.0572163 71.5183879,62.9395368 71.5183879,62.8067703 C71.5183879,62.6709864 71.7265599,62.4316043 71.9769697,62.2827449 C72.2253682,62.1328796 72.8247427,61.7536904 73.2913698,61.4499367 C73.7579969,61.146183 74.2588165,60.8917138 74.3905582,60.8917138 C74.5233056,60.8917138 74.6842115,60.8394118 74.7475682,60.7750402 C74.8119305,60.7126802 75.2141953,60.5266059 75.6305393,60.3697 C76.4622217,60.0538766 76.8453788,60.171556 76.8453788,60.7418486 C76.8453788,60.9289287 77.1953492,61.2477695 77.7776274,61.5917555 C78.2945376,61.8955092 78.902963,62.2575997 79.1433162,62.4014301 C79.8181153,62.8087819 81.7067483,63.1145473 82.7556537,62.985804 C83.2665299,62.9234439 84.1213425,62.6961315 84.6865245,62.4728424 C85.6851467,62.0795719 87.1493904,61.1139972 87.1614583,60.8414235 C87.1644753,60.7589473 87.3917549,60.4089265 87.6673063,60.0589056 C87.9428576,59.7088848 88.1661146,59.3518233 88.1661146,59.2602949 C88.1661146,59.170778 88.2827713,58.9997909 88.4155187,58.8941811 C88.5472604,58.7885714 88.6659285,58.5441603 88.6659285,58.3771963 C88.6659285,58.2112382 88.7524154,58.0613729 88.848959,58.0613729 C89.1717764,58.0613729 88.9444969,56.6462025 88.4758584,55.7470111" id="Fill-1"></path>
                <path d="M35.5382943,45.6193005 C34.9056747,45.0323325 34.5114046,44.8413191 33.6255385,44.6950745 C33.0594581,44.6015576 32.8340191,44.6503058 32.5013228,44.9418001 C32.2709181,45.142762 31.9034624,45.3059193 31.6780234,45.3059193 C31.4476188,45.3059193 31.224166,45.3825236 31.1645786,45.4820097 C31.1059843,45.5805009 30.8726003,45.6600898 30.6421956,45.6600898 C30.3939148,45.6600898 29.9251605,45.9466098 29.4822274,46.3694258 C29.0750468,46.7584165 28.626155,47.0787617 28.4910902,47.0787617 C28.3490736,47.0787617 28.2428094,47.1852119 28.2428094,47.327477 C28.2428094,47.4687473 28.175277,47.6020587 28.0839096,47.6368788 C27.9955216,47.671699 27.8972024,47.814959 27.8624431,47.9572241 C27.8286769,48.0965047 27.5784098,48.4078962 27.3132458,48.6396988 C27.0480818,48.8724963 26.8266153,49.1460831 26.8266153,49.2435795 C26.8266153,49.3410759 26.5902519,49.7032053 26.2952942,50.0583708 C25.7053789,50.7687016 25.6467846,50.8293881 25.0737524,51.3516902 C24.6834549,51.7068556 24.5334932,52.9325245 24.8791002,52.9325245 C25.2207347,52.9325245 25.0389931,53.3782223 24.4709264,53.9263907 C23.7459463,54.6287627 23.3516763,54.7740124 23.2245565,54.3870114 C23.1709278,54.2218645 22.9514475,53.6408656 22.7418985,53.1096098 C22.2383849,51.8322081 22.1301344,49.9379926 22.5412876,49.6285908 C22.7011804,49.5082126 22.9683306,49.3967881 23.1083611,49.3898241 C23.3923944,49.375896 24.3477791,48.6068684 24.3477791,48.3909835 C24.3477791,48.3243278 24.6397574,47.8239127 24.9923163,47.291662 C25.8235606,46.0321679 27.499953,44.3986059 28.473214,43.9001805 C28.738378,43.7648794 28.9946038,43.510195 29.0492256,43.3271405 C29.1018611,43.1510501 29.2240153,42.9988364 29.3133964,42.9988364 C29.4107225,42.9988364 29.4822274,42.8933811 29.4822274,42.7511159 C29.4822274,42.6098457 29.5845192,42.4188323 29.7215702,42.3074079 C29.8506762,42.2009578 30.0572459,41.7851058 30.1734414,41.3941254 C30.2886437,41.0041398 30.5091171,40.5385448 30.6560994,40.3743928 C31.3711483,39.5765142 31.7842876,38.9915358 31.7842876,38.7776407 C31.7842876,38.6512933 32.0136991,38.2105699 32.2917737,37.8026768 C32.9581596,36.8267181 33.0674031,36.1701097 32.7019337,35.337411 C32.4179004,34.6937359 32.1378396,34.5037174 31.2539597,34.3564779 C29.8536556,34.1216907 27.7104952,34.3624471 27.3996475,34.7872528 C27.0133225,35.3135343 26.542582,35.7950471 25.9586254,36.2636267 C25.6587021,36.5043831 25.4104212,36.7829442 25.4104212,36.8804406 C25.4104212,36.9769421 25.2515215,37.157012 25.0558762,37.2793799 C24.861224,37.4007529 24.7023242,37.6206172 24.7023242,37.7668618 C24.7023242,37.909127 24.6357849,38.0334846 24.5603076,38.0334846 C24.3189786,38.0334846 23.236474,40.3743928 23.2066803,40.9593711 C23.1907903,41.260814 23.1172992,41.6219486 23.0378493,41.7930647 C22.9583994,41.9611962 22.9822344,42.3611304 23.0924711,42.6973934 C23.3149307,43.3838476 23.0557255,44.0732863 22.311876,44.7686943 C22.0635952,44.999502 21.868943,45.2780631 21.868943,45.4024208 C21.868943,45.5208093 21.7448025,45.6710333 21.603779,45.7237609 C21.1787222,45.8839336 20.7824659,45.6342234 20.8271565,45.2342893 C20.8996545,44.5776809 20.6007243,43.3350994 20.3464847,43.2366082 C20.2153924,43.1868651 20.0982038,42.9819237 20.0982038,42.8048384 C20.0982038,42.413858 19.7287619,41.5344008 19.496371,41.3702487 C19.2977463,41.2309682 19.496371,40.9593711 19.7972874,40.9593711 C19.9075241,40.9593711 20.1031695,40.7295582 20.2481655,40.4271204 C20.3941546,40.1266724 20.5788756,39.74962 20.6732223,39.5586067 C21.064513,38.775651 21.6027859,37.873312 22.2483161,36.9162556 C22.6197443,36.3660974 22.9315851,35.8238981 22.9315851,35.7273965 C22.9315851,35.45182 23.6575583,34.8568931 24.3835316,34.5345581 C24.7549598,34.370406 25.0558762,34.1783978 25.0558762,34.1047781 C25.0558762,34.0301635 25.4451806,33.7217566 25.9417423,33.4043959 C26.4373109,33.0860403 26.8266153,32.7308749 26.8266153,32.5965687 C26.8266153,32.472211 26.9110308,32.357802 27.0033913,32.357802 C27.1007174,32.357802 27.1811604,32.1976294 27.1811604,32.0026366 C27.1811604,31.8086387 27.4085856,31.2664394 27.6856671,30.8048238 C27.9637417,30.3412185 28.2835274,29.5721909 28.3997229,29.0936627 C28.6480037,28.0649763 29.3799357,26.4523065 29.7295152,26.1637968 C30.074129,25.8802613 29.9728304,24.9251947 29.5040762,24.0208659 C29.0661087,23.1772237 26.9865082,22.6519371 25.9765016,23.1314601 C24.0826152,24.0288248 23.4629061,24.4496511 23.4629061,24.836652 C23.4629061,24.9510611 23.3387657,25.0953159 23.196749,25.1480436 C23.0477805,25.2027609 22.9315851,25.3698976 22.9315851,25.5290754 C22.9315851,25.7777907 22.6117993,26.4692191 22.400264,26.6821194 C22.1917081,26.8910402 21.868943,27.5675458 21.868943,27.7993484 C21.868943,27.9356444 21.7090501,28.1903288 21.515391,28.3664192 C21.3207388,28.5415148 21.1598528,28.890711 21.1598528,29.1384315 C21.1598528,29.4179874 20.9304413,29.801009 20.5590131,30.1402566 C19.9909465,30.6585792 19.9601597,30.7431424 20.0276921,31.6295637 C20.0664239,32.1449017 20.1379288,32.6343734 20.1865918,32.7119725 C20.236248,32.7905666 20.0932382,33.1914956 19.8628336,33.6172961 C18.6065324,35.9402968 18.4237977,36.2596472 18.3453409,36.2576575 C18.1675718,36.2546729 17.275747,33.9356517 17.3651281,33.7048439 C17.4177636,33.5695428 17.3412931,33.0930043 17.1943108,32.6502912 C17.0493148,32.2065831 16.8894219,31.6594095 16.8407589,31.4345709 C16.7920958,31.2137117 16.6669623,30.7431424 16.5656637,30.4058845 C16.4067639,29.8746287 16.423647,29.7612145 16.6818591,29.6090008 C17.4803304,29.1394263 18.0861357,28.1883391 18.3870521,26.9298398 C18.4128733,26.8243845 18.5727662,26.5219468 18.7346453,26.2742263 C18.8965245,26.0255111 19.0365549,25.7310322 19.0365549,25.6355255 C19.0365549,25.2803601 19.6691745,24.3820005 19.8687923,24.4566151 C19.9859809,24.4993941 20.1756675,24.4198052 20.292856,24.278535 C20.4110377,24.1362698 20.5927793,24.0357889 20.7010298,24.0536964 C21.0893411,24.1203521 21.868943,23.6010346 21.868943,23.275715 C21.868943,23.1006194 22.0278427,22.8568784 22.223488,22.7355054 C22.4181402,22.6131375 22.57704,22.3703914 22.57704,22.194301 C22.57704,22.0182105 22.7091254,21.671004 22.8690183,21.4232836 C23.0289112,21.1745683 23.1888041,20.7229014 23.2235634,20.4204636 C23.2573296,20.1190207 23.36558,19.7907165 23.4629061,19.6932201 C23.5612254,19.5947289 23.6396821,19.2763733 23.6396821,18.9749304 C23.6396821,18.6734875 23.7578638,18.0526942 23.9048461,17.574166 C24.0538146,17.0946429 24.1322713,16.6469554 24.0826152,16.5623922 C24.0289865,16.4718599 24.0637458,16.3693892 24.1710032,16.3057181 C24.2653499,16.249011 24.3477791,15.8799175 24.3477791,15.5068446 C24.3477791,15.1347666 24.4292153,14.7636834 24.5245551,14.7039917 C24.7589322,14.5567523 24.7430423,13.8046373 24.4937683,13.1132088 C24.338841,12.6844237 24.0637458,12.4566005 23.2503777,12.080543 C21.957331,11.4836263 21.1906396,11.4816366 19.9393041,12.0705944 C18.6462573,12.6794494 18.3274647,12.975918 18.3274647,13.5738295 C18.3274647,13.8404523 18.2460286,14.1200082 18.1506887,14.1777102 C18.0553489,14.2344173 17.9729196,14.4970606 17.9729196,14.744781 C17.9729196,15.2412167 17.2628364,16.9265114 17.0532873,16.9265114 C16.9758237,16.9265114 16.9112706,17.244867 16.9112706,17.6358474 C16.9112706,18.0268278 16.8516832,18.3451833 16.7781921,18.3451833 C16.704701,18.3451833 16.657031,19.0724268 16.6719279,19.9777504 C16.6947697,21.4670575 16.4008052,23.0309791 16.0432807,23.3155094 C15.9866727,23.361273 15.7999655,23.683608 15.6361001,24.0208659 C15.4126473,24.4824815 15.3331975,24.550132 15.3262456,24.2874887 C15.3222731,24.0875216 15.201112,23.7114641 15.0521435,23.4269339 C14.903175,23.1433984 14.7859864,22.7305311 14.7859864,22.4867901 C14.7859864,22.2520029 14.6280798,21.706819 14.4413726,21.298926 C14.2526791,20.8870535 13.9964533,19.9857093 13.8752922,19.3121883 C13.753138,18.6376725 13.6051626,18.0427456 13.5465684,17.9989717 C13.4283867,17.9094342 13.2694869,17.352312 13.0668897,16.3057181 C13.0073023,16.0032803 12.9050106,15.7346678 12.8305263,15.6849248 C12.7580283,15.6361766 12.5335824,15.3028981 12.3349577,14.9487275 L11.9714745,14.3020678 L12.5822455,13.6534184 C12.9169281,13.2992478 13.2009614,12.8704627 13.2108926,12.7053157 C13.2198307,12.5391739 13.2555832,12.0845224 13.2913356,11.693542 C13.3251018,11.299577 13.3916411,10.4877703 13.4403041,9.86697702 C13.5823208,8.05831953 13.753138,7.0923094 13.9547421,6.96994148 C14.0888138,6.88836287 14.0927863,6.78091787 13.9676527,6.6217401 C13.6657432,6.23573399 13.3380124,4.17338692 13.463146,3.44614345 C13.5733827,2.81042721 13.5227334,2.68407985 12.8364851,1.86729888 C11.7758292,0.608799584 10.615861,-0.110484994 9.84718346,0.0138726438 C9.51051461,0.0685900045 9.13511394,0.220803753 8.99607666,0.360084308 C8.85505312,0.501354585 8.6762909,0.608799584 8.57995792,0.608799584 C8.47965246,0.608799584 8.41311318,0.675455278 8.41311318,0.77693111 C8.41311318,0.870448054 8.17575668,1.20273166 7.88079901,1.52208208 C7.58683446,1.84143249 7.35047108,2.20057735 7.35047108,2.32891443 C7.35047108,2.57663485 6.99890537,3.28995026 6.8012738,3.44116915 C6.73274828,3.49290192 6.53213735,3.8898515 6.34940263,4.33355956 C6.07629368,5.00111136 6.02365813,5.60996635 6.03061,8.05831953 C6.03557561,9.67198424 6.10410113,11.3990631 6.18355101,11.9064423 C6.42785938,13.4643948 7.81028724,14.7149352 9.65253126,15.0422445 L10.2722403,15.1526741 L10.2096735,16.4917571 C10.1689555,17.3781784 10.2225841,17.9203777 10.3685733,18.0974629 C10.4917206,18.2447024 10.6029504,18.8157526 10.6168541,19.3828235 C10.631751,19.9498943 10.776747,20.6661943 10.9445849,20.9964882 C11.1074571,21.3188232 11.2455013,21.9814007 11.2455013,22.4420214 C11.2455013,22.9036369 11.3179993,23.3383912 11.4044011,23.3911189 C11.4937822,23.4458362 11.6030257,23.7820993 11.6526819,24.1541773 C11.7023381,24.5272502 11.7956917,25.0346294 11.8652103,25.3072213 C11.9694883,25.7151144 11.9307565,25.7947033 11.6357988,25.7947033 C11.3497793,25.7947033 10.784692,25.3659182 9.73992613,24.3521547 C9.64260003,24.256648 9.3069243,23.9353079 8.98813167,23.6308804 C8.66933904,23.3264529 8.41311318,22.9941693 8.41311318,22.8857294 C8.41311318,22.6399987 7.91754458,22.0958097 7.35047108,21.7217419 C6.48248117,21.1467122 5.22617999,20.1050926 5.22617999,19.9588481 C5.22617999,19.6962047 3.66697616,19.0545193 3.03038402,19.0545193 C2.69371516,19.0545193 2.22396777,19.1291339 2.00250123,19.2176765 C1.50693263,19.4166488 0.588293424,20.2085582 0.710447609,20.331921 C0.758117536,20.3806692 0.665757054,20.8373104 0.5068573,21.3337461 C0.217858372,22.2380748 0.218851496,22.251008 0.595245288,22.5753328 C0.807773709,22.7583872 0.975611574,22.9941693 0.975611574,23.1075834 C0.975611574,23.2140336 1.06102019,23.31153 1.15338067,23.31153 C1.24872053,23.31153 1.37981282,23.5423377 1.43840711,23.8079657 C1.55063006,24.3233037 3.35910788,26.1498687 3.75536414,26.1498687 C3.97881692,26.1498687 4.18141411,26.2314473 4.99478223,26.6502838 C5.21922813,26.7646929 5.65024371,26.8592047 5.95116012,26.8592047 C6.44672873,26.8592047 8.7229677,27.8301891 8.94344111,28.1366063 C8.99309729,28.2052517 9.42212662,28.3614449 9.91769523,28.4907769 C10.4132638,28.6201088 10.8422932,28.7683431 10.8919493,28.8280348 C10.9386261,28.8857367 11.3517655,28.991192 11.7946986,29.0588426 L12.6090598,29.1832002 L12.9894261,30.8495926 C13.1999683,31.7718288 13.3707855,32.7428132 13.3707855,33.0223692 C13.3707855,33.3059046 13.4383179,33.5983938 13.5257128,33.6879313 C13.7670418,33.9356517 13.914024,35.5224552 13.7074544,35.6497974 C13.5068434,35.774155 12.6616954,35.4597789 11.7768223,34.9354871 C10.9972204,34.4728767 9.41219539,33.9147596 9.08545777,33.9883793 C8.94642048,34.0182252 8.51838427,33.7317052 8.11219677,33.3327659 C6.41196941,31.6733376 5.15964072,30.7610499 4.92129109,31.0087703 C4.87461429,31.0575185 4.6591065,31.0296624 4.44558495,30.9480838 C3.86162836,30.7232452 1.32419791,31.2584805 0.834588042,31.7091526 C0.231762101,32.2632902 -0.150590432,33.045251 0.0569723713,33.2969509 C0.154298471,33.4153393 0.319156965,33.8381553 0.427407423,34.2460484 C0.564458461,34.764371 0.950783487,35.3185086 1.72839916,36.1173821 C2.71059826,37.1251764 3.00356968,37.3102206 4.33137575,37.7668618 C5.14573699,38.0474126 6.27889086,38.2981176 6.81915003,38.31702 C7.3683473,38.3369172 8.1261005,38.417501 8.51838427,38.4970899 C9.35062173,38.6672111 9.62373068,38.6264218 9.95940641,38.281205 C10.1500861,38.0862122 10.2841578,38.0702944 10.4668925,38.2215133 C10.6893522,38.4075524 12.6616954,38.8403169 14.042137,39.0054639 C14.6807154,39.0820682 15.120669,39.5088636 15.144504,40.0729499 C15.152449,40.2679426 15.2825482,40.7474657 15.4335029,41.1374512 C15.5834646,41.5274368 15.7751374,42.1651428 15.8585598,42.5561232 C15.9429753,42.9530727 16.0988957,43.6554447 16.2121117,44.1518804 C16.5477875,45.6063673 16.5636774,45.5715472 15.6013408,45.5436911 C15.1226553,45.529763 14.5665062,45.4332615 14.3619227,45.3307908 C13.8663541,45.0800858 11.4341948,44.598573 11.1749895,44.6980591 C11.065746,44.7398433 10.4837756,44.3399091 9.86406656,43.7977098 C9.24435752,43.2555105 8.5958479,42.8217511 8.40417507,42.8217511 C8.20852975,42.8217511 8.05856811,42.7600697 8.05856811,42.6804808 C8.05856811,42.4775291 6.81915003,42.11341 6.12892922,42.11341 C5.82701969,42.11341 5.57973195,42.0328262 5.57973195,41.9353298 C5.57973195,41.8348489 5.4297703,41.7582446 5.23412498,41.7582446 C5.03947278,41.7582446 4.78821255,41.6577636 4.6591065,41.5274368 C4.53099357,41.4000946 3.91525702,41.2130607 3.27866488,41.11059 C2.26865832,40.9474328 2.04719179,40.9633505 1.48111142,41.2439014 C1.12656634,41.4180021 0.798835598,41.5264419 0.755138165,41.4836629 C0.712433856,41.439889 0.5873003,41.5095293 0.483022337,41.6338869 C0.197995903,41.977114 0.168202199,43.3549966 0.427407423,44.240423 C0.727330708,45.2691094 1.3450535,46.5475059 1.54268507,46.5475059 C1.61816245,46.5475059 1.68470173,46.6708687 1.68470173,46.8131338 C1.68470173,46.9573887 1.8783608,47.1563609 2.10975857,47.2478881 C2.33917009,47.3394154 2.58645783,47.5015777 2.64902461,47.6020587 C2.71258451,47.7055242 3.29554798,48.0348233 3.95001634,48.3382559 C4.97789913,48.8137995 5.2559737,48.8715015 6.02167189,48.7640565 C6.50929551,48.695411 7.3852304,48.6118427 7.97018012,48.5780174 C8.55413671,48.5431973 9.28308934,48.4675878 9.58996449,48.4098859 C9.89088089,48.3511891 10.197756,48.3840195 10.2573435,48.480521 C10.4102845,48.7282415 11.9535983,48.7282415 11.9535983,48.480521 C11.9535983,48.3571583 12.1313674,48.3263176 12.4312907,48.3969527 C12.9665843,48.5223052 13.1930164,48.552151 15.1405315,48.7620667 C15.8665048,48.8406608 16.6292236,48.925224 16.8228827,48.9500955 C17.0175349,48.974967 17.2648226,49.0008334 17.3720799,49.0077974 C17.5637528,49.0227203 17.7633706,49.5082126 17.9242566,50.3608085 C17.9610021,50.5558013 18.0672664,50.7905885 18.1596268,50.8831106 C18.2539736,50.9786173 18.3274647,51.3705925 18.3274647,51.7784856 C18.3274647,52.1774249 18.4565708,52.8877557 18.611498,53.3493713 C18.7654322,53.809992 18.8498476,54.239772 18.7972121,54.2984688 C18.7445766,54.354181 18.8140952,54.6785057 18.9471737,54.998851 C19.0812454,55.3172065 19.1378535,55.5917882 19.0713142,55.5917882 C19.0067612,55.5917882 19.045493,55.6564542 19.1507641,55.7250996 C19.2649733,55.7997142 19.3811687,56.0534038 19.4169211,56.302119 L19.4784948,56.7458271 L16.7781921,56.753786 L14.0788825,56.7627397 L13.237707,55.9648611 C12.7768977,55.5281171 12.3150953,55.0068099 12.2177692,54.8118171 C11.9575708,54.2964791 9.98820699,53.3334535 8.94443424,53.2110856 C8.79745196,53.1941729 8.35948452,53.0369849 7.97018012,52.8608945 C7.58087572,52.6857989 7.10219021,52.4728986 6.90753801,52.3883355 C6.46460495,52.1953324 3.04726712,52.2779059 2.23290588,52.5017496 C1.70357107,52.6460045 1.60425873,52.7723518 1.41059965,53.5533178 C1.28645922,54.0497535 1.22885806,54.6506496 1.27950735,54.9192621 C1.38080595,55.4505179 2.13061416,56.302119 2.49806984,56.302119 C2.62518964,56.302119 2.89134673,56.5329268 3.09096455,56.8164622 C3.71464608,57.7028835 4.41479812,58.3415843 5.137792,58.6818268 C5.52610328,58.8648812 5.9799607,59.081761 6.14581232,59.1613499 C6.50830238,59.3374403 9.68729059,59.6836519 11.6000464,59.7542871 C13.2287689,59.8149736 15.7304469,60.0408071 15.8307523,60.1373086 C15.8724635,60.1761082 15.9906452,60.1293497 16.1137925,60.0248893 C16.3660459,59.8139787 18.5936218,59.762246 19.673147,59.9423158 C20.5232607,60.0855758 20.8063009,60.5054072 20.8063009,61.6236311 C20.8063009,61.9957091 20.9701662,62.6095384 21.1598528,62.9537604 C21.3574844,63.3079309 21.515391,63.7028908 21.515391,63.8401816 C21.515391,64.1724652 22.223488,65.3643088 22.6485449,65.7453406 C23.2215771,66.2616735 24.7996503,65.9512769 25.4849055,65.1882184 C25.834485,64.797238 25.834485,64.797238 25.4451806,64.0003543 C25.2286796,63.5556513 25.0558762,62.9458015 25.0558762,62.6254562 C25.0558762,62.3051109 24.9764263,61.9698427 24.8791002,61.8713515 C24.7241729,61.717148 24.3616829,59.690616 24.3517516,58.9275575 C24.3487723,58.7096829 24.4798646,58.6082071 24.7638979,58.6082071 C24.9943025,58.6082071 25.3220333,58.4490293 25.4988092,58.2530417 C25.673599,58.0580489 25.9169142,57.8988711 26.0390684,57.8988711 C26.1612226,57.8988711 26.3548817,57.6670685 26.4720702,57.3835331 C26.5872725,57.1049719 27.0401368,56.4971118 27.4642006,56.0534038 C27.8872712,55.6106906 28.2428094,55.1251984 28.2428094,54.9898972 C28.2428094,54.7670484 29.1991872,54.3591553 29.7295152,54.3531861 C29.9390642,54.3511964 31.7842876,52.4530014 31.7842876,52.2401012 C31.7842876,52.1445945 31.8369232,52.0560518 31.9173662,52.019242 C31.9908573,51.983427 32.3563267,51.5039039 32.7406655,50.9368331 C33.1240112,50.3687674 33.4934531,49.9161056 33.572903,49.9161056 C33.7079678,49.9161056 34.0644991,49.3311273 34.4369204,48.4984285 C34.546164,48.2536927 34.9533446,47.7662108 35.3436421,47.4160197 C36.1570102,46.6798224 36.2056733,46.2381041 35.5382943,45.6193005" id="Fill-3"></path>
            </g>
        </g>
    </g>
</svg>