<?xml version="1.0" encoding="UTF-8"?>
<svg width="77px" height="45px" viewBox="0 0 77 45" version="1.1" xmlns="http://www.w3.org/2000/svg" xmlns:xlink="http://www.w3.org/1999/xlink">
    <!-- Generator: Sketch 61 (89581) - https://sketch.com -->
    <title>img-nav-lunch-white</title>
    <desc>Created with Sketch.</desc>
    <g id="Page-1" stroke="none" stroke-width="1" fill="none" fill-rule="evenodd">
        <g id="200318_kodomonooka-ver2" transform="translate(-924.000000, -6405.000000)" fill="#FFFFFF">
            <path d="M965.844701,6439.25122 C964.569314,6438.72373 963.248989,6438.15237 962.141585,6437.35098 C962.143725,6437.28571 962.198292,6437.15303 962.281749,6437.02892 C962.375905,6436.88983 962.467921,6436.54209 962.48718,6436.25641 C962.50537,6435.97073 962.566357,6435.72571 962.621995,6435.7118 C962.676562,6435.69789 962.703311,6435.6016 962.678702,6435.5053 C962.660513,6435.43683 962.674423,6435.38012 962.699031,6435.34267 C962.894833,6435.54275 963.151623,6435.8188 963.525037,6436.2318 C963.710139,6436.43616 963.976558,6436.70258 964.139192,6436.8481 C964.293265,6436.98612 964.575733,6437.2397 964.747996,6437.39377 C964.89565,6437.52645 965.458447,6437.83567 966.181737,6438.20159 C966.177457,6438.21336 966.173177,6438.22406 966.167827,6438.23476 C966.045852,6438.47871 965.961326,6438.73229 965.979515,6438.80077 C965.994495,6438.85961 965.934577,6439.03295 965.844701,6439.25122 Z M960.956074,6427.06763 C961.097308,6426.80656 961.242822,6426.54764 961.395826,6426.29941 C961.961832,6425.38245 962.605945,6424.49225 963.46298,6423.83958 C963.835324,6424.91488 964.060015,6425.41776 964.163801,6425.39101 C964.18199,6425.38566 964.210879,6425.4199 964.245117,6425.47233 C964.107093,6425.59644 963.966929,6425.6906 963.916641,6425.67241 C963.853514,6425.64887 963.770057,6425.71842 963.730469,6425.82649 C963.68981,6425.93776 963.507918,6426.06188 963.304626,6426.11644 C962.819936,6426.24698 962.108416,6427.31372 961.53813,6428.58269 C961.443974,6428.44039 961.309159,6428.11619 961.209653,6427.77273 C961.136896,6427.51594 961.04167,6427.25916 960.956074,6427.06763 Z M962.141585,6437.35098 C961.438624,6436.84168 960.82019,6436.2425 960.356899,6435.49995 C958.790484,6432.98556 959.524473,6429.72219 960.956074,6427.06763 C961.04167,6427.25916 961.136896,6427.51594 961.209653,6427.77273 C961.309159,6428.11619 961.443974,6428.44039 961.53813,6428.58269 C961.135826,6429.48038 960.802,6430.47651 960.672536,6431.31964 C960.552701,6432.09856 960.590149,6432.34465 960.935745,6433.04548 C961.506031,6434.19889 961.819528,6434.67288 962.135165,6434.85905 C962.282819,6434.94572 962.433683,6435.0709 962.699031,6435.34267 C962.674423,6435.38012 962.660513,6435.43683 962.678702,6435.5053 C962.703311,6435.6016 962.676562,6435.69789 962.621995,6435.7118 C962.566357,6435.72571 962.50537,6435.97073 962.48718,6436.25641 C962.467921,6436.54209 962.375905,6436.88983 962.281749,6437.02892 C962.198292,6437.15303 962.143725,6437.28571 962.141585,6437.35098 Z M970.947319,6421.4172 C971.552914,6421.19037 972.12855,6420.8972 972.691346,6420.57942 C972.012994,6421.24173 971.942377,6421.42683 972.326491,6421.55415 C973.0883,6421.80559 974.370106,6422.97933 974.591587,6423.6288 C974.610846,6423.68443 974.752081,6423.82888 974.895455,6423.93801 C975.038829,6424.04608 975.143684,6424.19908 975.120145,6424.26328 C975.096606,6424.32855 975.310597,6424.55645 975.586646,6424.76081 C975.862694,6424.9641 976.115204,6425.18558 976.135533,6425.24229 C976.155862,6425.30007 976.390183,6425.65101 976.653392,6426.01801 C976.916601,6426.385 977.112403,6426.74558 977.086724,6426.81512 C977.062115,6426.8836 977.134872,6426.97776 977.241867,6427.01735 C977.352073,6427.05693 977.41948,6427.272 977.390591,6427.4892 C977.360632,6427.70747 977.383101,6428.36442 977.439809,6428.93257 C977.623841,6430.76754 976.779646,6431.92844 975.431502,6431.6984 C975.088047,6431.63848 974.729612,6431.49297 974.595867,6431.35709 C974.340148,6431.09709 974.069449,6430.08277 974.176445,6429.78746 C974.216033,6429.67939 974.199984,6429.54351 974.140066,6429.46968 C974.080149,6429.39586 974.069449,6429.24499 974.113317,6429.12409 C974.216033,6428.84162 973.966733,6427.8059 973.779491,6427.7385 C973.694965,6427.70747 973.56336,6427.46138 973.475624,6427.16928 C973.386817,6426.87825 973.234884,6426.62574 973.124678,6426.58508 C973.020893,6426.54657 972.963115,6426.42031 973.002703,6426.31224 C973.044432,6426.19776 972.962045,6426.0683 972.814391,6426.0148 C972.665667,6425.9613 972.495544,6425.79974 972.422787,6425.64459 C972.35431,6425.49694 972.200237,6425.33431 972.092171,6425.29472 C971.985176,6425.2562 971.87497,6425.14492 971.856781,6425.05719 C971.803283,6424.79612 969.556377,6424.14024 968.855556,6424.18089 C968.699342,6424.19052 968.555968,6424.15842 968.531359,6424.10814 C968.470372,6423.98081 966.808731,6424.1948 966.276963,6424.39916 C966.046922,6424.4869 965.794413,6424.52756 965.694907,6424.49011 C965.517294,6424.42591 964.821823,6424.89027 964.333924,6425.39743 C964.305035,6425.42739 964.276146,6425.44558 964.245117,6425.47233 C964.210879,6425.4199 964.18199,6425.38566 964.163801,6425.39101 C964.060015,6425.41776 963.835324,6424.91488 963.46726,6423.83637 C965.567582,6422.23892 968.476791,6422.34699 970.947319,6421.4172 Z M998.811101,6435.64333 C999.182375,6436.7946 999.107478,6438.04859 998.83999,6439.22875 C997.890939,6443.39622 994.281979,6446.91852 990.039605,6447.43531 C986.747352,6447.83654 983.509667,6446.5451 980.444244,6445.27935 C975.590926,6443.27532 970.738677,6441.27236 965.886429,6439.26834 C965.87252,6439.26299 965.85861,6439.25657 965.844701,6439.25122 C965.934577,6439.03295 965.994495,6438.85961 965.979515,6438.80077 C965.961326,6438.73229 966.045852,6438.47871 966.167827,6438.23476 C966.173177,6438.22406 966.177457,6438.21336 966.181737,6438.20159 C967.812349,6439.02653 970.268967,6440.14356 970.691599,6440.20134 C971.027565,6440.24735 971.530444,6440.49023 972.182047,6440.92035 C973.934635,6442.07697 978.751574,6443.89375 980.825148,6444.1805 C981.187863,6444.23079 982.148683,6444.48116 982.983249,6444.74223 C983.817814,6445.0033 984.720856,6445.22692 985.010814,6445.24404 C985.294352,6445.26116 985.614269,6445.33819 985.710565,6445.41523 C985.809001,6445.49334 986.242333,6445.58642 986.685295,6445.62494 C987.129326,6445.66346 987.52521,6445.74799 987.577638,6445.81432 C987.746691,6446.02939 990.17335,6445.96626 990.700838,6445.73087 C990.820673,6445.67844 991.38026,6445.43449 991.941986,6445.19054 C992.502643,6444.94766 993.04618,6444.62667 993.145686,6444.47902 C993.244122,6444.33244 993.553339,6444.15482 993.819758,6444.0917 C994.120416,6444.01894 994.354736,6443.85845 994.420003,6443.67762 C994.517369,6443.41013 994.702472,6443.17046 995.318766,6442.51137 C996.372672,6441.38471 997.211517,6438.44447 997.053164,6436.43616 C997.018925,6436.00925 996.880901,6435.21534 996.751436,6434.69642 C996.621972,6434.17642 996.525676,6433.7035 996.541725,6433.65963 C996.558844,6433.61469 996.443289,6433.19741 996.280656,6432.71165 C996.153331,6432.32967 996.113743,6432.02795 996.116953,6431.76367 C997.15267,6432.98877 998.323201,6434.13255 998.811101,6435.64333 Z M995.483539,6431.75083 C995.516708,6432.19914 995.394733,6432.76194 995.051277,6433.73453 C994.627575,6434.93609 994.50667,6435.15436 993.994161,6435.63584 C993.678524,6435.93222 993.152106,6436.31205 992.836469,6436.47147 C992.32396,6436.7304 992.207335,6436.73468 991.817871,6436.50678 C991.194087,6436.143 991.168408,6435.74283 991.703386,6434.73386 C991.966595,6434.23527 992.154907,6433.70885 992.185936,6433.38465 C992.317541,6432.00013 992.33145,6431.59355 992.284372,6430.58672 C992.256553,6429.98112 992.230874,6429.36483 992.228734,6429.19364 C992.210545,6428.15043 992.152767,6427.56623 992.065031,6427.53413 C992.007254,6427.5138 991.903468,6427.21636 991.84034,6426.88895 C991.681987,6426.07257 991.090302,6424.93628 990.477217,6424.27398 C990.282485,6424.0632 989.965778,6423.63094 989.786026,6423.32921 C989.606273,6423.02748 989.288497,6422.71398 989.091625,6422.6423 C988.889403,6422.56847 988.678622,6422.40049 988.618704,6422.2646 C988.561997,6422.13728 988.426112,6422.01744 988.336236,6422.01637 C988.23887,6422.0153 987.775579,6421.69218 987.296239,6421.29201 C986.207025,6420.38255 984.87493,6419.65498 983.252877,6419.08684 C981.779549,6418.56898 980.828358,6418.37317 980.347948,6418.48445 C980.163916,6418.52725 979.756263,6418.51655 979.441696,6418.45984 C979.127129,6418.4042 978.590011,6418.41811 978.249765,6418.49087 C977.9031,6418.5647 977.576763,6418.60429 977.508286,6418.57968 C977.377751,6418.53153 976.171912,6418.81828 975.424013,6419.074 C975.200392,6419.15103 974.981051,6419.24091 974.76278,6419.33292 C975.49142,6418.89317 976.231829,6418.47696 977.018246,6418.16025 C980.319059,6416.83458 985.927766,6417.0903 988.930061,6419.19811 C992.667416,6421.82164 992.917786,6427.47208 995.485679,6430.97297 C995.46749,6431.18482 995.46535,6431.49083 995.483539,6431.75083 Z M962.944051,6422.29456 C963.022158,6422.50427 963.102405,6422.7311 963.183721,6422.98468 C963.287507,6423.30567 963.379523,6423.58279 963.46726,6423.83637 C963.46512,6423.83744 963.46405,6423.83851 963.46298,6423.83958 C962.605945,6424.49225 961.961832,6425.38245 961.395826,6426.29941 C961.242822,6426.54764 961.097308,6426.80656 960.956074,6427.06763 C960.903646,6426.9478 960.853358,6426.84829 960.81805,6426.80763 C960.723894,6426.69743 960.33443,6425.82114 959.952456,6424.85818 C959.901098,6424.72871 959.84974,6424.60246 959.799452,6424.48048 C959.800522,6424.48048 959.800522,6424.47941 959.801592,6424.47941 C959.873279,6424.50616 959.969575,6424.43447 960.009163,6424.32641 C960.09369,6424.09637 960.706774,6423.6502 961.504961,6423.2404 C961.800269,6423.08847 962.051708,6422.9023 962.084877,6422.81135 C962.113766,6422.73003 962.49146,6422.50641 962.944051,6422.29456 Z M964.626021,6441.46282 C964.329644,6441.34084 963.974418,6441.12792 963.775407,6440.94496 C963.547506,6440.73418 963.313186,6440.57261 963.263968,6440.5908 C963.21689,6440.61113 963.081006,6440.4913 962.96973,6440.33187 C962.860595,6440.17352 962.662653,6439.99912 962.543888,6439.95632 C962.420843,6439.91138 962.093437,6439.62142 961.810968,6439.30792 C961.703973,6439.19023 961.595907,6439.08002 961.494262,6438.98159 C961.818458,6438.43912 962.177963,6437.55213 962.134095,6437.3788 C962.133025,6437.37452 962.141585,6437.35847 962.141585,6437.35098 C963.248989,6438.15237 964.569314,6438.72373 965.844701,6439.25122 C965.575072,6439.89961 964.958778,6441.02627 964.626021,6441.46282 Z M962.134095,6437.3788 C962.177963,6437.55213 961.818458,6438.43912 961.494262,6438.98159 C961.325209,6438.82003 961.177555,6438.69698 961.113357,6438.67237 C961.005292,6438.63385 960.873687,6438.49369 960.80521,6438.34817 C960.641507,6437.9983 960.047682,6437.37131 959.791962,6437.27822 C959.683897,6437.23863 959.61007,6437.14768 959.633609,6437.08349 C959.658218,6437.01715 959.485955,6436.77962 959.258054,6436.56563 C958.793694,6436.12588 958.493036,6435.75995 958.307934,6435.40901 C958.243737,6435.28596 958.083243,6435.10621 957.950569,6435.00777 C957.818964,6434.90934 957.726948,6434.78736 957.745137,6434.73493 C957.764397,6434.68358 957.669171,6434.35617 957.538636,6434.01913 C957.111724,6432.91922 956.912712,6431.99799 957.031477,6431.67058 C957.095674,6431.49618 957.113864,6431.26507 957.072135,6431.1677 C956.96621,6430.91626 957.249748,6429.84524 958.007276,6427.63685 C958.574353,6425.98377 958.745546,6425.61356 959.083652,6425.30007 C959.308342,6425.0925 959.525543,6424.81859 959.575831,6424.67949 C959.625049,6424.54575 959.726695,6424.4548 959.799452,6424.48048 C959.84974,6424.60246 959.901098,6424.72871 959.952456,6424.85818 C960.33443,6425.82114 960.723894,6426.69743 960.81805,6426.80763 C960.853358,6426.84829 960.903646,6426.9478 960.956074,6427.06763 C959.524473,6429.72219 958.790484,6432.98556 960.356899,6435.49995 C960.82019,6436.2425 961.438624,6436.84168 962.141585,6437.35098 C962.141585,6437.35847 962.133025,6437.37452 962.134095,6437.3788 Z M1000.65998,6437.61205 C1000.45134,6438.49583 1000.38394,6438.92167 1000.42352,6439.11105 C1000.44171,6439.202 1000.36468,6439.63105 1000.24912,6440.07615 C1000.13357,6440.52232 1000.07365,6440.94924 1000.11431,6441.04018 C1000.23949,6441.32372 1000.10575,6441.60191 998.516863,6444.36025 C998.378839,6444.59992 998.170197,6444.90807 998.059992,6445.03326 C997.831022,6445.29326 996.473248,6446.60395 996.168311,6446.8586 C996.062385,6446.94741 995.804526,6447.19885 995.586255,6447.42461 C995.369054,6447.65037 995.078026,6447.87292 994.931442,6447.92535 C994.792348,6447.97563 994.629715,6448.12757 994.584776,6448.24847 C994.539838,6448.37473 994.350456,6448.5181 994.164284,6448.56732 C993.978112,6448.61761 993.806919,6448.71283 993.78231,6448.77917 C993.724532,6448.93966 992.450215,6449.46822 992.274742,6449.40403 C992.207335,6449.37942 992.029723,6449.40831 991.870299,6449.46822 C990.743636,6449.90048 988.674342,6449.87695 987.073689,6449.41472 C986.384637,6449.21571 985.294352,6448.95464 984.62135,6448.82732 C983.352383,6448.58658 981.068028,6447.89004 980.989921,6447.71992 C980.916094,6447.56049 979.057582,6447.19671 978.794373,6447.29086 C978.62532,6447.35078 978.555773,6447.31547 978.525814,6447.1507 C978.493715,6446.98379 978.37709,6446.92922 978.044334,6446.92387 C977.437669,6446.91424 973.653236,6445.48371 973.368628,6445.15523 C973.214554,6444.97655 972.987724,6444.88453 972.646408,6444.85992 C972.37036,6444.83959 971.944517,6444.71548 971.688798,6444.58067 C970.410201,6443.90552 969.974729,6443.7033 968.691852,6443.18116 C967.921484,6442.86874 966.860089,6442.41187 966.320831,6442.16043 C965.785853,6441.9122 965.083962,6441.62224 964.770465,6441.52059 C964.726597,6441.50668 964.674169,6441.48207 964.626021,6441.46282 C964.958778,6441.02627 965.575072,6439.89961 965.844701,6439.25122 C965.85861,6439.25657 965.87252,6439.26299 965.886429,6439.26834 C970.738677,6441.27236 975.590926,6443.27532 980.444244,6445.27935 C983.509667,6446.5451 986.747352,6447.83654 990.039605,6447.43531 C994.281979,6446.91852 997.890939,6443.39622 998.83999,6439.22875 C999.107478,6438.04859 999.182375,6436.7946 998.811101,6435.64333 C998.323201,6434.13255 997.15267,6432.98877 996.116953,6431.76367 C996.124442,6431.31857 996.297775,6431.01684 996.684029,6430.88096 C997.182628,6430.70441 997.447977,6430.79429 997.743285,6431.23725 C997.87596,6431.43626 998.161638,6431.78507 998.391678,6432.03116 C998.621719,6432.27725 998.785422,6432.5212 998.761883,6432.58539 C998.739414,6432.64638 998.814311,6432.73412 998.922376,6432.77371 C999.033652,6432.81329 999.373897,6433.24877 999.680975,6433.74309 C1000.4599,6434.996 1000.56155,6435.21641 1000.61077,6435.75032 C1000.63537,6436.01781 1000.68352,6436.40514 1000.72097,6436.64374 C1000.75735,6436.87057 1000.72953,6437.31781 1000.65998,6437.61205 Z M962.944051,6422.29456 C962.98685,6422.27423 963.027508,6422.2539 963.072446,6422.23357 C963.581745,6422.0046 964.226928,6421.69967 964.501907,6421.55736 C964.976967,6421.30913 965.599681,6421.02666 966.169967,6420.79876 C966.314411,6420.74099 966.759513,6420.62329 967.139347,6420.54411 C967.519181,6420.4628 967.872266,6420.30872 967.909715,6420.20708 C967.949303,6420.09687 968.077698,6420.01663 968.215722,6420.01342 C968.354816,6420.01021 968.441483,6419.94601 968.424364,6419.86041 C968.408314,6419.7791 968.50782,6419.6721 968.647984,6419.62181 C968.784939,6419.57366 969.018189,6419.3372 969.153003,6419.11251 C969.288888,6418.88675 969.514648,6418.65564 969.640903,6418.61177 C969.768228,6418.56684 969.982219,6418.36248 970.108474,6418.16453 C970.234728,6417.96659 970.395222,6417.81894 970.460489,6417.84355 C970.525756,6417.86709 970.616702,6417.79326 970.656291,6417.68519 C970.695879,6417.57606 970.937689,6417.36849 971.186989,6417.23046 C971.435218,6417.09351 971.913489,6416.83244 972.233405,6416.65911 C972.553322,6416.48577 972.956695,6416.20117 973.115049,6416.03532 C973.280892,6415.86413 973.662866,6415.68331 973.990272,6415.62232 C974.312329,6415.5624 974.914714,6415.40512 975.344836,6415.26923 C976.044587,6415.04882 976.93586,6414.91936 978.322522,6414.83697 C978.583591,6414.82092 979.025483,6414.85088 979.326141,6414.90545 C979.626798,6414.95895 979.880377,6414.95039 979.903917,6414.88619 C979.926386,6414.8252 980.086879,6414.82306 980.248442,6414.88298 C980.413215,6414.9429 981.003831,6415.04668 981.545228,6415.10981 C982.089836,6415.17508 983.302095,6415.47574 984.229747,6415.77425 C985.633528,6416.22898 986.08077,6416.43228 986.871467,6416.9726 C987.396815,6417.33211 987.937143,6417.68626 988.077307,6417.76223 C988.220681,6417.84034 988.596235,6418.0982 988.931131,6418.34964 C990.247177,6419.33827 990.543554,6419.54692 990.773595,6419.65177 C990.903059,6419.71062 991.104211,6419.87218 991.221906,6420.01128 C991.336391,6420.14823 991.61458,6420.37506 991.826431,6420.5056 C992.038282,6420.63613 992.3368,6420.98173 992.475894,6421.2567 C992.82042,6421.94041 993.506261,6422.87769 993.717042,6422.95365 C993.910704,6423.02427 995.099425,6425.83397 995.431111,6427.00665 C995.527407,6427.34689 995.533827,6428.05627 995.441811,6428.30664 C995.388313,6428.4543 995.392593,6428.59232 995.45144,6428.61479 C995.511358,6428.63619 995.537037,6428.97322 995.508148,6429.35948 C995.480329,6429.74573 995.485679,6430.15767 995.519918,6430.27001 C995.555226,6430.38664 995.550946,6430.61668 995.510288,6430.79964 C995.500658,6430.84351 995.492099,6430.90342 995.485679,6430.97297 C992.917786,6427.47208 992.667416,6421.82164 988.930061,6419.19811 C985.927766,6417.0903 980.319059,6416.83458 977.018246,6418.16025 C976.231829,6418.47696 975.49142,6418.89317 974.76278,6419.33292 C973.911096,6419.69457 973.131098,6420.15144 972.706326,6420.56551 C972.699906,6420.57086 972.697766,6420.57407 972.691346,6420.57942 C972.12855,6420.8972 971.552914,6421.19037 970.947319,6421.4172 C968.476791,6422.34699 965.567582,6422.23892 963.46726,6423.83637 C963.379523,6423.58279 963.287507,6423.30567 963.183721,6422.98468 C963.102405,6422.7311 963.022158,6422.50427 962.944051,6422.29456 Z M951.207709,6430.52573 C951.156351,6430.32244 951.294375,6430.14055 951.437749,6430.22507 C951.614292,6430.32993 951.610012,6430.6017 951.43026,6430.6477 C951.333964,6430.67231 951.230178,6430.61561 951.207709,6430.52573 Z M945.747726,6434.14004 C945.714557,6434.00844 945.741306,6433.88004 945.805504,6433.86399 C945.871841,6433.84687 945.944598,6433.91107 945.969207,6434.00737 C945.993816,6434.10259 945.968137,6434.22671 945.912499,6434.28341 C945.857931,6434.33798 945.781964,6434.27164 945.747726,6434.14004 Z M943.772588,6442.83771 C943.698761,6442.4354 943.72551,6442.28347 943.862464,6442.32627 C944.000489,6442.36907 944.073246,6443.10627 943.940571,6443.13944 C943.881723,6443.15548 943.806827,6443.02067 943.772588,6442.83771 Z M942.693003,6434.39362 C942.732591,6434.27913 942.790369,6434.27378 942.895224,6434.37436 C943.031109,6434.50489 942.877035,6434.69642 942.713332,6434.59905 C942.674814,6434.57551 942.665184,6434.47708 942.693003,6434.39362 Z M962.96973,6440.33187 C962.860595,6440.17352 962.662653,6439.99912 962.543888,6439.95632 C962.420843,6439.91138 962.093437,6439.62142 961.810968,6439.30792 C961.703973,6439.19023 961.595907,6439.08002 961.494262,6438.98159 C961.477142,6439.01155 961.458953,6439.04365 961.441834,6439.07039 C961.0406,6439.7006 960.315171,6440.39179 959.829411,6440.60578 C959.513774,6440.74595 958.623571,6440.98027 957.67666,6441.17179 C957.477648,6441.21245 956.934111,6441.36224 956.47296,6441.50347 L955.633045,6441.7624 L955.570988,6441.39434 C955.536749,6441.18677 955.535679,6440.85508 955.568848,6440.63039 C955.600946,6440.40891 955.550659,6439.85681 955.455432,6439.38282 C955.360206,6438.9099 955.27033,6438.25509 955.252141,6437.90414 C955.233952,6437.55962 955.137656,6436.86201 955.03815,6436.36448 C954.938644,6435.85839 954.850908,6434.94465 954.841278,6434.30909 C954.832718,6433.67996 954.736422,6432.61428 954.628357,6431.93914 C954.520291,6431.26614 954.399386,6430.20581 954.359798,6429.58417 C954.278481,6428.30343 954.098729,6427.5459 953.797001,6427.21422 C953.570171,6426.96599 952.921778,6426.64072 952.715276,6426.67282 C952.646799,6426.68245 952.447787,6426.67282 952.262685,6426.64821 C952.079723,6426.6236 951.612152,6426.67496 951.214129,6426.76163 C950.815035,6426.84936 950.45446,6426.90607 950.404172,6426.89109 C950.354954,6426.87504 949.959071,6426.91891 949.530019,6426.98739 C948.340228,6427.17677 947.913316,6427.20245 947.443605,6427.11257 C947.202865,6427.06656 946.902208,6427.08261 946.783443,6427.14788 C946.660398,6427.21529 946.537353,6427.22385 946.500975,6427.16821 C946.466736,6427.11364 946.086902,6427.14467 945.65143,6427.23776 C945.215958,6427.33084 944.796535,6427.38327 944.712009,6427.35545 C944.627482,6427.32763 944.041147,6427.35117 943.404523,6427.40681 C942.76897,6427.46352 942.166585,6427.46887 942.061729,6427.41751 C941.648726,6427.2185 940.922226,6427.30088 938.937459,6427.77273 C936.964461,6428.24244 936.860675,6428.27989 936.702322,6428.5752 C936.445532,6429.05347 936.350306,6429.53174 936.431623,6429.9319 C936.471211,6430.13306 936.49796,6430.52787 936.489401,6430.81141 C936.479771,6431.09602 936.5108,6431.68556 936.556808,6432.1328 C936.603886,6432.58004 936.667013,6433.2477 936.699112,6433.62753 C936.809317,6434.9393 936.900264,6435.94505 936.97944,6436.74538 C937.024378,6437.19369 937.084296,6437.88916 937.112115,6438.30645 C937.139934,6438.71945 937.21911,6439.38924 937.286518,6439.79261 C937.353925,6440.19706 937.397793,6440.61648 937.383883,6440.72455 C937.343225,6441.05837 937.347505,6441.09154 937.579685,6442.07804 C937.763718,6442.86018 937.772277,6443.09771 937.626763,6443.34166 C937.454501,6443.63162 936.938782,6443.79425 936.434833,6443.71828 C936.319278,6443.70116 936.086027,6443.7033 935.925534,6443.72256 C935.405536,6443.78676 934.867348,6443.75573 934.57953,6443.64766 C934.436156,6443.5931 934.155828,6443.58668 933.976075,6443.63269 C933.796323,6443.67762 933.62834,6443.67013 933.61443,6443.61557 C933.600521,6443.55886 933.335172,6443.47112 933.015255,6443.41548 C932.41501,6443.31384 931.355754,6442.7596 931.293697,6442.51565 C931.273367,6442.43433 931.158882,6442.30701 931.032627,6442.22462 C930.315757,6441.75598 930.199132,6441.6629 930.069667,6441.44891 C929.990491,6441.31623 929.889915,6441.22743 929.834277,6441.24133 C929.730492,6441.26701 929.514361,6440.87541 929.184814,6440.06652 C929.082098,6439.81187 928.941934,6439.56043 928.875597,6439.50801 C928.704404,6439.37212 927.884818,6436.2425 927.970415,6436.05098 C928.010003,6435.96324 928.023912,6435.66687 928.003583,6435.39189 C927.982184,6435.11691 927.982184,6434.54234 928.003583,6434.1165 C928.024982,6433.68959 928.054941,6432.99305 928.069921,6432.56827 C928.0849,6432.1435 928.123418,6431.73264 928.156587,6431.65346 C928.187616,6431.57857 928.222924,6431.36244 928.230414,6431.19445 C928.238974,6431.02219 928.397327,6430.47651 928.577079,6429.9961 C928.756832,6429.51783 928.888437,6429.0417 928.865967,6428.9529 C928.844568,6428.86623 928.902346,6428.65117 928.991152,6428.48853 C929.079959,6428.32483 929.210493,6427.94179 929.272551,6427.65718 C929.621356,6426.08969 929.823578,6425.34073 929.950902,6425.13957 C930.031149,6425.01225 930.24193,6424.43233 930.423823,6423.83744 C930.604645,6423.24254 930.801517,6422.7525 930.864644,6422.73752 C930.930982,6422.7204 930.9588,6422.63053 930.930982,6422.52246 C930.904233,6422.4144 930.952381,6422.29028 931.047607,6422.22501 C931.134273,6422.16617 931.190981,6422.03777 931.168512,6421.95111 C931.146043,6421.8623 931.227359,6421.72963 931.349334,6421.65794 C931.471309,6421.58411 931.550486,6421.44609 931.525877,6421.35086 C931.501268,6421.25457 931.530157,6421.16469 931.590074,6421.14971 C931.68423,6421.1251 931.867193,6420.67144 932.120772,6419.82831 C932.16678,6419.67531 932.505956,6419.05902 932.88472,6418.44165 C933.263485,6417.82322 933.545953,6417.254 933.521344,6417.15664 C933.496735,6417.05713 933.559862,6416.93194 933.670068,6416.86454 C933.774923,6416.79927 933.937557,6416.52108 934.026363,6416.2568 C934.115169,6415.99145 934.243564,6415.75499 934.308831,6415.73894 C934.378378,6415.72076 934.416897,6415.64693 934.399777,6415.5624 C934.34949,6415.3024 936.02932,6412.82225 936.99121,6411.73945 C937.111045,6411.60464 937.260839,6411.41953 937.321826,6411.3318 C937.761578,6410.70159 939.069063,6409.86275 939.460667,6409.95904 C939.719596,6410.02324 942.52395,6409.24752 942.702632,6409.06349 C942.825677,6408.9351 944.270117,6408.70613 944.959169,6408.70506 C945.239497,6408.70506 945.603282,6408.70506 945.768055,6408.70506 C945.934968,6408.70506 946.113651,6408.77032 946.169288,6408.85164 C946.223856,6408.92975 946.354391,6408.97683 946.450687,6408.95222 C946.677517,6408.89444 948.075949,6409.17584 948.103768,6409.28497 C948.115538,6409.32991 948.414055,6409.55674 948.751091,6409.77715 C949.090267,6409.99756 949.600636,6410.37847 949.861705,6410.60423 C950.122774,6410.83106 950.396683,6411.01081 950.45874,6410.99476 C950.518658,6410.97978 950.596764,6411.06217 950.623513,6411.17023 C950.670591,6411.35427 951.712728,6412.24554 952.291574,6412.59541 C952.439228,6412.68529 952.578322,6412.83722 952.604001,6412.9378 C952.651079,6413.12397 953.143259,6413.66751 953.768113,6414.22282 C953.990663,6414.42076 954.178976,6414.61763 954.190745,6414.66364 C954.202515,6414.70965 954.420785,6415.00067 954.673295,6415.30668 C954.925805,6415.61269 955.178314,6415.97005 955.231812,6416.09631 C955.28531,6416.2247 955.463992,6416.48363 955.635185,6416.68265 C955.807448,6416.88059 955.960452,6417.10956 955.983991,6417.19943 C956.00539,6417.28396 956.070657,6417.3503 956.120945,6417.33639 C956.172303,6417.32355 956.372384,6417.63705 956.556417,6418.0233 C956.744729,6418.41704 957.125633,6419.16066 957.407031,6419.68922 C957.6895,6420.21671 957.935589,6420.72387 957.956989,6420.82444 C958.030815,6421.16255 958.496246,6421.96288 958.603242,6421.93613 C958.663159,6421.92115 958.778714,6422.17152 958.861101,6422.49571 C958.943488,6422.81884 959.066532,6423.08847 959.13501,6423.09596 C959.193857,6423.10238 959.477395,6423.69727 959.799452,6424.48048 C959.873279,6424.50616 959.969575,6424.43447 960.009163,6424.32641 C960.09369,6424.09637 960.706774,6423.6502 961.504961,6423.2404 C961.800269,6423.08847 962.051708,6422.9023 962.084877,6422.81135 C962.113766,6422.73003 962.49146,6422.50641 962.944051,6422.29456 C962.74183,6421.75637 962.554587,6421.36905 962.405864,6421.19144 C962.226111,6420.97852 961.958622,6420.57514 961.802409,6420.28305 C961.647265,6419.98988 961.400105,6419.60469 961.247102,6419.41531 C960.998872,6419.1093 960.406117,6417.84997 960.107599,6416.99721 C960.047682,6416.82602 959.973855,6416.65269 959.938546,6416.60133 C959.84439,6416.4633 959.799452,6416.37236 959.572621,6415.87162 C959.244145,6415.14619 958.853611,6414.52775 958.740196,6414.55664 C958.586122,6414.59623 958.076824,6413.98208 957.994437,6413.65788 C957.952709,6413.49204 957.608183,6413.07262 957.225139,6412.71953 C956.841025,6412.3643 956.515758,6412.01978 956.497569,6411.94809 C956.47938,6411.87319 956.410903,6411.8304 956.340286,6411.84859 C956.269669,6411.86678 956.173373,6411.71805 956.119875,6411.5062 C956.0086,6411.06752 955.829917,6410.86316 954.855187,6410.06283 C954.460374,6409.73756 954.06984,6409.37806 954.000293,6409.27748 C953.930746,6409.17584 953.60227,6408.93617 953.275933,6408.75213 C952.950667,6408.56596 952.661779,6408.34448 952.640379,6408.26209 C952.587952,6408.05773 951.159561,6406.98243 950.358164,6406.54482 C949.98796,6406.34259 949.310678,6405.97239 948.863436,6405.72951 C947.992493,6405.25552 947.121549,6405.08754 946.198177,6405.21486 C945.877191,6405.2598 945.536945,6405.23091 945.431019,6405.15066 C945.327233,6405.07149 944.888552,6405.02441 944.45629,6405.04688 C944.022958,6405.06935 943.631354,6405.05223 943.583206,6405.00943 C943.536128,6404.96663 942.776459,6405.07363 941.891606,6405.24696 C940.564861,6405.50803 940.229965,6405.61182 939.961406,6405.85149 C939.777374,6406.01412 939.501325,6406.17354 939.324783,6406.21848 C939.15466,6406.26128 938.854002,6406.45601 938.66355,6406.64539 C938.467748,6406.84012 938.064375,6407.083 937.747668,6407.19642 C937.432031,6407.3109 937.073596,6407.51527 936.936642,6407.66185 C936.799688,6407.80843 936.51294,6408.00424 936.287179,6408.10695 C935.839938,6408.31131 934.933685,6409.15551 934.516403,6409.76003 C934.361259,6409.98472 934.142988,6410.19015 934.029573,6410.22011 C933.916158,6410.24793 933.641179,6410.59674 933.415418,6410.99904 C932.877231,6411.95986 932.051225,6413.33689 931.641432,6413.95854 C931.142833,6414.71393 930.816496,6415.36018 930.855015,6415.51318 C930.874274,6415.58701 930.791887,6415.70792 930.677402,6415.77746 C930.558637,6415.84808 930.314687,6416.21507 930.125305,6416.60775 C929.935923,6417.00042 929.551809,6417.7098 929.257571,6418.20947 C928.963333,6418.70914 928.672306,6419.3479 928.601688,6419.6507 C928.531071,6419.95136 928.299961,6420.47243 928.08276,6420.81802 C927.868769,6421.1572 927.60449,6421.74246 927.502844,6422.09983 C927.323092,6422.73003 927.183997,6423.08526 926.955027,6423.5004 C926.895109,6423.60954 926.730336,6424.0953 926.593382,6424.56822 C926.456428,6425.04114 926.297004,6425.47982 926.241367,6425.53332 C926.185729,6425.58788 926.045565,6426.06081 925.930009,6426.58187 C925.815524,6427.10187 925.626142,6427.85512 925.510587,6428.24779 C925.393962,6428.64903 925.290176,6429.07059 925.276267,6429.20433 C925.261287,6429.34022 925.19709,6429.45577 925.125403,6429.47396 C925.055856,6429.49215 924.95742,6429.7361 924.901782,6430.02927 C924.846145,6430.32244 924.750918,6430.6231 924.684581,6430.71511 C924.618244,6430.80606 924.551907,6431.17412 924.531578,6431.54968 C924.513388,6431.91667 924.454541,6432.56507 924.405323,6432.97593 C924.315447,6433.70029 924.271578,6434.81518 924.303677,6435.52349 C924.312237,6435.70752 924.299397,6435.97394 924.274788,6436.12802 C924.148534,6436.94439 925.068695,6441.11722 925.550175,6441.91113 C925.702109,6442.1615 926.042355,6442.781 926.298074,6443.27425 C926.742106,6444.13021 926.819143,6444.20725 927.793872,6444.77219 C928.353459,6445.09638 929.154855,6445.61424 929.556089,6445.90955 C929.957322,6446.20593 930.384234,6446.46379 930.49658,6446.47556 C931.479869,6446.58255 931.779456,6446.63819 931.874682,6446.72807 C932.004147,6446.84897 934.023153,6447.29407 934.856649,6447.38395 C935.192615,6447.4214 935.745782,6447.43745 936.113846,6447.42247 C936.481911,6447.40642 936.869235,6447.43959 936.99549,6447.49629 C937.121744,6447.55407 937.512278,6447.59794 937.883553,6447.5958 C938.254827,6447.59473 938.849723,6447.63646 939.234907,6447.69103 C939.705687,6447.75736 940.294163,6447.70815 941.099839,6447.53481 C941.741812,6447.39786 942.399835,6447.3144 942.547489,6447.35292 C942.699423,6447.39251 943.038598,6447.32724 943.325347,6447.20206 C943.599255,6447.08115 943.949131,6446.95811 944.086085,6446.93136 C944.858593,6446.78263 946.690357,6446.29473 946.734225,6446.22519 C946.758834,6446.1856 946.894718,6446.17811 947.022043,6446.20807 C947.154717,6446.24124 947.544181,6446.22519 947.888707,6446.17383 C948.234303,6446.12247 948.517841,6446.0893 948.521051,6446.1 C948.523191,6446.1107 949.066728,6446.00264 949.721541,6445.86354 C951.685979,6445.44519 953.089761,6445.30931 953.82803,6445.46445 C955.169754,6445.74585 956.316747,6445.54149 958.17205,6444.69194 C958.88571,6444.3656 959.093281,6444.31211 959.343651,6444.39342 C959.985624,6444.60099 961.711463,6444.09919 962.582406,6443.45079 C962.703311,6443.36092 962.98578,6443.15869 963.199771,6443.00783 C963.683391,6442.66866 964.383141,6441.91969 964.346763,6441.77845 C964.331784,6441.71853 964.371372,6441.66504 964.446269,6441.64685 C964.483717,6441.63722 964.548985,6441.56339 964.626021,6441.46282 C964.329644,6441.34084 963.974418,6441.12792 963.775407,6440.94496 C963.547506,6440.73418 963.313186,6440.57261 963.263968,6440.5908 C963.21689,6440.61113 963.081006,6440.4913 962.96973,6440.33187 Z" id="img-nav-lunch-white"></path>
        </g>
    </g>
</svg>