<?xml version="1.0" encoding="UTF-8"?>
<svg width="52px" height="63px" viewBox="0 0 52 63" version="1.1" xmlns="http://www.w3.org/2000/svg" xmlns:xlink="http://www.w3.org/1999/xlink">
    <!-- Generator: Sketch 61 (89581) - https://sketch.com -->
    <title>img-nav-cafe-white</title>
    <desc>Created with Sketch.</desc>
    <g id="Page-1" stroke="none" stroke-width="1" fill="none" fill-rule="evenodd">
        <g id="200318_kodomonooka-ver2" transform="translate(-1146.000000, -6392.000000)" fill="#FFFFFF">
            <path d="M1155.87084,6438.43287 C1155.6869,6438.24101 1155.54256,6438.04298 1155.54256,6437.98226 C1155.54256,6437.92329 1155.50472,6437.874 1155.45983,6437.874 C1155.41406,6437.874 1155.37622,6437.82384 1155.37622,6437.76487 C1155.37622,6437.7059 1155.19668,6437.45595 1154.97929,6437.2148 C1154.76278,6436.97189 1154.52692,6436.67178 1154.45827,6436.5512 C1154.38874,6436.42887 1154.14583,6436.13315 1153.91524,6435.892 C1153.68553,6435.64909 1153.4259,6435.36218 1153.33525,6435.24864 C1153.249,6435.14039 1153.14163,6435.06382 1153.10554,6435.08582 C1153.06946,6435.10871 1153.03954,6435.08582 1153.03954,6435.03654 C1153.03954,6434.98549 1152.92512,6434.77779 1152.78959,6434.57712 C1152.50443,6434.15995 1152.47715,6433.98393 1152.68925,6433.93993 C1152.76758,6433.92232 1153.23932,6433.91968 1153.7489,6433.93288 C1154.86664,6433.96105 1155.32869,6433.96633 1156.08559,6433.96281 C1156.41123,6433.96105 1156.76239,6433.96281 1156.87856,6433.96809 C1156.9921,6433.97249 1157.29573,6433.94961 1157.54568,6433.91792 C1157.79827,6433.88536 1158.26385,6433.84047 1158.58069,6433.81759 C1158.89753,6433.79471 1159.26189,6433.72166 1159.39039,6433.65477 C1159.51536,6433.59052 1159.67026,6433.5342 1159.72395,6433.5342 C1159.85156,6433.5342 1160.29426,6433.05014 1160.38755,6432.80811 C1160.42715,6432.70602 1160.44124,6432.49127 1160.42011,6432.32405 C1160.35674,6431.82063 1160.03287,6431.60764 1159.44055,6431.67717 C1159.173,6431.70797 1159.00402,6431.68509 1158.91073,6431.60588 C1158.80072,6431.51347 1158.39763,6431.49323 1156.92873,6431.50907 C1154.81735,6431.53283 1154.96697,6431.52579 1154.37466,6431.62172 C1152.95593,6431.85319 1150.05245,6431.82767 1149.80866,6431.58124 C1149.77698,6431.54867 1149.73649,6431.28464 1149.71801,6430.99245 L1149.68457,6430.46262 L1149.9266,6430.49079 C1150.40186,6430.54535 1151.26348,6430.55327 1151.34533,6430.50487 C1151.3911,6430.4767 1151.62872,6430.50751 1151.87075,6430.57088 C1152.11278,6430.63512 1152.34337,6430.67121 1152.38034,6430.65097 C1152.41994,6430.62808 1152.46659,6430.6448 1152.49739,6430.69233 C1152.52643,6430.73986 1152.75526,6430.7513 1153.06418,6430.72137 C1153.34933,6430.69409 1153.8818,6430.66153 1154.24968,6430.65097 C1154.61669,6430.63952 1155.16147,6430.58496 1155.45983,6430.53039 C1156.13311,6430.40718 1155.60153,6430.4019 1159.841,6430.58232 C1161.11804,6430.636 1161.38207,6430.62896 1161.50176,6430.54007 C1161.60298,6430.46438 1161.97702,6430.35965 1162.29474,6430.31917 C1162.65558,6430.27252 1162.94954,6430.06305 1163.17485,6429.70397 C1162.69695,6429.75238 1162.20673,6429.73741 1161.72443,6429.71101 C1158.08167,6429.52003 1154.43891,6429.32816 1150.79614,6429.1363 C1150.02957,6429.09582 1149.1653,6429.09054 1148.61876,6429.63004 C1147.90939,6430.33061 1148.17254,6431.5874 1148.83879,6432.33021 C1149.50503,6433.0739 1150.45554,6433.48227 1151.27932,6434.04554 C1152.61356,6434.95645 1153.61161,6436.26869 1154.58588,6437.55716 C1155.16411,6438.32286 1155.74938,6439.1968 1156.04598,6440.09627 C1156.15951,6440.06987 1156.26337,6440.02586 1156.35226,6439.94225 C1156.70166,6439.61662 1156.5494,6439.14224 1155.87084,6438.43287 L1155.87084,6438.43287 Z M1151.27932,6434.04554 C1150.45554,6433.48227 1149.50503,6433.0739 1148.83879,6432.33021 C1148.17254,6431.5874 1147.90939,6430.33061 1148.61876,6429.63004 C1149.1653,6429.09054 1150.02957,6429.09582 1150.79614,6429.1363 C1154.43891,6429.32816 1158.08167,6429.52003 1161.72443,6429.71101 C1162.20673,6429.73741 1162.69695,6429.75238 1163.17485,6429.70397 C1163.23998,6429.60012 1163.3007,6429.48922 1163.35351,6429.36073 C1163.36319,6429.33785 1163.31918,6429.21903 1163.25494,6429.09406 C1163.09916,6428.79394 1162.4866,6428.61 1161.64346,6428.61 C1161.06787,6428.61 1160.55213,6428.52639 1160.21593,6428.37853 C1159.95894,6428.26412 1158.87288,6428.24211 1157.17076,6428.31604 C1154.65893,6428.42606 1152.57748,6428.45422 1151.70441,6428.38909 C1151.36205,6428.36357 1150.83223,6428.33364 1150.53563,6428.3222 C1150.23551,6428.31076 1149.91164,6428.25795 1149.80954,6428.20339 C1149.61328,6428.09866 1149.20051,6428.08193 1148.80798,6428.16114 C1148.6346,6428.19547 1148.4973,6428.3178 1148.32128,6428.59328 C1148.05549,6429.01045 1148.00708,6429.23311 1148.13206,6429.46986 C1148.19367,6429.58692 1148.18047,6429.66701 1148.08189,6429.77438 C1148.00532,6429.85799 1147.949,6429.96008 1147.949,6430.01201 C1147.949,6430.06393 1147.89003,6430.16251 1147.81522,6430.23732 C1147.71137,6430.34029 1147.6832,6430.52511 1147.69025,6431.05141 C1147.69465,6431.42722 1147.72633,6431.75198 1147.76065,6431.7775 C1147.79498,6431.80215 1147.87859,6431.93152 1147.94724,6432.0653 C1148.1039,6432.37421 1148.78334,6433.11615 1148.90831,6433.11615 C1148.95848,6433.11615 1149.08081,6433.20856 1149.17587,6433.31681 C1149.27092,6433.42682 1149.46718,6433.54388 1149.60976,6433.57556 C1149.82627,6433.62485 1149.86851,6433.67237 1149.86851,6433.87216 C1149.86851,6434.00505 1149.90107,6434.13003 1149.94332,6434.15555 C1149.98556,6434.18107 1150.04365,6434.31397 1150.0771,6434.45567 C1150.10878,6434.59472 1150.29976,6434.87724 1150.49867,6435.0779 C1150.69581,6435.27857 1150.94488,6435.60861 1151.04521,6435.80399 C1151.14731,6436.00466 1151.27228,6436.19916 1151.32861,6436.24581 C1151.38317,6436.29157 1151.61112,6436.56704 1151.82939,6436.85132 C1152.04677,6437.13471 1152.25624,6437.37234 1152.28792,6437.37234 C1152.32049,6437.37234 1152.3997,6437.47708 1152.46307,6437.60205 C1152.52731,6437.72791 1152.66197,6437.90745 1152.75966,6437.99898 C1152.85559,6438.08787 1152.96473,6438.25333 1152.99289,6438.35366 C1153.02281,6438.45311 1153.08266,6438.54112 1153.12227,6438.54112 C1153.16451,6438.54112 1153.33701,6438.69162 1153.51479,6438.88349 C1153.95045,6439.35346 1154.43274,6439.67294 1155.10075,6439.93169 C1155.53728,6440.10067 1155.82155,6440.1482 1156.04598,6440.09627 C1155.74938,6439.1968 1155.16411,6438.32286 1154.58588,6437.55716 C1153.61161,6436.26869 1152.61356,6434.95645 1151.27932,6434.04554 L1151.27932,6434.04554 Z M1170.65664,6408.856 C1170.65224,6408.66413 1170.60471,6408.4001 1170.55278,6408.27161 C1170.31163,6407.6881 1169.96927,6406.99897 1169.8971,6406.95585 C1169.85574,6406.9312 1169.77829,6406.77366 1169.72196,6406.59852 C1169.66564,6406.42338 1169.55386,6406.18839 1169.46761,6406.0643 C1169.38048,6405.93932 1169.31271,6405.80027 1169.31271,6405.74306 C1169.31271,6405.68761 1169.20094,6405.50191 1169.06276,6405.32589 C1168.92459,6405.15075 1168.81281,6404.97561 1168.81281,6404.93336 C1168.81281,6404.892 1168.7204,6404.66669 1168.60335,6404.42466 C1168.48717,6404.18263 1168.393,6403.94412 1168.39124,6403.88691 C1168.3886,6403.82795 1168.33403,6403.71089 1168.26539,6403.61936 C1168.20114,6403.53223 1168.14481,6403.36941 1168.14481,6403.26908 C1168.14481,6403.16875 1168.10521,6403.05785 1168.0612,6403.03057 C1168.01632,6403.00417 1167.97759,6402.88887 1167.97759,6402.78062 C1167.97759,6402.67237 1167.94503,6402.55971 1167.90718,6402.53419 C1167.86758,6402.50867 1167.81213,6402.30976 1167.78133,6402.08357 C1167.73644,6401.75001 1167.66163,6401.61096 1167.35183,6401.2906 C1167.14237,6401.07409 1166.92674,6400.90247 1166.86338,6400.90247 C1166.80529,6400.90247 1166.72432,6400.87695 1166.69704,6400.84878 C1166.66711,6400.81886 1166.51749,6400.78102 1166.367,6400.76517 C1165.96655,6400.72205 1165.39096,6401.10842 1165.39096,6401.41997 C1165.39096,6401.54583 1165.34783,6401.73857 1165.29414,6401.85387 C1165.2167,6402.02373 1165.23254,6402.13374 1165.37864,6402.44266 C1165.47721,6402.65124 1165.5573,6402.87919 1165.5573,6402.94784 C1165.5573,6403.01385 1165.5969,6403.07281 1165.64091,6403.07281 C1165.68843,6403.07281 1165.72452,6403.11066 1165.72452,6403.15994 C1165.72452,6403.20835 1165.90846,6403.63168 1166.13377,6404.09902 C1166.35731,6404.56724 1166.66271,6405.30829 1166.80969,6405.74306 C1166.95579,6406.17783 1167.10981,6406.57212 1167.15117,6406.61524 C1167.19166,6406.65749 1167.22686,6406.78246 1167.22686,6406.8828 C1167.22686,6406.98313 1167.26118,6407.09138 1167.30167,6407.11603 C1167.34215,6407.14067 1167.40024,6407.29117 1167.42664,6407.44167 C1167.45393,6407.59216 1167.57362,6407.83331 1167.6854,6407.96269 C1167.80069,6408.09646 1167.89486,6408.23904 1167.89486,6408.28041 C1167.89486,6408.36666 1168.46253,6409.2406 1168.62711,6409.40694 C1168.81633,6409.59881 1169.14637,6410.14975 1169.14637,6410.27473 C1169.14637,6410.33546 1169.21942,6410.46307 1169.31271,6410.56252 C1169.406,6410.66286 1169.47993,6410.77727 1169.47993,6410.82128 C1169.47993,6410.86616 1169.58819,6410.92513 1169.73076,6410.95593 C1170.01592,6411.0193 1170.46565,6410.78343 1170.68128,6410.45867 C1170.82034,6410.24745 1170.8441,6409.76603 1170.73233,6409.41574 C1170.69536,6409.30133 1170.66104,6409.04786 1170.65664,6408.856 L1170.65664,6408.856 Z M1174.62504,6440.26877 C1174.4499,6440.157 1174.36629,6440.15612 1173.85671,6440.26525 C1173.53987,6440.33214 1173.19046,6440.36559 1173.07253,6440.34006 C1172.95372,6440.31366 1172.67648,6440.27494 1172.44237,6440.25205 C1172.21091,6440.22917 1171.61683,6440.1614 1171.10725,6440.10155 C1170.59855,6440.04171 1170.05552,6440.01706 1169.88918,6440.04699 C1169.25463,6440.16228 1166.80089,6440.18428 1165.64091,6440.08571 C1165.20701,6440.04875 1164.55574,6440.01442 1164.20105,6440.01002 C1163.84285,6440.00562 1163.55417,6439.99594 1163.55417,6439.98802 C1163.55417,6439.97306 1164.14913,6439.3253 1164.3938,6439.07535 C1164.48269,6438.98294 1164.55662,6438.87292 1164.55662,6438.82892 C1164.55662,6438.78579 1164.63142,6438.70306 1164.72296,6438.64586 C1164.81537,6438.58777 1164.89018,6438.49448 1164.89018,6438.43639 C1164.89018,6438.37918 1165.09612,6438.10723 1165.34959,6437.83176 C1165.6013,6437.55628 1165.83189,6437.228 1165.86269,6437.10127 C1165.89174,6436.97629 1165.94454,6436.87244 1165.97887,6436.87244 C1166.01407,6436.87244 1166.0616,6436.78883 1166.08712,6436.6797 C1166.11264,6436.57409 1166.24378,6436.35934 1166.37932,6436.20004 C1166.51485,6436.04162 1166.71552,6435.80751 1166.82641,6435.67902 C1166.93554,6435.55052 1167.07724,6435.30761 1167.13885,6435.14039 C1167.20134,6434.97405 1167.40112,6434.67745 1167.58154,6434.48559 C1168.17121,6433.85896 1168.23986,6433.54388 1167.92214,6432.92516 C1167.74172,6432.574 1167.15029,6432.17707 1166.90122,6432.24044 C1166.45589,6432.35309 1166.07304,6432.73242 1165.721,6433.40922 C1165.53001,6433.77535 1165.30295,6434.15291 1165.21582,6434.24796 C1165.13044,6434.33949 1165.05652,6434.45743 1165.05652,6434.50231 C1165.05652,6434.54808 1164.94738,6434.73114 1164.81097,6434.91508 C1164.67367,6435.09815 1164.56278,6435.27241 1164.56014,6435.30761 C1164.55838,6435.34194 1164.407,6435.56636 1164.22217,6435.80839 C1164.03823,6436.04954 1163.88861,6436.28189 1163.88861,6436.32502 C1163.88861,6436.36814 1163.74692,6436.5468 1163.5797,6436.71314 C1163.12028,6437.17256 1162.97682,6437.34858 1162.87297,6437.58181 C1162.81928,6437.69886 1162.69167,6437.84584 1162.58254,6437.91537 C1162.4734,6437.9849 1162.38627,6438.09051 1162.38627,6438.153 C1162.38627,6438.21372 1162.29474,6438.35014 1162.18561,6438.44959 C1162.07559,6438.55081 1161.81068,6438.98294 1161.5933,6439.41771 C1161.37679,6439.8516 1161.13036,6440.26525 1161.04235,6440.34358 C1160.95962,6440.41839 1160.88393,6440.52929 1160.88393,6440.57769 C1160.88393,6440.69475 1160.1244,6441.64174 1159.6993,6442.05539 C1159.52328,6442.22525 1159.38159,6442.39335 1159.38159,6442.43032 C1159.38159,6442.50337 1157.87836,6444.14477 1157.50256,6444.50385 L1157.26053,6444.73532 L1157.10563,6444.48097 C1157.02026,6444.33839 1156.95161,6444.20637 1156.95161,6444.18085 C1156.95161,6444.15533 1156.81783,6444.00131 1156.65942,6443.84201 C1156.501,6443.68359 1156.36722,6443.52341 1156.36722,6443.49173 C1156.36722,6443.45916 1156.45171,6443.34211 1156.55908,6443.22505 C1156.66646,6443.108 1156.80815,6442.93374 1156.88032,6442.82813 C1156.95337,6442.72339 1157.13643,6442.50337 1157.29837,6442.32734 C1157.45327,6442.15836 1158.31226,6441.24921 1158.46804,6441.04943 C1158.62293,6440.84876 1158.84472,6440.57945 1158.94769,6440.46504 C1159.05243,6440.34886 1159.20292,6440.1482 1159.27773,6440.02234 C1159.35254,6439.89737 1159.44583,6439.79264 1159.48192,6439.79264 C1159.51976,6439.79264 1159.54881,6439.75567 1159.54881,6439.70551 C1159.54881,6439.6571 1159.64386,6439.51716 1159.76179,6439.39219 C1159.88061,6439.26721 1160.10415,6438.95389 1160.26697,6438.68722 C1160.42891,6438.42055 1160.59173,6438.20756 1160.63398,6438.20756 C1160.76599,6438.20756 1161.38471,6437.50612 1161.38471,6437.3565 C1161.38471,6437.27289 1161.42167,6437.206 1161.46832,6437.206 C1161.51497,6437.206 1161.55193,6437.16024 1161.55193,6437.10127 C1161.55193,6437.04406 1161.62674,6436.94989 1161.71915,6436.89268 C1161.81068,6436.83548 1161.88549,6436.7325 1161.88549,6436.66386 C1161.88549,6436.59697 1161.91717,6436.538 1161.95238,6436.538 C1161.98846,6436.538 1162.08351,6436.42975 1162.15744,6436.30477 C1162.34931,6435.97913 1162.59926,6435.70366 1162.70311,6435.70366 C1162.81136,6435.70366 1163.05427,6435.23632 1163.05427,6435.02774 C1163.05427,6434.94413 1163.20037,6434.77427 1163.38343,6434.64401 C1163.56737,6434.51376 1163.79092,6434.27349 1163.88861,6434.10186 C1163.98367,6433.93464 1164.16497,6433.71198 1164.28554,6433.61781 C1164.41052,6433.51835 1164.51525,6433.38458 1164.52669,6433.30889 C1164.53901,6433.2332 1164.5839,6433.15223 1164.63142,6433.12231 C1164.72296,6433.06422 1165.2299,6432.13483 1165.21582,6432.04858 C1165.21053,6432.01337 1165.21317,6431.97377 1165.22198,6431.94824 C1165.39976,6431.45626 1165.15245,6430.614 1164.77312,6430.41686 C1164.17201,6430.10354 1163.84197,6430.15547 1163.40808,6430.62984 C1163.33239,6430.71345 1163.22237,6430.77946 1163.16253,6430.77946 C1163.10444,6430.77946 1163.05427,6430.82787 1163.05427,6430.88419 C1163.05427,6430.94316 1162.9557,6431.09718 1162.82632,6431.23888 C1162.48484,6431.6138 1162.21905,6432.00897 1162.21905,6432.14011 C1162.21905,6432.20435 1162.14424,6432.32493 1162.05271,6432.40766 C1161.9603,6432.49039 1161.88549,6432.60832 1161.88549,6432.66993 C1161.88549,6432.7289 1161.84589,6432.78346 1161.80188,6432.78346 C1161.75435,6432.78346 1161.71915,6432.83275 1161.71915,6432.89964 C1161.71915,6432.96653 1161.6681,6433.05806 1161.6021,6433.11262 C1161.53785,6433.16543 1161.40759,6433.36698 1161.3143,6433.55884 C1161.22013,6433.7507 1161.0089,6434.0605 1160.84608,6434.24356 C1160.68326,6434.42662 1160.55037,6434.62377 1160.55037,6434.68186 C1160.55037,6434.73994 1160.5134,6434.78571 1160.46676,6434.78571 C1160.42187,6434.78571 1160.38315,6434.83587 1160.38315,6434.89396 C1160.38315,6434.95557 1160.27489,6435.10783 1160.1332,6435.24424 C1159.9915,6435.38242 1159.88325,6435.53028 1159.88325,6435.58661 C1159.88325,6435.64557 1159.85508,6435.69926 1159.81548,6435.71774 C1159.71515,6435.76263 1159.38159,6436.27133 1159.38159,6436.37958 C1159.38159,6436.46495 1159.09027,6436.92965 1158.96442,6437.0423 C1158.94153,6437.06342 1158.8456,6437.23065 1158.75055,6437.41459 C1158.4874,6437.92329 1158.35538,6438.1398 1158.19344,6438.32374 C1158.11247,6438.41615 1158.04646,6438.5244 1158.04646,6438.56665 C1158.04646,6438.60713 1157.91269,6438.80428 1157.75427,6438.99614 C1157.59673,6439.188 1157.46295,6439.38867 1157.46295,6439.43443 C1157.46295,6439.48196 1157.39871,6439.59285 1157.31422,6439.69318 C1157.21036,6439.81552 1156.73334,6440.42631 1156.23696,6441.07231 C1156.25369,6441.4402 1156.21056,6441.80896 1156.06974,6442.17245 C1155.81275,6442.83341 1155.28733,6443.35707 1154.98633,6443.99955 C1154.68534,6444.64115 1154.7047,6445.5547 1155.32517,6445.8997 C1155.65609,6446.08364 1156.06534,6446.0502 1156.43147,6445.95162 C1158.59565,6445.37163 1159.74243,6442.9663 1161.71651,6441.90665 C1163.24702,6441.08375 1165.08556,6441.16472 1166.82025,6441.26594 C1168.45989,6441.36187 1170.1541,6441.60126 1171.75677,6441.35307 C1172.80322,6441.19025 1173.80038,6440.93678 1174.81514,6440.78628 C1174.81338,6440.46152 1174.77818,6440.36647 1174.62504,6440.26877 L1174.62504,6440.26877 Z M1153.15483,6448.01284 C1153.08794,6447.98731 1153.02897,6447.92218 1153.02897,6447.8729 C1153.02897,6447.72416 1151.97813,6446.77452 1151.69385,6446.66715 C1151.41486,6446.56154 1151.4263,6446.5545 1150.89383,6447.15561 C1150.57964,6447.50941 1150.44234,6447.8729 1150.44234,6448.34904 C1150.44234,6448.59899 1150.48018,6448.83045 1150.52595,6448.85774 C1150.56996,6448.88414 1150.6122,6448.97479 1150.61572,6449.0496 C1150.62804,6449.32507 1151.0681,6449.92971 1151.3022,6449.9922 C1151.55215,6450.05996 1152.1119,6449.93939 1152.1119,6449.81793 C1152.1119,6449.77833 1152.17791,6449.722 1152.2536,6449.69824 C1152.47979,6449.62783 1153.0589,6449.0584 1153.17507,6448.79173 C1153.31765,6448.46609 1153.30709,6448.0718 1153.15483,6448.01284 L1153.15483,6448.01284 Z M1171.75677,6441.35307 C1172.80322,6441.19025 1173.80038,6440.93678 1174.81514,6440.78628 C1174.81514,6440.81532 1174.8169,6440.8338 1174.8169,6440.86549 C1174.81426,6441.12424 1174.7685,6441.39355 1174.71481,6441.4622 C1174.55199,6441.6699 1173.83646,6442.13372 1173.54427,6442.22085 C1172.83402,6442.43296 1169.98864,6442.43384 1168.61215,6442.22261 C1168.10785,6442.14516 1167.78573,6442.14252 1167.24358,6442.21293 C1166.80969,6442.26926 1166.27106,6442.2807 1165.85829,6442.24285 C1165.48249,6442.20765 1165.0706,6442.18389 1164.93154,6442.18917 C1163.83845,6442.22789 1163.2787,6442.28774 1163.22677,6442.37223 C1163.12556,6442.53505 1162.05183,6442.43824 1161.91893,6442.25518 C1161.82036,6442.11876 1161.72003,6442.19621 1160.84432,6443.08952 C1160.16312,6443.78304 1159.37191,6444.36039 1158.71711,6445.08032 C1158.44691,6445.3778 1158.07111,6445.75536 1157.99982,6446.15493 C1157.92677,6446.5633 1158.06759,6447.12217 1158.08695,6447.53934 C1158.13095,6448.51626 1158.11687,6448.70284 1157.96109,6449.18338 C1157.86428,6449.48349 1157.78595,6449.81881 1157.78595,6449.93499 C1157.78595,6450.0494 1157.6733,6450.27295 1157.536,6450.43137 C1157.39783,6450.58979 1157.28517,6450.75085 1157.28517,6450.79045 C1157.28517,6450.8283 1157.18836,6450.97352 1157.07307,6451.10729 C1156.95425,6451.24459 1156.75271,6451.57903 1156.61805,6451.86242 C1156.48251,6452.1467 1156.25457,6452.48906 1156.10055,6452.6378 C1155.71682,6453.01008 1155.08842,6453.4607 1154.85696,6453.53023 C1154.7487,6453.56191 1154.59116,6453.64816 1154.51459,6453.71593 C1154.37554,6453.83914 1153.65473,6454.05389 1153.17155,6454.11462 C1153.02369,6454.13398 1152.78342,6454.17358 1152.63293,6454.20263 C1152.47451,6454.23519 1152.31345,6454.21759 1152.2448,6454.16214 C1152.16119,6454.09261 1152.1119,6454.09261 1152.06966,6454.16214 C1152.03357,6454.22023 1151.91124,6454.23783 1151.75194,6454.20791 C1151.47118,6454.1551 1151.11826,6454.10582 1150.56732,6454.04333 C1149.62384,6453.93596 1148.09333,6452.89655 1147.6744,6452.07893 C1147.61456,6451.96276 1147.53975,6451.84482 1147.51246,6451.82282 C1147.39453,6451.73041 1147.10409,6451.13634 1147.10409,6450.98584 C1147.10409,6450.90223 1147.06449,6450.80365 1147.02048,6450.77725 C1146.97472,6450.74997 1146.93687,6450.62323 1146.93687,6450.49738 C1146.93687,6450.3724 1146.90431,6450.23423 1146.86559,6450.19374 C1146.39473,6449.69912 1146.16678,6448.2487 1146.39913,6447.23042 C1146.71597,6445.84513 1147.72457,6444.18349 1148.70589,6443.42924 C1148.90655,6443.27522 1149.53055,6442.97422 1149.64936,6442.97422 C1149.71625,6442.97422 1149.81306,6442.92934 1149.87467,6442.86861 C1150.00317,6442.74364 1150.643,6442.57729 1151.23444,6442.51657 C1151.46854,6442.4928 1151.79946,6442.44528 1151.98605,6442.40919 C1152.41202,6442.32646 1153.46639,6442.51305 1153.88004,6442.74364 C1154.11415,6442.87389 1154.21712,6442.89325 1154.30161,6442.8246 C1154.3861,6442.75684 1154.47323,6442.76212 1154.64045,6442.84925 C1154.84816,6442.9575 1154.87368,6442.95134 1154.97313,6442.76564 C1155.03826,6442.64418 1155.65169,6441.83272 1156.23696,6441.07231 C1156.25369,6441.4402 1156.21056,6441.80896 1156.06974,6442.17245 C1155.81275,6442.83341 1155.28733,6443.35707 1154.98633,6443.99955 C1154.68534,6444.64115 1154.7047,6445.5547 1155.32517,6445.8997 C1155.65609,6446.08364 1156.06534,6446.0502 1156.43147,6445.95162 C1158.59565,6445.37163 1159.74243,6442.9663 1161.71651,6441.90665 C1163.24702,6441.08375 1165.08556,6441.16472 1166.82025,6441.26594 C1168.45989,6441.36187 1170.1541,6441.60126 1171.75677,6441.35307 L1171.75677,6441.35307 Z M1175.38897,6409.26877 C1175.62924,6409.33213 1176.04817,6408.99857 1176.20835,6408.61397 C1176.27876,6408.44587 1176.32365,6408.02166 1176.32365,6407.52087 C1176.32365,6407.07026 1176.35885,6406.55276 1176.40285,6406.36881 C1176.44598,6406.18575 1176.48911,6405.80995 1176.49791,6405.53447 C1176.50759,6405.259 1176.54543,6404.92896 1176.5824,6404.80046 C1176.61848,6404.67197 1176.65281,6404.25744 1176.65809,6403.88251 C1176.66865,6403.11506 1176.81386,6401.99204 1176.92036,6401.85387 C1177.06822,6401.66376 1177.08758,6400.86991 1176.95116,6400.61908 C1176.66161,6400.08749 1176.32365,6399.93523 1175.59756,6400.01092 C1174.75705,6400.09805 1174.71745,6400.20983 1174.63736,6402.73925 C1174.4939,6407.27885 1174.49302,6407.20404 1174.69985,6408.47227 C1174.74825,6408.77239 1175.11526,6409.1966 1175.38897,6409.26877 L1175.38897,6409.26877 Z M1171.67492,6415.87925 C1171.48482,6415.60378 1171.22695,6415.32654 1171.09493,6415.25701 C1170.96115,6415.18661 1170.8397,6415.11356 1170.81858,6415.09067 C1170.62583,6414.88209 1169.73428,6414.25545 1169.63043,6414.25545 C1169.55474,6414.25545 1169.45265,6414.20089 1169.39632,6414.13048 C1169.3444,6414.06447 1169.22118,6414.0055 1169.13757,6414.0055 C1169.05396,6414.0055 1168.97915,6413.9659 1168.97915,6413.92189 C1168.97915,6413.87789 1168.92107,6413.83828 1168.85418,6413.83828 C1168.78729,6413.83828 1168.7292,6413.80132 1168.7292,6413.75907 C1168.7292,6413.71683 1168.64119,6413.65258 1168.54086,6413.62178 C1168.43613,6413.58833 1168.17033,6413.44047 1167.93623,6413.28382 C1167.70212,6413.12716 1167.48209,6413.00394 1167.43545,6413.00394 C1167.38968,6413.00394 1167.23918,6412.90713 1167.1054,6412.79096 C1166.96723,6412.67126 1166.73048,6412.50052 1166.56326,6412.39843 C1166.39604,6412.2981 1166.24818,6412.19776 1166.22442,6412.1696 C1166.11704,6412.04462 1165.31791,6411.58521 1165.20701,6411.58521 C1165.13749,6411.58521 1164.8937,6411.43647 1164.66047,6411.25165 C1164.42724,6411.06595 1164.20369,6410.91721 1164.15969,6410.91721 C1164.11656,6410.91721 1164.01271,6410.8424 1163.92998,6410.75087 C1163.78124,6410.58453 1162.96186,6410.08287 1162.30266,6409.75371 C1161.52641,6409.36558 1161.07491,6409.11211 1160.68414,6408.84544 C1160.465,6408.6967 1160.05399,6408.45643 1159.77851,6408.31825 C1159.50304,6408.17919 1159.23197,6408.0287 1159.1818,6407.98645 C1158.78927,6407.65641 1158.68366,6407.57896 1158.62205,6407.57896 C1158.55517,6407.57896 1157.8634,6407.13099 1157.66274,6406.95673 C1157.60817,6406.9092 1157.4788,6406.81327 1157.37934,6406.74462 C1157.27549,6406.67421 1157.06602,6406.51931 1156.8988,6406.38994 C1156.73246,6406.26056 1156.58109,6406.15935 1156.55292,6406.15671 C1156.52564,6406.15407 1156.33994,6406.01237 1156.14015,6405.83899 L1155.77667,6405.52655 L1155.91044,6405.20883 C1155.98349,6405.03369 1156.04334,6404.84007 1156.04334,6404.77494 C1156.04334,6404.64909 1156.36898,6404.30496 1156.6779,6404.1043 C1156.78615,6404.03389 1156.87856,6403.92828 1156.87856,6403.87371 C1156.87856,6403.69857 1157.07219,6403.35093 1157.21212,6403.27436 C1157.59585,6403.06401 1158.03678,6402.66973 1158.13535,6402.44706 C1158.19872,6402.30536 1158.28673,6402.15926 1158.33866,6402.10998 C1158.57013,6401.89083 1159.13956,6401.55551 1159.39831,6401.4851 C1159.65706,6401.41469 1160.14992,6401.09609 1160.84256,6400.55131 C1160.97546,6400.44657 1161.27646,6400.29432 1161.50968,6400.21247 C1162.03599,6400.03028 1162.45228,6399.83842 1162.71983,6399.65536 C1162.90113,6399.53214 1163.73812,6399.21707 1164.15529,6399.11585 C1164.22922,6399.09825 1164.40612,6399.02344 1164.54781,6398.95039 C1164.68951,6398.87734 1164.83473,6398.8131 1164.86905,6398.8087 C1164.90338,6398.80342 1164.97379,6398.76557 1165.02307,6398.72509 C1165.07412,6398.68284 1165.38216,6398.61595 1165.71572,6398.57459 C1166.05016,6398.53322 1166.36171,6398.46281 1166.41716,6398.41793 C1166.61078,6398.26039 1167.52698,6398.03684 1168.22754,6397.97611 C1168.62007,6397.94267 1169.23614,6397.85026 1169.60491,6397.76929 C1169.98423,6397.68656 1170.72352,6397.61615 1171.31584,6397.60647 C1171.89231,6397.59767 1172.43357,6397.58095 1172.52598,6397.56863 C1172.61839,6397.55718 1173.08573,6397.57655 1173.56891,6397.61087 C1174.05297,6397.64519 1174.59512,6397.6628 1174.77906,6397.65048 C1175.26928,6397.61615 1175.31328,6397.62055 1175.94784,6397.76489 C1176.27348,6397.8397 1176.79098,6397.93563 1177.11662,6397.98228 C1177.44138,6398.02804 1177.85679,6398.13893 1178.05482,6398.23223 C1178.24668,6398.32288 1178.45174,6398.39945 1178.50103,6398.39945 C1178.5512,6398.39945 1178.71402,6398.45313 1178.85659,6398.5165 C1179.00357,6398.58163 1179.26936,6398.65116 1179.46123,6398.67492 C1179.65133,6398.6978 1179.95761,6398.8131 1180.14947,6398.93367 C1180.34133,6399.05337 1180.5816,6399.15018 1180.6881,6399.15018 C1180.86324,6399.15018 1181.56292,6399.45645 1181.66061,6399.57615 C1181.74862,6399.6844 1182.6657,6400.23271 1182.6657,6400.17726 C1182.6657,6400.14294 1182.70794,6400.16054 1182.76603,6400.21863 C1182.82147,6400.27407 1182.93325,6400.31896 1183.01686,6400.31896 C1183.09959,6400.31896 1183.16648,6400.3524 1183.16648,6400.39377 C1183.16648,6400.45978 1183.80103,6400.73789 1184.2182,6400.85406 C1184.47696,6400.92623 1185.10799,6400.76429 1185.23209,6400.59443 C1185.28313,6400.52402 1185.30866,6400.40433 1185.3201,6400.27671 C1185.06751,6400.08221 1184.83428,6399.7909 1184.41359,6399.45117 C1182.77659,6398.13101 1180.65377,6397.51142 1178.61896,6397.13913 C1174.70161,6396.42185 1170.61527,6396.45705 1166.78417,6397.5431 C1164.81801,6398.10021 1163.11412,6399.23643 1161.20869,6399.90355 C1159.26277,6400.58475 1157.24117,6400.9412 1155.58745,6402.31416 C1154.19512,6403.46974 1153.46551,6405.76418 1154.72318,6407.0641 C1155.13243,6407.48655 1155.68338,6407.73562 1156.21936,6407.97765 C1161.26237,6410.26417 1166.14169,6412.91065 1170.80801,6415.89245 C1171.42937,6416.28938 1171.80342,6416.69335 1172.00848,6417.107 C1172.01816,6417.03395 1172.02256,6416.9477 1172.02168,6416.82625 C1172.01816,6416.43988 1171.968,6416.30434 1171.67492,6415.87925 L1171.67492,6415.87925 Z M1170.80801,6415.89245 C1166.14169,6412.91065 1161.26237,6410.26417 1156.21936,6407.97765 C1155.68338,6407.73562 1155.13243,6407.48655 1154.72318,6407.0641 C1153.46551,6405.76418 1154.19512,6403.46974 1155.58745,6402.31416 C1157.24117,6400.9412 1159.26277,6400.58475 1161.20869,6399.90355 C1163.11412,6399.23643 1164.81801,6398.10021 1166.78417,6397.5431 C1170.61527,6396.45705 1174.70161,6396.42185 1178.61896,6397.13913 C1180.65377,6397.51142 1182.77659,6398.13101 1184.41359,6399.45117 C1184.83428,6399.7909 1185.06751,6400.08221 1185.3201,6400.27671 C1185.33946,6400.06989 1185.31394,6399.83754 1185.22945,6399.73457 C1185.17224,6399.66416 1184.99006,6399.51806 1184.81492,6399.40101 C1184.63978,6399.28395 1184.46199,6399.09649 1184.41183,6398.97504 C1184.3159,6398.74445 1184.11787,6398.54642 1183.73415,6398.29647 C1183.60653,6398.21286 1183.40059,6398.043 1183.25889,6397.90483 C1182.95965,6397.61263 1182.43247,6397.36796 1181.79791,6397.22626 C1181.53916,6397.16906 1181.33057,6397.09073 1181.33057,6397.05112 C1181.33057,6397.01064 1181.27601,6396.98071 1181.2012,6396.98071 C1181.13079,6396.98071 1180.77963,6396.88214 1180.42934,6396.76333 C1180.07906,6396.64539 1179.67685,6396.53186 1179.54484,6396.51338 C1179.41106,6396.49489 1179.24296,6396.42801 1179.16903,6396.36464 C1178.9358,6396.16397 1178.05922,6395.81193 1177.79254,6395.81193 C1177.64997,6395.81193 1177.38329,6395.76881 1177.19935,6395.716 C1177.01541,6395.66319 1176.32365,6395.61303 1175.65564,6395.60335 C1174.98852,6395.59455 1174.23955,6395.55934 1173.98608,6395.5259 C1173.36121,6395.44229 1170.59855,6395.43349 1170.1893,6395.51358 C1170.00624,6395.54878 1169.78973,6395.61391 1169.70964,6395.65791 C1169.62603,6395.7028 1169.56354,6395.71688 1169.56354,6395.69136 C1169.56354,6395.66583 1169.46761,6395.68256 1169.35056,6395.7292 C1169.2335,6395.77497 1168.73712,6395.83305 1168.24514,6395.8577 C1167.75228,6395.88322 1167.25766,6395.93955 1167.14325,6395.98267 C1166.94523,6396.05748 1166.05808,6396.2423 1165.22374,6396.38312 C1165.01515,6396.41833 1164.79864,6396.47641 1164.73528,6396.51338 C1164.67279,6396.55034 1164.44748,6396.63043 1164.23098,6396.6938 C1163.00323,6397.04848 1162.29562,6397.3442 1161.84413,6397.69184 C1161.66018,6397.83354 1161.28438,6398.01748 1161.0089,6398.10109 C1160.39195,6398.28855 1159.38951,6398.84214 1158.94769,6399.23995 C1158.86936,6399.31036 1158.6643,6399.41597 1158.48916,6399.47582 C1158.31314,6399.53566 1158.11599,6399.6316 1158.04646,6399.6888 C1157.97694,6399.74689 1157.66274,6399.97044 1157.3371,6400.19398 C1157.0185,6400.41225 1156.3989,6400.94912 1155.97293,6401.37421 C1155.54696,6401.80018 1155.17379,6402.15486 1155.15091,6402.15486 C1155.05938,6402.15486 1154.71878,6402.60548 1154.52604,6402.98128 C1154.41866,6403.18987 1154.19424,6403.50319 1154.01997,6403.68625 C1153.84571,6403.87019 1153.70754,6404.03301 1153.70754,6404.05325 C1153.70754,6404.07438 1153.63097,6404.19935 1153.53152,6404.34105 C1153.38542,6404.54963 1153.37134,6404.62532 1153.44791,6404.79166 C1153.58432,6405.09266 1153.5632,6405.35229 1153.3863,6405.54327 C1153.24812,6405.69201 1153.24108,6405.77298 1153.31941,6406.29049 C1153.36694,6406.60732 1153.44791,6406.9092 1153.49807,6406.95673 C1153.63185,6407.08346 1154.42306,6407.49623 1154.53308,6407.49623 C1154.58324,6407.49623 1154.74166,6407.5992 1154.88336,6407.72506 C1155.02594,6407.85091 1155.16675,6407.95477 1155.19668,6407.95477 C1155.22748,6407.95477 1155.29701,6407.98469 1155.3551,6408.02166 C1155.41318,6408.0595 1155.45983,6408.06654 1155.45983,6408.03838 C1155.45983,6408.01109 1155.56808,6408.06478 1155.70186,6408.15983 C1155.83476,6408.254 1155.99934,6408.33057 1156.06886,6408.33057 C1156.13575,6408.33057 1156.20792,6408.36226 1156.22376,6408.39746 C1156.29857,6408.56644 1158.02182,6409.65689 1158.22161,6409.66217 C1158.29377,6409.66394 1158.50588,6409.77395 1158.68102,6409.8998 C1158.85968,6410.0283 1159.15628,6410.20256 1159.34022,6410.28793 C1159.52328,6410.37242 1159.69314,6410.46835 1159.71603,6410.50004 C1159.73891,6410.5326 1159.90789,6410.63557 1160.09095,6410.72974 C1160.27489,6410.82392 1160.5002,6410.97177 1160.59173,6411.05802 C1160.75015,6411.20764 1161.46216,6411.58521 1161.58537,6411.58521 C1161.66106,6411.58521 1162.45316,6412.13704 1162.71983,6412.37554 C1162.83601,6412.47852 1163.09564,6412.64398 1163.30422,6412.74607 C1163.76364,6412.97138 1163.96694,6413.09547 1164.13064,6413.24685 C1164.20017,6413.3111 1164.37707,6413.41319 1164.52669,6413.47568 C1164.67719,6413.53817 1164.82769,6413.63674 1164.86465,6413.69659 C1164.9025,6413.75731 1165.06092,6413.88317 1165.22814,6413.98438 C1165.39448,6414.08559 1165.61186,6414.24137 1165.72452,6414.33994 C1165.99999,6414.58285 1166.79033,6415.09067 1166.89242,6415.09067 C1166.93906,6415.09067 1167.18461,6415.22973 1167.44337,6415.40311 C1167.70212,6415.57649 1168.00047,6415.76484 1168.11137,6415.82468 C1168.21962,6415.88365 1168.31203,6415.9655 1168.31203,6416.00423 C1168.31203,6416.04295 1168.49509,6416.15384 1168.7204,6416.24978 C1168.94571,6416.34659 1169.19742,6416.49092 1169.27927,6416.57189 C1169.43769,6416.72591 1169.47993,6416.75408 1170.11449,6417.11756 C1170.3398,6417.24694 1170.63551,6417.42208 1170.77369,6417.50921 C1171.11605,6417.72395 1171.47514,6417.71163 1171.77525,6417.47488 C1171.93015,6417.35167 1171.98736,6417.27422 1172.00848,6417.107 C1171.80342,6416.69335 1171.42937,6416.28938 1170.80801,6415.89245 L1170.80801,6415.89245 Z M1190.97831,6402.36785 C1191.09888,6402.1091 1191.22826,6401.90491 1191.2705,6401.90491 C1191.31011,6401.90491 1191.34531,6401.82922 1191.34531,6401.74561 C1191.34531,6401.65936 1191.52397,6401.38741 1191.7396,6401.1445 C1192.18933,6400.64108 1192.26678,6400.52754 1192.53169,6399.99332 C1192.73324,6399.58759 1192.75348,6399.55943 1193.2701,6398.98384 C1193.45757,6398.77437 1193.68111,6398.46721 1193.77353,6398.29119 C1193.86594,6398.11517 1193.98915,6397.95499 1194.049,6397.93211 C1194.10885,6397.90923 1194.22854,6397.76137 1194.31655,6397.60207 C1194.40368,6397.44365 1194.50842,6397.31427 1194.54978,6397.31427 C1194.78741,6397.31427 1195.25035,6396.17982 1195.38412,6395.26979 C1195.3938,6395.2029 1195.42637,6395.12809 1195.45981,6395.09464 C1195.56982,6394.98463 1195.50998,6394.75316 1195.32603,6394.57978 C1194.98367,6394.25766 1194.51634,6394.17933 1194.51634,6394.44337 C1194.51634,6394.50937 1194.45825,6394.56042 1194.38344,6394.56042 C1194.22414,6394.56042 1193.68199,6394.98023 1193.68199,6395.10257 C1193.68199,6395.14833 1193.60631,6395.2337 1193.51477,6395.29003 C1193.42324,6395.34812 1193.34755,6395.44141 1193.34755,6395.49949 C1193.34755,6395.5567 1193.1997,6395.75384 1193.01839,6395.93691 C1192.83709,6396.12085 1192.68747,6396.31623 1192.68571,6396.3708 C1192.68043,6396.49665 1192.33631,6397.09689 1192.24654,6397.13561 C1192.2087,6397.15145 1192.17965,6397.21482 1192.17965,6397.28083 C1192.17965,6397.34772 1192.14005,6397.39788 1192.08812,6397.39788 C1191.91562,6397.39788 1191.4254,6397.8397 1191.29338,6398.11517 C1191.22034,6398.26919 1191.04607,6398.5165 1190.8991,6398.67492 C1190.753,6398.83246 1190.52593,6399.09209 1190.38951,6399.25931 C1190.2531,6399.42565 1190.07708,6399.57615 1189.99347,6399.59727 C1189.9125,6399.61663 1189.84297,6399.71345 1189.84297,6399.80586 C1189.84297,6399.89739 1189.77168,6399.99772 1189.68895,6400.02236 C1189.60182,6400.04789 1189.49269,6400.16054 1189.43988,6400.27671 C1189.33779,6400.50114 1189.06055,6400.83646 1188.54657,6401.35397 C1188.35647,6401.54495 1188.08275,6401.87939 1187.92345,6402.11262 C1187.76504,6402.34673 1187.61014,6402.54299 1187.57317,6402.55971 C1187.53797,6402.57467 1187.50628,6402.63452 1187.50628,6402.68469 C1187.50628,6402.73837 1187.35579,6402.9276 1187.16392,6403.11506 C1186.97206,6403.30164 1186.73795,6403.57976 1186.6297,6403.74874 C1186.5232,6403.91596 1186.38943,6404.10078 1186.3287,6404.16591 C1185.99338,6404.52499 1185.3333,6405.33733 1185.10095,6405.67705 C1184.95309,6405.89356 1184.79467,6406.0775 1184.75595,6406.0775 C1184.71723,6406.0775 1184.60369,6406.24384 1184.5016,6406.4533 C1184.39951,6406.66101 1184.28861,6406.82823 1184.25165,6406.82823 C1184.21468,6406.82823 1184.14076,6406.96641 1184.08443,6407.14155 C1184.02898,6407.31669 1183.8776,6407.564 1183.74207,6407.70394 C1183.30729,6408.15543 1182.80211,6408.7231 1182.45799,6409.14819 C1182.16139,6409.51608 1181.73718,6409.85404 1181.55588,6409.869 C1181.47579,6409.87516 1181.16863,6410.26681 1181.16599,6410.36714 C1181.16423,6410.40234 1181.05686,6410.54228 1180.93453,6410.66726 C1180.81131,6410.79223 1180.64849,6410.98234 1180.58424,6411.07651 C1180.51471,6411.17596 1180.39854,6411.27101 1180.31229,6411.29741 C1180.23132,6411.32206 1180.16267,6411.41447 1180.16267,6411.49808 C1180.16267,6411.58081 1180.09138,6411.66882 1180.00777,6411.68994 C1179.92328,6411.71018 1179.66101,6411.96894 1179.42778,6412.26113 C1179.19455,6412.55333 1178.92436,6412.87457 1178.83107,6412.9705 C1178.73338,6413.07083 1178.66033,6413.1782 1178.66033,6413.22133 C1178.66033,6413.26181 1178.46935,6413.50032 1178.24228,6413.74235 C1178.01697,6413.98438 1177.82511,6414.20441 1177.82511,6414.22289 C1177.82511,6414.24049 1177.70981,6414.37691 1177.57516,6414.51861 C1177.43962,6414.6603 1177.32433,6414.83368 1177.32433,6414.89441 C1177.32433,6414.9525 1177.28472,6415.00706 1177.2416,6415.00706 C1177.19407,6415.00706 1177.15623,6415.05283 1177.15359,6415.11092 C1177.15183,6415.16988 1177.01189,6415.32566 1176.83675,6415.4656 C1176.66513,6415.6029 1176.43278,6415.89597 1176.32365,6416.11248 C1176.21363,6416.32987 1176.09306,6416.50853 1176.05609,6416.50853 C1176.01913,6416.50853 1175.9892,6416.55517 1175.9892,6416.61326 C1175.9892,6416.67047 1175.9144,6416.76464 1175.82286,6416.82184 C1175.73045,6416.87905 1175.65564,6416.96178 1175.65564,6417.00579 C1175.65564,6417.05067 1175.57379,6417.16861 1175.46818,6417.27686 C1175.36257,6417.38423 1175.18831,6417.5937 1175.07125,6417.75212 C1174.85651,6418.04431 1174.19731,6418.7308 1174.08641,6418.77656 C1174.05033,6418.79152 1173.86551,6419.03003 1173.67804,6419.30463 C1173.4897,6419.5801 1173.22743,6419.94446 1173.09453,6420.11433 C1172.73633,6420.57374 1172.53831,6420.84745 1172.40189,6421.07364 C1172.33324,6421.18806 1172.16162,6421.40808 1172.02432,6421.55858 C1171.62035,6422.00039 1171.19086,6422.52494 1171.15742,6422.61823 C1171.06413,6422.87698 1170.17082,6423.76941 1170.00624,6423.76941 C1169.78709,6423.76941 1169.8971,6423.8979 1170.12241,6423.90583 C1170.69888,6423.92519 1171.35896,6424.16194 1171.44345,6424.37932 C1171.4681,6424.44181 1171.67052,6424.4779 1171.98736,6424.47539 C1172.44677,6424.47085 1172.51102,6424.44797 1172.6932,6424.22442 C1172.80146,6424.09153 1172.89563,6423.91111 1172.89739,6423.83278 C1172.90003,6423.74917 1172.94403,6423.6858 1173.00212,6423.68404 C1173.11742,6423.6814 1173.65252,6423.01076 1173.65252,6422.86818 C1173.65252,6422.74673 1173.96144,6422.20106 1174.11986,6422.04176 C1174.18499,6421.97751 1174.23691,6421.8587 1174.23691,6421.77509 C1174.23691,6421.69148 1174.3302,6421.52514 1174.4455,6421.39928 C1174.56167,6421.27431 1174.65408,6421.15813 1174.65408,6421.13701 C1174.65408,6421.11589 1175.1135,6420.63183 1175.68029,6420.05624 C1177.09198,6418.62078 1177.65877,6418.01087 1177.65877,6417.92814 C1177.65877,6417.88765 1177.68341,6417.84981 1177.72126,6417.83133 C1177.75558,6417.81549 1177.98881,6417.56113 1178.24228,6417.26014 C1178.49663,6416.96002 1178.72986,6416.70479 1178.76418,6416.68807 C1178.79851,6416.67311 1178.82667,6416.60974 1178.82667,6416.55077 C1178.82667,6416.49004 1178.92964,6416.33779 1179.06078,6416.20489 C1179.19015,6416.07199 1179.4093,6415.80004 1179.55276,6415.59058 C1179.6971,6415.38287 1179.95321,6415.06691 1180.13011,6414.88209 C1180.43462,6414.56261 1180.55696,6414.38923 1180.78403,6413.95534 C1180.83243,6413.86381 1181.10879,6413.54257 1181.39746,6413.24157 C1181.68614,6412.94145 1181.98537,6412.60525 1182.06106,6412.49524 C1182.13587,6412.38611 1182.26789,6412.24529 1182.34886,6412.18632 C1182.43247,6412.12559 1182.49936,6412.05167 1182.49936,6412.0191 C1182.49936,6411.98742 1182.77131,6411.67322 1183.10399,6411.32206 C1183.43579,6410.97177 1183.84504,6410.53876 1184.00962,6410.36274 C1184.17332,6410.1876 1184.42327,6409.95613 1184.56057,6409.85316 C1184.88621,6409.60937 1185.14848,6409.34886 1185.50668,6408.91408 C1185.6651,6408.7231 1185.91857,6408.4221 1186.06731,6408.25136 C1186.21869,6408.07622 1186.33838,6407.91604 1186.33838,6407.88788 C1186.33838,6407.81131 1186.43959,6407.6881 1187.69463,6406.24384 C1187.86889,6406.04406 1188.00706,6405.85571 1188.00706,6405.81875 C1188.00706,6405.7413 1188.68299,6405.06362 1189.16705,6404.65525 C1189.35891,6404.49331 1189.50941,6404.33929 1189.50941,6404.30408 C1189.50941,6404.27064 1189.57013,6404.17471 1189.63966,6404.09902 C1190.19677,6403.48998 1190.51097,6403.10274 1190.51097,6403.02265 C1190.51097,6402.96984 1190.56906,6402.90119 1190.63594,6402.87655 C1190.70635,6402.85103 1190.85685,6402.6266 1190.97831,6402.36785 L1190.97831,6402.36785 Z M1171.49978,6428.15146 C1171.4725,6428.12418 1171.44169,6427.94288 1171.43201,6427.75013 C1171.38889,6426.91579 1170.98844,6426.28564 1170.48942,6426.26891 C1170.21746,6426.25923 1170.01416,6426.23371 1169.64715,6426.1633 C1169.45529,6426.12546 1169.27311,6426.14922 1169.11733,6426.23195 C1168.98443,6426.3006 1168.74504,6426.35868 1168.5787,6426.36044 C1168.1897,6426.36396 1168.01544,6426.49862 1167.74876,6426.9994 C1167.57802,6427.32152 1167.53402,6427.52483 1167.52786,6428.03441 C1167.51818,6428.71737 1167.51113,6428.70153 1168.27419,6429.4857 C1168.57694,6429.79814 1169.49666,6430.32005 1169.8223,6430.36493 C1170.13913,6430.40982 1170.30547,6430.34909 1170.36004,6430.17043 C1170.42165,6429.97064 1170.6804,6429.69517 1170.80713,6429.69517 C1170.84938,6429.69517 1170.97788,6429.51123 1171.10021,6429.278 C1171.36688,6428.76842 1171.56315,6428.21483 1171.49978,6428.15146 L1171.49978,6428.15146 Z M1193.40828,6410.99114 C1193.38892,6411.15836 1193.33523,6411.31502 1193.26658,6411.46551 C1193.17593,6411.53328 1193.09672,6411.58521 1193.06856,6411.58521 C1193.02455,6411.58521 1192.55546,6412.0235 1192.01683,6412.56565 C1191.47909,6413.10867 1190.9035,6413.65874 1190.72748,6413.79692 C1190.55233,6413.93509 1190.36751,6414.09967 1190.31471,6414.16392 C1190.29622,6414.1868 1190.23902,6414.24841 1190.16773,6414.32322 C1188.37055,6415.61962 1186.55225,6416.87465 1185.76015,6418.88746 C1185.23649,6420.21906 1185.25849,6421.69236 1185.20216,6423.12253 C1185.10535,6425.56395 1184.82196,6428.11274 1184.13459,6430.46614 C1183.52204,6432.56432 1181.57788,6434.13179 1180.24628,6435.8612 C1180.08962,6436.06538 1179.92944,6436.27661 1179.85903,6436.5248 C1179.57212,6437.5378 1180.85444,6438.42319 1180.76378,6439.47228 C1180.7013,6440.19925 1179.97433,6440.71323 1179.2544,6440.83116 C1178.53359,6440.94822 1177.8031,6440.77748 1177.07702,6440.70267 C1176.82003,6440.67626 1176.56743,6440.66658 1176.3166,6440.66658 C1176.51727,6440.39991 1176.43014,6440.2987 1176.1001,6439.94313 C1175.87743,6439.70375 1174.6488,6438.45751 1173.36033,6437.16464 C1170.60647,6434.40198 1170.47181,6434.24532 1170.45509,6433.7595 C1170.42165,6432.81603 1171.05092,6432.41734 1171.98384,6432.78963 C1172.27603,6432.90668 1172.55679,6433.16631 1172.56295,6433.32561 C1172.56823,6433.47259 1172.88595,6434.00945 1173.11037,6434.25236 C1173.23535,6434.38614 1173.45098,6434.66073 1173.59443,6434.86932 C1173.73613,6435.07438 1174.23251,6435.62269 1174.69193,6436.07947 C1175.15046,6436.53624 1175.65652,6437.0555 1175.80966,6437.22624 C1175.96632,6437.40227 1176.13882,6437.53956 1176.20219,6437.53956 C1176.2638,6437.53956 1176.33861,6437.61525 1176.36765,6437.70678 C1176.44598,6437.95673 1177.73094,6439.20913 1177.90872,6439.20913 C1177.99233,6439.20913 1178.1041,6439.15544 1178.15955,6439.08767 C1178.21411,6439.02166 1178.34261,6438.94245 1178.44294,6438.91165 C1178.66033,6438.8474 1179.49467,6438.35454 1179.49467,6438.29029 C1179.49467,6438.26829 1179.33449,6438.07819 1179.13999,6437.8696 C1178.94548,6437.66102 1178.66649,6437.36002 1178.52215,6437.2016 C1178.37869,6437.04406 1178.03809,6436.69818 1177.77142,6436.43855 C1177.50475,6436.17804 1177.13334,6435.80927 1176.9538,6435.62445 C1176.77426,6435.44051 1176.59296,6435.28649 1176.55687,6435.28649 C1176.52079,6435.28649 1176.48999,6435.24424 1176.48999,6435.19496 C1176.48999,6435.09375 1175.71373,6434.26028 1174.51239,6433.07302 C1174.03713,6432.60304 1173.65252,6432.16915 1173.65252,6432.10314 C1173.65252,6432.03625 1173.6094,6431.93856 1173.55659,6431.88576 C1173.50466,6431.83295 1173.46506,6431.6138 1173.46946,6431.4061 C1173.48002,6430.95196 1173.73613,6430.64392 1174.21227,6430.51279 C1174.8125,6430.34733 1175.27808,6430.55679 1175.58172,6431.13062 C1175.7507,6431.44746 1176.17403,6431.94296 1176.31484,6431.98873 C1176.38789,6432.01249 1176.49615,6432.13571 1176.55247,6432.26156 C1176.61144,6432.39006 1176.76634,6432.60744 1176.90716,6432.75794 C1177.04797,6432.90844 1177.15799,6433.06334 1177.15799,6433.11262 C1177.15799,6433.16279 1177.19055,6433.19976 1177.2328,6433.19976 C1177.27504,6433.19976 1177.36393,6433.31681 1177.43522,6433.46731 C1177.57868,6433.76742 1179.16287,6435.48539 1179.42778,6435.62709 C1179.57916,6435.70806 1179.63637,6435.68254 1179.84935,6435.44051 C1179.98313,6435.28825 1180.241,6434.91156 1180.41702,6434.61057 C1180.59216,6434.30957 1180.79723,6434.01209 1180.86764,6433.95577 C1180.94245,6433.89504 1180.99701,6433.80175 1180.99701,6433.73398 C1180.99701,6433.66709 1181.03222,6433.61781 1181.08062,6433.61781 C1181.12463,6433.61781 1181.16335,6433.55884 1181.16335,6433.49195 C1181.16335,6433.42594 1181.20296,6433.36698 1181.24696,6433.36698 C1181.29537,6433.36698 1181.33057,6433.29217 1181.33057,6433.19183 C1181.33057,6433.0915 1181.40186,6432.95773 1181.49779,6432.87852 C1181.58933,6432.80283 1181.78823,6432.44022 1181.93961,6432.07322 C1182.09099,6431.70621 1182.31629,6431.23272 1182.44039,6431.02237 C1182.56272,6430.81291 1182.6657,6430.5656 1182.6657,6430.47934 C1182.6657,6430.39045 1182.71938,6430.17043 1182.78715,6429.97856 C1182.85404,6429.78934 1182.93237,6429.28592 1182.96229,6428.85203 C1182.99222,6428.41813 1183.0503,6427.9816 1183.09167,6427.87511 C1183.13303,6427.7695 1183.16648,6427.40865 1183.16648,6427.06629 C1183.16648,6426.72393 1183.2052,6426.34812 1183.25185,6426.22315 C1183.32402,6426.03392 1183.3425,6425.62203 1183.3205,6424.68736 C1183.31169,6424.32652 1183.43667,6422.50118 1183.49828,6422.10073 C1183.53612,6421.8499 1183.54844,6421.54274 1183.52556,6421.4248 C1183.50092,6421.29631 1183.55548,6421.07364 1183.65934,6420.88178 C1183.75351,6420.70664 1183.83448,6420.46285 1183.83448,6420.35283 C1183.83448,6420.23842 1183.8688,6420.03512 1183.91369,6419.89342 C1183.95769,6419.75172 1184.03514,6419.47185 1184.08883,6419.26326 C1184.14252,6419.05468 1184.23669,6418.78888 1184.30181,6418.66655 C1184.36782,6418.54069 1184.41799,6418.39636 1184.41799,6418.33299 C1184.41799,6418.26962 1184.54648,6417.97743 1184.70666,6417.67731 C1184.86596,6417.37719 1185.07983,6416.96706 1185.18632,6416.75936 C1185.29282,6416.55077 1185.44331,6416.32458 1185.52428,6416.24978 C1185.60789,6416.17409 1185.67038,6416.07727 1185.67038,6416.02535 C1185.67038,6415.97518 1185.74079,6415.88277 1185.8244,6415.82468 C1185.91065,6415.76484 1186.08667,6415.54921 1186.22045,6415.34062 C1186.68074,6414.62334 1187.04863,6414.19209 1187.2889,6414.08559 C1187.51509,6413.98702 1188.17429,6413.39207 1188.17429,6413.28734 C1188.17429,6413.26445 1188.4832,6412.94145 1188.86693,6412.56125 C1189.25066,6412.18192 1189.72503,6411.68906 1189.93098,6411.45583 C1190.13692,6411.2226 1190.42296,6410.95065 1190.57346,6410.8468 C1190.72396,6410.74295 1190.84453,6410.62149 1190.84453,6410.57573 C1190.84453,6410.52908 1190.91846,6410.41291 1191.01175,6410.31257 C1191.10416,6410.21312 1191.17809,6410.0327 1191.17809,6409.90772 C1191.17809,6409.78275 1191.21505,6409.66922 1191.2617,6409.65337 C1191.36643,6409.61729 1191.20273,6409.09011 1191.03639,6408.92289 C1190.97919,6408.86568 1190.88677,6408.73982 1190.84013,6408.65621 C1190.79436,6408.5726 1190.71075,6408.49691 1190.66499,6408.49691 C1190.61746,6408.49691 1190.34023,6408.24696 1190.05507,6407.94685 C1189.56397,6407.42934 1189.34219,6407.33077 1189.34219,6407.62913 C1189.34219,6407.69602 1189.3061,6407.74618 1189.25858,6407.74618 C1189.21193,6407.74618 1189.17497,6407.79195 1189.17497,6407.85003 C1189.17497,6407.90812 1189.08784,6408.0199 1188.97958,6408.10087 C1188.87133,6408.18095 1188.60114,6408.51804 1188.37847,6408.85248 C1188.15492,6409.18604 1187.86889,6409.54688 1187.73951,6409.65777 C1187.61454,6409.76427 1187.50628,6409.90948 1187.50628,6409.97021 C1187.50628,6410.02918 1187.47636,6410.08551 1187.4438,6410.08727 C1187.40947,6410.08903 1187.25105,6410.27473 1187.09703,6410.49212 C1186.9439,6410.7095 1186.63762,6411.0017 1186.42991,6411.13107 C1186.02066,6411.38454 1185.67038,6411.73307 1185.67038,6411.88533 C1185.67038,6411.93637 1185.33418,6412.3157 1184.91877,6412.73287 C1184.50424,6413.15004 1184.16804,6413.52584 1184.16804,6413.57161 C1184.16804,6413.67986 1183.34954,6414.50628 1183.24217,6414.50628 C1183.19992,6414.50628 1183.16648,6414.55205 1183.16648,6414.61014 C1183.16648,6414.6691 1183.05734,6414.83192 1182.91565,6414.98154 C1182.77571,6415.13204 1182.6657,6415.26934 1182.6657,6415.29486 C1182.6657,6415.32038 1182.40342,6415.6117 1182.0813,6415.94614 C1181.75919,6416.2797 1181.49779,6416.58862 1181.49779,6416.63438 C1181.49779,6416.68103 1181.38778,6416.83417 1181.24696,6416.98466 C1181.10615,6417.13516 1180.99701,6417.28654 1180.99701,6417.33143 C1180.99701,6417.37455 1180.9046,6417.47928 1180.79635,6417.56201 C1180.55432,6417.7442 1179.88456,6418.56886 1179.80799,6418.7792 C1179.77806,6418.86281 1179.70502,6418.93146 1179.64517,6418.9341 C1179.51931,6418.94026 1178.66033,6419.94798 1178.66033,6420.08968 C1178.66033,6420.13897 1178.62248,6420.18121 1178.57672,6420.18121 C1178.53271,6420.18121 1178.49311,6420.23578 1178.49311,6420.29387 C1178.49311,6420.35547 1178.29861,6420.61511 1178.05746,6420.87386 C1176.8121,6422.20898 1176.62112,6422.46245 1176.41254,6423.06004 C1176.35093,6423.23518 1176.255,6423.43233 1176.20395,6423.48601 C1175.94608,6423.76149 1175.59404,6424.30275 1175.51923,6424.53686 C1175.49282,6424.62135 1175.44266,6424.68736 1175.40481,6424.68736 C1175.36785,6424.68736 1175.28952,6424.80882 1175.23055,6424.95843 C1175.16982,6425.10893 1175.07653,6425.25767 1175.02109,6425.29111 C1174.87939,6425.37824 1174.1533,6426.33932 1174.1533,6426.44053 C1174.1533,6426.48102 1174.07849,6426.53911 1173.98608,6426.56815 C1173.81094,6426.6236 1173.73789,6427.02492 1173.90335,6427.02492 C1174.00544,6427.02492 1174.00984,6428.39261 1173.90863,6428.59328 C1173.86903,6428.67072 1173.76957,6428.94356 1173.69037,6429.19439 C1173.61028,6429.44522 1173.49322,6429.71365 1173.43161,6429.7867 C1173.36825,6429.86151 1173.31896,6429.96096 1173.31896,6430.01201 C1173.31896,6430.05953 1173.26439,6430.1361 1173.20631,6430.17043 C1173.14646,6430.20651 1173.04701,6430.32533 1172.99332,6430.42478 C1172.94051,6430.52511 1172.8481,6430.61312 1172.79706,6430.61312 C1172.74249,6430.61312 1172.60519,6430.70553 1172.48022,6430.82611 C1172.34996,6430.95108 1172.14226,6431.04613 1171.97504,6431.05669 C1171.60011,6431.08134 1171.48306,6431.16407 1171.48306,6431.4061 C1171.48306,6431.7819 1170.58975,6432.33901 1169.93847,6432.36717 C1169.75541,6432.37598 1169.58643,6432.3751 1169.56354,6432.36541 C1169.53978,6432.35573 1169.41305,6432.33813 1169.27135,6432.32405 C1168.75385,6432.27212 1168.29531,6432.10754 1167.22686,6431.58916 C1166.8845,6431.42282 1166.05808,6430.70905 1166.05808,6430.57968 C1166.05808,6430.54799 1165.95246,6430.36317 1165.82485,6430.17043 C1165.69723,6429.98032 1165.46665,6429.57371 1165.31967,6429.2824 C1165.23606,6429.11606 1165.18325,6428.98932 1165.14189,6428.86611 C1165.40152,6428.65488 1165.64795,6428.42253 1165.8803,6428.18227 C1167.74964,6426.25043 1169.16309,6423.94807 1170.48414,6421.62283 C1171.322,6420.14777 1172.36052,6418.85049 1172.17922,6417.64474 C1172.20827,6417.6113 1172.23907,6417.57522 1172.26283,6417.55233 C1172.40541,6417.41768 1172.57351,6417.19677 1172.62984,6417.07268 C1172.68704,6416.94682 1172.77241,6416.84297 1172.81818,6416.84297 C1172.91851,6416.84297 1173.48618,6416.28322 1173.48618,6416.18377 C1173.48618,6416.1468 1173.75725,6415.83348 1174.09169,6415.48232 C1175.07301,6414.45612 1175.1091,6414.41211 1175.24111,6414.08031 C1175.30712,6413.91397 1175.46906,6413.65258 1175.59316,6413.51352 C1175.71901,6413.37095 1175.82286,6413.23981 1175.82286,6413.22133 C1175.82286,6413.20285 1175.94872,6413.05411 1176.10626,6412.88689 C1176.65545,6412.30514 1177.16151,6411.66882 1177.58748,6411.02634 C1177.70717,6410.84504 1178.26516,6410.1832 1178.64273,6409.77395 C1178.74218,6409.6657 1178.82667,6409.5548 1178.82667,6409.5328 C1178.82667,6409.49143 1180.41262,6407.83947 1180.64585,6407.63617 C1181.03838,6407.29645 1181.66501,6406.63021 1181.66501,6406.55276 C1181.66501,6406.50083 1181.78119,6406.34593 1181.93169,6406.19895 C1182.44039,6405.69905 1182.63577,6405.4491 1182.82764,6405.05041 C1182.93237,6404.83391 1183.0503,6404.65877 1183.09167,6404.65877 C1183.13039,6404.65877 1183.16648,6404.6042 1183.16648,6404.54611 C1183.16648,6404.48451 1183.30025,6404.31288 1183.45867,6404.17031 C1183.61709,6404.02773 1183.75087,6403.85171 1183.75087,6403.78658 C1183.75087,6403.71969 1183.79927,6403.6352 1183.85912,6403.59824 C1183.91985,6403.56127 1184.13899,6403.28932 1184.35198,6402.9892 C1184.56497,6402.68909 1184.8642,6402.32824 1185.0235,6402.17951 C1185.18192,6402.03253 1185.3729,6401.78346 1185.44859,6401.62504 C1185.52516,6401.46662 1185.68094,6401.2774 1185.79536,6401.20347 C1185.91241,6401.12866 1186.00394,6401.02393 1186.00394,6400.96584 C1186.00394,6400.90863 1186.12892,6400.74405 1186.27942,6400.60323 C1186.3155,6400.56979 1186.34982,6400.53283 1186.38591,6400.4985 C1186.42463,6400.49322 1186.45544,6400.4941 1186.4968,6400.48706 C1187.37427,6400.34008 1188.23765,6399.44853 1188.83701,6398.85358 C1189.98907,6397.7112 1193.44613,6391.08224 1195.74056,6393.49549 C1196.3364,6394.12301 1196.48338,6395.06824 1196.35928,6395.92371 C1196.031,6398.19262 1194.14229,6399.8481 1192.67075,6401.60656 C1191.20009,6403.36501 1190.06652,6405.97629 1191.37259,6407.8606 C1192.10396,6408.9176 1193.5579,6409.7141 1193.40828,6410.99114 L1193.40828,6410.99114 Z M1180.78051,6444.87525 C1180.75234,6445.01695 1180.67753,6445.17625 1180.61329,6445.22554 C1180.54904,6445.27658 1180.49623,6445.37163 1180.49623,6445.43852 C1180.49623,6445.50717 1180.43638,6445.65151 1180.35982,6445.76856 C1180.15211,6446.0854 1179.91624,6447.19434 1180.00161,6447.45397 C1180.15123,6447.91338 1180.18027,6447.97147 1180.2542,6447.97147 C1180.29909,6447.97147 1180.32901,6448.00491 1180.32901,6448.05508 C1180.32901,6448.19238 1180.75498,6448.63155 1180.94685,6448.69316 C1181.10351,6448.74244 1181.63949,6449.12089 1181.89824,6449.36468 C1182.06546,6449.5231 1182.31541,6449.57327 1182.48263,6449.48349 C1182.56976,6449.43685 1182.71586,6449.41925 1182.80739,6449.44477 C1182.92445,6449.47645 1182.98782,6449.44037 1183.02038,6449.32419 C1183.0459,6449.23178 1183.30025,6449.00736 1183.58365,6448.82517 C1184.08355,6448.5057 1184.31766,6448.2223 1184.63714,6447.5543 C1184.80612,6447.19962 1184.85188,6446.10212 1184.71987,6445.55118 C1184.56849,6444.9175 1184.05979,6444.21517 1183.63381,6444.05235 C1183.37506,6443.95378 1182.02498,6444.00483 1181.88152,6444.11836 C1181.83135,6444.15797 1181.65621,6444.21693 1181.49779,6444.24774 C1181.11407,6444.32167 1180.84211,6444.55842 1180.78051,6444.87525 L1180.78051,6444.87525 Z M1190.16773,6414.32322 C1190.03395,6414.4658 1189.83241,6414.67526 1189.61326,6414.89793 C1189.27794,6415.24029 1189.00863,6415.55009 1189.00863,6415.59058 C1189.00863,6415.63106 1188.94174,6415.69003 1188.86693,6415.71731 C1188.72171,6415.76924 1187.74303,6416.85177 1187.68231,6417.02603 C1187.66382,6417.08148 1187.57669,6417.20117 1187.48868,6417.29358 C1187.1604,6417.6377 1186.86997,6418.14465 1186.76787,6418.5539 C1186.70979,6418.78712 1186.63762,6418.99043 1186.60505,6419.01419 C1186.49944,6419.09252 1186.33838,6419.43048 1186.33838,6419.57218 C1186.33838,6419.65755 1186.27237,6419.83093 1186.18788,6419.97263 C1186.10515,6420.1108 1185.98898,6420.46461 1185.92913,6420.7656 C1185.86841,6421.06572 1185.78656,6421.40104 1185.74519,6421.51634 C1185.6343,6421.82349 1185.56037,6422.87698 1185.54365,6424.39517 C1185.53484,6425.13005 1185.497,6425.93711 1185.4574,6426.1897 C1185.41779,6426.44405 1185.38083,6426.89115 1185.37378,6427.19127 C1185.35442,6428.01505 1185.25057,6428.89427 1185.07279,6429.72861 C1184.9839,6430.14578 1184.89061,6430.6008 1184.86508,6430.7381 C1184.81756,6431.00477 1184.65474,6431.42282 1184.45671,6431.78982 C1184.38895,6431.9148 1184.33526,6432.09258 1184.33526,6432.19027 C1184.33526,6432.28708 1184.26045,6432.48687 1184.16804,6432.63737 C1184.07563,6432.78699 1184.00082,6432.97533 1184.00082,6433.05806 C1184.00082,6433.14167 1183.90665,6433.30889 1183.78871,6433.43386 C1183.67166,6433.55708 1183.46395,6433.88008 1183.3293,6434.14675 C1183.19464,6434.4143 1182.99838,6434.74346 1182.8954,6434.87372 C1182.78979,6435.0075 1182.61641,6435.24072 1182.49936,6435.40706 C1182.38142,6435.57428 1182.2362,6435.72214 1182.16492,6435.7459 C1182.09627,6435.76879 1181.8648,6435.94569 1181.64829,6436.14195 C1181.43091,6436.33822 1181.14135,6436.58201 1181.00141,6436.6885 L1180.74618,6436.88036 L1180.97853,6437.18928 C1181.39922,6437.74815 1181.68174,6437.96201 1181.91496,6437.89777 C1182.03114,6437.86608 1182.29077,6437.8432 1182.49936,6437.84584 C1182.87428,6437.85112 1184.06243,6438.01658 1184.16012,6438.07643 C1184.1874,6438.09315 1184.41799,6438.07379 1184.66882,6438.0333 C1185.29458,6437.93297 1185.90889,6438.13716 1186.4968,6438.64146 C1186.56105,6438.69602 1186.80484,6438.87204 1187.03895,6439.02958 C1187.27306,6439.18712 1187.49308,6439.36402 1187.52741,6439.42211 C1187.56085,6439.47844 1187.72279,6439.60957 1187.88209,6439.70991 C1188.04051,6439.80936 1188.17429,6439.93697 1188.17429,6439.9889 C1188.17429,6440.04347 1188.26846,6440.19309 1188.39079,6440.33566 C1188.51137,6440.47472 1188.69707,6440.75283 1188.80796,6440.96142 C1188.91974,6441.17 1189.04383,6441.39267 1189.08784,6441.4622 C1189.36947,6441.90577 1189.70655,6442.98038 1189.80776,6443.75664 C1189.83153,6443.94058 1189.89665,6444.20373 1189.95122,6444.34103 C1190.11668,6444.7582 1190.07092,6447.88874 1189.88961,6448.55586 C1189.80864,6448.85598 1189.72415,6449.21946 1189.70127,6449.36908 C1189.67839,6449.51958 1189.62558,6449.66128 1189.58422,6449.6868 C1189.54197,6449.71232 1189.50941,6449.81617 1189.50941,6449.92443 C1189.50941,6450.14181 1189.33339,6450.55898 1189.24186,6450.55898 C1189.20665,6450.55898 1189.17497,6450.63379 1189.17497,6450.7174 C1189.17497,6450.80101 1189.14416,6450.88991 1189.10896,6450.90399 C1189.03415,6450.93655 1188.39167,6451.84394 1188.14788,6452.26111 C1187.9965,6452.52074 1187.92345,6452.59203 1187.30562,6453.09105 C1187.13136,6453.23275 1186.93774,6453.39293 1186.88845,6453.43781 C1186.8374,6453.48534 1186.73883,6453.56631 1186.66314,6453.6244 C1186.5232,6453.73353 1184.72779,6454.38481 1183.83448,6454.65148 C1183.24217,6454.8275 1182.0813,6454.88119 1182.0813,6454.73157 C1182.0813,6454.68141 1182.04786,6454.66116 1182.0065,6454.68581 C1181.89472,6454.75533 1181.50219,6454.53971 1181.45291,6454.38129 C1181.42651,6454.29768 1181.37986,6454.24663 1181.3473,6454.26688 C1181.05774,6454.44466 1179.50347,6454.36281 1178.95252,6454.14102 C1177.85063,6453.69745 1176.92212,6453.21955 1176.61496,6452.93879 C1176.46534,6452.80238 1176.18547,6452.55331 1176.00241,6452.39489 C1175.81846,6452.23647 1175.6618,6452.05517 1175.66004,6451.99884 C1175.6574,6451.93987 1175.6266,6451.89411 1175.58876,6451.89411 C1175.55179,6451.89411 1175.4321,6451.74801 1175.31768,6451.56407 C1175.20415,6451.381 1175.08533,6451.23227 1175.05013,6451.23051 C1175.01669,6451.22875 1174.98852,6451.18474 1174.98852,6451.13457 C1174.98852,6451.08353 1174.91723,6450.94271 1174.82746,6450.81774 C1174.22811,6449.97459 1174.00016,6449.12353 1173.77574,6446.8951 C1173.71589,6446.30279 1174.04505,6444.33663 1174.24659,6444.08228 C1174.35925,6443.94058 1174.98852,6442.69435 1174.98852,6442.61338 C1174.98852,6442.57201 1175.06157,6442.45936 1175.15486,6442.35903 C1175.24815,6442.25958 1175.32208,6442.13196 1175.32208,6442.07123 C1175.32208,6442.01315 1175.35289,6441.96298 1175.38897,6441.96298 C1175.42506,6441.96298 1175.50339,6441.8292 1175.55971,6441.67078 C1175.61604,6441.51325 1175.79822,6441.23689 1175.95664,6441.07055 C1176.12298,6440.89365 1176.23915,6440.76868 1176.3166,6440.66658 C1176.56743,6440.66658 1176.82003,6440.67626 1177.07702,6440.70267 C1177.8031,6440.77748 1178.53359,6440.94822 1179.2544,6440.83116 C1179.97433,6440.71323 1180.7013,6440.19925 1180.76378,6439.47228 C1180.85444,6438.42319 1179.57212,6437.5378 1179.85903,6436.5248 C1179.92944,6436.27661 1180.08962,6436.06538 1180.24628,6435.8612 C1181.57788,6434.13179 1183.52204,6432.56432 1184.13459,6430.46614 C1184.82196,6428.11274 1185.10535,6425.56395 1185.20216,6423.12253 C1185.25849,6421.69236 1185.23649,6420.21906 1185.76015,6418.88746 C1186.55225,6416.87465 1188.37055,6415.61962 1190.16773,6414.32322 L1190.16773,6414.32322 Z M1197.25347,6395.97035 L1197.46909,6395.56198 C1197.74633,6395.03568 1197.76921,6394.34391 1197.51838,6394.07636 C1197.42421,6393.97603 1197.3538,6393.86337 1197.3538,6393.81321 C1197.3538,6393.76392 1197.32212,6393.72608 1197.27899,6393.72608 C1197.23587,6393.72608 1197.16018,6393.61783 1197.10385,6393.47525 C1197.04664,6393.33355 1196.97976,6393.2253 1196.94895,6393.2253 C1196.92079,6393.2253 1196.84686,6393.11616 1196.79141,6392.99119 C1196.58635,6392.53265 1196.24399,6392.23782 1195.75113,6392.09612 C1195.28203,6391.96058 1195.25123,6391.96234 1194.717,6392.14013 C1194.31655,6392.2739 1194.11589,6392.30119 1193.98211,6392.2431 C1193.80521,6392.16477 1193.56494,6392.20437 1192.98935,6392.40768 C1192.77196,6392.48337 1192.65051,6392.58986 1192.5801,6392.76588 C1192.52465,6392.90494 1192.33895,6393.15489 1192.16293,6393.32563 C1191.98779,6393.49549 1191.84609,6393.66007 1191.84609,6393.69263 C1191.84609,6393.72344 1191.73696,6393.85721 1191.61198,6393.97867 C1191.35323,6394.23126 1191.17809,6394.50937 1191.17809,6394.66867 C1191.17809,6394.7294 1191.03199,6394.88606 1190.84893,6395.02336 C1190.66499,6395.16065 1190.47488,6395.35252 1190.41856,6395.45725 C1190.36575,6395.55758 1190.28566,6395.64559 1190.24782,6395.64559 C1190.20997,6395.64559 1190.17653,6395.70368 1190.17653,6395.77057 C1190.17653,6395.8401 1190.11316,6395.96243 1190.03395,6396.04604 C1189.74,6396.35408 1189.50941,6396.65155 1189.50941,6396.72196 C1189.50941,6396.76421 1189.40115,6396.88918 1189.25858,6397.00976 C1189.11688,6397.13033 1189.00863,6397.24827 1189.00863,6397.28083 C1189.00863,6397.31427 1188.94614,6397.397 1188.86253,6397.47269 C1188.78244,6397.54574 1188.66362,6397.71032 1188.59938,6397.83618 C1188.53601,6397.96115 1188.45064,6398.06501 1188.41191,6398.06501 C1188.36967,6398.06501 1188.34063,6398.09493 1188.34063,6398.14069 C1188.34063,6398.18206 1188.13116,6398.43729 1187.87769,6398.70396 C1187.62422,6398.97152 1187.35667,6399.30156 1187.28626,6399.43357 C1187.15952,6399.67208 1186.78812,6400.10773 1186.38591,6400.4985 C1186.42463,6400.49322 1186.45544,6400.4941 1186.4968,6400.48706 C1187.37427,6400.34008 1188.23765,6399.44853 1188.83701,6398.85358 C1189.98907,6397.7112 1193.44613,6391.08224 1195.74056,6393.49549 C1196.3364,6394.12301 1196.48338,6395.06824 1196.35928,6395.92371 C1196.031,6398.19262 1194.14229,6399.8481 1192.67075,6401.60656 C1191.20009,6403.36501 1190.06652,6405.97629 1191.37259,6407.8606 C1192.10396,6408.9176 1193.5579,6409.7141 1193.40828,6410.99114 C1193.38892,6411.15836 1193.33523,6411.31502 1193.26658,6411.46551 C1193.31939,6411.42591 1193.37308,6411.3863 1193.43204,6411.33438 C1193.58958,6411.19532 1193.74096,6411.08443 1193.77353,6411.08443 C1193.80697,6411.08443 1193.85186,6411.02194 1193.87826,6410.93833 C1193.90378,6410.85736 1193.97771,6410.65054 1194.0446,6410.47539 C1194.16781,6410.14975 1194.11589,6409.64897 1193.94075,6409.47383 C1193.8897,6409.42279 1193.84833,6409.31541 1193.84833,6409.2318 C1193.84833,6409.14819 1193.82105,6409.0813 1193.78673,6409.0813 C1193.75064,6409.0813 1193.67583,6408.97305 1193.61159,6408.83135 C1193.46285,6408.49691 1192.95415,6407.88612 1192.76404,6407.81219 C1192.68307,6407.78139 1192.5889,6407.67577 1192.55898,6407.58336 C1192.52993,6407.49183 1192.46833,6407.41262 1192.42608,6407.41262 C1192.38472,6407.41262 1192.34687,6407.35805 1192.34687,6407.29997 C1192.34687,6407.23748 1192.27118,6407.11955 1192.17965,6407.03682 C1192.08812,6406.95409 1192.01243,6406.83615 1192.01243,6406.77366 C1192.01243,6406.71558 1191.97283,6406.66101 1191.9297,6406.66101 C1191.88394,6406.66101 1191.84609,6406.61965 1191.84609,6406.56948 C1191.84609,6406.51931 1191.67535,6406.31425 1191.46589,6406.11446 L1191.08656,6405.75186 L1191.38316,6405.42622 C1191.54245,6405.25108 1191.67887,6405.06626 1191.67887,6405.02577 C1191.67887,6404.98353 1191.788,6404.86559 1191.9297,6404.7547 C1192.0714,6404.64292 1192.17965,6404.49507 1192.17965,6404.41234 C1192.17965,6404.33137 1192.25446,6404.19847 1192.34687,6404.11574 C1192.4384,6404.03389 1192.51321,6403.92124 1192.51321,6403.86579 C1192.51321,6403.80858 1192.5889,6403.69769 1192.68835,6403.60704 C1192.78517,6403.51991 1193.00959,6403.22331 1193.18649,6402.94784 C1193.66087,6402.21295 1193.85978,6401.94364 1194.21798,6401.54583 C1194.64043,6401.07849 1195.01712,6400.52314 1195.01712,6400.36825 C1195.01712,6400.30224 1195.10513,6400.17374 1195.20458,6400.09365 C1195.30579,6400.01268 1195.46245,6399.8349 1195.54342,6399.70905 C1195.62351,6399.58407 1195.78985,6399.43885 1195.90162,6399.39661 C1196.01868,6399.35172 1196.17094,6399.21267 1196.24839,6399.07977 C1196.3232,6398.95039 1196.51946,6398.75061 1196.67788,6398.64324 C1197.08713,6398.36424 1197.3538,6398.10637 1197.3538,6397.9902 C1197.3538,6397.94003 1197.39165,6397.89867 1197.43741,6397.89867 C1197.53862,6397.89867 1197.68824,6397.35652 1197.68824,6396.98863 C1197.68824,6396.83374 1197.58879,6396.53802 1197.47086,6396.33824 L1197.25347,6395.97035 Z M1165.8803,6428.18227 C1165.64795,6428.42253 1165.40152,6428.65488 1165.14189,6428.86611 C1165.06708,6428.64432 1165.04331,6428.4375 1165.03627,6428.05113 C1165.02835,6427.60844 1165.05916,6427.32152 1165.1234,6427.25815 C1165.18061,6427.20183 1165.22374,6427.07421 1165.22374,6426.96596 C1165.22374,6426.78994 1165.27126,6426.64912 1165.52385,6426.06473 C1165.58546,6425.92303 1165.72452,6425.72765 1165.84509,6425.61411 C1165.96215,6425.5041 1166.05808,6425.37208 1166.05808,6425.32192 C1166.05808,6425.23303 1166.29219,6425.01212 1166.85897,6424.56415 C1167.10188,6424.37316 1168.04536,6423.99384 1168.19498,6424.02728 C1168.26979,6424.04488 1168.7204,6423.94279 1168.82953,6423.8847 C1168.8621,6423.8671 1168.83482,6423.72804 1168.76793,6423.56963 C1168.58486,6423.13573 1168.62007,6422.90162 1168.91667,6422.57598 C1169.34352,6422.10953 1169.47993,6421.93791 1169.47993,6421.87542 C1169.47993,6421.84374 1169.55298,6421.73724 1169.63835,6421.64571 C1169.72812,6421.54978 1169.86454,6421.35792 1169.95167,6421.20742 C1170.03528,6421.0622 1170.28083,6420.68199 1170.48942,6420.37308 C1170.69888,6420.06416 1170.98404,6419.59594 1171.11605,6419.34687 C1171.24807,6419.09604 1171.38096,6418.86897 1171.40737,6418.84609 C1171.43553,6418.82321 1171.57987,6418.57854 1171.72949,6418.30307 C1171.8527,6418.07512 1172.03664,6417.80932 1172.17922,6417.64474 C1172.36052,6418.85049 1171.322,6420.14777 1170.48414,6421.62283 C1169.16309,6423.94807 1167.74964,6426.25043 1165.8803,6428.18227 L1165.8803,6428.18227 Z" id="img-nav-cafe-white"></path>
        </g>
    </g>
</svg>