<?xml version="1.0" encoding="UTF-8"?>
<svg width="146px" height="245px" viewBox="0 0 146 245" version="1.1" xmlns="http://www.w3.org/2000/svg" xmlns:xlink="http://www.w3.org/1999/xlink">
    <!-- Generator: Sketch 61 (89581) - https://sketch.com -->
    <title>img-tree</title>
    <desc>Created with Sketch.</desc>
    <g id="Page-1" stroke="none" stroke-width="1" fill="none" fill-rule="evenodd">
        <g id="200318_kodomonooka-ver2" transform="translate(-164.000000, -3868.000000)">
            <g id="Group-46" transform="translate(165.000000, 3868.000000)">
                <path d="M103.229317,18.3359513 C102.795317,17.7859513 102.339317,17.2529513 101.882317,16.7249513 C98.5333169,12.8489513 95.1383169,10.2409513 90.4773169,8.16095134 C87.6003169,6.87695134 84.5473169,7.75495134 81.5643169,7.20595134 C78.5873169,6.65895134 77.1673169,4.45895134 74.5993169,3.27895134 C69.1813169,0.787951341 62.1013169,2.42795134 57.3793169,5.59495134 C51.5833169,9.48195134 47.5753169,15.9339513 46.6583169,22.8539513 C46.2443169,25.9859513 46.4293169,29.2009513 45.6833169,32.2719513 C43.6583169,40.6089513 35.5093169,45.7919513 30.7253169,52.9129513 C26.4163169,59.3279513 25.0353169,66.3689513 28.5183169,73.4349513 C28.8123169,74.0289513 29.1253169,74.6329513 29.2083169,75.2919513 C29.5213169,77.7449513 24.3753169,82.6389513 22.7213169,84.4459513 C17.5213169,90.1259513 14.0203169,97.3139513 12.6343169,104.880951 C11.0923169,113.301951 12.7033169,120.680951 15.5343169,128.676951 C14.2763169,129.999951 12.5053169,130.678951 10.9193169,131.582951 C4.15431694,135.441951 3.76131694,145.086951 4.65731694,151.864951 C5.39331694,157.436951 3.35231694,162.341951 6.69631694,167.647951 C8.46931694,170.460951 11.0873169,172.618951 13.6613169,174.725951 C17.4683169,177.844951 21.7533169,180.466951 25.2003169,184.017951 C28.8363169,187.773951 33.8853169,190.542951 38.4073169,193.152951 C40.4703169,194.343951 42.0793169,194.787951 44.4023169,194.856951 C44.6593169,194.864951 47.9693169,194.841951 47.9953169,195.031951 C48.4753169,198.573951 48.9033169,202.121951 49.2793169,205.676951 C49.6003169,208.711951 50.4743169,212.351951 50.0623169,215.370951 C49.3613169,220.502951 45.4713169,226.552951 41.5553169,229.818951 C39.9073169,231.193951 35.1533169,233.154951 35.5723169,235.880951 C35.7713169,237.173951 37.1503169,237.904951 38.4013169,238.287951 C40.7063169,238.992951 43.1573169,239.213951 45.5493169,238.931951 C49.8193169,238.427951 52.2243169,237.897951 56.1183169,239.899951 C58.3723169,241.059951 62.7973169,242.451951 65.2053169,241.423951 C66.7383169,240.768951 67.7453169,239.185951 69.3103169,238.609951 C70.5943169,238.139951 72.0173169,238.428951 73.3533169,238.723951 C75.9563169,239.297951 92.4963169,245.054951 90.9793169,237.921951 C95.1033169,238.340951 99.2243169,239.069951 103.332317,239.653951 C104.136317,239.768951 104.973317,239.880951 105.749317,239.636951 C107.935317,238.947951 108.318317,235.740951 107.000317,233.865951 C105.680317,231.990951 103.377317,231.129951 101.226317,230.336951 C99.0763169,229.543951 96.7853169,228.592951 95.5913169,226.634951 C94.5213169,224.879951 94.5663169,222.689951 94.6443169,220.636951 C94.8403169,215.481951 95.0373169,210.326951 95.2343169,205.171951 C95.3503169,202.104951 94.0793169,194.193951 97.0493169,192.454951 C104.803317,187.914951 115.182317,191.174951 123.700317,188.542951 C132.641317,185.778951 140.776317,178.105951 140.976317,168.747951 C141.071317,164.297951 139.423317,160.062951 137.750317,156.017951 C136.465317,152.912951 134.619317,150.385951 134.467317,146.878951 C134.356317,144.284951 134.739317,141.684951 134.562317,139.094951 C134.253317,134.595951 132.182317,130.239951 128.886317,127.161951 C128.298317,126.612951 127.639317,126.046951 127.462317,125.262951 C127.193317,124.062951 128.139317,122.979951 128.786317,121.933951 C130.259317,119.550951 130.141317,116.119951 130.339317,113.387951 C130.635317,109.314951 131.208317,105.186951 130.437317,101.175951 C129.131317,94.3869513 124.155317,88.8069513 122.472317,82.1019513 C121.146317,76.8129513 121.963317,71.2049513 121.007317,65.8369513 C120.158317,61.0649513 117.926317,56.6989513 115.149317,52.7689513 C112.668317,49.2569513 108.204317,46.9019513 106.512317,42.8269513 C104.912317,38.9699513 106.674317,33.1589513 106.471317,28.9089513 C106.351317,26.3699513 106.214317,23.7629513 105.180317,21.4399513 C104.682317,20.3179513 103.991317,19.3029513 103.229317,18.3359513" id="Fill-1" fill="#FFFFFF"></path>
                <path d="M144.372817,165.340751 C144.314817,165.283751 144.220817,164.483751 144.163817,163.584751 C144.105817,162.685751 143.968817,161.599751 143.859817,161.200751 C143.752817,160.804751 143.661817,160.211751 143.661817,159.904751 C143.661817,159.599751 143.412817,158.880751 143.117817,158.337751 C142.816817,157.781751 142.243817,156.727751 141.832817,155.975751 C141.421817,155.222751 141.011817,154.583751 140.912817,154.542751 C140.815817,154.503751 140.734817,154.292751 140.734817,154.083751 C140.734817,153.873751 140.634817,153.634751 140.515817,153.560751 C140.393817,153.485751 140.101817,153.006751 139.858817,152.484751 C139.428817,151.555751 138.247817,150.555751 137.201817,150.234751 C136.911817,150.145751 136.365817,150.190751 135.905817,150.342751 C135.048817,150.625751 134.695817,150.521751 135.018817,150.079751 C135.126817,149.930751 135.333817,149.432751 135.476817,148.972751 C135.620817,148.512751 135.822817,147.947751 135.926817,147.717751 C136.136817,147.250751 136.735817,145.104751 136.902817,144.226751 C136.962817,143.912751 137.110817,143.641751 137.223817,143.641751 C137.334817,143.641751 137.383817,143.443751 137.327817,143.212751 C137.270817,142.980751 137.303817,142.219751 137.397817,141.550751 C137.568817,140.345751 137.443817,139.042751 136.976817,137.160751 C136.845817,136.637751 136.658817,135.771751 136.554817,135.206751 C136.448817,134.642751 136.222817,133.974751 136.041817,133.700751 C135.862817,133.429751 135.717817,133.065751 135.717817,132.885751 C135.717817,132.697751 135.630817,132.562751 135.508817,132.562751 C135.392817,132.562751 135.299817,132.394751 135.299817,132.185751 C135.299817,131.976751 135.216817,131.721751 135.111817,131.611751 C135.008817,131.501751 134.711817,131.035751 134.452817,130.575751 C134.193817,130.115751 133.770817,129.362751 133.512817,128.903751 C133.249817,128.437751 132.935817,127.670751 132.801817,127.168751 C132.594817,126.395751 132.438817,126.217751 131.683817,125.898751 C130.783817,125.518751 130.066817,125.473751 129.341817,125.752751 C129.116817,125.839751 128.672817,126.005751 128.380817,126.112751 C128.087817,126.219751 127.726817,126.547751 127.596817,126.823751 C127.468817,127.095751 127.257817,127.335751 127.146817,127.335751 C127.029817,127.335751 126.937817,127.649751 126.937817,128.046751 C126.937817,128.652751 127.029817,128.789751 127.564817,128.976751 C127.940817,129.108751 128.149817,129.304751 128.087817,129.468751 C128.030817,129.614751 128.361817,130.147751 128.809817,130.628751 C129.255817,131.109751 129.701817,131.732751 129.780817,131.986751 C129.859817,132.241751 130.103817,132.687751 130.313817,132.958751 C130.522817,133.231751 130.700817,133.638751 130.700817,133.847751 C130.700817,134.056751 130.796817,134.234751 130.909817,134.234751 C131.027817,134.234751 131.118817,134.411751 131.118817,134.642751 C131.118817,134.871751 131.209817,135.104751 131.327817,135.174751 C131.440817,135.242751 131.536817,135.529751 131.536817,135.802751 C131.536817,136.449751 131.938817,138.186751 132.210817,138.707751 C132.460817,139.188751 132.438817,142.365751 132.184817,142.679751 C132.078817,142.808751 131.952817,143.369751 131.895817,143.954751 C131.792817,145.021751 131.081817,147.260751 130.700817,147.717751 C130.578817,147.863751 130.552817,148.029751 130.638817,148.114751 C130.760817,148.236751 130.601817,148.679751 130.046817,149.766751 C129.949817,149.954751 129.864817,150.264751 129.864817,150.424751 C129.864817,150.591751 129.581817,151.208751 129.236817,151.793751 C128.893817,152.379751 128.609817,152.949751 128.609817,153.059751 C128.609817,153.178751 128.543817,153.257751 128.442817,153.257751 C128.351817,153.257751 128.142817,153.591751 127.982817,153.988751 C127.823817,154.386751 127.613817,154.720751 127.522817,154.720751 C127.433817,154.720751 127.355817,154.846751 127.355817,154.992751 C127.355817,155.448751 125.955817,157.107751 124.972817,157.813751 C123.514817,158.861751 123.571817,160.155751 125.077817,160.155751 C125.683817,160.155751 127.669817,159.422751 128.191817,159.005751 C128.358817,158.871751 128.612817,158.718751 128.735817,158.675751 C129.191817,158.518751 130.594817,157.104751 131.518817,155.870751 C132.033817,155.180751 132.625817,154.465751 132.832817,154.281751 C133.041817,154.096751 133.209817,153.803751 133.209817,153.623751 C133.209817,153.435751 133.336817,153.194751 133.512817,153.048751 C133.746817,152.854751 133.888817,152.870751 134.139817,153.121751 C134.327817,153.309751 134.463817,153.555751 134.463817,153.706751 C134.463817,153.849751 134.776817,154.259751 135.152817,154.608751 C135.926817,155.325751 136.825817,156.703751 136.862817,157.229751 C136.876817,157.425751 137.094817,157.804751 137.348817,158.075751 C137.601817,158.345751 137.812817,158.807751 137.818817,159.100751 C137.824817,159.393751 137.956817,159.803751 138.110817,160.009751 C138.269817,160.222751 138.348817,160.563751 138.288817,160.793751 C138.229817,161.023751 138.266817,161.200751 138.372817,161.200751 C138.726817,161.200751 139.078817,162.727751 139.095817,164.336751 C139.136817,168.141751 139.064817,169.225751 138.745817,169.709751 C138.552817,170.001751 138.471817,170.385751 138.550817,170.629751 C138.624817,170.859751 138.587817,171.164751 138.466817,171.308751 C138.347817,171.450751 138.223817,171.883751 138.194817,172.259751 C138.166817,172.636751 138.066817,172.992751 137.975817,173.043751 C137.884817,173.094751 137.808817,173.367751 137.808817,173.639751 C137.808817,173.910751 137.712817,174.198751 137.599817,174.266751 C137.488817,174.332751 137.390817,174.559751 137.390817,174.747751 C137.390817,174.945751 137.206817,175.332751 136.972817,175.625751 C136.737817,175.917751 136.552817,176.304751 136.550817,176.503751 C136.545817,176.879751 135.726817,178.405751 135.466817,178.520751 C135.378817,178.559751 135.299817,178.761751 135.299817,178.948751 C135.299817,179.147751 134.837817,179.785751 134.254817,180.391751 C133.671817,180.997751 133.209817,181.525751 133.209817,181.583751 C133.209817,181.833751 130.752817,184.404751 130.512817,184.404751 C130.408817,184.404751 129.938817,184.864751 129.465817,185.429751 C128.501817,186.579751 128.495817,187.122751 129.445817,187.122751 C130.052817,187.122751 133.229817,185.690751 133.836817,185.144751 C134.023817,184.974751 134.269817,184.823751 134.358817,184.823751 C134.449817,184.823751 134.839817,184.585751 135.216817,184.300751 C135.592817,184.015751 135.986817,183.777751 136.083817,183.777751 C136.184817,183.777751 136.399817,183.621751 136.585817,183.412751 C136.766817,183.207751 137.368817,182.632751 137.954817,182.106751 C138.539817,181.578751 139.105817,180.962751 139.239817,180.705751 C139.371817,180.454751 139.651817,180.191751 139.856817,180.125751 C140.222817,180.010751 140.485817,179.617751 140.958817,178.488751 C141.089817,178.175751 141.259817,177.924751 141.341817,177.924751 C141.539817,177.924751 142.086817,176.650751 142.498817,175.228751 C142.680817,174.601751 142.936817,173.969751 143.075817,173.806751 C143.213817,173.647751 143.348817,173.305751 143.373817,173.054751 C143.500817,171.820751 143.728817,170.694751 143.896817,170.483751 C143.997817,170.356751 144.098817,169.761751 144.121817,169.155751 C144.143817,168.549751 144.237817,168.012751 144.330817,167.955751 C144.518817,167.841751 144.555817,165.524751 144.372817,165.340751" id="Fill-3" fill="#7ED6DC"></path>
                <path d="M134.926517,112.026351 C134.868517,111.948351 134.837517,111.422351 134.858517,110.854351 C134.878517,110.286351 134.864517,109.487351 134.826517,109.074351 C134.789517,108.667351 134.802517,107.992351 134.855517,107.598351 C134.908517,107.202351 134.830517,106.052351 134.683517,105.058351 C134.535517,104.064351 134.405517,102.950351 134.394517,102.595351 C134.383517,102.234351 134.300517,101.880351 134.206517,101.796351 C134.114517,101.713351 134.054517,101.319351 134.072517,100.921351 C134.091517,100.525351 133.865517,99.4213513 133.577517,98.4903513 C133.289517,97.5593513 133.059517,96.7183513 133.071517,96.6393513 C133.114517,96.3503513 132.158517,93.5883513 131.855517,93.1203513 C131.687517,92.8623513 131.560517,92.5873513 131.572517,92.5063513 C131.591517,92.3713513 130.860517,91.0703513 130.092517,89.8783513 C129.930517,89.6263513 129.671517,89.1393513 129.531517,88.8223513 C129.211517,88.0983513 126.488517,84.3763513 126.254517,84.3403513 C126.161517,84.3273513 126.004517,84.0713513 125.897517,83.7593513 C125.789517,83.4483513 125.569517,83.1823513 125.395517,83.1573513 C125.220517,83.1303513 124.960517,82.9503513 124.801517,82.7433513 C124.287517,82.0783513 122.798517,80.6573513 122.579517,80.6253513 C122.455517,80.6063513 122.366517,80.4973513 122.383517,80.3843513 C122.401517,80.2673513 122.238517,80.1513513 122.011517,80.1183513 C121.790517,80.0853513 121.445517,79.8223513 121.249517,79.5403513 C120.605517,78.6073513 119.616517,78.2353513 117.878517,78.2723513 C117.030517,78.2903513 116.339517,78.3913513 116.322517,78.5013513 C116.306517,78.6113513 116.133517,78.7843513 115.926517,78.8963513 C115.720517,79.0073513 115.466517,79.4623513 115.350517,79.9303513 C115.146517,80.7443513 115.168517,80.7933513 116.185517,81.7773513 C116.757517,82.3323513 117.317517,82.8013513 117.425517,82.8173513 C117.532517,82.8343513 117.940517,83.0473513 118.326517,83.2903513 C118.713517,83.5323513 119.334517,83.9213513 119.699517,84.1493513 C120.068517,84.3783513 120.466517,84.7603513 120.588517,85.0003513 C120.712517,85.2443513 121.075517,85.6273513 121.419517,85.8743513 C122.069517,86.3413513 124.612517,89.5623513 124.568517,89.8603513 C124.554517,89.9503513 124.982517,90.6403513 125.505517,91.3733513 C126.029517,92.1063513 126.456517,92.7963513 126.443517,92.8863513 C126.429517,92.9793513 126.554517,93.2523513 126.731517,93.5103513 C126.905517,93.7663513 127.179517,94.3383513 127.352517,94.8073513 C127.525517,95.2763513 127.799517,96.0013513 127.977517,96.4533513 C128.479517,97.7323513 128.582517,98.0453513 128.820517,98.9883513 C128.941517,99.4703513 129.124517,100.135351 129.227517,100.464351 C129.328517,100.792351 129.450517,101.576351 129.497517,102.195351 C129.544517,102.815351 129.643517,103.505351 129.715517,103.717351 C129.789517,103.934351 129.806517,104.386351 129.754517,104.738351 C129.701517,105.089351 129.767517,105.594351 129.901517,105.880351 C130.032517,106.159351 130.167517,106.870351 130.197517,107.445351 C130.227517,108.025351 130.280517,109.075351 130.315517,109.777351 C130.350517,110.477351 130.163517,112.502351 129.903517,114.259351 C129.405517,117.609351 129.405517,117.609351 127.927517,119.778351 C127.640517,120.200351 127.387517,120.662351 127.366517,120.804351 C127.344517,120.949351 127.237517,121.049351 127.120517,121.032351 C126.822517,120.987351 126.720517,121.881351 126.984517,122.237351 C127.439517,122.850351 129.456517,122.626351 130.238517,121.876351 C130.537517,121.588351 131.062517,121.110351 131.437517,120.786351 C131.812517,120.461351 132.118517,120.109351 132.138517,119.981351 C132.156517,119.859351 132.418517,119.410351 132.705517,119.008351 C132.992517,118.607351 133.261517,118.111351 133.287517,117.933351 C133.316517,117.747351 133.456517,117.513351 133.610517,117.399351 C133.761517,117.288351 134.029517,116.437351 134.210517,115.492351 C134.392517,114.547351 134.648517,113.425351 134.784517,112.977351 C134.921517,112.533351 134.985517,112.105351 134.926517,112.026351" id="Fill-5" fill="#7ED6DC"></path>
                <path d="M125.069117,66.8486513 C124.965117,66.7846513 124.857117,65.9596513 124.829117,64.9976513 C124.799117,64.0366513 124.594117,62.5276513 124.369117,61.6116513 C124.146117,60.7126513 123.961117,59.8276513 123.961117,59.6676513 C123.961117,59.5046513 123.785117,59.0086513 123.564117,58.5486513 C123.345117,58.0956513 123.044117,57.2426513 122.895117,56.6576513 C122.746117,56.0726513 122.406117,55.3886513 122.142117,55.1416513 C121.871117,54.8876513 121.662117,54.6106513 121.662117,54.5036513 C121.662117,54.4026513 121.326117,53.9086513 120.929117,53.4276513 C120.534117,52.9466513 120.198117,52.4526513 120.198117,52.3506513 C120.198117,52.2516513 120.030117,51.9746513 119.843117,51.7656513 C119.491117,51.3706513 118.695117,50.0096513 118.217117,48.9856513 C118.100117,48.7346513 117.936117,48.5256513 117.857117,48.5256513 C117.778117,48.5256513 117.417117,48.0966513 117.073117,47.5946513 C116.729117,47.0936513 116.243117,46.6076513 116.017117,46.5386513 C115.787117,46.4706513 115.599117,46.2866513 115.599117,46.1316513 C115.599117,45.9736513 115.139117,45.3896513 114.553117,44.8046513 C113.968117,44.2186513 113.508117,43.6766513 113.508117,43.5716513 C113.508117,43.2376513 112.610117,42.5446513 111.418117,41.9606513 C110.791117,41.6536513 110.031117,41.1786513 109.746117,40.9156513 C109.450117,40.6436513 108.951117,40.3676513 108.596117,40.2786513 C108.251117,40.1926513 107.185117,39.7456513 106.223117,39.2856513 C105.261117,38.8256513 104.426117,38.5056513 104.363117,38.5756513 C104.297117,38.6466513 104.123117,38.5956513 103.955117,38.4556513 C103.674117,38.2226513 103.077117,38.1506513 100.234117,38.0096513 C99.7741169,37.9876513 99.3511169,37.9166513 99.2941169,37.8536513 C99.2361169,37.7906513 98.6341169,37.7766513 97.9651169,37.8226513 C96.8791169,37.8966513 96.6521169,37.9956513 95.9271169,38.7206513 C95.4471169,39.2026513 95.1121169,39.7426513 95.1121169,40.0376513 C95.1121169,40.6646513 96.1161169,41.6466513 97.3701169,42.2446513 C97.9141169,42.5036513 98.5301169,42.8076513 98.7501169,42.9226513 C98.9591169,43.0336513 99.2041169,43.0526513 99.2661169,42.9646513 C99.4621169,42.6916513 100.276117,42.2536513 100.590117,42.2536513 C100.740117,42.2536513 101.196117,42.4306513 101.614117,42.6516513 C102.023117,42.8676513 102.963117,43.1006513 103.673117,43.1626513 C104.383117,43.2256513 105.136117,43.4166513 105.324117,43.5806513 C105.511117,43.7446513 106.077117,44.0856513 106.557117,44.3236513 C107.039117,44.5616513 107.657117,45.0506513 107.906117,45.3896513 C108.182117,45.7656513 108.558117,46.0166513 108.846117,46.0166513 C109.348117,46.0166513 110.164117,46.7546513 110.164117,47.2076513 C110.164117,47.3546513 110.251117,47.4806513 110.352117,47.4806513 C110.589117,47.4806513 112.360117,49.3196513 112.969117,50.1986513 C113.215117,50.5526513 113.517117,50.8256513 113.666117,50.8256513 C113.806117,50.8256513 113.926117,51.0546513 113.926117,51.3266513 C113.926117,51.6006513 114.227117,52.1416513 114.589117,52.5186513 C115.450117,53.4166513 116.853117,55.5406513 116.853117,55.9466513 C116.853117,56.1146513 116.951117,56.2596513 117.062117,56.2596513 C117.172117,56.2596513 117.271117,56.3746513 117.271117,56.5006513 C117.271117,56.6336513 117.438117,56.8876513 117.647117,57.0726513 C118.101117,57.4716513 118.361117,58.0366513 118.455117,58.8306513 C118.494117,59.1656513 118.713117,59.7006513 118.944117,60.0236513 C119.168117,60.3366513 119.362117,60.8556513 119.362117,61.1416513 C119.362117,61.4336513 119.456117,61.7316513 119.571117,61.7996513 C119.689117,61.8706513 119.780117,62.1976513 119.780117,62.5526513 C119.780117,62.9086513 119.874117,63.3516513 119.996117,63.5776513 C120.346117,64.2216513 120.448117,65.2906513 120.535117,69.2626513 C120.585117,71.5626513 120.529117,73.3596513 120.387117,73.9666513 C119.992117,75.6606513 119.315117,77.8826513 119.133117,78.0846513 C118.780117,78.4766513 118.923117,79.8616513 119.362117,80.3006513 C119.591117,80.5306513 119.874117,80.7186513 119.989117,80.7186513 C120.308117,80.7186513 122.707117,78.2096513 122.707117,77.8756513 C122.707117,77.7076513 122.797117,77.5826513 122.916117,77.5826513 C123.033117,77.5826513 123.125117,77.4676513 123.125117,77.3216513 C123.125117,77.1776513 123.265117,76.7876513 123.438117,76.4536513 C123.611117,76.1196513 123.705117,75.8006513 123.647117,75.7436513 C123.590117,75.6866513 123.624117,75.5346513 123.720117,75.4096513 C123.820117,75.2806513 124.013117,74.7186513 124.160117,74.1336513 C124.305117,73.5476513 124.499117,72.9046513 124.598117,72.6696513 C124.697117,72.4396513 124.823117,71.2696513 124.881117,70.0576513 C124.938117,68.8446513 125.046117,67.6606513 125.121117,67.4126513 C125.197117,67.1616513 125.173117,66.9116513 125.069117,66.8486513" id="Fill-7" fill="#7ED6DC"></path>
                <path d="M124.587717,177.715751 C124.358717,177.486751 123.990717,177.297751 123.773717,177.297751 C123.124717,177.297751 121.033717,179.116751 121.033717,179.681751 C121.033717,179.848751 120.962717,180.004751 120.866717,180.046751 C120.774717,180.086751 120.314717,180.684751 119.842717,181.374751 C119.370717,182.064751 118.712717,182.771751 118.379717,182.945751 C117.668717,183.319751 117.271717,183.677751 117.271717,183.945751 C117.271717,184.049751 116.612717,184.437751 115.797717,184.813751 C114.982717,185.189751 114.150717,185.679751 113.937717,185.910751 C113.729717,186.135751 113.226717,186.410751 112.850717,186.506751 C112.461717,186.605751 111.125717,186.935751 109.850717,187.248751 C108.574717,187.561751 106.759717,188.087751 105.774717,188.429751 C104.083717,189.015751 102.407717,189.252751 99.6077169,189.300751 C99.0217169,189.310751 98.4607169,189.412751 98.3317169,189.534751 C98.0117169,189.835751 95.1337169,189.896751 93.6697169,189.633751 C93.0227169,189.516751 92.0797169,189.382751 91.5587169,189.332751 C89.6357169,189.148751 87.4687169,188.778751 86.9597169,188.550751 C86.6667169,188.418751 86.3677169,188.328751 86.2797169,188.346751 C86.1937169,188.362751 85.4757169,188.051751 84.6817169,187.652751 C83.2387169,186.927751 81.8027169,186.460751 81.0437169,186.470751 C80.8317169,186.472751 80.4897169,186.694751 80.3127169,186.944751 C80.1337169,187.195751 79.8017169,187.591751 79.6017169,187.791751 C79.0617169,188.331751 79.1127169,189.443751 79.7077169,190.091751 C79.9807169,190.388751 80.6257169,190.844751 81.1277169,191.094751 C81.6287169,191.345751 82.1897169,191.678751 82.3607169,191.826751 C82.6437169,192.070751 84.5977169,192.672751 85.9147169,192.919751 C86.2067169,192.975751 86.5747169,193.069751 86.7507169,193.133751 C86.9287169,193.197751 87.3357169,193.283751 87.6917169,193.331751 C88.0357169,193.377751 88.8827169,193.511751 89.5727169,193.628751 C92.8137169,194.179751 97.6867169,194.475751 98.6667169,194.179751 C99.0707169,194.057751 100.004717,193.949751 100.756717,193.938751 C101.509717,193.926751 102.208717,193.859751 102.324717,193.787751 C102.575717,193.632751 105.095717,193.310751 105.209717,193.418751 C105.253717,193.461751 105.439717,193.377751 105.606717,193.238751 C105.936717,192.966751 109.410717,191.972751 110.477717,191.846751 C111.397717,191.737751 111.939717,191.581751 112.609717,191.233751 C112.933717,191.064751 113.988717,190.712751 114.971717,190.447751 C116.539717,190.024751 118.666717,188.883751 118.910717,188.335751 C118.949717,188.247751 119.173717,188.168751 119.382717,188.168751 C119.591717,188.168751 119.779717,188.088751 119.779717,188.000751 C119.779717,187.907751 120.146717,187.607751 120.605717,187.321751 C121.065717,187.036751 121.551717,186.577751 121.702717,186.286751 C121.855717,185.993751 122.135717,185.584751 122.340717,185.356751 C122.546717,185.126751 122.706717,184.839751 122.706717,184.697751 C122.706717,184.551751 122.775717,184.416751 122.873717,184.374751 C123.159717,184.250751 123.960717,182.733751 123.960717,182.315751 C123.960717,182.106751 124.060717,181.858751 124.169717,181.792751 C124.288717,181.721751 124.378717,181.395751 124.378717,181.039751 C124.378717,180.684751 124.483717,180.213751 124.621717,179.952751 C125.062717,179.116751 125.048717,178.176751 124.587717,177.715751" id="Fill-9" fill="#7ED6DC"></path>
                <path d="M109.310317,237.503851 C109.123317,236.541851 108.802317,235.760851 108.443317,235.392851 C108.285317,235.230851 107.989317,234.743851 107.781317,234.304851 C107.573317,233.865851 107.273317,233.458851 107.112317,233.395851 C106.944317,233.329851 106.819317,233.172851 106.819317,233.029851 C106.819317,232.889851 106.443317,232.462851 105.961317,232.057851 C105.481317,231.652851 104.957317,231.175851 104.770317,230.970851 C104.579317,230.761851 104.319317,230.605851 104.164317,230.605851 C104.018317,230.605851 103.892317,230.508851 103.892317,230.395851 C103.892317,230.280851 103.704317,230.186851 103.474317,230.186851 C103.245317,230.186851 103.056317,230.092851 103.056317,229.977851 C103.056317,229.859851 102.878317,229.768851 102.648317,229.768851 C102.412317,229.768851 102.114317,229.527851 101.938317,229.193851 C101.773317,228.881851 101.300317,228.351851 100.903317,228.033851 C100.409317,227.638851 100.123317,227.196851 100.025317,226.674851 C99.9463169,226.256851 99.8263169,225.815851 99.7633169,225.712851 C99.7023169,225.611851 99.6223169,225.274851 99.5903169,224.981851 C99.4043169,223.245851 99.2113169,222.112851 99.0723169,221.929851 C98.9483169,221.765851 98.7793169,217.873851 98.8533169,216.911851 C99.0003169,215.030851 99.1003169,214.210851 99.3013169,213.253851 C99.5853169,211.895851 99.5853169,211.895851 99.2803169,209.072851 C98.9633169,206.167851 98.8923169,203.206851 99.1253169,202.738851 C99.2513169,202.487851 99.2343169,202.261851 99.0743169,202.059851 C98.8913169,201.829851 98.8913169,201.685851 99.0743169,201.463851 C99.4173169,201.043851 99.3863169,199.665851 99.0013169,198.348851 C98.8063169,197.677851 97.7883169,197.002851 96.8893169,196.947851 C94.7153169,196.816851 94.0833169,197.149851 93.9933169,198.474851 C93.9643169,198.892851 93.8863169,199.282851 93.8163169,199.352851 C93.7483169,199.419851 93.7773169,199.832851 93.8783169,200.250851 C93.9823169,200.674851 94.0103169,201.923851 93.9423169,203.010851 C93.8713169,204.139851 93.9113169,205.401851 94.0363169,205.937851 C94.1723169,206.522851 94.1763169,206.956851 94.0463169,207.086851 C93.7793169,207.354851 93.7893169,209.512851 94.0603169,210.222851 C94.2123169,210.619851 94.2073169,210.870851 94.0463169,211.068851 C93.9273169,211.215851 93.8673169,211.432851 93.9203169,211.519851 C93.9793169,211.611851 94.0853169,212.219851 94.1613169,212.888851 C94.2583169,213.744851 94.2283169,214.089851 94.0563169,214.089851 C93.8783169,214.089851 93.8753169,214.162851 94.0463169,214.371851 C94.2083169,214.570851 94.2133169,214.863851 94.0633169,215.364851 C93.7873169,216.284851 93.7903169,222.676851 94.0673169,222.953851 C94.1843169,223.070851 94.2763169,223.538851 94.2763169,224.020851 C94.2763169,224.500851 94.3593169,224.968851 94.4653169,225.085851 C94.6403169,225.278851 95.1773169,227.009851 95.4263169,228.179851 C95.4943169,228.492851 95.7213169,228.944851 95.9173169,229.151851 C96.1153169,229.360851 96.4093169,229.894851 96.5573169,230.312851 C96.8643169,231.176851 96.8893169,231.206851 98.2693169,232.317851 C98.7913169,232.738851 99.2883169,233.036851 99.3563169,232.970851 C99.4703169,232.859851 101.087317,233.823851 101.383317,234.179851 C101.443317,234.250851 101.697317,234.413851 101.969317,234.555851 C102.241317,234.697851 102.540317,235.006851 102.659317,235.266851 C102.772317,235.516851 103.107317,236.061851 103.390317,236.457851 L103.914317,237.190851 L103.474317,237.551851 C102.874317,238.045851 102.492317,238.027851 101.592317,237.465851 C100.781317,236.956851 100.861317,236.989851 99.9833169,236.785851 C99.6073169,236.697851 99.2933169,236.501851 99.2933169,236.353851 C99.2933169,236.138851 98.0183169,235.890851 96.0533169,235.723851 C95.9443169,235.713851 95.7293169,235.635851 95.6033169,235.559851 C95.4753169,235.481851 95.2163169,235.466851 95.0493169,235.527851 C94.8823169,235.589851 94.6723169,235.540851 94.6003169,235.423851 C94.5263169,235.303851 93.8583169,235.203851 93.1263169,235.203851 C92.2903169,235.203851 91.6863169,235.102851 91.5173169,234.932851 C90.6423169,234.057851 87.0433169,233.779851 86.0393169,234.510851 C85.7473169,234.723851 85.5123169,234.995851 85.5063169,235.130851 C85.5013169,235.255851 85.3963169,235.403851 85.2873169,235.440851 C85.0763169,235.511851 85.6963169,237.837851 86.1313169,238.610851 C86.2383169,238.799851 86.3323169,239.065851 86.3323169,239.175851 C86.3323169,239.412851 84.9953169,239.802851 84.1793169,239.802851 C83.2213169,239.802851 80.5413169,238.338851 79.0993169,237.025851 C78.7483169,236.706851 78.0653169,236.322851 77.6053169,236.186851 C77.1453169,236.049851 76.4333169,235.640851 76.0473169,235.289851 C75.0433169,234.378851 74.5103169,234.125851 73.9143169,234.279851 C73.5593169,234.371851 73.3493169,234.296851 73.1943169,234.022851 C73.0163169,233.708851 72.9243169,233.685851 72.7133169,233.897851 C72.5733169,234.037851 72.1273169,234.158851 71.7513169,234.158851 C71.3753169,234.158851 70.8383169,234.276851 70.5913169,234.413851 C70.1343169,234.667851 70.0473169,234.690851 68.8353169,234.886851 C68.4503169,234.948851 67.8423169,235.305851 67.4033169,235.726851 C66.9853169,236.127851 66.5553169,236.457851 66.4523169,236.457851 C66.3513169,236.457851 66.2643169,236.583851 66.2643169,236.730851 C66.2643169,236.885851 66.0763169,237.131851 65.8253169,237.304851 C65.5743169,237.478851 65.2653169,237.724851 65.1043169,237.879851 C64.9503169,238.027851 64.0893169,238.497851 63.2113169,238.914851 C61.6643169,239.647851 61.5813169,239.663851 61.0583169,239.321851 C60.7503169,239.120851 60.2443169,238.835851 59.8883169,238.663851 C59.5403169,238.495851 58.8463169,237.890851 58.3313169,237.304851 C57.8153169,236.719851 57.2893169,236.248851 57.1493169,236.248851 C57.0133169,236.248851 56.6453169,235.914851 56.3443169,235.517851 C56.0433169,235.119851 55.7003169,234.785851 55.5923169,234.785851 C55.4853169,234.785851 54.9653169,234.583851 54.4633169,234.346851 C53.8363169,234.050851 53.3763169,233.958851 53.0523169,234.064851 C52.7853169,234.150851 52.2373169,234.202851 51.8193169,234.179851 C51.3593169,234.153851 50.9363169,234.263851 50.7323169,234.461851 C50.5433169,234.644851 50.3153169,234.785851 50.2093169,234.785851 C50.1083169,234.785851 49.7183169,234.935851 49.3633169,235.109851 C49.0073169,235.284851 48.6183169,235.380851 48.5163169,235.318851 C48.4143169,235.256851 47.8163169,235.380851 47.2093169,235.590851 C46.5893169,235.804851 45.4013169,235.995851 44.5433169,236.019851 C43.6873169,236.042851 42.8713169,236.130851 42.7143169,236.217851 C42.5603169,236.303851 41.6593169,236.273851 40.7183169,236.149851 C38.6273169,235.875851 38.4173169,235.545851 39.6313169,234.442851 C40.0493169,234.063851 40.4923169,233.739851 40.5933169,233.739851 C40.6943169,233.739851 40.9073169,233.619851 41.0533169,233.478851 C41.6303169,232.921851 42.3703169,232.365851 43.0393169,231.988851 C43.4363169,231.764851 43.9153169,231.421851 44.1253169,231.210851 C44.5433169,230.792851 46.4583169,229.768851 46.8233169,229.768851 C46.9523169,229.768851 47.3453169,229.553851 47.7213169,229.276851 C48.0933169,229.004851 48.7253169,228.734851 49.1433169,228.670851 C50.0213169,228.536851 51.4113169,227.712851 51.4173169,227.322851 C51.4193169,227.176851 51.5183169,227.050851 51.6303169,227.050851 C51.7473169,227.050851 51.8393169,226.820851 51.8393169,226.527851 C51.8393169,226.235851 51.9223169,226.005851 52.0283169,226.005851 C52.2133169,226.005851 52.5983169,223.643851 52.5043169,223.078851 C52.4303169,222.631851 52.4423169,222.493851 52.6643169,221.093851 C52.8243169,220.089851 52.8033169,219.772851 52.5613169,219.504851 C52.3903169,219.316851 52.2573169,219.106851 52.2573169,219.023851 C52.2573169,218.942851 51.9653169,218.631851 51.6103169,218.333851 L50.9613169,217.789851 L51.0873169,212.647851 C51.1563169,209.825851 51.2613169,206.797851 51.3213169,205.937851 C51.4433169,204.159851 51.9733169,201.583851 52.2963169,201.191851 C52.6443169,200.770851 52.2993169,199.509851 51.6723169,198.907851 C50.9703169,198.233851 49.9583169,197.784851 49.1433169,197.784851 C48.0143169,197.784851 46.4543169,199.685851 46.7403169,200.710851 C46.8203169,200.998851 46.8673169,203.490851 46.8433169,206.250851 C46.8143169,209.783851 46.9003169,212.071851 47.1353169,213.984851 C47.7183169,218.731851 47.7153169,218.566851 47.2433169,219.169851 C46.9973169,219.482851 46.8653169,219.836851 46.9443169,219.964851 C47.2313169,220.425851 47.2203169,222.932851 46.9303169,223.496851 C46.6293169,224.082851 45.3503169,225.169851 44.9623169,225.169851 C44.8363169,225.169851 44.7323169,225.264851 44.7323169,225.378851 C44.7323169,225.495851 44.5853169,225.587851 44.3983169,225.587851 C44.2103169,225.587851 43.8833169,225.816851 43.6563169,226.109851 C43.4273169,226.402851 43.1153169,226.632851 42.9453169,226.632851 C42.7783169,226.632851 42.6413169,226.726851 42.6413169,226.841851 C42.6413169,226.956851 42.4543169,227.050851 42.2233169,227.050851 C41.9943169,227.050851 41.8053169,227.145851 41.8053169,227.260851 C41.8053169,227.507851 40.5723169,228.723851 40.3213169,228.723851 C40.2263169,228.723851 39.9453169,228.927851 39.6733169,229.193851 C39.4073169,229.453851 38.5863169,230.110851 37.8333169,230.665851 C36.0363169,231.991851 35.8263169,232.168851 35.6143169,232.527851 C35.5133169,232.698851 34.8863169,233.189851 34.2383169,233.604851 C33.1933169,234.274851 33.0253169,234.476851 32.8693169,235.255851 C32.7093169,236.050851 32.7533169,236.236851 33.2843169,237.022851 C34.5823169,238.945851 36.5653169,240.512851 37.2063169,240.121851 C37.2893169,240.071851 37.6663169,240.125851 38.0633169,240.243851 C38.9333169,240.502851 42.5583169,240.483851 44.1053169,240.212851 C44.7403169,240.102851 46.4253169,239.791851 47.8683169,239.520851 C50.2093169,239.080851 50.5893169,239.057851 51.5263169,239.301851 C52.8223169,239.639851 54.9973169,240.675851 55.3883169,241.140851 C55.5503169,241.333851 56.0733169,241.696851 56.5333169,241.935851 C56.9933169,242.173851 57.4323169,242.450851 57.4953169,242.541851 C57.5573169,242.632851 58.3413169,243.083851 59.2193169,243.533851 C60.8083169,244.349851 60.8473169,244.357851 62.2293169,244.164851 C63.9443169,243.925851 66.8703169,242.474851 68.7933169,240.908851 C69.2323169,240.551851 69.9193169,240.201851 70.3303169,240.126851 C70.7473169,240.050851 71.0723169,239.927851 71.0723169,239.844851 C71.0723169,239.688851 72.1173169,239.100851 72.7453169,238.903851 C72.9333169,238.844851 73.2793169,239.008851 73.5393169,239.279851 C73.7873169,239.539851 74.4273169,239.866851 74.9293169,239.990851 C75.4303169,240.114851 76.1003169,240.461851 76.3813169,240.743851 C76.6743169,241.035851 76.9643169,241.266851 77.0403169,241.266851 C77.1153169,241.266851 78.1793169,241.754851 79.4133169,242.354851 C82.2423169,243.731851 84.6603169,244.314851 87.5033169,244.304978 L89.5933169,244.297851 L90.3983169,243.492851 C91.1893169,242.701851 91.2013169,242.666851 91.0903169,241.495851 C90.9633169,240.157851 91.1643169,239.593851 91.7673169,239.593851 C91.9763169,239.593851 92.2263169,239.494851 92.2943169,239.384851 C92.4733169,239.096851 94.7363169,239.326851 95.4673169,239.707851 C95.7943169,239.877851 96.4503169,240.011851 96.9523169,240.011851 C97.8513169,240.011851 99.3473169,240.655851 99.8183169,241.244851 C100.192317,241.714851 102.576317,242.363851 104.143317,242.424851 C105.460317,242.474851 105.600317,242.437851 106.044317,241.913851 C106.512317,241.363851 107.279317,240.808851 108.282317,240.291851 C108.554317,240.150851 108.818317,239.816851 108.857317,239.562851 C108.896317,239.311851 109.008317,239.037851 109.097317,238.976851 C109.379317,238.781851 109.456317,238.255851 109.310317,237.503851" id="Fill-11" fill="#7ED6DC"></path>
                <path d="M108.575017,27.1396513 C108.507017,27.0716513 108.435017,26.5436513 108.419017,25.9796513 C108.401017,25.4146513 108.316017,24.8736513 108.230017,24.7876513 C108.141017,24.6996513 108.073017,24.4226513 108.073017,24.1506513 C108.073017,23.8786513 107.982017,23.6156513 107.864017,23.5436513 C107.748017,23.4746513 107.655017,23.1056513 107.655017,22.7076513 C107.655017,22.3106513 107.563017,21.9426513 107.446017,21.8716513 C107.333017,21.8036513 107.237017,21.5166513 107.237017,21.2446513 C107.237017,20.9726513 107.151017,20.6906513 107.049017,20.6276513 C106.946017,20.5656513 106.809017,20.1996513 106.748017,19.8236513 C106.525017,18.4646513 106.332017,17.9566513 105.857017,17.4826513 C105.588017,17.2116513 105.312017,16.7406513 105.230017,16.4056513 C105.151017,16.0816513 104.788017,15.4756513 104.436017,15.0776513 C104.073017,14.6676513 103.572017,14.0006513 103.297017,13.5626513 C103.021017,13.1226513 102.548017,12.6456513 102.221017,12.4756513 C101.893017,12.3066513 101.238017,11.8086513 100.736017,11.3496513 C98.9800169,9.74365134 98.1490169,9.03365134 98.0180169,9.02465134 C97.9360169,9.01965134 97.5790169,8.74065134 97.2030169,8.38565134 C96.5920169,7.80865134 93.2940169,6.07765134 92.2910169,5.80465134 C92.0570169,5.74265134 91.2240169,5.63165134 90.4090169,5.55565134 C89.5940169,5.48065134 88.8810169,5.38065134 88.8000169,5.33165134 C88.4420169,5.11865134 87.5660169,5.00865134 85.3910169,4.90665134 C82.0890169,4.75165134 82.0610169,4.75465134 80.9600169,5.34365134 C80.4170169,5.63365134 79.8890169,5.87965134 79.8100169,5.87965134 C79.5050169,5.87965134 77.7260169,7.19765134 77.6080169,7.51065134 C77.5440169,7.67965134 77.6000169,8.00165134 77.7300169,8.21065134 C77.8590169,8.41765134 77.9710169,8.79565134 77.9710169,9.02665134 C77.9710169,9.25565134 78.1400169,9.50765134 78.3370169,9.56965134 C78.5420169,9.63365134 79.0790169,9.87265134 79.5590169,10.1136513 C80.3910169,10.5296513 80.4480169,10.5316513 81.4930169,10.1966513 C82.0790169,10.0086513 83.0040169,9.78965134 83.5210169,9.71565134 C84.0440169,9.64165134 84.5180169,9.50465134 84.5740169,9.41265134 C84.8460169,8.96565134 90.3670169,9.64065134 91.5580169,10.2656513 C94.5270169,11.8246513 94.6520169,11.8996513 95.2380169,12.4616513 C95.4770169,12.6916513 96.0960169,13.2356513 96.5960169,13.6576513 C98.3320169,15.1186513 98.4570169,15.2416513 98.4570169,15.4756513 C98.4570169,15.6006513 98.5380169,15.7046513 98.6350169,15.7046513 C98.7320169,15.7046513 98.9410169,15.9666513 99.0950169,16.2806513 C99.2550169,16.6056513 99.5720169,17.1266513 99.8270169,17.4826513 C100.081017,17.8366513 100.335017,18.2996513 100.412017,18.5476513 C100.484017,18.7816513 100.788017,19.0946513 101.060017,19.2166513 C101.415017,19.3766513 101.617017,19.6876513 101.719017,20.2316513 C101.801017,20.6696513 102.035017,21.1996513 102.252017,21.4326513 C102.510017,21.7116513 102.638017,22.1546513 102.638017,22.7606513 C102.638017,23.2616513 102.713017,23.6226513 102.805017,23.5656513 C102.897017,23.5076513 103.129017,24.0456513 103.317017,24.7566513 C103.817017,26.6366513 103.991017,28.3306513 104.235017,33.6836513 C104.402017,37.3416513 104.534017,37.6346513 106.025017,37.6457159 C106.967017,37.6526513 107.558017,37.0906513 107.888017,35.8776513 C108.013017,35.4176513 108.169017,34.9006513 108.234017,34.7286513 C108.472017,34.1016513 108.776017,27.3406513 108.575017,27.1396513" id="Fill-13" fill="#7ED6DC"></path>
                <path d="M104.623817,120.604451 C104.565817,120.546451 104.473817,119.998451 104.414817,119.371451 C104.356817,118.744451 104.228817,118.056451 104.128817,117.824451 C103.583817,116.570451 103.474817,116.148451 103.474817,115.294451 C103.474817,114.792451 103.407817,114.375451 103.327817,114.375451 C103.167817,114.375451 102.957817,113.936451 102.426817,112.494451 C102.279817,112.096451 102.075817,111.670451 101.978817,111.563451 C101.880817,111.453451 101.801817,111.114451 101.801817,110.800451 C101.801817,110.487451 101.685817,110.189451 101.540817,110.131451 C101.395817,110.073451 100.973817,109.420451 100.593817,108.667451 C99.6968169,106.891451 98.7518169,105.594451 98.3528169,105.594451 C98.1808169,105.594451 97.8798169,105.407451 97.6838169,105.176451 C97.4878169,104.947451 97.2058169,104.758451 97.0568169,104.758451 C96.9098169,104.758451 96.7848169,104.681451 96.7848169,104.591451 C96.7848169,104.263451 93.6068169,102.787451 93.0008169,102.833451 C91.9978169,102.911451 91.3498169,103.248451 91.3498169,103.692451 C91.3498169,103.922451 91.2658169,104.163451 91.1618169,104.227451 C90.9288169,104.372451 91.4248169,105.720451 91.9098169,106.263451 C92.0798169,106.454451 92.4998169,106.678451 92.8128169,106.748451 C93.9828169,107.004451 96.3508169,109.692451 96.3628169,110.779451 C96.3648169,110.978451 96.5508169,111.365451 96.7848169,111.657451 C97.0198169,111.950451 97.2028169,112.336451 97.2028169,112.535451 C97.2028169,112.723451 97.3018169,112.950451 97.4118169,113.016451 C97.5298169,113.086451 97.6208169,113.319451 97.6208169,113.549451 C97.6208169,113.779451 97.7128169,113.957451 97.8298169,113.957451 C97.9468169,113.957451 98.0388169,114.186451 98.0388169,114.479451 C98.0388169,114.772451 98.1318169,115.001451 98.2478169,115.001451 C98.3648169,115.001451 98.4568169,115.368451 98.4568169,115.828451 C98.4568169,116.288451 98.5408169,116.705451 98.6448169,116.768451 C98.7478169,116.831451 98.8858169,117.144451 98.9478169,117.458451 C99.0128169,117.780451 99.1688169,118.493451 99.3028169,119.079451 C99.8198169,121.335451 99.6108169,125.135451 98.9328169,125.831451 C98.7908169,125.974451 98.6668169,126.269451 98.6668169,126.458451 C98.6668169,126.657451 98.5288169,127.074451 98.3528169,127.409451 C98.1768169,127.744451 98.0388169,128.174451 98.0388169,128.391451 C98.0388169,128.600451 97.9428169,128.835451 97.8298169,128.904451 C97.7128169,128.974451 97.6208169,129.207451 97.6208169,129.436451 C97.6208169,129.667451 97.5488169,129.844451 97.4538169,129.844451 C97.2408169,129.844451 96.7848169,130.785451 96.7848169,131.224451 C96.7848169,131.409451 96.4148169,132.321451 95.9588169,133.262451 C95.5028169,134.203451 95.1568169,135.106451 95.1858169,135.279451 C95.3678169,136.345451 96.2998169,136.666451 97.3078169,136.010451 C98.2278169,135.411451 99.7118169,133.992451 99.7118169,133.711451 C99.7118169,133.571451 99.9408169,133.249451 100.233817,132.980451 C100.526817,132.710451 100.715817,132.453451 100.662817,132.394451 C100.609817,132.336451 100.823817,131.956451 101.143817,131.538451 C101.462817,131.120451 101.852817,130.506451 102.020817,130.158451 C102.192817,129.802451 102.369817,129.485451 102.429817,129.426451 C102.514817,129.340451 103.059817,128.255451 104.139817,126.018451 C104.235817,125.817451 104.310817,125.391451 104.310817,125.036451 C104.310817,124.680451 104.400817,124.409451 104.519817,124.409451 C104.727817,124.409451 104.827817,120.808451 104.623817,120.604451" id="Fill-15" fill="#7ED6DC"></path>
                <path d="M87.3982169,71.2275513 C87.3072169,71.1705513 87.2262169,70.7055513 87.2212169,70.2035513 C87.2152169,69.7025513 87.0732169,69.0075513 86.9072169,68.6775513 C86.7402169,68.3425513 86.5392169,67.7995513 86.4582169,67.4645513 C86.3772169,67.1305513 86.1282169,66.6245513 85.9042169,66.3355513 C85.6752169,66.0435513 85.4962169,65.6435513 85.4962169,65.4265513 C85.4962169,65.2175513 85.4152169,65.0405513 85.3192169,65.0405513 C85.2222169,65.0405513 84.9302169,64.6325513 84.6812169,64.1515513 C84.4322169,63.6705513 83.9432169,63.0715513 83.6152169,62.8445513 C83.2802169,62.6145513 82.8962169,62.2155513 82.7572169,61.9565513 C82.6242169,61.7065513 82.3412169,61.4865513 82.1512169,61.4865513 C81.9532169,61.4865513 81.5662169,61.2785513 81.2732169,61.0145513 C80.5942169,60.4015513 80.2502169,60.1905513 78.4522169,59.2955513 C76.7012169,58.4235513 73.8742169,57.9165513 71.1762169,57.9915513 C69.6712169,58.0325513 69.4512169,58.0915513 68.9712169,58.5815513 C68.6842169,58.8735513 68.3032169,59.1685513 68.1452169,59.2215513 C67.6252169,59.3955513 67.8812169,60.8175513 68.5652169,61.5485513 C68.9172169,61.9255513 69.1912169,62.2825513 69.1922169,62.3645513 C69.1952169,62.8125513 71.8672169,63.5515513 72.3682169,63.2425513 C72.5222169,63.1475513 72.8802169,63.0975513 73.1942169,63.1265513 C73.5072169,63.1575513 73.8092169,63.0805513 73.8892169,62.9495513 C74.1092169,62.5925513 74.7722169,62.7155513 75.5872169,63.2645513 C76.0052169,63.5465513 76.4812169,63.7865513 76.6232169,63.7865513 C76.7652169,63.7865513 77.1762169,64.0315513 77.5322169,64.3295513 C77.8872169,64.6265513 78.1792169,64.8015513 78.1792169,64.7155513 C78.1792169,64.6265513 78.3662169,64.7995513 78.6082169,65.1135513 C78.8512169,65.4265513 79.1452169,65.6665513 79.2882169,65.6665513 C79.7792169,65.6665513 82.5702169,69.7025513 82.5702169,70.4135513 C82.5702169,70.6845513 82.6422169,70.8935513 82.7372169,70.8935513 C82.9652169,70.8935513 83.4062169,71.9385513 83.4062169,72.4825513 C83.4062169,72.7535513 83.4882169,73.0145513 83.5942169,73.0825513 C83.7622169,73.1905513 83.9582169,73.9455513 84.1092169,75.0745513 C84.1482169,75.3675513 84.1932169,75.6525513 84.2102169,75.7225513 C84.2272169,75.7895513 84.4932169,76.0985513 84.7862169,76.3915513 C85.6542169,77.2595513 86.6862169,77.0815513 87.3242169,75.9525513 C87.6202169,75.4295513 87.6832169,71.4035513 87.3982169,71.2275513" id="Fill-17" fill="#7ED6DC"></path>
                <path d="M82.7996169,206.146451 C82.6946169,206.146451 82.6246169,206.000451 82.6416169,205.812451 C82.6836169,205.339451 81.0016169,204.486451 80.0196169,204.482418 C78.9726169,204.476451 78.3886169,205.289451 78.3886169,206.752451 C78.3886169,207.379451 78.2986169,207.819451 78.1696169,207.819451 C78.0456169,207.819451 78.0966169,207.964451 78.2836169,208.153451 C78.4806169,208.349451 78.6246169,208.842451 78.6336169,209.344451 C78.6916169,212.689451 78.7526169,213.396451 79.0226169,213.818451 C79.1956169,214.089451 79.3976169,214.299451 79.4866169,214.299451 C79.5706169,214.299451 79.6436169,214.445451 79.6436169,214.613451 C79.6436169,215.047451 80.9186169,214.926451 81.3996169,214.445451 C81.5876169,214.257451 81.8326169,214.089451 81.9216169,214.089451 C82.1996169,214.089451 82.3656169,213.504451 82.6886169,211.393451 C83.0236169,209.198451 83.0886169,206.146451 82.7996169,206.146451" id="Fill-19" fill="#7ED6DC"></path>
                <path d="M77.6160169,3.16205134 C77.5520169,2.87805134 76.0480169,1.87905134 75.7550169,1.92605134 C75.6670169,1.94005134 75.5600169,1.88305134 75.4890169,1.78205134 C75.3180169,1.54305134 74.1450169,1.09105134 72.7450169,0.724051341 C72.1170169,0.560051341 71.4050169,0.341051341 71.1770169,0.241051341 C70.7740169,0.0650513414 69.8390169,-0.00994865857 68.1870169,0.00105134143 C67.7610169,0.00405134143 66.9230169,0.0110513414 66.3160169,0.0160513414 C65.7100169,0.0210513414 64.9240169,0.177051341 64.5600169,0.361051341 C64.2050169,0.542051341 63.6030169,0.744051341 63.2540169,0.800051341 C62.8980169,0.857051341 62.4550169,1.03705134 62.2710169,1.19705134 C62.0830169,1.36205134 61.8320169,1.49005134 61.6960169,1.49005134 C61.5690169,1.49005134 61.2890169,1.58205134 61.1000169,1.68505134 C60.1800169,2.19205134 58.3490169,2.95305134 58.0490169,2.95305134 C57.8610169,2.95305134 57.5350169,3.18305134 57.3060169,3.47505134 C57.0780169,3.76805134 56.8520169,3.99805134 56.7950169,3.99805134 C56.7360169,3.99805134 55.9160169,4.74005134 54.9550169,5.66205134 C52.6550169,7.86605134 52.6550169,7.86605134 52.0490169,8.16905134 C51.7610169,8.31305134 51.3100169,8.70205134 51.0460169,9.03605134 C50.7800169,9.37105134 50.4520169,9.64205134 50.3140169,9.64205134 C50.1760169,9.64205134 49.8750169,10.0710513 49.6450169,10.5940513 C49.4150169,11.1160513 48.9680169,11.8280513 48.6520169,12.1720513 C48.3260169,12.5270513 48.0770169,12.9310513 48.0770169,13.1020513 C48.0770169,13.2690513 47.8880169,13.5230513 47.6590169,13.6670513 C47.4290169,13.8100513 47.2410169,14.0980513 47.2410169,14.3050513 C47.2410169,14.5070513 47.0480169,15.0570513 46.8230169,15.4960513 C46.5970169,15.9350513 46.4050169,16.4180513 46.4050169,16.5410513 C46.4050169,16.6690513 46.2190169,17.1580513 45.9860169,17.6390513 C45.7550169,18.1190513 45.5680169,18.6230513 45.5680169,18.7670513 C45.5680169,18.9080513 45.3850169,19.3520513 45.1720169,19.7290513 C44.9580169,20.1060513 44.7190169,20.8060513 44.6550169,21.2450513 C44.3700169,23.1890513 44.2510169,23.7650513 44.0950169,23.9630513 C43.8220169,24.3080513 43.8070169,29.3140513 44.0780169,29.9830513 C44.2080169,30.3060513 44.3140169,30.8920513 44.3140169,31.2890513 C44.3140169,31.6860513 44.3990169,32.0110513 44.5030169,32.0110513 C44.6090169,32.0110513 44.8000169,32.2820513 44.9410169,32.6380513 C45.1600169,33.1840513 45.2970169,33.2650513 46.0080169,33.2650513 C46.5930169,33.2650513 46.8230169,33.1770513 46.8230169,32.9510513 C46.8230169,32.7840513 46.9210169,32.6380513 47.0320169,32.6380513 C47.4430169,32.6380513 47.6230169,31.9060513 47.4420169,30.9660513 C47.3380169,30.4220513 47.3420169,29.7600513 47.4500169,29.3970513 C47.5540169,29.0510513 47.6820169,28.1640513 47.7370169,27.4120513 C47.8600169,25.7190513 48.4200169,23.4410513 49.0530169,22.0600513 C49.3200169,21.4740513 49.5410169,20.8810513 49.5410169,20.7430513 C49.5410169,20.3850513 51.0680169,17.3140513 51.8920169,16.0180513 C52.5700169,14.9520513 53.0810169,14.2890513 53.7750169,13.5730513 C53.9770169,13.3640513 54.1390169,13.1410513 54.1390169,13.0710513 C54.1390169,12.6480513 58.8640169,8.50605134 59.6160169,8.26805134 C59.8860169,8.18305134 60.3270169,7.94105134 60.6200169,7.71905134 C61.6020169,6.97005134 63.0220169,6.10205134 63.2750169,6.09605134 C63.4100169,6.09205134 63.6020169,5.96405134 63.6930169,5.81705134 C63.7860169,5.66605134 64.3930169,5.37905134 65.0620169,5.16905134 C65.7310169,4.96005134 66.2640169,4.72405134 66.2640169,4.63605134 C66.2640169,4.55105134 66.7030169,4.46505134 67.2250169,4.44805134 C67.7480169,4.43105134 68.3780169,4.31305134 68.6050169,4.19105134 C69.1560169,3.89405134 72.7860169,3.87805134 73.8940169,4.16705134 C75.4210169,4.56405134 76.9290169,4.65905134 77.2080169,4.37505134 C77.5480169,4.02905134 77.7050169,3.55905134 77.6160169,3.16205134" id="Fill-21" fill="#7ED6DC"></path>
                <path d="M77.3425169,186.140651 C77.0875169,185.523651 75.9015169,185.301651 75.1075169,185.724651 C74.7825169,185.897651 73.9145169,186.339651 73.1625169,186.715651 C72.4095169,187.091651 71.7715169,187.474651 71.7305169,187.573651 C71.6895169,187.674651 71.5005169,187.749651 71.2915169,187.749651 C71.0945169,187.749651 70.5495169,188.005651 70.1105169,188.304651 C69.6575169,188.612651 68.8765169,188.997651 68.3545169,189.171651 C67.8315169,189.345651 67.3255169,189.564651 67.2155169,189.662651 C67.1075169,189.759651 66.8605169,189.840651 66.6715169,189.840651 C66.4825169,189.840651 65.8985169,190.029651 65.3755169,190.258651 C64.8555169,190.487651 63.8705169,190.767651 63.2015169,190.875651 C62.5255169,190.985651 61.1845169,191.220651 60.2015169,191.402651 C56.2925169,192.123651 55.5395169,192.183651 50.0635169,192.195651 C47.5125169,192.201651 46.1605169,192.075651 45.0455169,191.728651 C44.6905169,191.618651 44.1475169,191.493651 43.7915169,191.440651 C42.9765169,191.317651 40.8435169,190.509651 40.0295169,190.013651 C39.6735169,189.796651 39.1975169,189.631651 38.9315169,189.631651 C38.6805169,189.631651 38.4605169,189.534651 38.4605169,189.422651 C38.4605169,189.310651 38.2095169,189.213651 37.9175169,189.213651 C37.2245169,189.213651 34.6975169,187.913651 33.2355169,186.803651 C32.6075169,186.327651 31.8575169,185.812651 31.5825169,185.670651 C31.3115169,185.528651 30.7465169,185.110651 30.3495169,184.754651 C28.0085169,182.660651 27.3065169,181.714651 27.2655169,180.601651 C27.2475169,180.119651 27.0435169,179.511651 26.7855169,179.168651 C26.5325169,178.834651 26.3355169,178.481651 26.3355169,178.364651 C26.3355169,177.974651 25.2485169,177.425651 24.2035169,177.286651 C23.2415169,177.160651 23.1245169,177.200651 22.2905169,177.935651 C21.4525169,178.674651 21.4045169,178.782651 21.4235169,179.827651 C21.4455169,180.997651 22.2045169,182.880651 23.0015169,183.736651 C23.2345169,183.987651 23.4095169,184.269651 23.4095169,184.395651 C23.4095169,184.520651 23.4985169,184.615651 23.6185169,184.615651 C23.7385169,184.615651 23.8275169,184.740651 23.8275169,184.907651 C23.8275169,185.072651 24.1195169,185.460651 24.4965169,185.795651 C24.8605169,186.119651 25.6045169,186.817651 26.1265169,187.324651 C27.3605169,188.521651 29.0125169,189.915651 29.3255169,190.025651 C29.4715169,190.076651 29.6195169,190.173651 29.6815169,190.258651 C29.7385169,190.340651 30.2445169,190.658651 30.8305169,190.980651 C31.4125169,191.300651 32.5245169,191.911651 33.3395169,192.359651 C35.0115169,193.279651 36.8655169,194.201651 37.6245169,194.491651 C37.9135169,194.601651 38.5025169,194.872651 38.9425169,195.098651 C39.4015169,195.333651 39.9115169,195.449651 40.1545169,195.369651 C40.5305169,195.246651 41.1155169,195.386651 42.8515169,196.012651 C43.6355169,196.295651 44.9205169,196.468651 47.4705169,196.634651 C48.3485169,196.691651 49.3225169,196.829651 49.6135169,196.938651 C49.9045169,197.045651 50.4595169,197.093651 50.8365169,197.042651 C51.2135169,196.991651 52.2375169,196.905651 53.0945169,196.853651 C54.8085169,196.749651 56.9305169,196.576651 58.2155169,196.434651 C58.6685169,196.384651 59.4595169,196.198651 59.9405169,196.028651 C60.4215169,195.859651 60.9015169,195.696651 60.9865169,195.673651 C61.0795169,195.648651 61.2265169,195.608651 61.3515169,195.573651 C61.5375169,195.520651 62.6685169,195.377651 64.1315169,195.220651 C64.3825169,195.194651 64.5915169,195.109651 64.5915169,195.036651 C64.5915169,194.959651 65.0715169,194.806651 65.6785169,194.688651 C67.2045169,194.392651 69.4455169,193.567651 69.8205169,193.164651 C69.9905169,192.980651 70.5075169,192.624651 70.9675169,192.373651 C72.9115169,191.313651 73.8055169,190.735651 74.4585169,190.116651 C75.2325169,189.382651 76.5735169,187.820651 76.6875169,187.520651 C76.7255169,187.418651 76.8835169,187.331651 77.0305169,187.331651 C77.2385169,187.331651 77.6155169,186.828651 77.5475169,186.642651 C77.5385169,186.619651 77.4465169,186.391651 77.3425169,186.140651" id="Fill-23" fill="#7ED6DC"></path>
                <path d="M70.5183169,217.696251 C70.1003169,217.324251 69.5093169,217.004251 69.2113169,216.987251 C66.9703169,216.864251 66.7023169,217.184251 66.6903169,219.985251 C66.6853169,221.134251 66.5913169,222.069251 66.4733169,222.141251 C66.2063169,222.306251 67.0793169,223.904251 67.4553169,223.939251 C67.8163169,223.972251 67.9573169,224.007251 68.4803169,224.184251 C69.0853169,224.390251 70.3003169,223.852251 70.5983169,223.246251 C70.8423169,222.748251 70.9893169,221.825251 71.1753169,219.630251 C71.2793169,218.396251 71.2683169,218.364251 70.5183169,217.696251" id="Fill-25" fill="#7ED6DC"></path>
                <path d="M68.5642169,201.150351 C68.4732169,200.753351 68.3052169,200.384351 68.1982169,200.345351 C68.0872169,200.304351 67.6962169,200.006351 67.3202169,199.676351 C66.7222169,199.153351 66.5042169,199.088351 65.5222169,199.143351 C64.6022169,199.195351 64.3092169,199.311351 63.8712169,199.801351 C63.3402169,200.394351 63.3372169,200.419351 63.4202169,203.742351 C63.4662169,205.582351 63.5672169,207.360351 63.6422169,207.693351 C63.9472169,209.031351 65.1882169,210.118351 66.4112169,210.118351 C67.1832169,210.118351 67.3852169,209.971351 67.8502169,209.073351 C68.1542169,208.486351 68.2372169,207.808351 68.2712169,205.655351 C68.2962169,204.004351 68.4012169,202.880351 68.5432169,202.739351 C68.7992169,202.482351 68.8032169,202.195351 68.5642169,201.150351" id="Fill-27" fill="#7ED6DC"></path>
                <path d="M53.8933169,35.4599513 C53.5123169,34.3729513 53.5123169,34.3729513 51.3593169,33.9059513 C49.6033169,33.5259513 42.5843169,35.0169513 41.5343169,35.9929513 C41.2833169,36.2259513 40.9923169,36.3999513 40.8543169,36.3999513 C40.7183169,36.3999513 40.4553169,36.5779513 40.2473169,36.8089513 C40.0463169,37.0329513 39.6113169,37.2769513 39.2763169,37.3519513 C38.9423169,37.4269513 38.5803169,37.6559513 38.4713169,37.8639513 C38.3593169,38.0759513 37.9493169,38.4279513 37.5313169,38.6689513 C37.1123169,38.9099513 36.7893169,39.2339513 36.7893169,39.4109513 C36.7893169,39.5899513 36.6313169,39.7729513 36.4223169,39.8399513 C36.2193169,39.9029513 35.8713169,40.2049513 35.6383169,40.5189513 C35.4063169,40.8329513 35.0063169,41.2729513 34.7403169,41.5119513 C34.4683169,41.7539513 34.1043169,42.1049513 33.9043169,42.3159513 C33.7083169,42.5219513 33.1133169,43.1429513 32.5863169,43.6859513 C32.0603169,44.2299513 31.4073169,45.0959513 31.1443169,45.5989513 C30.8793169,46.1059513 30.3493169,46.9789513 29.9623169,47.5429513 C29.5773169,48.1069513 29.2623169,48.6889513 29.2623169,48.8389513 C29.2623169,48.9889513 29.1263169,49.2189513 28.9593169,49.3519513 C28.7923169,49.4829513 28.5973169,49.8629513 28.5243169,50.1979513 C28.3733169,50.8879513 27.4993169,52.6349513 27.0493169,53.1459513 C26.8833169,53.3339513 26.7493169,53.5629513 26.7443169,53.6679513 C26.7383169,53.7719513 26.5543169,54.2319513 26.3353169,54.6919513 C26.1183169,55.1519513 25.9343169,55.7449513 25.9283169,56.0099513 C25.9223169,56.2809513 25.8233169,56.6669513 25.6993169,56.8969513 C25.5763169,57.1249513 25.4693169,57.8389513 25.4573169,58.5079513 C25.4463169,59.1769513 25.3813169,59.8019513 25.3123169,59.9189513 C25.2433169,60.0329513 25.1773169,60.6919513 25.1653169,61.3819513 C25.1543169,62.0749513 25.1253169,63.4309513 25.1033169,64.4129513 C25.0803169,65.3959513 25.1603169,66.9379513 25.2833169,67.8619513 C25.5103169,69.5759513 26.2673169,72.5139513 26.5703169,72.8579513 C26.6693169,72.9709513 26.7543169,73.1929513 26.7543169,73.3389513 C26.7543169,73.4939513 26.8933169,73.7679513 27.0783169,73.9769513 C27.2523169,74.1739513 27.6383169,74.6459513 27.9143169,75.0009513 L28.4263169,75.6599513 L27.5593169,76.3599513 C27.0783169,76.7479513 26.5703169,77.1769513 26.4193169,77.3209513 C26.2733169,77.4619513 26.0663169,77.5829513 25.9703169,77.5829513 C25.8733169,77.5829513 25.3813169,78.0429513 24.8953169,78.5859513 C23.5123169,80.1329513 22.4993169,81.1369513 22.3223169,81.1369513 C22.2313169,81.1369513 22.1553169,81.2409513 22.1553169,81.3659513 C22.1553169,81.4939513 21.8523169,81.9829513 21.4753169,82.4639513 C21.0993169,82.9449513 20.6573169,83.5089513 20.4833169,83.7289513 C20.3073169,83.9509513 19.6853169,84.6389513 19.0723169,85.2859513 C18.4583169,85.9349513 17.9743169,86.5579513 17.9743169,86.6969513 C17.9743169,86.8389513 17.7003169,87.2409513 17.3473169,87.6169513 C16.9953169,87.9929513 16.7203169,88.4089513 16.7203169,88.5679513 C16.7203169,88.7249513 16.5343169,89.1849513 16.3013169,89.6039513 C16.0703169,90.0219513 15.8833169,90.4719513 15.8833169,90.6169513 C15.8833169,90.7629513 15.6993169,91.0769513 15.4653169,91.3279513 C15.2323169,91.5779513 15.0433169,91.8979513 15.0393169,92.0489513 C15.0263169,92.4039513 14.0873169,95.1199513 13.9183169,95.2889513 C13.8523169,95.3559513 13.7933169,95.6339513 13.7933169,95.8849513 C13.7933169,96.1419513 13.6183169,96.7729513 13.4073169,97.2749513 C13.1923169,97.7859513 12.8993169,98.8639513 12.7473169,99.6999513 C12.5973169,100.535951 12.4153169,101.204951 12.3403169,101.204951 C12.2663169,101.204951 12.0863169,102.364951 11.9433169,103.765951 C11.8003169,105.166951 11.6203169,106.657951 11.5453169,107.058951 C11.3713169,107.998951 11.3283169,113.126951 11.4943169,113.230951 C11.5623169,113.272951 11.6503169,114.374951 11.6883169,115.670951 C11.7803169,118.827951 11.8003169,119.058951 12.0113169,119.392951 C12.1073169,119.543951 12.3133169,120.228951 12.4773169,120.938951 C13.2553169,124.325951 13.7263169,126.063951 13.9363169,126.332951 C14.0533169,126.481951 14.2713169,126.980951 14.4203169,127.439951 C14.5703169,127.899951 14.9143169,128.544951 15.1833169,128.871951 C15.4593169,129.206951 15.6743169,129.545951 15.6743169,129.645951 C15.6743169,129.741951 15.9783169,129.981951 16.3333169,130.168951 C16.9603169,130.496951 17.0173169,130.492951 17.5353169,130.095951 C18.0563169,129.694951 18.0763169,129.604951 18.0053169,127.931951 C17.9653169,126.969951 17.8483169,126.096951 17.7443169,125.986951 C17.6433169,125.880951 17.5563169,125.485951 17.5563169,125.130951 C17.5563169,124.774951 17.4893169,124.403951 17.4103169,124.325951 C17.1593169,124.073951 16.7433169,122.255951 16.7313169,121.356951 C16.7253169,120.875951 16.6563169,120.436951 16.5743169,120.355951 C16.1133169,119.898951 15.6463169,111.176951 16.0473169,110.527951 C16.1183169,110.414951 16.1623169,109.691951 16.1453169,108.938951 C16.1123169,107.476951 16.6073169,103.467951 16.9073169,102.772951 C17.1963169,102.104951 17.5563169,100.663951 17.5563169,100.180951 C17.5563169,99.9299513 17.6363169,99.7419513 17.7443169,99.7419513 C17.8453169,99.7419513 17.9323169,99.4179513 17.9323169,99.0419513 C17.9323169,98.6549513 18.1293169,97.9339513 18.3723169,97.4319513 C18.6143169,96.9299513 18.8103169,96.3069513 18.8103169,96.0419513 C18.8103169,95.7699513 18.9013169,95.5609513 19.0193169,95.5609513 C19.1363169,95.5609513 19.2283169,95.3309513 19.2283169,95.0379513 C19.2283169,94.7449513 19.4133169,94.3999513 19.6463169,94.2539513 C19.8823169,94.1059513 20.0653169,93.7839513 20.0653169,93.5129513 C20.0653169,93.0109513 20.8853169,91.1159513 21.1523169,91.0029513 C21.2323169,90.9689513 21.4063169,90.6169513 21.5393169,90.2199513 C21.6703169,89.8219513 21.8633169,89.4989513 21.9673169,89.4989513 C22.0713169,89.4989513 22.1553169,89.3619513 22.1553169,89.1949513 C22.1553169,89.0279513 22.3433169,88.8359513 22.5733169,88.7669513 C22.8033169,88.6979513 22.9913169,88.5519513 22.9913169,88.4429513 C22.9913169,88.3379513 23.1793169,88.0569513 23.3883169,87.8469513 C23.6053169,87.6309513 23.9003169,87.2409513 24.0373169,86.9899513 C24.3113169,86.4869513 25.1443169,85.4849513 25.8753169,84.7789513 C26.1263169,84.5369513 26.3353169,84.2689513 26.3353169,84.1889513 C26.3353169,83.9349513 29.9733169,80.4819513 30.5803169,80.1609513 C30.8933169,79.9939513 31.1443169,79.9169513 31.1443169,79.9869513 C31.1443169,80.0569513 31.5733169,79.7849513 32.1163169,79.3699513 C32.6603169,78.9549513 33.4663169,78.5309513 33.9453169,78.4079513 C34.4263169,78.2849513 35.0133169,78.1019513 35.2833169,77.9899513 C35.5553169,77.8779513 35.9183169,77.7919513 36.1203169,77.7919513 C36.6583169,77.7919513 37.6243169,76.5169513 37.6243169,75.8059513 C37.6243169,75.0959513 36.9403169,73.8199513 36.5583169,73.8199513 C36.4173169,73.8199513 36.1613169,73.6939513 35.9733169,73.5319513 C35.5343169,73.1539513 34.3363169,72.9279513 34.1763169,73.1929513 C34.1053169,73.3109513 33.9043169,73.4019513 33.7153169,73.4019513 C33.5323169,73.4019513 32.9003169,73.6269513 32.3153169,73.8999513 C30.3683169,74.8109513 30.1573169,74.6769513 30.1183169,72.5029513 C30.1073169,71.9599513 30.0033169,71.3169513 29.8903169,71.1029513 C29.7763169,70.8869513 29.6333169,70.0579513 29.5763169,69.2839513 C29.5193169,68.5109513 29.4293169,67.6479513 29.3773169,67.3919513 C29.3283169,67.1409513 29.3813169,66.8629513 29.4933169,66.7959513 C29.6203169,66.7199513 29.6483169,66.1689513 29.5663169,65.3959513 C29.4453169,64.2659513 29.6233169,62.1969513 30.0203169,60.1279513 C30.0883169,59.7719513 30.1643169,59.3189513 30.1933169,59.0819513 C30.2213169,58.8559513 30.3833169,58.3299513 30.5483169,57.9329513 C30.7123169,57.5359513 30.9813169,56.7929513 31.1333169,56.3129513 C31.2873169,55.8319513 31.4973169,55.4239513 31.5933169,55.4239513 C31.6883169,55.4239513 31.7713169,55.2769513 31.7713169,55.1099513 C31.7713169,54.9429513 31.8593169,54.7969513 31.9593169,54.7969513 C32.0633169,54.7969513 32.2643169,54.4939513 32.4093169,54.1169513 C32.5533169,53.7409513 32.8423169,53.1899513 33.0573169,52.8839513 C33.2763169,52.5699513 33.4443169,52.1849513 33.4443169,51.9959513 C33.4443169,51.8079513 33.5313169,51.6609513 33.6423169,51.6609513 C33.7483169,51.6609513 33.9043169,51.4629513 33.9773169,51.2319513 C34.0513169,50.9949513 34.3133169,50.5849513 34.5623169,50.3129513 C34.8073169,50.0449513 35.1393169,49.4559513 35.2933169,49.0169513 C35.4483169,48.5779513 35.9943169,47.8169513 36.4963169,47.3449513 C36.9973169,46.8709513 37.4153169,46.3439513 37.4153169,46.1849513 C37.4153169,46.0229513 38.0743169,45.1909513 38.8783169,44.3339513 C39.6843169,43.4769513 40.5063169,42.5649513 40.7073169,42.3069513 C40.9033169,42.0559513 41.1573169,41.8359513 41.2513169,41.8359513 C41.3503169,41.8359513 41.6803169,41.6429513 41.9943169,41.4009513 C43.0603169,40.5819513 44.7703169,39.5359513 45.0453169,39.5359513 C45.2053169,39.5359513 45.6723169,39.3389513 46.0703169,39.1049513 C46.9423169,38.5899513 48.7253169,38.2569513 50.4813169,38.2819513 C52.0063169,38.3039513 53.5703169,37.6179513 53.6743169,36.8819513 C53.7123169,36.6089513 53.8323169,36.3999513 53.9513169,36.3999513 C54.1863169,36.3999513 54.1793169,36.2749513 53.8933169,35.4599513" id="Fill-29" fill="#7ED6DC"></path>
                <path d="M43.2527169,167.681651 C43.1157169,167.312651 42.5587169,166.910651 41.3457169,166.307651 C36.9977169,164.145651 35.7127169,163.442651 35.6057169,163.166651 C35.5407169,162.998651 35.3757169,162.873651 35.2207169,162.873651 C34.6747169,162.873651 29.3617169,157.898651 28.2117169,156.309651 C27.8187169,155.766651 27.2227169,154.990651 26.9107169,154.616651 C26.5977169,154.240651 26.3357169,153.779651 26.3357169,153.602651 C26.3357169,153.422651 26.1687169,153.160651 25.9597169,153.011651 C25.5087169,152.690651 24.8757169,151.543651 24.8617169,151.020651 C24.8567169,150.814651 24.6217169,150.268651 24.3397169,149.808651 C24.0587169,149.348651 23.8277169,148.670651 23.8277169,148.303651 C23.8277169,147.926651 23.7357169,147.578651 23.6187169,147.508651 C23.5047169,147.440651 23.4097169,146.965651 23.4097169,146.463651 C23.4097169,145.961651 23.3057169,145.482651 23.1797169,145.408651 C23.0437169,145.327651 23.0007169,145.010651 23.0747169,144.634651 C23.1457169,144.279651 23.0947169,143.871651 22.9597169,143.714651 C22.8037169,143.531651 22.7637169,143.003651 22.8457169,142.209651 C22.9157169,141.519651 22.8837169,140.900651 22.7727169,140.787651 C22.6427169,140.658651 22.6457169,140.202651 22.7817169,139.470651 C22.8957169,138.865651 22.9907169,137.989651 22.9907169,137.558651 C22.9907169,137.119651 23.0847169,136.707651 23.2007169,136.638651 C23.3157169,136.569651 23.4097169,136.158651 23.4097169,135.718651 C23.4097169,135.196651 23.5527169,134.795651 23.8277169,134.547651 C24.0577169,134.340651 24.2457169,134.054651 24.2457169,133.910651 C24.2457169,133.767651 24.4267169,133.283651 24.6437169,132.844651 C24.8587169,132.405651 25.1967169,131.687651 25.3847169,131.265651 C25.5707169,130.847651 25.8157169,130.437651 25.9177169,130.373651 C26.2617169,130.156651 26.7547169,128.945651 26.7547169,128.318651 C26.7547169,127.440651 26.4027169,126.918651 25.5837169,126.577651 C23.9527169,125.901651 22.1277169,126.450651 21.6017169,127.775651 C21.4267169,128.213651 21.1907169,128.589651 21.0887169,128.589651 C20.9867169,128.589651 20.9007169,128.820651 20.9007169,129.091651 C20.9007169,129.373651 20.6397169,129.855651 20.3057169,130.189651 C19.9567169,130.537651 19.5327169,131.349651 19.2837169,132.144651 C18.6417169,134.192651 17.8987169,137.599651 17.9397169,138.310651 C17.9587169,138.661651 17.8917169,139.398651 17.7857169,139.983651 C17.6767169,140.589651 17.6727169,141.168651 17.7757169,141.363651 C17.8757169,141.550651 17.8737169,141.780651 17.7727169,141.885651 C17.5917169,142.074651 18.2357169,145.857651 18.5877169,146.672651 C18.6877169,146.902651 18.9147169,147.916651 19.0927169,148.919651 C19.2707169,149.923651 19.5637169,151.046651 19.7407169,151.407651 C19.9157169,151.762651 20.0657169,152.224651 20.0657169,152.410651 C20.0657169,152.600651 20.2297169,152.944651 20.4307169,153.173651 C20.6307169,153.402651 21.1277169,154.250651 21.5277169,155.044651 C21.9287169,155.839651 22.3157169,156.544651 22.3857169,156.602651 C22.4547169,156.660651 22.5807169,156.926651 22.6677169,157.198651 C22.7527169,157.465651 23.4197169,158.275651 24.1307169,158.975651 C24.8417169,159.674651 25.6047169,160.522651 25.8037169,160.835651 C26.0027169,161.149651 26.3017169,161.410651 26.4617169,161.410651 C26.6177169,161.410651 26.7547169,161.556651 26.7547169,161.724651 C26.7547169,161.891651 26.8527169,162.037651 26.9637169,162.037651 C27.0757169,162.037651 27.1727169,162.162651 27.1727169,162.309651 C27.1727169,162.456651 27.4547169,162.748651 27.7887169,162.947651 C28.1237169,163.145651 28.5297169,163.432651 28.6777169,163.574651 C28.8257169,163.716651 29.3987169,164.114651 29.9417169,164.452651 C30.4857169,164.789651 30.9357169,165.139651 30.9357169,165.225651 C30.9357169,165.312651 31.0707169,165.382651 31.2377169,165.382651 C31.4057169,165.382651 31.6187169,165.513651 31.7137169,165.674651 C31.9087169,166.006651 34.4047169,167.315651 35.7227169,167.777651 C36.2247169,167.952651 36.7467169,168.182651 36.8717169,168.281651 C37.2247169,168.558651 37.9807169,168.732651 40.0917169,169.022651 C41.8267169,169.259651 42.1327169,169.252651 42.7047169,168.958651 C43.4567169,168.572651 43.5237169,168.415651 43.2527169,167.681651" id="Fill-31" fill="#7ED6DC"></path>
                <path d="M19.7517169,179.304651 C19.4797169,179.033651 19.0537169,178.741651 18.8207169,178.666651 C18.5907169,178.594651 18.3927169,178.444651 18.3927169,178.343651 C18.3927169,178.240651 18.2037169,178.095651 17.9747169,178.023651 C17.3337169,177.820651 14.4207169,175.312651 13.9777169,174.579651 C13.7617169,174.225651 13.4517169,173.880651 13.2917169,173.817651 C13.1347169,173.755651 12.8397169,173.378651 12.6537169,173.001651 C12.4617169,172.611651 12.0087169,171.904651 11.6297169,171.403651 C11.2487169,170.899651 10.6887169,170.043651 10.3547169,169.458651 C10.0217169,168.873651 9.54271694,168.128651 9.26771694,167.765651 C8.99771694,167.409651 8.77571694,167.018651 8.77571694,166.898651 C8.77571694,166.772651 8.69571694,166.648651 8.58771694,166.608651 C8.32571694,166.509651 6.89071694,163.438651 6.88171694,162.957651 C6.87671694,162.735651 6.74471694,162.329651 6.58071694,162.037651 C6.42471694,161.757651 6.28371694,161.242651 6.27771694,160.929651 C6.27271694,160.616651 6.16871694,160.159651 6.05571694,159.947651 C5.31571694,158.567651 5.48271694,146.216651 6.24671694,145.743651 C6.35071694,145.679651 6.50571694,145.250651 6.59171694,144.790651 C6.67771694,144.330651 6.90771694,143.672651 7.10471694,143.327651 C7.30571694,142.972651 7.51871694,142.455651 7.59571694,142.136651 C7.67071694,141.823651 7.84771694,141.450651 7.99171694,141.300651 C8.13871694,141.148651 8.43371694,140.683651 8.66071694,140.243651 C8.88971694,139.805651 9.35771694,139.189651 9.72771694,138.843651 C10.0867169,138.507651 10.5107169,137.913651 10.6597169,137.536651 C10.9347169,136.847651 12.2817169,135.279651 12.6017169,135.279651 C12.6957169,135.279651 13.0297169,135.082651 13.3647169,134.829651 C13.8737169,134.446651 13.9517169,134.255651 13.8987169,133.523651 C13.8137169,132.311651 13.6247169,131.967651 12.8737169,131.647651 C12.5187169,131.494651 11.9417169,131.246651 11.5987169,131.096651 C11.0267169,130.846651 10.6787169,130.825651 9.82071694,130.994651 C9.65371694,131.028651 9.42971694,131.065651 9.34071694,131.074651 C9.06871694,131.103651 7.52271694,132.723651 7.52271694,132.980651 C7.52271694,133.105651 7.44571694,133.162651 7.35471694,133.105651 C6.99671694,132.881651 6.49771694,133.502651 5.60871694,135.279651 C5.46671694,135.566651 5.08271694,136.199651 4.76271694,136.680651 C4.44171694,137.160651 4.12071694,137.846651 4.05171694,138.196651 C3.98171694,138.551651 3.79671694,138.935651 3.63371694,139.063651 C3.46671694,139.195651 3.34071694,139.409651 3.34071694,139.565651 C3.34071694,139.709651 3.19471694,139.892651 3.02671694,139.954651 C2.66271694,140.092651 2.19971694,141.070651 2.28171694,141.530651 C2.31171694,141.697651 2.19071694,141.950651 2.02371694,142.074651 C1.85471694,142.198651 1.59571694,142.919651 1.45971694,143.652651 C1.32271694,144.383651 1.13171694,145.191651 1.03971694,145.418651 C0.805716935,146.001651 0.593716935,147.488651 0.519716935,149.076651 C0.483716935,149.828651 0.353716935,150.697651 0.225716935,151.020651 C-0.0802830645,151.793651 -0.0662830645,153.198651 0.246716935,153.304651 C0.422716935,153.364651 0.421716935,153.487651 0.242716935,153.822651 C-0.0462830645,154.365651 -0.0882830645,155.796651 0.176716935,156.079651 C0.284716935,156.195651 0.423716935,156.664651 0.484716935,157.124651 C0.618716935,158.122651 0.919716935,159.529651 1.24371694,160.678651 C1.37371694,161.138651 1.53071694,161.749651 1.59371694,162.037651 C1.70471694,162.558651 1.98171694,163.291651 2.32671694,163.981651 C2.42671694,164.180651 2.50471694,164.567651 2.50471694,164.859651 C2.50471694,165.152651 2.59671694,165.382651 2.71371694,165.382651 C2.82671694,165.382651 2.92271694,165.560651 2.92271694,165.769651 C2.92271694,165.977651 3.11571694,166.407651 3.34071694,166.699651 C3.57171694,166.998651 4.05371694,167.785651 4.41471694,168.454651 C5.64771694,170.734651 5.45971694,170.453651 6.78271694,171.988651 C7.19671694,172.468651 7.52271694,172.950651 7.52271694,173.085651 C7.52271694,173.210651 7.62171694,173.325651 7.73071694,173.325651 C7.83971694,173.325651 7.93971694,173.461651 7.93971694,173.608651 C7.93971694,173.763651 8.30671694,174.350651 8.75571694,174.914651 C9.20471694,175.479651 9.60371694,176.126651 9.64471694,176.357651 C9.68771694,176.604651 9.90471694,176.800651 10.1767169,176.837651 C10.4337169,176.872651 11.0337169,177.283651 11.5357169,177.768651 C12.0367169,178.252651 12.7997169,178.806651 13.2607169,179.022651 C13.7207169,179.238651 14.1357169,179.474651 14.1967169,179.555651 C14.4307169,179.864651 15.6327169,180.421651 16.3227169,180.540651 C16.7207169,180.609651 17.2277169,180.790651 17.4727169,180.952651 C18.0167169,181.310651 19.2927169,181.241651 19.6977169,180.830651 C20.2557169,180.266651 20.2717169,179.825651 19.7517169,179.304651" id="Fill-33" fill="#7ED6DC"></path>
            </g>
        </g>
    </g>
</svg>