<?xml version="1.0" encoding="UTF-8"?>
<svg width="42px" height="51px" viewBox="0 0 42 51" version="1.1" xmlns="http://www.w3.org/2000/svg" xmlns:xlink="http://www.w3.org/1999/xlink">
    <!-- Generator: Sketch 61 (89581) - https://sketch.com -->
    <title>img-nav-cafe</title>
    <desc>Created with Sketch.</desc>
    <g id="Page-1" stroke="none" stroke-width="1" fill="none" fill-rule="evenodd">
        <g id="200318_kodomonooka-ver2" transform="translate(-1184.000000, -131.000000)" fill="#0099CB">
            <path d="M1192.63066,168.696993 C1192.4839,168.541226 1192.36873,168.380459 1192.36873,168.331157 C1192.36873,168.283283 1192.33854,168.24327 1192.30272,168.24327 C1192.26621,168.24327 1192.23601,168.202542 1192.23601,168.154669 C1192.23601,168.106796 1192.09276,167.903871 1191.91931,167.708092 C1191.74656,167.510883 1191.55836,167.267231 1191.50358,167.169341 C1191.44811,167.070022 1191.25429,166.829942 1191.07031,166.634163 C1190.88703,166.436954 1190.67987,166.20402 1190.60754,166.111846 C1190.53872,166.02396 1190.45305,165.961796 1190.42426,165.979659 C1190.39546,165.998237 1190.37159,165.979659 1190.37159,165.939646 C1190.37159,165.898203 1190.2803,165.729576 1190.17216,165.566664 C1189.94463,165.22798 1189.92286,165.085076 1190.0921,165.049349 C1190.1546,165.035059 1190.53099,165.032915 1190.93759,165.043633 C1191.82942,165.066498 1192.19809,165.070785 1192.80201,165.067927 C1193.06183,165.066498 1193.34202,165.067927 1193.43472,165.072214 C1193.52531,165.075787 1193.76758,165.057209 1193.96701,165.031486 C1194.16855,165.005049 1194.54003,164.968608 1194.79283,164.950031 C1195.04564,164.931453 1195.33636,164.872147 1195.43889,164.817844 C1195.5386,164.765683 1195.66219,164.719954 1195.70503,164.719954 C1195.80685,164.719954 1196.16008,164.326966 1196.23451,164.130472 C1196.26611,164.047587 1196.27735,163.873243 1196.2605,163.737484 C1196.20993,163.328776 1195.95151,163.155862 1195.47891,163.212309 C1195.26543,163.237317 1195.13061,163.21874 1195.05617,163.154433 C1194.96839,163.079408 1194.64677,163.062974 1193.47475,163.075835 C1191.79009,163.095127 1191.90947,163.089411 1191.43687,163.167294 C1190.30488,163.355214 1187.98822,163.334493 1187.7937,163.134426 C1187.76842,163.107989 1187.73612,162.893631 1187.72137,162.65641 L1187.69469,162.226266 L1187.8878,162.249131 C1188.267,162.293432 1188.95449,162.299862 1189.01979,162.260563 C1189.05631,162.237699 1189.24591,162.262707 1189.43903,162.314153 C1189.63214,162.366313 1189.81612,162.395608 1189.84562,162.379174 C1189.87722,162.360597 1189.91444,162.374173 1189.93901,162.412757 C1189.96219,162.451341 1190.14477,162.46063 1190.39125,162.436336 C1190.61877,162.414186 1191.04362,162.387749 1191.33716,162.379174 C1191.62999,162.369886 1192.06467,162.325585 1192.30272,162.281285 C1192.83993,162.181251 1192.41578,162.176964 1195.79843,162.323442 C1196.81736,162.367027 1197.02803,162.361311 1197.12354,162.289144 C1197.20429,162.227695 1197.50274,162.142667 1197.75625,162.109799 C1198.04416,162.071929 1198.27871,161.901873 1198.45848,161.610347 C1198.07717,161.649646 1197.68602,161.637499 1197.3012,161.616063 C1194.39467,161.461011 1191.48814,161.305245 1188.5816,161.149479 C1187.96996,161.116611 1187.28037,161.112324 1186.84428,161.550327 C1186.27829,162.119088 1186.48825,163.139428 1187.01984,163.742486 C1187.55143,164.346258 1188.30984,164.677797 1188.96713,165.135092 C1190.03171,165.874624 1190.82804,166.939979 1191.60541,167.986042 C1192.06677,168.607677 1192.53376,169.317199 1192.77041,170.047442 C1192.861,170.026007 1192.94386,169.99028 1193.01478,169.922401 C1193.29357,169.658027 1193.17208,169.272899 1192.63066,168.696993 L1192.63066,168.696993 Z M1188.96713,165.135092 C1188.30984,164.677797 1187.55143,164.346258 1187.01984,163.742486 C1186.48825,163.139428 1186.27829,162.119088 1186.84428,161.550327 C1187.28037,161.112324 1187.96996,161.116611 1188.5816,161.149479 C1191.48814,161.305245 1194.39467,161.461011 1197.3012,161.616063 C1197.68602,161.637499 1198.07717,161.649646 1198.45848,161.610347 C1198.51044,161.526033 1198.5589,161.436003 1198.60103,161.331683 C1198.60875,161.313105 1198.57364,161.216644 1198.52238,161.115182 C1198.39809,160.871529 1197.90933,160.722194 1197.2366,160.722194 C1196.77734,160.722194 1196.36583,160.654314 1196.09758,160.534274 C1195.89253,160.441386 1195.02597,160.423523 1193.66786,160.483543 C1191.66369,160.572859 1190.00292,160.595723 1189.3063,160.542849 C1189.03314,160.522127 1188.61039,160.497834 1188.37374,160.488545 C1188.13428,160.479256 1187.87586,160.436385 1187.7944,160.392084 C1187.6378,160.307056 1187.30846,160.29348 1186.99526,160.357787 C1186.85692,160.385653 1186.74738,160.484972 1186.60693,160.708618 C1186.39486,161.047302 1186.35623,161.228077 1186.45595,161.420284 C1186.50511,161.515315 1186.49457,161.580337 1186.41592,161.667509 C1186.35483,161.735389 1186.30989,161.818273 1186.30989,161.86043 C1186.30989,161.902587 1186.26284,161.982614 1186.20315,162.043348 C1186.12028,162.126948 1186.09781,162.276998 1186.10343,162.704283 C1186.10694,163.009384 1186.13222,163.273044 1186.15961,163.293765 C1186.187,163.313771 1186.25371,163.418806 1186.30848,163.527414 C1186.43348,163.778212 1186.9756,164.380555 1187.07532,164.380555 C1187.11534,164.380555 1187.21295,164.45558 1187.2888,164.543467 C1187.36464,164.632782 1187.52123,164.727814 1187.635,164.753537 C1187.80774,164.79355 1187.84145,164.832134 1187.84145,164.994331 C1187.84145,165.102224 1187.86743,165.203686 1187.90114,165.224408 C1187.93485,165.245129 1187.9812,165.353022 1188.00788,165.46806 C1188.03316,165.580955 1188.18554,165.810317 1188.34425,165.973228 C1188.50155,166.13614 1188.70028,166.404086 1188.78033,166.56271 C1188.86179,166.725622 1188.96151,166.883532 1189.00645,166.921401 C1189.04999,166.958557 1189.23187,167.182202 1189.40602,167.412994 C1189.57947,167.64307 1189.7466,167.835992 1189.77188,167.835992 C1189.79787,167.835992 1189.86107,167.92102 1189.91163,168.022482 C1189.96289,168.124659 1190.07033,168.270422 1190.14828,168.344732 C1190.22482,168.416899 1190.3119,168.55123 1190.33437,168.632686 C1190.35825,168.713427 1190.406,168.784879 1190.4376,168.784879 C1190.47131,168.784879 1190.60894,168.907063 1190.75079,169.062829 C1191.0984,169.444384 1191.48322,169.703756 1192.01621,169.913826 C1192.36452,170.051015 1192.59134,170.089599 1192.77041,170.047442 C1192.53376,169.317199 1192.06677,168.607677 1191.60541,167.986042 C1190.82804,166.939979 1190.03171,165.874624 1188.96713,165.135092 L1188.96713,165.135092 Z M1204.42814,144.68471 C1204.42463,144.528944 1204.38671,144.314587 1204.34528,144.210267 C1204.15287,143.736537 1203.8797,143.177065 1203.82212,143.142054 C1203.78911,143.122047 1203.72731,142.994147 1203.68237,142.851957 C1203.63743,142.709767 1203.54825,142.518989 1203.47943,142.418241 C1203.40991,142.316779 1203.35583,142.203884 1203.35583,142.15744 C1203.35583,142.112425 1203.26665,141.961661 1203.1564,141.818756 C1203.04615,141.676566 1202.95697,141.534375 1202.95697,141.500078 C1202.95697,141.466496 1202.88323,141.283578 1202.78984,141.087084 C1202.69714,140.89059 1202.622,140.696954 1202.6206,140.65051 C1202.61849,140.602637 1202.57495,140.507605 1202.52018,140.433295 C1202.46892,140.362557 1202.42397,140.23037 1202.42397,140.148914 C1202.42397,140.067458 1202.39237,139.977428 1202.35726,139.955278 C1202.32145,139.933842 1202.29055,139.84024 1202.29055,139.752353 C1202.29055,139.664467 1202.26457,139.573008 1202.23437,139.552287 C1202.20277,139.531566 1202.15853,139.370083 1202.13395,139.186451 C1202.09814,138.915646 1202.03845,138.802752 1201.79126,138.542665 C1201.62413,138.366892 1201.45209,138.22756 1201.40153,138.22756 C1201.35518,138.22756 1201.29057,138.206839 1201.2688,138.183974 C1201.24493,138.15968 1201.12555,138.128956 1201.00547,138.116094 C1200.68595,138.081083 1200.22669,138.394758 1200.22669,138.6477 C1200.22669,138.749877 1200.19228,138.906357 1200.14945,138.99996 C1200.08765,139.137863 1200.10029,139.227179 1200.21686,139.477976 C1200.29551,139.647318 1200.35942,139.83238 1200.35942,139.888113 C1200.35942,139.941702 1200.39102,139.989575 1200.42613,139.989575 C1200.46405,139.989575 1200.49284,140.0203 1200.49284,140.060313 C1200.49284,140.099612 1200.63961,140.443298 1200.81938,140.82271 C1200.99774,141.202837 1201.24142,141.804465 1201.35869,142.15744 C1201.47526,142.510415 1201.59815,142.830521 1201.63116,142.865533 C1201.66346,142.89983 1201.69155,143.001293 1201.69155,143.082748 C1201.69155,143.164204 1201.71893,143.25209 1201.75124,143.272097 C1201.78354,143.292104 1201.82989,143.414287 1201.85095,143.536471 C1201.87272,143.658654 1201.96823,143.854434 1202.05741,143.959469 C1202.1494,144.068076 1202.22454,144.183829 1202.22454,144.217412 C1202.22454,144.287435 1202.67748,144.996957 1202.8088,145.132002 C1202.95978,145.287768 1203.22311,145.73506 1203.22311,145.836522 C1203.22311,145.885825 1203.2814,145.989431 1203.35583,146.070172 C1203.43027,146.151627 1203.48926,146.244515 1203.48926,146.280242 C1203.48926,146.316682 1203.57563,146.364555 1203.68939,146.389564 C1203.91692,146.44101 1204.27576,146.249517 1204.4478,145.985858 C1204.55876,145.814372 1204.57772,145.423528 1204.48853,145.139147 C1204.45904,145.046259 1204.43165,144.840476 1204.42814,144.68471 L1204.42814,144.68471 Z M1207.5945,170.187489 C1207.45475,170.096745 1207.38804,170.09603 1206.98145,170.184631 C1206.72865,170.238935 1206.44986,170.266087 1206.35576,170.245365 C1206.26096,170.22393 1206.03976,170.192491 1205.85297,170.173913 C1205.66828,170.155335 1205.19427,170.100317 1204.78768,170.05173 C1204.38179,170.003142 1203.94852,169.983135 1203.8158,170.007429 C1203.30949,170.101032 1201.35167,170.118895 1200.42613,170.038868 C1200.07993,170.008858 1199.56028,169.980992 1199.27728,169.977419 C1198.99147,169.973846 1198.76114,169.965987 1198.76114,169.959556 C1198.76114,169.947409 1199.23585,169.42152 1199.43107,169.218595 C1199.50199,169.14357 1199.56098,169.054254 1199.56098,169.018528 C1199.56098,168.983517 1199.62067,168.916351 1199.6937,168.869907 C1199.76744,168.822749 1199.82712,168.747009 1199.82712,168.699851 C1199.82712,168.653407 1199.99145,168.432619 1200.19369,168.208973 C1200.39453,167.985327 1200.57851,167.71881 1200.60309,167.615918 C1200.62626,167.514456 1200.6684,167.430142 1200.69578,167.430142 C1200.72387,167.430142 1200.76179,167.362262 1200.78216,167.273662 C1200.80252,167.187919 1200.90716,167.013575 1201.0153,166.884246 C1201.12344,166.755632 1201.28355,166.565569 1201.37203,166.461248 C1201.45911,166.356928 1201.57217,166.159719 1201.62132,166.02396 C1201.67118,165.888915 1201.83059,165.64812 1201.97455,165.492354 C1202.44504,164.983613 1202.49981,164.727814 1202.24631,164.225504 C1202.10235,163.940409 1201.63045,163.618158 1201.43172,163.669604 C1201.07639,163.761063 1200.77092,164.069023 1200.49003,164.618492 C1200.33765,164.915733 1200.15647,165.222264 1200.08695,165.299433 C1200.01883,165.373743 1199.95985,165.469489 1199.95985,165.50593 C1199.95985,165.543085 1199.87277,165.691706 1199.76392,165.841042 C1199.65438,165.989662 1199.5659,166.131138 1199.56379,166.159719 C1199.56238,166.187586 1199.4416,166.369789 1199.29413,166.566283 C1199.14737,166.762063 1199.02799,166.950697 1199.02799,166.985708 C1199.02799,167.02072 1198.91493,167.165768 1198.7815,167.300813 C1198.41494,167.673795 1198.30048,167.816699 1198.21761,168.006048 C1198.17478,168.10108 1198.07295,168.220405 1197.98588,168.276853 C1197.8988,168.3333 1197.82928,168.419043 1197.82928,168.469774 C1197.82928,168.519076 1197.75625,168.629827 1197.66917,168.710569 C1197.58139,168.792739 1197.37002,169.14357 1197.19657,169.496545 C1197.02382,169.848805 1196.8272,170.184631 1196.75697,170.248224 C1196.69096,170.308958 1196.63057,170.398988 1196.63057,170.438287 C1196.63057,170.533318 1196.02455,171.302146 1195.68537,171.637972 C1195.54492,171.775875 1195.43186,171.912349 1195.43186,171.942359 C1195.43186,172.001665 1194.23245,173.334251 1193.9326,173.625777 L1193.73949,173.813697 L1193.61589,173.607199 C1193.54778,173.491446 1193.493,173.384268 1193.493,173.363547 C1193.493,173.342826 1193.38626,173.217784 1193.25986,173.088455 C1193.13346,172.959841 1193.02672,172.829798 1193.02672,172.804075 C1193.02672,172.777637 1193.09414,172.682606 1193.17981,172.587574 C1193.26548,172.492542 1193.37854,172.351067 1193.43612,172.265324 C1193.49441,172.180296 1193.64047,172.001665 1193.76968,171.85876 C1193.89328,171.721571 1194.57865,170.983468 1194.70295,170.821272 C1194.82654,170.65836 1195.0035,170.439716 1195.08566,170.346828 C1195.16923,170.252511 1195.28931,170.089599 1195.349,169.987422 C1195.40869,169.88596 1195.48313,169.800932 1195.51192,169.800932 C1195.54211,169.800932 1195.56529,169.770922 1195.56529,169.730194 C1195.56529,169.690895 1195.64113,169.577286 1195.73523,169.475823 C1195.83003,169.374361 1196.00839,169.119991 1196.13831,168.90349 C1196.26752,168.686989 1196.39743,168.514075 1196.43114,168.514075 C1196.53647,168.514075 1197.03014,167.944599 1197.03014,167.82313 C1197.03014,167.75525 1197.05963,167.700947 1197.09685,167.700947 C1197.13407,167.700947 1197.16356,167.663791 1197.16356,167.615918 C1197.16356,167.569474 1197.22325,167.49302 1197.29699,167.446576 C1197.37002,167.400132 1197.42971,167.316533 1197.42971,167.2608 C1197.42971,167.206496 1197.45499,167.158623 1197.48308,167.158623 C1197.51187,167.158623 1197.58771,167.070737 1197.6467,166.969274 C1197.79978,166.704901 1197.99922,166.481255 1198.08208,166.481255 C1198.16846,166.481255 1198.36227,166.101843 1198.36227,165.932501 C1198.36227,165.864621 1198.47884,165.726718 1198.62491,165.620968 C1198.77167,165.515219 1198.95004,165.320154 1199.02799,165.180822 C1199.10383,165.045062 1199.24849,164.864288 1199.34469,164.787834 C1199.44441,164.707092 1199.52797,164.598485 1199.5371,164.537036 C1199.54693,164.475587 1199.58275,164.409851 1199.62067,164.385557 C1199.6937,164.338398 1200.09819,163.583861 1200.08695,163.513838 C1200.08274,163.485257 1200.08484,163.453103 1200.09187,163.432382 C1200.23372,163.032964 1200.03639,162.349164 1199.73373,162.189111 C1199.2541,161.934741 1198.99077,161.976898 1198.64457,162.362026 C1198.58418,162.429906 1198.4964,162.483495 1198.44865,162.483495 C1198.4023,162.483495 1198.36227,162.522794 1198.36227,162.568523 C1198.36227,162.616396 1198.28362,162.741438 1198.18039,162.856476 C1197.90793,163.160863 1197.69585,163.481684 1197.69585,163.588148 C1197.69585,163.640309 1197.63617,163.738198 1197.56313,163.805364 C1197.4894,163.872529 1197.42971,163.968275 1197.42971,164.018292 C1197.42971,164.066165 1197.39811,164.110465 1197.363,164.110465 C1197.32508,164.110465 1197.29699,164.150479 1197.29699,164.204782 C1197.29699,164.259086 1197.25626,164.333397 1197.20359,164.377697 C1197.15233,164.420569 1197.0484,164.584194 1196.97396,164.739961 C1196.89882,164.895727 1196.73029,165.147239 1196.60037,165.29586 C1196.47046,165.444481 1196.36443,165.604534 1196.36443,165.651693 C1196.36443,165.698851 1196.33493,165.736007 1196.29771,165.736007 C1196.2619,165.736007 1196.231,165.776734 1196.231,165.823893 C1196.231,165.87391 1196.14463,165.997522 1196.03157,166.108273 C1195.91851,166.220454 1195.83213,166.340494 1195.83213,166.386223 C1195.83213,166.434096 1195.80966,166.477682 1195.77806,166.492687 C1195.69801,166.529128 1195.43186,166.942123 1195.43186,167.030009 C1195.43186,167.099318 1195.19942,167.476586 1195.09901,167.568045 C1195.08075,167.585194 1195.0042,167.720953 1194.92836,167.870289 C1194.7184,168.283283 1194.61306,168.459056 1194.48385,168.608392 C1194.41925,168.683417 1194.36658,168.771303 1194.36658,168.8056 C1194.36658,168.838468 1194.25984,168.998522 1194.13344,169.154288 C1194.00774,169.310054 1193.901,169.472965 1193.901,169.510121 C1193.901,169.548705 1193.84974,169.638735 1193.78232,169.720191 C1193.69946,169.819509 1193.31885,170.315389 1192.92279,170.839849 C1192.93614,171.13852 1192.90173,171.437905 1192.78937,171.733004 C1192.58432,172.269611 1192.16509,172.694753 1191.92492,173.216355 C1191.68476,173.737243 1191.70021,174.478918 1192.19528,174.759011 C1192.45932,174.908347 1192.78586,174.881195 1193.07799,174.801168 C1194.80477,174.330297 1195.71978,172.377504 1197.29488,171.517218 C1198.51606,170.849138 1199.98302,170.914874 1201.36712,170.997044 C1202.67537,171.074927 1204.02717,171.269278 1205.30593,171.067782 C1206.14088,170.935595 1206.93651,170.729812 1207.74618,170.607629 C1207.74478,170.34397 1207.71669,170.266801 1207.5945,170.187489 L1207.5945,170.187489 Z M1190.46358,176.474583 C1190.41021,176.453862 1190.36316,176.400987 1190.36316,176.360973 C1190.36316,176.240219 1189.5247,175.469248 1189.29788,175.382076 C1189.07527,175.296333 1189.0844,175.290617 1188.65955,175.778637 C1188.40885,176.065875 1188.29931,176.360973 1188.29931,176.747531 C1188.29931,176.950456 1188.3295,177.138375 1188.36602,177.160525 C1188.40113,177.181961 1188.43484,177.255557 1188.43765,177.316292 C1188.44748,177.539938 1188.79859,178.030815 1188.98539,178.081546 C1189.18482,178.136565 1189.63144,178.038675 1189.63144,177.940071 C1189.63144,177.907917 1189.6841,177.862188 1189.7445,177.842896 C1189.92497,177.785734 1190.38704,177.323437 1190.47973,177.106936 C1190.59349,176.842562 1190.58507,176.522456 1190.46358,176.474583 L1190.46358,176.474583 Z M1205.30593,171.067782 C1206.14088,170.935595 1206.93651,170.729812 1207.74618,170.607629 C1207.74618,170.631208 1207.74758,170.646213 1207.74758,170.671936 C1207.74548,170.882006 1207.70896,171.10065 1207.66613,171.156383 C1207.53621,171.325011 1206.9653,171.701565 1206.73216,171.772303 C1206.16546,171.944503 1203.89515,171.945217 1202.79686,171.773732 C1202.39448,171.710853 1202.13746,171.70871 1201.70489,171.765872 C1201.35869,171.811601 1200.92892,171.82089 1200.59958,171.790166 C1200.29973,171.761585 1199.97108,171.742293 1199.86013,171.74658 C1198.98796,171.778019 1198.54134,171.826606 1198.49991,171.895201 C1198.41915,172.027387 1197.56243,171.94879 1197.45639,171.800169 C1197.37774,171.689418 1197.29769,171.752296 1196.59897,172.477537 C1196.05544,173.040582 1195.42414,173.50931 1194.90168,174.09379 C1194.68609,174.335299 1194.38624,174.64183 1194.32936,174.966223 C1194.27108,175.297762 1194.38343,175.751485 1194.39888,176.090169 C1194.43399,176.88329 1194.42276,177.034769 1194.29846,177.424899 C1194.22122,177.668552 1194.15872,177.940785 1194.15872,178.035102 C1194.15872,178.127991 1194.06883,178.30948 1193.95929,178.438094 C1193.84904,178.566708 1193.75915,178.697466 1193.75915,178.729619 C1193.75915,178.760344 1193.6819,178.87824 1193.58991,178.986848 C1193.49511,179.098314 1193.3343,179.369833 1193.22686,179.599909 C1193.11872,179.8307 1192.93684,180.10865 1192.81395,180.229405 C1192.50777,180.531648 1192.00638,180.897484 1191.82169,180.953932 C1191.73532,180.979654 1191.60962,181.049678 1191.54853,181.104696 C1191.43757,181.204729 1190.86245,181.379073 1190.47692,181.428375 C1190.35895,181.444095 1190.16724,181.476248 1190.04716,181.499828 C1189.92076,181.526265 1189.79225,181.511975 1189.73747,181.46696 C1189.67076,181.410512 1189.63144,181.410512 1189.59773,181.46696 C1189.56894,181.514118 1189.47133,181.528409 1189.34423,181.504115 C1189.12021,181.461243 1188.83862,181.42123 1188.39902,181.370499 C1187.64623,181.283327 1186.42505,180.439475 1186.09079,179.775682 C1186.04304,179.681365 1185.98335,179.585619 1185.96158,179.567756 C1185.86748,179.492731 1185.63574,179.010427 1185.63574,178.888244 C1185.63574,178.820364 1185.60414,178.740337 1185.56903,178.718902 C1185.53252,178.696751 1185.50232,178.59386 1185.50232,178.491683 C1185.50232,178.390221 1185.47634,178.27804 1185.44544,178.245172 C1185.06975,177.84361 1184.88787,176.666075 1185.07326,175.839371 C1185.32606,174.714711 1186.13082,173.36569 1186.9138,172.753344 C1187.07391,172.628302 1187.57179,172.383935 1187.6666,172.383935 C1187.71997,172.383935 1187.79721,172.347494 1187.84637,172.298192 C1187.94889,172.19673 1188.45941,172.061685 1188.93131,172.012382 C1189.11811,171.99309 1189.38215,171.954506 1189.53102,171.925211 C1189.8709,171.858045 1190.71217,172.009524 1191.04222,172.19673 C1191.22901,172.302479 1191.31117,172.318199 1191.37859,172.262466 C1191.446,172.207447 1191.51552,172.211735 1191.64895,172.282472 C1191.81467,172.370359 1191.83504,172.365357 1191.91439,172.214593 C1191.96635,172.115988 1192.45581,171.457198 1192.92279,170.839849 C1192.93614,171.13852 1192.90173,171.437905 1192.78937,171.733004 C1192.58432,172.269611 1192.16509,172.694753 1191.92492,173.216355 C1191.68476,173.737243 1191.70021,174.478918 1192.19528,174.759011 C1192.45932,174.908347 1192.78586,174.881195 1193.07799,174.801168 C1194.80477,174.330297 1195.71978,172.377504 1197.29488,171.517218 C1198.51606,170.849138 1199.98302,170.914874 1201.36712,170.997044 C1202.67537,171.074927 1204.02717,171.269278 1205.30593,171.067782 L1205.30593,171.067782 Z M1208.20403,145.019822 C1208.39574,145.071268 1208.73001,144.800463 1208.85781,144.488216 C1208.91399,144.351742 1208.9498,144.007342 1208.9498,143.600778 C1208.9498,143.234942 1208.97789,142.814802 1209.013,142.665466 C1209.04741,142.516846 1209.08182,142.211744 1209.08885,141.988098 C1209.09657,141.764452 1209.12677,141.496506 1209.15626,141.392185 C1209.18505,141.287865 1209.21244,140.951324 1209.21665,140.646937 C1209.22508,140.023872 1209.34095,139.11214 1209.42592,138.99996 C1209.54389,138.845623 1209.55934,138.201123 1209.45049,137.997483 C1209.21946,137.565911 1208.9498,137.442298 1208.37046,137.503747 C1207.69983,137.574485 1207.66823,137.66523 1207.60433,139.718771 C1207.48987,143.404284 1207.48916,143.343549 1207.65419,144.373178 C1207.69281,144.616831 1207.98564,144.961231 1208.20403,145.019822 L1208.20403,145.019822 Z M1205.24062,150.386609 C1205.08894,150.162963 1204.88319,149.937888 1204.77785,149.881441 C1204.67111,149.824279 1204.5742,149.764974 1204.55735,149.746396 C1204.40356,149.577054 1203.6922,149.068313 1203.60934,149.068313 C1203.54895,149.068313 1203.46749,149.024013 1203.42255,148.966851 C1203.38111,148.913261 1203.2828,148.865388 1203.21609,148.865388 C1203.14938,148.865388 1203.08969,148.833235 1203.08969,148.797509 C1203.08969,148.761782 1203.04334,148.729629 1202.98997,148.729629 C1202.9366,148.729629 1202.89026,148.699619 1202.89026,148.665322 C1202.89026,148.631025 1202.82003,148.578864 1202.73998,148.553856 C1202.65641,148.526704 1202.44434,148.406664 1202.25755,148.279479 C1202.07075,148.152294 1201.89519,148.05226 1201.85798,148.05226 C1201.82146,148.05226 1201.70138,147.973663 1201.59464,147.879346 C1201.48439,147.78217 1201.29549,147.643553 1201.16207,147.560668 C1201.02864,147.479212 1200.91067,147.397757 1200.89171,147.374892 C1200.80603,147.27343 1200.16841,146.900448 1200.07993,146.900448 C1200.02445,146.900448 1199.82993,146.779694 1199.64384,146.629644 C1199.45775,146.478879 1199.27938,146.358125 1199.24427,146.358125 C1199.20986,146.358125 1199.127,146.29739 1199.06099,146.22308 C1198.94231,146.088035 1198.28854,145.680756 1197.76257,145.413524 C1197.1432,145.09842 1196.78295,144.892637 1196.47116,144.676136 C1196.29631,144.555382 1195.96837,144.360317 1195.74857,144.248136 C1195.52877,144.135242 1195.31248,144.013058 1195.27246,143.978761 C1194.95926,143.710815 1194.87499,143.647936 1194.82584,143.647936 C1194.77247,143.647936 1194.22052,143.284244 1194.06041,143.142768 C1194.01687,143.104184 1193.91364,143.026301 1193.83429,142.970568 C1193.75142,142.913406 1193.58429,142.78765 1193.45087,142.682615 C1193.31815,142.57758 1193.19736,142.49541 1193.17489,142.493266 C1193.15312,142.491123 1193.00495,142.376084 1192.84555,142.235323 L1192.55553,141.981667 L1192.66227,141.723724 C1192.72055,141.581534 1192.7683,141.424339 1192.7683,141.371464 C1192.7683,141.269287 1193.02813,140.989908 1193.27461,140.826997 C1193.36098,140.769835 1193.43472,140.684092 1193.43472,140.639792 C1193.43472,140.497602 1193.58921,140.215365 1193.70086,140.153201 C1194.00704,139.98243 1194.35885,139.662323 1194.4375,139.481549 C1194.48806,139.366511 1194.55829,139.2479 1194.59972,139.207886 C1194.78441,139.02997 1195.23875,138.757737 1195.44521,138.700575 C1195.65166,138.643413 1196.04491,138.384755 1196.59757,137.942465 C1196.7036,137.857437 1196.94377,137.733824 1197.12986,137.667373 C1197.54979,137.519467 1197.88195,137.363701 1198.09542,137.21508 C1198.24008,137.115047 1198.9079,136.859247 1199.24076,136.777077 C1199.29975,136.762786 1199.4409,136.702052 1199.55396,136.642746 C1199.66702,136.583441 1199.78288,136.531281 1199.81027,136.527708 C1199.83766,136.523421 1199.89384,136.492696 1199.93316,136.459828 C1199.97389,136.425531 1200.21967,136.371227 1200.48582,136.337645 C1200.75266,136.304062 1201.00125,136.2469 1201.0455,136.21046 C1201.19999,136.08256 1201.93101,135.901071 1202.48998,135.851769 C1202.80318,135.824617 1203.29474,135.749592 1203.58897,135.683856 C1203.89164,135.61669 1204.48151,135.559529 1204.95411,135.551669 C1205.41407,135.544524 1205.84594,135.530948 1205.91968,135.520944 C1205.99341,135.511656 1206.3663,135.527375 1206.75182,135.555241 C1207.13805,135.583108 1207.57062,135.597398 1207.71739,135.587395 C1208.10853,135.559529 1208.14364,135.563101 1208.64995,135.680283 C1208.90978,135.741018 1209.32269,135.818901 1209.58251,135.85677 C1209.84164,135.893926 1210.17309,135.983956 1210.33109,136.059695 C1210.48418,136.133291 1210.6478,136.195455 1210.68712,136.195455 C1210.72715,136.195455 1210.85706,136.239041 1210.97082,136.290486 C1211.0881,136.343361 1211.30017,136.399808 1211.45326,136.419101 C1211.60494,136.437678 1211.84931,136.531281 1212.0024,136.629171 C1212.15549,136.726346 1212.3472,136.804943 1212.43217,136.804943 C1212.57191,136.804943 1213.13018,137.053598 1213.20813,137.150773 C1213.27835,137.238659 1214.01008,137.683807 1214.01008,137.638792 C1214.01008,137.610926 1214.04379,137.625217 1214.09013,137.672375 C1214.13437,137.71739 1214.22356,137.753831 1214.29027,137.753831 C1214.35628,137.753831 1214.40965,137.780983 1214.40965,137.814565 C1214.40965,137.868155 1214.91596,138.093944 1215.24881,138.188261 C1215.45527,138.246852 1215.95877,138.11538 1216.05778,137.977477 C1216.09851,137.920315 1216.11888,137.82314 1216.12801,137.719534 C1215.92647,137.561624 1215.74037,137.325117 1215.40471,137.04931 C1214.09856,135.977525 1212.40478,135.4745 1210.78122,135.172257 C1207.65559,134.58992 1204.39514,134.618501 1201.33833,135.500223 C1199.76954,135.952517 1198.41002,136.874967 1196.88969,137.416576 C1195.33706,137.969617 1193.72404,138.258999 1192.40455,139.373656 C1191.29362,140.311825 1190.71147,142.174589 1191.71496,143.22994 C1192.04149,143.572912 1192.48109,143.775122 1192.90875,143.971616 C1196.93253,145.827948 1200.8257,147.976521 1204.54892,150.397327 C1205.0447,150.719577 1205.34315,151.047544 1205.50677,151.38337 C1205.51449,151.324064 1205.518,151.254041 1205.5173,151.155437 C1205.51449,150.841761 1205.47446,150.731724 1205.24062,150.386609 L1205.24062,150.386609 Z M1204.54892,150.397327 C1200.8257,147.976521 1196.93253,145.827948 1192.90875,143.971616 C1192.48109,143.775122 1192.04149,143.572912 1191.71496,143.22994 C1190.71147,142.174589 1191.29362,140.311825 1192.40455,139.373656 C1193.72404,138.258999 1195.33706,137.969617 1196.88969,137.416576 C1198.41002,136.874967 1199.76954,135.952517 1201.33833,135.500223 C1204.39514,134.618501 1207.65559,134.58992 1210.78122,135.172257 C1212.40478,135.4745 1214.09856,135.977525 1215.40471,137.04931 C1215.74037,137.325117 1215.92647,137.561624 1216.12801,137.719534 C1216.14346,137.551621 1216.12309,137.362986 1216.05568,137.279387 C1216.01003,137.222225 1215.86467,137.103614 1215.72493,137.008583 C1215.58518,136.913551 1215.44333,136.761357 1215.4033,136.662753 C1215.32676,136.475548 1215.16876,136.31478 1214.86259,136.111855 C1214.76076,136.043976 1214.59644,135.906073 1214.48338,135.793892 C1214.24462,135.55667 1213.82399,135.358033 1213.31768,135.242995 C1213.11122,135.196551 1212.94479,135.132958 1212.94479,135.100804 C1212.94479,135.067936 1212.90126,135.043643 1212.84157,135.043643 C1212.78539,135.043643 1212.5052,134.963616 1212.22571,134.867155 C1211.94622,134.771409 1211.6253,134.679235 1211.51997,134.66423 C1211.41323,134.649225 1211.2791,134.594922 1211.22012,134.543476 C1211.03402,134.380565 1210.3346,134.094755 1210.12183,134.094755 C1210.00807,134.094755 1209.79529,134.059743 1209.64852,134.016872 C1209.50176,133.974001 1208.9498,133.933273 1208.41681,133.925413 C1207.88452,133.918268 1207.28692,133.889687 1207.08468,133.862535 C1206.5861,133.794655 1204.38179,133.78751 1204.05526,133.852532 C1203.90919,133.881112 1203.73644,133.933987 1203.67254,133.969713 C1203.60583,134.006154 1203.55597,134.017587 1203.55597,133.996865 C1203.55597,133.976144 1203.47943,133.98972 1203.38603,134.02759 C1203.29263,134.064745 1202.89658,134.111904 1202.50403,134.13191 C1202.11078,134.152631 1201.71613,134.198361 1201.62484,134.233373 C1201.46683,134.294107 1200.75899,134.444157 1200.09327,134.558481 C1199.92684,134.587062 1199.75409,134.63422 1199.70353,134.66423 C1199.65367,134.69424 1199.4739,134.759262 1199.30115,134.810708 C1198.32154,135.098661 1197.75695,135.338741 1197.3967,135.620978 C1197.24994,135.736016 1196.95009,135.885351 1196.73029,135.953231 C1196.23802,136.105425 1195.43818,136.55486 1195.08566,136.877825 C1195.02316,136.934987 1194.85954,137.020729 1194.7198,137.069317 C1194.57935,137.117905 1194.42206,137.195788 1194.36658,137.242232 C1194.3111,137.28939 1194.06041,137.470879 1193.80058,137.652368 C1193.54637,137.82957 1193.052,138.26543 1192.71212,138.610545 C1192.37224,138.956374 1192.0745,139.244327 1192.05624,139.244327 C1191.98321,139.244327 1191.71144,139.610163 1191.55766,139.915265 C1191.47198,140.084607 1191.29292,140.338977 1191.15387,140.487598 C1191.01483,140.636934 1190.90458,140.769121 1190.90458,140.785555 C1190.90458,140.802703 1190.84349,140.904166 1190.76414,141.019204 C1190.64757,141.188546 1190.63633,141.249995 1190.69742,141.38504 C1190.80627,141.629407 1190.78942,141.840192 1190.64827,141.995243 C1190.53802,142.115998 1190.5324,142.181734 1190.5949,142.601874 C1190.63282,142.859102 1190.69742,143.104184 1190.73745,143.142768 C1190.84419,143.24566 1191.4755,143.580771 1191.56327,143.580771 C1191.6033,143.580771 1191.7297,143.664371 1191.84276,143.766547 C1191.95652,143.868724 1192.06888,143.953038 1192.09276,143.953038 C1192.11733,143.953038 1192.17281,143.977332 1192.21916,144.007342 C1192.2655,144.038066 1192.30272,144.043783 1192.30272,144.020918 C1192.30272,143.998768 1192.3891,144.042354 1192.49584,144.119522 C1192.60187,144.195976 1192.73319,144.25814 1192.78867,144.25814 C1192.84204,144.25814 1192.89962,144.283863 1192.91226,144.312443 C1192.97195,144.449632 1194.34692,145.334927 1194.50632,145.339214 C1194.56391,145.340643 1194.73314,145.429959 1194.87289,145.532135 C1195.01544,145.636456 1195.25209,145.777932 1195.39886,145.84724 C1195.54492,145.915835 1195.68045,145.993718 1195.69871,146.019441 C1195.71697,146.045878 1195.8518,146.129477 1195.99786,146.205931 C1196.14463,146.282385 1196.3244,146.402425 1196.39743,146.472449 C1196.52383,146.593918 1197.09194,146.900448 1197.19025,146.900448 C1197.25064,146.900448 1197.88265,147.348455 1198.09542,147.54209 C1198.18812,147.62569 1198.39528,147.76002 1198.56171,147.842905 C1198.92827,148.025823 1199.09048,148.126571 1199.2211,148.249469 C1199.27658,148.301629 1199.41772,148.384514 1199.5371,148.435245 C1199.65719,148.485976 1199.77727,148.566003 1199.80676,148.61459 C1199.83696,148.663893 1199.96336,148.76607 1200.09678,148.84824 C1200.2295,148.93041 1200.40295,149.056881 1200.49284,149.136907 C1200.71264,149.334116 1201.34324,149.746396 1201.4247,149.746396 C1201.46192,149.746396 1201.65784,149.859291 1201.8643,150.000052 C1202.07075,150.140813 1202.30881,150.293721 1202.39729,150.342309 C1202.48366,150.390182 1202.5574,150.456633 1202.5574,150.488072 C1202.5574,150.519511 1202.70346,150.609541 1202.88323,150.687424 C1203.063,150.766021 1203.26384,150.883203 1203.32915,150.948939 C1203.45555,151.073981 1203.48926,151.096846 1203.99557,151.391944 C1204.17534,151.496979 1204.41129,151.639169 1204.52154,151.709907 C1204.7947,151.884251 1205.08121,151.874247 1205.32068,151.682041 C1205.44427,151.582007 1205.48991,151.519129 1205.50677,151.38337 C1205.34315,151.047544 1205.0447,150.719577 1204.54892,150.397327 L1204.54892,150.397327 Z M1220.64265,139.417242 C1220.73885,139.207172 1220.84208,139.041402 1220.87579,139.041402 C1220.90739,139.041402 1220.93548,138.979953 1220.93548,138.912074 C1220.93548,138.84205 1221.07803,138.621262 1221.25008,138.424054 C1221.60892,138.015346 1221.67071,137.923173 1221.88208,137.489457 C1222.0429,137.160062 1222.05905,137.137197 1222.47126,136.669898 C1222.62083,136.499842 1222.7992,136.250473 1222.87293,136.107568 C1222.94667,135.964664 1223.04498,135.83462 1223.09273,135.816043 C1223.14048,135.797465 1223.23599,135.677425 1223.30621,135.548096 C1223.37573,135.419482 1223.45929,135.314447 1223.4923,135.314447 C1223.6819,135.314447 1224.05127,134.393426 1224.15801,133.654608 C1224.16574,133.600305 1224.19172,133.53957 1224.21841,133.512418 C1224.30618,133.423103 1224.25843,133.235183 1224.11167,133.094422 C1223.8385,132.832906 1223.46561,132.769314 1223.46561,132.983671 C1223.46561,133.03726 1223.41927,133.078702 1223.35958,133.078702 C1223.23247,133.078702 1222.7999,133.41953 1222.7999,133.518849 C1222.7999,133.556004 1222.73951,133.625313 1222.66648,133.671043 C1222.59344,133.718201 1222.53305,133.793941 1222.53305,133.841099 C1222.53305,133.887543 1222.41508,134.047597 1222.27042,134.196217 C1222.12576,134.345553 1222.00638,134.504177 1222.00497,134.548478 C1222.00076,134.650654 1221.72619,135.13796 1221.65456,135.169399 C1221.62437,135.18226 1221.60119,135.233706 1221.60119,135.287295 C1221.60119,135.341599 1221.56959,135.382327 1221.52816,135.382327 C1221.39052,135.382327 1220.99938,135.741018 1220.89405,135.964664 C1220.83576,136.089705 1220.69672,136.290486 1220.57945,136.419101 C1220.46288,136.547 1220.2817,136.757785 1220.17285,136.893544 C1220.06401,137.028589 1219.92356,137.150773 1219.85685,137.167921 C1219.79225,137.183641 1219.73677,137.262238 1219.73677,137.337263 C1219.73677,137.411574 1219.67989,137.49303 1219.61388,137.513036 C1219.54436,137.533757 1219.45728,137.625217 1219.41515,137.719534 C1219.33369,137.901737 1219.11249,138.173971 1218.70238,138.594111 C1218.5507,138.749162 1218.33231,139.020681 1218.2052,139.21003 C1218.0788,139.400093 1217.95521,139.559432 1217.92572,139.573008 C1217.89763,139.585155 1217.87235,139.633743 1217.87235,139.67447 C1217.87235,139.718056 1217.75227,139.871679 1217.59918,140.023872 C1217.44609,140.175351 1217.2593,140.401141 1217.17293,140.538329 C1217.08796,140.674089 1216.98122,140.824139 1216.93276,140.877014 C1216.66521,141.168539 1216.13854,141.828045 1215.95315,142.103851 C1215.83518,142.279624 1215.70877,142.428959 1215.67788,142.428959 C1215.64698,142.428959 1215.55639,142.564004 1215.47493,142.734061 C1215.39347,142.902688 1215.30499,143.038448 1215.2755,143.038448 C1215.246,143.038448 1215.18702,143.150628 1215.14207,143.292818 C1215.09783,143.435008 1214.97705,143.63579 1214.86891,143.749399 C1214.522,144.115949 1214.11892,144.576817 1213.84435,144.921932 C1213.6077,145.220603 1213.26922,145.49498 1213.12457,145.507127 C1213.06066,145.512129 1212.81558,145.830092 1212.81348,145.911547 C1212.81207,145.940128 1212.7264,146.053738 1212.62879,146.1552 C1212.53048,146.256662 1212.40057,146.411 1212.3493,146.487454 C1212.29383,146.568195 1212.20113,146.645363 1212.13231,146.666799 C1212.06771,146.686806 1212.01293,146.761831 1212.01293,146.82971 C1212.01293,146.896876 1211.95605,146.968328 1211.88934,146.985477 C1211.82193,147.001911 1211.61266,147.211981 1211.42657,147.449202 C1211.24048,147.686424 1211.0249,147.947225 1210.95046,148.025108 C1210.87251,148.106564 1210.81423,148.193736 1210.81423,148.228748 C1210.81423,148.261616 1210.66184,148.455252 1210.48067,148.651746 C1210.3009,148.84824 1210.14781,149.026871 1210.14781,149.041876 C1210.14781,149.056166 1210.05582,149.166917 1209.94838,149.281956 C1209.84023,149.396994 1209.74824,149.537755 1209.74824,149.587057 C1209.74824,149.634216 1209.71664,149.678516 1209.68223,149.678516 C1209.64431,149.678516 1209.61411,149.715671 1209.61201,149.76283 C1209.6106,149.810703 1209.49895,149.937174 1209.3592,150.050783 C1209.22227,150.162249 1209.03688,150.400185 1208.9498,150.575958 C1208.86202,150.752445 1208.76582,150.897494 1208.73633,150.897494 C1208.70683,150.897494 1208.68296,150.935363 1208.68296,150.982522 C1208.68296,151.028966 1208.62327,151.10542 1208.55023,151.151864 C1208.4765,151.198308 1208.41681,151.265473 1208.41681,151.301199 C1208.41681,151.33764 1208.3515,151.433386 1208.26724,151.521273 C1208.18297,151.608445 1208.04393,151.778501 1207.95053,151.907116 C1207.77919,152.144337 1207.25321,152.701666 1207.16473,152.738821 C1207.13594,152.750968 1206.98847,152.944604 1206.8389,153.167535 C1206.68862,153.391181 1206.47936,153.686994 1206.37332,153.824897 C1206.08751,154.197878 1205.92951,154.420095 1205.82066,154.603728 C1205.76589,154.696616 1205.62895,154.875247 1205.51941,154.99743 C1205.19708,155.356121 1204.85439,155.781977 1204.82771,155.857717 C1204.75327,156.067787 1204.04051,156.792314 1203.90919,156.792314 C1203.73434,156.792314 1203.82212,156.896634 1204.00189,156.903065 C1204.46185,156.918785 1204.98852,157.110991 1205.05593,157.287479 C1205.0756,157.33821 1205.23711,157.367505 1205.48991,157.365472 C1205.85648,157.361789 1205.90774,157.343212 1206.0531,157.161723 C1206.13948,157.05383 1206.21462,156.907352 1206.21602,156.84376 C1206.21813,156.77588 1206.25324,156.724434 1206.29959,156.723005 C1206.39158,156.720861 1206.81853,156.176394 1206.81853,156.060642 C1206.81853,155.962037 1207.06502,155.519033 1207.19142,155.389704 C1207.24338,155.337544 1207.28481,155.241083 1207.28481,155.173203 C1207.28481,155.105323 1207.35925,154.970279 1207.45124,154.868102 C1207.54394,154.766639 1207.61767,154.672322 1207.61767,154.655174 C1207.61767,154.638025 1207.98424,154.245037 1208.43647,153.777739 C1209.56285,152.61235 1210.01509,152.117186 1210.01509,152.05002 C1210.01509,152.017152 1210.03475,151.986428 1210.06495,151.971423 C1210.09233,151.958561 1210.27842,151.752064 1210.48067,151.507697 C1210.68361,151.264044 1210.8697,151.056832 1210.89709,151.043256 C1210.92448,151.03111 1210.94695,150.979664 1210.94695,150.931791 C1210.94695,150.882489 1211.02911,150.758876 1211.13374,150.650983 C1211.23697,150.54309 1211.41182,150.322302 1211.52629,150.152245 C1211.64145,149.983618 1211.8458,149.727104 1211.98695,149.577054 C1212.22992,149.317682 1212.32753,149.176921 1212.50871,148.82466 C1212.54733,148.75035 1212.76783,148.489549 1212.99816,148.245182 C1213.2285,148.001529 1213.46725,147.728581 1213.52765,147.639266 C1213.58734,147.550665 1213.69267,147.436341 1213.75728,147.388468 C1213.82399,147.339166 1213.87736,147.279146 1213.87736,147.252708 C1213.87736,147.226986 1214.09435,146.971901 1214.35979,146.686806 C1214.62453,146.402425 1214.95107,146.05088 1215.08238,145.907975 C1215.213,145.765785 1215.41243,145.577865 1215.52198,145.494266 C1215.78181,145.296343 1215.99107,145.084844 1216.27688,144.731869 C1216.40328,144.576817 1216.60552,144.33245 1216.7242,144.193833 C1216.84498,144.051642 1216.94049,143.921599 1216.94049,143.898734 C1216.94049,143.836571 1217.02124,143.736537 1218.02262,142.564004 C1218.16167,142.401807 1218.27192,142.248899 1218.27192,142.218889 C1218.27192,142.156011 1218.81123,141.605828 1219.19746,141.274289 C1219.35054,141.142817 1219.47062,141.017775 1219.47062,140.989194 C1219.47062,140.962042 1219.51908,140.884159 1219.57455,140.82271 C1220.01907,140.32826 1220.26976,140.013869 1220.26976,139.948847 C1220.26976,139.905976 1220.31611,139.850243 1220.36948,139.830237 C1220.42566,139.809515 1220.54574,139.627312 1220.64265,139.417242 L1220.64265,139.417242 Z M1205.10088,160.349927 C1205.07911,160.327777 1205.05453,160.180585 1205.04681,160.024104 C1205.0124,159.346736 1204.69288,158.835137 1204.29472,158.821561 C1204.07773,158.813701 1203.91551,158.79298 1203.62268,158.735818 C1203.4696,158.705094 1203.32423,158.724386 1203.19994,158.791551 C1203.0939,158.847284 1202.9029,158.894442 1202.77017,158.895872 C1202.45979,158.89873 1202.32075,159.008052 1202.10797,159.414616 C1201.97174,159.676131 1201.93663,159.841186 1201.93171,160.254896 C1201.92399,160.809366 1201.91837,160.796504 1202.5272,161.433145 C1202.76877,161.686801 1203.5026,162.110513 1203.76243,162.146954 C1204.01523,162.183395 1204.14795,162.134093 1204.19149,161.989044 C1204.24064,161.826848 1204.4471,161.603202 1204.54822,161.603202 C1204.58193,161.603202 1204.68445,161.453866 1204.78206,161.264517 C1204.99484,160.850808 1205.15144,160.401373 1205.10088,160.349927 L1205.10088,160.349927 Z M1222.58151,146.418145 C1222.56606,146.553904 1222.52322,146.681089 1222.46845,146.803273 C1222.39612,146.858291 1222.33292,146.900448 1222.31045,146.900448 C1222.27533,146.900448 1221.90104,147.256281 1221.47128,147.696428 C1221.04222,148.137289 1220.58296,148.583866 1220.44251,148.696046 C1220.30277,148.808226 1220.1553,148.941842 1220.11317,148.994003 C1220.09842,149.01258 1220.05277,149.062597 1219.99589,149.123331 C1218.56194,150.175825 1217.11113,151.194735 1216.47912,152.828851 C1216.06129,153.909925 1216.07885,155.106038 1216.03391,156.267139 C1215.95666,158.249228 1215.73054,160.318488 1215.1821,162.229124 C1214.69335,163.932549 1213.14212,165.205115 1212.07965,166.609154 C1211.95465,166.774924 1211.82684,166.94641 1211.77066,167.147905 C1211.54174,167.970322 1212.56489,168.689133 1212.49256,169.540845 C1212.4427,170.131042 1211.86266,170.548323 1211.28823,170.64407 C1210.71311,170.739101 1210.13025,170.600484 1209.55091,170.539749 C1209.34586,170.518313 1209.14432,170.510454 1208.94419,170.510454 C1209.10429,170.293953 1209.03477,170.211783 1208.77144,169.923115 C1208.59377,169.728765 1207.61346,168.716999 1206.58539,167.667364 C1204.38811,165.424474 1204.28067,165.297289 1204.26733,164.902872 C1204.24064,164.136903 1204.74274,163.813223 1205.4871,164.115467 C1205.72024,164.210499 1205.94426,164.421283 1205.94917,164.550612 C1205.95339,164.669937 1206.20689,165.105797 1206.38596,165.303005 C1206.48568,165.411613 1206.65772,165.634544 1206.77219,165.803886 C1206.88525,165.97037 1207.2813,166.415519 1207.64787,166.786356 C1208.01373,167.157194 1208.41751,167.578763 1208.5397,167.717381 C1208.6647,167.860285 1208.80234,167.971751 1208.8529,167.971751 C1208.90205,167.971751 1208.96174,168.0332 1208.98492,168.107511 C1209.04741,168.310435 1210.07267,169.327203 1210.21452,169.327203 C1210.28123,169.327203 1210.37042,169.283617 1210.41466,169.228598 C1210.4582,169.175009 1210.56072,169.110702 1210.64078,169.085694 C1210.81423,169.033533 1211.47994,168.6334 1211.47994,168.58124 C1211.47994,168.563377 1211.35214,168.40904 1211.19694,168.239698 C1211.04175,168.070355 1210.81914,167.825988 1210.70398,167.697374 C1210.58951,167.569474 1210.31775,167.288667 1210.10497,167.077882 C1209.8922,166.866383 1209.59586,166.566998 1209.4526,166.416948 C1209.30935,166.267612 1209.16469,166.142571 1209.13589,166.142571 C1209.1071,166.142571 1209.08253,166.108273 1209.08253,166.06826 C1209.08253,165.98609 1208.46316,165.309436 1207.50461,164.345544 C1207.12541,163.963988 1206.81853,163.611728 1206.81853,163.558138 C1206.81853,163.503835 1206.78412,163.424523 1206.74199,163.381651 C1206.70056,163.33878 1206.66896,163.160863 1206.67247,162.992236 C1206.6809,162.623541 1206.88525,162.373458 1207.26515,162.266994 C1207.74407,162.132664 1208.11555,162.30272 1208.35782,162.76859 C1208.49265,163.025818 1208.83042,163.428095 1208.94278,163.46525 C1209.00107,163.484543 1209.08744,163.584576 1209.13238,163.686753 C1209.17943,163.791073 1209.30303,163.967561 1209.41538,164.089744 C1209.52774,164.211928 1209.61552,164.337684 1209.61552,164.377697 C1209.61552,164.418425 1209.6415,164.448435 1209.67521,164.448435 C1209.70892,164.448435 1209.77984,164.543467 1209.83672,164.66565 C1209.95118,164.909303 1211.2152,166.304053 1211.42657,166.419091 C1211.54736,166.484827 1211.593,166.464106 1211.76294,166.267612 C1211.86968,166.144 1212.07543,165.838183 1212.21588,165.593816 C1212.35562,165.349449 1212.51924,165.10794 1212.57542,165.062211 C1212.63511,165.012909 1212.67865,164.937169 1212.67865,164.882151 C1212.67865,164.827847 1212.70674,164.787834 1212.74536,164.787834 C1212.78047,164.787834 1212.81137,164.739961 1212.81137,164.685657 C1212.81137,164.632068 1212.84297,164.584194 1212.87808,164.584194 C1212.91671,164.584194 1212.94479,164.52346 1212.94479,164.442004 C1212.94479,164.360549 1213.00167,164.251941 1213.07822,164.187634 C1213.15125,164.126185 1213.30995,163.831801 1213.43074,163.533845 C1213.55152,163.235888 1213.73129,162.851475 1213.83031,162.680703 C1213.92792,162.510647 1214.01008,162.309866 1214.01008,162.239842 C1214.01008,162.167675 1214.05291,161.989044 1214.10699,161.833278 C1214.16036,161.679656 1214.22285,161.270948 1214.24673,160.918688 C1214.27061,160.566428 1214.31695,160.212024 1214.34996,160.125567 C1214.38296,160.039824 1214.40965,159.746869 1214.40965,159.46892 C1214.40965,159.19097 1214.44055,158.885868 1214.47776,158.784406 C1214.53535,158.630783 1214.55009,158.296386 1214.53254,157.537562 C1214.52552,157.244607 1214.62523,155.762685 1214.67439,155.437577 C1214.70458,155.233938 1214.71442,154.984569 1214.69616,154.888823 C1214.6765,154.784502 1214.72003,154.603728 1214.8029,154.447962 C1214.87804,154.305771 1214.94264,154.107848 1214.94264,154.018533 C1214.94264,153.925645 1214.97003,153.76059 1215.00584,153.645552 C1215.04095,153.530513 1215.10275,153.303295 1215.14559,153.133953 C1215.18842,152.964611 1215.26356,152.748824 1215.31553,152.649506 C1215.36819,152.547329 1215.40822,152.430147 1215.40822,152.378701 C1215.40822,152.327255 1215.51075,152.090034 1215.63855,151.846381 C1215.76565,151.602728 1215.9363,151.26976 1216.02127,151.101133 C1216.10624,150.931791 1216.22632,150.748158 1216.29092,150.687424 C1216.35764,150.625975 1216.40749,150.547377 1216.40749,150.50522 C1216.40749,150.464492 1216.46367,150.389467 1216.53038,150.342309 C1216.5992,150.293721 1216.73965,150.118663 1216.84639,149.949321 C1217.21365,149.366984 1217.50719,149.016867 1217.6989,148.93041 C1217.87937,148.850383 1218.40534,148.367365 1218.40534,148.282337 C1218.40534,148.263759 1218.65182,148.001529 1218.958,147.692855 C1219.26417,147.384895 1219.64267,146.984762 1219.80699,146.795413 C1219.97131,146.606064 1220.19954,146.385277 1220.31962,146.300963 C1220.4397,146.216649 1220.53591,146.118045 1220.53591,146.08089 C1220.53591,146.04302 1220.5949,145.948703 1220.66933,145.867247 C1220.74307,145.786506 1220.80205,145.640028 1220.80205,145.538566 C1220.80205,145.437104 1220.83155,145.34493 1220.86877,145.332069 C1220.95233,145.302773 1220.82172,144.874774 1220.68899,144.739014 C1220.64335,144.69257 1220.56962,144.590393 1220.5324,144.522513 C1220.49588,144.454634 1220.42917,144.393185 1220.39265,144.393185 C1220.35473,144.393185 1220.13353,144.19026 1219.90601,143.946607 C1219.51416,143.526467 1219.3372,143.446441 1219.3372,143.688664 C1219.3372,143.742968 1219.30841,143.783696 1219.27049,143.783696 C1219.23327,143.783696 1219.20378,143.820851 1219.20378,143.86801 C1219.20378,143.915168 1219.13426,144.005913 1219.04788,144.071649 C1218.96151,144.136671 1218.74592,144.410333 1218.56826,144.681852 C1218.38989,144.952657 1218.16167,145.245611 1218.05844,145.335641 C1217.95872,145.422099 1217.87235,145.539995 1217.87235,145.589297 C1217.87235,145.63717 1217.84847,145.6829 1217.82249,145.684329 C1217.7951,145.685758 1217.6687,145.836522 1217.54581,146.01301 C1217.42362,146.189497 1217.17925,146.426719 1217.01352,146.531754 C1216.68698,146.737537 1216.40749,147.020488 1216.40749,147.144101 C1216.40749,147.185543 1216.13924,147.493503 1215.80779,147.832187 C1215.47704,148.170871 1215.20879,148.475973 1215.20879,148.513128 C1215.20879,148.601015 1214.55571,149.271952 1214.47004,149.271952 C1214.43633,149.271952 1214.40965,149.309107 1214.40965,149.356266 C1214.40965,149.404139 1214.32257,149.536326 1214.20951,149.657795 C1214.09786,149.779979 1214.01008,149.891444 1214.01008,149.912165 C1214.01008,149.932887 1213.80081,150.169394 1213.5438,150.440913 C1213.28678,150.711717 1213.07822,150.962515 1213.07822,150.99967 C1213.07822,151.03754 1212.99044,151.161867 1212.87808,151.284051 C1212.76573,151.406234 1212.67865,151.529133 1212.67865,151.565573 C1212.67865,151.600585 1212.60491,151.685613 1212.51854,151.752778 C1212.32543,151.900685 1211.79103,152.570194 1211.72994,152.740965 C1211.70606,152.808844 1211.64777,152.864577 1211.60002,152.866721 C1211.4996,152.871722 1210.81423,153.689852 1210.81423,153.80489 C1210.81423,153.844904 1210.78403,153.879201 1210.74751,153.879201 C1210.7124,153.879201 1210.6808,153.923501 1210.6808,153.97066 C1210.6808,154.020677 1210.52561,154.231461 1210.3332,154.441531 C1209.33954,155.525463 1209.18716,155.731246 1209.02073,156.216408 C1208.97157,156.358598 1208.89503,156.518651 1208.8543,156.562237 C1208.64855,156.785883 1208.36765,157.225315 1208.30796,157.415378 C1208.2869,157.483973 1208.24687,157.537562 1208.21667,157.537562 C1208.18718,157.537562 1208.12468,157.636166 1208.07763,157.757635 C1208.02918,157.879819 1207.95474,158.000573 1207.9105,158.027725 C1207.79744,158.098463 1207.2181,158.878723 1207.2181,158.960893 C1207.2181,158.993761 1207.15841,159.04092 1207.08468,159.064499 C1206.94494,159.109514 1206.88665,159.435337 1207.01867,159.435337 C1207.10013,159.435337 1207.10364,160.545707 1207.02288,160.708618 C1206.99128,160.771496 1206.91193,160.992998 1206.84873,161.196638 C1206.78483,161.400277 1206.69143,161.618207 1206.64227,161.677512 C1206.59171,161.738247 1206.55239,161.818988 1206.55239,161.86043 C1206.55239,161.899014 1206.50885,161.961178 1206.4625,161.989044 C1206.41475,162.01834 1206.3354,162.114801 1206.29256,162.195542 C1206.25043,162.276998 1206.17669,162.34845 1206.13597,162.34845 C1206.09243,162.34845 1205.98288,162.423475 1205.88316,162.521365 C1205.77923,162.622827 1205.61351,162.699996 1205.48008,162.70857 C1205.18093,162.728576 1205.08754,162.795742 1205.08754,162.992236 C1205.08754,163.297337 1204.37477,163.749631 1203.85512,163.772496 C1203.70906,163.779641 1203.57423,163.778926 1203.55597,163.771066 C1203.53701,163.763207 1203.43589,163.748916 1203.32283,163.737484 C1202.90992,163.695327 1202.54406,163.561711 1201.69155,163.140857 C1201.41838,163.005812 1200.75899,162.426333 1200.75899,162.321298 C1200.75899,162.295575 1200.67472,162.145525 1200.57289,161.989044 C1200.47107,161.834707 1200.28709,161.504597 1200.16981,161.26809 C1200.1031,161.133045 1200.06097,161.030154 1200.02796,160.93012 C1200.23512,160.758635 1200.43175,160.57 1200.61713,160.374936 C1202.10867,158.806556 1203.23645,156.937362 1204.2905,155.049591 C1204.95903,153.852049 1205.78766,152.798841 1205.643,151.819944 C1205.66617,151.792792 1205.69075,151.763496 1205.70971,151.744919 C1205.82347,151.635597 1205.9576,151.456251 1206.00254,151.355503 C1206.04819,151.253326 1206.1163,151.169013 1206.15282,151.169013 C1206.23287,151.169013 1206.68581,150.714576 1206.68581,150.633834 C1206.68581,150.603824 1206.9021,150.349454 1207.16895,150.064359 C1207.95193,149.231224 1207.98073,149.195498 1208.08606,148.926123 C1208.13873,148.791078 1208.26794,148.578864 1208.36695,148.46597 C1208.46737,148.350217 1208.55023,148.243753 1208.55023,148.228748 C1208.55023,148.213743 1208.65065,148.092988 1208.77635,147.957229 C1209.21454,147.484929 1209.61833,146.968328 1209.95821,146.446726 C1210.05371,146.299534 1210.49892,145.762212 1210.80018,145.429959 C1210.87953,145.342072 1210.94695,145.252042 1210.94695,145.234179 C1210.94695,145.200596 1212.21237,143.859435 1212.39846,143.694381 C1212.71165,143.418574 1213.21164,142.87768 1213.21164,142.814802 C1213.21164,142.772645 1213.30434,142.646889 1213.42442,142.527563 C1213.83031,142.121714 1213.9862,141.918789 1214.13929,141.59511 C1214.22285,141.419337 1214.31695,141.277147 1214.34996,141.277147 C1214.38086,141.277147 1214.40965,141.232846 1214.40965,141.185688 C1214.40965,141.135671 1214.51639,140.996339 1214.64279,140.880586 C1214.76919,140.764833 1214.87593,140.621929 1214.87593,140.569054 C1214.87593,140.51475 1214.91455,140.446156 1214.9623,140.416146 C1215.01076,140.386136 1215.18561,140.165348 1215.35555,139.921696 C1215.52549,139.678043 1215.76425,139.385088 1215.89135,139.264334 C1216.01776,139.145008 1216.17014,138.942798 1216.23053,138.814184 C1216.29163,138.68557 1216.41592,138.531947 1216.50721,138.471927 C1216.60061,138.411193 1216.67364,138.326164 1216.67364,138.279006 C1216.67364,138.232562 1216.77336,138.098946 1216.89344,137.984622 C1216.92223,137.95747 1216.94962,137.92746 1216.97841,137.899594 C1217.00931,137.895306 1217.03388,137.896021 1217.06689,137.890305 C1217.76701,137.770979 1218.4559,137.047167 1218.93412,136.564149 C1219.85334,135.636697 1222.6117,130.254905 1224.44242,132.214129 C1224.91783,132.723584 1225.0351,133.490983 1224.93609,134.1855 C1224.67415,136.027542 1223.16717,137.371561 1221.99304,138.799179 C1220.81961,140.226797 1219.91514,142.346789 1220.95725,143.876584 C1221.5408,144.734727 1222.70089,145.381371 1222.58151,146.418145 L1222.58151,146.418145 Z M1212.5059,173.927306 C1212.48343,174.042344 1212.42374,174.171673 1212.37248,174.211686 C1212.32121,174.253129 1212.27908,174.330297 1212.27908,174.384601 C1212.27908,174.440334 1212.23133,174.557516 1212.17023,174.652547 C1212.00451,174.909776 1211.81631,175.810076 1211.88443,176.02086 C1212.00381,176.393842 1212.02698,176.441 1212.08597,176.441 C1212.12178,176.441 1212.14566,176.468152 1212.14566,176.50888 C1212.14566,176.620346 1212.48554,176.976893 1212.63862,177.02691 C1212.76362,177.066923 1213.19128,177.374168 1213.39773,177.572091 C1213.53116,177.700705 1213.73059,177.741433 1213.86401,177.668552 C1213.93354,177.630682 1214.05011,177.616392 1214.12314,177.637113 C1214.21653,177.662836 1214.26709,177.63354 1214.29308,177.539223 C1214.31344,177.464198 1214.51639,177.281994 1214.7425,177.134088 C1215.14137,176.874716 1215.32817,176.644639 1215.58307,176.102316 C1215.7179,175.814363 1215.75442,174.923352 1215.64908,174.47606 C1215.5283,173.961603 1215.12241,173.391413 1214.78253,173.259226 C1214.57608,173.1792 1213.49885,173.220642 1213.38439,173.312816 C1213.34436,173.344969 1213.20462,173.392842 1213.07822,173.417851 C1212.77205,173.477871 1212.55506,173.670077 1212.5059,173.927306 L1212.5059,173.927306 Z M1219.99589,149.123331 C1219.88915,149.239084 1219.72834,149.409141 1219.55349,149.589915 C1219.28594,149.867865 1219.07105,150.119377 1219.07105,150.152245 C1219.07105,150.185114 1219.01769,150.232987 1218.958,150.255137 C1218.84213,150.297294 1218.06125,151.176158 1218.01279,151.317634 C1217.99805,151.362649 1217.92853,151.459824 1217.8583,151.534849 C1217.59637,151.814227 1217.36463,152.225793 1217.28318,152.558047 C1217.23683,152.747395 1217.17925,152.91245 1217.15326,152.931742 C1217.069,152.995335 1216.94049,153.269712 1216.94049,153.38475 C1216.94049,153.454059 1216.88782,153.59482 1216.82041,153.709859 C1216.7544,153.822039 1216.6617,154.109277 1216.61395,154.353645 C1216.5655,154.597297 1216.50019,154.869531 1216.46718,154.963133 C1216.3787,155.212502 1216.31971,156.067787 1216.30637,157.30034 C1216.29935,157.896967 1216.26915,158.552186 1216.23755,158.757254 C1216.20595,158.963751 1216.17646,159.326729 1216.17084,159.570382 C1216.15539,160.239176 1216.07253,160.952985 1215.93068,161.630354 C1215.85975,161.969038 1215.78532,162.338447 1215.76495,162.449912 C1215.72703,162.666413 1215.59712,163.005812 1215.43912,163.303768 C1215.38505,163.40523 1215.34221,163.549564 1215.34221,163.628876 C1215.34221,163.707474 1215.28252,163.869671 1215.20879,163.991854 C1215.13505,164.113323 1215.07536,164.266231 1215.07536,164.333397 C1215.07536,164.401276 1215.00022,164.537036 1214.90612,164.638498 C1214.81273,164.738532 1214.647,165.000762 1214.53956,165.217262 C1214.43212,165.434478 1214.27552,165.701709 1214.19336,165.807459 C1214.10909,165.916067 1213.97075,166.105415 1213.87736,166.24046 C1213.78326,166.37622 1213.66739,166.49626 1213.61051,166.515552 C1213.55573,166.53413 1213.37105,166.677749 1213.1983,166.837088 C1213.02485,166.996426 1212.79381,167.194349 1212.68216,167.280807 L1212.47851,167.436573 L1212.6639,167.687371 C1212.99957,168.141093 1213.22498,168.314722 1213.41108,168.262562 C1213.50377,168.236839 1213.71093,168.218262 1213.87736,168.220405 C1214.17651,168.224693 1215.12452,168.359023 1215.20247,168.407611 C1215.22424,168.421187 1215.40822,168.405467 1215.60836,168.372599 C1216.10764,168.291143 1216.5978,168.456913 1217.06689,168.866335 C1217.11815,168.910635 1217.31267,169.05354 1217.49946,169.18144 C1217.68626,169.309339 1217.86181,169.452959 1217.8892,169.500117 C1217.91589,169.545847 1218.0451,169.652311 1218.1722,169.733766 C1218.2986,169.814508 1218.40534,169.918114 1218.40534,169.96027 C1218.40534,170.004571 1218.48048,170.12604 1218.57809,170.241793 C1218.67429,170.354688 1218.82247,170.580477 1218.91095,170.749819 C1219.00013,170.919161 1219.09914,171.099936 1219.13426,171.156383 C1219.35897,171.516503 1219.62792,172.388936 1219.70868,173.019146 C1219.72764,173.168482 1219.77961,173.382124 1219.82314,173.49359 C1219.95516,173.832274 1219.91865,176.373835 1219.77399,176.915444 C1219.70938,177.159096 1219.64197,177.454195 1219.62371,177.575664 C1219.60545,177.697847 1219.56332,177.812886 1219.53031,177.833607 C1219.49661,177.854328 1219.47062,177.938642 1219.47062,178.026528 C1219.47062,178.203016 1219.33018,178.5417 1219.25715,178.5417 C1219.22906,178.5417 1219.20378,178.602434 1219.20378,178.670314 C1219.20378,178.738194 1219.1792,178.810361 1219.15111,178.821793 C1219.09142,178.84823 1218.57879,179.584904 1218.38427,179.923588 C1218.26349,180.134373 1218.2052,180.192249 1217.71224,180.597384 C1217.5732,180.712423 1217.41871,180.842466 1217.37938,180.878907 C1217.33865,180.917491 1217.26,180.983227 1217.19961,181.030386 C1217.08796,181.118987 1215.6554,181.647734 1214.94264,181.864235 C1214.47004,182.00714 1213.5438,182.050725 1213.5438,181.929256 C1213.5438,181.888529 1213.51711,181.872095 1213.48411,181.892101 C1213.39492,181.948549 1213.08173,181.77349 1213.0424,181.644876 C1213.02134,181.576996 1212.98412,181.535554 1212.95814,181.551988 C1212.7271,181.696322 1211.48696,181.629871 1211.04737,181.449811 C1210.16817,181.089691 1209.42732,180.701705 1209.18224,180.473772 C1209.06286,180.363021 1208.83955,180.16081 1208.69349,180.032196 C1208.54672,179.903582 1208.42173,179.75639 1208.42032,179.71066 C1208.41822,179.662787 1208.39364,179.625632 1208.36344,179.625632 C1208.33395,179.625632 1208.23844,179.507021 1208.14715,179.357686 C1208.05657,179.209065 1207.96177,179.08831 1207.93368,179.086881 C1207.90699,179.085452 1207.88452,179.049726 1207.88452,179.008998 C1207.88452,178.967556 1207.82764,178.853232 1207.75601,178.75177 C1207.27779,178.067256 1207.09591,177.376312 1206.91685,175.567138 C1206.86909,175.086263 1207.13173,173.490017 1207.29254,173.28352 C1207.38242,173.168482 1207.88452,172.156716 1207.88452,172.09098 C1207.88452,172.057397 1207.94281,171.965938 1208.01724,171.884483 C1208.09168,171.803742 1208.15067,171.700136 1208.15067,171.650833 C1208.15067,171.603675 1208.17524,171.562947 1208.20403,171.562947 C1208.23283,171.562947 1208.29532,171.454339 1208.34027,171.325725 C1208.38521,171.197825 1208.53057,170.973465 1208.65697,170.83842 C1208.7897,170.694801 1208.88239,170.593338 1208.94419,170.510454 C1209.14432,170.510454 1209.34586,170.518313 1209.55091,170.539749 C1210.13025,170.600484 1210.71311,170.739101 1211.28823,170.64407 C1211.86266,170.548323 1212.4427,170.131042 1212.49256,169.540845 C1212.56489,168.689133 1211.54174,167.970322 1211.77066,167.147905 C1211.82684,166.94641 1211.95465,166.774924 1212.07965,166.609154 C1213.14212,165.205115 1214.69335,163.932549 1215.1821,162.229124 C1215.73054,160.318488 1215.95666,158.249228 1216.03391,156.267139 C1216.07885,155.106038 1216.06129,153.909925 1216.47912,152.828851 C1217.11113,151.194735 1218.56194,150.175825 1219.99589,149.123331 L1219.99589,149.123331 Z M1225.64955,134.223369 L1225.8216,133.89183 C1226.0428,133.464545 1226.06106,132.90293 1225.86092,132.685714 C1225.78578,132.604259 1225.72961,132.5128 1225.72961,132.472072 C1225.72961,132.432059 1225.70433,132.401334 1225.66992,132.401334 C1225.63551,132.401334 1225.57512,132.313448 1225.53017,132.197695 C1225.48453,132.082656 1225.43116,131.99477 1225.40658,131.99477 C1225.38411,131.99477 1225.32512,131.906169 1225.28088,131.804707 C1225.11726,131.43244 1224.84409,131.193074 1224.45084,131.078036 C1224.07656,130.968 1224.05198,130.969429 1223.62572,131.113762 C1223.30621,131.22237 1223.1461,131.24452 1223.03936,131.197362 C1222.89821,131.133769 1222.7065,131.165923 1222.24724,131.330978 C1222.07379,131.392427 1221.97689,131.478884 1221.92071,131.621789 C1221.87647,131.734683 1221.7283,131.937608 1221.58785,132.076226 C1221.44811,132.214129 1221.33505,132.347745 1221.33505,132.374182 C1221.33505,132.39919 1221.24797,132.507798 1221.14825,132.606402 C1220.9418,132.811471 1220.80205,133.03726 1220.80205,133.166589 C1220.80205,133.215891 1220.68548,133.343076 1220.53942,133.454542 C1220.39265,133.566008 1220.24097,133.721774 1220.19603,133.806802 C1220.15389,133.888258 1220.08999,133.95971 1220.0598,133.95971 C1220.0296,133.95971 1220.00291,134.006869 1220.00291,134.061172 C1220.00291,134.11762 1219.95235,134.216939 1219.88915,134.284818 C1219.65461,134.534902 1219.47062,134.776411 1219.47062,134.833573 C1219.47062,134.86787 1219.38425,134.969332 1219.27049,135.067222 C1219.15743,135.165112 1219.07105,135.260858 1219.07105,135.287295 C1219.07105,135.314447 1219.0212,135.381612 1218.95448,135.443061 C1218.89058,135.502367 1218.79578,135.635983 1218.74452,135.73816 C1218.69396,135.839622 1218.62584,135.923936 1218.59494,135.923936 C1218.56124,135.923936 1218.53806,135.948229 1218.53806,135.985385 C1218.53806,136.018967 1218.37093,136.226179 1218.16869,136.44268 C1217.96645,136.659895 1217.75297,136.927841 1217.69679,137.03502 C1217.59567,137.228656 1217.29933,137.582345 1216.97841,137.899594 C1217.00931,137.895306 1217.03388,137.896021 1217.06689,137.890305 C1217.76701,137.770979 1218.4559,137.047167 1218.93412,136.564149 C1219.85334,135.636697 1222.6117,130.254905 1224.44242,132.214129 C1224.91783,132.723584 1225.0351,133.490983 1224.93609,134.1855 C1224.67415,136.027542 1223.16717,137.371561 1221.99304,138.799179 C1220.81961,140.226797 1219.91514,142.346789 1220.95725,143.876584 C1221.5408,144.734727 1222.70089,145.381371 1222.58151,146.418145 C1222.56606,146.553904 1222.52322,146.681089 1222.46845,146.803273 C1222.51058,146.771119 1222.55342,146.738966 1222.60047,146.696809 C1222.72617,146.583914 1222.84695,146.493884 1222.87293,146.493884 C1222.89962,146.493884 1222.93543,146.443153 1222.9565,146.375273 C1222.97686,146.309537 1223.03585,146.141624 1223.08922,145.999434 C1223.18753,145.73506 1223.1461,145.328496 1223.00636,145.186306 C1222.96563,145.144864 1222.93262,145.057692 1222.93262,144.989812 C1222.93262,144.921932 1222.91085,144.867628 1222.88347,144.867628 C1222.85467,144.867628 1222.79498,144.779742 1222.74372,144.664704 C1222.62504,144.393185 1222.21916,143.897305 1222.06747,143.837285 C1222.00287,143.812277 1221.92773,143.726534 1221.90385,143.651509 C1221.88068,143.577199 1221.83152,143.512892 1221.79782,143.512892 C1221.76481,143.512892 1221.73462,143.468591 1221.73462,143.421432 C1221.73462,143.370701 1221.67422,143.274955 1221.60119,143.20779 C1221.52816,143.140625 1221.46777,143.044879 1221.46777,142.994147 C1221.46777,142.946989 1221.43617,142.902688 1221.40176,142.902688 C1221.36524,142.902688 1221.33505,142.869106 1221.33505,142.828378 C1221.33505,142.78765 1221.19881,142.621166 1221.03168,142.458969 L1220.72902,142.164585 L1220.96567,141.900212 C1221.09278,141.758021 1221.20162,141.607971 1221.20162,141.575103 C1221.20162,141.540806 1221.2887,141.44506 1221.40176,141.35503 C1221.51482,141.264286 1221.60119,141.144246 1221.60119,141.07708 C1221.60119,141.011344 1221.66088,140.903451 1221.73462,140.836286 C1221.80765,140.769835 1221.86734,140.678376 1221.86734,140.633361 C1221.86734,140.586917 1221.92773,140.496887 1222.00708,140.423291 C1222.08433,140.352553 1222.2634,140.111759 1222.40454,139.888113 C1222.78305,139.291486 1222.94175,139.072841 1223.22756,138.749877 C1223.56463,138.370465 1223.86518,137.9196 1223.86518,137.793844 C1223.86518,137.740255 1223.93541,137.635934 1224.01476,137.570913 C1224.09552,137.505177 1224.22051,137.360843 1224.28512,137.258666 C1224.34902,137.157204 1224.48174,137.039307 1224.57093,137.00501 C1224.66432,136.968569 1224.78581,136.855675 1224.8476,136.747781 C1224.90729,136.642746 1225.06389,136.48055 1225.19029,136.393378 C1225.51683,136.166874 1225.72961,135.957518 1225.72961,135.863201 C1225.72961,135.822473 1225.7598,135.788891 1225.79632,135.788891 C1225.87707,135.788891 1225.99645,135.348744 1225.99645,135.050073 C1225.99645,134.924317 1225.9171,134.684237 1225.823,134.52204 L1225.64955,134.223369 Z M1200.61713,160.374936 C1200.43175,160.57 1200.23512,160.758635 1200.02796,160.93012 C1199.96827,160.75006 1199.94931,160.582147 1199.9437,160.268471 C1199.93738,159.909066 1199.96195,159.676131 1200.01322,159.624686 C1200.05886,159.578956 1200.09327,159.47535 1200.09327,159.387464 C1200.09327,159.244559 1200.13119,159.130235 1200.33273,158.655792 C1200.38189,158.540753 1200.49284,158.382129 1200.58905,158.289955 C1200.68244,158.20064 1200.75899,158.093461 1200.75899,158.052734 C1200.75899,157.980567 1200.94578,157.801221 1201.39801,157.437529 C1201.59183,157.282477 1202.34462,156.974517 1202.464,157.001669 C1202.52369,157.01596 1202.88323,156.933075 1202.97031,156.885916 C1202.99629,156.871626 1202.97452,156.758731 1202.92115,156.630117 C1202.77509,156.277857 1202.80318,156.087794 1203.03983,155.82342 C1203.38041,155.444722 1203.48926,155.30539 1203.48926,155.254659 C1203.48926,155.228936 1203.54754,155.142479 1203.61566,155.068168 C1203.68729,154.990285 1203.79613,154.834519 1203.86565,154.712335 C1203.93237,154.594439 1204.12829,154.285765 1204.29472,154.034967 C1204.46185,153.784169 1204.68937,153.404043 1204.7947,153.201832 C1204.90004,152.998193 1205.00608,152.813846 1205.02714,152.795268 C1205.04961,152.776691 1205.16478,152.578053 1205.28416,152.354407 C1205.38247,152.169346 1205.52924,151.95356 1205.643,151.819944 C1205.78766,152.798841 1204.95903,153.852049 1204.2905,155.049591 C1203.23645,156.937362 1202.10867,158.806556 1200.61713,160.374936 L1200.61713,160.374936 Z" id="Fill-1"></path>
        </g>
    </g>
</svg>