<?xml version="1.0" encoding="UTF-8"?>
<svg width="65px" height="149px" viewBox="0 0 65 149" version="1.1" xmlns="http://www.w3.org/2000/svg" xmlns:xlink="http://www.w3.org/1999/xlink">
    <title>img-boy3</title>
    <defs>
        <polygon id="path-1" points="0.345873261 0.58543393 33.267791 0.58543393 33.267791 46.5981108 0.345873261 46.5981108"></polygon>
    </defs>
    <g id="Page-1" stroke="none" stroke-width="1" fill="none" fill-rule="evenodd">
        <ellipse id="Oval" fill="#FFFFFF" cx="31.5" cy="33.5" rx="27" ry="31.5"></ellipse>
        <g id="Group-39">
            <path d="M11.8284053,106.125319 C12.0225147,106.491798 12.4495553,107.161087 12.7834235,107.622291 C14.6530852,110.217145 14.6530852,110.217145 14.2462319,110.510639 C13.9775845,110.704748 13.9045994,110.940785 13.9511856,111.48895 C13.9869017,111.884933 14.0288294,112.680005 14.0536754,113.246805 C14.0723099,113.812051 14.2850538,114.779492 14.517985,115.374244 C14.7509163,115.968995 14.9527901,116.614991 14.9621073,116.795124 C14.9683188,116.973705 15.2944226,117.652311 15.6733241,118.276567 C16.0506728,118.902376 16.3767766,119.562348 16.3829881,119.722294 C16.4000697,120.121383 17.1376854,121.008075 18.5570133,122.338889 C19.4514694,123.177441 19.6502374,123.450747 19.4343877,123.547025 C19.2340669,123.635539 19.1890335,123.815673 19.2806531,124.196127 C19.3551911,124.505149 19.3163692,124.845229 19.1905864,125.017598 C19.0384046,125.227236 19.0321931,125.363889 19.1672932,125.486566 C19.2899704,125.598373 19.3179221,125.957088 19.2495956,126.474195 C19.1890335,126.918317 19.1812691,127.536362 19.2340669,127.834514 C19.3878015,128.744499 20.1782149,130.46819 20.6937695,131.016355 C20.9577583,131.297425 21.3615058,131.724466 21.5897785,131.966714 C21.8211569,132.210516 22.21714,132.763339 22.4826817,133.210567 C22.7482233,133.656243 23.1535237,134.249441 23.3942194,134.544487 C24.6955287,136.137737 25.4781778,138.665818 25.0340555,139.849109 C24.8026771,140.4656 23.7156645,141.41596 23.2156387,141.439253 C23.0153178,141.44857 22.4733644,141.712559 22.0292421,142.018475 C21.5820141,142.325945 20.4359922,142.889638 19.4980556,143.265434 C18.560119,143.64123 17.6858503,144.03566 17.5647261,144.136597 C17.4467076,144.235981 17.2324108,144.28412 17.1019693,144.239087 C16.9730806,144.197159 16.7013275,144.287226 16.5227468,144.428537 C16.0801774,144.78104 15.1732983,144.818309 14.7074358,144.503076 C14.4838218,144.350894 14.2726308,143.894348 14.1468479,143.294939 C13.9775845,142.476573 13.9993247,142.203267 14.3036883,141.487392 C14.5009034,141.019977 14.8006083,140.467153 14.9807418,140.243539 C15.5661758,139.518346 15.6282908,138.777625 15.1593225,138.161133 C14.9263912,137.859876 14.6701668,137.614521 14.5894173,137.617627 C14.3673561,137.628497 14.0505696,137.311711 13.2523918,136.283707 C12.8548558,135.769706 12.3641472,135.184272 12.1420861,134.959105 C10.7972962,133.589469 8.98353801,131.570731 8.28008557,130.657641 C7.8281989,130.07376 7.08903033,129.115636 6.63714366,128.531755 C5.00662476,126.418292 4.5795841,125.54247 3.76587752,122.641699 C3.41648061,121.408716 3.44443236,119.837207 3.83109827,118.745535 C3.90253053,118.539003 4.08732267,117.899218 4.24105731,117.302914 C4.3978977,116.708163 4.62772322,116.139811 4.75971761,116.021792 C4.89637063,115.899115 4.99420176,115.698794 4.98799026,115.551271 C4.96780288,115.149077 5.58429432,113.706456 5.8979751,113.419174 C6.2287375,113.117916 6.99896357,111.419071 6.9787762,111.033957 C6.9725647,110.874011 7.2722696,110.42523 7.64185388,110.047882 C8.01454392,109.664322 8.48972372,109.007455 8.70091473,108.575756 C8.91521151,108.142504 9.28169004,107.679747 9.52704431,107.536883 C9.75842271,107.398677 10.0472575,107.100525 10.1373242,106.901757 C10.4867212,106.151718 11.1622218,105.280555 11.3268266,105.37528 C11.4075761,105.421867 11.6374016,105.766605 11.8284053,106.125319" id="Fill-1" fill="#FBE2E2"></path>
            <path d="M52.7052036,107.104252 C52.7114151,107.240905 52.8667026,107.407062 53.0328603,107.458307 C53.5126987,107.604277 54.1121085,108.36208 55.1292417,110.095089 C55.6199503,110.935195 56.258182,111.832756 56.5547811,112.102957 C56.8436159,112.365393 57.1836956,112.72566 57.2892911,112.877841 C57.3964395,113.034682 57.7240961,113.491227 58.0253539,113.89808 C58.3250588,114.308039 58.5673073,114.741292 58.5750717,114.873286 C58.5812832,115.00528 58.8437191,115.385735 59.1573999,115.719603 C59.4695278,116.053471 59.7366223,116.466536 59.7505982,116.637352 C59.7630212,116.801957 59.8608523,116.996066 59.9617892,117.050417 C60.0627261,117.103215 60.1574515,117.280242 60.163663,117.426213 C60.1714273,117.578394 60.4385219,118.174699 60.7661785,118.766344 C61.3236607,119.767948 61.3655883,119.958952 61.4541022,121.993219 C61.6140483,125.622288 60.7568613,127.720222 58.0641758,130.293336 C57.8887009,130.459494 57.3871222,131.015423 56.9445528,131.530978 C56.5050891,132.048085 56.0252507,132.568298 55.8792804,132.692528 C53.1586432,134.975255 52.9645338,135.17247 51.9365304,136.686523 C51.3650724,137.529734 51.2687941,137.818569 51.1818331,138.942851 C51.1430112,139.449088 51.6772003,140.756609 52.3387251,141.772189 C53.01112,142.806404 53.0313074,143.082816 52.4784839,143.651168 C52.0856064,144.053363 51.9116844,144.096843 50.7905086,144.07355 C49.5218096,144.045598 48.7096559,143.896522 47.6428307,143.495881 C46.1474119,142.935293 45.748323,142.758265 45.648939,142.616953 C45.586824,142.526887 45.2778018,142.411974 44.9439336,142.35607 C44.0028913,142.196124 43.434539,141.880891 42.1736044,140.820277 C41.0850389,139.90408 41.0058423,139.786062 40.9685733,139.03447 C40.9452801,138.484753 41.0384527,138.112063 41.2651724,137.863603 C41.4390944,137.671046 41.6673671,137.36513 41.7419051,137.216054 C42.0152111,136.694288 43.0929065,135.315334 43.7761715,134.614988 C44.1395443,134.240745 44.8569726,133.232929 45.3616571,132.383506 C45.8663415,131.534083 46.4176122,130.749881 46.5853227,130.645839 C46.8260183,130.496763 46.8865805,130.108544 46.8850276,128.749778 C46.8819218,126.731041 46.5465008,125.11605 45.9828071,124.403281 C45.7498758,124.108234 45.5231561,123.451368 45.4191134,122.77742 C45.3135179,122.083285 45.1535718,121.614317 45.0044958,121.566178 C44.6178299,121.435736 44.6566517,120.831668 45.0697165,120.584761 C45.2653788,120.466742 45.4237721,120.297479 45.4191134,120.205859 C45.4144548,120.11424 45.6396217,119.608002 45.9253507,119.062943 C46.2110798,118.516331 46.530972,117.746105 46.6489906,117.320617 C47.4067936,114.548735 47.7173687,113.182205 47.6940755,112.717895 C47.6769939,112.290855 47.8307285,112.065688 48.4875947,111.570321 C48.9286113,111.2349 49.3929209,110.815623 49.5016222,110.651018 C49.6103235,110.483308 50.1398539,109.840418 50.6911246,109.208397 C51.2423952,108.57793 51.7859015,107.804598 51.9132373,107.472283 C52.1492743,106.854239 52.6803576,106.607332 52.7052036,107.104252" id="Fill-3" fill="#FBE2E2"></path>
            <path d="M46.1084347,63.6600848 C46.8708964,64.254836 48.2405323,66.0515125 48.6442798,66.9863434 C48.8430479,67.4428886 49.549606,68.8358177 50.2235539,70.0905408 C51.3028021,72.0968555 52.1273788,74.1482035 52.4503768,75.6234349 C53.2097328,79.0770292 53.542048,81.3628615 53.4861445,82.737156 C53.4193709,84.3738864 53.4193709,84.2403391 53.5234135,85.5820232 C53.6647252,87.4113102 53.5777642,90.2779177 53.3324099,91.7422789 C53.2050741,92.5016349 53.1227718,93.321553 53.1476178,93.5498256 C53.2407903,94.3588736 51.689468,100.890266 51.1195628,102.092192 C50.9906742,102.365498 50.7546372,102.916768 50.607114,103.291011 C50.4626966,103.665254 50.2654815,104.036391 50.1769676,104.100059 C50.0884537,104.16528 49.9440363,104.551946 49.8524167,104.960352 C49.6350142,105.943322 46.9873621,108.983852 46.7031859,108.576998 C46.6038019,108.435687 46.5121823,108.216731 46.5044179,108.109583 C46.4919949,107.887522 44.923591,106.823802 44.6300976,106.837778 C44.5353722,106.842437 44.3707674,106.73063 44.288465,106.6064 C44.2030569,106.474405 43.8490014,106.238368 43.5120275,106.086187 C42.050772,105.426215 41.8116292,105.297326 41.5942267,105.050419 C41.465338,104.907554 41.2230895,104.792642 41.055379,104.800406 C40.8907742,104.80817 40.3146575,104.634248 39.7695984,104.410634 C39.2276449,104.18702 38.7897342,104.059685 38.7928399,104.126458 C38.7959457,104.194785 38.7027731,104.157516 38.5707788,104.034839 C38.393751,103.874892 38.5148753,103.660596 39.0785689,103.132618 C39.7463052,102.506809 41.1889263,100.376265 41.1733975,100.039291 C41.1702918,99.9678586 41.316262,99.5641111 41.4979484,99.1339646 C41.6811877,98.7022654 41.8256051,98.2705661 41.8209464,98.1634177 C41.8162878,98.0531635 41.8830614,97.9677554 41.976234,97.9630968 C42.0694065,97.9584382 42.1858721,97.6509689 42.237117,97.2627501 C42.2914676,96.8791899 42.5166345,96.0748006 42.7418014,95.4583092 C42.9685212,94.8418177 43.1750536,94.2191148 43.2092168,94.0591687 C43.2418272,93.9023283 43.3893503,93.1414195 43.5368735,92.3820635 C43.6812909,91.6227076 43.8800589,90.8229769 43.9763371,90.6164445 C44.2185857,90.1008899 44.2977823,88.9859256 44.2900179,86.2870286 C44.2853593,85.0198824 44.3179697,83.7837938 44.3598973,83.5291223 C44.4515169,82.985616 43.866083,82.5011189 42.671922,82.1330875 C42.038349,81.9374253 41.8939316,81.9560598 41.3022861,82.3070096 C40.5615647,82.7480261 40.4683922,83.2697921 40.931149,84.4422129 C41.3317908,85.460899 41.3240264,88.8492725 40.918726,90.2080383 C40.5134256,91.5683569 40.1283125,93.358822 40.1484999,93.7889684 C40.1562643,93.9691019 39.9807894,94.54056 39.7571754,95.0452444 C39.5366671,95.5530346 39.2711254,96.219218 39.1732943,96.5142643 C39.0770161,96.8139692 38.9465745,97.0096314 38.8829067,96.9506222 C38.8207917,96.8947187 38.8487434,96.6027782 38.9450217,96.3232606 C39.0412999,96.0359787 39.2229863,94.9707064 39.3472163,93.9535732 C39.4745521,92.9379928 39.6469212,91.8975665 39.736988,91.6413421 C40.0320343,90.8012366 39.811526,89.7483873 39.2649139,89.3741443 C38.9791849,89.180035 38.6235765,88.8880944 38.4605246,88.7157253 C38.2974727,88.5402504 38.0878346,88.4113618 37.9806862,88.4175733 C37.8735378,88.4222319 37.4496029,88.284026 37.038091,88.1116569 C35.1280546,87.3072675 34.8174795,87.2451525 33.1993836,87.3367722 C32.3220092,87.388017 31.2256793,87.5324344 30.7551581,87.6613231 C30.284637,87.7902117 29.7939284,87.8585382 29.6603812,87.8150577 C29.3777579,87.7234381 27.1819924,88.2358869 26.4443767,88.5682021 C26.1757293,88.6893264 25.7222898,89.0185359 25.4676183,89.2763132 L24.9939914,89.7561516 L24.8464682,88.7079609 C24.762613,88.13495 24.7796946,87.0308557 24.8775257,86.2730527 C24.9800155,85.5152496 25.073188,84.4996693 25.085611,84.0322538 C25.1120099,83.1766196 25.1120099,83.1766196 24.1709675,82.7216272 C23.1010365,82.201414 22.2733541,82.2790578 21.7205305,82.9498999 C21.4099555,83.3288014 21.4115084,83.7170202 21.7438237,90.1474762 C22.2190035,99.4165879 22.7035005,102.036288 24.2610343,103.820542 C24.8899487,104.544182 24.9706982,104.826805 24.6973922,105.39671 C24.5871381,105.631194 24.3278079,105.763189 23.9426949,105.781823 C23.6134853,105.797352 23.1367527,105.938664 22.8541294,106.103268 C22.3587622,106.395209 21.1071449,106.856413 20.5620857,106.948032 C18.7219286,107.258607 18.2840178,107.451164 17.1783707,108.443451 C16.7575416,108.823906 16.4003803,109.092553 16.3755343,109.053731 C16.2109295,108.806824 15.7140095,107.505515 15.3133677,106.274085 C15.0555904,105.479012 14.7356981,104.65133 14.6052566,104.43548 C14.4748151,104.221184 14.3614552,103.91682 14.3552437,103.767744 C14.3459265,103.614009 14.1688987,103.151253 13.9468376,102.721106 C13.7309879,102.298724 13.4343888,101.561108 13.2930771,101.090587 C13.1502126,100.618513 12.9654205,100.2334 12.884671,100.236506 C12.5927304,100.250482 11.615972,96.2378525 11.5460926,94.7346694 C11.5243523,94.2719126 11.3519832,93.3386346 11.1656382,92.6677925 C10.9280483,91.816817 10.8752505,91.3198969 10.9855047,91.032615 C11.1470037,90.6273146 11.1035232,90.0915727 10.8162413,88.9113876 C10.7230688,88.5340389 10.732386,87.8507738 10.83177,87.2948445 C10.931154,86.7575497 11.0134564,85.9500546 11.0196679,85.4671105 C11.042961,83.8692019 11.4156511,81.0010416 11.7339905,79.9435336 C11.9125711,79.3596525 12.2402278,78.047473 12.4653947,77.0272341 C12.6905616,76.0069951 12.946786,75.0892459 13.0321941,74.9898619 C13.120708,74.8858192 13.1797172,74.6249362 13.1688471,74.3857934 C13.1533184,74.0534781 14.2356723,72.0052358 14.6891119,71.5067629 C14.7356981,71.4539652 14.9406776,71.0176072 15.1441043,70.5300044 C15.5742507,69.4957896 15.9469407,68.9755764 17.2575674,67.5686715 C18.5712997,66.1617667 18.7467746,65.9909504 18.9113794,65.9847389 C18.9921289,65.9800803 19.4145109,65.7129857 19.8570804,65.3822233 C20.7251376,64.7346744 21.4239314,64.615103 22.0419757,65.0095333 C22.4565934,65.2735221 23.9753053,65.5204292 25.74403,65.610496 L26.6819666,65.6586351 L26.8372541,66.4506014 C26.9708014,67.1167849 27.1664637,67.3792208 28.08266,68.1075192 C29.1292979,68.9414132 30.7629225,69.6371012 31.5843935,69.5998322 C31.7862672,69.5889621 32.6946992,69.5889621 33.6140013,69.5967265 C34.8438784,69.6075966 35.3904905,69.5392701 35.7150414,69.3327377 C35.9526313,69.1821088 36.3998593,68.905697 36.7042228,68.7240106 C37.4713432,68.2643596 38.7260663,66.0313251 38.5707788,65.399305 C38.455866,64.9334424 38.4729476,64.9225723 39.8192904,64.6616893 C40.5677762,64.515719 41.7883361,64.3681959 42.5150816,64.3340326 C43.630046,64.2812348 43.940621,64.1958267 44.4608342,63.7874206 C45.2248488,63.1926694 45.4841789,63.172482 46.1084347,63.6600848" id="Fill-5" fill="#FBE2E2"></path>
            <g id="Group-9" transform="translate(29.504628, 0.171871)">
                <mask id="mask-2" fill="white">
                    <use xlink:href="#path-1"></use>
                </mask>
                <g id="Clip-8"></g>
                <path d="M1.38438819,1.05704211 C0.843987642,1.32413664 0.381230849,1.62694729 0.353279096,1.72943705 C0.258553712,2.05864658 1.09555342,3.36306171 1.54744008,3.59288723 C1.83472199,3.73885749 2.78508158,3.76525637 4.61902712,3.67984824 C7.34898163,3.55251247 8.38785511,3.67518961 10.9904739,4.43609843 C12.1178612,4.76530796 12.3880615,4.88487935 14.2701462,5.88648382 C16.3851621,7.0123183 17.3137814,7.71577074 19.4163744,9.78420044 C20.7316596,11.0777454 22.2472658,13.8030413 23.028362,16.2829829 C23.2690576,17.0423389 23.6603822,18.1262457 23.8902077,18.6650934 C24.6650924,20.4866159 25.0238066,22.6715113 25.2893482,27.1764021 C25.5362554,31.406434 25.5098565,31.9561518 24.9290812,34.4096945 C24.8281443,34.8320766 24.5098049,35.2777517 24.0144377,35.6830521 C22.9677999,36.5386863 22.829594,37.3073595 23.6029258,37.9145337 C24.483406,38.6055632 24.8871535,38.6661253 26.1185835,38.2903295 C28.0922878,37.687814 28.4028629,37.6614151 28.8594082,38.0527396 C29.0907866,38.2484019 29.3656455,38.408348 29.4650295,38.4036894 C29.5628606,38.3990308 29.7103837,38.6304092 29.7833689,38.9037152 C29.8548011,39.1754683 29.9464208,39.4953606 29.9821369,39.5916389 C30.12966,40.0031508 29.6560331,41.3137774 29.0240129,42.2439496 C27.929236,43.855834 27.8671209,43.8977617 26.3157987,44.1027412 C25.1092147,44.2626873 24.8219328,44.3682828 24.4383726,44.789112 C23.9072893,45.3729931 23.9507698,45.7612118 24.595213,46.194464 C25.1744354,46.5842357 27.0425442,46.7395232 27.6000264,46.4444769 C28.0146441,46.2239686 28.624924,45.983273 29.8175321,45.5702082 C30.3548269,45.3823103 30.8222424,44.98788 31.5148247,44.1291401 C32.7679949,42.5840293 32.9667629,42.2066806 33.1795068,40.9674863 C33.3441116,40.0062565 33.314607,39.8137 32.7773122,38.3322571 C32.2602047,36.9051649 32.0862827,36.6365175 31.1638749,35.8181523 C30.5893111,35.3088092 30.0069829,34.9081674 29.8532483,34.9143789 C29.4324191,34.9345663 28.0721005,34.2435369 28.0643361,34.0074999 C28.0612303,33.8956928 28.2335995,33.1363369 28.4478963,32.3179717 C28.6606401,31.4996065 28.8221392,30.4964491 28.8035047,30.088043 C28.7848702,29.6858483 28.8780427,29.1780581 29.0084842,28.9761844 C29.1684303,28.7308301 29.1917234,28.5134276 29.0783636,28.3224239 C28.8702783,27.9699213 28.6202654,26.3968588 28.4556606,24.4216016 C28.3345364,22.9820863 28.0146441,21.3205099 27.5767333,19.8716774 C26.8298003,17.4088174 26.286294,15.7627698 26.1294537,15.4956752 C26.025411,15.3170946 25.9353443,15.0919277 25.9275799,14.9909908 C25.8778879,14.3496534 25.5579956,13.4924663 25.1620124,12.9318784 C24.9135524,12.5871401 24.5905544,11.9861774 24.4570071,11.6243575 C24.2132057,10.9566212 22.7597146,8.78880747 22.2146554,8.27635867 C22.0609208,8.13349416 21.8202251,7.79030875 21.6835721,7.52166135 C21.5438133,7.25301395 21.3574683,7.0309528 21.2751659,7.03561143 C21.1866521,7.04027005 20.8962644,6.81510316 20.6074296,6.51539825 C20.317042,6.21724623 19.9878325,5.9936322 19.8496266,5.9998437 C19.7207379,6.00605521 19.5980608,5.94083445 19.594955,5.86474357 C19.5856378,5.65510542 17.8433119,4.51063644 17.3215458,4.37243055 C17.0653214,4.30255117 16.5808244,4.02769227 16.2360861,3.75283337 C15.8944536,3.47952734 15.3897691,3.21709144 15.1071459,3.16274081 C14.8276283,3.10994306 14.1831852,2.81023815 13.6722892,2.4950045 C13.1613933,2.18132372 12.5293731,1.88472457 12.2638315,1.83503256 C12.0045013,1.78844631 11.6085182,1.65024042 11.4050915,1.53843341 C10.964075,1.29152626 9.50437234,0.98095123 8.43754711,0.906413223 C8.0322467,0.878461471 7.57414853,0.808582089 7.42041389,0.752678584 C7.08654573,0.633107197 6.60515444,0.60670832 4.19819796,0.586520943 C2.52575143,0.572545067 2.27418565,0.614472696 1.38438819,1.05704211" id="Fill-7" fill="#EC6D6C" mask="url(#mask-2)"></path>
            </g>
            <path d="M20.7726556,2.6460674 C20.505561,2.80135491 20.1530584,2.94111367 20.0164054,2.94732517 C19.8750937,2.95353668 19.6017877,3.13211732 19.410784,3.34330834 C19.2182275,3.55294648 18.93871,3.73152712 18.7942926,3.7392915 C18.6483224,3.745503 18.4868233,3.82780538 18.4355785,3.92097789 C18.3843336,4.0141504 17.968163,4.16167354 17.5131706,4.24863455 C17.0410966,4.33870131 16.6466663,4.5265992 16.5938685,4.68499246 C16.4944845,4.98935599 14.5813423,6.1384836 14.1403258,6.15867098 C13.6480644,6.18196411 12.6045323,6.82951304 12.5144655,7.17114557 C12.4647735,7.34817334 12.2613469,7.56557586 12.0812134,7.63234949 C11.8948683,7.700676 11.5392599,8.01590965 11.3047758,8.32027318 C11.0702916,8.62463671 10.80475,8.88551974 10.7255534,8.89017836 C10.4864106,8.89949561 9.05000107,10.4725581 8.57016265,11.2489957 C8.33723138,11.6263444 7.95832984,12.0425149 7.72073994,12.1853794 C7.07784963,12.5689396 5.42869623,14.9199926 4.54976889,16.705799 C4.11341098,17.5893849 3.69102894,18.4294904 3.60251505,18.5863308 C3.09161913,19.4932099 2.7499866,20.6997939 2.72824635,21.6749994 C2.71582334,22.2821736 2.55277145,23.1533366 2.36487356,23.6098819 C2.18474004,24.0602157 2.03876978,24.628568 2.04653416,24.8459705 C2.06672153,25.2481652 1.83223739,26.7125264 1.65210387,27.3072776 C1.60862336,27.4563536 1.59930611,27.6706504 1.63346937,27.7669286 C1.6691855,27.8678655 1.74217063,28.4781455 1.79807413,29.1365645 C1.85242476,29.7965365 2.02789965,31.0543653 2.18629292,31.9643502 C2.34623906,32.8758879 2.51084382,33.8479877 2.5558772,34.1523512 C2.59935771,34.4567148 2.7996786,35.2595512 3.00776387,35.9676623 C3.21119052,36.6742205 3.42859304,37.4351293 3.49070804,37.688248 C3.60251505,38.1463461 4.15378573,39.292368 4.73766679,40.2939725 C5.17713045,41.0440112 6.16941767,41.9710776 6.51570883,41.9542286 C6.99399437,41.9322557 7.59185131,41.3530333 7.57166393,40.9322041 C7.56234668,40.7194602 7.37444878,40.0967573 7.15083476,39.5377223 C6.70826535,38.4398395 6.10264404,35.5281986 5.84486677,33.2827412 C5.75324713,32.4969863 5.61969987,31.7702408 5.54516186,31.6615395 C5.34018234,31.3618346 5.24390408,27.0479475 5.4240376,26.15815 C5.50944573,25.7326622 5.63522862,25.0866661 5.70355513,24.7310577 C6.31849368,21.4886544 8.09498285,17.0831476 9.49101761,15.3190815 C10.8078557,13.6590579 13.0439959,11.1853278 13.6045839,10.7753688 C13.8965244,10.5595191 14.6139527,9.99271972 15.1978338,9.51598705 C15.7817148,9.03925438 16.3174568,8.64327121 16.3873361,8.63395396 C16.4587684,8.62618959 16.8594102,8.36064794 17.2864508,8.04230853 C17.7134915,7.72396913 18.2942668,7.39631247 18.5846545,7.31090434 C18.8781479,7.2254962 19.5458842,6.87454642 20.0971549,6.51583226 C20.6779302,6.1384836 21.687299,5.71454869 22.5398275,5.48938179 C24.299235,5.02507212 25.6409191,4.29987943 25.8847205,3.68338799 C26.040008,3.29206346 25.9949747,3.14919894 25.5989915,2.79824916 C25.1797152,2.42245338 24.9281494,2.37742 23.1997994,2.36810275 C21.712145,2.35878549 21.1593215,2.42245338 20.7726556,2.6460674" id="Fill-10" fill="#EC6D6C"></path>
            <path d="M39.3177117,12.3499842 C38.8813538,12.8608801 38.8735894,12.9587112 39.2431737,13.5829671 C39.4698935,13.9649743 39.5040567,14.2600206 39.389144,14.8159499 C39.3068416,15.2243561 39.2385151,16.2834169 39.2354093,17.202719 C39.2307507,18.1204682 39.1732943,19.2245625 39.1018621,19.6873193 C39.0319827,20.1469703 38.9543389,20.9793114 38.9248343,21.5507694 C38.8673779,22.675051 38.2912612,25.2699054 37.8362688,26.4485376 C37.2508349,27.9625909 36.6855883,29.1645163 36.5520411,29.1707278 C36.4712916,29.1738335 36.4091766,29.2701118 36.4138352,29.378813 C36.4324697,29.7313157 35.5659653,31.8245914 34.9323923,32.973719 C34.6078414,33.5607058 34.0301718,34.6135552 33.6590347,35.2921616 C33.2910033,35.970768 32.7568142,36.829508 32.4881668,37.1835635 C31.7971374,38.0842311 31.9803766,38.6634536 32.9975099,38.7907893 C34.4649769,38.9740286 35.8284012,37.5050087 37.8021056,33.6119507 C39.2323036,30.7903766 39.736988,29.7313157 39.7292236,29.5558408 C39.724565,29.4564568 40.0149526,28.7157354 40.3736668,27.9284277 C41.4047759,25.6441483 42.1656847,21.6190959 42.2945734,17.7943645 C42.3380539,16.469762 42.423462,14.8687477 42.4840241,14.2041171 C42.5865139,13.061201 42.5694323,12.9835572 42.0740651,12.5254591 C41.6951636,12.1729564 41.3069448,12.0269862 40.6267855,11.9772942 C39.8146318,11.9182849 39.6469212,11.966424 39.3177117,12.3499842" id="Fill-12" fill="#EC6D6C"></path>
            <path d="M30.8860655,17.149766 C30.2695741,17.4308364 30.1748487,17.6606619 30.2276465,18.778732 C30.2633626,19.4946075 30.1142866,20.1157575 29.6375539,21.2757552 C29.2928156,22.1189664 28.7586266,23.4994725 28.4651332,24.3147319 C28.1700869,25.1362029 27.8237957,26.1020912 27.6933542,26.4623582 C27.1032617,28.1053001 25.569021,31.0557629 24.9556353,31.7312636 C24.9059433,31.7840614 24.6077913,32.2437124 24.2785818,32.7732428 C23.9478194,33.3027733 23.5875523,33.8447267 23.4555579,34.0046728 C22.64651,34.99696 21.1681729,37.1632209 21.1759068,37.3418015 C21.1821487,37.4675844 21.3001672,37.646165 21.4539019,37.7579721 C21.7303137,37.9598458 22.6232169,37.6352949 24.089131,36.8029538 C24.6435074,36.4877202 27.2461262,33.7096265 27.2368089,33.442532 C27.2337032,33.3819699 27.4262597,33.0853707 27.6669553,32.7794543 C27.9060981,32.4750908 28.0971018,32.16141 28.0924431,32.0806605 C28.0893374,32.0014639 28.3595377,31.5356013 28.6856414,31.0619744 C29.2834984,30.1954701 30.8472436,26.7558516 31.6966663,24.4389619 C31.9451264,23.766567 32.3053934,22.808443 32.5057143,22.2897827 C33.2029552,20.494659 33.5647751,18.8687988 33.4063819,18.2259085 C33.293022,17.7631517 33.0895954,17.5441963 32.5072672,17.261573 C31.6826905,16.8593783 31.5475903,16.8500611 30.8860655,17.149766" id="Fill-14" fill="#EC6D6C"></path>
            <path d="M44.2735574,19.0240863 C43.9086318,19.4557856 43.9024203,19.538088 44.1695148,20.4247797 C44.3232495,20.9387813 44.5841325,22.2416436 44.7456315,23.2991516 C45.3170895,27.074191 46.6106345,30.0790045 48.3063742,31.577529 C49.1495854,32.322909 49.8576965,32.5185713 50.5751248,32.2048905 C51.0068241,32.0154398 51.0596218,31.91295 50.9369447,31.4843565 C50.8593009,31.2141562 50.6900376,30.9082398 50.5658075,30.8135144 C50.4400247,30.718789 49.9695035,30.1255907 49.5129582,29.4858061 C48.3793593,27.8972149 47.4957734,24.8597911 47.0997902,21.1887942 C46.9227624,19.5427466 46.8963636,19.4759729 46.3295641,19.0908599 C45.4382138,18.4898972 44.7425257,18.468157 44.2735574,19.0240863" id="Fill-16" fill="#EC6D6C"></path>
            <path d="M22.3862481,19.9468047 C21.9793948,20.3241534 21.5989404,21.0524518 21.3737735,21.8894515 C21.2604136,22.3040692 20.7867867,23.3864231 20.3038425,24.3274655 C19.8240041,25.2669549 19.1174459,26.7282105 18.7121455,27.6149022 C17.7245169,29.7904802 17.350274,30.4364763 15.9278404,32.4272622 C14.5286999,34.3838849 14.3827296,34.5811001 13.5954219,35.5283539 C12.1590124,37.2660212 10.9710629,39.0440632 10.9896974,39.432282 C11.0254135,40.154369 11.4338197,40.2817047 12.2211274,39.8189479 C14.253841,38.6216812 15.5023526,37.4228616 17.6158157,34.6432151 C18.2944221,33.748759 18.9311009,32.939711 19.0398022,32.8325627 C19.1453977,32.7254143 19.4544198,32.2626575 19.7339374,31.7905834 C20.0134549,31.3185094 20.3411115,30.8215893 20.4731059,30.6725133 C20.6066532,30.5203316 20.7728108,30.2361554 20.8644305,30.0109885 C20.9482857,29.7951389 21.280601,29.1103209 21.5989404,28.4891709 C21.9188327,27.8695737 22.4033297,26.8679692 22.67353,26.2639008 C22.9390717,25.664491 23.2356708,25.0681869 23.3257376,24.9486155 C23.4173572,24.8274913 23.7947059,24.072794 24.1705017,23.2652989 C24.9298576,21.6316742 25.0059485,20.726348 24.4329376,20.1688658 C23.9841566,19.7294022 22.7620439,19.5974078 22.3862481,19.9468047" id="Fill-18" fill="#EC6D6C"></path>
            <path d="M41.7728073,40.3427327 C41.0103456,40.5197605 40.7385925,40.6983411 40.2401195,41.3583131 C38.7151961,43.3661806 39.799103,45.2544768 42.5181874,45.3305677 C43.4204078,45.3569666 43.4840757,45.3259091 44.1316247,44.555683 C45.3816892,43.0649229 45.370819,41.6487007 44.1052258,40.7387159 C43.2635675,40.1362003 42.9157234,40.0771911 41.7728073,40.3427327" id="Fill-20" fill="#EC6D6C"></path>
            <path d="M20.8044895,41.9668849 C20.1771279,42.0926677 19.11962,43.2604298 18.9441451,44.0197858 C18.7438242,44.8925016 19.0404233,46.0431821 19.6196458,46.6332747 C20.3432856,47.3693375 21.6306191,47.4780387 22.7052087,46.8910519 C23.3325702,46.5494194 23.5499728,46.2854306 23.8776294,45.4608539 C24.3310689,44.3210436 24.2254734,43.1501757 23.671097,43.1765746 C23.4304014,43.1874447 23.4241899,43.1563872 23.6245108,43.0135227 C23.8372547,42.8628938 23.8186202,42.7836972 23.5064922,42.4855451 C22.7750881,41.7898571 22.2238174,41.6827087 20.8044895,41.9668849" id="Fill-22" fill="#EC6D6C"></path>
            <path d="M3.73047197,43.2354286 C2.66675249,43.6702336 1.84217579,44.0895099 1.84683441,44.1919996 C1.84994016,44.2432445 1.65738364,44.5320793 1.41979375,44.8364428 C0.955484078,45.4280883 0.509808911,47.0089152 0.550183665,47.906477 C0.590558418,48.7326066 1.78161366,50.804142 2.60774323,51.4843013 C3.63264083,52.3228539 4.50225091,52.6970968 5.99922255,52.9377925 C8.03504187,53.2654491 9.13758323,53.2840836 9.85967017,53.0030132 C10.4000707,52.7918222 10.5041134,52.6644864 10.4870317,52.2374458 C10.4544214,51.588344 10.0957072,51.3290138 8.43257791,50.7653201 C7.68719784,50.5122015 7.0272259,50.2388955 6.97287527,50.1596988 C6.92163039,50.0851608 6.7088865,50.0261516 6.5272001,50.033916 C6.33619646,50.0432332 5.78182003,49.6736489 5.30508736,49.2186565 C4.53175554,48.4841466 4.42460716,48.2900372 4.39199678,47.5446571 C4.34541052,46.5911918 4.77866269,45.9948877 5.68554177,45.7526392 C6.66540599,45.4917561 7.39215156,44.983966 7.37506993,44.5771127 C7.34401243,43.9435396 6.39675859,43.2726976 5.30508736,43.11741 C4.74915806,43.0397663 4.29727139,42.9838628 4.28795414,42.9947329 C4.28018977,43.0071559 4.03638837,43.1096457 3.73047197,43.2354286" id="Fill-24" fill="#EC6D6C"></path>
            <path d="M32.9802729,49.4871486 C32.568761,49.5834269 32.5128575,49.7418201 32.3901804,51.1440664 C32.3140895,51.9872776 32.5004345,52.2248675 33.4104194,52.44227 C33.8390129,52.5447598 34.0936844,52.491962 34.5020906,52.2155502 C35.0797601,51.8273315 35.242812,51.4329012 35.1170291,50.7232372 C35.0719958,50.4670128 35.0269624,50.2201057 35.0176451,50.1579907 C34.9881405,49.9856215 34.1946213,49.5414992 33.7691335,49.4591969 C33.5594954,49.420375 33.2147571,49.4312451 32.9802729,49.4871486" id="Fill-26" fill="#EC6D6C"></path>
            <g id="Group-30" transform="translate(0.000000, 49.107347)" fill="#EC6D6C">
                <path d="M31.2348413,61.8646505 C31.4833013,62.0603128 32.059418,62.419027 32.4926701,62.6472996 C32.9259223,62.8755723 33.2986123,63.1783829 33.3048238,63.3072716 C33.3343285,63.948609 32.1401675,65.7980833 31.8140637,65.614844 C31.6991509,65.5511761 31.5345462,65.2359425 31.4506909,64.9082858 C31.3637299,64.5821821 31.2286298,64.2405495 31.1463274,64.1427184 C31.0671308,64.0433344 30.8745742,63.5681546 30.7130752,63.0619173 C30.5500233,62.5541271 30.3341737,62.1006876 30.2239196,62.0277024 C30.0903723,61.9422943 30.1121125,61.8351459 30.2922461,61.7078102 C30.6556188,61.4469271 30.7192867,61.4577973 31.2348413,61.8646505 M52.7048931,57.9964386 C52.7111046,58.1330916 52.8663921,58.2992492 53.0341026,58.3504941 C53.5123881,58.4980172 54.1102451,59.2542674 55.1289312,60.9872761 C55.6211926,61.8273815 56.2578714,62.7264963 56.5560234,62.9966965 C56.8433053,63.2575796 57.183385,63.6178466 57.2874276,63.7700283 C57.3976818,63.9284216 57.7268913,64.383414 58.0250433,64.7918202 C58.3247482,65.2002264 58.5701025,65.6350314 58.5732082,65.7670258 C58.5794197,65.8974673 58.8434085,66.2779217 59.1555364,66.6117899 C59.4707701,66.945658 59.7363117,67.3587228 59.7502876,67.5295391 C59.7627106,67.6941438 59.8636475,67.8882532 59.9630315,67.9426039 C60.0608626,67.9969545 60.1571409,68.1724294 60.1633524,68.3183997 C60.1711168,68.4705814 60.4397642,69.0684384 60.7674208,69.6585309 C61.3233501,70.6601354 61.3637249,70.8526919 61.4537916,72.8869583 C61.6121849,76.5144747 60.7565507,78.612409 58.0623123,81.1855231 C57.8899432,81.3516808 57.3868116,81.9076101 56.9457951,82.4247175 C56.5032257,82.940272 56.0249401,83.4620381 55.8805227,83.5847152 C53.1583326,85.8674417 52.9642232,86.0646568 51.9377727,87.5787101 C51.3647618,88.4219213 51.2669307,88.712309 51.1815225,89.8365906 C51.1427007,90.341275 51.6784426,91.6487959 52.3384145,92.6643762 C53.0092566,93.6985911 53.0325497,93.9750028 52.4781733,94.5433551 C52.0852959,94.9471027 51.909821,94.9905832 50.790198,94.9657372 C49.5199461,94.9377854 48.7093453,94.7902623 47.6409672,94.3880676 C46.1471013,93.8274797 45.7480124,93.6520048 45.6486284,93.5091403 C45.5865134,93.4190735 45.2774912,93.3057136 44.9451759,93.2482573 C44.0025807,93.0883111 43.4326756,92.7730775 42.1732938,91.7124637 C41.0847283,90.7962674 41.0055317,90.6798018 40.9713684,89.9266573 C40.9449696,89.3769395 41.0365892,89.0042495 41.2648619,88.7557895 C41.4387839,88.5632329 41.6670565,88.2573165 41.7447003,88.1082405 C42.0133477,87.5864745 43.0925959,86.2075213 43.775861,85.5071747 C44.1423395,85.1329317 44.8551092,84.1251158 45.3613465,83.2756931 C45.8660309,82.4262704 46.4157487,81.6420684 46.5850121,81.5380258 C46.8257078,81.3889498 46.8878228,81.0022839 46.884717,79.6435181 C46.8816113,77.6232275 46.5446373,76.0082374 45.9840494,75.2954677 C45.7495653,75.0004214 45.5228455,74.3451081 45.4188029,73.6696074 C45.3116545,72.9770251 45.1532612,72.5080568 45.0041852,72.4583648 C44.6190722,72.3279233 44.6594469,71.7238549 45.069406,71.4769477 C45.2666211,71.3604821 45.4234615,71.1896658 45.4188029,71.0980462 C45.4141442,71.0064265 45.6377583,70.5017421 45.9250402,69.9551301 C46.2138749,69.408518 46.5322143,68.6382919 46.64868,68.2128041 C47.4064831,65.4424749 47.7170581,64.0743919 47.6968707,63.6116351 C47.6766833,63.1830415 47.8319708,62.9594275 48.4857313,62.4625075 C48.9314065,62.1270864 49.3910575,61.7078102 49.5013116,61.5432054 C49.6100129,61.3754949 50.1395433,60.7326046 50.690814,60.1021373 C51.2420847,59.4701171 51.7840381,58.6967852 51.9113739,58.36447 C52.1489638,57.7479785 52.6815999,57.4995185 52.7048931,57.9964386 M11.8285606,57.0181272 C12.0242228,57.3846057 12.4481578,58.0538949 12.7835788,58.5150989 C14.6547933,61.1099532 14.6547933,61.1099532 14.2463872,61.4034466 C13.9761869,61.597556 13.9047546,61.833593 13.9528938,62.381758 C13.9855041,62.7777411 14.0305375,63.5728132 14.0522778,64.1396126 C14.074018,64.7048592 14.2852091,65.6723004 14.5165874,66.2670516 C14.7510716,66.8618028 14.9529454,67.5077988 14.9607097,67.6879323 C14.9669212,67.866513 15.293025,68.5451194 15.6734794,69.1693752 C16.0508281,69.7951839 16.375379,70.4551559 16.3831434,70.615102 C16.4017779,71.0141909 17.1378407,71.9008826 18.5571686,73.2316966 C19.4531775,74.0702492 19.6503927,74.3435552 19.4329902,74.4398335 C19.2326693,74.5283474 19.1907416,74.7084809 19.2808084,75.0889353 C19.3553464,75.3979574 19.3180774,75.7380371 19.1907416,75.9104062 C19.0385599,76.1200444 19.0307955,76.2566974 19.1674485,76.3793745 C19.2885728,76.4911816 19.3196303,76.8498957 19.2497509,77.3670031 C19.1907416,77.8111254 19.1829773,78.4291697 19.2326693,78.7273218 C19.3879568,79.6373066 20.1799231,81.360998 20.6954777,81.9091629 C20.9594664,82.1902333 21.3601082,82.617274 21.5899337,82.8595225 C21.8213121,83.1033239 22.2157424,83.6561475 22.482837,84.1033755 C22.7483786,84.5490507 23.153679,85.142249 23.3959275,85.4372953 C24.6972369,87.0305452 25.4783331,89.5586259 25.0357637,90.7419168 C24.8028324,91.3584082 23.7173727,92.3087678 23.215794,92.3320609 C23.017026,92.3413782 22.4735197,92.605367 22.0309503,92.9112834 C21.5821694,93.2171998 20.4361475,93.7824463 19.4982109,94.1582421 C18.5618272,94.5340379 17.6844527,94.9284682 17.5664342,95.0278522 C17.4468628,95.1272362 17.2310132,95.1769282 17.1005717,95.1318948 C16.9732359,95.0899672 16.6999299,95.1800339 16.5213493,95.3197927 C16.0803327,95.6738482 15.1734536,95.7111172 14.7075911,95.3958836 C14.4839771,95.2437018 14.272786,94.7871565 14.148556,94.1861938 C13.9777398,93.3693815 13.9979271,93.0960755 14.3022907,92.3802001 C14.4995058,91.9127846 14.8007636,91.3599611 14.9808971,91.1363471 C15.5678839,90.4111544 15.6299989,89.6704329 15.156372,89.0539415 C14.9265465,88.7511308 14.6703221,88.5073294 14.5895726,88.5104352 C14.3659586,88.5213053 14.0507249,88.2045188 13.2525471,87.1765154 C12.855011,86.6625138 12.3643025,86.0770798 12.1422413,85.8519129 C10.7974515,84.4822771 8.98524617,82.4635394 8.28024086,81.5504488 C7.82835419,80.9665677 7.08918562,80.0084438 6.63885183,79.4245627 C5.00678005,77.3110996 4.57973938,76.435278 3.76447993,73.5345073 C3.4166359,72.3015244 3.44458765,70.7300148 3.82970069,69.6383435 C3.90113294,69.4318111 4.08592509,68.7904737 4.24276548,68.1957225 C4.39805299,67.6009713 4.62943139,67.032619 4.76142578,66.9146005 C4.89807879,66.7919234 4.99435705,66.5916025 4.98659267,66.4440794 C4.96795817,66.0418847 5.58289673,64.5992637 5.89813038,64.3119818 C6.22733991,64.010724 6.99911886,62.3118786 6.98048436,61.9267656 C6.97271998,61.7668194 7.27087201,61.3180385 7.64200917,60.9406898 C8.01469921,60.5571297 8.48832613,59.9002635 8.7026229,59.4685642 C8.91536679,59.035312 9.2833982,58.5725552 9.52564673,58.4296907 C9.758578,58.2914848 10.044307,57.9933328 10.1390324,57.7945648 C10.4868764,57.0445261 11.16393,56.1733631 11.325429,56.2680885 C11.4061785,56.3146748 11.6391098,56.6594131 11.8285606,57.0181272 M37.2693141,44.3497718 C37.6249225,44.5858088 37.6218168,44.9647103 37.2475738,47.9198317 C37.171483,48.5114772 37.1870117,48.5285588 37.8097146,48.4990542 C38.1591116,48.4835254 38.4976383,48.3624011 38.5504361,48.2350654 C38.6047867,48.1092825 38.6172097,48.3328965 38.5783878,48.7211153 C38.4572636,49.9385694 36.4757949,53.8626849 35.8499862,54.1173564 C35.6481124,54.1996588 35.5254353,54.5195511 35.4897192,55.0521873 C35.4493444,55.6609143 35.367042,55.8472594 35.155851,55.802226 C35.0005635,55.7680627 34.6387436,55.7463225 34.3297214,55.7494282 C34.023805,55.7540868 33.2768721,55.4730164 32.6572749,55.1205138 C32.034572,54.7680111 31.3823644,54.4915993 31.1944665,54.4993637 C31.014333,54.508681 30.6851235,54.4372487 30.4972256,54.3487348 C30.2472127,54.2307163 29.8170663,54.2819612 29.0375229,54.5195511 C27.9334287,54.856525 27.5824789,54.831679 27.5638444,54.4124027 C27.5576329,54.2804083 27.3184902,53.7803825 27.0281025,53.2989912 C26.0296038,51.6374148 25.4472756,49.2180353 25.8681048,48.4866312 C26.0109693,48.2381711 26.2050787,47.5424831 26.2982512,46.9508376 L26.4690675,45.8684837 L27.30762,45.9399159 C27.7688239,45.9802907 28.2486624,46.0889919 28.3744453,46.1837173 C28.5079925,46.2846542 28.6399869,46.3141588 28.688126,46.2520438 C28.737818,46.1945874 29.3496508,46.2147748 30.0515504,46.2986301 C31.4910657,46.4709992 31.3854702,46.4756578 32.6898853,46.1744001 C34.4881147,45.7566766 36.1279509,45.0547771 36.4167856,44.5795973 C36.722702,44.0702542 36.8081102,44.0469611 37.2693141,44.3497718 M32.717837,40.8759901 C32.8203268,40.9318936 33.2846365,41.0204074 33.725653,41.0685466 C34.1713282,41.1182386 34.683777,41.2238341 34.8406174,41.3014779 C35.0052221,41.3822274 35.3437489,41.4785056 35.6217136,41.5219861 C36.0068266,41.5825483 36.1450325,41.7456001 36.2661568,42.2720248 C36.461819,43.1323176 36.2987671,43.2239373 34.4291055,43.2922638 C33.4942746,43.326427 32.8280912,43.4320226 32.705414,43.5671227 C32.5920542,43.6929056 32.2675033,43.800054 31.9553753,43.8140298 C31.4677725,43.837323 30.8854444,43.7519148 28.551473,43.3186627 C28.3169889,43.2751822 28.0312598,43.0236164 27.9147942,42.7534161 C27.6259594,42.0903384 28.1803359,41.6027356 29.2797715,41.5514907 C29.7176823,41.5313034 30.0826079,41.4474481 30.0779493,41.3666986 C30.0624205,41.0266189 32.245763,40.6197657 32.717837,40.8759901 M35.0424911,17.0548853 C34.584393,17.4632915 32.9134993,17.9431299 32.5967128,17.7598906 C32.469377,17.6853526 32.0935812,17.6232376 31.7457372,17.6170261 C30.9910399,17.6046031 30.6199027,17.4959019 30.6090262,17.2862637 C30.6028211,17.1325291 35.1465338,16.5098261 35.3515133,16.6371619 C35.4074168,16.6697723 35.2723167,16.8514587 35.0424911,17.0548853 M46.1098323,14.5532034 C46.872294,15.1479546 48.240377,16.9430783 48.6441245,17.879462 C48.8413397,18.3360073 49.5510036,19.7289363 50.2249514,20.9821066 C51.3026468,22.9884212 52.1287764,25.0413222 52.4517744,26.5165536 C53.2080246,29.9701479 53.5434456,32.2559801 53.4875421,33.6302746 C53.4207685,35.267005 53.4192156,35.1334578 53.5248111,36.473589 C53.6661228,38.3044288 53.5776089,41.1694835 53.3307017,42.6353976 C53.203366,43.3932007 53.1226165,44.2131188 53.1490153,44.4429443 C53.2390821,45.2504393 51.6877598,51.7833851 51.1194075,52.9837576 C50.988966,53.2586165 50.7544819,53.8098872 50.6085116,54.1841301 C50.4625413,54.5568201 50.2637733,54.9295101 50.1783652,54.993178 C50.0898513,55.0583988 49.943881,55.4450647 49.8538143,55.8534709 C49.6348589,56.8364408 46.9887596,59.8769704 46.7045835,59.4701171 C46.6036466,59.3288054 46.512027,59.10985 46.5058155,59.0027016 C46.4933925,58.7806405 44.9218828,57.716921 44.6314952,57.7308969 C44.533664,57.7355555 44.372165,57.6237485 44.2898626,57.4979656 C44.2044545,57.3675241 43.850399,57.1314871 43.5134251,56.9793053 C42.0490638,56.3193334 41.8130268,56.1904448 41.5925185,55.9435376 C41.4651827,55.7991202 41.2213813,55.6857603 41.0567766,55.6935247 C40.8890661,55.7012891 40.3145023,55.5258142 39.770996,55.303753 C39.2259368,55.080139 38.7911317,54.9528033 38.7942375,55.018024 C38.7973432,55.0879034 38.7041707,55.0506344 38.5690706,54.9279573 C38.3920428,54.7680111 38.5131671,54.5537144 39.0784136,54.0257368 C39.7445971,53.3983752 41.1903238,51.2678305 41.1732422,50.9308566 C41.1685836,50.8609773 41.3161067,50.4572297 41.4977931,50.0255304 C41.6825853,49.595384 41.8270027,49.1621318 41.8192383,49.0565363 C41.8145797,48.9462822 41.8813533,48.8608741 41.9776315,48.8562154 C42.0708041,48.8515568 42.1841639,48.5440875 42.2385146,48.1558687 C42.2928652,47.7707557 42.5164792,46.9679193 42.743199,46.3514278 C42.9683659,45.7333835 43.1748983,45.1106806 43.2090615,44.9507344 C43.240119,44.7938941 43.3907479,44.0345381 43.5351653,43.2751822 C43.6811356,42.5158262 43.8814565,41.7145426 43.9777347,41.5095631 C44.2168775,40.9940086 44.2991799,39.8790442 44.2914155,37.1801472 C44.2867569,35.9130011 44.3178144,34.6769125 44.359742,34.422241 C44.4498088,33.8787346 43.8643748,33.3942376 42.6733196,33.0262062 C42.0397465,32.8305439 41.8953292,32.8491784 41.3021309,33.2001282 C40.5598565,33.6411448 40.4697898,34.1629108 40.9309937,35.3353315 C41.3316355,36.3540176 41.325424,39.7408383 40.9201236,41.101157 C40.5148232,42.4599227 40.1297101,44.2503878 40.1483446,44.682087 C40.1576619,44.8606677 39.9790812,45.4321257 39.7570201,45.938363 C39.5349589,46.4446003 39.2709702,47.1123366 39.1746919,47.4073829 C39.0768608,47.705535 38.9448664,47.9011972 38.8827514,47.8437408 C38.8206364,47.7878373 38.850141,47.4958968 38.9448664,47.2163793 C39.0411446,46.9290974 39.2243839,45.8622722 39.3486139,44.8466918 C39.4728439,43.8311115 39.6483188,42.7906851 39.7383856,42.5329078 C40.0334319,41.6928024 39.8098178,40.6415059 39.2632058,40.2657101 C38.9790296,40.0716007 38.6234212,39.7796602 38.4619222,39.6088439 C38.2957646,39.433369 38.0892322,39.3044804 37.978978,39.3106919 C37.8718297,39.3153505 37.4494476,39.1771446 37.0379357,39.0032226 C35.1278993,38.1988333 34.8173242,38.1367183 33.2007812,38.2298908 C32.3218539,38.2795828 31.225524,38.4255531 30.75345,38.5544417 C30.2844817,38.6817775 29.795326,38.7516569 29.658673,38.7066235 C29.3760497,38.6150038 27.18339,39.1290055 26.4457743,39.4597679 C26.175574,39.5808922 25.7221345,39.9101017 25.4690159,40.167879 L24.9938361,40.6492703 L24.84476,39.6010796 C24.7640105,39.0265158 24.7779864,37.9239744 24.8789233,37.1661713 C24.9798602,36.4083683 25.0730327,35.3927879 25.0870086,34.9253725 C25.1118546,34.0697383 25.1118546,34.0697383 24.1723651,33.6147459 C23.1008813,33.0945327 22.2731988,33.1706236 21.7219281,33.8430185 C21.4098002,34.2219201 21.4098002,34.6101388 21.7421155,41.039042 C22.2204011,50.3097066 22.7033452,52.9294069 24.2593261,54.7136605 C24.8913463,55.4357474 24.9705429,55.7199236 24.6987898,56.2898288 C24.5869828,56.5243129 24.3260997,56.6563073 23.9425396,56.6733889 C23.6117772,56.6889177 23.1365974,56.8302293 22.855527,56.996387 C22.3601598,57.2883275 21.1085424,57.7495314 20.5619304,57.841151 C18.7202205,58.1501732 18.2854154,58.3442826 17.1797683,59.3365698 C16.7573863,59.7170242 16.400225,59.9856716 16.3738261,59.9468497 C16.2107742,59.6999426 15.7138542,58.3986332 15.3147653,57.1672032 C15.056988,56.3721311 14.7370957,55.5444487 14.6066542,55.3285991 C14.4762127,55.1127494 14.3612999,54.8099388 14.3535356,54.6593099 C14.3473241,54.5071281 14.1671905,54.0443713 13.9482351,53.6142249 C13.7323855,53.1918428 13.4357863,52.4526743 13.2929218,51.9821531 C13.1500573,51.5116319 12.9652652,51.124966 12.8860685,51.1296247 C12.594128,51.1436005 11.6158167,47.1294183 11.5459373,45.627788 C11.5257499,45.1650312 11.3533808,44.2317533 11.1654829,43.5609112 C10.927893,42.7099356 10.8735424,42.2130156 10.9869022,41.9257337 C11.1452955,41.5204332 11.1049207,40.9846913 10.8176388,39.8029533 C10.7244663,39.4271575 10.7306778,38.7423396 10.8331676,38.1864103 C10.9309987,37.6506684 11.014854,36.8416204 11.0195126,36.3602291 C11.0443586,34.7607677 11.4154958,31.8926073 11.7338352,30.8366522 C11.9124158,30.2527712 12.2416254,28.9390388 12.4667923,27.9203527 C12.6919591,26.8985609 12.9466307,25.9823645 13.0304859,25.8829805 C13.1205527,25.7789379 13.1811148,25.5180549 13.1702447,25.2789121 C13.1516102,24.9465968 14.2339642,22.8968016 14.6889566,22.3983287 C14.7355428,22.3455309 14.9389695,21.9107259 15.143949,21.4231231 C15.5756483,20.3889082 15.9467855,19.8686951 17.258965,18.4617902 C18.5711445,17.0548853 18.7481722,16.884069 18.9096712,16.8763047 C18.9935265,16.8731989 19.4128028,16.6045515 19.8569251,16.275342 C20.7249823,15.627793 21.425329,15.5082217 22.0433733,15.9026519 C22.4548852,16.1650878 23.9767028,16.411995 25.7438748,16.5036146 L26.6802585,16.5517538 L26.8386517,17.3437201 C26.9706461,18.0099035 27.1663084,18.2707865 28.0825047,18.999085 C29.1306955,19.8345318 30.7627672,20.5302199 31.5857911,20.491398 C31.786112,20.4820808 32.6945439,20.4820808 33.613846,20.4882923 C34.845276,20.4991624 35.3903352,20.4308359 35.7133332,20.2258564 C35.9540288,20.0736746 36.4012569,19.7988157 36.7025147,19.6171293 C37.4727407,19.1574783 38.7274639,16.9244438 38.5721763,16.2924236 C38.4557107,15.8265611 38.4743452,15.8156909 39.820688,15.5548079 C40.566068,15.4088377 41.7881808,15.2613145 42.5133735,15.2271513 C43.6298907,15.1743535 43.9404657,15.0873925 44.4622318,14.6805392 C45.2246935,14.0842352 45.4824707,14.0640478 46.1098323,14.5532034 M54.2018647,0.221718717 C54.1071393,0.485707492 53.9937794,0.516764995 53.6024549,0.387876358 C53.1924959,0.251223345 53.0496313,0.30091535 52.6722827,0.715533014 C52.3927652,1.02144942 52.2731938,1.31183707 52.3539433,1.49197059 C52.5418412,1.92366988 51.5604241,5.40366308 50.9734373,6.38508017 C50.3398642,7.44414102 49.2947792,8.66780664 49.012156,8.68022964 C48.8863731,8.68644114 48.7559316,8.80290678 48.7062396,8.95198279 C48.5897739,9.3075912 47.6720247,9.86507338 45.8194447,10.703626 C45.3147602,10.9318986 44.6035434,11.2797426 44.2044545,11.4940394 C43.800707,11.7083362 43.1019131,11.8946812 42.6080989,11.9164214 C42.1313662,11.9397146 41.5847541,12.0437572 41.4154907,12.146247 C41.2431216,12.2502896 40.49153,12.4133415 39.7430442,12.5096198 C38.9945584,12.6043451 38.0985494,12.7705028 37.7491525,12.8776512 C37.3935441,12.9863524 36.7863699,13.0841836 36.3639879,13.0981594 C35.9431587,13.1121353 35.4244984,13.2363653 35.1838028,13.377677 C34.5315952,13.7643429 29.2254208,13.973981 27.6865216,13.6742761 C27.0203381,13.5438346 26.1553867,13.4755081 25.7516391,13.5189886 C25.3494445,13.564022 24.9332739,13.5453875 24.8307842,13.4801667 C24.7251887,13.4118402 24.4021906,13.3264321 24.0854041,13.2829516 C22.979757,13.1323227 20.77778,12.5639704 20.4827338,12.3527794 C19.970285,11.9878537 19.3537935,11.7145477 19.0758289,11.7269707 C18.9298586,11.7347351 18.5711445,11.5530487 18.2481464,11.3061415 C17.9251484,11.0623401 17.5741986,10.8791008 17.4390985,10.8837595 C17.1859798,10.8930767 14.9513925,9.2578992 14.8240567,8.96906442 C14.7852348,8.87899766 14.5041644,8.58084563 14.1951423,8.29977523 C13.7494671,7.89292194 13.6298957,7.61961592 13.5802037,6.90529335 C13.5460405,6.41147905 13.4979014,5.93785213 13.4668438,5.83691525 C13.4373392,5.73908411 13.3938587,5.5465276 13.3736713,5.41919183 C13.3006862,4.97972817 11.8922284,4.57287488 11.0940506,4.7592199 C10.0039323,5.01389142 9.58776173,5.55584485 9.67627561,6.60092982 C9.71820324,7.07610962 9.83622175,7.62582742 9.94181726,7.82925406 C10.044307,8.0264692 10.2617095,8.56686976 10.4092327,9.00012192 C10.5598616,9.43337409 10.9418689,10.0079379 11.2400209,10.2470807 C11.5443844,10.4908821 11.8751468,10.8713365 11.9760837,11.0949505 C12.0785735,11.3185645 12.3565381,11.5639188 12.5987866,11.6431154 C12.8410352,11.7238649 13.0879423,11.9536905 13.1531631,12.1602228 C13.2277011,12.3853897 13.6671647,12.6959648 14.2852091,12.9568478 C15.6905611,13.5500461 16.6875069,14.0826823 16.6952713,14.2441813 C16.698377,14.3125078 16.3365571,14.6308472 15.9110693,14.932105 C15.4653942,15.2473386 15.0492236,15.7178598 14.9607097,16.0051417 C14.8721959,16.2846592 14.5957841,16.623186 14.3519827,16.7489689 C13.9032018,16.9819002 12.8503524,18.4307327 12.867434,18.7925526 C12.8720927,18.9059125 12.4931911,19.4168084 12.0040355,19.9525503 C11.5148798,20.4898451 11.1359783,21.0333514 11.1437426,21.1870861 C11.1484013,21.3361621 10.9263401,21.9309133 10.6530341,22.4946069 C10.3766223,23.0583006 10.1545612,23.6204414 10.1592198,23.7291427 C10.1654313,23.8440555 10.0722588,24.1934524 9.94647589,24.5304263 C9.35948908,26.1050417 8.67001252,29.1067493 8.38273062,31.324255 C8.27092361,32.1923122 8.11097747,33.1022971 8.02867508,33.3600743 C7.94326695,33.6162987 7.86562319,34.3228569 7.85164732,34.9284782 C7.84077719,35.5356524 7.75071043,36.2670566 7.65132642,36.5543385 C7.4152894,37.2562381 7.65598505,42.8155311 8.00693483,44.6541353 C8.15756372,45.4554189 8.34701449,46.6029936 8.42621112,47.2055092 C8.68243552,49.1217571 9.2523407,51.3842962 9.64987674,52.0520325 C9.79895275,52.3035983 9.74149637,52.4169582 9.38278221,52.5784572 C9.12189919,52.6933699 8.82219428,53.053637 8.69330565,53.4092454 C8.57218139,53.7446664 8.34080299,54.1468611 8.19483272,54.2773026 C8.03488658,54.4170613 7.92463245,54.6111707 7.93084395,54.7385065 C7.93705545,54.8596308 7.69946555,55.254061 7.40131352,55.6174338 C7.109373,55.9745951 6.68543808,56.5786635 6.47735281,56.9373777 C6.0472064,57.6734405 5.33288383,58.5570265 5.06423643,58.6812565 C4.84528103,58.786852 3.43061177,60.9903818 2.8855526,62.0805002 C2.6603857,62.530834 2.3917383,63.2622382 2.29701292,63.6861731 C2.20073466,64.1132138 1.92587576,64.7203879 1.68983873,65.0278572 C1.45380171,65.3322207 1.27522107,65.6567717 1.29696132,65.7344154 C1.36994645,65.9952984 1.10129905,66.9751627 0.793829775,67.5590437 C0.0189450768,69.0435923 -0.192245943,70.7253561 0.175785467,72.4723407 C0.272063726,72.9257802 0.391635112,73.5081084 0.445985742,73.7814144 C0.784512524,75.453861 0.913401161,75.8933246 1.23484632,76.4616769 C1.43361434,76.8126267 1.75040087,77.4850216 1.95382751,77.9897061 C2.1541484,78.4943905 2.47093493,79.0689543 2.6665972,79.2972269 C2.85915372,79.520841 3.07655624,79.9385644 3.15109425,80.228952 C3.22407938,80.5193397 3.40887152,80.8438906 3.56105329,80.9525918 C3.7101293,81.062846 3.83746506,81.2212392 3.84057081,81.3082003 C3.84678231,81.3936084 4.04399746,81.646727 4.28314023,81.8749997 C4.5160715,82.0986137 4.92758342,82.5241015 5.18070206,82.8067248 C5.43537359,83.0909009 6.3282768,84.0195203 7.15751213,84.8627315 C7.98830033,85.7059427 8.67467115,86.473063 8.67932977,86.5631298 C8.68709415,86.796061 9.73683775,87.9948806 10.6576927,88.8272217 C11.3456164,89.4514775 11.4512119,89.6285053 11.2959244,89.9126814 C11.1918818,90.0990265 11.0598874,90.5384901 11.0008781,90.8894399 C10.9418689,91.2419426 10.8455906,91.6130797 10.7881342,91.7171224 C10.6235295,92.0137215 10.5847076,92.9019661 10.6732215,94.2933422 C10.7974515,96.2530707 10.8797539,96.5387997 11.5521488,97.355612 C12.2882116,98.2500681 12.8487995,98.4395189 15.1128915,98.5590903 C16.4561285,98.6289696 16.8179484,98.5854891 17.668924,98.2423037 C19.9221458,97.3354246 20.7001363,96.9472059 21.7964661,96.1769798 C22.8368925,95.4471285 25.0109177,94.2032755 27.108852,93.1333445 C28.004861,92.6767992 28.9226102,91.4764267 28.8915527,90.800926 C28.8775768,90.5447016 28.9350332,90.2108335 29.0080183,90.0788391 C29.1803875,89.7822399 28.6927847,87.7246804 28.3868683,87.4451628 C28.2641911,87.3333558 28.1679129,87.1345878 28.1617014,86.969983 C28.1554899,86.8131427 27.7501894,86.0895028 27.2594809,85.3580986 C26.7718781,84.6282473 26.3665777,83.8921845 26.3572604,83.7198154 C26.3494961,83.5427876 26.1771269,83.3735242 25.9550658,83.3253851 C25.7314518,83.2787988 25.6118804,83.1623332 25.6755483,83.0551848 C25.7376633,82.9464835 25.6149861,82.7321868 25.3836077,82.555159 C24.9130866,82.1871276 23.6288588,80.6699686 23.2437458,80.0270783 C23.1070928,79.7956999 22.8648442,79.2009487 22.7204268,78.7304275 C22.4812841,77.9648601 22.4859427,77.703977 22.7545901,76.5331092 C22.9207477,75.8094694 23.004603,74.992657 22.9378294,74.7348798 C22.8710557,74.4786554 22.7483786,73.9910526 22.6660762,73.6649488 C22.5635865,73.2379081 22.3120207,72.941309 21.8026776,72.6369454 C21.1489172,72.2487267 20.0960678,70.9738162 19.5525615,69.9163082 C19.4267787,69.6709539 19.086699,69.0202992 18.8056286,68.4814515 C17.4406513,65.8834914 17.1362878,64.221915 17.8863265,63.4765349 C18.0990704,63.2668968 18.227959,62.8988654 18.2108774,62.5510214 C18.1891372,62.0773944 18.3320017,61.8491218 19.0230311,61.2730051 C19.4826822,60.8909978 20.1706059,60.5012262 20.5448488,60.4127123 C20.9237503,60.3226455 21.2669357,60.1782281 21.3181806,60.0835028 C21.3678726,59.9903302 21.5945924,59.9049221 21.8151006,59.894052 C22.0387147,59.8847347 22.4750726,59.6999426 22.7949649,59.4825401 C23.1148571,59.2635847 23.5217104,59.0818983 23.7033968,59.072581 C24.1630479,59.0508408 26.2656408,58.227817 26.698893,57.9001603 C26.8945552,57.7510843 27.245505,57.6221956 27.4830949,57.6113255 C27.7222377,57.5989025 28.0498944,57.5103886 28.2176049,57.4110046 C28.3868683,57.3116206 28.9862781,57.1532273 29.5701591,57.0538433 L30.616797,56.8783684 L30.5376003,57.50573 C30.3698898,58.8179095 29.5282315,60.0866085 28.8030388,60.1192189 C28.5328385,60.1331948 28.3138831,60.3086696 28.1927589,60.6068217 C28.0871634,60.8692576 27.8744195,61.0820015 27.7082618,61.0897658 C26.8417575,61.1301406 26.7718781,62.3258545 27.5685031,63.5013809 C28.0964806,64.28403 28.3542579,64.7328109 29.2207622,66.399046 C29.4863039,66.908389 29.7238938,67.7531531 29.807749,68.4643699 C29.9770124,69.9628944 30.2239196,70.1818498 31.4833013,69.9660002 C32.2302342,69.8371115 32.4647184,69.6880355 33.0936328,68.936444 C34.758315,66.9487638 36.138821,65.0356216 36.1232922,64.7374696 C36.1201865,64.6272154 36.188513,64.5495717 36.30032,64.5464659 C36.7211492,64.5262785 37.1808002,63.7513938 37.1512956,63.1100564 C37.1140266,62.3041142 36.2428636,61.1285877 35.5828917,60.9934876 C35.1542981,60.9080795 33.4927217,59.4639056 33.4787459,59.1688593 C33.4663229,58.960774 33.9259739,58.5818725 34.2924524,58.4964644 C34.4819032,58.4529838 35.0642314,58.3380711 35.5937618,58.2433457 C36.1201865,58.1470674 36.5907077,57.9948857 36.6419525,57.9001603 C36.9773736,57.3023034 40.2508344,58.289932 42.6298391,59.7061541 C44.1780556,60.6285619 44.2199833,60.6735953 44.3612949,61.5804744 C44.6485768,63.4237372 44.5026065,65.0822078 43.8519518,67.3338768 C43.3379502,69.1212361 42.4388355,71.3915396 42.1562122,71.622918 C41.909305,71.8263446 41.7012198,72.6680029 41.8363199,72.9180158 C42.4310711,74.0190043 43.2913639,76.8902705 43.4901319,78.4415927 C43.6205734,79.4633846 43.5957274,79.7956999 43.3659019,80.1000634 C43.2137202,80.3065958 42.8379244,80.9696735 42.5459838,81.5520017 C41.9248338,82.7943018 40.3750644,84.8953418 40.0582779,84.9263993 C39.932495,84.9372695 39.8020535,85.0863455 39.7508086,85.2726905 C39.7057752,85.452824 39.322215,85.9808016 38.8905158,86.46064 C38.4572636,86.9389255 38.1140782,87.4249755 38.1140782,87.5523112 C38.1156311,87.679647 37.9758723,87.9358714 37.8019503,88.126875 C37.3531694,88.6175836 37.0953921,89.5555202 37.1419783,90.52762 C37.1699301,91.1270298 37.3345349,91.5463061 37.7879744,92.1674562 C38.4137831,93.0246432 38.6808776,93.2063296 40.7819177,94.1908525 C41.4403367,94.4998746 42.2369617,94.9657372 42.5770413,95.2405961 C42.9140153,95.515455 43.6826885,95.9083324 44.2991799,96.124182 C44.9141184,96.3400317 45.5756433,96.6071262 45.7868343,96.722039 C46.7371939,97.2469108 48.0198687,97.3649293 50.7839865,97.1847958 C53.6769929,96.995345 53.9549576,96.920807 55.4643522,95.9331784 C56.3898658,95.3260042 56.6103741,94.9331268 56.2858231,94.4641585 C56.088608,94.1799823 56.0792908,94.0371178 56.2392369,93.7513888 C56.4752739,93.3290068 56.0233872,91.4655566 55.566842,90.9732952 C55.130484,90.5012211 55.2578198,88.6191364 55.7749272,87.8970495 C56.0063056,87.5740515 56.2811645,87.3178271 56.411606,87.3069569 C56.5420475,87.2945339 56.6321143,87.1765154 56.6274557,87.0305452 C56.6181384,86.83333 58.2300228,85.5599724 58.5048817,85.5459965 C58.6694865,85.539785 59.2828722,84.8829188 59.2751078,84.7214198 C59.2704492,84.6313531 59.9661372,83.8005649 60.8046898,82.8936858 C62.8032401,80.7351893 64.2085921,78.0456096 64.857694,75.1510503 C64.9788182,74.6122026 64.820425,71.7036675 64.6480558,71.3045786 C64.5843879,71.1555025 64.4197832,70.379065 64.2784715,69.5591469 C63.9803195,67.829244 63.5858892,66.933235 62.7457838,66.0869181 C62.5718617,65.9114432 62.4274444,65.6614303 62.4212329,65.5232244 C62.4150214,65.3881243 62.2286763,65.1008424 62.0128267,64.8912042 C61.6215022,64.5107498 61.225519,63.9905366 57.8619914,59.4468239 C56.8122478,58.0259432 55.7469755,56.7510327 55.4860924,56.6004038 C55.2221037,56.448222 55.0078069,56.174916 54.9984896,55.9808066 C54.981408,55.6081166 54.1397497,54.9000055 53.737555,54.91864 C53.3928167,54.9357216 53.3974754,54.7509295 53.7639539,54.1841301 C53.9332173,53.9185884 54.0698703,53.6297536 54.0729761,53.525711 C54.0791876,53.3440246 54.3447292,52.6141733 54.9767494,51.0426636 C55.1568829,50.5923299 55.2733485,50.1404432 55.242291,50.0193189 C55.1770703,49.7646474 55.5357844,48.040956 55.7174708,47.7567798 C55.7826916,47.6542901 55.9193446,47.1045723 56.0187286,46.5501958 C56.1165598,45.9942665 56.26253,45.2783911 56.3355152,44.9740276 C56.5886338,43.9289426 56.7128638,41.8356669 56.6321143,39.9830869 C56.5901867,38.9581893 56.6119269,38.0683918 56.6849121,37.9891952 C56.7563443,37.9115514 56.8169064,37.5792361 56.8169064,37.2671082 C56.8169064,36.9503217 56.8200122,35.7421848 56.8215651,34.6039273 C56.8231179,33.4656699 56.8681513,32.4718298 56.922502,32.4143734 C56.9737468,32.356917 56.9193962,32.2031824 56.8044834,32.0789524 C56.6880178,31.9547223 56.5684464,31.2916447 56.5436004,30.6130382 C56.5172015,29.9344318 56.3634669,28.9638848 56.2050736,28.4623061 C56.0435746,27.9560688 55.8929457,27.2308761 55.8680997,26.834893 C55.8168549,26.0460324 55.4690108,25.0894613 54.9487976,24.2881777 C54.7500296,23.9853671 54.5854249,23.5552207 54.5667904,23.2958905 C54.5512616,23.0443247 54.3664695,22.5163472 54.1552784,22.1219169 C53.9456403,21.7274866 53.762401,21.2569655 53.749978,21.0752791 C53.7360022,20.8920398 53.5651859,20.5333256 53.364865,20.2662311 C52.3399674,18.9012539 51.9750417,18.3189257 51.8337301,17.8235585 C51.5045206,16.6806424 50.5277621,15.0594407 49.5758496,14.0718122 C49.0323433,13.5096713 48.5897739,13.0034341 48.5866682,12.9428719 C48.5789038,12.7891373 49.558768,12.1431412 49.8165453,12.1322711 C50.1876824,12.1151895 52.083743,10.5576557 52.3026984,10.0886874 C52.4269284,9.82469862 52.6350137,9.6135076 52.7747724,9.6072961 C52.9021082,9.6010846 53.017021,9.52965235 53.0139152,9.45822009 C53.0092566,9.38212921 53.2965385,8.90384366 53.6599113,8.37276036 C54.0279427,7.84012419 54.4456661,7.01399461 54.6118237,6.49222856 C54.7779814,5.97046251 55.0217828,5.41298033 55.1693059,5.22663532 C55.3168291,5.03563167 55.3789441,4.84462803 55.3121704,4.77940727 C55.2500554,4.71729227 55.3013003,4.44088049 55.4224246,4.17689172 C55.5451017,3.91135007 55.6895191,3.30262301 55.7345525,2.83986621 C55.8199606,2.04634701 55.7811387,1.94851588 55.142907,1.3351302 C54.7593469,0.967098788 54.4285845,0.505894869 54.3882097,0.286939473 C54.322989,-0.0593516845 54.3012487,-0.0671160602 54.2018647,0.221718717" id="Fill-28"></path>
            </g>
            <path d="M36.7532937,54.7878879 C35.7749823,55.5736427 35.5451568,55.6714739 34.3044096,55.83142 C32.6987367,56.0410582 31.6924736,55.9416742 31.2421398,55.5317151 C30.7265852,55.0596411 28.9050627,54.6419177 28.4019311,54.8795076 C27.5571671,55.2754907 27.3180243,55.6093589 27.4127497,56.2600136 C27.4872877,56.7538279 27.6720798,56.963466 28.4454117,57.4293285 C30.2979917,58.54274 31.675392,58.9573577 33.6801538,59.0023911 C36.1802828,59.0582946 36.7346592,58.8703967 38.0018053,57.5395827 C39.174226,56.3081527 39.6882277,55.259962 39.4708252,54.5409808 C39.1711203,53.5486936 38.1865974,53.6372074 36.7532937,54.7878879" id="Fill-31" fill="#EC6D6C"></path>
            <path d="M23.7327462,113.430199 C22.8553717,114.47839 22.95165,114.807599 24.8647921,117.270459 C25.9393817,118.652518 26.7577469,119.082665 27.7422698,118.78296 C28.3758428,118.590403 28.4224291,118.531394 28.3323623,118.036027 C28.2780117,117.744086 27.9612252,117.126042 27.6351214,116.68192 C27.3105705,116.23935 26.9782552,115.565402 26.9083758,115.209794 C26.5993537,113.646049 26.1334911,113.142917 24.8461576,112.979865 C24.2731467,112.90688 24.1194121,112.968995 23.7327462,113.430199" id="Fill-33" fill="#EC6D6C"></path>
            <path d="M20.2676606,114.445469 C19.963297,114.569699 19.6371932,114.742068 19.5176219,114.847664 C19.2909021,115.041773 19.466377,116.218852 19.7722934,116.571355 C19.8716774,116.686268 20.2723192,117.336922 20.6543265,118 C21.0347809,118.659972 21.7133873,119.554428 22.140428,119.958176 C22.7895298,120.571561 23.0426484,120.695791 23.5799432,120.663181 C23.9448689,120.641441 24.3688038,120.509446 24.5458316,120.361923 C24.8237962,120.133651 24.8331135,119.99855 24.6312397,119.364977 C24.5023511,118.967441 24.3082417,118.585434 24.2041991,118.526425 C23.9402103,118.378902 23.4060212,117.184741 23.5116167,116.98442 C23.5613087,116.894353 23.5193811,116.793416 23.4060212,116.732854 C23.3035315,116.67695 23.2072532,116.392774 23.1932773,116.117915 C23.1637727,115.492107 22.4494501,114.746727 21.5705228,114.425282 C21.2164673,114.29484 20.8919164,114.195456 20.8639646,114.206326 C20.8329071,114.218749 20.5751298,114.321239 20.2676606,114.445469" id="Fill-35" fill="#EC6D6C"></path>
            <path d="M37.5857901,113.685026 C37.4770888,113.837208 37.2596863,113.975414 37.1214804,113.981625 C36.9755101,113.989389 36.8637031,114.048399 36.8621502,114.122937 C36.8341985,115.354367 36.7425788,115.930483 36.5236235,116.304726 C36.3823118,116.550081 36.2673991,116.930535 36.2767163,117.133962 C36.2875864,117.342047 35.944401,117.877789 35.5064902,118.338993 C34.340281,119.56887 34.514203,120.284745 35.9847758,120.301827 C37.424291,120.317356 38.1168734,119.683783 39.1836986,117.374657 C39.8436705,115.949118 39.9974052,115.688235 40.1076593,115.789172 C40.2334422,115.904085 40.04865,116.397899 39.0532571,118.593664 C38.6200049,119.548682 38.3187471,120.458667 38.3839679,120.607743 C38.7069659,121.334489 40.2582882,121.089135 41.0207499,120.19002 C42.3903858,118.584347 42.8888587,116.124593 42.0456475,115.147834 C41.6481114,114.688183 40.8716739,114.559295 40.6744587,114.918009 C40.4741378,115.281382 40.0812604,115.1292 39.8296946,114.590352 C39.576576,114.051504 38.5718658,113.363581 38.0687342,113.386874 C37.9212111,113.394638 37.6960442,113.532844 37.5857901,113.685026" id="Fill-37" fill="#EC6D6C"></path>
        </g>
    </g>
</svg>