<?xml version="1.0" encoding="UTF-8"?>
<svg width="85px" height="53px" viewBox="0 0 85 53" version="1.1" xmlns="http://www.w3.org/2000/svg" xmlns:xlink="http://www.w3.org/1999/xlink">
    <!-- Generator: Sketch 61 (89581) - https://sketch.com -->
    <title>img-nav-childcare-white</title>
    <desc>Created with Sketch.</desc>
    <g id="Page-1" stroke="none" stroke-width="1" fill="none" fill-rule="evenodd">
        <g id="200318_kodomonooka-ver2" transform="translate(-373.000000, -6404.000000)" fill="#FFFFFF">
            <g id="img-nav-childcare-white" transform="translate(373.500000, 6404.000000)">
                <g id="Group-2" transform="translate(0.000000, -0.000000)">
                    <path d="M68.1159807,29.4280008 C67.9557509,29.4690352 67.8306934,29.5462192 67.8306934,29.6028858 C67.8306934,29.6605295 67.7046589,29.7562766 67.544429,29.8207594 C67.3841991,29.8842651 67.2591417,29.9800123 67.2591417,30.0376559 C67.2591417,30.1343801 65.6353486,30.7313341 64.9387394,30.892541 C64.7550612,30.9345525 64.6300037,31.0400697 64.6300037,31.152426 C64.6300037,31.2598973 64.5440267,31.404495 64.4297164,31.489495 C64.2694865,31.6077134 64.2577623,31.6663341 64.3720727,31.7806444 C64.4521876,31.8597824 64.5147164,32.0610467 64.5147164,32.2320238 C64.5147164,32.4039778 64.571383,32.5612766 64.6407509,32.5866789 C64.7110957,32.6120812 64.7697164,32.9237479 64.7726474,33.2901272 C64.7755784,33.6555295 64.8381072,34.0072536 64.91236,34.0844375 C65.080406,34.2554146 65.0637968,35.7180008 64.8928198,35.8899548 C64.567475,36.2152996 63.8405784,35.2842077 63.8132221,34.5065065 C63.799544,34.1411042 63.7409233,34.0023686 63.5836244,33.9642651 C63.4693141,33.9359318 63.3725899,33.8440927 63.3725899,33.7639778 C63.3725899,33.5793226 62.7893141,33.1318513 62.1943141,32.8592651 C61.7331646,32.6482306 60.9496014,32.6882881 60.4689118,32.9491502 C59.9657509,33.2207594 59.5348888,33.5451272 59.2798888,33.8440927 C59.1333371,34.0150697 58.9506359,34.1635755 58.8861532,34.1635755 C58.8177623,34.1635755 58.6243141,34.3130582 58.4386819,34.5065065 C58.0615554,34.9012192 58.022475,34.7351272 58.3439118,34.1069088 C58.4670152,33.866564 58.5715554,33.5529433 58.5715554,33.4269088 C58.5715554,33.2979433 58.7513256,32.9872536 58.9721302,32.7351847 C59.1919577,32.4831157 59.3512106,32.2242077 59.3258083,32.1577709 C59.301383,32.0932881 59.3512106,31.911564 59.4342566,31.7640352 C59.6794865,31.3292651 59.640406,30.7987479 59.3365554,30.4265065 C59.1929348,30.2506444 58.960406,29.9174835 58.8226474,29.6888628 C58.6848888,29.4602421 58.4943715,29.2433456 58.4005784,29.2091502 C58.3048313,29.1739778 58.2286244,29.0547824 58.2286244,28.940472 C58.2286244,28.6200123 57.9609233,28.1061042 57.7948313,28.1061042 C57.6258083,28.1061042 57.428452,27.6371387 57.428452,27.237541 C57.428452,26.984495 57.4743715,26.9630008 58.0117279,26.9630008 C58.5598313,26.9630008 59.3512106,27.2854146 59.469429,27.5570238 C59.4909233,27.6078283 59.6286819,27.6488628 59.7771876,27.6488628 C59.9256934,27.6488628 60.0781072,27.6996674 60.1171876,27.7631732 C60.233452,27.9478283 60.7883945,27.8813916 61.086383,27.6459318 C61.2466129,27.5189203 61.4322451,27.4192651 61.509429,27.4182881 C61.7165554,27.4153571 62.0252911,26.7568513 61.9432221,26.4940352 C61.9041417,26.3689778 61.9256359,26.2771387 61.9950037,26.2771387 C62.0633945,26.2771387 62.1151761,26.2087479 62.1151761,26.1169088 C62.1151761,26.0280008 62.2402336,25.8384605 62.4004635,25.6880008 C62.5655784,25.5336329 62.6867279,25.2942651 62.6867279,25.1223111 C62.6867279,24.6767939 62.956383,24.1003571 63.3608658,23.6821962 C63.5719003,23.4652996 63.6871876,23.244495 63.6461532,23.1389778 C63.6031646,23.0285755 63.6461532,22.9621387 63.7604635,22.9621387 C63.8601187,22.9621387 63.9431646,23.0588628 63.9431646,23.1741502 C63.9431646,23.2923686 64.0242566,23.5454146 64.1268428,23.750587 C64.395521,24.2879433 64.7189118,25.705587 64.6769003,26.1628283 C64.6231646,26.7568513 64.820521,27.3762766 65.1439118,27.6302996 C65.3041417,27.7563341 65.4291991,27.9448973 65.4291991,28.0601847 C65.4291991,28.2790352 65.9206359,28.6493226 66.5156359,28.8779433 C66.7999463,28.9873686 67.6352911,29.107541 68.2527623,29.1270812 C68.5116704,29.1358743 68.4129922,29.3517939 68.1159807,29.4280008 M71.4681072,27.1916215 C71.2043141,26.8428283 70.5047738,26.6190927 70.0700037,26.7441502 C69.6430497,26.8672536 69.0871302,26.7861617 68.4012681,26.5018513 C68.1159807,26.3836329 67.7290842,26.2253571 67.5327049,26.1471962 C67.121383,25.9820812 66.6875899,25.4095525 66.6875899,25.031449 C66.6875899,24.8936904 66.6406934,24.688518 66.5840267,24.5800697 C66.52736,24.4696674 66.4482221,24.1560467 66.4071876,23.8824835 C66.3661532,23.6079433 66.2528198,23.2669663 66.1560957,23.1223686 C66.0603486,22.9816789 65.9948888,22.7110467 66.012475,22.5390927 C66.0310382,22.3681157 65.9753486,22.0867364 65.8932796,21.9333456 C65.8063256,21.7740927 65.7506359,21.6480582 65.7672451,21.6480582 C65.7828773,21.6480582 65.7105784,21.3617939 65.6079922,21.0188628 C65.3187968,20.0486904 64.6407509,19.7282306 63.5328198,20.0350123 C63.2807509,20.1053571 62.9749463,20.26461 62.8528198,20.3906444 C62.4971876,20.7560467 61.8865554,21.5523111 61.8806934,21.6588054 C61.8777623,21.716449 61.6716129,21.9909893 61.4185669,22.2762766 C60.9730497,22.7774835 60.7258658,23.2024835 60.573452,23.7281157 C60.5353486,23.8580582 60.2842566,24.2078283 60.0233945,24.4940927 C59.5436819,25.0197249 59.5436819,25.0197249 59.0854635,24.8936904 C58.8343715,24.8252996 58.5666704,24.7178283 58.4914405,24.6572536 C58.363452,24.5527134 57.2682221,24.4540352 56.0000612,24.431564 C55.1656934,24.4169088 54.1212681,24.9855295 53.8506359,25.6020238 C53.5409233,26.3113341 53.5936819,26.8907019 54.025521,27.5120812 C54.2326474,27.8090927 54.4886244,28.1148973 54.6000037,28.1969663 C54.711383,28.2809893 54.7993141,28.4715065 54.7993141,28.6317364 C54.7993141,28.7880582 54.9292566,29.0889778 55.0855784,29.2941502 C55.2409233,29.5002996 55.3708658,29.7269663 55.3708658,29.792426 C55.3708658,29.8559318 55.4509807,29.9409318 55.5428198,29.9751272 C55.6336819,30.0083456 55.7137968,30.0884605 55.7137968,30.1461042 C55.7137968,30.2057019 55.8906359,30.5232306 56.1085095,30.8544375 C56.4612106,31.3917939 56.4866129,31.4807019 56.3488543,31.6946674 C56.2638543,31.827541 56.1046014,32.2437479 55.9941991,32.6208743 C55.8837968,32.9980008 55.724544,33.4151847 55.639544,33.5470812 C55.5516129,33.6838628 55.5125325,33.8607019 55.5486819,33.9584031 C55.5838543,34.0541502 55.5340267,34.209495 55.4343715,34.3130582 C55.3337394,34.4156444 55.2565554,34.5651272 55.2565554,34.6559893 C55.2565554,34.7400123 55.1539692,34.9070812 55.0396589,35.0096674 C54.8950612,35.13961 54.8090842,35.398518 54.7827049,35.7873686 C54.7475325,36.2895525 54.7856359,36.416564 55.0562681,36.7077134 C55.2272451,36.8904146 55.3708658,37.096564 55.3708658,37.1590927 C55.3708658,37.3036904 55.6678773,37.5928858 55.81736,37.5928858 C55.8847738,37.5928858 55.9424175,37.6348973 55.9424175,37.6847249 C55.9424175,37.7941502 56.8569003,38.0501272 57.2457509,38.0501272 C57.4001187,38.0501272 57.6971302,37.9758743 57.9257509,37.8781732 C58.1543715,37.782426 58.4367279,37.7071962 58.5715554,37.7071962 C58.9144865,37.7071962 59.8231072,37.2773111 59.9002911,37.0789778 C59.9354635,36.9871387 60.0273026,36.9070238 60.0976474,36.9070238 C60.1709233,36.9070238 60.3546014,36.8063916 60.5148313,36.6784031 C60.6750612,36.5504146 60.8890267,36.4497824 61.000406,36.4497824 C61.1147164,36.4497824 61.2006934,36.4009318 61.2006934,36.335472 C61.2006934,36.1703571 61.6921302,36.1869663 61.8640842,36.3589203 C61.9393141,36.4351272 62.0008658,36.587541 62.0008658,36.7018513 C62.0008658,36.8161617 62.0467853,36.9070238 62.103452,36.9070238 C62.1601187,36.9070238 62.272475,37.0731157 62.355521,37.2792651 C62.4366129,37.4844375 62.6466704,37.8009893 62.8235095,37.9875985 C62.9974175,38.1702996 63.1439692,38.3920812 63.1439692,38.4731732 C63.1439692,38.7350123 63.886498,39.1922536 64.4355784,39.2684605 C64.7325899,39.308518 65.0286244,39.4111042 65.0979922,39.4961042 C65.166383,39.5801272 65.3490842,39.650472 65.4985669,39.650472 C65.6470727,39.650472 65.7731072,39.7032306 65.7731072,39.7647824 C65.7731072,39.901564 66.5283371,39.9230582 66.61236,39.7882306 C66.6475325,39.72961 66.8927623,39.6250697 67.1673026,39.5488628 C67.8072451,39.3710467 68.1804635,39.0818513 68.2136819,38.7359893 C68.2293141,38.5757594 68.2937968,38.3500697 68.3602336,38.2211042 C68.4940842,37.9670812 68.4510957,37.7873111 68.0641991,36.9646674 C67.9137394,36.6442077 67.798452,36.3178858 67.801383,36.2211617 C67.8052911,36.1263916 67.7564405,35.912426 67.6929348,35.741449 C67.6040267,35.5011042 67.6167279,35.3936329 67.7496014,35.2558743 C67.879544,35.1220238 67.9147164,34.8611617 67.8961532,34.1977709 C67.8619577,33.020472 68.1863256,32.335587 68.7783945,32.335587 C68.9278773,32.335587 69.1477049,32.2300697 69.2590842,32.1069663 C69.3724175,31.9809318 69.5463256,31.8773686 69.6469577,31.8773686 C69.749544,31.8773686 69.9556934,31.7777134 70.1159233,31.6487479 C70.2761532,31.5217364 70.4520152,31.4201272 70.516498,31.4191502 C70.6816129,31.4162192 71.8452336,30.1744375 72.0679922,29.7631157 C72.4812681,28.9981157 72.4285095,28.2448398 71.9224175,27.7172536 C71.7797738,27.5687479 71.5716704,27.327426 71.4681072,27.1916215 M76.3394865,14.915472 C76.4821302,15.4528283 76.215406,16.2275985 75.7229922,16.702426 C75.4826474,16.9339778 75.2882221,17.2007019 75.2882221,17.2984031 C75.2882221,17.3961042 75.1573026,17.5612192 74.9970727,17.6638054 C74.7420727,17.8289203 74.60236,17.8357594 73.8823026,17.715587 C73.2198888,17.6051847 73.0108083,17.5192077 72.8085669,17.2700697 C72.6688543,17.0981157 72.5535669,16.8948973 72.5516129,16.8128283 C72.5477049,16.7317364 72.4617279,16.5382881 72.3620727,16.3897824 C72.2077049,16.1572536 72.1989118,16.0243801 72.305406,15.5212192 C72.3757509,15.1900123 72.5271876,14.8431732 72.6483371,14.7376559 C72.7655784,14.6360467 72.8828198,14.4240352 72.9043141,14.2755295 C72.9424175,14.0117364 73.0254635,13.9677709 73.9741417,13.7069088 C74.1685669,13.6531732 74.4411532,13.6072536 74.60236,13.6004146 C75.0029348,13.5838054 76.2329922,14.5148973 76.3394865,14.915472 M68.4188543,14.8353571 C68.3270152,14.5959893 68.3563256,14.4582306 68.56736,14.1270238 C68.7139118,13.897426 68.9317853,13.6922536 69.0587968,13.6639203 C69.1838543,13.635587 69.5736819,13.6326559 69.9166129,13.6580582 C70.4539692,13.6971387 70.5956359,13.7596674 70.8906934,14.0928283 C71.4075325,14.6712192 71.4133945,15.3267939 70.9082796,16.0585755 C70.5419003,16.5900697 70.4940267,16.6203571 69.9566704,16.6525985 C69.4642566,16.6828858 69.3450612,16.6428283 69.0421876,16.3497249 C68.8243141,16.1396674 68.6631072,15.847541 68.6132796,15.5720238 C68.5693141,15.3326559 68.481383,14.997541 68.4188543,14.8353571 M62.7433945,14.6526559 C62.6437394,13.9325985 62.6710957,13.0874835 62.7951761,13.047426 C62.8616129,13.0259318 62.8967853,12.9155295 62.869429,12.8119663 C62.8000612,12.5540352 63.2641417,11.8613341 63.629544,11.6766789 C63.9470727,11.516449 64.4297164,11.5037479 65.3100037,11.6317364 C65.9616704,11.7265065 66.5977049,12.1778858 66.8321876,12.7093801 C66.9074175,12.8803571 67.0080497,13.0181157 67.0588543,13.0181157 C67.1106359,13.0181157 67.2112681,13.1666215 67.291383,13.3610467 C67.4447738,13.7323111 67.3314405,13.9433456 66.5078198,14.8236329 C66.3046014,15.0405295 66.1443715,15.2584031 66.1443715,15.3150697 C66.1443715,15.5280582 65.4125899,16.104495 65.0589118,16.1709318 C64.8498313,16.2100123 64.48736,16.1728858 64.2470152,16.0869088 C63.6637394,15.8807594 62.8000612,15.0561617 62.7433945,14.6526559 M56.0283945,13.4812192 C55.8564405,13.1031157 55.8417853,12.9497249 55.9433945,12.537426 C56.0098313,12.2638628 56.065521,11.9228858 56.068452,11.766564 C56.071383,11.6170812 56.15736,11.4402421 56.2511532,11.3894375 C56.3537394,11.3327709 56.4289692,11.2223686 56.4289692,11.1266215 C56.4289692,11.0347824 56.4797738,10.9605295 56.5432796,10.9605295 C56.6058083,10.9605295 56.6566129,10.8579433 56.6566129,10.7319088 C56.6566129,10.6058743 56.7289118,10.5032881 56.8178198,10.5032881 C56.9057509,10.5032881 57.1255784,10.4241502 57.3082796,10.3284031 C57.9159807,10.0069663 59.1939118,10.3430582 59.8006359,10.9830008 C60.2080497,11.4138628 60.2109807,11.4236329 60.1035095,12.0176559 C60.0429348,12.3498398 59.9911532,12.7719088 59.9852911,12.960472 C59.9657509,13.7039778 59.9051761,13.9277134 59.6638543,14.1534031 C59.5260957,14.2823686 59.3648888,14.3898398 59.3091991,14.3898398 C59.2525325,14.3898398 59.1137968,14.492426 59.0004635,14.6184605 C58.8597738,14.7738054 58.6458083,14.8470812 58.3253486,14.8470812 C57.6746589,14.8470812 57.000521,14.7249548 57.000521,14.6067364 C57.000521,14.4465065 56.5208083,13.9325985 56.3713256,13.9325985 C56.2951187,13.9325985 56.1436819,13.7323111 56.0283945,13.4812192 M81.4756359,12.4924835 C81.3564405,12.6468513 81.0223026,14.8470812 81.0242566,15.4645525 C81.0262106,15.7381157 80.9304635,16.0370812 80.7770727,16.2412766 C80.5015554,16.6066789 80.4380497,17.1840927 80.6490842,17.3961042 C80.8308083,17.5768513 80.8093141,17.886564 80.5855784,18.310587 C80.463452,18.5392077 80.3862681,19.0247824 80.3637968,19.6871962 C80.3452336,20.2480008 80.2651187,20.8967364 80.1859807,21.122426 C80.1048888,21.3588628 80.0579922,21.9567939 80.0775325,22.5283456 C80.0970727,23.076449 80.0706934,23.586449 80.0208658,23.665587 C79.9690842,23.7457019 79.9182796,23.9332881 79.9046014,24.094495 C79.7727049,25.625472 79.7140842,26.1051847 79.6378773,26.2654146 C79.5919577,26.3640927 79.4708083,26.6142077 79.3750612,26.8086329 C79.273452,27.0138054 79.2392566,27.2316789 79.2949463,27.3166789 C79.3486819,27.3987479 79.3350037,27.5687479 79.2666129,27.6947824 C79.1972451,27.8198398 79.1356934,28.2487479 79.1288543,28.6493226 C79.1229922,29.0489203 79.0663256,29.4104146 79.0037968,29.4553571 C78.7976474,29.6009318 78.5700037,30.1363341 78.6393715,30.3121962 C78.674544,30.4040352 78.674544,30.5124835 78.6374175,30.5466789 C78.5993141,30.5808743 78.5514405,30.9296674 78.5299463,31.3292651 C78.4488543,32.8035755 78.2847164,33.5851847 77.9027049,34.3013341 C77.8343141,34.4293226 77.7649463,34.7634605 77.746383,35.061449 C77.7268428,35.3555295 77.6506359,35.9241502 77.574429,36.335472 C77.4991991,36.7448398 77.4190842,37.4326559 77.3975899,37.867426 C77.3760957,38.3021962 77.316498,38.6871387 77.2656934,38.7252421 C76.9110382,38.9909893 76.7762106,39.2899548 76.8827049,39.5703571 C76.9608658,39.7765065 76.9510957,39.8722536 76.8485095,39.9132881 C76.7576474,39.9504146 76.7136819,40.1702421 76.7283371,40.5248973 C76.7420152,40.8336329 76.7127049,41.180472 76.6638543,41.3074835 C76.4186244,41.947426 76.3394865,42.2942651 76.3932221,42.4965065 C76.4264405,42.6186329 76.3756359,42.8736329 76.2837968,43.045587 C76.0581072,43.4686329 75.8324175,44.3137479 75.9105784,44.4397824 C75.9467279,44.497426 75.9115554,44.5931732 75.8314405,44.6566789 C75.7532796,44.7192077 75.5862106,45.005472 75.4601761,45.2917364 C75.2540267,45.7607019 75.1797738,45.8232306 74.7000612,45.936564 C74.4030497,46.0078858 74.0620727,46.1622536 73.9282221,46.2882881 C73.6888543,46.5149548 73.0020152,46.5931157 73.0020152,46.3947824 C73.0020152,46.3322536 72.8593715,46.280472 72.6883945,46.280472 C72.5135095,46.280472 71.9165554,46.1837479 71.3450037,46.0625985 C70.7392566,45.935587 70.2693141,45.8906444 70.2019003,45.9541502 C70.0602336,46.0899548 69.5043141,46.0811617 69.2532221,45.940472 C69.0597738,45.8330008 67.8473026,45.4588054 67.5160957,45.4050697 C67.4232796,45.3894375 67.121383,45.2956444 66.8585669,45.1998973 C66.5879348,45.1012192 66.0925899,44.9898398 65.7379348,44.9488054 C65.3842566,44.9067939 65.079429,44.831564 65.0471876,44.7768513 C65.0159233,44.7231157 64.8410382,44.6801272 64.6583371,44.6801272 C64.4756359,44.6801272 64.2978198,44.6332306 64.2626474,44.576564 C64.2001187,44.4769088 63.0472451,44.239495 62.6583945,44.2463341 C62.0751187,44.2561042 61.3433371,44.1662192 61.3433371,44.0851272 C61.3433371,44.0333456 61.2407509,43.9942651 61.1039692,43.9942651 C60.9681646,43.9942651 60.7317279,43.902426 60.5607509,43.7822536 C60.3350612,43.6249548 60.0976474,43.5800123 59.6286819,43.6054146 C59.2750037,43.6249548 58.8509807,43.5731732 58.6575325,43.4871962 C58.0859807,43.2321962 57.5505784,43.0797824 57.2281646,43.0797824 C57.0689118,43.0797824 56.8813256,43.0289778 56.8227049,42.9713341 C56.7631072,42.9107594 56.4739118,42.8443226 56.1769003,42.8218513 C55.8798888,42.8003571 55.6043715,42.7466215 55.559429,42.7026559 C55.5154635,42.6577134 55.3200612,42.622541 55.1139118,42.622541 C54.9077623,42.622541 54.6283371,42.5326559 54.4739692,42.4163916 C54.285406,42.2747249 53.9708083,42.202426 53.4676474,42.1828858 C52.6772451,42.1516215 52.1994865,42.0539203 51.3993141,41.7598398 C51.1140267,41.6552996 50.4271876,41.5321962 49.8566129,41.4843226 C48.7819003,41.3954146 48.4272451,41.3025985 48.4272451,41.1130582 C48.4272451,41.0563916 48.1067853,41.0173111 47.7071876,41.0261042 C46.975406,41.0407594 46.1117279,40.7369088 46.0042566,40.4281732 C45.9212106,40.1878283 46.0198888,38.4839203 46.125406,38.3471387 C46.1771876,38.2787479 46.2319003,37.947541 46.2446014,37.6153571 C46.2563256,37.2851272 46.3110382,36.8933456 46.3637968,36.7526559 C46.4204635,36.6041502 46.4175325,36.415587 46.3579348,36.3071387 C46.290521,36.1830582 46.3178773,35.9358743 46.4380497,35.5812192 C46.5396589,35.2842077 46.5982796,34.9217364 46.5699463,34.7693226 C46.5416129,34.6178858 46.5640842,34.2554146 46.6207509,33.9584031 C46.6783945,33.6613916 46.7291991,33.3184605 46.7360382,33.192426 C46.7419003,33.0683456 46.7887968,32.7811042 46.8386244,32.5632306 C46.888452,32.3443801 46.9558658,31.9467364 46.9871302,31.6839203 C47.0183945,31.4211042 47.1014405,31.0947824 47.1698313,30.9638628 C47.2421302,30.8261042 47.2636244,30.6228858 47.2216129,30.4890352 C47.1776474,30.3522536 47.2069577,30.217426 47.2900037,30.1627134 C47.3681646,30.1138628 47.4424175,29.8998973 47.4541417,29.6947249 C47.4902911,29.0547824 47.8693715,26.9112192 47.9680497,26.7910467 C48.0198313,26.728518 48.0647738,26.3689778 48.0667279,25.9908743 C48.0706359,25.6137479 48.1273026,25.0529433 48.1927623,24.7451847 C48.2591991,24.436449 48.3207509,23.9498973 48.330521,23.6597249 C48.3393141,23.3734605 48.414544,22.9982881 48.4956359,22.8361042 C48.5757509,22.6768513 48.6421876,22.4394375 48.6382796,22.3221962 C48.6363256,22.2020238 48.6617279,21.8991502 48.6959233,21.6480582 C48.7301187,21.3979433 48.7877623,20.9621962 48.8219577,20.6876559 C48.8561532,20.4131157 48.9626474,19.927541 49.0564405,19.6188054 C49.1492566,19.3100697 49.1961532,19.0042651 49.1590267,18.9446674 C49.1209233,18.8840927 49.1521876,18.7619663 49.2274175,18.6701272 C49.3036244,18.5782881 49.3290267,18.5040352 49.2850612,18.5040352 C49.2420727,18.5040352 49.2606359,18.4356444 49.3260957,18.3555295 C49.4462681,18.2080008 49.4697164,18.0702421 49.6289692,16.5617364 C49.6729348,16.1494375 49.7227623,15.7420238 49.7413256,15.6472536 C49.7608658,15.5515065 49.8116704,15.2466789 49.8566129,14.9613916 C49.9005784,14.6751272 49.9797164,14.3634605 50.033452,14.2579433 C50.0862106,14.1543801 50.1594865,13.720587 50.1936819,13.297541 C50.2278773,12.875472 50.3333945,12.4074835 50.4271876,12.2638628 C50.54736,12.0801847 50.5874175,11.7831732 50.5590842,11.2800123 C50.5366129,10.8804146 50.5620152,10.4456444 50.6157509,10.3030008 C50.6694865,10.1623111 50.7447164,9.59466743 50.7818428,9.04558697 C50.8199463,8.49748352 50.8580497,7.92983984 50.8678198,7.78915019 C50.8766129,7.65139157 50.9303486,7.53121915 50.9821302,7.53121915 C51.0348888,7.53121915 51.0475899,7.36024214 51.0104635,7.15409272 C50.9733371,6.9489203 50.9909233,6.62064444 51.049544,6.43403525 C51.1560382,6.09598927 51.2420152,5.42869042 51.3807509,3.87328812 L51.4559807,3.01644904 L51.9650037,2.99886283 C52.239544,2.99006973 52.4935669,2.92460996 52.5170152,2.85621915 C52.580521,2.66863295 53.011383,2.70282835 53.4676474,2.93340306 C53.8672451,3.13466743 54.7602336,3.36328812 55.5144865,3.45805823 C55.7343141,3.48541456 56.1202336,3.56846053 56.3713256,3.64173639 C56.8412681,3.78047203 57.9257509,4.02081685 59.0581072,4.23771341 C59.6697164,4.35495479 59.7771876,4.38817318 60.4630497,4.66075938 C60.6398888,4.73110421 60.9320152,4.78777088 61.1147164,4.78777088 C61.2974175,4.78777088 61.5690267,4.83466743 61.7214405,4.8913341 C61.8699463,4.94702375 62.2236244,5.02518467 62.4981646,5.06231111 C62.7775899,5.10041456 63.2299463,5.18443754 63.5152336,5.25087433 C63.7975899,5.3163341 64.7267279,5.50001226 65.5728198,5.6563341 C66.4189118,5.81363295 67.2786819,6.01782835 67.4760382,6.10869042 C67.6753486,6.2005295 68.2879348,6.40179387 68.8477623,6.56006973 C69.4075899,6.71834559 70.0455784,6.94794329 70.2761532,7.07397777 C70.5047738,7.20001226 70.8125325,7.30259846 70.9561532,7.30259846 C71.1027049,7.30259846 71.3733371,7.348518 71.5677623,7.40518467 C71.7612106,7.46282835 72.219429,7.56443754 72.5965554,7.63380536 C72.9736819,7.70415019 73.3048888,7.80282835 73.3400612,7.85656398 C73.3742566,7.91029961 73.6888543,8.02167892 74.0317853,8.10277088 C74.3737394,8.18386283 74.7899463,8.31673639 74.9452911,8.39489731 C75.105521,8.47403525 75.4826474,8.56880536 75.8031072,8.60983984 C76.4430497,8.6909318 76.8660957,8.79254099 78.2036244,9.1843226 C78.7058083,9.33087433 79.4268428,9.53702375 79.8029922,9.64058697 C80.7526474,9.90242605 81.1629922,10.1339778 81.314429,10.491564 C81.483452,10.8921387 81.5997164,12.3322536 81.4756359,12.4924835 M72.6649463,49.252541 C72.5398888,49.252541 72.3747738,49.3463341 72.2887968,49.4694375 C72.1461532,49.6687479 71.9966704,49.6834031 70.4764405,49.6501847 C68.7852336,49.6130582 67.8160382,49.4997249 67.5160957,49.3062766 C67.4223026,49.2447249 67.036383,49.1861042 66.6582796,49.1753571 C65.5386244,49.1440927 64.3759807,49.0082881 64.2587394,48.8939778 C64.2001187,48.8382881 64.0408658,48.7943226 63.89236,48.7943226 C63.7438543,48.7943226 63.545521,48.7523111 63.4351187,48.6966215 C63.0247738,48.488518 62.3955784,48.3370812 61.9383371,48.3370812 C61.675521,48.3370812 61.4576474,48.2911617 61.4576474,48.234495 C61.4576474,48.1006444 60.8177049,47.8808169 60.4288543,47.8808169 C60.2578773,47.8808169 60.0878773,47.8475985 60.0458658,47.806564 C60.0048313,47.7645525 59.811383,47.7137479 59.6062106,47.6912766 C59.4010382,47.6688054 59.0346589,47.551564 58.7718428,47.4225985 C58.5090267,47.29461 58.195406,47.1949548 58.0576474,47.1949548 C57.9198888,47.1949548 57.7782221,47.1382881 57.7371876,47.0689203 C57.6961532,46.9995525 57.4743715,46.9663341 57.2457509,46.9946674 C56.9624175,47.0298398 56.49736,46.9262766 55.7997738,46.6742077 C55.2282221,46.4680582 54.5169577,46.2921962 54.199429,46.279495 C53.1940842,46.2384605 53.0612106,46.2159893 52.6108083,46.0157019 C52.3704635,45.9092077 52.1105784,45.8232306 52.0275325,45.8232306 C51.9483945,45.8232306 51.8604635,45.767541 51.8389692,45.7030582 C51.816498,45.6346674 51.5019003,45.5828858 51.1140267,45.5828858 C50.7359233,45.5828858 50.376383,45.5408743 50.3128773,45.4900697 C50.1751187,45.3786904 48.8610382,44.9908169 47.9358083,44.7895525 C47.570406,44.7104146 47.2470152,44.6019663 47.2157509,44.5482306 C47.1835095,44.493518 47.061383,44.4505295 46.9353486,44.4505295 C46.8102911,44.4505295 46.7125899,44.4016789 46.7125899,44.3371962 C46.7125899,44.2707594 46.6383371,44.2228858 46.5357509,44.2228858 C46.4409807,44.2228858 46.2387394,44.1447249 46.1009807,44.0567939 C45.9622451,43.9669088 45.5929348,43.8594375 45.2959233,43.8223111 C44.9979348,43.7851847 44.6706359,43.6777134 44.5807509,43.5888054 C44.4879348,43.4950123 44.335521,43.3797249 44.2329348,43.3250123 C44.0717279,43.2400123 44.0766129,43.1999548 44.2671302,42.9938054 C44.3833945,42.8677709 44.4977049,42.7544375 44.51236,42.7475985 C44.5279922,42.7417364 44.8552911,42.8638628 45.2441417,43.0231157 C45.6329922,43.1804146 46.1058658,43.3084031 46.3012681,43.3084031 C46.4996014,43.3084031 46.9070152,43.388518 47.227475,43.4911042 C47.5410957,43.5917364 48.3129348,43.6992077 48.9411532,43.731449 C49.5703486,43.7627134 50.1721876,43.8350123 50.2796589,43.8907019 C50.3881072,43.9483456 50.5991417,43.9942651 50.7593715,43.9942651 C50.9186244,43.9942651 51.0749463,44.0440927 51.1140267,44.1085755 C51.1511532,44.1701272 51.3250612,44.2228858 51.4960382,44.2228858 C51.6679922,44.2228858 51.8604635,44.2688054 51.9190842,44.325472 C51.9786819,44.3821387 52.2336819,44.4554146 52.4847738,44.4876559 C53.1462106,44.5736329 53.856498,44.7377709 54.8286244,45.0289203 C55.2966129,45.16961 55.9189692,45.3083456 56.2003486,45.3366789 C56.4856359,45.3650123 56.7621302,45.4343801 56.8227049,45.4910467 C56.8832796,45.5486904 57.1480497,45.59461 57.4235669,45.59461 C57.9931646,45.59461 59.1489692,45.8388628 60.9662106,46.3430008 C61.2954635,46.4348398 61.9383371,46.533518 62.4063256,46.5638054 C63.3325325,46.6243801 63.550406,46.6820238 63.9841991,46.9790352 C64.1483371,47.0923686 64.6583371,47.2438054 65.1273026,47.3200123 C65.5952911,47.3962192 66.0212681,47.5007594 66.0808658,47.554495 C66.1404635,47.6062766 66.2586819,47.6512192 66.3387968,47.6512192 C66.4189118,47.6512192 66.7100612,47.7508743 66.9728773,47.8690927 C67.2356934,47.9863341 67.6030497,48.1172536 67.7730497,48.1543801 C67.9450037,48.1924835 68.2302911,48.2550123 68.4012681,48.2921387 C68.5732221,48.3292651 68.820406,48.407426 68.9444865,48.4631157 C69.070521,48.5197824 69.584429,48.5862192 70.0875899,48.6116215 C70.5907509,48.6370238 71.027475,48.6702421 71.0597164,48.6858743 C71.0909807,48.7024835 71.4251187,48.7269088 71.8022451,48.741564 C72.8886819,48.7835755 72.8886819,48.7835755 72.8886819,49.0239203 C72.8886819,49.171449 72.810521,49.252541 72.6649463,49.252541 M43.9613256,35.1357019 C43.8519003,35.2705295 43.7053486,36.5982881 43.7200037,37.3300697 C43.7258658,37.60461 43.6916704,37.8215065 43.6437968,37.8215065 C43.5969003,37.8215065 43.5500037,38.0276559 43.5412106,38.2787479 C43.5314405,38.5298398 43.4444865,38.8493226 43.3467853,38.9880582 C43.2500612,39.1248398 43.1689692,39.3300123 43.1689692,39.4394375 C43.1689692,39.5537479 43.066383,39.737426 42.9296014,39.8683456 C42.7517853,40.0363916 42.7097738,40.1761042 42.7664405,40.4047249 C42.8631646,40.7906444 42.5866704,41.0134031 42.0033945,41.0184378 C41.6262681,41.0212192 41.5588543,40.9831157 41.4943715,40.7251847 C41.4543141,40.5620238 41.4748313,40.2386329 41.5402911,40.0109893 C41.6077049,39.7765065 41.6467853,39.3417364 41.6301761,39.0212766 C41.5920727,38.3246674 41.8568428,36.4947249 42.0669003,35.992541 C42.1821876,35.7199548 42.1919577,35.4903571 42.1089118,35.0897824 C41.961383,34.381449 41.9867853,34.0678283 42.209544,33.8509318 C42.3219003,33.7415065 42.3697738,33.5588054 42.3346014,33.3751272 C42.3043141,33.2148973 42.3492566,32.9462192 42.4323026,32.7918513 C42.5163256,32.6365065 42.5896014,32.3639203 42.5915554,32.1919663 C42.5954635,32.0209893 42.636498,31.8773686 42.6833945,31.8773686 C42.7293141,31.8773686 42.7771876,31.7581732 42.7869577,31.6204146 C42.7957509,31.4797249 42.8573026,31.0547249 42.9237394,30.6775985 C42.9901761,30.297541 43.061498,29.6605295 43.0839692,29.2492077 C43.1054635,28.8378858 43.1640842,28.4392651 43.2148888,28.3571962 C43.2647164,28.2770812 43.317475,27.8999548 43.3291991,27.5345525 C43.3419003,27.1681732 43.4093141,26.7920238 43.4777049,26.7119088 C43.5470727,26.6298398 43.6389118,26.2536904 43.6819003,25.876564 C43.8235669,24.6425985 43.8431072,24.5126559 44.0101761,23.750587 C44.1000612,23.3392651 44.2300037,22.8927709 44.2954635,22.7677134 C44.3619003,22.6426559 44.3843715,22.5078283 44.3472451,22.4707019 C44.2593141,22.3808169 44.5416704,21.7047249 44.6667279,21.7047249 C44.7165554,21.7047249 44.7556359,21.4761042 44.7527049,21.202541 C44.7487968,20.9280008 44.7810382,20.6446674 44.8210957,20.5792077 C44.8621302,20.5127709 44.9236819,20.0877709 44.9578773,19.6305295 C44.9930497,19.1732881 45.0594865,18.7219088 45.10736,18.6242077 C45.1542566,18.5255295 45.2275325,18.2187479 45.272475,17.9324835 C45.356498,17.3843801 45.530406,16.7776559 45.7238543,16.355587 C45.8127623,16.1611617 45.8039692,16.0673686 45.6896589,15.9950697 C45.609544,15.9452421 45.5655784,15.851449 45.5987968,15.8016215 C45.6329922,15.7478858 45.694544,15.2466789 45.7355784,14.6751272 C45.8215554,13.4978283 46.0824175,12.5608743 46.3237394,12.5608743 C46.5191417,12.5608743 46.5435669,12.2697249 46.3579348,12.1573686 C46.2787968,12.108518 46.2748888,12.0391502 46.3471876,11.9658743 C46.4126474,11.9013916 46.4370727,11.7831732 46.4038543,11.6923111 C46.3716129,11.600472 46.3833371,11.4461042 46.4331646,11.3317939 C46.4790842,11.2233456 46.5318428,10.9488054 46.547475,10.7319088 C46.5631072,10.5111042 46.6578773,10.0177134 46.7585095,9.62886283 C46.8601187,9.24001226 46.9412106,8.79547203 46.9412106,8.63426513 C46.9412106,8.47110421 47.0193715,8.10863295 47.1190267,7.81162145 C47.2157509,7.51949502 47.3193141,6.94305823 47.3476474,6.53075938 C47.3750037,6.12041456 47.4531646,5.71495479 47.5186244,5.63386283 C47.5850612,5.55179387 47.655406,5.21081685 47.6759233,4.86788582 C47.7267279,4.033518 48.0266704,3.41604674 48.3813256,3.41604674 C48.5337394,3.41604674 48.8219577,3.31443754 49.0271302,3.18840306 C49.2332796,3.06139157 49.5517853,2.97150651 49.7413256,2.98713869 C50.0598313,3.01449502 50.0823026,3.04478237 50.0500612,3.41116168 C50.031498,3.62805823 49.9572451,3.84300076 49.8849463,3.89087433 C49.8165554,3.93581685 49.7891991,4.01202375 49.8273026,4.05110421 C49.86736,4.09018467 49.8507509,4.25627662 49.7931072,4.40478237 C49.7325325,4.56305823 49.6573026,4.84541456 49.6211532,5.05058697 C49.5029348,5.73644904 49.183452,6.78478237 49.0486244,6.92547203 C48.9411532,7.03880536 48.9372451,7.17167892 49.0329922,7.48041456 C49.1287394,7.78915019 49.1248313,7.97869042 49.016383,8.2747249 C48.9362681,8.49162145 48.9059807,8.78863295 48.9470152,8.94886283 C48.9987968,9.14524214 48.9479922,9.3543226 48.7877623,9.61713869 C48.6548888,9.83501226 48.5796589,10.1046674 48.6148313,10.240472 C48.6861532,10.5150123 48.4633945,11.4177709 48.3246589,11.4177709 C48.2670152,11.4177709 48.2337968,11.59461 48.250406,11.8232306 C48.2660382,12.0518513 48.2367279,12.2540927 48.1820152,12.2863341 C48.1282796,12.3175985 48.0843141,12.5725985 48.0843141,12.8461617 C48.0843141,13.1207019 48.0374175,13.3776559 47.9817279,13.4118513 C47.9240842,13.4470238 47.8791417,13.640472 47.8791417,13.8466215 C47.8791417,14.0527709 47.822475,14.3605295 47.7531072,14.5383456 C47.6856934,14.7102996 47.6270727,15.0356444 47.6270727,15.2408169 C47.6270727,15.4498973 47.5440267,15.8240927 47.4443715,16.0644375 C47.3369003,16.3213916 47.2616704,16.8128283 47.2616704,17.2475985 C47.2616704,17.7497824 47.1913256,18.1357019 47.0447738,18.4415065 C46.9236244,18.6935755 46.8269003,19.0023111 46.8269003,19.1390927 C46.8269003,19.2739203 46.7770727,19.5338054 46.714544,19.7165065 C46.6051187,20.0398973 46.1820727,22.562541 46.0833945,23.4770238 C45.9944865,24.3113916 45.949544,24.5595525 45.8782221,24.6308743 C45.8342566,24.6748398 45.7981072,24.8712192 45.7981072,25.0656444 C45.7981072,25.2639778 45.7179922,25.6713916 45.615406,25.9908743 C45.5128198,26.3113341 45.4209807,26.7138628 45.4063256,26.9053571 C45.3203486,28.0377134 45.1835669,28.7636329 45.0243141,28.940472 C44.8894865,29.0889778 44.8347738,29.3977134 44.8269577,30.0601272 C44.8201187,30.5632881 44.766383,31.0107594 44.7067853,31.0547249 C44.6452336,31.0996674 44.593452,31.2833456 44.5875899,31.4777709 C44.5690267,32.083518 44.4019577,33.189495 44.3101187,33.3067364 C44.2612681,33.3682881 44.2212106,33.615472 44.2212106,33.8440927 C44.2212106,34.3355295 44.0932221,34.973518 43.9613256,35.1357019 M84.1409233,10.3088628 C84.0940267,10.1955295 84.034429,10.0001272 84.0100037,9.87409272 C83.9846014,9.74903525 83.9152336,9.62788582 83.8556359,9.60541456 C83.7950612,9.58294329 83.6739118,9.39438007 83.5820727,9.17748352 C83.2811532,8.46817318 82.2728773,7.75983984 81.5635669,7.75983984 C81.3808658,7.75983984 81.23236,7.72173639 81.23236,7.67386283 C81.23236,7.62696628 80.8376474,7.46869042 80.3462106,7.32018467 C79.8547738,7.17070191 79.358452,7.008518 79.2314405,6.95478237 C79.105406,6.90006973 78.6256934,6.77501226 78.1577049,6.67438007 C77.6887394,6.57277088 77.0263256,6.38616168 76.6716704,6.25719616 C76.3189692,6.12725364 75.6311532,5.95041456 75.1397164,5.86248352 C74.6482796,5.77455249 73.9585095,5.59966743 73.6028773,5.47363295 C73.2482221,5.34857548 72.6942566,5.24598927 72.3737968,5.24598927 C71.9741991,5.24598927 71.7191991,5.18248352 71.5619003,5.04277088 C71.3557509,4.86104674 71.116383,4.73305823 70.4539692,4.4497249 C70.3132796,4.3901272 69.9508083,4.31782835 69.6303486,4.28754099 C68.7500612,4.20254099 68.1491991,4.08627662 68.0856934,3.98759846 C67.968452,3.80880536 66.2821302,3.41604674 65.6304635,3.41604674 C64.9670727,3.41604674 63.4009233,2.99886283 63.4009233,2.82202375 C63.4009233,2.77219616 63.1556934,2.73018467 62.8586819,2.73018467 C62.5606934,2.73018467 61.6178773,2.55529961 60.7717853,2.34231111 C59.9266704,2.1293226 58.872475,1.91731111 58.4406359,1.8743226 C57.3541991,1.76587433 57.1070152,1.71506973 56.7259807,1.52455249 C56.5413256,1.43271341 56.0743141,1.30277088 55.6747164,1.23340306 C55.1490842,1.14156398 54.9351187,1.05265593 54.8852911,0.902196165 C54.8413256,0.76834559 54.6683945,0.67650651 54.3938543,0.639380073 C53.6737968,0.543632946 52.2717853,0.220242142 52.0617279,0.103000762 C51.8106359,-0.0386659043 51.7696014,-0.0367118813 51.7148888,0.124495015 C51.6894865,0.200701912 51.4110382,0.247598464 50.9987394,0.244667429 C50.5307509,0.240759383 50.288452,0.287655935 50.206383,0.399035245 C50.0002336,0.677483521 49.2391417,0.885586969 48.839544,0.771276624 C48.3588543,0.635472027 47.65736,0.64426513 47.570406,0.78788582 C47.5235095,0.866046739 47.4326474,0.866046739 47.2841417,0.78788582 C47.1620152,0.723403061 46.889429,0.673575475 46.6617853,0.673575475 C46.3296014,0.673575475 46.2319003,0.730242142 46.124429,0.987196165 C46.0501761,1.16598927 45.9309807,1.45029961 45.8498888,1.6447249 C45.7687968,1.83915019 45.6447164,2.13616168 45.5636244,2.33058697 C45.4825325,2.52501226 45.4366129,2.72236858 45.4571302,2.78782835 C45.525521,3.0047249 45.4551761,4.34909272 45.3652911,4.53667892 C45.3144865,4.64317318 45.2578198,4.93725364 45.2382796,5.18834559 C45.2197164,5.43943754 45.1650037,5.72277088 45.1181072,5.81656398 C45.0712106,5.9113341 44.9959807,6.29725364 44.9520152,6.67438007 C44.9090267,7.05150651 44.7693141,7.55759846 44.6442566,7.79989731 C44.5191991,8.04024214 44.4459233,8.33334559 44.4840267,8.44570191 C44.5221302,8.56001226 44.4996589,8.68506973 44.4322451,8.72610421 C44.3638543,8.7681157 44.337475,8.84139157 44.3697164,8.89708122 C44.4009807,8.94983984 44.34236,9.15989731 44.2436819,9.3543226 C44.1450037,9.54874789 44.08736,9.81742605 44.1176474,9.93759846 C44.1508658,10.0636329 44.1303486,10.1877134 44.0727049,10.2228858 C44.0150612,10.2580582 43.9701187,10.411449 43.9701187,10.5716789 C43.9701187,10.7319088 43.909544,10.9683456 43.83236,11.1090352 C43.7561532,11.2487479 43.657475,11.6346674 43.6096014,11.9775985 C43.5617279,12.3205295 43.4630497,12.6331732 43.3868428,12.6810467 C43.2490842,12.7670238 43.2168428,14.2178858 43.3419003,14.6301847 C43.3731646,14.7317939 43.3252911,14.8744375 43.232475,14.9555295 C43.1259807,15.0473686 43.0888543,15.2124835 43.1298888,15.4186329 C43.1631072,15.58961 43.1308658,15.852426 43.060521,15.9843226 C42.9882221,16.1191502 42.9266704,16.4923686 42.9237394,16.8128283 C42.9208083,17.1371962 42.8143141,17.7038628 42.6833945,18.0927134 C42.5397738,18.5196674 42.4362106,19.1732881 42.4147164,19.7790352 C42.3922451,20.441449 42.3199463,20.861564 42.1958658,21.0530582 C41.9437968,21.4419088 41.785521,22.0320238 41.9125325,22.1101847 C42.0708083,22.2078858 42.045406,22.6084605 41.8441417,23.1907594 C41.6829348,23.6577709 41.5471302,24.3338628 41.3859233,25.4769663 C41.3546589,25.6967939 41.2589118,26.0827134 41.1719577,26.3338054 C40.9990267,26.8398973 40.9023026,27.3284031 40.8348888,28.0377134 C40.8114405,28.2888054 40.7352336,28.514495 40.6658658,28.5398973 C40.5877049,28.5692077 40.5408083,28.9228858 40.5408083,29.4836904 C40.5408083,29.9751272 40.4626474,30.7166789 40.3688543,31.1231157 C40.2740842,31.5354146 40.2066704,31.9076559 40.2174175,31.9574835 C40.2516129,32.1167364 40.0571876,32.9520812 39.9301761,33.192426 C39.8637394,33.3174835 39.8012106,33.4982306 39.7914405,33.5920238 C39.7083945,34.4039203 39.4494865,35.5186904 39.3048888,35.6838054 C39.1847164,35.821564 39.1700612,35.9221962 39.2540842,36.0267364 C39.3742566,36.1771962 39.3547164,38.1761617 39.2208658,39.3417364 C39.1798313,39.6963916 39.1641991,40.0139203 39.1856934,40.0393226 C39.2091417,40.0647249 39.1192566,40.1985755 38.981498,40.3480582 C38.726498,40.6225985 38.5252336,41.182426 38.5789692,41.4677134 C38.5955784,41.5556444 38.7352911,41.9024835 38.8886819,42.2336904 C39.0420727,42.5648973 39.1690842,42.8882881 39.1690842,42.9478858 C39.1690842,43.0074835 39.3713256,43.2800697 39.6204635,43.5536329 C39.8696014,43.8281732 40.0747738,44.0890352 40.0777049,44.1369088 C40.0806359,44.1877134 40.1246014,44.2228858 40.1861532,44.2228858 C40.2437968,44.2228858 40.4489692,44.3723686 40.6551187,44.5658169 C40.8602911,44.7582881 41.0908658,44.9087479 41.1807509,44.9087479 C41.2716129,44.9087479 41.3409807,44.9575985 41.3409807,45.0230582 C41.3409807,45.087541 41.4435669,45.1373686 41.5803486,45.1373686 C41.7825899,45.1373686 43.0781072,45.6932881 44.0033371,46.1788628 C44.1069003,46.2325985 44.3296589,46.280472 44.4781646,46.280472 C44.6266704,46.280472 44.7898313,46.3342077 44.8269577,46.3947824 C44.8660382,46.4592651 44.9930497,46.5081157 45.1181072,46.5081157 C45.2402336,46.5081157 45.443452,46.5598973 45.5694865,46.6234031 C45.695521,46.6859318 45.9016704,46.788518 46.0267279,46.8510467 C46.1508083,46.9135755 46.4097164,46.9663341 46.5924175,46.9663341 C46.7760957,46.9663341 47.0662681,47.0181157 47.227475,47.0796674 C47.3935669,47.1441502 47.7755784,47.2047249 48.0960382,47.217426 C48.4731646,47.2320812 48.7291417,47.3102421 48.8502911,47.4460467 C48.9519003,47.5603571 49.10236,47.6512192 49.18736,47.6512192 C49.27236,47.6512192 49.4443141,47.7411042 49.5703486,47.8495525 C49.8859233,48.1240927 50.8277623,48.3292651 51.7881646,48.3341502 C52.3362681,48.3370812 52.7348888,48.4093801 53.0563256,48.5657019 C53.3171876,48.6927134 53.7998313,48.8461042 54.1427623,48.9086329 C54.4856934,48.9721387 54.795406,49.081564 54.8403486,49.1548398 C54.88236,49.2251847 55.0396589,49.254495 55.1764405,49.2173686 C55.3190842,49.1802421 55.5828773,49.2261617 55.7655784,49.3199548 C55.9639118,49.422541 56.3371302,49.4801847 56.6917853,49.4635755 C57.0229922,49.4479433 57.513452,49.5163341 57.7997164,49.6179433 C58.0810957,49.7175985 58.703452,49.9149548 59.1714405,50.0517364 C59.640406,50.189495 60.2383371,50.3761042 60.49236,50.4640352 C60.743452,50.5509893 61.1166704,50.6232881 61.3091417,50.6232881 C61.5035669,50.6232881 61.681383,50.6701847 61.7028773,50.7268513 C61.7478198,50.8480008 62.1317853,50.9408169 63.035521,51.0443801 C63.3667279,51.0834605 63.6666704,51.1586904 63.6989118,51.212426 C63.7291991,51.2651847 63.9441417,51.3091502 64.1727623,51.3091502 C64.399429,51.3091502 64.8009807,51.4088054 65.0530497,51.5270238 C65.3080497,51.6462192 65.7838543,51.7722536 66.1160382,51.806449 C66.4472451,51.8416215 66.9074175,51.9617939 67.1448313,52.0751272 C67.5141417,52.2519663 67.8306934,52.2763916 69.4310382,52.2461042 C70.9043715,52.2197249 71.3371876,52.2470812 71.5277049,52.3789778 C71.7543715,52.5372536 72.0767853,52.5382306 73.0821302,52.3848398 C73.3009807,52.3506444 73.6253486,52.1611042 73.8539692,51.9324835 C74.0708658,51.715587 74.3307509,51.5377709 74.431383,51.5377709 C74.5935669,51.5377709 74.6570727,51.3433456 74.6091991,50.9896674 C74.599429,50.9124835 74.6707509,50.8519088 74.7743141,50.8519088 C74.8769003,50.8519088 74.9843715,50.7776559 75.019544,50.6809318 C75.0547164,50.5871387 75.2462106,50.3380008 75.4435669,50.1318513 C75.6389692,49.9257019 75.8802911,49.6355295 75.9721302,49.4919088 C76.3629348,48.8861617 76.551498,48.7093226 76.8778198,48.6438628 C77.0947164,48.6008743 77.236383,48.486564 77.2891417,48.31461 C77.3340842,48.1661042 77.4337394,47.977541 77.5177623,47.8808169 C77.5998313,47.7850697 77.7219577,47.4978283 77.7913256,47.2350123 C77.8616704,46.9721962 77.996498,46.6966789 78.0941991,46.617541 C78.1977623,46.533518 78.2651761,46.3029433 78.255406,46.0625985 C78.2339118,45.5262192 78.3785095,44.5452996 78.5006359,44.3938628 C78.5573026,44.324495 78.6237394,44.0167364 78.6491417,43.7080008 C78.674544,43.3992651 78.7517279,43.1276559 78.8210957,43.1022536 C78.8914405,43.0768513 78.9461532,42.8169663 78.9461532,42.5082306 C78.9461532,42.2102421 78.9959807,41.941564 79.0546014,41.9190927 C79.1151761,41.8975985 79.1943141,41.5478283 79.2314405,41.1365065 C79.270521,40.7251847 79.3731072,40.245472 79.4639692,40.0617939 C79.6623026,39.6621962 79.6779348,39.4218513 79.5059807,39.4218513 C79.4278198,39.4218513 79.4131646,39.3475985 79.4659233,39.221564 C79.5137968,39.1111617 79.5655784,38.7926559 79.5831646,38.5073686 C79.6232221,37.8449548 79.701383,37.4180008 79.8166704,37.2274835 C79.864544,37.1473686 79.9221876,36.844495 79.9407509,36.5699548 C79.9593141,36.2954146 80.0247738,35.8850697 80.0833945,35.6779433 C80.1420152,35.4727709 80.1654635,35.229495 80.1351761,35.1523111 C80.1039118,35.0741502 80.1830497,34.6843226 80.3120152,34.2837479 C80.4409807,33.8841502 80.546498,33.4142077 80.546498,33.2383456 C80.546498,33.0663916 80.5914405,32.8885755 80.6432221,32.8553571 C80.6950037,32.8221387 80.716498,32.6609318 80.6891417,32.512426 C80.6588543,32.3473111 80.7370152,32.0727709 80.8786819,31.8441502 C81.0125325,31.6262766 81.1180497,31.3722536 81.1180497,31.2667364 C81.1180497,31.1631732 81.1571302,31.0771962 81.2040267,31.0771962 C81.2509233,31.0771962 81.2919577,30.8319663 81.2948888,30.5349548 C81.2987968,30.2389203 81.3369003,29.706449 81.3808658,29.363518 C81.4248313,29.020587 81.481498,28.5418513 81.5069003,28.3112766 C81.5313256,28.0836329 81.5889692,27.830587 81.6319577,27.7631732 C81.6769003,27.6928283 81.7306359,27.3743226 81.7531072,27.0431157 C81.7746014,26.7119088 81.8508083,26.221449 81.9240842,25.9342077 C81.99736,25.6479433 82.080406,25.2034031 82.1126474,24.9337479 C82.1429348,24.6709318 82.2171876,24.4481732 82.2728773,24.4481732 C82.3285669,24.4481732 82.3696014,24.2771962 82.3627623,24.0710467 C82.3383371,23.3509893 82.5112681,22.0330008 82.671498,21.7281732 C82.7682221,21.543518 82.8327049,21.0647824 82.8327049,20.5391502 C82.8327049,19.5220812 83.010521,18.566564 83.2440267,18.3330582 C83.4247738,18.1523111 83.5127049,17.635472 83.5566704,16.4923686 C83.5732796,16.0468513 83.6172451,15.6443226 83.6553486,15.5837479 C83.693452,15.5251272 83.6856359,15.2584031 83.6387394,14.995587 C83.5762106,14.6467939 83.6133371,14.2862766 83.775521,13.6805295 C83.8976474,13.2242651 84.0168428,12.5110467 84.0383371,12.1036329 C84.0608083,11.6923111 84.1116129,11.171564 84.1526474,10.9380582 C84.1927049,10.7084605 84.1878198,10.4202421 84.1409233,10.3088628" id="Fill-1"></path>
                    <path d="M13.0058888,16.6581674 C12.8700842,16.5321329 12.765544,16.3210985 12.765544,16.1725927 C12.765544,15.8443169 13.1885899,15.3782824 13.6350842,15.2151215 C14.0806014,15.0519605 14.0806014,15.0519605 14.4342796,15.3265008 C14.8797968,15.6713858 14.9335325,15.7661559 14.9051991,16.1608686 C14.8846819,16.4461559 14.7889348,16.5487421 14.3434175,16.7656387 C13.7601417,17.049949 13.3966934,17.0206387 13.0058888,16.6581674 L13.0058888,16.6581674 Z M8.95226809,14.241041 C8.72950947,13.7720755 8.87508418,13.2356962 9.33721062,12.8253513 C9.84427959,12.372995 11.2922106,12.5723054 11.4856589,13.1204088 C11.922383,14.3553513 11.9272681,14.4354663 11.5931302,14.9269031 C11.3557164,15.2766732 11.2912336,15.3040295 10.6972106,15.3040295 C9.98790028,15.3040295 9.48278533,15.1144893 9.38703821,14.8125927 C9.35381982,14.7090295 9.27956694,14.6181674 9.22778533,14.6181674 C9.17502671,14.6181674 9.04996924,14.4462134 8.95226809,14.241041 L8.95226809,14.241041 Z M13.2227853,11.9773054 C13.2227853,11.6802939 13.281406,11.4985697 13.3888773,11.4575352 C13.4836474,11.4223628 13.5813486,11.3090295 13.617498,11.1947192 C13.6526704,11.0823628 13.8685899,10.9446042 14.1089348,10.8801215 C14.3492796,10.8166157 14.5681302,10.758972 14.6062336,10.7501789 C14.7508313,10.7169605 15.4630727,11.0012709 15.7600842,11.2113283 C15.9320382,11.3324778 16.0434175,11.4975927 16.0121532,11.5835697 C15.9818658,11.6636847 16.0150842,11.776041 16.080544,11.8180525 C16.254452,11.9284548 16.2251417,12.3661559 16.0268083,12.628972 C15.9408313,12.7432824 15.8607164,12.9220755 15.8587623,13.0060985 C15.8499692,13.3304663 15.406406,13.5766732 14.9599118,13.5043743 C13.8861761,13.3304663 13.2227853,12.7481674 13.2227853,11.9773054 L13.2227853,11.9773054 Z M30.3800842,28.095064 C30.2657738,28.2601789 30.0860037,28.7457536 29.9756014,29.1922479 C29.6912911,30.3353513 29.5769807,30.5913283 29.259452,30.7965008 C29.1109463,30.8932249 29.0191072,31.0270755 29.0601417,31.0896042 C29.0992221,31.1501789 29.092383,31.2947766 29.0464635,31.3973628 C28.9409463,31.6347766 28.8803715,32.0382824 28.8745095,32.5404663 C28.8715784,32.8267306 28.7983026,32.943972 28.5393945,33.0778226 C28.238475,33.2341444 28.1739922,33.2292594 27.8310612,33.026041 C27.6249118,32.9048916 27.3601417,32.6450065 27.2477853,32.4544893 C27.133475,32.261041 26.9712911,32.1066732 26.882383,32.1066732 C26.795429,32.1066732 26.6928428,32.008972 26.6596244,31.8946617 C26.625429,31.7803513 26.4710612,31.6181674 26.3215784,31.5409835 C26.1740497,31.4628226 25.9825554,31.2723054 25.9053715,31.1237996 C25.8281876,30.9752939 25.6679577,30.820926 25.5565784,30.7857536 C25.3601991,30.7261559 25.3621532,30.7007536 25.5966359,30.2435123 C25.7304865,29.9806962 25.9092796,29.6963858 25.9913486,29.6143169 C26.0704865,29.5351789 26.1388773,29.4081674 26.1388773,29.3397766 C26.1388773,29.2743169 26.2316934,29.1121329 26.3333026,28.9978226 C26.4358888,28.8835123 26.538475,28.695926 26.5511761,28.60311 C26.5629003,28.5044318 26.6293371,28.0892019 26.6996819,27.6661559 C26.7690497,27.24311 26.8198543,26.8044318 26.8139922,26.6774203 C26.797383,26.3462134 26.9488198,24.0746617 26.9976704,23.9105238 C27.0220957,23.8304088 27.1393371,23.762018 27.2536474,23.762018 C27.3679577,23.762018 27.6708313,23.6574778 27.9111761,23.5353513 C28.3908888,23.2910985 29.6082451,23.2139146 29.7372106,23.419087 C29.7753141,23.4806387 29.9570382,23.5343743 30.1280152,23.5343743 C30.618475,23.5343743 30.7533026,23.762018 30.5999118,24.3335697 C30.5022106,24.699949 30.5031876,24.8523628 30.6047968,24.9744893 C30.8910612,25.3183973 30.7279003,27.590926 30.3800842,28.095064 L30.3800842,28.095064 Z M26.3108313,36.2208686 C26.2189922,36.2208686 26.1388773,36.2746042 26.1388773,36.3361559 C26.1388773,36.3977077 26.0704865,36.4494893 25.9913486,36.4494893 C25.9092796,36.4494893 25.6386474,36.6556387 25.3904865,36.9077077 C25.1423256,37.1587996 24.8824405,37.363972 24.8130727,37.363972 C24.7446819,37.363972 24.5951991,37.4675352 24.4818658,37.5935697 C24.3685325,37.7186272 24.1936474,37.8221904 24.0930152,37.8221904 C23.990429,37.8221904 23.7842796,37.9228226 23.6250267,38.0508111 C23.4647968,38.1778226 23.2781876,38.2784548 23.2019807,38.2784548 C23.1247968,38.2784548 22.9958313,38.3702939 22.9098543,38.4846042 C22.6558313,38.8236272 21.8410037,39.1929375 21.350544,39.1929375 C21.098475,39.1929375 20.8669233,39.2369031 20.8356589,39.2906387 C20.8043945,39.3433973 20.5562336,39.3951789 20.2924405,39.404949 C19.9837049,39.4156962 19.7199118,39.5055812 19.566521,39.6501789 C19.4170382,39.7928226 19.1669233,39.8797766 18.9041072,39.8797766 C18.6676704,39.8797766 18.2641646,39.9374203 17.9896244,40.0106962 C17.2695669,40.2031674 16.931521,40.0761559 16.6354865,39.5016732 C16.5006589,39.2388571 16.3765784,38.8412134 16.3609463,38.6213858 C16.3443371,38.3986272 16.3023256,37.86811 16.2632451,37.4216157 C16.2075554,36.769949 16.2339348,36.5471904 16.4058888,36.2208686 C16.6051991,35.8466732 16.6638198,35.8163858 17.3496819,35.7411559 C17.7492796,35.6971904 18.3139922,35.5887421 18.5953715,35.5017881 C18.8806589,35.4119031 19.3359463,35.3308111 19.6183026,35.31811 C19.8928428,35.3063858 20.1820382,35.2536272 20.247498,35.2037996 C20.3149118,35.152018 20.5161761,35.0777651 20.7096244,35.0328226 C20.9020957,34.9878801 21.2411187,34.8296042 21.4814635,34.6723054 C21.7208313,34.5159835 21.9582451,34.3928801 22.0188198,34.3928801 C22.0784175,34.3928801 22.3207164,34.1525352 22.5610612,33.8555238 C23.4472106,32.7583398 23.3260612,32.8296617 23.8878428,33.0631674 C24.0920382,33.1481674 24.5053141,33.4666732 24.8247968,33.7871329 C25.602498,34.5638571 25.6953141,34.6928226 25.6191072,34.8843169 C25.5536474,35.0504088 25.8418658,35.4216732 26.0362911,35.4216732 C26.0978428,35.4216732 26.1408313,35.490064 26.1300842,35.5701789 C26.0880727,35.8671904 26.1418083,35.9932249 26.3108313,35.9932249 C26.4016934,35.9932249 26.4818083,36.0459835 26.4818083,36.1075352 C26.4818083,36.16811 26.4016934,36.2208686 26.3108313,36.2208686 L26.3108313,36.2208686 Z M14.3150842,33.0319031 C14.2808888,32.9762134 13.9662911,32.8384548 13.62336,32.7290295 C13.366406,32.6479375 13.1407164,32.5512134 13.0449692,32.4857536 C13.0117509,32.4642594 12.9941646,32.4456962 12.9941646,32.432995 C12.9941646,32.3812134 12.8915784,32.3352939 12.7772681,32.3352939 C12.7206014,32.3352939 12.6492796,32.3157536 12.5838198,32.2854663 C12.51836,32.2542019 12.4587623,32.2131674 12.4226129,32.1692019 C12.347383,32.0783398 12.1832451,31.9708686 12.0572106,31.9308111 C11.9634175,31.9015008 11.8266359,31.8057536 11.6703141,31.669949 C11.5139922,31.5341444 11.3371532,31.3563283 11.1622681,31.1638571 C10.899452,30.8746617 10.642498,30.5493169 10.4666359,30.2728226 C10.4080152,30.1800065 10.3581876,30.0930525 10.3200842,30.0148916 C10.2800267,29.9318456 10.2389922,29.8487996 10.1999118,29.7686847 C10.1207738,29.6084548 10.046521,29.4628801 9.99278533,29.3622479 C9.96542901,29.3124203 9.94393476,29.2733398 9.92927959,29.2489146 C9.89996924,29.201041 9.86577384,29.114087 9.83060143,29.0105238 C9.80617614,28.9352939 9.77979683,28.8532249 9.75439453,28.7613858 C9.71433706,28.6158111 9.67623361,28.4555812 9.64496924,28.3021904 C9.62933706,28.2259835 9.61468189,28.1507536 9.60295775,28.0794318 C9.57950947,27.9387421 9.56583131,27.8146617 9.56583131,27.7286847 C9.56583131,27.6544318 9.55117614,27.5743169 9.52772786,27.503972 C9.50427959,27.4326502 9.4710612,27.3710985 9.43393476,27.333972 C9.38703821,27.2870755 9.36261292,27.2313858 9.36053656,27.159087 C9.35870487,27.0867881 9.38019913,26.9969031 9.42221062,26.8825927 C9.4710612,26.7516732 9.54922212,26.4761559 9.61663591,26.2025927 C9.63813016,26.1107536 9.65962441,26.0198916 9.67818763,25.9339146 C9.79054396,25.4141444 9.90973936,24.9735123 10.0357738,24.610064 C10.1618083,24.2466157 10.2966359,23.9613283 10.4383026,23.7532249 C10.5799692,23.5441444 10.729452,23.4132249 10.8887049,23.3565582 C10.9688198,23.3282249 11.0508888,23.3194318 11.1339348,23.3292019 C11.2189348,23.337995 11.3049118,23.3663283 11.3947968,23.4132249 C11.4260612,23.4298341 11.4837049,23.4464433 11.5628428,23.4610985 C11.8002566,23.507995 12.2203715,23.5451215 12.6395095,23.5529375 C13.1368083,23.5617306 13.537383,23.5324203 13.8529577,23.4610985 C14.1685325,23.3897766 14.4000842,23.2764433 14.5603141,23.1191444 C14.6120957,23.0693169 14.7762336,23.0136272 14.977498,22.9696617 C15.0986474,22.9432824 15.2285899,22.9198341 15.3663486,22.9051789 C15.7317509,22.8670755 16.2290497,22.7635123 16.4869807,22.6706962 C16.7380727,22.5808111 17.0360612,22.5046042 17.1376704,22.5046042 C17.2363486,22.5046042 17.3643371,22.4098341 17.4366359,22.2935697 C17.441521,22.2867306 17.44836,22.2828226 17.4522681,22.2769605 C17.4854865,22.2163858 17.5616934,22.1392019 17.6584175,22.061041 C17.7463486,21.9897192 17.8518658,21.9193743 17.9612911,21.8587996 C17.9847394,21.8460985 18.0062336,21.8304663 18.0296819,21.8197192 C18.0922106,21.7874778 18.1566934,21.7493743 18.2201991,21.7083398 C18.3462336,21.6262709 18.465429,21.5305238 18.55336,21.4416157 C18.5973256,21.3976502 18.633475,21.3546617 18.6579003,21.3165582 C18.7057738,21.2423054 18.801521,21.1377651 18.9148543,21.0322479 C19.0291646,20.9257536 19.1610612,20.8163283 19.2812336,20.7332824 C19.5206014,20.5671904 19.7804865,20.2721329 19.8430152,20.0933398 C19.9260612,19.852018 19.99836,19.7552939 20.2748543,19.7728801 C20.331521,19.7767881 20.3940497,19.7846042 20.4683026,19.7973054 C20.6148543,19.8217306 20.8014635,19.8637421 21.0418083,19.9213858 C21.4072106,20.0083398 21.7628428,20.1656387 21.8185325,20.2643169 C21.861521,20.3415008 21.9953715,20.5124778 22.1526704,20.6942019 C22.205429,20.7547766 22.2611187,20.8163283 22.3158313,20.875926 C22.370544,20.9365008 22.4233026,21.0000065 22.4711761,21.0644893 C22.5649692,21.1944318 22.6401991,21.3253513 22.6792796,21.4318456 C22.6988198,21.4846042 22.710544,21.5305238 22.710544,21.5676502 C22.710544,21.6272479 22.7222681,21.7015008 22.7427853,21.7796617 C22.8053141,22.0160985 22.9460037,22.2974778 23.0642221,22.3942019 C23.1247968,22.4440295 23.1853715,22.5280525 23.2430152,22.6365008 C23.3573256,22.8524203 23.4579577,23.165064 23.5185325,23.4952939 C23.5488198,23.6594318 23.5693371,23.8284548 23.5761761,23.9906387 C23.5888773,24.273972 23.6338198,24.5700065 23.6963486,24.8289146 C23.73836,25.0018456 23.7881876,25.1581674 23.8409463,25.2842019 C23.9191072,25.4717881 24.0050842,25.5909835 24.0812911,25.5909835 C24.2307738,25.5909835 24.2307738,26.2436272 24.0812911,26.2924778 C24.0597968,26.3002939 24.0383026,26.3520755 24.0177853,26.4224203 C23.9738198,26.5787421 23.9357164,26.8601215 23.9220382,27.1913283 C23.9171532,27.3085697 23.9103141,27.4306962 23.901521,27.5498916 C23.8761187,27.9104088 23.8360612,28.2513858 23.7999118,28.3920755 C23.7530152,28.5767306 23.6347968,28.8717881 23.5068083,29.1560985 C23.3260612,29.5576502 23.1218658,29.9347766 23.0642221,29.9347766 C23.0427279,29.9347766 22.9929003,29.96311 22.9313486,30.0070755 C22.8697968,30.051041 22.796521,30.1106387 22.7271532,30.1741444 C22.6411761,30.2552364 22.5835325,30.3343743 22.5532451,30.4125352 C22.5229577,30.4897192 22.5200267,30.5669031 22.544452,30.64311 C22.5581302,30.6860985 22.5620382,30.730064 22.5542221,30.7769605 C22.5297968,30.9166732 22.3959463,31.0856962 22.1047968,31.3641444 C21.6221532,31.8243169 21.4531302,31.8975927 20.4585325,32.0656387 C20.417498,32.0724778 20.3793945,32.0822479 20.3403141,32.091041 C20.2807164,32.1066732 20.2230727,32.1223054 20.1742221,32.1408686 C20.1341646,32.1565008 20.0989922,32.1721329 20.0726129,32.1877651 C20.0462336,32.2033973 20.0266934,32.2180525 20.0179003,32.2317306 C19.9837049,32.2883973 19.8410612,32.3362709 19.7033026,32.3382249 C19.3496244,32.3421329 18.6090497,32.6147192 18.3433026,32.8394318 C18.3032451,32.8736272 18.2583026,32.9019605 18.207498,32.9254088 C18.1068658,32.9732824 17.9837623,32.9986847 17.8245095,33.0055238 C17.7443945,33.0094318 17.6554865,33.0084548 17.5548543,33.0035697 C17.4776704,32.9996617 17.4024405,32.9986847 17.3311187,32.9986847 C17.1181302,33.0006387 16.9481302,33.0221329 16.9149118,33.0553513 C16.9012336,33.0690295 16.851406,33.0817306 16.7732451,33.0915008 C16.2349118,33.1608686 14.3766359,33.1325352 14.3150842,33.0319031 L14.3150842,33.0319031 Z M13.4689922,39.9471904 C13.363475,40.1758111 13.2970382,40.2119605 13.1368083,40.1250065 C13.024452,40.0634548 12.8056014,40.0409835 12.6346244,40.0732249 C12.4626704,40.1064433 12.2995095,40.0761559 12.257498,40.0048341 C12.2164635,39.9364433 12.0288773,39.8797766 11.8461761,39.8797766 C11.662498,39.8797766 11.5081302,39.8319031 11.5081302,39.7762134 C11.5081302,39.7195467 11.3596244,39.6452939 11.1769233,39.6101215 C10.9942221,39.575926 10.7685325,39.4713858 10.6737623,39.3756387 C10.5789922,39.2808686 10.302498,39.1714433 10.051406,39.1304088 C9.76514166,39.0835123 9.44858993,38.9135123 9.18772786,38.6673054 C8.95910717,38.4513858 8.72853246,38.2784548 8.66795775,38.2784548 C8.60249798,38.2784548 8.54290028,38.2423054 8.519452,38.1875927 C8.46376235,38.0615582 7.65968189,37.4792594 7.54244051,37.4792594 C7.4906589,37.4792594 7.39100373,37.3815582 7.31381982,37.2565008 C7.23761292,37.1324203 6.98163591,36.940926 6.74226809,36.8275927 C6.50192327,36.7132824 6.17169338,36.4934548 6.00462441,36.3361559 C5.83657844,36.1769031 5.56496924,35.9267881 5.39301522,35.7724203 C5.05008418,35.4636847 4.85663591,35.0484548 4.94652097,34.814949 C4.97876235,34.7338571 4.84491177,34.4896042 4.65048648,34.2727077 C4.32123361,33.9063283 4.3114635,33.8672479 4.50198074,33.7314433 C4.99341752,33.3816732 5.11358993,33.2312134 5.05496924,33.0436272 C5.02175085,32.941041 5.04129108,32.773972 5.0940497,32.689949 C5.19956694,32.5238571 5.27870487,32.4935697 5.93037154,32.3724203 C6.10232556,32.3401789 6.2498543,32.2698341 6.2498543,32.2209835 C6.2498543,32.0402364 8.07979683,31.7656962 8.28496924,31.9151789 C8.3582451,31.9679375 8.42272786,32.1066732 8.42272786,32.2092594 C8.42272786,32.3186847 8.51163591,32.5004088 8.62790028,32.6264433 C8.74416464,32.7524778 8.86629108,32.9371329 8.90830258,33.0494893 C8.94933706,33.1598916 9.114452,33.3083973 9.27370487,33.3806962 C9.43393476,33.452995 9.56583131,33.5819605 9.56583131,33.6669605 C9.56583131,33.7470755 9.62054396,33.8213283 9.68014166,33.8213283 C9.74071637,33.8213283 9.79347499,33.9004663 9.79347499,33.9923054 C9.79347499,34.0841444 9.85502671,34.1632824 9.92537154,34.1632824 C9.99767039,34.1632824 10.217498,34.2854088 10.4109463,34.4309835 C10.8457164,34.7592594 11.4827279,35.0787421 11.7025554,35.0787421 C11.920429,35.0787421 12.765544,35.5516157 12.765544,35.6727651 C12.765544,35.7225927 12.8915784,35.7646042 13.0400842,35.7646042 C13.2901991,35.7646042 13.3146244,35.8105238 13.3146244,36.2785123 C13.3146244,36.5647766 13.3478428,36.937995 13.3888773,37.1187421 C13.4299118,37.2985123 13.4093945,37.6844318 13.3429577,37.9814433 C13.2472106,38.4113283 13.2608888,38.63311 13.4113486,39.0903513 C13.5588773,39.5368456 13.5715784,39.7244318 13.4689922,39.9471904 L13.4689922,39.9471904 Z M3.85031407,29.8321904 C3.85031407,29.8888571 3.74675085,29.9347766 3.62169338,29.9347766 C3.4956589,29.9347766 3.39307269,29.9865582 3.39307269,30.049087 C3.39307269,30.1174778 3.35203821,30.1633973 3.29048648,30.1633973 C3.18887729,30.1633973 2.99542901,29.28311 3.05209568,29.0769605 C3.0706589,29.0144318 3.09703821,27.6544318 3.11267039,26.054087 C3.13807269,23.4708686 3.16347499,23.1289146 3.33640602,23.0028801 C3.43899223,22.9266732 3.50542901,22.7889146 3.4790497,22.7107536 C3.45071637,22.6296617 3.54939453,22.3336272 3.69594625,22.059087 C3.84249798,21.7855238 3.96462441,21.4885123 3.96462441,21.4074203 C3.96462441,21.2247192 4.38180832,20.4929375 4.73353246,20.0591444 C4.87226809,19.8871904 4.99341752,19.6751789 4.99341752,19.6019031 C4.99341752,19.429949 5.22692327,19.1905812 5.39301522,19.1905812 C5.46140602,19.1905812 5.66071637,19.4133398 5.82778533,19.6761559 C5.99387729,19.937995 6.37002671,20.362018 6.64456694,20.5965008 C6.91910717,20.8309835 7.18290028,21.125064 7.21611867,21.2364433 C7.25031407,21.3478226 7.40468189,21.5002364 7.55318763,21.5676502 C7.79939453,21.6809835 7.82284281,21.7503513 7.78473936,22.2417881 C7.71048648,23.1797192 7.67042901,23.340926 7.38416464,23.8763283 C7.22979683,24.1625927 7.10278533,24.4977077 7.09594625,24.6315582 C7.06858993,25.1913858 6.91617614,26.1332249 6.79893476,26.4595467 C6.70611867,26.7213858 6.71002671,27.0652939 6.81261292,27.7746042 C6.96209568,28.8033973 6.9806589,29.1258111 6.89858993,29.2147192 C6.86927959,29.2459835 6.49117614,29.287995 6.06715315,29.3075352 C5.00514166,29.3563858 3.85031407,29.628972 3.85031407,29.8321904 L3.85031407,29.8321904 Z M4.39353246,11.2005812 C4.21083131,11.0276502 4.08088878,10.7833973 4.08479683,10.6173054 C4.08968189,10.3789146 4.21571637,10.2724203 4.8556589,9.97052375 C5.63336005,9.60414444 5.90496924,9.52793754 5.89910717,9.68035134 C5.89813016,9.72529387 5.82583131,9.88552375 5.73594625,10.0457536 C5.6460612,10.2059835 5.57376235,10.4277651 5.57083131,10.5489146 C5.56692327,10.671041 5.37640602,10.927018 5.1360612,11.1321904 L4.70715315,11.4975927 L4.39353246,11.2005812 Z M6.70709568,13.5551789 C6.71393476,13.4525927 6.75692327,13.3607536 6.79893476,13.3607536 C6.84290028,13.3607536 7.00899223,13.0354088 7.16433706,12.6465582 C7.3206589,12.2577077 7.5414635,11.8307536 7.65088878,11.7096042 C7.75738304,11.5904088 7.85117614,11.3656962 7.85117614,11.2289146 C7.85117614,11.0716157 8.01629108,10.8371329 8.27910717,10.6231674 C8.519452,10.4287421 8.8086474,10.1239146 8.93663591,9.93144329 C9.06657844,9.73799502 9.20433706,9.58851226 9.25709568,9.58851226 C9.34795775,9.58851226 10.0396819,9.13127088 10.13836,9.00523639 C10.2321532,8.887018 11.0743371,8.52552375 11.4514635,8.44247777 C12.0230152,8.3174203 14.2076129,8.41805249 14.5036474,8.58414444 C14.6521532,8.66719042 14.7938198,8.76586858 14.8289922,8.81178812 C14.8631876,8.85477662 15.2285899,9.04529387 15.6291646,9.22897203 C16.0287623,9.41167318 16.4811187,9.67644329 16.6179003,9.80638582 C16.7546819,9.93730536 16.8904865,10.0457536 16.9149118,10.0457536 C17.0380152,10.0457536 17.8811761,10.9377651 17.9964635,11.1888571 C18.0687623,11.34811 18.293475,11.8297766 18.5035325,12.2752939 C18.8415784,12.9904663 18.8806589,13.1780525 18.8738198,14.0466157 C18.8640497,15.2356387 18.6510612,16.3748341 18.3393945,16.9043743 C18.123475,17.2697766 17.0497394,18.3904088 16.9149118,18.3904088 C16.8836474,18.3904088 16.6237623,18.6219605 16.337498,18.9043169 C16.0522106,19.1866732 15.7307738,19.4192019 15.6233026,19.4192019 C15.5148543,19.4192019 15.2403141,19.5677077 15.0009463,19.7562709 C14.7606014,19.9448341 14.4010612,20.1558686 14.1831876,20.2359835 C13.9662911,20.3160985 13.7943371,20.4245467 13.7943371,20.4821904 C13.7943371,20.5896617 13.0058888,20.533972 12.0230152,20.3571329 C11.2912336,20.2252364 10.9365784,20.1021329 10.9365784,19.9790295 C10.9365784,19.9223628 10.7138198,19.8754663 10.4402566,19.8754663 C10.1657164,19.8754663 9.90387729,19.8373628 9.85698074,19.7904663 C9.81008418,19.7435697 9.58244051,19.6527077 9.35381982,19.5901789 C9.10272786,19.5217881 8.89169338,19.3742594 8.82232556,19.2189146 C8.76175085,19.0811559 8.61422212,18.9619605 8.50772786,18.9619605 C8.38853246,18.9619605 8.30744051,18.8759835 8.30744051,18.749949 C8.30744051,18.6307536 8.21071637,18.4509835 8.08468189,18.3386272 C7.96157844,18.2282249 7.82870487,17.9898341 7.78767039,17.8071329 C7.74663591,17.6244318 7.64209568,17.4358686 7.55318763,17.386041 C7.38221062,17.2902939 7.02169338,16.5106387 7.10767039,16.4236847 C7.13893476,16.3933973 7.08715315,16.1784548 6.99336005,15.9498341 C6.89956694,15.7212134 6.84778533,15.5326502 6.8790497,15.5326502 C6.91129108,15.5326502 6.86830258,15.4183398 6.77939453,15.2698341 C6.64652097,15.0451215 6.63284281,14.7324778 6.70709568,13.5551789 L6.70709568,13.5551789 Z M13.8461187,5.17730536 C13.9946244,4.76500651 14.1353141,4.41816743 14.1607164,4.39960421 C14.7088198,3.98535134 14.7293371,3.98535134 15.1435899,4.39960421 C15.3604865,4.61650076 15.6223256,4.78845479 15.7376129,4.78845479 C16.0238773,4.78845479 16.1313486,4.9936272 16.0922681,5.46259272 C16.0531876,5.9198341 15.6868083,6.30673065 15.3839348,6.21098352 C15.2774405,6.17678812 14.9892221,6.12500651 14.7488773,6.09667318 C14.5095095,6.06931685 14.1431302,6.01655823 13.9428428,5.98236283 L13.5774405,5.9198341 L13.8461187,5.17730536 Z M21.4638773,12.3251215 C21.6280152,12.2244893 21.8410037,12.2557536 22.8248543,12.5185697 C23.1697394,12.6104088 23.7618083,12.8331674 24.1389348,13.0119605 C24.5160612,13.1917306 25.0456014,13.3969031 25.3162336,13.4692019 C25.5907738,13.5434548 25.8956014,13.6860985 26.0079577,13.7955238 C26.1203141,13.903972 26.4134175,14.1247766 26.6762336,14.2977077 C26.9390497,14.4716157 27.1774405,14.7090295 27.219452,14.840926 C27.2595095,14.9669605 27.3435325,15.0754088 27.4021532,15.0754088 C27.4627279,15.0754088 27.5135325,15.1379375 27.5164635,15.2180525 C27.5193945,15.2981674 27.7460612,15.6127651 28.0303715,15.9322479 C28.3156589,16.2527077 28.5393945,16.5467881 28.5393945,16.6015008 C28.5393945,16.6562134 28.6400267,16.8408686 28.7680152,17.0245467 C28.8969807,17.2072479 28.9878428,17.389949 28.9770957,17.4417306 C28.9448543,17.5912134 29.2086474,18.1617881 29.4587623,18.4812709 C29.5847968,18.6415008 29.682498,18.8535123 29.682498,18.9619605 C29.682498,19.0684548 29.8114635,19.3039146 29.9707164,19.4875927 C30.3488198,19.9233398 30.2999692,20.1695467 29.8427279,20.1255812 C29.6512336,20.107995 29.2653141,20.1460985 28.9683026,20.2135123 C28.6136474,20.2936272 28.3371532,20.2955812 28.1397968,20.2193743 C27.8525554,20.108972 27.8076129,20.1187421 26.882383,20.5075927 C26.1281302,20.8241444 26.0616934,20.8221904 25.940544,20.4821904 C25.8018083,20.0933398 25.4940497,19.7347766 25.1335325,19.5423054 C24.9791646,19.4602364 24.8091646,19.25311 24.7446819,19.0704088 C24.6801991,18.8877077 24.5356014,18.7137996 24.413475,18.6756962 C24.2942796,18.6385697 24.1965784,18.5047192 24.1965784,18.3786847 C24.1965784,18.2526502 24.1213486,18.1217306 24.0304865,18.0875352 C23.9435325,18.0543169 23.8321532,17.9214433 23.7960037,17.8071329 C23.7598543,17.6928226 23.649452,17.5902364 23.561521,17.5902364 C23.4677279,17.5902364 23.310429,17.5433398 23.1961187,17.4817881 C23.0818083,17.4192594 22.9225554,17.3459835 22.8248543,17.3098341 C22.7330152,17.2766157 22.5727853,17.1994318 22.4819233,17.1447192 C22.3881302,17.0880525 22.1389922,16.9766732 21.9328428,16.8994893 C21.4638773,16.7216732 21.272383,16.3083973 21.4961187,15.9556962 C21.7589348,15.5385123 21.8361187,14.0925352 21.6348543,13.3265582 C21.5420382,12.9728801 21.4277279,12.6172479 21.3847394,12.5488571 C21.3388198,12.4775352 21.3730152,12.3817881 21.4638773,12.3251215 L21.4638773,12.3251215 Z M33.7341646,25.4874203 C33.677498,25.1601215 33.6286474,24.6510985 33.6149692,24.1967881 C33.6051991,23.8939146 33.5837049,23.592018 33.5573256,23.3516732 C33.5299692,23.1103513 33.4977279,22.9296042 33.4654865,22.8709835 C33.4351991,22.8113858 33.3980727,22.655064 33.3638773,22.4508686 C33.3443371,22.3385123 33.3277279,22.2115008 33.3120957,22.0786272 C33.2993945,21.9711559 33.2866934,21.8607536 33.2779003,21.7503513 C33.2681302,21.634087 33.2593371,21.5324778 33.251521,21.4386847 C33.250544,21.4201215 33.2485899,21.4025352 33.2476129,21.384949 C33.2319807,21.2061559 33.2173256,21.0615582 33.2026704,20.9316157 C33.1850842,20.7782249 33.165544,20.6424203 33.1381876,20.4919605 C33.0991072,20.277018 33.0463486,20.0288571 32.9642796,19.6478226 C32.9418083,19.5452364 32.913475,19.4348341 32.8822106,19.3244318 C32.8411761,19.1817881 32.7952566,19.0440295 32.747383,18.91311 C32.6829003,18.7352939 32.6164635,18.574087 32.5568658,18.4695467 C32.5236474,18.409949 32.491406,18.3483973 32.4620957,18.2878226 C32.3731876,18.1051215 32.3116359,17.9351215 32.3116359,17.8637996 C32.3116359,17.7700065 32.2285899,17.5335697 32.1289348,17.3381674 C32.065429,17.216041 32.0077853,17.0528801 31.9608888,16.8936272 C31.9335325,16.7998341 31.9042221,16.7021329 31.893475,16.6298341 C31.8837049,16.5643743 31.8543945,16.4871904 31.8280152,16.4119605 C31.7019807,16.0563283 31.4176704,15.6352364 31.1450842,15.4398341 C31.0884175,15.3987996 31.0376129,15.346041 30.9995095,15.2923054 C30.962383,15.2385697 30.9399118,15.1848341 30.9399118,15.1437996 C30.9399118,15.089087 30.877383,14.9650065 30.787498,14.8223628 C30.7396244,14.7471329 30.6868658,14.668972 30.6253141,14.5898341 C30.448475,14.3612134 30.2364635,14.073972 30.1397394,13.9323054 C30.0459463,13.7955238 29.8798543,13.5717881 29.7753141,13.4408686 C29.7059463,13.3548916 29.6483026,13.2835697 29.599452,13.220064 C29.5017509,13.0940295 29.4362911,13.0012134 29.3727853,12.8986272 C29.341521,12.8478226 29.3092796,12.794087 29.2750842,12.7315582 C29.2340497,12.6612134 29.1461187,12.5654663 29.0327853,12.4619031 C28.920429,12.3593169 28.7816934,12.2479375 28.6410037,12.1453513 C28.5003141,12.0437421 28.3566934,11.949949 28.2326129,11.8815582 C28.1095095,11.8131674 28.0069233,11.7692019 27.9453715,11.7672479 C27.8427853,11.7633398 27.7353141,11.6861559 27.7001417,11.5894318 C27.6815784,11.5415582 27.643475,11.4985697 27.5946244,11.4682824 C27.5467509,11.437018 27.4881302,11.4174778 27.4304865,11.4174778 C27.3151991,11.4174778 27.0992796,11.3168456 26.9390497,11.1888571 C26.7797968,11.0608686 26.5580152,10.9602364 26.4368658,10.9602364 C26.3215784,10.9602364 26.1320382,10.8625352 26.0353141,10.755064 C26.0069807,10.7228226 25.9688773,10.6905812 25.9229577,10.6563858 C25.7851991,10.5557536 25.5770957,10.4502364 25.3719233,10.3681674 C25.097383,10.2587421 24.8247968,10.1893743 24.7222106,10.2294318 C24.6821532,10.245064 24.5746819,10.2118456 24.4359463,10.1473628 C24.2972106,10.0828801 24.1272106,9.98615593 23.9620957,9.87477662 C23.7549692,9.73604099 23.6045095,9.64224789 23.4491646,9.57678812 C23.3456014,9.5328226 23.2410612,9.50155823 23.1169807,9.47713295 C22.9938773,9.45270766 22.8502566,9.43609846 22.6714635,9.42144329 C22.5815784,9.4136272 22.4829003,9.40776513 22.372498,9.39994904 C22.1047968,9.38333984 21.8283026,9.36868467 21.5987049,9.35891456 C21.3700842,9.35012145 21.18836,9.34621341 21.1101991,9.34914444 C20.9489922,9.35500651 20.6812911,9.30224789 20.4985899,9.22897203 C20.3725554,9.17816743 20.2865784,9.15276513 20.2230727,9.15374214 C20.1918083,9.15374214 20.165429,9.16155823 20.1439348,9.17425938 C20.1214635,9.18793754 20.1038773,9.20845479 20.0872681,9.2348341 C20.0716359,9.25828237 20.0501417,9.27000651 20.0208313,9.27000651 C19.9622106,9.27000651 19.8723256,9.21920191 19.7453141,9.11563869 C19.6818083,9.06385708 19.6095095,8.99937433 19.5264635,8.92023639 C19.395544,8.79517892 19.2763486,8.67109846 19.1913486,8.57046628 C19.1053715,8.47081111 19.0526129,8.39460421 19.0526129,8.36627088 C19.0526129,8.26075364 18.0922106,7.61690306 17.7492796,7.49184559 C17.6056589,7.43908697 17.5724405,7.41075364 17.6818658,7.25931685 C17.7189922,7.20948927 17.7707738,7.14598352 17.8411187,7.06293754 C17.9222106,6.96621341 17.9964635,6.84604099 18.0511761,6.73173065 C18.1049118,6.61839731 18.1381302,6.50897203 18.1381302,6.43374214 C18.1381302,6.28523639 18.1879577,6.15920191 18.2465784,6.15920191 C18.3061761,6.15920191 18.4068083,5.96575364 18.4703141,5.72540881 C18.5015784,5.61109846 18.5181876,5.48799502 18.5211187,5.36391456 C18.5250267,5.2398341 18.5152566,5.11477662 18.4947394,4.9936272 C18.4527279,4.75035134 18.3638198,4.52759272 18.2377853,4.37713295 C18.1987049,4.33121341 18.1733026,4.28236283 18.1615784,4.24132835 C18.1498543,4.19931685 18.1527853,4.16316743 18.1723256,4.14167318 C18.1918658,4.12115593 18.1947968,4.07719042 18.1840497,4.02052375 C18.1723256,3.9648341 18.1469233,3.89644329 18.1097968,3.82805249 C18.0345669,3.69127088 17.9759463,3.56328237 17.9720382,3.53104099 C17.9495669,3.27897203 17.6242221,2.73086858 17.4981876,2.73086858 C17.4522681,2.73086858 17.4122106,2.71328237 17.3838773,2.68494904 C17.355544,2.6566157 17.3379577,2.61655823 17.3379577,2.57063869 C17.3379577,2.49247777 17.2001991,2.38109846 17.0380152,2.29414444 C16.9559463,2.25115593 16.8689922,2.2140295 16.7879003,2.19058122 C16.7077853,2.16810996 16.6345095,2.15833984 16.5837049,2.17006398 C16.5563486,2.17592605 16.510429,2.17397203 16.4606014,2.16615593 C16.4097968,2.15833984 16.3550842,2.14466168 16.3091646,2.12707548 C15.657498,1.87500651 14.4860612,1.80856973 13.9662911,1.99517892 C13.7777279,2.06259272 13.5637623,2.13879961 13.4220957,2.18765019 C13.3751991,2.20523639 13.3361187,2.21793754 13.3087623,2.22770766 C13.194452,2.26678812 13.108475,2.34006398 13.108475,2.39966168 C13.108475,2.45535134 13.0518083,2.50224789 12.9834175,2.50224789 C12.9492221,2.50224789 12.8759463,2.52081111 12.7870382,2.55012145 C12.6991072,2.57845479 12.5945669,2.61851226 12.4968658,2.66247777 C12.4489922,2.68397203 12.3962336,2.70644329 12.343475,2.72891456 C12.1851991,2.79535134 12.0220382,2.85885708 11.9429003,2.88523639 C11.9145669,2.8940295 11.8862336,2.91454674 11.8588773,2.94288007 C11.831521,2.97121341 11.8051417,3.00833984 11.7807164,3.05328237 C11.7318658,3.14121341 11.6918083,3.25650076 11.66836,3.38253525 C11.6458888,3.50270766 11.6029003,3.6424203 11.5501417,3.77333984 C11.5237623,3.8378226 11.494452,3.90035134 11.4651417,3.957018 C11.4358313,4.01368467 11.405544,4.06253525 11.3762336,4.10259272 C11.1906014,4.35368467 11.1290497,4.58816743 11.1730152,5.0366157 C11.1876704,5.18609846 11.2150267,5.36000651 11.2521532,5.56517892 C11.2980727,5.82310996 11.3195669,5.9716157 11.3088198,6.05759272 C11.2980727,6.14356973 11.2560612,6.167018 11.1769233,6.17190306 C10.1823256,6.23833984 9.46422212,6.51678812 9.43295775,6.84604099 C9.42416464,6.93690306 9.4114635,7.08638582 9.40657844,7.16552375 C9.4036474,7.19678812 9.38117614,7.23391456 9.33623361,7.27788007 C9.24439453,7.36581111 9.06560143,7.48012145 8.79203821,7.62569616 C8.65427959,7.69799502 8.4940497,7.77908697 8.30744051,7.867018 C8.23807269,7.90121341 8.06123361,7.86017892 7.77008418,7.74293754 C7.47893476,7.62667318 7.07347499,7.43420191 6.54784281,7.1616157 C6.05640602,6.90759272 4.50100373,7.0766157 4.19715315,7.41759272 C4.17175085,7.44494904 4.06037154,7.50650076 3.92358993,7.5690295 C3.8786474,7.58954674 3.82979683,7.61006398 3.78192327,7.63058122 C3.64416464,7.68627088 3.46927959,7.80058122 3.28169338,7.94908697 C3.09410717,8.0966157 2.89381982,8.27833984 2.7052566,8.46885708 C2.51669338,8.65839731 2.3398543,8.85770766 2.20111867,9.0394318 C2.06140602,9.22115593 1.95979683,9.38627088 1.91973936,9.50937433 C1.84353246,9.73994904 1.76634855,10.3945467 1.74680832,10.9553513 C1.74290028,11.0745467 1.73996924,11.181041 1.73703821,11.2758111 C1.72922212,11.6539146 1.73801522,11.8444318 1.79077384,11.9782824 C1.81715315,12.0456962 1.85427959,12.0984548 1.90508418,12.1541444 C1.9314635,12.1815008 1.95979683,12.2098341 1.99301522,12.2410985 C2.05456694,12.2987421 2.13077384,12.3974203 2.20893476,12.5097766 C2.32813016,12.6797766 2.45123361,12.8878801 2.54209568,13.0803513 C2.72088878,13.4662709 2.81370487,13.6069605 3.0452566,13.7046617 C3.1214635,13.7369031 3.21427959,13.7652364 3.33054396,13.7955238 C3.47318763,13.8326502 3.62950947,13.8678226 3.76629108,13.8922479 C3.90307269,13.9166732 4.02031407,13.9323054 4.08479683,13.9323054 C4.17858993,13.9323054 4.2352566,13.9508686 4.26847499,14.0065582 C4.30071637,14.0622479 4.30853246,14.155064 4.30169338,14.3035697 C4.29680832,14.4051789 4.30169338,14.583972 4.31341752,14.7881674 C4.32416464,14.9933398 4.34272786,15.2239146 4.36422212,15.430064 L4.44433706,16.1843169 L3.99295775,16.367018 C3.83272786,16.4324778 3.70376235,16.5096617 3.59336005,16.6083398 C3.48393476,16.707995 3.3940497,16.8301215 3.31295775,16.9844893 C3.18594625,17.2267881 2.89968189,17.6185697 2.66715315,17.8696617 C2.59290028,17.9497766 2.53037154,18.0250065 2.47761292,18.0963283 C2.37111867,18.238972 2.3056589,18.3679375 2.27341752,18.494949 C2.25778533,18.5594318 2.24996924,18.6229375 2.24996924,18.6874203 C2.24996924,18.7382249 2.24508418,18.7890295 2.2382451,18.835926 C2.22163591,18.9297192 2.19134855,19.0108111 2.1532451,19.0616157 C2.13370487,19.087995 2.11221062,19.1055812 2.08973936,19.1143743 C1.98813016,19.1544318 1.8552566,19.3302939 1.71163591,19.595064 C1.28077384,20.3883973 0.747325564,21.97311 0.61347499,23.0194893 C0.589049702,23.2139146 0.54215315,23.4366732 0.506980737,23.5343743 C0.466923265,23.6398916 0.426865794,23.7962134 0.388762346,23.9847766 C0.312555449,24.3619031 0.242210622,24.8728801 0.194337059,25.3926502 C0.170888783,25.6525352 0.153302576,25.9143743 0.143532461,26.1625352 C0.143532461,26.1703513 0.142555449,26.1771904 0.142555449,26.1850065 C0.130831311,26.4712709 0.113245104,26.7682824 0.0917508516,27.0271904 C0.0810037252,27.1727651 0.0683025757,27.3075927 0.0556014263,27.417995 C0.0438772884,27.5215582 0.0321531505,27.6046042 0.0204290125,27.6602939 C-0.00106524035,27.7687421 -0.00497328632,27.9719605 0.00577384011,28.2093743 C0.0165209665,28.4458111 0.0409462539,28.7174203 0.0790497022,28.9636272 C0.128877288,29.287995 0.165026714,29.540064 0.191406024,29.7423054 C0.2148543,29.9250065 0.229509472,30.0686272 0.235371541,30.1800065 C0.242210622,30.2992019 0.239279587,30.3861559 0.226578438,30.4584548 C0.2148543,30.5297766 0.19531407,30.5864433 0.166980737,30.64311 C0.133762346,30.7115008 0.123992231,30.7857536 0.137670392,30.8658686 C0.151348553,30.9469605 0.18847499,31.0319605 0.249049702,31.1237996 C0.274452001,31.1619031 0.300831311,31.2127077 0.325256599,31.2723054 C0.401463495,31.4530525 0.468877288,31.7119605 0.495256599,31.9347192 C0.529452001,32.2268456 0.699452001,32.7407536 0.866520967,33.0612134 C0.994509472,33.3044893 1.16939453,33.7226502 1.30813016,34.1095467 C1.35502671,34.2385123 1.39703821,34.3645467 1.43221062,34.4778801 C1.46836005,34.5921904 1.50450947,34.7016157 1.53968189,34.8002939 C1.64519913,35.0982824 1.73996924,35.3063858 1.77514166,35.3063858 C1.82203821,35.3063858 1.98519913,35.5525927 2.1356589,35.8505812 C2.17376235,35.9238571 2.21675085,36.002995 2.26267039,36.08311 C2.40140602,36.3215008 2.56456694,36.5618456 2.67301522,36.679087 C2.7140497,36.7230525 2.7482451,36.7728801 2.78634855,36.8217306 C2.84008418,36.8910985 2.88111867,36.9487421 2.91726809,37.0102939 C2.94755545,37.0591444 2.98272786,37.1148341 2.99249798,37.1470755 C3.00910717,37.1969031 3.05795775,37.2604088 3.12634855,37.3219605 C3.19376235,37.3825352 3.27876235,37.4421329 3.36473936,37.4841444 C3.40772786,37.5056387 3.46048648,37.5388571 3.52008418,37.5789146 C3.57870487,37.618972 3.64318763,37.6678226 3.7086474,37.7205812 C3.84152097,37.8270755 3.9802566,37.95311 4.09554396,38.0732824 C4.21180832,38.1934548 4.33002671,38.3019031 4.42772786,38.380064 C4.47755545,38.4191444 4.52054396,38.4513858 4.55767039,38.4738571 C4.59381982,38.4953513 4.62117614,38.5070755 4.63876235,38.5070755 C4.67295775,38.5070755 4.70422212,38.5207536 4.72767039,38.5412709 C4.75014166,38.5617881 4.76479683,38.5910985 4.76479683,38.6213858 C4.76479683,38.6858686 4.8898543,38.8460985 5.05008418,38.9877651 C5.21031407,39.1284548 5.33634855,39.3072479 5.33634855,39.3932249 C5.33634855,39.4811559 5.42134855,39.5788571 5.5356589,39.6218456 C5.65094625,39.6638571 5.76134855,39.7254088 5.79652097,39.7644893 C5.92157844,39.9071329 6.8106589,40.336041 6.98163591,40.336041 C7.08519913,40.336041 7.16433706,40.3868456 7.16433706,40.4503513 C7.16433706,40.5158111 7.23370487,40.5646617 7.32554396,40.5646617 C7.37048648,40.5646617 7.414452,40.5754088 7.44962441,40.591041 C7.48577384,40.6076502 7.51215315,40.6301215 7.52290028,40.6565008 C7.56491177,40.75811 7.84922212,40.9632824 8.15698074,41.1440295 C8.23416464,41.188972 8.31232556,41.2329375 8.38755545,41.272995 C8.54094625,41.3521329 8.68456694,41.4175927 8.79301522,41.4517881 C8.84675085,41.4703513 8.89267039,41.4791444 8.92491177,41.4791444 C9.08514166,41.4791444 9.23853246,41.525064 9.27370487,41.5827077 C9.29910717,41.6237421 9.4632451,41.696041 9.66939453,41.7595467 C9.73778533,41.781041 9.8110612,41.8015582 9.88531407,41.8201215 C10.051406,41.8611559 10.2067509,41.9051215 10.3474405,41.950064 C10.7685325,42.0839146 11.0518658,42.2255812 11.0518658,42.3135123 C11.0518658,42.3525927 11.2120957,42.3828801 11.4192221,42.3906962 C11.4495095,42.3916732 11.4768658,42.3936272 11.5081302,42.3936272 C11.7601991,42.3936272 12.0533026,42.4366157 12.1597968,42.4883973 C12.3796244,42.5968456 12.5554865,42.6808686 12.6991072,42.7453513 C12.8427279,42.8088571 12.9550842,42.8537996 13.0508313,42.8821329 C13.2423256,42.9387996 13.364452,42.9339146 13.531521,42.8997192 C13.7376704,42.8577077 13.9965784,42.887995 14.1489922,42.970064 C14.1890497,42.9915582 14.2613486,43.0101215 14.3561187,43.0257536 C14.7381302,43.0892594 15.4992221,43.1058686 16.1352566,43.0794893 C16.6120382,43.058972 17.019452,43.0159835 17.1435325,42.9485697 C17.3018083,42.8635697 17.4708313,42.802018 17.6466934,42.7648916 C17.8225554,42.7277651 18.0062336,42.714087 18.1957738,42.7258111 C18.380429,42.7365582 18.5650842,42.7433973 18.7409463,42.7463283 C19.2656014,42.7541444 19.7062336,42.7248341 19.8410612,42.6671904 C19.8908888,42.6456962 19.9631876,42.6212709 20.0374405,42.6007536 C20.1116934,42.5802364 20.1898543,42.5626502 20.252383,42.5528801 C20.5835899,42.5010985 20.9079577,42.4375927 21.187383,42.3692019 C21.3270957,42.3359835 21.4550842,42.3008111 21.5684175,42.2666157 C21.6797968,42.2314433 21.777498,42.1982249 21.8527279,42.1650065 C22.03836,42.0848916 22.3617509,41.9451789 22.5561761,41.8621329 C22.6529003,41.8201215 22.7623256,41.782018 22.8580727,41.7536847 C22.9538198,41.7253513 23.0368658,41.7077651 23.0818083,41.7077651 C23.1277279,41.7077651 23.1775554,41.698972 23.222498,41.6843169 C23.2664635,41.6706387 23.305544,41.6501215 23.3270382,41.6276502 C23.3543945,41.6012709 23.4237623,41.5651215 23.5146244,41.525064 C23.561521,41.5045467 23.6123256,41.4840295 23.6680152,41.4635123 C23.9425554,41.358972 24.3001417,41.2544318 24.4359463,41.2524778 C24.4593945,41.2524778 24.4935899,41.2427077 24.5336474,41.2260985 C24.5746819,41.2075352 24.6215784,41.18311 24.672383,41.1528226 C24.7749692,41.0912709 24.8931876,41.0062709 25.0016359,40.9134548 C25.2185325,40.7278226 25.4422681,40.5744318 25.4989348,40.5705238 C25.5301991,40.5695467 25.5790497,40.5392594 25.6347394,40.4933398 C25.689452,40.4474203 25.7510037,40.3858686 25.8096244,40.3194318 C25.9249118,40.1875352 26.0245669,40.0390295 26.0245669,39.9706387 C26.0245669,39.9178801 26.0988198,39.8787996 26.202383,39.8787996 C26.2541646,39.8787996 26.3039922,39.8631674 26.3450267,39.8358111 C26.3870382,39.8084548 26.4192796,39.7693743 26.4368658,39.7244318 C26.452498,39.6824203 26.5296819,39.6023054 26.6410612,39.5085123 C26.7524405,39.4147192 26.8989922,39.3052939 27.05336,39.2046617 C27.131521,39.1538571 27.2106589,39.0991444 27.2878428,39.0424778 C27.5193945,38.8734548 27.7353141,38.6927077 27.8222681,38.5881674 C27.8222681,38.5881674 27.8232451,38.5881674 27.8232451,38.5871904 C27.8867509,38.5100065 27.9746819,38.4240295 28.072383,38.3370755 C28.2687623,38.1651215 28.5061761,37.9931674 28.6810612,37.8983973 C28.7680152,37.8505238 28.8403141,37.8221904 28.8823256,37.8221904 C28.9692796,37.8221904 29.1324405,37.6961559 29.3073256,37.5212709 C29.4128428,37.4147766 29.5222681,37.2887421 29.6219233,37.1627077 C29.686406,37.0806387 29.7479577,36.9985697 29.7987623,36.9194318 C29.8866934,36.7865582 29.9501991,36.6644318 29.9697394,36.5755238 C29.9804865,36.5266732 29.9941646,36.4807536 30.0097968,36.4387421 C30.0547394,36.3117306 30.1153141,36.2208686 30.1631876,36.2208686 C30.193475,36.2208686 30.2139922,36.2013283 30.2237623,36.170064 C30.2335325,36.1387996 30.2306014,36.0958111 30.2139922,36.0498916 C30.194452,35.9951789 30.2139922,35.9258111 30.2706589,35.8456962 C30.3273256,35.7655812 30.4201417,35.6756962 30.5461761,35.5819031 C30.5999118,35.5408686 30.6516934,35.4969031 30.6985899,35.4529375 C30.8402566,35.322995 30.9399118,35.1901215 30.9399118,35.1236847 C30.9399118,35.0924203 30.9526129,35.068972 30.9643371,35.0435697 C30.9848543,34.9986272 31.0151417,34.9644318 31.0600842,34.9644318 C31.0942796,34.9644318 31.1167509,34.9517306 31.126521,34.9312134 C31.1353141,34.9106962 31.131406,34.8823628 31.1118658,34.8501215 C31.0962336,34.8227651 31.0952566,34.7748916 31.1050267,34.7152939 C31.1353141,34.5384548 31.2652566,34.2629375 31.385429,34.1632824 C31.3951991,34.1554663 31.4127853,34.135926 31.4352566,34.1056387 C31.4821532,34.045064 31.552498,33.9463858 31.6296819,33.8320755 C31.6687623,33.7744318 31.7097968,33.7128801 31.7508313,33.6493743 C32.0263486,33.2224203 32.2002566,32.8150065 32.7718083,31.2498341 C33.0600267,30.4604088 33.3462911,29.1482824 33.3931876,28.4028226 C33.3980727,28.3178226 33.4049118,28.2328226 33.4137049,28.1527077 C33.4391072,27.9113858 33.4752566,27.7120755 33.505544,27.6602939 C33.5260612,27.6260985 33.5495095,27.5274203 33.5700267,27.3974778 C33.590544,27.2675352 33.6091072,27.1053513 33.6208313,26.9460985 C33.6423256,26.6256387 33.7234175,26.3178801 33.7976704,26.2709835 C33.8240497,26.2543743 33.8445669,26.2348341 33.8572681,26.2094318 C33.8699692,26.1840295 33.8768083,26.1517881 33.8768083,26.1117306 C33.8758313,26.0316157 33.847498,25.9173054 33.7918083,25.7453513 C33.7722681,25.6857536 33.7527279,25.5958686 33.7341646,25.4874203 L33.7341646,25.4874203 Z" id="Fill-4"></path>
                </g>
            </g>
        </g>
    </g>
</svg>