<?xml version="1.0" encoding="UTF-8"?>
<svg width="67px" height="40px" viewBox="0 0 67 40" version="1.1" xmlns="http://www.w3.org/2000/svg" xmlns:xlink="http://www.w3.org/1999/xlink">
    <!-- Generator: Sketch 61 (89581) - https://sketch.com -->
    <title>img-nav-lunch</title>
    <desc>Created with Sketch.</desc>
    <g id="Page-1" stroke="none" stroke-width="1" fill="none" fill-rule="evenodd">
        <g id="200318_kodomonooka-ver2" transform="translate(-1018.000000, -136.000000)" fill="#0099CB">
            <path d="M1055.00296,166.439542 C1055.01588,166.490796 1054.96417,166.641765 1054.88661,166.831873 C1053.7859,166.372445 1052.64641,165.874809 1051.69067,165.176815 C1051.69252,165.119969 1051.73961,165.004413 1051.81164,164.896312 C1051.8929,164.775165 1051.97231,164.472297 1051.98894,164.223479 C1052.00463,163.974661 1052.05727,163.761256 1052.10529,163.749141 C1052.15238,163.737026 1052.17547,163.653155 1052.15423,163.569284 C1052.13853,163.509642 1052.15053,163.460251 1052.17177,163.427635 C1052.34076,163.6019 1052.56238,163.842331 1052.88465,164.202045 C1053.0444,164.380039 1053.27433,164.612082 1053.41469,164.738821 C1053.54766,164.859036 1053.79144,165.079897 1053.94011,165.214091 C1054.06754,165.329647 1054.55325,165.598966 1055.17748,165.917677 C1055.17379,165.927928 1055.17009,165.937247 1055.16548,165.946566 C1055.06021,166.159039 1054.98726,166.3799 1055.00296,166.439542 M1050.88638,156.834428 C1050.82359,156.610772 1050.74141,156.387115 1050.66753,156.220305 C1050.78942,155.992921 1050.91501,155.7674 1051.04705,155.551199 C1051.53554,154.752559 1052.09143,153.977217 1052.83109,153.408756 C1052.83201,153.407825 1052.83294,153.406893 1052.83478,153.405961 C1053.15244,154.345318 1053.34635,154.783312 1053.43592,154.760014 C1053.45162,154.755355 1053.47655,154.785176 1053.5061,154.830839 C1053.38698,154.938939 1053.26602,155.020947 1053.22262,155.005105 C1053.16813,154.984603 1053.09611,155.045176 1053.06194,155.139298 C1053.02685,155.236216 1052.86987,155.344317 1052.69442,155.391844 C1052.27612,155.505536 1051.66205,156.434642 1051.16987,157.539878 C1051.08861,157.415935 1050.97226,157.133569 1050.88638,156.834428 M1051.81164,164.896312 C1051.73961,165.004413 1051.69252,165.119969 1051.69067,165.176815 C1051.08399,164.733229 1050.55026,164.211364 1050.15042,163.564624 C1048.79854,161.374655 1049.43201,158.532354 1050.66753,156.220305 C1050.74141,156.387115 1050.82359,156.610772 1050.88638,156.834428 C1050.97226,157.133569 1051.08861,157.415935 1051.16987,157.539878 C1050.82267,158.321744 1050.53456,159.189344 1050.42283,159.923683 C1050.31941,160.602108 1050.35172,160.816445 1050.64999,161.426841 C1051.14217,162.431431 1051.41273,162.844264 1051.68513,163.006415 C1051.81256,163.081899 1051.94277,163.190932 1052.17177,163.427635 C1052.15053,163.460251 1052.13853,163.509642 1052.15423,163.569284 C1052.17547,163.653155 1052.15238,163.737026 1052.10529,163.749141 C1052.05727,163.761256 1052.00463,163.974661 1051.98894,164.223479 C1051.97231,164.472297 1051.8929,164.775165 1051.81164,164.896312 M1052.83478,153.405961 C1054.64744,152.014631 1057.1582,152.108753 1059.29036,151.29893 C1059.81302,151.101367 1060.30981,150.846026 1060.79553,150.569251 C1060.21008,151.146098 1060.14914,151.307317 1060.48064,151.418214 C1061.13811,151.637211 1062.24436,152.659507 1062.43551,153.225172 C1062.45213,153.273631 1062.57402,153.399437 1062.69776,153.494491 C1062.82149,153.588614 1062.91199,153.721876 1062.89167,153.77779 C1062.87136,153.834636 1063.05604,154.033131 1063.29428,154.211124 C1063.53252,154.388185 1063.75045,154.581089 1063.76799,154.63048 C1063.78554,154.680803 1063.98777,154.986466 1064.21493,155.306109 C1064.44208,155.625751 1064.61107,155.939802 1064.58891,156.000376 C1064.56767,156.060018 1064.63046,156.142025 1064.7228,156.176505 C1064.81791,156.210986 1064.87609,156.398298 1064.85116,156.587474 C1064.8253,156.777582 1064.84469,157.34977 1064.89363,157.84461 C1065.05246,159.442822 1064.32389,160.453935 1063.16039,160.253577 C1062.86397,160.20139 1062.55463,160.074651 1062.4392,159.9563 C1062.21851,159.729848 1061.98488,158.846405 1062.07722,158.5892 C1062.11139,158.495077 1062.09754,158.376726 1062.04583,158.312425 C1061.99412,158.248123 1061.98488,158.116725 1062.02274,158.01142 C1062.11139,157.765398 1061.89624,156.863317 1061.73464,156.804607 C1061.66169,156.777582 1061.54811,156.563245 1061.47239,156.308835 C1061.39575,156.055358 1061.26462,155.835429 1061.16951,155.800017 C1061.07994,155.766468 1061.03007,155.656504 1061.06424,155.562382 C1061.10025,155.462668 1061.02915,155.349908 1060.90172,155.303313 C1060.77336,155.256718 1060.62654,155.116001 1060.56375,154.980875 C1060.50465,154.852273 1060.37168,154.710624 1060.27842,154.676143 C1060.18607,154.642595 1060.09096,154.545677 1060.07526,154.469261 C1060.02909,154.241877 1058.08993,153.670621 1057.48509,153.706033 C1057.35027,153.71442 1057.22654,153.686463 1057.2053,153.642664 C1057.15266,153.531768 1055.7186,153.718148 1055.25967,153.896141 C1055.06113,153.972557 1054.84321,154.007969 1054.75733,153.975353 C1054.60404,153.919439 1054.00382,154.323884 1053.58275,154.765606 C1053.55781,154.791699 1053.53288,154.807541 1053.5061,154.830839 C1053.47655,154.785176 1053.45162,154.755355 1053.43592,154.760014 C1053.34635,154.783312 1053.15244,154.345318 1052.83478,153.405961 M1081.01273,160.310423 C1081.9066,161.37745 1082.91681,162.373654 1083.33789,163.689499 C1083.65831,164.692226 1083.59367,165.784415 1083.36282,166.812303 C1082.54375,170.442061 1079.42908,173.509882 1075.76775,173.959991 C1072.9264,174.309454 1070.13216,173.184648 1067.48658,172.082208 C1063.29798,170.336756 1059.1103,168.592235 1054.92262,166.846783 C1054.91062,166.842124 1054.89861,166.836532 1054.88661,166.831873 C1054.96417,166.641765 1055.01588,166.490796 1055.00296,166.439542 C1054.98726,166.3799 1055.06021,166.159039 1055.16548,165.946566 C1055.17009,165.937247 1055.17379,165.927928 1055.17748,165.917677 C1056.58476,166.636173 1058.70492,167.609079 1059.06967,167.659402 C1059.35962,167.699473 1059.79362,167.911015 1060.35598,168.28564 C1061.86853,169.293026 1066.02574,170.875395 1067.81531,171.125145 C1068.12835,171.168944 1068.95757,171.38701 1069.67784,171.614394 C1070.3981,171.841778 1071.17746,172.036545 1071.4277,172.051456 C1071.67241,172.066366 1071.94851,172.133463 1072.03162,172.20056 C1072.11657,172.268589 1072.49055,172.349664 1072.87285,172.383213 C1073.25606,172.416761 1073.59773,172.490381 1073.64297,172.548159 C1073.78887,172.735472 1075.88317,172.680489 1076.33842,172.475471 C1076.44184,172.429808 1076.92478,172.217334 1077.40957,172.004861 C1077.89344,171.793319 1078.36254,171.513748 1078.44841,171.385146 C1078.53337,171.257475 1078.80023,171.102779 1079.03016,171.047797 C1079.28964,170.984428 1079.49187,170.844643 1079.5482,170.687151 C1079.63223,170.454176 1079.79198,170.24543 1080.32387,169.671378 C1081.23343,168.690085 1081.95738,166.129219 1081.82072,164.380039 C1081.79117,164.00821 1081.67205,163.316738 1081.56032,162.864766 C1081.44858,162.411862 1081.36548,161.999961 1081.37933,161.961753 C1081.3941,161.922613 1081.29437,161.559171 1081.15401,161.136088 C1081.04413,160.803399 1081.00996,160.540602 1081.01273,160.310423 M1080.46792,159.621747 C1080.45222,159.806264 1080.45037,160.072788 1080.46607,160.29924 C1080.4947,160.689707 1080.38943,161.179887 1080.09301,162.026986 C1079.72734,163.073512 1079.623,163.26362 1079.18068,163.682976 C1078.90827,163.941113 1078.45395,164.271938 1078.18155,164.410791 C1077.73923,164.636312 1077.63858,164.640039 1077.30246,164.441544 C1076.76411,164.124697 1076.74195,163.776166 1077.20365,162.897382 C1077.43081,162.463116 1077.59333,162.00462 1077.62011,161.722254 C1077.73369,160.516373 1077.7457,160.16225 1077.70507,159.28533 C1077.68106,158.757874 1077.6589,158.221098 1077.65705,158.071994 C1077.64135,157.16339 1077.59149,156.654571 1077.51577,156.626614 C1077.4659,156.608908 1077.37633,156.349839 1077.32185,156.064677 C1077.18519,155.353636 1076.67454,154.363956 1076.14542,153.787109 C1075.97736,153.603524 1075.70403,153.227036 1075.5489,152.964239 C1075.39376,152.701443 1075.11951,152.428396 1074.9496,152.365958 C1074.77508,152.301657 1074.59316,152.155348 1074.54145,152.036997 C1074.49251,151.9261 1074.37524,151.821727 1074.29767,151.820795 C1074.21364,151.819864 1073.8138,151.538429 1073.40012,151.189898 C1072.46008,150.397781 1071.31043,149.764088 1069.91054,149.269248 C1068.639,148.818207 1067.81808,148.647669 1067.40347,148.744587 C1067.24464,148.781863 1066.89282,148.772544 1066.62134,148.723153 C1066.34986,148.674694 1065.8863,148.686809 1065.59266,148.750178 C1065.29347,148.81448 1065.01183,148.84896 1064.95273,148.827526 C1064.84008,148.785591 1063.79939,149.03534 1063.15392,149.258065 C1062.96093,149.325162 1062.77163,149.403442 1062.58325,149.483585 C1063.2121,149.100574 1063.8511,148.738064 1064.52981,148.462221 C1067.37854,147.307594 1072.21907,147.530319 1074.81017,149.366166 C1078.03565,151.651189 1078.25173,156.572564 1080.46792,159.621747 M1051.64173,152.513199 C1051.66666,152.442374 1051.99263,152.247607 1052.38323,152.06309 C1052.45064,152.245743 1052.5199,152.443306 1052.59008,152.664167 C1052.67965,152.943737 1052.75906,153.1851 1052.83478,153.405961 C1052.83294,153.406893 1052.83201,153.407825 1052.83109,153.408756 C1052.09143,153.977217 1051.53554,154.752559 1051.04705,155.551199 C1050.91501,155.7674 1050.78942,155.992921 1050.66753,156.220305 C1050.62228,156.115932 1050.57888,156.029265 1050.54841,155.993853 C1050.46715,155.897867 1050.13103,155.134639 1049.80137,154.295927 C1049.75705,154.183167 1049.71272,154.073203 1049.66932,153.966966 C1049.67025,153.966966 1049.67025,153.966034 1049.67117,153.966034 C1049.73304,153.989331 1049.81615,153.926894 1049.85031,153.832772 C1049.92326,153.632413 1050.45238,153.24381 1051.14124,152.886891 C1051.3961,152.754561 1051.61311,152.59241 1051.64173,152.513199 M1054.88661,166.831873 C1054.65391,167.396605 1054.12202,168.377898 1053.83484,168.758114 C1053.57905,168.651877 1053.27248,168.466429 1053.10073,168.307073 C1052.90404,168.123489 1052.70181,167.982772 1052.65933,167.998614 C1052.6187,168.01632 1052.50143,167.911947 1052.4054,167.773094 C1052.31121,167.635172 1052.14038,167.483272 1052.03788,167.445996 C1051.93168,167.406856 1051.64912,167.154311 1051.40534,166.881263 C1051.313,166.778754 1051.21973,166.682768 1051.13201,166.597033 C1051.4118,166.124559 1051.72207,165.352012 1051.68421,165.201044 C1051.68329,165.197317 1051.69067,165.183338 1051.69067,165.176815 C1052.64641,165.874809 1053.7859,166.372445 1054.88661,166.831873 M1051.69067,165.176815 C1051.69067,165.183338 1051.68329,165.197317 1051.68421,165.201044 C1051.72207,165.352012 1051.4118,166.124559 1051.13201,166.597033 C1050.98611,166.456316 1050.85868,166.349147 1050.80327,166.327714 C1050.71001,166.294165 1050.59643,166.172086 1050.53733,166.045347 C1050.39605,165.740615 1049.88355,165.194521 1049.66286,165.113445 C1049.56959,165.078965 1049.50588,164.999753 1049.52619,164.943839 C1049.54743,164.886061 1049.39876,164.679179 1049.20208,164.492799 C1048.80131,164.109787 1048.54184,163.791076 1048.38208,163.485413 C1048.32668,163.378244 1048.18817,163.221684 1048.07366,163.135949 C1047.96008,163.050214 1047.88067,162.943978 1047.89637,162.898314 C1047.91299,162.853583 1047.83081,162.568421 1047.71815,162.274872 C1047.34971,161.316877 1047.17795,160.514509 1047.28045,160.229347 C1047.33586,160.077447 1047.35156,159.876156 1047.31554,159.791353 C1047.22412,159.572356 1047.46883,158.639522 1048.12261,156.716077 C1048.61201,155.276288 1048.75976,154.95385 1049.05156,154.680803 C1049.24548,154.500014 1049.43293,154.261447 1049.47633,154.140299 C1049.51881,154.023812 1049.60653,153.9446 1049.66932,153.966966 C1049.71272,154.073203 1049.75705,154.183167 1049.80137,154.295927 C1050.13103,155.134639 1050.46715,155.897867 1050.54841,155.993853 C1050.57888,156.029265 1050.62228,156.115932 1050.66753,156.220305 C1049.43201,158.532354 1048.79854,161.374655 1050.15042,163.564624 C1050.55026,164.211364 1051.08399,164.733229 1051.69067,165.176815 M1084.98618,164.560827 C1085.01758,164.758391 1084.99357,165.147926 1084.93354,165.404199 C1084.75348,166.17395 1084.6953,166.544847 1084.72947,166.709793 C1084.74517,166.789005 1084.67868,167.162698 1084.57895,167.550369 C1084.47923,167.938972 1084.42751,168.310801 1084.4626,168.390013 C1084.57064,168.636967 1084.45522,168.879261 1083.08395,171.281705 C1082.96483,171.490451 1082.78476,171.758838 1082.68965,171.867871 C1082.49204,172.094323 1081.32023,173.235903 1081.05706,173.457696 C1080.96564,173.535044 1080.7431,173.754041 1080.55472,173.950672 C1080.36727,174.147303 1080.1161,174.341139 1079.98959,174.386802 C1079.86955,174.430601 1079.72919,174.562931 1079.69041,174.668236 C1079.65162,174.778201 1079.48818,174.903076 1079.3275,174.945943 C1079.16683,174.989743 1079.01908,175.072682 1078.99785,175.13046 C1078.94798,175.270245 1077.8482,175.730605 1077.69676,175.674691 C1077.63858,175.653257 1077.48529,175.678418 1077.34771,175.730605 C1076.37535,176.107093 1074.58947,176.086591 1073.20805,175.68401 C1072.61337,175.510676 1071.67241,175.283292 1071.09158,175.172395 C1069.99641,174.962717 1068.02493,174.356049 1067.95752,174.207877 C1067.8938,174.069023 1066.28983,173.752177 1066.06267,173.834184 C1065.91678,173.886371 1065.85675,173.855618 1065.8309,173.712105 C1065.8032,173.566728 1065.70254,173.519201 1065.41536,173.514542 C1064.89179,173.506155 1061.62567,172.260202 1061.38005,171.974108 C1061.24708,171.81848 1061.05131,171.738337 1060.75674,171.716903 C1060.5185,171.699197 1060.15098,171.591096 1059.93029,171.473676 C1058.82681,170.885646 1058.45098,170.709517 1057.34381,170.254749 C1056.67895,169.982633 1055.76293,169.584711 1055.29753,169.365714 C1054.83582,169.149513 1054.23006,168.896967 1053.9595,168.808437 C1053.92164,168.796322 1053.87639,168.774888 1053.83484,168.758114 C1054.12202,168.377898 1054.65391,167.396605 1054.88661,166.831873 C1054.89861,166.836532 1054.91062,166.842124 1054.92262,166.846783 C1059.1103,168.592235 1063.29798,170.336756 1067.48658,172.082208 C1070.13216,173.184648 1072.9264,174.309454 1075.76775,173.959991 C1079.42908,173.509882 1082.54375,170.442061 1083.36282,166.812303 C1083.59367,165.784415 1083.65831,164.692226 1083.33789,163.689499 C1082.91681,162.373654 1081.9066,161.37745 1081.01273,160.310423 C1081.0192,159.922751 1081.16879,159.659955 1081.50214,159.541603 C1081.93245,159.38784 1082.16146,159.466119 1082.41632,159.851927 C1082.53082,160.025261 1082.77738,160.329061 1082.97591,160.543398 C1083.17444,160.757735 1083.31572,160.970209 1083.29541,161.026123 C1083.27602,161.079242 1083.34066,161.155658 1083.43392,161.190138 C1083.52996,161.224618 1083.8236,161.603902 1084.08862,162.034441 C1084.76087,163.125698 1084.84859,163.31767 1084.89107,163.782689 C1084.91231,164.015665 1084.95386,164.353013 1084.98618,164.560827 M1052.59008,152.664167 C1052.5199,152.443306 1052.45064,152.245743 1052.38323,152.06309 C1052.42017,152.045384 1052.45526,152.027678 1052.49404,152.009972 C1052.93359,151.810545 1053.49041,151.544952 1053.72772,151.42101 C1054.13772,151.204808 1054.67514,150.958786 1055.16732,150.760291 C1055.29198,150.709968 1055.67612,150.607459 1056.00394,150.538498 C1056.33175,150.467674 1056.63647,150.33348 1056.66879,150.244949 C1056.70296,150.148963 1056.81377,150.079071 1056.93289,150.076275 C1057.05293,150.073479 1057.12773,150.017565 1057.11296,149.943013 C1057.0991,149.872188 1057.18498,149.778998 1057.30595,149.735199 C1057.42415,149.693263 1057.62545,149.487313 1057.7418,149.291613 C1057.85907,149.094982 1058.05391,148.893691 1058.16288,148.855483 C1058.27276,148.816343 1058.45744,148.63835 1058.56641,148.465948 C1058.67537,148.293546 1058.81388,148.164944 1058.87021,148.186378 C1058.92654,148.20688 1059.00503,148.142578 1059.03919,148.048456 C1059.07336,147.953402 1059.28205,147.772613 1059.49721,147.652398 C1059.71144,147.533114 1060.12421,147.30573 1060.40031,147.154762 C1060.67641,147.003794 1061.02453,146.755908 1061.1612,146.611463 C1061.30433,146.462359 1061.63399,146.304868 1061.91655,146.251749 C1062.1945,146.199563 1062.71438,146.062573 1063.08559,145.944222 C1063.6895,145.75225 1064.45871,145.63949 1065.65545,145.567733 C1065.88076,145.553755 1066.26213,145.579848 1066.52161,145.627375 C1066.78109,145.67397 1066.99994,145.666515 1067.02025,145.610601 C1067.03965,145.557482 1067.17816,145.555618 1067.31759,145.607805 C1067.4598,145.659991 1067.96952,145.750386 1068.43677,145.805368 C1068.90679,145.862214 1069.95301,146.124079 1070.75361,146.384079 C1071.96513,146.780138 1072.35112,146.957199 1073.03352,147.42781 C1073.48692,147.740929 1073.95324,148.049388 1074.07421,148.115553 C1074.19794,148.183582 1074.52206,148.40817 1074.81109,148.627167 C1075.94689,149.488245 1076.20267,149.669966 1076.40121,149.761292 C1076.51294,149.812547 1076.68654,149.953264 1076.78812,150.074411 C1076.88692,150.193695 1077.12701,150.391258 1077.30985,150.50495 C1077.49268,150.618642 1077.75031,150.919646 1077.87036,151.159145 C1078.1677,151.75463 1078.7596,152.570977 1078.94152,152.637142 C1079.10865,152.698647 1080.13457,155.145822 1080.42082,156.167186 C1080.50393,156.463531 1080.50947,157.081382 1080.43006,157.299447 C1080.38389,157.42805 1080.38758,157.548265 1080.43837,157.567835 C1080.49008,157.586473 1080.51224,157.880022 1080.48731,158.216439 C1080.4633,158.552855 1080.46792,158.911638 1080.49747,159.009487 C1080.52794,159.111065 1080.52425,159.311424 1080.48916,159.470779 C1080.48085,159.508987 1080.47346,159.561173 1080.46792,159.621747 C1078.25173,156.572564 1078.03565,151.651189 1074.81017,149.366166 C1072.21907,147.530319 1067.37854,147.307594 1064.52981,148.462221 C1063.8511,148.738064 1063.2121,149.100574 1062.58325,149.483585 C1061.84822,149.798568 1061.17505,150.19649 1060.80845,150.557136 C1060.80291,150.561796 1060.80107,150.564592 1060.79553,150.569251 C1060.30981,150.846026 1059.81302,151.101367 1059.29036,151.29893 C1057.1582,152.108753 1054.64744,152.014631 1052.83478,153.405961 C1052.75906,153.1851 1052.67965,152.943737 1052.59008,152.664167 M1042.44639,159.338449 C1042.36328,159.359883 1042.27371,159.310492 1042.25432,159.232212 C1042.20999,159.055151 1042.32911,158.896727 1042.45285,158.970347 C1042.60521,159.061674 1042.60152,159.298377 1042.44639,159.338449 M1037.68434,162.505052 C1037.63725,162.552579 1037.57169,162.494801 1037.54214,162.380177 C1037.51351,162.265553 1037.5366,162.153725 1037.592,162.139746 C1037.64925,162.124836 1037.71205,162.18075 1037.73328,162.264621 C1037.75452,162.34756 1037.73236,162.455661 1037.68434,162.505052 M1035.98249,170.218404 C1035.93171,170.232383 1035.86707,170.114963 1035.83752,169.955608 C1035.7738,169.605213 1035.79689,169.472883 1035.91508,169.510159 C1036.0342,169.547435 1036.097,170.189515 1035.98249,170.218404 M1034.92334,162.779963 C1034.8901,162.759461 1034.88179,162.673726 1034.90579,162.601038 C1034.93996,162.501324 1034.98982,162.496665 1035.08032,162.584263 C1035.19759,162.697955 1035.06462,162.864766 1034.92334,162.779963 M1052.65933,167.998614 C1052.6187,168.01632 1052.50143,167.911947 1052.4054,167.773094 C1052.31121,167.635172 1052.14038,167.483272 1052.03788,167.445996 C1051.93168,167.406856 1051.64912,167.154311 1051.40534,166.881263 C1051.313,166.778754 1051.21973,166.682768 1051.13201,166.597033 C1051.11723,166.623127 1051.10154,166.651084 1051.08676,166.674381 C1050.74048,167.223271 1050.11441,167.82528 1049.69518,168.011661 C1049.42277,168.13374 1048.65449,168.337826 1047.83727,168.504637 C1047.66552,168.540049 1047.19642,168.670515 1046.79843,168.793526 L1046.07355,169.019047 L1046.01999,168.698472 C1045.99044,168.517683 1045.98952,168.228794 1046.01815,168.033094 C1046.04585,167.840191 1046.00245,167.359329 1045.92027,166.946497 C1045.83808,166.534596 1045.76051,165.964272 1045.74482,165.658608 C1045.72912,165.358536 1045.64601,164.750935 1045.56013,164.317601 C1045.47426,163.876811 1045.39854,163.080967 1045.39023,162.527417 C1045.38284,161.979459 1045.29973,161.051285 1045.20647,160.463254 C1045.1132,159.877088 1045.00886,158.953573 1044.97469,158.412138 C1044.90451,157.296652 1044.74938,156.636865 1044.48898,156.347975 C1044.29321,156.131774 1043.73362,155.848476 1043.5554,155.876433 C1043.49631,155.88482 1043.32455,155.876433 1043.1648,155.854999 C1043.0069,155.833565 1042.60337,155.878297 1042.25986,155.953781 C1041.91542,156.030197 1041.60423,156.079588 1041.56083,156.066541 C1041.51836,156.052562 1041.17669,156.09077 1040.8064,156.150412 C1039.77957,156.315359 1039.41113,156.337724 1039.00575,156.259445 C1038.79798,156.219373 1038.5385,156.233351 1038.436,156.290197 C1038.32981,156.348907 1038.22362,156.356362 1038.19222,156.307904 C1038.16267,156.260377 1037.83486,156.287402 1037.45903,156.368477 C1037.0832,156.449553 1036.72122,156.495216 1036.64827,156.470986 C1036.57532,156.446757 1036.06929,156.467259 1035.51986,156.515718 C1034.97136,156.565108 1034.45147,156.569768 1034.36098,156.525037 C1034.00454,156.351703 1033.37755,156.423459 1031.66461,156.834428 C1029.96184,157.243533 1029.87227,157.27615 1029.7356,157.533355 C1029.51399,157.949915 1029.4318,158.366475 1029.50198,158.715006 C1029.53615,158.890204 1029.55923,159.234076 1029.55185,159.48103 C1029.54353,159.728916 1029.57031,160.242394 1029.61002,160.631929 C1029.65065,161.021464 1029.70513,161.602971 1029.73283,161.933796 C1029.82795,163.076308 1029.90644,163.952295 1029.97477,164.649358 C1030.01355,165.039825 1030.06526,165.645561 1030.08927,166.009003 C1030.11328,166.368717 1030.18161,166.952088 1030.23979,167.303415 C1030.29796,167.655674 1030.33582,168.02098 1030.32382,168.115102 C1030.28873,168.405855 1030.29242,168.434744 1030.4928,169.293958 C1030.65163,169.975178 1030.65902,170.18206 1030.53343,170.394534 C1030.38476,170.647079 1029.93968,170.788728 1029.50475,170.722563 C1029.40502,170.707653 1029.20372,170.709517 1029.06521,170.726291 C1028.61643,170.782205 1028.15195,170.75518 1027.90355,170.661058 C1027.77982,170.613531 1027.53788,170.607939 1027.38275,170.648011 C1027.22761,170.687151 1027.08264,170.680628 1027.07063,170.633101 C1027.05863,170.58371 1026.82962,170.507294 1026.55352,170.458835 C1026.03549,170.370304 1025.12131,169.887579 1025.06775,169.675106 C1025.05021,169.604281 1024.9514,169.493385 1024.84244,169.421628 C1024.22375,169.013455 1024.1231,168.93238 1024.01137,168.745999 C1023.94303,168.630443 1023.85623,168.553096 1023.80822,168.56521 C1023.71864,168.587576 1023.53212,168.2465 1023.2477,167.541982 C1023.15906,167.320189 1023.03809,167.101192 1022.98084,167.055529 C1022.83309,166.937178 1022.12576,164.211364 1022.19963,164.044554 C1022.2338,163.968138 1022.2458,163.710001 1022.22826,163.470502 C1022.20979,163.231003 1022.20979,162.730572 1022.22826,162.359675 C1022.24672,161.987846 1022.27258,161.381178 1022.28551,161.011213 C1022.29844,160.641248 1022.33168,160.283397 1022.3603,160.214437 C1022.38708,160.149203 1022.41756,159.960959 1022.42402,159.814651 C1022.43141,159.664614 1022.56807,159.189344 1022.72321,158.77092 C1022.87834,158.35436 1022.99192,157.939664 1022.97253,157.862316 C1022.95406,157.786832 1023.00392,157.59952 1023.08057,157.457871 C1023.15721,157.31529 1023.26987,156.981669 1023.32342,156.733783 C1023.62446,155.368546 1023.79898,154.716215 1023.90887,154.541017 C1023.97812,154.430121 1024.16004,153.92503 1024.31702,153.406893 C1024.47307,152.888755 1024.64298,152.461944 1024.69746,152.448897 C1024.75471,152.433987 1024.77872,152.355707 1024.75471,152.261585 C1024.73163,152.167463 1024.77318,152.059362 1024.85537,152.002516 C1024.93016,151.951262 1024.9791,151.839433 1024.95971,151.763949 C1024.94032,151.686602 1025.0105,151.571046 1025.11577,151.508608 C1025.22104,151.444307 1025.28937,151.324092 1025.26813,151.241152 C1025.24689,151.157281 1025.27183,151.079001 1025.32354,151.065955 C1025.4048,151.044521 1025.5627,150.649395 1025.78155,149.915056 C1025.82126,149.781794 1026.11398,149.245018 1026.44087,148.707311 C1026.76775,148.168672 1027.01154,147.6729 1026.9903,147.588097 C1026.96906,147.50143 1027.02354,147.392397 1027.11865,147.333687 C1027.20915,147.276841 1027.3495,147.034547 1027.42615,146.804367 C1027.50279,146.573255 1027.6136,146.367305 1027.66993,146.353327 C1027.72995,146.337484 1027.76319,146.273183 1027.74842,146.199563 C1027.70502,145.973111 1029.15478,143.812962 1029.98493,142.869877 C1030.08835,142.752457 1030.21763,142.591238 1030.27026,142.514822 C1030.64978,141.965932 1031.77819,141.235321 1032.11616,141.319192 C1032.33963,141.375106 1034.75989,140.699477 1034.9141,140.53919 C1035.0203,140.427362 1036.2669,140.227935 1036.86158,140.227003 C1037.10352,140.227003 1037.41748,140.227003 1037.55968,140.227003 C1037.70374,140.227003 1037.85795,140.283849 1037.90596,140.354673 C1037.95306,140.422702 1038.06571,140.463706 1038.14882,140.442272 C1038.34458,140.39195 1039.55149,140.63704 1039.57549,140.732094 C1039.58565,140.771234 1039.84328,140.968797 1040.13416,141.160769 C1040.42688,141.35274 1040.86735,141.684498 1041.09266,141.881129 C1041.31797,142.078692 1041.55437,142.235252 1041.60793,142.221273 C1041.65964,142.208226 1041.72705,142.279983 1041.75013,142.374105 C1041.79076,142.534392 1042.69017,143.310667 1043.18973,143.615398 C1043.31716,143.693678 1043.43721,143.826008 1043.45937,143.913607 C1043.5,144.075758 1043.92477,144.549164 1044.46404,145.032821 C1044.65611,145.205223 1044.81863,145.376693 1044.82879,145.416765 C1044.83895,145.456837 1045.02732,145.710314 1045.24525,145.976838 C1045.46318,146.243362 1045.6811,146.554617 1045.72727,146.664582 C1045.77344,146.77641 1045.92765,147.00193 1046.0754,147.175264 C1046.22407,147.347666 1046.35612,147.547093 1046.37643,147.625373 C1046.3949,147.698993 1046.45123,147.756771 1046.49463,147.744656 C1046.53895,147.733473 1046.71163,148.006521 1046.87046,148.342937 C1047.03298,148.685877 1047.36171,149.333549 1047.60457,149.793909 C1047.84835,150.253336 1048.06074,150.695058 1048.07921,150.782657 C1048.14292,151.077138 1048.54461,151.7742 1048.63695,151.750903 C1048.68866,151.737856 1048.78839,151.955921 1048.85949,152.238288 C1048.93059,152.519722 1049.03678,152.754561 1049.09588,152.761085 C1049.14667,152.766676 1049.39138,153.284813 1049.66932,153.966966 C1049.67025,153.966966 1049.67025,153.966034 1049.67117,153.966034 C1049.73304,153.989331 1049.81615,153.926894 1049.85031,153.832772 C1049.92326,153.632413 1050.45238,153.24381 1051.14124,152.886891 C1051.3961,152.754561 1051.61311,152.59241 1051.64173,152.513199 C1051.66666,152.442374 1051.99263,152.247607 1052.38323,152.06309 C1052.20871,151.594343 1052.04711,151.256995 1051.91876,151.102299 C1051.76362,150.916851 1051.53277,150.565523 1051.39795,150.311114 C1051.26406,150.055773 1051.05075,149.720288 1050.9187,149.555342 C1050.70447,149.288818 1050.1929,148.191969 1049.93527,147.449243 C1049.88355,147.300139 1049.81984,147.149171 1049.78937,147.10444 C1049.70811,146.984224 1049.66932,146.905012 1049.47356,146.468882 C1049.19007,145.837053 1048.85303,145.298413 1048.75514,145.323575 C1048.62217,145.358055 1048.18263,144.823143 1048.11152,144.540777 C1048.07551,144.396332 1047.77817,144.031027 1047.44759,143.723499 C1047.11609,143.414108 1046.83537,143.114035 1046.81967,143.051598 C1046.80397,142.986365 1046.74487,142.949089 1046.68393,142.964931 C1046.62298,142.980773 1046.53988,142.851239 1046.4937,142.666722 C1046.39767,142.284642 1046.24346,142.106649 1045.40223,141.409586 C1045.06149,141.126288 1044.72445,140.813169 1044.66442,140.72557 C1044.6044,140.63704 1044.32091,140.428294 1044.03927,140.268007 C1043.75856,140.105856 1043.50923,139.912952 1043.49077,139.841195 C1043.44552,139.663202 1042.21276,138.726641 1041.52113,138.345493 C1041.20162,138.169363 1040.6171,137.846925 1040.23112,137.635383 C1039.47946,137.222551 1038.7278,137.076242 1037.9309,137.187139 C1037.65387,137.226278 1037.36023,137.201117 1037.26881,137.131224 C1037.17924,137.062264 1036.80064,137.02126 1036.42758,137.04083 C1036.0536,137.0604 1035.71563,137.045489 1035.67407,137.008213 C1035.63344,136.970937 1034.97782,137.064128 1034.21416,137.215096 C1033.06913,137.44248 1032.7801,137.532874 1032.54832,137.74162 C1032.38949,137.883269 1032.15125,138.022123 1031.99889,138.061263 C1031.85207,138.098539 1031.59259,138.268145 1031.42822,138.433092 C1031.25924,138.602698 1030.91111,138.814239 1030.63778,138.913021 C1030.36537,139.012735 1030.05603,139.190728 1029.93783,139.318398 C1029.81963,139.446069 1029.57216,139.616607 1029.37732,139.70607 C1028.99133,139.884063 1028.2092,140.619334 1027.84907,141.145858 C1027.71518,141.341558 1027.5268,141.520483 1027.42892,141.546576 C1027.33104,141.570806 1027.09372,141.874606 1026.89888,142.225001 C1026.4344,143.061849 1025.72153,144.261207 1025.36786,144.802642 C1024.93755,145.460564 1024.65591,146.023433 1024.68915,146.156695 C1024.70577,146.220996 1024.63467,146.326301 1024.53587,146.386875 C1024.43337,146.448381 1024.22283,146.768023 1024.05938,147.110031 C1023.89594,147.452039 1023.56443,148.06989 1023.3105,148.505088 C1023.05656,148.940286 1022.80539,149.496632 1022.74444,149.76036 C1022.6835,150.022225 1022.48404,150.476061 1022.29659,150.777065 C1022.11191,151.072478 1021.88382,151.582229 1021.7961,151.893484 C1021.64097,152.442374 1021.52092,152.751766 1021.32331,153.113344 C1021.2716,153.208398 1021.12939,153.631481 1021.0112,154.043382 C1020.893,154.455282 1020.75541,154.837362 1020.70739,154.883957 C1020.65938,154.931484 1020.53841,155.343385 1020.43868,155.797221 C1020.33988,156.250126 1020.17643,156.906185 1020.0767,157.248193 C1019.97605,157.597656 1019.88648,157.964825 1019.87448,158.081313 C1019.86155,158.199665 1019.80614,158.30031 1019.74427,158.316152 C1019.68425,158.331995 1019.5993,158.544468 1019.55128,158.799809 C1019.50326,159.055151 1019.42108,159.317015 1019.36383,159.397159 C1019.30658,159.47637 1019.24933,159.796945 1019.23178,160.124042 C1019.21608,160.443685 1019.16529,161.008417 1019.12282,161.366267 C1019.04525,161.997165 1019.00739,162.968207 1019.03509,163.585126 C1019.04248,163.745413 1019.0314,163.977457 1019.01016,164.111651 C1018.9012,164.822692 1019.69533,168.45711 1020.11087,169.148581 C1020.24199,169.366646 1020.53564,169.906217 1020.75634,170.335824 C1021.13955,171.081346 1021.20604,171.148443 1022.04727,171.640487 C1022.53021,171.922853 1023.22185,172.373894 1023.56813,172.631099 C1023.91441,172.889236 1024.28285,173.113824 1024.37981,173.124075 C1025.22843,173.217265 1025.48698,173.265724 1025.56916,173.344004 C1025.6809,173.449309 1027.42338,173.83698 1028.14272,173.91526 C1028.43267,173.947876 1028.91007,173.961855 1029.22773,173.948808 C1029.54538,173.93483 1029.87966,173.963719 1029.98862,174.013109 C1030.09758,174.063432 1030.43463,174.10164 1030.75505,174.099776 C1031.07548,174.098844 1031.58889,174.135188 1031.92132,174.182715 C1032.32762,174.240493 1032.8355,174.197626 1033.53083,174.046658 C1034.08488,173.927374 1034.65278,173.854686 1034.78021,173.888234 C1034.91133,173.922715 1035.20406,173.865869 1035.45153,173.756836 C1035.68792,173.651531 1035.98988,173.544363 1036.10808,173.521065 C1036.77478,173.391531 1038.35567,172.966583 1038.39353,172.90601 C1038.41476,172.871529 1038.53204,172.865006 1038.64192,172.891099 C1038.75643,172.919988 1039.09255,172.90601 1039.38989,172.861278 C1039.68815,172.816547 1039.93285,172.787658 1039.93563,172.796977 C1039.93747,172.806296 1040.40657,172.712174 1040.97169,172.591027 C1042.66708,172.226653 1043.8786,172.108302 1044.51575,172.243427 C1045.67371,172.488518 1046.66361,172.310524 1048.26481,171.570594 C1048.88073,171.286364 1049.05987,171.239769 1049.27595,171.310594 C1049.83,171.491383 1051.31946,171.054321 1052.07112,170.489588 C1052.17547,170.411308 1052.41925,170.235179 1052.60393,170.10378 C1053.02131,169.808368 1053.62522,169.156036 1053.59383,169.033025 C1053.5809,168.980839 1053.61507,168.934244 1053.67971,168.918401 C1053.71202,168.910014 1053.76835,168.845713 1053.83484,168.758114 C1053.57905,168.651877 1053.27248,168.466429 1053.10073,168.307073 C1052.90404,168.123489 1052.70181,167.982772 1052.65933,167.998614" id="Fill-7"></path>
        </g>
    </g>
</svg>