<?xml version="1.0" encoding="UTF-8"?>
<svg width="701px" height="308px" viewBox="0 0 701 308" version="1.1" xmlns="http://www.w3.org/2000/svg" xmlns:xlink="http://www.w3.org/1999/xlink">
    <!-- Generator: Sketch 61 (89581) - https://sketch.com -->
    <title>img-bg-object3</title>
    <desc>Created with Sketch.</desc>
    <defs>
        <polygon id="path-1" points="5.27279408e-05 1570 2836.00005 1570 2836.00005 0 5.27279408e-05 0"></polygon>
    </defs>
    <g id="Page-1" stroke="none" stroke-width="1" fill="none" fill-rule="evenodd">
        <g id="200318_kodomonooka-ver2" transform="translate(-409.000000, -2264.000000)">
            <g id="Group-25" transform="translate(-692.000000, 1002.000000)">
                <mask id="mask-2" fill="white">
                    <use xlink:href="#path-1"></use>
                </mask>
                <g id="Mask"></g>
                <path d="M1120.40255,1323.5984 C1095.48055,1365.9594 1098.90955,1415.7874 1107.76455,1461.9234 C1117.65755,1513.4684 1135.99555,1566.1064 1175.05255,1602.9754 C1201.71455,1628.1424 1238.02855,1645.2784 1274.48155,1641.3694 C1304.77255,1638.1194 1331.53755,1621.1874 1358.57055,1607.1404 C1385.60355,1593.0934 1416.62755,1581.3694 1446.00355,1589.4414 C1489.85855,1601.4924 1511.05355,1650.9984 1547.96855,1677.5654 C1569.07255,1692.7524 1594.92055,1699.9984 1620.65855,1703.6764 C1648.40955,1707.6424 1677.64555,1707.5914 1703.36355,1696.4374 C1728.45055,1685.5554 1748.19655,1664.9254 1763.39655,1642.1944 C1801.47555,1585.2434 1813.55655,1509.4754 1786.92355,1446.3554 C1760.29155,1383.2354 1692.25655,1337.6224 1624.13655,1344.9064 C1592.15355,1348.3254 1562.40755,1362.2254 1531.93055,1372.5134 C1501.45555,1382.8014 1467.68855,1389.4624 1437.50755,1378.3374 C1405.74155,1366.6274 1384.17955,1337.7864 1359.12655,1315.0124 C1325.36555,1284.3244 1281.55555,1263.1474 1235.93455,1262.5954 C1190.31455,1262.0424 1143.53855,1284.2754 1120.40255,1323.5984" id="Fill-4" fill="#9AE1E9" mask="url(#mask-2)"></path>
            </g>
        </g>
    </g>
</svg>