<?xml version="1.0" encoding="UTF-8"?>
<svg width="86px" height="223px" viewBox="0 0 86 223" version="1.1" xmlns="http://www.w3.org/2000/svg" xmlns:xlink="http://www.w3.org/1999/xlink">
    <!-- Generator: Sketch 61 (89581) - https://sketch.com -->
    <title>img-header-leaf-right</title>
    <desc>Created with Sketch.</desc>
    <g id="Page-1" stroke="none" stroke-width="1" fill="none" fill-rule="evenodd">
        <g id="200318_kodomonooka-ver2" transform="translate(-1354.000000, -9.000000)" fill="#BEEBEE">
            <g id="img-header-leaf-right" transform="translate(1354.000000, 9.000000)">
                <path d="M29.6017097,97.3448519 C29.2883223,97.5107629 28.9261376,97.6430579 28.7775768,97.6452267 C28.6311848,97.6484798 27.9979037,97.9369264 27.3700446,98.2860984 C26.7432698,98.6352705 26.0839635,98.9182951 25.9082931,98.9139576 C25.7326227,98.90962 25.5862306,99.0158898 25.5829775,99.1492692 C25.5797243,99.2804798 25.3151343,99.7066433 25.0082532,100.075334 C24.7013722,100.442941 24.2014705,101.046944 23.9216991,101.386356 C22.6605589,102.913171 22.5098293,102.985825 20.7216778,102.909918 C19.4421031,102.855698 19.0202771,102.755935 18.86521,102.470742 C18.7372526,102.236514 18.5095316,102.137835 18.2416884,102.201814 C17.8274532,102.301578 15.7139861,101.665043 15.2585443,101.302859 C15.1403463,101.209601 14.6903263,101.052366 14.2728379,100.959108 C13.8553496,100.864767 13.4042453,100.702109 13.2871316,100.60343 C13.1656805,100.501498 12.8273522,100.411494 12.5183024,100.397397 C12.2125057,100.384384 11.5260898,100.32149 10.975222,100.255342 C6.67888711,99.7402592 6.14970705,99.728331 5.52184791,100.132807 C5.17918213,100.352937 4.39083396,100.77151 3.7868313,101.052366 C3.18499741,101.333221 2.51918479,101.840714 2.32507981,102.167114 C2.13097482,102.493514 1.89241004,102.76461 1.80240605,102.762441 C1.71131768,102.760273 1.61480738,103.708025 1.58661336,104.878077 C1.53673163,106.987207 1.54215356,107.008894 2.59942931,109.2655 C3.25765123,110.673033 3.62308911,111.720549 3.56019476,112.02743 C3.50814426,112.290936 3.54392897,112.524079 3.6382705,112.526247 C3.73261203,112.528416 3.87032897,112.983858 3.93430771,113.516291 C3.99937084,114.04764 4.19347582,114.622364 4.3583024,114.763334 C4.53071967,114.91298 4.65867715,115.114675 4.65542399,115.235042 C4.65325522,115.354324 4.7660313,115.578792 4.91892964,115.759884 C5.06857482,115.935555 5.47413495,116.435457 5.83198213,116.886561 C6.18766054,117.334412 6.84588246,117.90263 7.30457748,118.158545 C7.76110373,118.413376 8.18401402,118.753873 8.24690838,118.920868 C8.30980273,119.087863 9.00489376,119.559571 9.81276087,119.98465 C10.6195436,120.409729 11.4501828,120.92915 11.6854944,121.155786 C11.9164685,121.380254 12.4489017,121.57219 12.8674745,121.58195 C13.2827941,121.591709 14.0125855,121.724004 14.4734492,121.873649 C15.0872114,122.073176 15.454818,122.08402 15.8202559,121.917025 C16.0967742,121.789067 16.7213801,121.644844 17.2082692,121.596047 C18.8695476,121.427967 20.6229987,121.140605 20.8680698,120.995297 C21.003618,120.913968 21.2551954,120.971441 21.4286971,121.121086 C21.6238864,121.291334 21.7442532,121.310853 21.7475064,121.173136 C21.7561815,120.817458 24.0106187,120.776251 24.5549801,121.123255 C24.8152326,121.289166 25.2338054,121.432304 25.4745389,121.437726 C25.7174413,121.444233 25.9711874,121.649182 26.0384193,121.893168 C26.1045668,122.138239 26.3496379,122.343188 26.5795276,122.34861 C26.8007423,122.352948 27.1314798,122.549221 27.2767874,122.761761 C27.4296858,122.985144 28.1204393,123.560953 28.8144459,124.046758 C29.5106213,124.532562 30.3358386,125.265607 30.6546479,125.680926 C30.9658665,126.086486 31.3605828,126.437827 31.5091436,126.442165 C31.6598732,126.444334 31.9808512,126.552772 32.2215848,126.679645 C32.461234,126.806518 32.8537815,127.01472 33.094515,127.141593 C33.3341642,127.268467 33.6800831,127.376905 33.8622599,127.381243 C34.0444366,127.38558 34.6397642,127.607879 35.1862944,127.875722 C35.989824,128.270439 36.4018904,128.340924 37.3322931,128.247667 C37.9742492,128.182603 38.7170532,128.141397 39.0130904,128.154409 C39.2993682,128.167422 39.7070971,128.05573 39.9022864,127.910423 C40.5550864,127.425702 41.2707808,127.114484 41.7110413,127.124243 C41.9539436,127.13075 42.1534705,127.055927 42.1567237,126.958332 C42.1621456,126.693742 45.4684366,125.200544 46.288232,125.093189 C46.5354718,125.060658 46.9757323,124.951135 47.2880353,124.84595 C48.3572393,124.483765 49.4502997,124.425208 50.0749057,124.697389 C50.4240778,124.850287 50.9955489,125.012945 51.3479742,125.061742 C52.0962001,125.163675 53.2337203,125.654901 53.2282984,125.872863 C53.2261296,125.95636 53.5969894,126.160225 54.0350811,126.317461 C54.8678891,126.614582 56.1116791,127.41269 56.2439742,127.733668 C56.283012,127.830178 56.505311,127.916929 56.7265257,127.922351 C56.9531622,127.927773 57.4834266,128.137059 57.9182652,128.39189 C58.3552725,128.647805 58.9440938,128.858176 59.2444685,128.865766 C59.5318306,128.872273 59.7823237,128.972036 59.7801549,129.077221 C59.7758173,129.273495 61.1616619,129.560857 62.5279874,129.646524 C62.8934253,129.669296 64.4332526,129.455672 65.9633203,129.169394 C68.6710306,128.661902 69.5775768,128.434181 70.9655901,127.909338 C71.3429562,127.766199 71.8504486,127.599204 72.1334732,127.524382 C72.400232,127.454981 72.636628,127.305336 72.6387967,127.205572 C72.6398811,127.102556 72.977125,126.909535 73.3772632,126.780493 C74.5798466,126.391199 75.3161443,126.044195 75.3204818,125.866356 C75.3269881,125.636467 76.6813855,124.417617 76.9242878,124.424124 C77.0348951,124.426292 77.1248991,124.30701 77.1292366,124.151943 C77.1324898,123.999045 77.5380499,123.411308 78.0444579,122.826824 C78.5497815,122.241256 78.9553416,121.674122 78.9585948,121.543996 C78.9618479,121.418207 79.2264379,120.789264 79.5441629,120.155983 C80.0473177,119.150758 80.2273257,118.981593 80.9094041,118.873155 C81.345327,118.804839 82.3581429,118.823273 83.1736007,118.91653 C84.8706639,119.109551 86.0548127,118.933881 86.3822971,118.439401 C86.9711183,117.553458 86.1155383,115.963749 84.9064486,115.698075 C84.6874027,115.650362 84.3653403,115.553851 84.1831635,115.482282 C84.0020712,115.410712 83.2831237,115.215523 82.5804419,115.046359 C81.8777602,114.877195 81.2596605,114.654896 81.2000193,114.54971 C81.1403781,114.443441 80.8519316,114.354521 80.5428818,114.34693 C80.2327476,114.33934 80.0418958,114.252589 80.1047901,114.148488 C80.1687688,114.046556 79.9952672,113.616055 79.7198333,113.189891 C79.4368087,112.752884 79.0822147,112.069721 78.9065443,111.622954 C78.7352114,111.190284 77.8037243,109.973604 76.8483808,108.934763 C75.8930373,107.895922 75.1068579,106.917806 75.110111,106.772498 C75.1144486,106.631528 74.8867276,106.435255 74.623222,106.352841 C74.3597164,106.269344 73.928131,105.998247 73.6982413,105.771611 C72.2082958,104.304437 71.5446519,103.755738 71.3353655,103.818633 C71.1954798,103.862008 70.928721,103.734051 70.7129283,103.520427 C70.5036419,103.313309 69.8096353,102.968475 69.1524977,102.744007 C68.4942758,102.519539 67.9184672,102.192055 67.8544884,102.00554 C67.7926785,101.821195 67.5096539,101.666128 67.2222918,101.659621 C66.936014,101.653115 66.6074453,101.557689 66.4881629,101.447082 C65.9101855,100.913564 63.6134572,100.594755 59.9037748,100.534029 C58.6231157,100.513426 56.6907409,100.907058 56.685319,101.188998 C56.6831502,101.262736 56.2363835,101.438407 55.6811781,101.584799 C55.1248884,101.731191 54.6792061,101.937224 54.6759529,102.046747 C54.6737841,102.150848 54.5273921,102.243021 54.3734094,102.238683 C54.2129203,102.23543 53.8225416,102.491345 53.5275888,102.792804 C52.3965748,103.955265 51.3078519,104.365163 49.3852366,104.349982 C47.8389031,104.338053 46.1667808,103.98129 45.7948366,103.582237 C45.6321788,103.408735 44.0370479,102.608459 43.2042399,102.284227 C42.810608,102.130245 42.3410692,101.787579 42.1729894,101.53058 C42.0049097,101.275749 41.6210373,101.05345 41.3336752,101.046944 C41.0473974,101.040437 40.7448539,100.931999 40.6754532,100.810548 C40.4780951,100.467882 38.8677828,99.7435124 35.8672884,98.6482832 C35.1440034,98.3847775 34.1897443,97.9716267 33.7462306,97.7298087 C33.2387383,97.4543749 32.5859383,97.3025609 31.9884419,97.3231642 C31.4581775,97.3426832 30.8444154,97.2884639 30.5993443,97.2027974 C30.3542732,97.1160466 29.9150971,97.178941 29.6017097,97.3448519" id="Fill-1"></path>
                <path d="M9.56487037,5.98447559 C9.8739202,5.32083173 10.174295,4.95539386 10.3998471,4.96515333 C10.5885302,4.97382841 11.0136092,4.96081579 11.3194059,4.93804369 C12.1706484,4.87514934 13.0815322,5.37396662 13.4545607,6.10917991 C14.0271162,7.2369407 15.8011707,9.44366496 16.2739627,9.618251 C16.5591561,9.722352 17.2358126,10.4120211 17.3301541,10.6928769 C17.3811202,10.8425221 17.5839003,10.9780703 17.7639082,10.9834922 C17.9450006,10.9889141 18.1434431,11.1147028 18.1911561,11.2545885 C18.2399534,11.4009806 18.4687587,11.6981022 18.7094923,11.9301606 C18.9480571,12.1611347 19.3959082,12.7065806 19.7158019,13.1587693 C20.0356956,13.610958 20.6288544,14.2073699 21.0517647,14.5012384 C21.6698644,14.930655 21.9160199,15.2960929 22.3725461,16.4628915 C22.681596,17.2544929 23.0014896,17.8747613 23.0839029,17.8465673 C23.1663162,17.8194576 23.6813993,17.9571746 24.2160013,18.1491108 C24.7603627,18.3443002 26.1928358,18.6349155 27.4344571,18.8008264 C28.6771627,18.9667374 29.7279322,19.1565048 29.7940797,19.2269899 C29.862396,19.2974749 30.126986,19.2833779 30.3883229,19.1955427 C30.6496597,19.1077075 30.9467813,19.1077075 31.0519667,19.1955427 C31.4564425,19.5317022 31.6169315,19.2074709 31.2254684,18.8463706 C31.0107601,18.6500968 30.7830391,18.4006882 30.7255667,18.298756 C30.6659255,18.1957394 30.515196,17.944162 30.391576,17.7392131 C30.2690405,17.5386018 29.8981807,17.0766537 29.5826245,16.7350723 C29.2681528,16.3934909 28.9558498,15.9684118 28.9027149,15.8111759 C28.8484956,15.6517713 28.4732983,15.1497008 28.0709913,14.7029341 C27.6686843,14.2550829 27.1763734,13.5751733 26.9822684,13.1988915 C26.787079,12.8171879 26.5159827,12.4409062 26.3739282,12.3519866 C26.2329581,12.2641513 26.1245195,12.0440211 26.1299415,11.8629287 C26.1375322,11.6796676 25.8143853,11.2860357 25.4044876,10.9769859 C24.5228823,10.3100889 23.6434458,8.90147226 23.6044079,8.08926761 C23.5881421,7.75961446 23.5078976,7.40827359 23.4233156,7.29983506 C23.2324637,7.05042642 23.9785209,5.23299652 24.3201023,5.11805167 C24.4610724,5.07033871 24.5619202,4.93370615 24.5630046,4.7894829 C24.5662577,4.40561047 26.3207933,3.87859917 27.231677,3.98920648 C27.8150764,4.05969153 28.1479827,4.24837459 28.3952225,4.65285034 C28.5893275,4.96840648 28.9807906,5.28179386 29.2833342,5.36095399 C30.0836106,5.57132476 30.627972,6.24147492 31.2601687,7.79756795 C31.5887375,8.60543506 31.9411627,9.20510017 32.1124956,9.24630682 C32.2827441,9.28642908 32.3651574,9.39486761 32.3109381,9.50439054 C32.259972,9.60632276 32.3282883,9.7668118 32.4627521,9.8557314 C32.5961315,9.944651 32.9951853,10.4825062 33.3421886,11.0377115 C33.6870232,11.5929168 34.0708956,12.1264344 34.1836717,12.2099321 C34.2975322,12.2923454 34.6195946,12.6447706 34.8896066,12.9798457 C35.1672092,13.3214271 35.9045913,14.1379693 36.5498006,14.8167945 C37.1939255,15.4956198 37.7545528,16.1679387 37.808772,16.3295121 C37.8629913,16.4900012 37.9898644,16.6288025 38.0917966,16.638562 C38.4713315,16.6743467 40.0664624,17.8877739 40.3657528,18.3681567 C40.5392544,18.6457593 40.7713129,18.8366111 40.8895109,18.7964889 C41.0152996,18.7541978 41.1410883,19.0252942 41.2028983,19.4753141 C41.3059149,20.22354 41.8307574,20.7191042 42.3404185,20.5477713 C42.4607853,20.507649 42.591996,20.5651214 42.6288651,20.6746444 C42.6679029,20.7906736 42.8273076,20.8318802 43.0083999,20.7711547 C43.1894923,20.7104291 43.4887827,20.7494669 43.7230099,20.8665806 C43.9463933,20.9771879 44.3866538,21.0433354 44.7130538,21.014057 C45.0394538,20.9847786 45.5328491,21.0628543 45.8245488,21.188643 C46.1162484,21.3155161 46.7516983,21.3491321 47.260275,21.2656344 C47.7688518,21.1821367 48.3392385,21.1973181 48.5485249,21.3014191 C49.0983082,21.5746842 48.9909541,21.3773261 48.2524876,20.7527201 C47.9109063,20.4642736 47.5649873,20.0413633 47.4912491,19.8223174 C47.4175109,19.6032716 46.9089342,19.0111972 46.371079,18.5199706 C44.8507707,17.1287042 42.5421142,14.4296689 42.3274059,13.790966 C42.1994484,13.4081779 42.0346219,13.2617859 41.8166604,13.3355241 C41.6160491,13.4038404 41.4989355,13.3203427 41.5065262,13.1153939 C41.5141169,12.9364703 41.1259069,12.2240291 40.6574524,11.5538789 C40.1879136,10.8837287 39.7368092,10.2244224 39.6674086,10.1073088 C39.5936704,9.98477326 39.4039029,9.8036809 39.2249793,9.6854829 C38.8324318,9.42739917 38.2783109,7.92227226 38.3726524,7.37465765 C38.4116903,7.15778057 38.4127747,6.71209818 38.3759056,6.41172343 C38.2848172,5.6645819 38.6817023,4.61598123 39.2954644,3.97836263 C39.7292185,3.52725831 39.9634458,3.43508555 40.7995069,3.39171014 C41.9858245,3.32990017 42.4466883,3.7658231 43.3250405,5.77627359 C43.9886843,7.29875067 45.4829674,9.50113738 46.0457634,9.78633074 C46.2583029,9.89368489 46.4437328,10.0520052 46.4773488,10.1561062 C46.5098803,10.2537008 46.7614577,10.43154 47.0227946,10.5432317 C47.2895534,10.6570922 47.8946405,11.1450656 48.3739388,11.633039 C48.849984,12.1166749 49.9560571,13.2390138 50.8203122,14.1130284 C51.6845674,14.9859586 52.5217129,15.8187666 52.6702737,15.952146 C52.823172,16.089863 53.1127029,16.3859002 53.3284956,16.6266337 C53.8999667,17.2631679 55.5330511,18.7346789 55.9516239,18.9905939 C56.1457288,19.1087919 56.6564744,19.249762 57.0761315,19.2996437 C58.0227999,19.4145885 59.0616411,20.2734218 59.3728597,21.1984025 C59.5604584,21.7611985 59.6873315,21.8761434 60.0018033,21.7698736 C60.2219335,21.6961354 60.4745953,21.7080636 60.5819494,21.7980676 C60.6882192,21.889156 60.9105182,21.9119281 61.0916106,21.8512025 C61.2683654,21.7915613 61.948275,21.8013208 62.5989063,21.8728902 C64.4586272,22.077839 64.9487694,21.9813287 65.0496172,21.3925075 C65.1016677,21.0921327 64.9780478,20.6225939 64.7373142,20.2105274 C64.5193528,19.8353301 64.2113873,19.216146 64.0563202,18.8387799 C63.7375109,18.0656131 63.1313395,16.8662829 62.6748132,16.1017912 C62.5013116,15.8133447 62.1911773,15.1681354 61.9786378,14.6573899 C61.2358338,12.8703228 60.4496544,11.2122975 60.273984,11.0669899 C60.1807268,10.9889141 59.9660185,10.6104636 59.8044451,10.2396038 C59.6439561,9.86874403 59.3739441,9.52390947 59.2145395,9.48595599 C59.0529661,9.44691811 58.7189754,8.88086894 58.461976,8.20638123 C57.9696651,6.91596263 57.4253036,6.4214829 56.4428504,6.37051678 C56.1706697,6.35641977 55.8887295,6.18508688 55.8236664,5.99315067 C55.7575189,5.79470815 55.4885913,5.43360781 55.2109886,5.16901778 C54.933386,4.90442775 54.7381966,4.60188422 54.7663906,4.47934868 C54.7935003,4.36006628 54.7154245,4.29500316 54.5939734,4.33512542 C54.2415481,4.45332343 53.864182,2.76818854 54.0290086,1.81718256 C54.3217926,0.129878909 55.3747308,-0.26483737 58.4717355,0.154819773 C59.6200996,0.310971268 61.2065554,1.39427226 61.7107946,2.36696595 C61.905984,2.74433207 62.3733541,3.35267226 62.7485514,3.71919452 C63.1248332,4.08571678 63.4349674,4.46958921 63.4393049,4.57260582 C63.4436425,4.68212874 63.5629249,4.83285831 63.7244983,4.93479054 C64.2135561,5.2416716 65.5657847,7.13609286 65.5939787,7.55249685 C65.6102445,7.77588024 65.8715813,8.2313221 66.1600278,8.53711878 C66.4538963,8.84616861 66.8486126,9.41438655 67.0264518,9.77982442 C67.3441767,10.4358776 68.1889129,11.784853 69.5715043,13.8484384 C69.9391109,14.3971374 70.4574471,15.214764 70.7144464,15.6474337 C70.9671082,16.0768503 71.3477275,16.5962709 71.5418325,16.7795321 C71.7348531,16.9606244 71.9051016,17.2978683 71.9094391,17.5060703 C71.9137767,17.7186098 72.1837886,18.3095998 72.5036823,18.8062483 C72.865867,19.3690444 73.1825076,20.1563081 73.3321528,20.867665 C73.4677009,21.5161274 73.684578,22.0875985 73.8288013,22.1776025 C73.9676026,22.2643533 74.4913607,22.2524251 74.9717435,22.1515772 C75.4575481,22.0485606 76.4410857,22.0236198 77.1361767,22.0951892 C77.8334365,22.1667586 79.1336146,22.1092862 80.004376,21.9694005 C80.8762219,21.8295148 81.9443415,21.6874603 82.3629142,21.6581819 C82.7782338,21.6278191 83.4397089,21.4966085 83.8116531,21.3719042 C84.9567641,20.985863 86.0357275,21.1149048 87.3467494,21.7948145 C88.0277435,22.1472397 88.7618724,22.3923108 88.9473023,22.3305008 C89.1316478,22.2686909 89.7237222,22.3771294 90.2355521,22.5668968 C91.4056039,23.0017354 92.2557621,24.1056397 92.5105926,25.5196782 C92.6754192,26.4273088 92.3360066,27.5789261 91.9336996,27.4824158 C91.8252611,27.4563905 91.2364398,27.9736424 90.6118338,28.6437925 L89.484073,29.8507135 L87.1179441,30.6021925 C85.823188,31.014259 84.483972,31.3428277 84.1608252,31.3287307 C83.8344252,31.3146337 83.0981275,31.4631945 82.5136438,31.6583839 C81.9302445,31.8546576 81.3403388,31.9630962 81.1961156,31.8991174 C80.8979096,31.7679068 79.0956611,31.9132145 78.4927428,32.1159945 C78.2574312,32.1951547 77.8193395,32.1452729 77.5026989,32.0021341 C77.184974,31.8579108 76.7794139,31.7971852 76.5831401,31.8633327 C76.3814445,31.9305646 76.1504704,31.9132145 76.0431162,31.8210417 C75.9335933,31.7277846 75.7243069,31.7050125 75.5432146,31.765738 C75.3664597,31.8253792 74.9435494,31.7820038 74.5694365,31.6681434 C74.205083,31.5564517 73.5305953,31.5412703 73.0697315,31.6345274 C72.6088677,31.7277846 72.0005275,31.8069447 71.7175029,31.8091135 C71.3162803,31.813451 71.211095,31.9045394 71.2306139,32.2309394 C71.2555548,32.6202337 70.7068558,33.2621899 68.3895242,35.5578337 C67.9536013,35.9905035 67.6228637,36.4079919 67.6510577,36.4914895 C67.6792518,36.5749872 67.5415348,36.6964384 67.3398391,36.7636703 C67.1413966,36.8309022 66.9125913,37.1095892 66.8323468,37.3828543 C66.7510179,37.6561194 66.5720943,37.9174563 66.433293,37.9640849 C66.2944916,38.0107135 65.9214631,38.3349447 65.5939787,38.6949606 C65.2664943,39.0538922 64.8761156,39.3835454 64.7134577,39.438849 C64.5529687,39.4919839 64.4521209,39.6264477 64.48899,39.737055 C64.5258591,39.8454935 64.4163362,39.9864636 64.2558471,40.0406829 C64.0942737,40.0949022 63.9858352,40.2358723 64.0216199,40.3432264 C64.0595734,40.4549181 63.8979999,40.6078165 63.6572664,40.6891454 C63.4154484,40.7704743 63.1237488,41.0036171 62.9947069,41.217241 C62.5793873,41.9079945 61.3041501,43.1788942 60.0440943,44.1570098 C59.351172,44.694865 58.6398152,45.3498337 58.4359508,45.6361115 C58.2385926,45.9169673 57.8211043,46.2346922 57.5196451,46.3366244 C57.2171016,46.4374723 56.9026298,46.6966404 56.8267229,46.9048424 C56.7519003,47.1097912 56.5827362,47.3234151 56.4656225,47.362453 C56.3452558,47.4036596 55.628477,48.0347719 54.885673,48.7558882 C53.7373089,49.8706364 53.3599428,50.1211294 52.4512278,50.3694537 C51.5696225,50.6112716 51.2497288,50.592837 50.6869328,50.2686058 C49.975576,49.8597925 49.3347043,48.5813022 49.6513448,48.2028517 C49.7413488,48.0954975 49.7630365,47.8710297 49.7023109,47.6899374 C49.5396531,47.2084703 50.7953714,45.0169274 51.3375641,44.8336663 C51.5067282,44.7772782 51.7713182,44.4899161 51.9372292,44.1852038 C52.1031401,43.8783228 52.3937554,43.5833699 52.5965355,43.5150537 C52.794978,43.4478218 53.1083654,43.2417885 53.2927109,43.057443 C53.6483893,42.6995959 53.7275494,42.6171826 55.6122112,40.6338417 C56.2899521,39.9203161 57.1574604,39.0137699 57.525067,38.6331507 C57.8937581,38.2503626 58.5454737,37.4414111 58.9694684,36.8374085 C59.3923787,36.2344902 59.79577,35.7194071 59.8619175,35.6977194 C60.0430099,35.6369939 61.5893435,34.1524703 61.6565754,33.9746311 C61.6880225,33.890049 61.9862285,33.5582271 62.3061222,33.2480929 C63.6735322,31.9218895 63.9760757,31.1790856 63.017479,31.501148 C62.8157833,31.5694643 62.6260159,31.534764 62.586978,31.4219879 C62.5501089,31.3102962 62.3592571,31.2755959 62.1586458,31.3428277 C61.9569501,31.411144 61.6793474,31.411144 61.531871,31.3439121 C61.2141461,31.1986045 58.3416092,31.132457 58.3795627,31.2712583 C58.3947441,31.326562 57.9046019,31.2116171 57.3016837,31.0175121 C56.6998498,30.8234071 56.0741594,30.7030404 55.9255986,30.7529221 C55.7737847,30.8038882 55.4029249,30.7312344 55.0862843,30.5870111 C54.7707282,30.4449567 54.3640837,30.3831467 54.1678099,30.4492942 C53.9715362,30.5154417 53.5366976,30.5371294 53.1886099,30.4991759 C52.6995521,30.446041 52.558582,30.4926696 52.5542445,30.7117155 C52.5509913,30.8732889 52.4273714,31.0348623 52.2668823,31.0890816 C52.1053089,31.1433008 52.0142205,31.2690895 52.0532584,31.3840344 C52.1638657,31.7147719 51.2800916,33.2112238 50.8973036,33.3402656 C50.6966923,33.4085819 50.4733089,33.6623281 50.3952332,33.9117367 C50.3182418,34.1622297 49.890994,34.6089965 49.4355521,34.916962 C48.523584,35.5328929 47.1117142,36.861265 47.0835202,37.1312769 C47.0726764,37.229956 46.8525461,37.3871919 46.6107282,37.4696052 C46.3634883,37.5520184 45.9243122,37.8567307 45.6402033,38.1430085 C45.3550099,38.4282018 44.9700531,38.7567706 44.786792,38.8695467 C43.2296146,39.827059 41.2083202,41.222663 40.6444398,41.7279866 C39.8094631,42.4783812 39.6262019,42.6280264 37.8554006,44.0192929 C36.1550843,45.3552557 35.5152969,45.4962258 34.7540584,44.7046244 C34.1695747,44.0951998 33.7553395,42.7961062 33.9917355,42.3189766 C34.0741488,42.15415 34.0849926,41.8624503 34.0177607,41.6607547 C33.9494445,41.4601434 33.9624571,41.2757978 34.0459548,41.2486882 C34.1316212,41.2194098 34.2834352,40.8778284 34.3962112,40.4592557 C34.5100717,40.0406829 34.7399614,39.6719919 34.9275601,39.6080131 C35.1086524,39.5472875 35.3233607,39.3228198 35.3992677,39.1135334 C35.4773435,38.9009939 35.9436292,38.3360291 36.4489528,37.8426337 C36.9553607,37.3492384 37.3316425,36.8742776 37.2980265,36.7734297 C37.265495,36.6736663 37.4194777,36.5316118 37.6406923,36.4578736 C37.8608225,36.383051 38.0158896,36.2453341 37.9844425,36.1509925 C37.9529953,36.056651 38.2490325,35.7400105 38.6426644,35.4483108 C39.0384651,35.1555267 39.3388398,34.8529832 39.3128146,34.7749075 C39.2867893,34.6979161 39.6674086,34.4322417 40.1467069,34.1925925 C40.6260053,33.9529434 41.3135056,33.4909952 41.6540026,33.1819454 C41.9966684,32.8696424 42.5139202,32.4076942 42.7980292,32.1582856 C43.0799694,31.9121301 43.5907149,31.4534351 43.9160305,31.1552291 C44.2413461,30.8570231 44.7271508,30.4774882 44.9787282,30.3235055 C45.4992332,30.0046962 45.9720252,29.4755161 45.7920172,29.4126218 C45.7226165,29.3887653 44.9375215,29.2694829 44.0461567,29.145863 C41.745091,28.8292224 41.5531548,28.7901846 41.4967667,28.6221048 C41.4674883,28.5364384 41.3015773,28.5082444 41.1410883,28.563548 C40.9805993,28.6177673 40.808182,28.5711387 40.7713129,28.4627002 C40.7344438,28.355346 40.5826298,28.3032955 40.4427441,28.3499241 C40.2963521,28.3987214 39.7400624,28.2935361 39.1859415,28.1124437 C38.6339893,27.9302669 38.0798684,27.8196596 37.9378139,27.8608663 C37.794675,27.9020729 37.6526205,27.8467693 37.6157514,27.7339932 C37.4867096,27.3512052 36.4760624,27.6092889 36.0694179,28.1308782 C35.8568783,28.4041434 35.1856438,28.828138 34.592485,29.0645341 C34.0004106,29.2998457 33.4679773,29.576364 33.4202644,29.6717899 C33.371467,29.7704689 33.1025395,29.9244517 32.8010803,30.0252995 C32.4985368,30.1272317 32.2068371,30.327843 32.127677,30.4872477 C32.0506857,30.6423148 31.5377714,30.9611241 30.9890724,31.1953513 C30.4447109,31.4263254 29.2844185,32.1832264 28.4364292,32.8598829 C27.5895242,33.535455 26.5550205,34.2544025 26.1603043,34.4430856 C25.7547441,34.6350218 25.4565381,34.8486457 25.4836478,34.9278058 C25.509673,35.0047972 25.0303747,35.2422776 24.4285408,35.4504796 C23.8267069,35.6586816 23.2324637,35.980744 23.1218564,36.1585832 C23.0069116,36.3418444 22.6674989,36.5739028 22.3476053,36.6877633 C22.0277116,36.8016238 21.5375694,36.9772942 21.2285195,37.0868171 C20.9281448,37.1941713 20.5345129,37.2765846 20.3610112,37.2700782 C19.8231561,37.2473062 18.9805886,36.2876251 18.6227415,35.2878218 C17.856081,33.1504982 17.8571654,33.1179666 18.73118,31.8253792 C19.4783215,30.7203905 19.6333886,30.5935174 20.4369182,30.4417035 C21.5310631,30.2345859 25.5790737,28.4822191 25.7525754,28.1395533 C25.8263136,27.9920769 26.0475282,27.8196596 26.2492239,27.7524277 C26.4498352,27.6851959 26.5875521,27.5637447 26.5604425,27.4791626 C26.5311641,27.395665 27.0158843,27.1386656 27.6524185,26.9001008 C28.2889528,26.6604517 28.7942764,26.3654988 28.7942764,26.2353726 C28.793192,26.1030776 28.9341621,25.9534324 29.1152544,25.8927068 C29.3885195,25.8005341 29.3592411,25.7506523 28.9146431,25.5608849 C28.1729235,25.24316 26.7838259,24.8853128 25.1637541,24.5925287 C24.6150551,24.4938497 24.1563601,24.3279387 24.1184066,24.2151626 C24.0815375,24.1045553 23.9199641,24.0579267 23.759475,24.112146 C23.5979016,24.1663653 23.3072863,24.0622643 23.1110126,23.8822563 C22.9158232,23.7022483 22.6414737,23.5927254 22.5037567,23.639354 C22.3649554,23.6859826 21.786978,23.4766962 21.2198445,23.175237 C20.1029275,22.5809939 19.7277302,22.6113567 18.9729979,23.3595826 C17.6630604,24.6565075 17.1826777,24.9839919 16.7153076,24.9004942 C16.4767428,24.8582032 16.2761315,24.8636251 16.2923973,24.911338 C16.3097474,24.9612198 15.6602006,24.9948357 14.8740212,24.9850763 C14.0878418,24.9774856 13.3862445,25.0392955 13.3407003,25.1217088 C13.2593714,25.271354 12.8494737,25.4578683 10.7208252,26.3188703 C10.1103162,26.5661101 9.54318266,26.855641 9.4510099,26.9673327 C9.35883715,27.0790244 8.46421921,27.4639812 7.44706572,27.8315879 C6.42774346,28.1991945 5.58951356,28.5808982 5.56348831,28.6893367 C5.48324379,29.0179055 4.79032153,29.1859852 4.17655941,29.0244118 C3.6506325,28.8856105 3.56821921,28.7446404 2.9826511,26.9716703 C2.37647967,25.1379746 2.3667202,25.0371267 2.73974878,24.2542005 C3.07373947,23.5536875 3.26676007,23.3942829 4.15270293,23.0960769 C4.71549894,22.9063095 5.24793216,22.6113567 5.33142984,22.4421925 C5.45071223,22.2036277 5.57433216,22.1656743 5.88229761,22.2795347 C6.1425501,22.376045 6.52425376,22.2936317 6.99813017,22.0388012 C7.82009429,21.5963719 7.87214479,21.5779374 10.618893,20.7548889 L12.7334445,20.1205234 L11.6186963,19.6997819 C11.001681,19.4688078 9.78391622,18.9721593 8.8947202,18.5904557 C8.00552419,18.208752 6.79643449,17.7142723 6.19351622,17.4843826 C5.58951356,17.2544929 4.44006505,16.7654351 3.62135409,16.3913221 C2.80047436,16.0161248 2.08586439,15.7320158 2.0186325,15.7547879 C1.80500858,15.8263573 0.641463061,14.561964 0.367113559,13.9590457 C-0.144716341,12.8334537 -0.124113019,12.1329407 0.446273692,11.4139932 C1.41679861,10.1875533 2.80155874,10.0292331 4.86514412,10.9086696 C5.30974213,11.0973527 5.67301123,11.312061 5.70337402,11.4031493 C5.81831888,11.7447307 8.92074545,13.4331188 9.23847037,13.3257646 C9.36100592,13.284558 9.82078532,13.5328822 10.2632146,13.8766324 C10.7056438,14.2203826 11.1578325,14.4708756 11.2673554,14.4340065 C11.3747096,14.3982218 11.6718312,14.4773819 11.8995521,14.6020862 C12.383188,14.8645075 13.891568,15.341637 14.0607322,15.285249 C14.2754405,15.2136796 13.9447029,14.6085925 13.2561182,13.8094005 C12.8668239,13.3582962 12.2986059,12.6295892 11.9863029,12.1774005 C11.6718312,11.723043 11.2912119,11.3304955 11.1285541,11.292542 C10.5614205,11.1591626 9.88042652,10.2884012 9.63860858,9.38510815 C9.08882519,7.33128223 9.08231888,7.0222324 9.56487037,5.98447559" id="Fill-3"></path>
                <path d="M52.8344496,212.819634 C53.0730144,212.985545 53.3430264,213.105912 53.4351991,213.087477 C53.5262875,213.069043 53.890641,213.199169 54.2246317,213.367249 C54.8329719,213.675214 54.8503221,213.712083 54.9782795,214.966717 C55.0747898,215.937242 55.0129799,216.3916 54.7191114,216.829691 C54.2712603,217.496588 53.1283181,218.241561 52.953732,217.97914 C52.8897533,217.882629 52.6902264,217.840338 52.514556,217.886967 C52.3334636,217.93468 51.8888656,217.781782 51.4887274,217.533457 C51.0875048,217.285133 50.7058011,217.115969 50.6060377,217.141994 C50.3219287,217.216817 50.1755367,216.292921 50.418439,215.953508 C50.5409746,215.784344 50.6157971,215.518669 50.5810968,215.383121 C50.5041055,215.087084 50.8586995,213.628586 51.1655805,212.987714 C51.4160736,212.461787 52.2055061,212.382627 52.8344496,212.819634 M30.1751327,209.632625 C30.4473134,209.561056 30.8127513,209.647807 31.0057719,209.828899 C31.1955393,210.007823 31.5176018,210.109755 31.7192975,210.05662 C32.0890729,209.96011 33.3643101,210.705083 33.4619048,211.073774 C33.5540775,211.427283 33.3426224,213.721843 33.1539393,214.414765 C32.9457373,215.177088 32.4480045,215.680243 31.7106224,215.873263 C31.4579606,215.939411 31.2150583,216.089056 31.1803579,216.199663 C31.070835,216.553173 29.7261971,216.305933 28.4672257,215.700846 C26.827635,214.912498 26.6563021,214.701043 26.6096736,213.412793 C26.529429,211.149681 26.591239,210.93931 27.5292324,210.308198 C28.1462476,209.891794 28.5789174,209.73022 29.04195,209.743233 C29.3976284,209.751908 29.9083739,209.702026 30.1751327,209.632625 M55.5540882,183.310255 C55.7286742,183.410018 56.1396563,183.794975 56.4671407,184.166919 C57.4040496,185.228532 57.4886317,186.695706 56.6796802,187.835395 C56.1786942,188.540245 56.1786942,188.540245 55.6516829,188.268065 C55.0411739,187.954677 54.0608895,188.224689 53.5208656,188.853633 C53.2074782,189.217986 53.1521746,189.210396 52.6338383,188.722422 C52.3237041,188.430722 52.0135699,188.044681 51.9257347,187.839732 C51.8357307,187.633699 51.5754782,187.257418 51.3228164,186.970055 C50.9725599,186.571002 50.8879779,186.316171 50.9237626,185.766388 C50.9497878,185.386853 51.0560576,185.094069 51.1601586,185.123347 C51.265344,185.152625 51.7619925,184.842491 52.2575566,184.438016 C53.2833852,183.60087 55.0227393,183.005542 55.5540882,183.310255 M14.2064736,192.06992 C15.5023141,192.815977 16.5519991,193.796261 16.4381387,194.156277 C16.4066915,194.252788 16.5671805,194.558584 16.7808045,194.813415 C17.5398742,195.714539 17.5940935,197.066768 16.9120151,198.102356 C15.9176337,199.612905 15.625934,199.897014 14.992653,199.966414 C14.6499872,200.005452 14.3463593,199.957739 14.3214184,199.861229 C14.2953932,199.76255 14.0232124,199.75279 13.6924749,199.839541 C13.3628217,199.926292 13.0884722,199.907857 13.0581094,199.798334 C13.0309998,199.69098 12.8531606,199.645436 12.6579712,199.695318 C12.2697613,199.798334 10.3850995,199.106497 10.3146144,198.836485 C10.2907579,198.743227 9.94809216,198.372368 9.57397921,198.034039 C8.9287699,197.45064 8.87996859,197.34437 8.87996859,196.513731 C8.87888818,195.708033 9.09901841,195.234156 10.4957068,193.038276 C10.6008922,192.873449 10.805841,192.51994 10.9533174,192.253181 C11.1376629,191.918106 11.4824975,191.69906 12.0648124,191.546162 C12.8152071,191.348804 13.0570251,191.408445 14.2064736,192.06992 M32.0044908,182.828788 C32.7418729,182.944817 34.1873586,183.7863 34.2849533,184.154991 C34.320738,184.290539 34.472552,184.418497 34.6156908,184.431509 C34.7816018,184.445606 34.9789599,184.824057 35.1372802,185.425891 C35.3671699,186.299905 35.333554,186.491841 34.8087114,187.337662 C34.1222955,188.443735 32.7917546,189.119307 32.173655,188.674709 C31.9893094,188.542414 31.6412217,188.482773 31.4080789,188.543499 C30.2694742,188.842789 29.056047,187.126207 29.1547261,185.35649 C29.2599114,183.480503 30.2976682,182.55986 32.0044908,182.828788 M28.5745799,178.93476 C28.0876908,179.376105 27.5454981,179.726361 27.3752496,179.709011 C27.187651,179.688408 26.841732,180.108065 26.4947287,180.781468 C26.1835101,181.381133 25.8072284,181.915735 25.6695114,181.952604 C25.1034623,182.101165 24.2988483,183.24736 24.3292111,183.861122 C24.3465613,184.210295 24.2717387,184.652724 24.1557094,184.883698 C23.9106383,185.369503 24.6957334,187.773585 25.3409427,188.517473 C25.5708324,188.780979 25.8831354,189.236421 26.0447088,189.547639 C26.2062822,189.857774 26.5164164,190.30454 26.7452217,190.557202 C26.9729427,190.80878 27.1941573,191.161205 27.244039,191.349888 C27.2939207,191.537487 27.5379074,191.753279 27.7862317,191.831355 C28.034556,191.908346 28.2633613,192.067751 28.2948084,192.185949 C28.369631,192.471142 30.5481613,193.337566 30.9374556,193.235634 C31.1120417,193.19009 31.2703619,193.238887 31.2996403,193.34841 C31.3278344,193.456849 31.5826649,193.48179 31.8743646,193.404798 C32.6844005,193.192259 32.9186277,193.338651 33.4413015,194.385083 C33.7080603,194.917516 34.0691606,195.405489 34.258928,195.488987 C34.4476111,195.5714 34.6319566,195.760083 34.6709945,195.909728 C34.7122011,196.06588 34.8260616,196.160222 34.9366689,196.130943 C35.0440231,196.102749 35.1643898,196.20685 35.2045121,196.361917 C35.2457187,196.516984 35.4213892,196.727355 35.5970596,196.829287 C36.0882862,197.116649 36.6554197,197.778124 36.5556563,197.948373 C36.5068589,198.030786 36.1739526,198.073077 35.792249,198.044883 C35.4213892,198.017774 34.6666569,197.98958 34.1255486,197.984158 C33.5844403,197.978736 33.1181546,197.903913 33.0953825,197.819331 C33.0726104,197.730412 32.8893493,197.706555 32.6757254,197.762943 C32.4621015,197.819331 32.2322118,197.797643 32.1487141,197.714146 C31.9893094,197.557994 31.3093998,197.501606 29.5873958,197.503775 C29.1308696,197.503775 28.583255,197.465822 28.3707154,197.419193 C28.1495008,197.369311 27.9022609,197.355214 27.7905692,197.384493 C27.6864682,197.411602 27.173554,197.364974 26.6736523,197.28256 C26.174835,197.200147 25.4114277,197.105806 25.0102051,197.075443 C24.0993214,197.008211 23.3077201,196.909532 22.7991433,196.79784 C22.6007008,196.755549 22.2873134,196.752296 22.1333307,196.793503 C21.979348,196.833625 21.6377666,196.804346 21.41113,196.733861 C21.0641267,196.623254 20.9936417,196.489875 21.0456922,196.040939 C21.1432868,195.186443 20.527356,192.874534 19.9081719,191.770629 C19.6023752,191.228437 19.0666888,190.547443 18.729445,190.274178 C18.3813573,189.991153 18.0658011,189.606196 18.0104975,189.393657 C17.9541094,189.180033 17.7849453,189.002194 17.6222875,188.985928 C17.4639672,188.970746 17.215643,188.719169 17.0714197,188.425301 C16.889243,188.059863 16.5617586,187.833226 16.0293254,187.702016 C15.6074995,187.598999 15.0924164,187.335493 14.902649,187.126207 C14.6337214,186.831254 14.3767221,186.78571 13.8139261,186.934271 C13.4061971,187.041625 13.000637,187.054637 12.9084643,186.964633 C12.8162915,186.873545 12.361934,186.89957 11.8956483,187.022106 C11.3903247,187.155485 10.9262078,187.152232 10.7396935,187.014515 C10.285336,186.678356 9.78868751,186.868123 9.04263037,187.664062 C8.68586758,188.044681 8.27163236,188.389516 8.12198718,188.428554 C7.972342,188.467592 7.85305961,188.685553 7.85522838,188.914358 C7.85739715,189.172442 7.6383513,189.435948 7.27074466,189.61704 C6.9410915,189.779698 6.67107954,190.03236 6.65481376,190.193933 C6.63963236,190.343578 6.50950612,190.512742 6.38371741,190.545274 C6.24925363,190.581059 5.88490014,191.112408 5.56825961,191.735929 C5.00437921,192.847424 4.87425296,193.641194 5.02823569,195.054148 C5.06944233,195.438021 5.0423327,196.043108 4.9675101,196.378183 C4.82111808,197.039658 5.26896924,198.269351 5.74284565,198.506831 C5.88815329,198.579485 6.06382373,198.810459 6.13539316,199.02083 C6.49757788,200.087865 7.54509416,201.549617 8.29223569,202.025662 C10.228948,203.261861 11.3198397,203.784535 11.7308217,203.677181 C11.8674543,203.641396 12.0030025,203.682603 12.0236058,203.766101 C12.0463779,203.850683 12.4085626,203.963459 12.8162915,204.014425 C13.2240204,204.065391 13.5862051,204.179251 13.6078928,204.263833 C13.6697028,204.495892 16.9152682,203.624046 16.9987659,203.35295 C17.035635,203.232583 17.2178118,203.143663 17.3891447,203.163182 C17.736148,203.20222 18.4670237,202.469176 18.7836643,201.763241 C18.9745161,201.337077 19.0883765,201.291533 19.9786569,201.282858 C20.5165121,201.277436 21.5455938,201.397803 22.2493599,201.548532 C22.9531261,201.699262 23.8087061,201.751313 24.1383593,201.664562 C24.4690968,201.578895 25.0503274,201.575642 25.4255247,201.65914 C25.7996377,201.743722 26.3917121,201.784928 26.7365466,201.751313 C27.0802968,201.717697 27.6235739,201.787097 27.93913,201.903126 C28.2546862,202.02024 29.4605227,202.165548 30.6197307,202.227358 C31.7778543,202.289168 32.9132058,202.414956 33.1441799,202.509298 C33.5280523,202.666534 33.4846769,202.743525 32.5976496,203.472232 C32.0684696,203.908155 31.5100111,204.298534 31.3603659,204.337572 C31.2096364,204.37661 30.9580589,204.544689 30.7954011,204.713853 C30.5611739,204.95784 30.313934,204.979528 29.5884802,204.823376 C29.0820722,204.714938 28.4585506,204.684575 28.1885387,204.75506 C27.9163579,204.825545 27.6289958,204.810364 27.5335699,204.719275 C27.2386171,204.435166 26.0837466,204.881933 24.897429,205.740766 C24.1285998,206.295972 23.4215805,207.263243 23.3912177,207.800014 C23.3716988,208.137258 23.2242224,208.566675 23.062649,208.758611 C22.9043287,208.94621 22.8045653,209.234656 22.8436031,209.38647 C22.8848098,209.542622 22.8305905,209.691182 22.7232364,209.719376 C22.612629,209.748655 22.5594942,209.887456 22.6007008,210.042523 C22.6386543,210.187831 22.5649161,210.458927 22.4423805,210.623754 C22.3176762,210.789665 22.277554,211.18655 22.3545453,211.477165 C22.4304523,211.768865 22.3990051,212.085505 22.2840603,212.160328 C22.168031,212.236235 22.1615247,212.731799 22.2710476,213.264232 C22.930354,216.433891 23.161328,217.004277 24.3606583,218.425907 C25.1641878,219.377997 25.6955367,219.74235 26.5446104,219.925612 C26.9198078,220.005856 27.258136,220.106704 27.3275367,220.159839 C27.7537001,220.481901 29.9387367,220.90698 30.4624948,220.769263 C30.8019074,220.680344 31.397235,220.613112 31.7735167,220.621787 C32.5249958,220.638053 34.0116882,219.809582 34.2697719,219.230521 C34.3478476,219.051597 34.6287035,218.844479 34.8813653,218.778332 C35.3303008,218.661218 35.7271859,218.0583 36.8300058,215.816875 C37.0414609,215.387459 37.182431,214.968886 37.154237,214.859363 C37.1238742,214.743334 37.173756,214.646823 37.2778569,214.619714 C37.5652191,214.543807 37.4231646,211.65392 37.0609799,210.211687 C36.870128,209.452618 36.5242091,208.38992 36.279138,207.810858 L35.8410463,206.774186 L36.9763978,206.112711 C37.6064257,205.745104 38.2505506,205.317856 38.4262211,205.150861 C38.597554,204.987119 39.0063672,204.595655 39.3219234,204.292027 C39.8348377,203.800801 40.0256895,203.7314 40.9517546,203.698869 C41.5275633,203.678265 42.1706038,203.701037 42.376637,203.749835 C42.5761639,203.796463 42.868948,203.754172 42.9979898,203.659831 C43.1302849,203.562236 43.6648868,203.512354 44.1723792,203.548139 C44.6798716,203.585008 45.4617134,203.540548 45.89113,203.450544 C46.3237998,203.359456 46.799845,203.337768 46.9473214,203.401747 C47.0958822,203.465726 47.5252988,203.464641 47.9015805,203.399578 C48.280031,203.334515 48.7029413,203.317165 48.8460802,203.359456 C48.9816284,203.399578 49.1876616,203.350781 49.2765812,203.257524 C49.3698383,203.159929 49.6984071,203.163182 49.9955287,203.265115 C50.2915659,203.368131 50.7383327,203.402831 50.9703912,203.342106 C51.3683606,203.236921 52.6761294,203.197883 53.4221865,203.269452 C53.5978569,203.285718 54.6594702,203.354034 55.7763872,203.419097 L57.8117785,203.539464 L56.9008948,204.536014 C56.3988244,205.084713 55.5237254,205.898002 54.9565918,206.344769 C54.3883739,206.790451 53.8082277,207.254568 53.6705108,207.37602 C53.2638663,207.728445 52.0005573,208.103642 51.6850011,207.964841 C51.189437,207.747964 50.3110849,207.869415 49.8231114,208.222924 C49.5249055,208.436548 49.2603154,208.510287 49.1063327,208.420283 C48.9490968,208.329194 48.724629,208.428958 48.4828111,208.697885 C48.2746091,208.931028 48.091348,209.062239 48.071829,208.992838 C48.0544789,208.921269 47.8256736,209.079589 47.5459021,209.35936 C47.2661307,209.638047 47.0698569,209.91565 47.0904603,209.998063 C47.112148,210.077223 46.8963553,210.527243 46.6220058,210.982685 C46.3476563,211.438127 46.1405387,211.915257 46.1698171,212.025864 C46.1990955,212.13864 46.1231885,212.363108 45.9995686,212.52685 C45.8802862,212.687339 45.792451,213.121093 45.8108855,213.469181 C45.8304045,213.817269 45.7566663,214.266204 45.6525653,214.445128 C45.5462955,214.627305 45.4552071,215.171666 45.451954,215.64988 C45.4421945,217.210311 47.2563712,220.84517 48.2268962,221.205186 C50.2048151,221.938231 51.7750051,222.349213 53.1749466,222.497774 C54.1790875,222.604043 55.5443287,222.461989 55.6115606,222.244027 C55.6430078,222.137758 55.8468722,221.995703 56.0409772,221.944737 C56.4389466,221.839552 56.9269201,221.207355 58.0698623,219.312934 C58.7345905,218.212283 59.0978596,216.884995 59.0750875,215.645542 C59.0674968,215.294202 59.1152098,214.903823 59.1835261,214.744418 C59.3581121,214.342111 58.8712231,212.189606 58.4266251,211.392583 C57.5894795,209.889625 57.5981546,209.976376 58.2563765,209.659735 C58.5881985,209.50033 58.966649,209.326829 59.0902689,209.276947 C59.2149732,209.227065 59.3103991,208.970066 59.3028084,208.702223 C59.2919646,208.330279 59.425344,208.181718 59.8721108,208.064604 C60.2028483,207.977853 60.4349068,207.835799 60.4088815,207.73712 C60.3383965,207.468192 63.3052749,205.086882 63.9081932,204.928562 C64.0827792,204.883018 64.1977241,204.766988 64.16953,204.662887 C64.1435048,204.558786 64.2215805,204.306124 64.3506224,204.085994 C64.6130437,203.637059 65.3677759,203.52862 65.9316563,203.857189 C66.1214237,203.968881 66.7286795,204.004665 67.2914756,203.936349 C67.855356,203.869117 68.328148,203.892974 68.3541732,203.989484 C68.3791141,204.085994 68.6241852,204.105513 68.8952815,204.035028 C69.1663779,203.963459 69.7139925,203.95153 70.1032868,204.009003 C70.4904124,204.064307 71.2885201,204.054547 71.8513161,203.985146 C72.4151965,203.91683 72.9042543,203.920083 72.9226888,203.994906 C72.9432922,204.069728 73.2848736,204.068644 73.6806742,203.992737 C74.0764749,203.917915 74.5828829,203.897311 74.8008443,203.948277 C75.0231433,204.000328 75.3831593,203.992737 75.6163021,203.930927 C75.8483606,203.870202 76.3883845,203.903818 76.8297294,204.006834 C77.8024231,204.231302 78.9442809,204.302871 79.4485201,204.170576 C79.7976922,204.079488 80.9840098,202.322784 80.9308749,201.97578 C80.9167779,201.885776 80.8809932,201.55287 80.8473772,201.208035 C80.7801453,200.519451 80.1371048,198.910223 80.0113161,199.122762 C79.9636031,199.20626 79.7228696,199.207344 79.4517732,199.124931 C79.1904364,199.043602 78.3164217,199.031674 77.5031327,199.096737 C76.6898437,199.160716 75.9600523,199.147703 75.8754702,199.066374 C75.7941413,198.987214 75.3733998,199.012155 74.9656709,199.118425 C74.5568576,199.225779 74.1306942,199.242045 74.0406902,199.15421 C73.947433,199.063121 73.5917546,199.064206 73.2414981,199.156378 C72.9020855,199.245298 72.2135008,199.234454 71.7504682,199.132522 C71.2885201,199.03059 70.5999354,199.018661 70.2594383,199.107581 C69.9102663,199.199754 69.5535035,199.200838 69.4602463,199.10975 C69.3680736,199.019746 69.0601081,199.007818 68.7684084,199.083724 C68.4582742,199.166138 68.1036802,199.090231 67.8998158,198.89721 C67.6634197,198.674911 67.3413573,198.629367 66.8739872,198.750818 C66.5052962,198.848413 66.0184071,198.890704 65.8091207,198.844075 C65.5965812,198.796362 65.140055,198.707443 64.7908829,198.645633 C63.9418091,198.493819 62.9897187,197.948373 62.4659606,197.312923 C62.2349865,197.033152 61.7231566,196.438909 61.336031,196.000817 C60.9499898,195.564894 60.3980377,194.669192 60.1236882,194.034826 C59.8504231,193.400461 59.467635,192.701032 59.2843739,192.500421 C58.9905055,192.17619 59.0208682,192.010279 59.5392045,191.13518 C59.869942,190.576721 60.2614051,190.105014 60.4305692,190.060554 C60.6051553,190.01501 60.6984124,189.855605 60.6517839,189.681019 C60.6084084,189.515108 60.6788935,188.895924 60.8090197,188.300596 C60.939146,187.705269 61.000956,187.055722 60.9467367,186.851857 C60.896855,186.657752 60.8957706,186.407259 60.9445679,186.323762 C60.995534,186.233758 61.0692722,185.699156 61.1093945,185.107081 C61.1918078,183.902329 60.4988855,181.494994 59.8092164,180.589532 C59.3201586,179.949744 57.4582689,178.798127 57.0733121,178.898975 C56.9193294,178.939097 56.780528,178.887047 56.7501653,178.775355 C56.7230556,178.668001 56.515938,178.630047 56.2827952,178.691857 C56.0496523,178.752583 55.6581892,178.658241 55.3957679,178.478233 C54.9652669,178.181112 54.7527274,178.201715 52.7954118,178.735233 C51.5548749,179.072477 50.6429068,179.23405 50.612544,179.121274 C50.5073586,178.724389 50.0150476,179.140793 49.1681427,180.341208 C48.668241,181.049311 48.0479726,181.80079 47.7898888,182.011161 C47.5318051,182.220447 47.3593878,182.549016 47.4081852,182.734446 C47.4591513,182.928551 47.3897506,183.103137 47.2455274,183.140006 C46.9234649,183.224588 46.1958423,184.578986 46.0245094,185.412878 C45.8748643,186.137247 46.4777825,188.566271 46.884427,188.882911 C47.0286503,188.995687 47.3778224,189.553061 47.6706064,190.140798 C47.9633905,190.727451 48.2789466,191.175302 48.3819633,191.148192 C48.4784736,191.122167 48.611853,191.273981 48.6628191,191.46917 C48.7181227,191.677372 49.036932,192.03522 49.3980324,192.292219 C49.7602171,192.551387 50.0508324,192.798627 50.0670981,192.864774 C50.1245706,193.080567 51.6904231,193.9047 52.3085227,194.042417 C52.6381759,194.116155 52.9222849,194.249534 52.9472257,194.340623 C52.9699978,194.429542 53.1272337,194.470749 53.2812164,194.429542 C53.4373679,194.388336 53.5967726,194.443639 53.6249666,194.546656 C53.6520762,194.652926 54.0316111,194.633407 54.453437,194.505449 C54.8774317,194.377492 55.3263672,194.330863 55.4358902,194.403517 C55.6820457,194.565091 57.002827,196.754465 57.4680284,197.773787 L57.7911752,198.477553 L56.9204138,198.561051 C56.4335247,198.607679 55.939045,198.591414 55.7991593,198.523097 C55.6462609,198.449359 55.4770968,198.520928 55.3610676,198.710696 C55.2157599,198.949261 55.134431,198.970948 55.0118955,198.802869 C54.9229759,198.682502 54.6464576,198.639126 54.3937958,198.705274 C54.141134,198.771422 53.862447,198.751903 53.7691898,198.661899 C53.6770171,198.571895 53.3506171,198.564304 53.0383141,198.645633 C52.7281799,198.726962 52.4006955,198.720455 52.3085227,198.630451 C52.2141812,198.538279 51.9756164,198.510085 51.7619925,198.565388 C51.5527061,198.620692 51.1850995,198.623945 50.9432815,198.572979 C50.7014636,198.522013 50.3208443,198.440684 50.0963765,198.390802 C49.8307021,198.332245 49.6279221,198.403815 49.5162304,198.594667 C49.3871885,198.815881 49.2961001,198.84516 49.1518769,198.710696 C49.0477759,198.614186 48.4611234,198.607679 47.8614583,198.696599 C46.6610437,198.873354 46.5385081,198.880944 45.2643553,198.848413 C44.7210782,198.8354 44.335037,198.710696 44.2884084,198.535025 C44.1962357,198.183685 43.6898277,197.674023 42.9470237,197.184966 C42.6314676,196.976764 42.3647088,196.740368 42.3397679,196.648195 C42.3169958,196.559275 42.1608443,196.518069 42.0057772,196.559275 C41.8463726,196.600482 41.5047912,196.431318 41.2532138,196.186247 C41.0027207,195.941176 40.375946,195.356692 39.8792975,194.905588 C39.382649,194.454483 38.932629,193.948075 38.8925068,193.795177 C38.8502158,193.64011 38.7406928,193.468777 38.6463513,193.413473 C38.5530942,193.35817 38.2136815,192.945019 37.9013785,192.508012 C37.2789413,191.632913 37.2995447,191.150361 37.9642729,190.975775 C38.1833187,190.918303 38.4468244,190.412979 38.6691234,189.627884 C38.8664815,188.932793 39.1017932,188.110829 39.1972191,187.786598 C39.4661466,186.873545 39.2438476,184.576817 38.77214,183.392668 C38.5422503,182.815775 38.015239,181.888625 37.5825692,181.296551 C36.8169932,180.251204 35.2413812,178.838249 34.9204031,178.908734 C34.8238928,178.930422 34.3456789,178.773186 33.8533679,178.558478 C33.3610569,178.34377 32.8752523,178.191956 32.7678981,178.22015 C32.6637971,178.247259 32.4295699,178.163762 32.2636589,178.041226 C32.1010011,177.919775 31.7789387,177.856881 31.5848337,177.907847 C31.3918131,177.958813 31.189033,177.903509 31.160839,177.790733 C31.0610756,177.414451 29.4800417,178.11388 28.5745799,178.93476" id="Fill-5"></path>
            </g>
        </g>
    </g>
</svg>