<?xml version="1.0" encoding="UTF-8"?>
<svg width="70px" height="51px" viewBox="0 0 70 51" version="1.1" xmlns="http://www.w3.org/2000/svg" xmlns:xlink="http://www.w3.org/1999/xlink">
    <!-- Generator: Sketch 61 (89581) - https://sketch.com -->
    <title>img-nav-sick-child-white</title>
    <desc>Created with Sketch.</desc>
    <g id="Page-1" stroke="none" stroke-width="1" fill="none" fill-rule="evenodd">
        <g id="200318_kodomonooka-ver2" transform="translate(-735.000000, -6400.000000)" fill="#FFFFFF">
            <path d="M783.611546,6437.15809 C782.863614,6437.03439 782.570194,6436.90686 782.313213,6436.59426 C781.80692,6435.97674 781.808838,6435.3199 782.318007,6434.93059 C782.859778,6434.51827 783.520452,6434.35909 784.002772,6434.52594 C784.259754,6434.61607 784.682624,6434.62183 784.953989,6434.54032 C785.674113,6434.32265 786.770122,6434.52306 787.003132,6434.91429 C787.213128,6435.26524 787.234224,6436.22125 787.033816,6436.28166 C786.964776,6436.30276 786.936968,6436.39961 786.969571,6436.50892 C787.059706,6436.80713 785.79781,6437.34795 785.447816,6437.16 C785.380694,6437.12357 785.154396,6437.14466 784.951112,6437.20603 C784.746869,6437.2674 784.141811,6437.2463 783.611546,6437.15809 M800.862893,6433.20939 C801.052752,6433.56705 801.045081,6433.6802 800.813031,6433.95444 C800.571391,6434.24115 800.458242,6435.27099 800.567555,6436.20016 C800.623171,6436.67289 800.577144,6437.08617 800.464954,6437.11973 C800.396873,6437.14083 800.36523,6437.23192 800.393997,6437.32685 C800.421804,6437.42082 800.269341,6438.0604 800.049756,6438.76326 C799.784144,6439.61284 799.551134,6440.09228 799.341138,6440.22077 C799.170456,6440.32433 798.837722,6440.58899 798.60663,6440.80473 C798.375538,6441.02048 798.149241,6441.1787 798.105132,6441.15569 C798.062941,6441.13267 797.974723,6441.2324 797.91719,6441.3676 C797.85678,6441.50952 797.646784,6441.67157 797.442541,6441.73294 C797.239257,6441.79431 797.035972,6441.91417 796.984192,6442.0043 C796.933371,6442.09348 796.537351,6442.41375 796.097221,6442.72251 C795.658051,6443.03127 795.198744,6443.37168 795.068335,6443.48483 C794.499715,6443.97961 792.612624,6444.96535 791.717023,6445.2348 C791.174293,6445.39877 790.71978,6445.60493 790.694849,6445.6989 C790.665123,6445.80821 790.02171,6446.04697 788.862415,6446.37587 C786.939845,6446.9234 786.047121,6447.06723 785.2896,6446.95312 C785.023988,6446.91189 784.570434,6446.90038 784.312493,6446.92627 C784.053593,6446.95216 783.755379,6446.90614 783.667162,6446.82559 C783.58278,6446.74696 783.41881,6446.69998 783.326757,6446.72778 C782.892381,6446.85819 781.767605,6445.50137 782.047601,6445.18589 C782.199105,6445.01425 781.801167,6444.21933 781.526925,6444.14454 C781.404187,6444.11098 781.381174,6444.01988 781.45309,6443.85016 C781.510624,6443.714 781.508706,6443.5788 781.450214,6443.54715 C781.317887,6443.4762 781.018714,6442.71484 780.253522,6440.50269 C779.929418,6439.56393 779.615862,6438.746 779.561205,6438.6971 C779.428879,6438.57916 779.326278,6437.96835 779.395318,6437.71136 C779.425043,6437.5963 779.31573,6436.99507 779.15176,6436.37755 C778.819026,6435.13004 778.746151,6434.46457 778.920668,6434.26992 C779.03957,6434.13855 779.173815,6433.64664 779.252443,6433.0598 C779.303264,6432.67433 779.78079,6431.95324 780.035855,6431.87653 C780.239139,6431.81516 780.705158,6431.37887 780.781869,6431.1775 C780.805841,6431.11422 781.033098,6430.96175 781.278573,6430.84477 C782.081162,6430.46026 782.475265,6430.21574 782.614303,6430.01725 C782.770602,6429.79191 784.45345,6429.29137 784.951112,6429.32206 C785.140972,6429.3326 785.544664,6429.22809 785.843837,6429.08905 C786.143009,6428.95097 786.517935,6428.84069 786.673274,6428.84741 C786.83245,6428.8522 787.091349,6428.75823 787.261072,6428.63262 C787.426001,6428.50988 788.017635,6428.24523 788.56516,6428.04769 C789.112684,6427.8492 789.56432,6427.67948 789.562403,6427.67277 C789.560485,6427.6651 789.822261,6427.55003 790.15116,6427.41387 C790.887585,6427.10894 791.948115,6426.51635 792.216603,6426.25937 C792.323999,6426.15773 792.723855,6425.97937 793.104533,6425.86431 C793.565758,6425.72527 793.890821,6425.53541 794.080681,6425.29665 C794.239856,6425.09528 794.56396,6424.78844 794.819024,6424.60049 C795.072171,6424.41159 795.258195,6424.21598 795.239017,6424.15461 C795.221757,6424.09612 795.424082,6423.98105 795.682023,6423.90338 C796.490365,6423.65983 796.852825,6423.21778 798.108009,6420.94905 C798.510741,6420.2203 798.570192,6420.16756 798.79649,6420.33632 C798.953748,6420.45235 799.169497,6420.93467 799.38237,6421.64041 C799.567436,6422.25314 799.861814,6423.46517 800.033455,6424.31666 C800.205096,6425.16816 800.40838,6425.95157 800.481255,6426.04746 C800.556049,6426.14526 800.551254,6426.48567 800.469749,6426.82032 C800.346052,6427.33141 800.36523,6427.47907 800.602075,6427.82427 C800.829332,6428.15605 800.851386,6428.28262 800.723854,6428.52139 C800.609746,6428.73234 800.619335,6428.82631 800.760292,6428.86467 C800.953028,6428.91645 801.070971,6429.3048 800.955905,6429.51287 C800.920426,6429.57616 800.921385,6429.74205 800.957823,6429.86479 C801.096861,6430.32601 801.00289,6432.15077 800.823578,6432.46529 C800.68454,6432.70981 800.694128,6432.89008 800.862893,6433.20939 M789.795412,6419.71017 C789.592128,6419.4762 789.410898,6419.45606 788.725294,6419.58839 C788.277493,6419.67565 787.659011,6419.72647 787.374221,6419.69962 C787.084637,6419.67277 786.782588,6419.6977 786.702041,6419.75428 C786.622453,6419.81085 786.381772,6419.77345 786.173694,6419.67181 C785.734523,6419.45798 784.949194,6419.4388 784.324,6419.62674 C784.03921,6419.71304 783.737161,6419.6603 783.387167,6419.46469 C783.094706,6419.30168 782.770602,6419.20675 782.640193,6419.24607 C782.34102,6419.3362 780.472148,6418.38882 780.385848,6418.10403 C780.349411,6417.98225 780.250645,6417.8691 780.159551,6417.84705 C780.072292,6417.82404 779.962979,6417.68404 779.917911,6417.53445 C779.874761,6417.3887 779.692573,6417.1135 779.527644,6416.94186 C779.069296,6416.46433 778.833409,6415.80366 778.853546,6415.05669 C778.886148,6413.84753 779.09998,6413.35658 779.819146,6412.8359 C780.184482,6412.57221 780.544065,6412.38043 780.629406,6412.4044 C780.708994,6412.42646 780.812553,6412.34207 780.843238,6412.22893 C780.880634,6412.09468 781.110767,6411.96236 781.443501,6411.88564 C781.734044,6411.81756 782.114723,6411.65359 782.269104,6411.53086 C782.6517,6411.22689 782.716904,6411.20483 782.859778,6411.33237 C782.926901,6411.39278 783.200184,6411.37743 783.458124,6411.29976 C783.716065,6411.22209 784.148523,6411.19716 784.403587,6411.24415 C784.670158,6411.29401 784.922346,6411.27771 784.984673,6411.20771 C785.126589,6411.04662 786.032737,6411.29401 786.097942,6411.51072 C786.127667,6411.60853 786.249446,6411.69483 786.370266,6411.70346 C786.493003,6411.71113 786.771081,6411.88564 787.000255,6412.09756 C787.229429,6412.31043 787.479699,6412.45714 787.566958,6412.43029 C787.65134,6412.40536 788.160509,6412.50604 788.677349,6412.65084 C789.6161,6412.91453 789.63336,6412.92796 789.714866,6413.46397 C789.759933,6413.76123 789.758975,6414.22533 789.711989,6414.48615 C789.647744,6414.84381 789.704318,6415.14107 789.933492,6415.6627 C790.101297,6416.04626 790.397594,6416.78172 790.585536,6417.28802 C790.913475,6418.16636 790.917311,6418.24115 790.65937,6418.78388 C790.510742,6419.09552 790.384169,6419.4762 790.381293,6419.62195 C790.373621,6419.99496 790.081161,6420.03907 789.795412,6419.71017 M793.644387,6412.28071 C793.959861,6412.00167 794.099859,6412.02372 794.204377,6412.36988 C794.248486,6412.51563 794.510262,6412.8033 794.769162,6412.99124 C795.188196,6413.29521 795.300386,6413.49082 795.614901,6414.46218 C796.00325,6415.6627 796.027223,6416.4442 795.716543,6417.82212 C795.461479,6418.94977 795.393398,6419.01785 794.954227,6418.57005 C794.617658,6418.22677 794.564919,6418.10211 794.587932,6417.69554 C794.602316,6417.43952 794.559166,6417.17007 794.492044,6417.10966 C794.353964,6416.98501 793.780549,6415.50353 793.534115,6414.62998 C793.287681,6413.75643 793.344255,6412.54632 793.644387,6412.28071 M777.185082,6443.55962 C777.108371,6443.49058 776.933853,6443.4714 776.784267,6443.51647 C776.635639,6443.5625 776.50523,6443.55003 776.487012,6443.48866 C776.432355,6443.30647 775.29032,6443.34962 774.598962,6443.56058 C774.029383,6443.73414 772.237222,6443.63441 772.174894,6443.42633 C772.163387,6443.38894 771.714628,6443.49729 771.173816,6443.66893 C770.633003,6443.83961 770.09219,6443.95948 769.966576,6443.9355 C769.845756,6443.91345 769.612747,6443.99016 769.467955,6444.10139 C769.300149,6444.22988 769.148645,6444.2644 769.06714,6444.19248 C768.995223,6444.13016 768.797692,6444.15892 768.633722,6444.25577 C768.470711,6444.35358 768.315372,6444.37659 768.294276,6444.30659 C768.273181,6444.23851 768.14469,6444.20495 768.020993,6444.23563 C766.904848,6444.51084 766.263352,6444.55399 766.04952,6444.36892 C765.921988,6444.25961 765.726375,6444.18481 765.637199,6444.21166 C765.542269,6444.24043 765.453092,6444.21166 765.432956,6444.14742 C765.413778,6444.08509 765.069537,6443.97194 764.677352,6443.90098 C764.286126,6443.83003 763.86901,6443.65838 763.764491,6443.5251 C763.655178,6443.3851 763.419292,6443.21442 763.215049,6443.12812 C763.011764,6443.04086 762.82574,6442.86538 762.780673,6442.71772 C762.740399,6442.58251 762.633004,6442.45786 762.553416,6442.45402 C762.383693,6442.44827 762.208217,6441.988 762.118081,6441.3187 C762.083561,6441.06268 761.999179,6440.8661 761.933016,6440.88624 C761.747951,6440.94186 761.640555,6440.48543 761.753704,6440.12584 C761.811237,6439.94269 761.849593,6439.63777 761.840963,6439.43353 C761.824662,6439.03846 762.364515,6437.79479 762.580265,6437.72958 C762.656017,6437.70753 762.762454,6437.57808 762.819987,6437.44288 C762.889027,6437.27891 763.098064,6437.16096 763.447099,6437.09096 C763.769286,6437.02576 764.144211,6436.82631 764.423247,6436.57316 C764.909403,6436.13208 766.106095,6435.76866 767.530043,6435.63154 C767.932776,6435.59222 768.455369,6435.54236 768.717146,6435.51743 C768.976045,6435.4925 769.234945,6435.51743 769.296314,6435.57209 C769.354806,6435.62482 769.530282,6435.63537 769.666444,6435.59414 C769.801647,6435.55291 770.044246,6435.60661 770.177531,6435.70633 C770.538073,6435.97674 772.173935,6436.25098 773.105015,6436.19824 C773.542268,6436.17331 773.979521,6436.18386 774.067738,6436.22221 C774.158833,6436.26057 774.323761,6436.26248 774.446499,6436.22605 C774.854026,6436.10331 775.498398,6436.28166 775.599082,6436.54536 C775.715107,6436.84645 775.699765,6436.78124 776.09195,6438.54368 C776.253043,6439.26476 776.503313,6440.32913 776.645228,6440.89391 C776.787143,6441.45774 776.926182,6442.0206 776.953031,6442.13375 C776.978921,6442.24978 777.098782,6442.54895 777.220561,6442.80881 C777.452611,6443.30072 777.430557,6443.78016 777.185082,6443.55962 M804.848029,6431.87557 C804.913234,6431.60421 804.866248,6430.8534 804.773236,6430.66929 C804.726251,6430.57436 804.737757,6430.38354 804.800085,6430.23108 C804.860495,6430.08341 804.862413,6429.76794 804.803921,6429.53397 C804.662005,6428.97014 804.429954,6427.43592 804.448173,6427.18374 C804.462557,6426.98716 804.176808,6426.43005 804.001332,6426.31115 C803.874759,6426.22677 803.829691,6426.05992 803.855581,6425.7713 C803.875717,6425.53829 803.810513,6425.0809 803.707912,6424.74145 C803.60627,6424.402 803.499834,6424.03954 803.469149,6423.92544 C803.439424,6423.81133 803.177647,6422.93203 802.883269,6421.95492 C802.58889,6420.97686 802.259992,6419.78784 802.147802,6419.28922 C801.89082,6418.15293 801.676988,6417.52582 801.461239,6417.27555 C801.433431,6417.24295 801.33083,6416.92172 801.2359,6416.56502 C801.14097,6416.20927 800.990425,6415.85256 800.902207,6415.77777 C800.813989,6415.70202 800.649061,6415.37312 800.532076,6415.03847 C800.147563,6413.93958 800.053592,6413.77465 799.590449,6413.36713 C799.33922,6413.14658 798.922104,6412.91741 798.650739,6412.85124 C798.298827,6412.76494 798.13294,6412.62878 798.053352,6412.36509 C797.991983,6412.1618 797.836643,6411.95468 797.705276,6411.90003 C797.579662,6411.84729 797.38309,6411.65647 797.286242,6411.4925 C797.190353,6411.32949 797.009124,6411.21346 796.900769,6411.24607 C796.77899,6411.28346 796.656253,6411.17127 796.595843,6410.96799 C796.537351,6410.77813 796.436668,6410.6458 796.363792,6410.66786 C796.290917,6410.68991 796.159549,6410.59594 796.059825,6410.44827 C795.826815,6410.10403 794.699163,6409.44432 793.912876,6409.19213 C793.027822,6408.9083 791.584696,6409.09049 791.103335,6409.54788 C790.677589,6409.95157 789.776235,6410.01006 789.276654,6409.66486 C788.529681,6409.14994 787.394358,6408.6331 787.162307,6408.7031 C787.026145,6408.74433 786.88423,6408.71652 786.863134,6408.64556 C786.84108,6408.57269 786.726972,6408.53817 786.618618,6408.57077 C786.368348,6408.64652 785.68562,6408.47105 785.126589,6408.18913 C784.888785,6408.06927 784.353725,6408.00982 783.893459,6408.05201 C783.446618,6408.09324 782.839642,6408.10955 782.549099,6408.08749 C782.253761,6408.06448 781.749387,6408.13448 781.411858,6408.24475 C781.07433,6408.35406 780.602557,6408.45762 780.349411,6408.47584 C780.102977,6408.49406 779.872844,6408.57748 779.847913,6408.65707 C779.822981,6408.73858 779.478741,6408.98022 779.072172,6409.20172 C778.664645,6409.42322 778.2552,6409.7176 778.146846,6409.86527 C778.042327,6410.0091 777.855344,6410.12321 777.740278,6410.11458 C777.350969,6410.08389 775.637437,6412.73905 775.516617,6413.56082 C775.28169,6415.15641 775.309498,6417.25062 775.572233,6417.74828 C775.693053,6417.97938 775.683464,6418.08485 775.536754,6418.12992 C775.4284,6418.16252 775.394839,6418.22389 775.465796,6418.26129 C775.534836,6418.29964 775.672916,6418.31019 775.754421,6418.28622 C775.84168,6418.26033 775.973048,6418.38307 776.053594,6418.56621 C776.220441,6418.94402 776.549339,6419.3199 777.173575,6419.84249 C777.415215,6420.04386 777.751784,6420.43029 777.915754,6420.69207 C778.078765,6420.95384 778.274378,6421.15425 778.344377,6421.13316 C778.414376,6421.11206 778.518894,6421.24343 778.571633,6421.41986 C778.637796,6421.64041 778.846834,6421.79287 779.216965,6421.89164 C779.52285,6421.97314 779.905446,6422.15821 780.084758,6422.31163 C780.275576,6422.4756 780.534476,6422.5456 780.730089,6422.48711 C780.906524,6422.43437 781.11748,6422.47176 781.191314,6422.57053 C781.264189,6422.66642 781.407064,6422.72779 781.497199,6422.69998 C781.588293,6422.67217 781.831851,6422.7297 782.02267,6422.82272 C782.216365,6422.91765 782.786903,6423.07299 783.273059,6423.16408 C783.759215,6423.25517 784.148523,6423.3712 784.124551,6423.41819 C784.069895,6423.53038 784.692213,6423.55051 785.854384,6423.47668 C786.290678,6423.44887 786.727931,6423.4575 786.81519,6423.49586 C786.902448,6423.53325 787.187238,6423.50161 787.431754,6423.42873 C787.72901,6423.3386 788.180646,6423.38175 788.735841,6423.55339 C789.209532,6423.7001 789.663086,6423.79215 789.760892,6423.76243 C789.855822,6423.73366 789.919109,6423.78352 789.897054,6423.86982 C789.873082,6423.96667 789.802124,6424.01653 789.720619,6423.99735 C789.645826,6423.97818 789.429117,6424.08557 789.23734,6424.23516 C788.914195,6424.48735 788.101058,6424.83542 786.4441,6425.43089 C786.043285,6425.57472 785.549458,6425.79047 785.357681,6425.90458 C785.106452,6426.05417 784.914675,6426.07143 784.687418,6425.96595 C784.481257,6425.87006 784.352766,6425.87677 784.324,6425.98705 C784.299069,6426.07814 783.911678,6426.26608 783.477302,6426.39745 C783.042926,6426.52786 782.66033,6426.70429 782.640193,6426.78292 C782.605673,6426.91813 782.203899,6427.13292 780.911319,6427.70825 C780.585297,6427.85304 780.282289,6428.04098 780.231468,6428.13016 C780.180647,6428.21934 779.942842,6428.3507 779.698326,6428.42454 C779.45381,6428.49837 779.239019,6428.62878 779.216965,6428.71796 C779.192992,6428.81097 779.087515,6428.90494 778.965736,6428.94138 C778.846834,6428.97686 778.632043,6429.16096 778.471909,6429.36425 C778.317528,6429.5589 777.967534,6429.82931 777.708634,6429.95396 C777.088234,6430.25218 776.559887,6430.74984 776.664406,6430.93778 C776.710432,6431.02216 776.521532,6431.29449 776.241536,6431.54668 C775.9625,6431.79886 775.700724,6432.17571 775.659492,6432.38858 C775.586616,6432.75679 775.54059,6432.78268 774.660331,6432.95624 C774.156915,6433.05501 773.663088,6433.10295 773.573911,6433.06172 C773.482817,6433.01857 773.28145,6433.02336 773.11844,6433.07322 C772.955429,6433.12213 772.683105,6433.07322 772.500916,6432.96295 C772.321604,6432.85364 772.064622,6432.79802 771.930378,6432.83926 C771.794216,6432.87953 771.631205,6432.86323 771.564083,6432.80186 C771.496002,6432.74049 771.318608,6432.72707 771.169021,6432.77213 C771.019435,6432.8172 770.60999,6432.80857 770.253283,6432.752 C769.895618,6432.69542 769.511104,6432.68008 769.390285,6432.71556 C769.268506,6432.75296 769.098783,6432.7472 769.001935,6432.70405 C768.738241,6432.58515 767.679629,6432.63981 767.150323,6432.79898 C766.878958,6432.88049 766.607593,6432.89679 766.539512,6432.83446 C766.470472,6432.77213 766.240339,6432.77693 766.010206,6432.84597 C765.779114,6432.91597 765.469393,6432.94186 765.294876,6432.90638 C765.121317,6432.8709 764.936252,6432.90062 764.871047,6432.97446 C764.807761,6433.04638 763.928461,6433.38199 762.918752,6433.71856 C761.910003,6434.05513 761.039333,6434.41087 760.987553,6434.50772 C760.934814,6434.60649 760.81783,6434.70717 760.7229,6434.73594 C760.629888,6434.76374 760.297154,6435.06483 759.983597,6435.40236 C759.671,6435.74085 759.346896,6436.03906 759.265391,6436.06399 C759.048682,6436.1292 758.476226,6437.27795 758.546225,6437.51 C758.579786,6437.62219 758.471432,6438.00574 758.303626,6438.36724 C757.92103,6439.1938 757.86925,6440.08173 758.192395,6440.29557 C758.366913,6440.41159 758.379379,6440.49118 758.255682,6440.72131 C758.170341,6440.88049 758.152122,6441.04733 758.215409,6441.10391 C758.277736,6441.15856 758.318969,6441.405 758.308421,6441.66006 C758.295955,6441.98992 758.353489,6442.18074 758.515541,6442.34567 C758.672798,6442.5058 758.7054,6442.6132 758.623895,6442.70525 C758.544307,6442.79443 758.599923,6442.91237 758.794577,6443.07538 C758.953752,6443.20867 759.265391,6443.65167 759.494565,6444.07166 C759.723739,6444.4907 760.001816,6444.89918 760.118801,6444.9874 C760.233867,6445.07274 760.618381,6445.45055 760.969334,6445.81876 C761.340423,6446.20998 761.750827,6446.50244 761.949317,6446.51491 C762.130547,6446.52738 762.389446,6446.6434 762.504513,6446.7623 C762.624374,6446.88696 762.985874,6447.00778 763.319567,6447.03463 C763.654219,6447.06244 763.977364,6447.13531 764.05024,6447.19956 C764.120238,6447.26092 764.289962,6447.28298 764.412699,6447.24654 C764.540231,6447.20723 764.85187,6447.27818 765.111728,6447.40572 C765.372546,6447.53229 765.667883,6447.60804 765.777196,6447.57544 C765.882674,6447.5438 766.079246,6447.58791 766.198148,6447.67037 C766.324721,6447.75667 766.612387,6447.76722 766.856904,6447.69338 C767.10142,6447.62051 767.384292,6447.61284 767.503194,6447.67708 C767.62689,6447.74325 767.703601,6447.75092 767.6873,6447.6953 C767.670999,6447.64256 767.90305,6447.6253 768.207976,6447.65695 C768.511944,6447.68763 769.257958,6447.57928 769.874523,6447.41339 C770.491088,6447.24846 771.033818,6447.1449 771.085598,6447.1823 C771.138337,6447.21969 771.716546,6447.16408 772.381055,6447.0586 C773.044605,6446.95216 773.620897,6446.91764 773.667882,6446.98093 C773.716785,6447.04613 773.910481,6447.04805 774.113765,6446.98668 C774.326638,6446.9234 774.832931,6447.01353 775.349771,6447.20723 C775.834009,6447.3875 776.304823,6447.51119 776.402629,6447.48243 C776.497559,6447.45366 776.67783,6447.48147 776.790979,6447.54284 C776.914675,6447.609 776.989469,6447.61092 776.970291,6447.54763 C776.953031,6447.4901 777.108371,6447.48818 777.302066,6447.5438 C777.506309,6447.60229 777.967534,6447.63969 778.349171,6447.62818 C779.025187,6447.60804 779.034776,6447.6138 779.326278,6448.26584 C779.54874,6448.76254 779.752983,6448.9898 780.15188,6449.18733 C780.448176,6449.33308 780.739678,6449.43185 780.811595,6449.41075 C780.883511,6449.3887 781.149123,6449.47308 781.40994,6449.60061 C781.669799,6449.72814 782.010204,6449.82883 782.174174,6449.82883 C782.337185,6449.82883 782.623892,6449.89499 782.810875,6449.97649 C783.139774,6450.11937 784.138934,6450.20855 784.560845,6450.13279 C785.585896,6449.94869 786.222597,6449.94102 786.744232,6450.10594 C787.30614,6450.28334 787.486411,6450.26033 789.23734,6449.78088 C790.276774,6449.49609 791.204018,6449.28418 791.301825,6449.31007 C791.623052,6449.39541 792.717143,6449.09432 792.860017,6448.88049 C792.941522,6448.75871 793.011521,6448.69446 793.02111,6448.72898 C793.031658,6448.76158 793.32316,6448.64844 793.657811,6448.48159 C794.635877,6447.9916 794.854503,6447.85831 794.982035,6447.66749 C795.050116,6447.56777 795.498876,6447.32133 795.98599,6447.11709 C796.472146,6446.91285 796.90844,6446.64628 796.96022,6446.5197 C797.010082,6446.40176 797.143368,6446.2656 797.238298,6446.23683 C797.337063,6446.20711 797.467472,6446.04122 797.522128,6445.87725 C797.578703,6445.70657 797.758015,6445.48219 797.931573,6445.36808 C798.671835,6444.87713 799.682502,6443.83866 799.79661,6443.45126 C799.899211,6443.10319 799.999894,6443.02072 800.372901,6442.98141 C800.617417,6442.95552 801.00289,6442.91141 801.210969,6442.88552 C801.767124,6442.81456 803.099977,6441.51335 802.845872,6441.28897 C802.791216,6441.24103 802.922583,6440.99843 803.130662,6440.75871 C803.339699,6440.51899 803.553531,6440.11529 803.598599,6439.87749 C803.642708,6439.63969 803.857499,6439.31366 804.065577,6439.16695 C804.272697,6439.02025 804.394476,6438.84765 804.329271,6438.79107 C804.259272,6438.73066 804.267902,6438.57244 804.349408,6438.41519 C804.430913,6438.25697 804.464474,6438.05752 804.428037,6437.93958 C804.395435,6437.83122 804.413653,6437.68356 804.466392,6437.6241 C804.522008,6437.56178 804.532555,6437.24918 804.491323,6436.92028 C804.446256,6436.56453 804.514337,6436.16372 804.662005,6435.91441 C804.801044,6435.67948 804.868166,6435.31894 804.818304,6435.08209 C804.767483,6434.84621 804.775154,6434.55183 804.835564,6434.4032 C804.92474,6434.18458 804.915152,6434.15006 804.772277,6434.19321 C804.668717,6434.22389 804.680224,6434.08773 804.801044,6433.84417 C804.912275,6433.61787 804.960219,6433.31774 804.910357,6433.15185 C804.861454,6432.98884 804.873919,6432.80282 804.938165,6432.72898 C805.003369,6432.65611 805.000493,6432.47392 804.932412,6432.31666 C804.864331,6432.1594 804.826934,6431.96379 804.848029,6431.87557 M757.41282,6411.36976 C757.315013,6411.59414 757.278576,6411.84729 757.333232,6411.92688 C757.48186,6412.14071 756.682148,6413.51479 755.962023,6414.28478 C755.577509,6414.69614 755.389567,6414.9886 755.407786,6415.14874 C755.423128,6415.27915 755.324363,6415.6464 755.193954,6415.94557 C754.98204,6416.43173 754.893822,6416.50748 754.482459,6416.55447 C753.998221,6416.61008 753.35289,6416.41639 753.324123,6416.20639 C753.274261,6415.84297 754.60232,6412.32098 754.870809,6412.10139 C754.968615,6412.02181 755.340664,6411.54907 755.696411,6411.05141 C756.052158,6410.55375 756.463521,6410.11554 756.61119,6410.07718 C756.907486,6410.00047 757.251727,6410.24115 757.453093,6410.66498 C757.53364,6410.83374 757.51638,6411.13292 757.41282,6411.36976 M759.90401,6413.75548 C760.038254,6413.65096 760.139896,6413.51959 760.124554,6413.4726 C760.108253,6413.42562 760.281812,6412.89631 760.505232,6412.31043 C760.825501,6411.47045 760.897417,6411.10127 760.832213,6410.61991 C760.712352,6409.73678 760.306743,6408.84693 759.858942,6408.48351 C759.649905,6408.31379 759.256761,6407.90914 758.994026,6407.59175 C758.603758,6407.11997 758.348694,6406.9445 757.641994,6406.66067 C756.807762,6406.32506 756.74064,6406.32122 756.083802,6406.57437 C755.708877,6406.7182 755.333952,6406.81217 755.260117,6406.77861 C754.94752,6406.64245 754.367393,6406.85053 754.325202,6407.11326 C754.300271,6407.26572 754.185204,6407.43928 754.069179,6407.49873 C753.952195,6407.55914 753.730692,6407.90818 753.570557,6408.2831 C753.01632,6409.58527 752.313456,6410.91429 751.920312,6411.40812 C751.700727,6411.68332 751.457169,6412.00551 751.371828,6412.134 C751.288405,6412.26057 751.208817,6412.35933 751.194434,6412.35262 C751.109093,6412.31618 750.622937,6413.46877 750.661292,6413.61931 C750.684306,6413.70945 750.570198,6414.0767 750.410064,6414.42286 C750.250889,6414.76902 750.139658,6415.15737 750.165548,6415.27339 C750.191438,6415.39134 750.164589,6415.62243 750.104179,6415.78832 C750.046646,6415.94845 750.081165,6416.28406 750.178013,6416.50365 C750.281573,6416.73857 750.373626,6417.11638 750.390886,6417.37623 C750.412941,6417.7128 750.570198,6417.97075 750.983479,6418.34855 C751.672919,6418.97949 753.399875,6419.79551 754.269586,6419.90099 C754.607115,6419.94222 755.04245,6420.04386 755.226556,6420.12345 C755.625453,6420.29797 756.390646,6420.12824 756.535438,6419.83386 C756.904609,6419.08305 757.675555,6417.65911 758.172259,6416.80761 C758.497322,6416.25146 758.960464,6415.38846 759.207857,6414.87641 C759.457168,6414.36245 759.76593,6413.86479 759.90401,6413.75548 M757.684185,6422.08725 C757.622816,6422.09684 757.370629,6422.53697 757.123236,6423.06723 C756.494206,6424.41063 755.558331,6425.9928 755.321486,6426.11074 C755.210255,6426.16636 755.149845,6426.25362 755.176694,6426.32266 C755.202584,6426.38786 755.110531,6426.49334 754.966698,6426.56525 C754.824782,6426.63525 754.551499,6427.02168 754.350133,6427.4388 C753.741239,6428.70166 753.337548,6429.37863 753.003855,6429.70082 C752.823584,6429.87438 752.665367,6430.04026 752.63756,6430.08341 C752.61167,6430.12369 752.394961,6430.25122 752.167705,6430.36053 C751.940448,6430.46889 751.708398,6430.6482 751.664289,6430.74888 C751.62018,6430.85052 751.304706,6431.02888 750.974849,6431.13915 C750.644991,6431.24846 750.28445,6431.43736 750.186643,6431.55147 C750.085001,6431.66941 749.784869,6431.75763 749.504874,6431.75188 C749.225838,6431.74612 748.97365,6431.81325 748.934336,6431.90338 C748.894063,6431.99448 748.673519,6432.12584 748.431879,6432.20351 C748.165308,6432.28885 747.943805,6432.47296 747.850793,6432.68487 C747.770246,6432.86994 747.513265,6433.16144 747.293679,6433.31774 C747.020396,6433.51048 746.908206,6433.66678 746.955192,6433.78568 C747.003136,6433.90842 746.893823,6434.13759 746.61191,6434.50484 C746.381777,6434.80498 746.098905,6435.23456 745.97425,6435.47332 C745.847677,6435.71496 745.630968,6435.99687 745.477546,6436.11769 C745.286728,6436.2692 745.194674,6436.45426 745.168784,6436.74001 C745.148648,6436.96823 745.08632,6437.16576 745.026869,6437.19069 C744.858105,6437.25781 744.159076,6438.816 744.101543,6439.25038 L744.045927,6439.67133 L743.453335,6439.41339 C743.082245,6439.25134 742.679512,6438.94258 742.374586,6438.58587 C742.108974,6438.27615 741.650626,6437.82643 741.365836,6437.59726 L740.844201,6437.1763 L741.590216,6435.41675 C741.999661,6434.45115 742.486776,6433.34651 742.669923,6432.97062 C742.985397,6432.32146 743.156079,6431.38079 743.097587,6430.60409 C743.068821,6430.21862 742.858824,6429.7363 742.507871,6429.24822 C742.368833,6429.05549 742.253766,6428.76207 742.248972,6428.58659 C742.21637,6427.4436 742.304587,6426.57101 742.50883,6426.01294 C742.640198,6425.65431 742.768689,6425.18829 742.800332,6424.95241 C742.831975,6424.72323 743.004575,6424.22557 743.181969,6423.85736 C743.652783,6422.8745 744.58674,6421.08234 744.947281,6420.47152 C745.516861,6419.50305 745.953154,6418.63909 747.004095,6416.39625 C747.575592,6415.17655 748.138459,6414.05177 748.254485,6413.89835 C748.372428,6413.74301 748.520097,6413.54548 748.591054,6413.45151 C748.657217,6413.36233 748.7416,6413.25973 748.771325,6413.23288 C748.846118,6413.1648 749.571037,6411.65263 750.30171,6410.0417 C750.621019,6409.335 750.976766,6408.70501 751.087039,6408.64748 C751.19827,6408.58995 751.293199,6408.44803 751.298953,6408.33201 C751.304706,6408.21598 751.534839,6407.83339 751.811958,6407.47956 C752.089076,6407.12573 752.336469,6406.70765 752.363318,6406.54752 C752.450577,6406.02205 754.212053,6403.5836 754.434515,6403.68044 C754.483418,6403.7025 754.656977,6403.58551 754.834371,6403.41004 C755.011765,6403.23552 755.192995,6403.12141 755.253405,6403.1473 C755.310938,6403.17319 755.442306,6403.09648 755.542989,6402.97758 C755.673398,6402.8232 755.838326,6402.80881 756.112568,6402.92868 C756.505712,6403.10032 756.942006,6403.17415 758.159793,6403.27483 C759.262514,6403.36497 759.717027,6403.51647 760.363317,6404.00647 C760.697969,6404.26057 761.06714,6404.57221 761.177413,6404.69303 C761.287685,6404.81481 761.590693,6405.03727 761.85151,6405.18781 C762.112328,6405.33836 762.522732,6405.62411 762.762454,6405.8226 C763.002176,6406.02109 763.318608,6406.27519 763.466277,6406.38738 C763.777916,6406.62423 764.227634,6407.73654 764.115444,6407.99352 C764.072294,6408.09324 764.09339,6408.19201 764.164347,6408.22269 C764.230511,6408.25146 764.232428,6408.40872 764.166265,6408.55735 C764.097225,6408.71556 764.057911,6409.03008 764.07613,6409.27555 C764.102979,6409.63897 764.005172,6409.8902 763.498879,6410.76758 C763.048202,6411.55003 762.901492,6411.89907 762.933136,6412.11674 C762.958067,6412.28646 762.892862,6412.49262 762.778755,6412.60577 C762.530403,6412.85412 761.447819,6415.20244 761.528365,6415.31846 C761.597405,6415.41723 761.482339,6415.63202 760.823583,6416.63597 C760.573313,6417.01857 760.167704,6417.7828 759.919352,6418.34183 C759.655658,6418.93922 759.319088,6419.50017 759.101421,6419.70729 C758.878,6419.92112 758.742797,6420.1503 758.758139,6420.29221 C758.770605,6420.41783 758.707318,6420.63358 758.621018,6420.75919 C758.532801,6420.88672 758.307462,6421.23863 758.12815,6421.53109 C757.947879,6421.82356 757.745554,6422.07766 757.684185,6422.08725 M742.080208,6442.16923 C741.781993,6442.85196 740.83653,6444.00071 740.102981,6444.57125 C739.55258,6444.99891 739.383816,6445.05932 739.093273,6444.93275 C738.468078,6444.65946 738.144933,6443.45031 738.439311,6442.47991 C738.81999,6441.22089 739.26779,6440.25529 739.48354,6440.22653 C739.610113,6440.21022 739.713673,6440.16324 739.72518,6440.11721 C739.799973,6439.83434 739.890108,6439.80557 740.221883,6439.96379 C740.43188,6440.06256 740.570918,6440.18433 740.545029,6440.24474 C740.520097,6440.30324 740.611192,6440.39913 740.748313,6440.45954 C740.885434,6440.51899 741.074334,6440.66186 741.166388,6440.77597 C741.258441,6440.88816 741.550902,6441.15473 741.803089,6441.35705 C742.243218,6441.71088 742.25952,6441.75787 742.080208,6442.16923 M755.49025,6400.26776 C756.460645,6399.83339 758.49924,6399.94366 759.421689,6400.48159 C759.539633,6400.55063 759.70552,6400.53529 759.794697,6400.44516 C759.927023,6400.31091 760.123595,6400.37132 760.998101,6400.81529 C761.574392,6401.10679 762.642593,6401.63993 763.375183,6402.00047 C764.108732,6402.36101 764.719543,6402.72827 764.733927,6402.81649 C764.749269,6402.9047 764.935293,6403.06867 765.15296,6403.18374 C765.369669,6403.29881 765.590213,6403.53086 765.645829,6403.70346 C765.702403,6403.87702 765.828017,6404.05057 765.9287,6404.09468 C766.026507,6404.13687 766.157875,6404.35742 766.215408,6404.57604 C766.274859,6404.80138 766.444582,6405.07083 766.600881,6405.18877 C766.757179,6405.30768 766.855945,6405.45439 766.826219,6405.52438 C766.795535,6405.59438 766.88567,6405.76123 767.031421,6405.9041 C767.205939,6406.07479 767.29991,6406.47368 767.31717,6407.11901 C767.331553,6407.64544 767.311416,6408.15365 767.272102,6408.24283 C767.232788,6408.33392 767.264431,6408.66282 767.345936,6408.9946 C767.43799,6409.37624 767.421688,6409.70897 767.297033,6409.93814 C767.193473,6410.13088 767.155118,6410.36581 767.214569,6410.45115 C767.286485,6410.55663 767.09279,6411.15593 766.643072,6412.22126 C766.267188,6413.1111 765.975686,6413.92328 765.991987,6414.03739 C766.008288,6414.15437 765.923906,6414.28958 765.794456,6414.3519 C765.658294,6414.41807 765.364875,6414.92148 765.056113,6415.61859 C764.775159,6416.25338 764.474068,6416.81529 764.387768,6416.86227 C764.301468,6416.91117 764.054075,6417.37048 763.837367,6417.88445 C763.621617,6418.39841 763.206419,6419.2499 762.914917,6419.77537 C761.882195,6421.64041 761.720143,6421.94917 761.270425,6422.91669 C761.018237,6423.45942 760.725776,6423.96092 760.622217,6424.02996 C760.238662,6424.28502 758.923068,6426.37539 758.190478,6427.89715 C757.771444,6428.76782 757.376382,6429.51671 757.312137,6429.56178 C757.148167,6429.67876 756.607354,6430.57532 756.397358,6431.07778 C756.303387,6431.30408 756.185444,6431.46038 756.129828,6431.4364 C755.985995,6431.37312 754.894781,6432.52954 754.721222,6432.92939 C754.644511,6433.10487 754.265751,6433.42801 753.892744,6433.63705 C753.519736,6433.84417 753.181249,6434.07718 753.151523,6434.1443 C753.122757,6434.21047 753.009608,6434.23156 752.909884,6434.18745 C752.811118,6434.1443 752.678792,6434.20471 752.627971,6434.3169 C752.491809,6434.61607 751.289364,6435.14538 750.482939,6435.26045 C749.975688,6435.33332 749.823225,6435.41579 749.784869,6435.63729 C749.75802,6435.78879 749.645831,6435.96619 749.542271,6436.02084 C749.437752,6436.07646 749.173099,6436.54248 748.962144,6437.04398 C748.731052,6437.5963 748.502837,6437.9741 748.3964,6437.98465 C748.299552,6437.99519 748.133665,6438.20423 748.03394,6438.44299 C747.643673,6439.37887 746.643554,6441.23528 746.06055,6442.10882 C745.722063,6442.61511 745.396041,6443.22017 745.334672,6443.4551 C745.257002,6443.74852 745.091115,6443.96043 744.799613,6444.13495 C744.568521,6444.27303 744.30195,6444.56262 744.208938,6444.77453 C744.116885,6444.9874 743.978805,6445.13411 743.903053,6445.10151 C743.816753,6445.06411 743.731412,6445.18973 743.671961,6445.44575 C743.618263,6445.67492 743.531004,6445.82931 743.470595,6445.80342 C743.412102,6445.77753 743.156079,6445.97793 742.898139,6446.25122 C741.735008,6447.48051 740.75023,6448.11721 740.167227,6448.01653 C739.961066,6447.98009 739.663811,6447.98201 739.527649,6448.01941 C739.163272,6448.12105 738.360683,6447.9053 737.203305,6447.39517 C735.995107,6446.86299 735.72566,6446.66737 735.745796,6446.33656 C735.774563,6445.85999 735.679633,6445.22521 735.572238,6445.17822 C735.517581,6445.15329 735.437993,6444.90398 735.393884,6444.61727 C735.349776,6444.33152 735.240462,6443.88948 735.146491,6443.62674 C734.993069,6443.19332 734.968138,6442.18266 735.100465,6441.70609 C735.129231,6441.59965 735.141697,6441.41171 735.126355,6441.30144 C735.110054,6441.19117 735.187724,6441.05309 735.293201,6441.00322 C735.408268,6440.94953 735.724701,6440.32337 736.057435,6439.48914 C736.370991,6438.70573 736.671123,6438.08629 736.725779,6438.11122 C736.892626,6438.18314 737.439192,6437.18973 737.503437,6436.69878 C737.550423,6436.33344 737.650147,6436.15125 737.924389,6435.92496 C738.213973,6435.68619 738.296437,6435.52989 738.346299,6435.12141 C738.465201,6434.16348 738.560131,6433.90937 738.901495,6433.62746 C739.148888,6433.42322 739.270667,6433.2113 739.309022,6432.92172 C739.338748,6432.69734 739.469157,6432.39721 739.593812,6432.2668 C739.884355,6431.96283 739.911204,6431.12093 739.641756,6430.78244 C739.536279,6430.65012 739.419295,6430.13423 739.381898,6429.64328 C739.343542,6429.15233 739.196833,6428.41111 739.054917,6428.00838 C738.883276,6427.51839 738.842044,6427.1099 738.930262,6426.78196 C739.003137,6426.50868 739.107656,6426.01294 739.16423,6425.66678 C739.220805,6425.32062 739.379021,6424.82871 739.520937,6424.56118 C739.660934,6424.29461 739.837369,6423.9216 739.913122,6423.72982 C739.987915,6423.53996 740.088598,6423.28394 740.135584,6423.166 C740.460646,6422.34327 742.038975,6419.07155 742.146371,6418.99675 C742.383216,6418.83183 743.084163,6417.53541 743.757302,6416.01845 C744.12072,6415.19764 744.502358,6414.46889 744.604959,6414.39889 C744.816873,6414.25601 745.770966,6412.63741 746.352052,6411.43593 C746.563007,6410.99963 747.041492,6410.13376 747.410664,6409.52295 C747.777918,6408.91118 748.221882,6408.13064 748.390647,6407.79791 C748.827899,6406.93395 749.755144,6405.48986 750.059111,6405.20028 C750.200068,6405.06604 750.567321,6404.53194 750.875124,6404.01318 C751.182927,6403.49442 751.590455,6402.94402 751.780314,6402.78964 C751.970174,6402.63526 752.114007,6402.44252 752.101542,6402.35814 C752.089076,6402.27663 752.140856,6402.2354 752.215649,6402.268 C752.295237,6402.30252 752.366195,6402.25841 752.383455,6402.16252 C752.4477,6401.82212 753.627132,6401.10199 755.49025,6400.26776 Z M784.519709,6439.97568 C785.161204,6439.64678 785.976259,6439.59404 786.379951,6439.85582 C786.612001,6440.00541 787.072267,6440.14061 787.402125,6440.15595 C788.168276,6440.19239 788.334163,6440.2902 788.626624,6440.88087 C788.939222,6441.51182 788.910455,6441.74099 788.470326,6442.12934 C787.675408,6442.83125 787.235278,6443.01535 786.60433,6442.91275 C786.27735,6442.85906 785.94078,6442.83029 785.874617,6442.85043 C785.720236,6442.89645 784.886004,6442.43715 784.43245,6442.05551 C783.814926,6441.53579 783.865747,6440.31129 784.519709,6439.97568 Z" id="img-nav-sick-child-white"></path>
        </g>
    </g>
</svg>