<?xml version="1.0" encoding="UTF-8"?>
<svg width="89px" height="89px" viewBox="0 0 89 89" version="1.1" xmlns="http://www.w3.org/2000/svg" xmlns:xlink="http://www.w3.org/1999/xlink">
    <!-- Generator: Sketch 61 (89581) - https://sketch.com -->
    <title>img-clock</title>
    <desc>Created with Sketch.</desc>
    <defs>
        <polygon id="path-1" points="0.200359488 0.621872449 4.57 0.621872449 4.57 16 0.200359488 16"></polygon>
        <polygon id="path-3" points="0 0.737 88.4296863 0.737 88.4296863 89 0 89"></polygon>
    </defs>
    <g id="Page-1" stroke="none" stroke-width="1" fill="none" fill-rule="evenodd">
        <g id="Group-45" transform="translate(0.000000, -1.000000)">
            <circle id="Oval" fill="#FFFFFF" cx="43.5" cy="46.5" r="40.5"></circle>
            <g id="Group-4">
                <g id="Group" transform="translate(43.000135, 29.000089)">
                    <g id="clock/長身" fill="#DF6067">
                        <path d="M2.36316537,0.0423107074 C2.17716537,0.0953107074 1.82516537,0.129310707 1.59716537,0.116310707 C1.24216537,0.0973107074 1.10716537,0.162310707 0.762165372,0.517310707 C0.401165372,0.889310707 0.359165372,0.990310707 0.420165372,1.36831071 C0.458165372,1.60731071 0.511165372,1.97331071 0.540165372,2.19631071 C0.568165372,2.41431071 0.638165372,2.61231071 0.694165372,2.63131071 C0.752165372,2.65031071 0.730165372,2.79731071 0.642165372,2.96831071 C0.555165372,3.14031071 0.519165372,3.32031071 0.559165372,3.38631071 C0.654165372,3.53731071 0.724165372,4.47231071 0.698165372,5.22631071 C0.673165372,5.96931071 0.661165372,6.04831071 0.503165372,6.59831071 C0.369165372,7.06031071 0.376165372,7.26131071 0.560165372,8.25531071 C0.738165372,9.22731071 0.608165372,13.0863107 0.376165372,13.6623107 C0.201165372,14.0963107 0.182165372,14.9553107 0.343165372,15.1473107 C0.440165372,15.2643107 0.459165372,15.9143107 0.414165372,17.4913107 C0.362165372,19.2973107 0.315165372,19.7503107 0.139165372,20.1093107 C0.0111653722,20.3723107 -0.0328346278,20.5913107 0.0251653722,20.6633107 C0.0811653722,20.7313107 0.0951653722,20.8863107 0.0591653722,21.0233107 C0.0211653722,21.1723107 0.0771653722,21.3513107 0.208165372,21.4923107 C0.465165372,21.7703107 0.614165372,21.9733107 0.773165372,22.2583107 C0.842165372,22.3823107 1.02616537,22.5053107 1.17416537,22.5263107 C1.32216537,22.5483107 1.47616537,22.6043107 1.50816537,22.6473107 C1.73016537,22.9433107 3.22016537,23.1633107 3.22016537,22.8983107 C3.22016537,22.8373107 3.35316537,22.6353107 3.50616537,22.4643107 C3.65916537,22.2923107 3.90416537,22.0173107 4.03316537,21.8693107 C4.34516537,21.5153107 4.43816537,20.8133107 4.20316537,20.5773107 C4.10216537,20.4773107 4.05716537,20.3043107 4.09416537,20.1543107 C4.13716537,19.9833107 4.07916537,19.8363107 3.91216537,19.6913107 C3.70216537,19.5113107 3.66316537,19.3493107 3.64916537,18.5833107 C3.63916537,18.0923107 3.67616537,17.6133107 3.73116537,17.5253107 C3.87916537,17.2863107 3.87516537,15.3543107 3.72516537,14.8853107 C3.63716537,14.6103107 3.63016537,14.2333107 3.70016537,13.6853107 C3.81916537,12.7713107 3.82116537,12.6593107 3.75116537,11.7993107 C3.72316537,11.4563107 3.64416537,11.1623107 3.57416537,11.1393107 C3.41416537,11.0853107 3.40516537,10.2323107 3.56316537,10.1793107 C3.75216537,10.1163107 3.89216537,9.13531071 3.97716537,7.28331071 C3.99516537,6.90631071 4.01416537,6.59831071 4.02016537,6.59831071 C4.02716537,6.59831071 4.05816537,6.31731071 4.08916537,5.98631071 C4.12416537,5.60831071 4.09616537,5.31331071 4.01416537,5.21431071 C3.94016537,5.12331071 3.90716537,5.05531071 3.94016537,5.05531071 C3.97116537,5.05531071 3.95816537,4.87731071 3.91216537,4.67131071 C3.86316537,4.45431071 3.87616537,4.19931071 3.94016537,4.08331071 C4.00316537,3.97031071 4.06016537,3.51131071 4.06616537,3.06531071 C4.07216537,2.61931071 4.12616537,2.17731071 4.18616537,2.08231071 C4.24616537,1.98631071 4.31016537,1.71131071 4.32916537,1.45931071 C4.35816537,1.08231071 4.30916537,0.958310707 4.03216537,0.705310707 C3.84916537,0.538310707 3.55416537,0.363310707 3.37416537,0.316310707 C3.19216537,0.268310707 2.97316537,0.168310707 2.87716537,0.0883107074 C2.75716537,-0.0126892926 2.60316537,-0.0256892926 2.36316537,0.0423107074" id="Fill-1"></path>
                    </g>
                    <g id="clock/短針" transform="translate(11.499865, 20.499911) rotate(-270.000000) translate(-11.499865, -20.499911) translate(8.999865, 11.999911)">
                        <g id="Group-6">
                            <g id="Group-5" transform="translate(0.000000, 0.213800)">
                                <mask id="mask-2" fill="white">
                                    <use xlink:href="#path-1"></use>
                                </mask>
                                <g id="Clip-4"></g>
                                <path d="M1.9077,0.7563 C1.5757,0.8383 1.3987,0.9523 1.3477,1.1153 C1.3077,1.2443 1.1247,1.4933 0.9527,1.6523 C0.5187,2.0553 0.3837,2.9173 0.6987,3.2773 C0.8627,3.4633 0.9017,3.6313 0.8527,3.9283 C0.7767,4.3973 0.9417,5.3203 1.1247,5.4433 C1.2117,5.5023 1.2047,5.5583 1.1017,5.6253 C0.9987,5.6933 0.9607,5.9623 0.9757,6.5113 C0.9887,6.9453 0.9347,7.5313 0.8567,7.8153 C0.7327,8.2593 0.5817,10.0323 0.6227,10.5583 C0.6647,11.0903 0.6107,11.4843 0.4177,12.0673 C0.2977,12.4333 0.2497,12.7303 0.3127,12.7303 C0.4177,12.7303 0.3887,13.1183 0.2167,14.0443 C0.1677,14.3073 0.2237,14.4673 0.4557,14.7303 C0.6277,14.9243 0.8657,15.2093 1.0047,15.3883 C1.1607,15.5873 1.4737,15.7673 1.8617,15.8793 C2.4227,16.0413 2.5197,16.0413 3.0227,15.8733 C3.3197,15.7753 3.6497,15.6023 3.7417,15.4963 C4.0537,15.1423 4.3887,14.4443 4.3737,14.1823 C4.3657,14.0413 4.3977,13.6953 4.4457,13.3993 C4.5177,12.9523 4.4997,12.8503 4.3367,12.7583 C4.1937,12.6783 4.1717,12.5933 4.2517,12.4333 C4.3857,12.1673 4.3187,10.1013 4.1637,9.6893 C4.1027,9.5273 4.0797,9.1523 4.1137,8.8663 C4.2387,7.8033 4.2457,7.3003 4.1367,7.1623 C4.0787,7.0893 4.0737,6.9573 4.1257,6.8773 C4.1787,6.7953 4.2357,6.4203 4.2507,6.0423 C4.2667,5.6623 4.3097,4.9343 4.3477,4.4083 C4.3957,3.7453 4.3757,3.4093 4.2797,3.2933 C4.2037,3.2023 4.1917,3.1283 4.2507,3.1283 C4.3117,3.1283 4.4217,2.9903 4.4997,2.8193 C4.7027,2.3733 4.4397,1.5393 4.0517,1.3943 C3.8907,1.3343 3.7407,1.2523 3.7097,1.2073 C3.6357,1.1003 2.5987,0.6053 2.4847,0.6223 C2.4357,0.6293 2.1707,0.6913 1.9077,0.7563" id="Fill-3" fill="#DF6067" mask="url(#mask-2)"></path>
                            </g>
                        </g>
                    </g>
                </g>
                <g id="clock/body">
                    <g id="Group-38">
                        <g id="Group-3" transform="translate(0.000000, 0.263400)">
                            <mask id="mask-4" fill="white">
                                <use xlink:href="#path-3"></use>
                            </mask>
                            <g id="Clip-2"></g>
                            <path d="M43.8948,4.8308 C44.2788,4.8538 45.7708,4.8768 47.1918,4.8818 C48.6118,4.8858 49.9168,4.9548 50.0738,5.0338 C50.7328,5.3628 51.2298,5.5338 51.7818,5.6198 C53.7758,5.9288 54.3278,6.0638 55.1628,6.4528 C55.6698,6.6878 56.4768,6.9188 56.9378,6.9598 C57.8358,7.0398 58.1378,7.1238 59.0508,7.5428 C59.3798,7.6938 59.9378,7.8258 60.3108,7.8398 C60.6828,7.8538 61.0078,7.9518 61.0458,8.0598 C61.0838,8.1688 61.3248,8.2538 61.5948,8.2538 C61.8578,8.2538 62.3308,8.3998 62.6348,8.5758 C62.9378,8.7498 63.6748,8.9968 64.2488,9.1168 C64.8238,9.2358 65.3058,9.3978 65.3058,9.4718 C65.3058,9.5478 65.4748,9.6088 65.6948,9.6118 C66.3198,9.6218 68.4108,10.8558 68.7768,11.4328 C68.9588,11.7198 69.2048,11.9598 69.3208,11.9648 C69.4388,11.9698 69.5318,12.0328 69.5318,12.1088 C69.5318,12.1838 69.8028,12.3418 70.1408,12.4638 C70.4788,12.5858 70.8698,12.8938 71.0198,13.1568 C71.1778,13.4328 71.6288,13.7848 72.1018,14.0018 C72.5408,14.2038 72.9138,14.4438 72.9138,14.5258 C72.9138,14.6128 73.0148,14.6788 73.1498,14.6788 C73.2808,14.6788 73.4768,14.8978 73.5868,15.1688 C73.8148,15.7268 74.7218,16.7068 75.0098,16.7068 C75.1218,16.7068 75.3188,16.8588 75.4488,17.0448 C75.5798,17.2308 75.7658,17.3828 75.8638,17.3828 C75.9588,17.3828 76.1958,17.6708 76.3788,18.0088 C76.5618,18.3468 76.8758,18.8128 77.0618,19.0228 C77.9178,19.9868 78.0838,20.2078 78.2838,20.6458 C78.3998,20.8998 78.5598,21.1018 78.6448,21.1018 C78.8018,21.1018 79.0698,22.0488 79.0268,22.4548 C78.9728,22.9788 79.1768,23.4318 79.5068,23.5168 C79.6928,23.5648 79.8878,23.7418 79.9398,23.9088 C80.0488,24.2588 80.2558,24.7038 80.6088,25.3458 C80.7468,25.5978 80.8668,26.0218 80.8758,26.2928 C80.8998,26.9688 81.2388,28.2028 81.3998,28.2028 C81.4748,28.2028 81.5358,28.3548 81.5358,28.5408 C81.5358,28.7268 81.6108,28.8788 81.7048,28.8788 C81.7968,28.8788 81.8738,29.1838 81.8738,29.5558 C81.8738,29.9268 81.9498,30.2308 82.0418,30.2308 C82.1388,30.2308 82.2108,30.3838 82.2108,30.5868 C82.2108,30.9598 82.6468,32.4458 82.9148,32.9868 C82.9938,33.1468 83.0568,33.4098 83.0568,33.5788 C83.0568,33.7478 83.1318,33.9578 83.2258,34.0518 C83.3198,34.1458 83.4058,34.5418 83.4198,34.9478 C83.4348,35.3538 83.5348,35.7648 83.6478,35.8778 C83.8278,36.0578 83.8628,36.2328 83.9498,37.4158 C83.9708,37.7038 84.0448,38.0148 84.1218,38.1348 C84.1958,38.2508 84.2528,39.0138 84.2488,39.8258 C84.2438,40.6368 84.2398,41.4188 84.2398,41.5578 C84.2398,41.6978 84.2698,42.7248 84.3078,43.8398 C84.3448,44.9558 84.3148,45.9458 84.2398,46.0388 C84.1648,46.1318 84.1648,46.5448 84.2398,46.9678 C84.3148,47.3908 84.3378,47.7918 84.2908,47.8728 C84.2438,47.9518 84.1748,48.3718 84.1358,48.8108 C84.0388,49.9098 83.8948,50.8978 83.7898,51.1948 C83.7388,51.3348 83.6708,51.7868 83.6348,52.2078 C83.5588,53.1168 83.1428,55.4208 82.8878,56.3508 C82.7848,56.7228 82.6748,57.1408 82.6428,57.2808 C82.6108,57.4178 82.4678,57.8038 82.3308,58.1248 C82.1278,58.6008 81.7218,59.7828 80.9648,62.0988 C80.9358,62.1888 80.8198,62.4878 80.7148,62.7408 C80.6108,62.9948 80.5208,63.3118 80.5208,63.4248 C80.5208,63.5418 80.2738,64.0508 79.9718,64.5578 C79.6728,65.0598 79.2028,66.0028 78.9398,66.6288 C78.6778,67.2538 78.2348,68.0258 77.9678,68.3198 C77.6918,68.6238 77.3818,68.9718 77.2578,69.1148 C77.1368,69.2538 76.9398,69.6128 76.8188,69.9168 C76.6968,70.2218 76.5418,70.4668 76.4718,70.4668 C76.4018,70.4668 76.2078,70.7708 76.0398,71.1428 C75.7428,71.7988 75.5128,72.0898 74.0858,73.6108 C73.7218,73.9998 73.4208,74.4058 73.4208,74.5068 C73.4208,74.6078 73.2348,74.7668 73.0148,74.8538 C72.7948,74.9408 72.5818,75.1848 72.5498,75.3858 C72.5068,75.6578 72.2958,75.8248 71.7718,76.0028 C71.3838,76.1358 71.0538,76.3188 71.0538,76.4008 C71.0538,76.4848 70.9438,76.5528 70.8088,76.5528 C70.6738,76.5528 70.5178,76.7048 70.4618,76.8908 C70.4058,77.0768 70.2848,77.2288 70.1918,77.2288 C70.0998,77.2288 69.8528,77.3878 69.6508,77.5798 C69.2908,77.9188 67.9598,78.5968 67.2158,78.8198 C66.9968,78.8858 66.8278,79.0058 66.8278,79.0968 C66.8278,79.1828 66.7088,79.2578 66.5738,79.2578 C66.4388,79.2578 66.3198,79.3688 66.3198,79.4948 C66.3198,79.7758 64.9168,80.6098 64.4438,80.6098 C64.2748,80.6098 63.9818,80.6778 63.8268,80.7538 C63.6628,80.8328 63.2178,81.0598 62.8298,81.2608 C62.4398,81.4618 62.0068,81.6238 61.8568,81.6238 C61.7028,81.6238 61.4598,81.6898 61.2908,81.7768 C61.1248,81.8618 60.8088,81.9988 60.5728,82.0888 C60.3358,82.1788 59.9638,82.3268 59.7268,82.4248 C59.1518,82.6628 57.5438,83.1458 57.3268,83.1458 C57.2248,83.1458 56.6418,83.3858 56.0328,83.6778 C55.2208,84.0688 54.4778,84.2698 53.2438,84.4308 C52.3138,84.5518 51.5088,84.7338 51.4428,84.8358 C51.3788,84.9378 50.9868,85.0378 50.5818,85.0558 C50.1248,85.0768 49.8508,85.1648 49.8708,85.2848 C49.8918,85.4008 49.7698,85.4438 49.5668,85.3898 C49.2288,85.3008 47.3788,85.6638 47.2168,85.8508 C47.0118,86.0868 46.2108,86.3338 46.1218,86.1888 C46.0608,86.0908 45.0698,86.0378 43.7688,86.0618 C42.2468,86.0908 41.4428,86.0408 41.2828,85.9098 C41.1518,85.8018 40.4038,85.6278 39.6098,85.5208 C38.8148,85.4138 38.0588,85.2818 37.9188,85.2248 C37.7808,85.1698 37.3948,85.0888 37.0738,85.0478 C36.7518,85.0058 36.3538,84.9018 36.2028,84.8198 C36.0488,84.7358 35.5518,84.6638 35.0958,84.6618 C33.7428,84.6518 33.4528,84.5988 33.0168,84.2848 C32.7828,84.1158 32.2978,83.9918 31.8748,83.9918 C31.4528,83.9918 31.0358,83.8868 30.8948,83.7468 C30.7608,83.6118 30.2858,83.4588 29.8468,83.4078 C29.4068,83.3568 28.6988,83.1888 28.2828,83.0368 C27.8598,82.8808 27.1838,82.6408 26.7608,82.4958 C26.3388,82.3498 25.9178,82.1508 25.8138,82.0468 C25.7098,81.9428 25.2818,81.7188 24.8428,81.5398 C24.4028,81.3608 24.0568,81.1598 24.0568,81.0828 C24.0568,81.0088 23.9038,80.9488 23.7178,80.9488 C23.5318,80.9488 23.3798,80.8728 23.3798,80.7798 C23.3798,80.6878 23.2368,80.6098 23.0668,80.6098 C22.8968,80.6098 22.2298,80.1478 21.6048,79.5958 C20.9788,79.0428 20.3668,78.5808 20.2608,78.5808 C20.1548,78.5808 19.9528,78.4128 19.8148,78.2088 C19.4628,77.6888 18.8158,77.0388 18.0718,76.4598 C17.7158,76.1838 17.1168,75.6668 16.7278,75.3018 C16.3388,74.9358 15.7628,74.4458 15.4348,74.2018 C14.2168,73.2928 12.8048,71.5238 12.4808,70.4998 C12.4118,70.2828 12.1718,69.9898 11.9348,69.8338 C11.4448,69.5118 10.8068,68.3418 10.9348,67.9978 C10.9848,67.8638 10.9638,67.7618 10.8868,67.7618 C10.8118,67.7618 10.5748,67.3808 10.3538,66.9088 C10.1338,66.4348 9.8628,65.9788 9.7458,65.8848 C9.6328,65.7938 9.4868,65.4968 9.4328,65.2428 C9.3788,64.9898 9.1398,64.6008 8.9168,64.4058 C8.6978,64.2128 8.5028,63.8918 8.5028,63.7208 C8.5028,63.5518 8.3908,63.3078 8.2668,63.2058 C8.1328,63.0958 7.9818,62.8168 7.9198,62.5638 C7.8588,62.3128 7.5228,61.7018 7.1588,61.1768 C6.7958,60.6528 6.4528,60.0518 6.3818,59.8158 C6.3108,59.5798 6.2028,59.3548 6.1368,59.3048 C5.9648,59.1768 5.4598,58.0068 5.4598,57.7368 C5.4598,57.5988 5.3478,57.2128 5.2148,56.8918 C5.0798,56.5658 4.9738,55.8858 4.9778,55.3778 C4.9828,54.8718 4.8768,54.2368 4.7418,53.9668 C4.5978,53.6788 4.5278,53.2138 4.5728,52.8428 C4.6148,52.4878 4.5818,52.2078 4.4968,52.2078 C4.1138,52.2078 4.1208,44.4658 4.5048,43.4178 C4.5568,43.2758 4.6318,42.7918 4.6738,42.3188 C4.7168,41.8478 4.8808,40.9498 5.0458,40.2898 C5.2108,39.6308 5.3418,38.9568 5.3418,38.7688 C5.3418,37.9908 5.6748,36.8918 6.0008,36.5928 C6.2678,36.3498 6.3168,36.1648 6.2338,35.7258 C6.1168,35.1008 6.4908,33.9508 6.8128,33.9508 C6.9348,33.9508 6.9818,33.8148 6.9308,33.6128 C6.8848,33.4268 6.9488,33.1678 7.0748,33.0378 C7.2048,32.9028 7.2628,32.7648 7.2098,32.7168 C7.1568,32.6678 7.2688,32.4798 7.4718,32.2768 C7.6608,32.0888 7.8268,31.7278 7.8268,31.5078 C7.8268,31.2798 8.0968,30.5698 8.4268,29.9268 C8.7578,29.2848 9.0048,28.6918 8.9768,28.6088 C8.9158,28.4268 9.4668,27.6188 9.9738,27.1458 C10.1938,26.9398 10.3628,26.6798 10.3628,26.5458 C10.3628,26.2248 11.2018,24.8218 11.3938,24.8218 C11.4788,24.8218 11.5458,24.6358 11.5458,24.3988 C11.5458,24.1288 11.6828,23.9128 11.9268,23.7988 C12.1368,23.7008 12.4778,23.2668 12.6908,22.8268 C13.3688,21.4238 13.5808,21.1018 13.8288,21.1018 C13.9918,21.1018 14.0818,20.9338 14.0818,20.6288 C14.0818,20.3298 14.2678,19.9758 14.5888,19.6648 C14.8768,19.3878 15.0968,19.1168 15.0968,19.0398 C15.0968,18.7688 16.9788,16.7068 17.2268,16.7068 C17.4028,16.7068 18.4778,15.5748 18.4778,15.3888 C18.4778,15.1188 20.8608,12.7648 21.4188,12.4828 C21.7068,12.3378 22.0358,12.1348 22.1798,12.0138 C22.9578,11.3598 24.0878,10.6208 24.3098,10.6208 C24.4448,10.6208 24.5628,10.5418 24.5628,10.4518 C24.5628,10.3548 24.6898,10.2758 24.8588,10.2658 C25.0218,10.2568 25.4588,10.0668 25.8318,9.8438 C26.2038,9.6208 26.6408,9.3918 26.8038,9.3358 C26.9728,9.2778 27.0998,9.1698 27.0998,9.0818 C27.0998,8.9988 27.2508,8.9308 27.4368,8.9308 C27.6238,8.9308 27.7758,8.8578 27.7758,8.7698 C27.7758,8.6808 28.0718,8.5268 28.4428,8.4228 C28.8148,8.3198 29.1708,8.1398 29.2468,8.0178 C29.3198,7.8978 29.8038,7.6638 30.3118,7.5018 C30.8188,7.3408 31.3138,7.1368 31.4018,7.0538 C31.4908,6.9698 31.9428,6.8978 32.4158,6.8938 C32.9068,6.8888 33.4138,6.7778 33.6078,6.6328 C34.0488,6.3038 35.0788,6.0408 36.2278,5.9658 C36.7358,5.9328 37.4658,5.8658 37.8338,5.8198 C38.2128,5.7718 38.8828,5.6938 39.3558,5.6418 C41.3338,5.4228 42.4828,4.9728 42.4828,4.4168 C42.4828,4.1848 42.5338,4.1918 42.8378,4.4678 C43.0438,4.6528 43.4888,4.8068 43.8948,4.8308 M45.7798,0.8838 C45.4248,1.0378 45.1328,1.0548 44.8078,0.9428 C44.4868,0.8308 44.2648,0.8448 44.0888,0.9848 C43.9408,1.1038 43.6328,1.1488 43.3458,1.0948 C43.0408,1.0368 42.7338,1.0948 42.5338,1.2468 C42.1788,1.5168 41.5348,1.5598 41.3878,1.3228 C41.2618,1.1198 40.6238,1.0918 40.6238,1.2888 C40.6238,1.4008 39.7108,1.4378 35.3318,1.5048 C35.1798,1.5068 35.0048,1.5808 34.9598,1.6608 C34.9138,1.7458 34.6308,1.7718 34.3268,1.7198 C33.9378,1.6548 33.6638,1.7268 33.3878,1.9668 C32.9888,2.3158 32.0018,2.6008 31.4438,2.5288 C31.2748,2.5068 31.0498,2.5568 30.9368,2.6418 C30.8258,2.7248 30.3118,2.8898 29.8038,3.0048 C29.2968,3.1208 28.4978,3.3628 28.0458,3.5378 C27.5898,3.7148 27.1268,3.8588 27.0148,3.8588 C26.9038,3.8588 26.6178,4.0108 26.3808,4.1968 C26.1448,4.3828 25.7708,4.5348 25.5528,4.5348 C25.3358,4.5348 24.8168,4.8038 24.4118,5.1268 C24.0058,5.4498 23.5678,5.7188 23.4478,5.7188 C23.3298,5.7188 22.8808,5.9518 22.4758,6.2258 C22.0698,6.4988 21.6488,6.7328 21.5628,6.7328 C21.4748,6.7328 21.1058,6.9668 20.7508,7.2478 C20.3958,7.5298 19.8468,7.8828 19.5418,8.0258 C19.2378,8.1688 18.9848,8.3498 18.9848,8.4228 C18.9848,8.7208 16.8208,10.6208 16.4828,10.6208 C16.3798,10.6208 16.0108,10.9338 15.6538,11.3228 C15.2978,11.7108 14.7668,12.2878 14.4618,12.6158 C14.1648,12.9368 13.9128,13.2688 13.9128,13.3428 C13.9128,13.5468 12.6958,14.6788 12.4758,14.6788 C12.2208,14.6788 11.3428,15.6418 11.0438,16.2508 C10.9188,16.5038 10.7548,16.7068 10.6758,16.7068 C10.5938,16.7068 10.5318,16.8088 10.5318,16.9438 C10.5318,17.0718 10.3458,17.3008 10.1258,17.4418 C9.8928,17.5928 9.6738,17.9408 9.6098,18.2628 C9.4488,19.0738 9.1608,19.7498 8.9768,19.7498 C8.8848,19.7498 8.8648,19.8178 8.9258,19.9188 C8.9818,20.0128 8.9168,20.0878 8.7818,20.0878 C8.6498,20.0878 8.4358,20.3328 8.3168,20.6208 C8.1988,20.9078 7.9338,21.3548 7.7428,21.5928 C7.5498,21.8308 7.2828,22.3028 7.1588,22.6238 C7.0358,22.9448 6.8418,23.2928 6.7368,23.3848 C6.6298,23.4768 6.4348,23.9168 6.3058,24.3568 C6.1758,24.7958 5.9848,25.1598 5.8828,25.1598 C5.7828,25.1598 5.5568,25.4468 5.3928,25.7858 C5.2278,26.1228 4.9408,26.5158 4.7668,26.6388 C4.5978,26.7588 4.4458,27.0028 4.4458,27.1548 C4.4458,27.3108 4.2228,27.6958 3.9558,27.9998 C3.5678,28.4408 3.4648,28.7188 3.4648,29.3268 C3.4648,29.8168 3.3578,30.2128 3.1688,30.4168 C3.0138,30.5868 2.9258,30.7388 2.9838,30.7388 C3.0418,30.7388 2.9668,30.9328 2.8228,31.1528 C2.6798,31.3728 2.5998,31.7098 2.6538,31.8718 C2.7108,32.0418 2.6438,32.3868 2.5018,32.6578 C2.3588,32.9278 2.2488,33.2318 2.2488,33.3508 C2.2488,33.4668 2.0958,33.7558 1.9098,33.9928 C1.7248,34.2298 1.5718,34.5188 1.5718,34.6358 C1.5718,34.7558 1.4558,34.9738 1.3018,35.1428 C1.1208,35.3398 1.0308,35.7678 1.0308,36.4268 C1.0308,36.9688 0.9548,37.5118 0.8618,37.6278 C0.7458,37.7728 0.7558,37.9148 0.8958,38.0838 C1.0078,38.2198 1.0338,38.4278 0.9548,38.5488 C0.8788,38.6648 0.8348,38.9038 0.8618,39.0558 C0.8898,39.2108 0.8348,39.6308 0.7438,39.9688 C0.6518,40.3068 0.6288,40.6798 0.6928,40.7808 C0.8548,41.0338 0.8488,41.2878 0.6758,41.4138 C0.5938,41.4728 0.4928,41.7698 0.4568,42.0568 C0.4198,42.3438 0.2908,42.6908 0.1768,42.8088 C0.0288,42.9628 -0.0222,43.5018 0.0078,44.6188 C0.0318,45.4928 0.0848,47.7288 0.1258,49.5878 C0.1678,51.4478 0.2448,53.1598 0.2958,53.3918 C0.3458,53.6228 0.4268,54.2958 0.4728,54.8718 C0.5188,55.4468 0.6308,56.1128 0.7178,56.3328 C0.8048,56.5528 0.8398,56.7778 0.7938,56.8238 C0.7488,56.8698 0.8888,57.2548 1.0988,57.6608 C1.3108,58.0718 1.6838,58.7928 1.9178,59.2498 C2.1538,59.7058 2.4538,60.4478 2.5778,60.8808 C2.7038,61.3208 2.8628,61.6758 2.9328,61.6758 C3.0018,61.6758 3.1528,61.9038 3.2628,62.1738 C3.3728,62.4448 3.6508,62.8898 3.8708,63.1468 C4.0888,63.3998 4.2768,63.7138 4.2768,63.8228 C4.2768,64.0598 4.9258,65.2088 5.2498,65.5468 C5.3748,65.6778 5.4358,65.8938 5.3838,66.0288 C5.3338,66.1628 5.5458,66.6708 5.8488,67.1448 C6.1518,67.6188 6.5548,68.3628 6.7298,68.7758 C7.1748,69.8248 8.6088,72.2148 9.0108,72.5788 C9.1958,72.7468 9.3488,73.0058 9.3488,73.1548 C9.3488,73.3058 9.5348,73.5388 9.7708,73.6818 C10.2948,74.0008 13.2368,76.8538 13.2368,77.0428 C13.2368,77.1168 13.4648,77.2248 13.7358,77.2798 C14.0978,77.3538 14.2988,77.5338 14.4728,77.9388 C14.7188,78.5138 15.6888,79.5958 15.9578,79.5958 C16.0418,79.5958 16.3218,79.8318 16.5788,80.1198 C17.5598,81.2188 18.2858,81.9618 18.3758,81.9618 C18.4228,81.9618 18.8498,82.3358 19.3398,82.8078 C19.8298,83.2798 20.3418,83.6528 20.4978,83.6528 C20.6498,83.6528 21.1398,83.8818 21.5798,84.1608 C22.0198,84.4378 22.4558,84.6668 22.5428,84.6668 C22.6398,84.6668 22.7038,84.7348 22.7038,84.8358 C22.7038,84.9258 22.8978,85.0048 23.1178,85.0048 C23.3378,85.0048 23.5798,85.0848 23.6338,85.1738 C23.6898,85.2678 23.9978,85.3438 24.3178,85.3438 C24.6398,85.3438 25.0308,85.4098 25.1888,85.4908 C26.0218,85.9168 26.7608,86.1488 27.7758,86.3018 C28.0968,86.3508 28.4408,86.4608 28.5278,86.5438 C28.6148,86.6258 28.9338,86.6958 29.2208,86.6958 C29.6098,86.6958 29.8108,86.8058 29.9668,87.1018 C30.2798,87.6998 32.1538,88.0858 35.0448,88.1498 C36.2958,88.1778 37.5188,88.2078 37.7498,88.2168 C37.9848,88.2268 38.8488,88.2218 39.6938,88.2068 C41.2158,88.1788 42.4848,88.3448 43.7508,88.7358 C44.1788,88.8678 45.7628,88.9608 48.0618,88.9908 C52.0518,89.0398 52.7308,88.9318 54.9088,87.8938 C55.9688,87.3888 57.0728,87.0058 58.3748,86.6928 C58.7968,86.5908 59.2858,86.4728 59.4738,86.4248 C59.6598,86.3788 59.9638,86.3088 60.1498,86.2688 C61.9588,85.8828 62.6928,85.6478 63.0068,85.3538 C63.2118,85.1618 63.9538,84.7968 64.6638,84.5398 C65.3738,84.2838 66.2398,83.8308 66.5988,83.5268 C66.9548,83.2268 67.3118,82.9768 67.3848,82.9768 C67.4598,82.9768 67.8328,82.8268 68.2218,82.6388 C68.6108,82.4518 69.0138,82.2998 69.1268,82.2998 C69.2378,82.2998 69.5278,82.0638 69.7688,81.7768 C70.0098,81.4898 70.2998,81.2368 70.4118,81.2168 C70.8338,81.1428 72.1838,80.4508 72.3868,80.2048 C72.5118,80.0518 72.6978,79.9338 72.8118,79.9338 C72.9238,79.9338 73.2768,79.6288 73.5978,79.2578 C73.9188,78.8858 74.2798,78.5808 74.4008,78.5788 C74.7558,78.5728 76.4638,77.3728 76.4638,77.1268 C76.4638,76.9928 76.5358,76.8908 76.6328,76.8908 C77.1298,76.8908 78.8308,74.6928 78.8308,74.0508 C78.8308,73.9598 78.9488,73.8378 79.0838,73.7888 C79.2228,73.7378 79.4138,73.5008 79.5068,73.2648 C79.5998,73.0278 79.7748,72.8328 79.8948,72.8328 C80.1568,72.8328 80.5878,72.0388 80.5388,71.6498 C80.5198,71.5028 80.7318,71.1778 81.0028,70.9398 C81.2748,70.7008 81.5938,70.2048 81.7048,69.8498 C81.8148,69.4948 81.9768,69.1248 82.0598,69.0388 C82.1448,68.9478 82.2108,68.7588 82.2108,68.6068 C82.2108,68.1848 82.6838,67.3098 82.9718,67.1998 C83.1068,67.1478 83.2258,66.9998 83.2258,66.8828 C83.2258,66.7598 83.3878,66.3248 83.5898,65.9028 C83.9548,65.1418 84.0088,65.0058 84.0478,64.7518 C84.0608,64.6668 84.3008,64.3638 84.5948,64.0598 C84.9228,63.7208 85.0818,63.4168 85.0178,63.2478 C84.9608,63.0958 84.9938,62.8848 85.0938,62.7658 C85.1908,62.6508 85.3018,62.2588 85.3388,61.9038 C85.3758,61.5488 85.4218,61.2318 85.4398,61.2058 C85.4828,61.1468 85.5218,60.9828 85.6738,60.2388 C85.7498,59.8668 85.8618,59.4868 85.9218,59.3938 C85.9818,59.3008 86.1358,58.8018 86.2608,58.2938 C86.3848,57.7878 86.5918,57.2148 86.7168,57.0358 C86.8438,56.8518 86.9448,56.4768 86.9448,56.1898 C86.9448,55.9028 87.0868,55.4568 87.2668,55.1838 C87.5208,54.7948 87.5528,54.5958 87.4178,54.2198 C87.2938,53.8718 87.3138,53.6208 87.4948,53.2648 C87.6258,53.0058 87.7158,52.4788 87.6888,52.1238 C87.6618,51.7688 87.7008,51.3828 87.7728,51.2878 C87.8458,51.1928 87.9168,50.9918 87.9258,50.8558 C88.0718,48.7258 88.1448,47.5018 88.1448,47.2218 C88.1448,47.0378 88.1378,46.2488 88.1278,45.4888 C88.1198,44.7278 88.1958,43.8058 88.2978,43.4598 C88.4138,43.0638 88.4296863,42.5728 88.3398,42.1498 C88.2598,41.7758 88.2638,40.9828 88.3478,40.3748 C88.4328,39.7668 88.4548,38.8988 88.3988,38.4308 C88.3428,37.9648 88.2558,37.1708 88.2048,36.6638 C88.1528,36.1568 88.0278,35.6888 87.9258,35.6238 C87.8158,35.5548 87.7848,35.3288 87.8498,35.0748 C87.9318,34.7538 87.8738,34.5838 87.6218,34.4078 C87.2648,34.1598 87.2088,34.0008 86.9548,32.5138 C86.8738,32.0398 86.7278,31.4598 86.6238,31.1948 C86.5238,30.9408 86.4378,30.5178 86.4378,30.2818 C86.4378,29.8798 86.3078,29.3698 85.9308,28.2878 C85.8648,28.0998 85.6588,27.6108 85.4658,27.1878 C85.2728,26.7658 85.0708,26.2398 85.0108,26.0048 C84.4258,23.7228 84.1418,23.1308 83.6318,23.1308 C83.5128,23.1308 83.3308,22.8018 83.2338,22.4128 C83.1378,22.0238 82.9788,21.5588 82.8878,21.3978 C82.7908,21.2288 82.7188,20.9758 82.7188,20.8068 C82.7188,20.6448 82.3688,20.0878 81.9498,19.5808 C81.5298,19.0738 81.1338,18.4588 81.0788,18.2278 C81.0208,17.9888 80.8598,17.5858 80.7068,17.2988 C80.5538,17.0118 80.4328,16.7178 80.4278,16.6228 C80.4058,16.2168 79.9968,15.7308 79.5908,15.6288 C79.3538,15.5698 79.1678,15.4118 79.1678,15.2698 C79.1678,15.0168 78.2078,14.0018 77.9678,14.0018 C77.8808,14.0018 77.8158,13.9008 77.8158,13.7658 C77.8158,13.4828 76.9028,12.7428 76.3448,12.5718 C76.1498,12.5128 75.8118,12.2018 75.5928,11.8808 C75.3738,11.5598 75.0738,11.2968 74.9248,11.2968 C74.7778,11.2968 74.4158,11.0008 74.1308,10.6458 C73.8448,10.2908 73.3528,9.8738 73.0488,9.7278 C72.3388,9.3878 71.8448,8.9588 71.5668,8.4398 C71.4488,8.2208 71.2668,8.0878 71.1468,8.1358 C71.0288,8.1828 70.6138,7.9288 70.2078,7.5608 C69.6668,7.0708 69.3428,6.9018 68.9408,6.9018 C68.3318,6.9018 67.6068,6.5838 67.2828,6.1748 C66.9708,5.7798 65.2048,4.8728 64.7478,4.8728 C64.5278,4.8728 64.2028,4.7178 64.0378,4.5348 C63.8638,4.3418 63.5818,4.1968 63.3788,4.1968 C63.1858,4.1968 62.5838,4.0468 62.0598,3.8678 C61.2828,3.6018 60.9738,3.5718 60.4618,3.7148 C60.0058,3.8428 59.8098,3.8408 59.7608,3.7068 C59.7218,3.6008 59.5918,3.5208 59.4568,3.5208 C59.3208,3.5208 59.2198,3.4478 59.2198,3.3518 C59.2198,3.2588 58.8308,3.1828 58.3578,3.1828 C57.5378,3.1828 55.7708,2.7198 54.8248,2.2568 C54.5938,2.1428 53.8268,1.9468 53.1338,1.8218 C52.4408,1.6968 51.5138,1.4168 51.0878,1.2048 C50.4198,0.8698 50.0738,0.8178 48.6198,0.8328 C47.6898,0.8418 46.7848,0.8078 46.6078,0.7568 C46.4268,0.7038 46.0668,0.7588 45.7798,0.8838" id="Fill-1" fill="#DF6067" mask="url(#mask-4)"></path>
                        </g>
                        <path d="M43.2947,13.8725 C44.0007,14.1815 44.1567,14.2055 46.3717,14.3375 C47.2507,14.3915 48.3987,14.5495 48.9077,14.6875 C49.4147,14.8265 50.1027,14.9415 50.4207,14.9415 C50.7587,14.9415 51.1527,15.0805 51.3587,15.2715 C51.6197,15.5135 52.1277,15.6475 53.2777,15.7785 C54.1397,15.8765 55.0077,16.0655 55.2127,16.2015 C55.4197,16.3375 55.9227,16.4985 56.3457,16.5645 C56.7687,16.6305 57.1817,16.7395 57.2757,16.8095 C57.3707,16.8805 57.6307,16.9935 57.8677,17.0665 C58.2897,17.1965 59.4317,17.9745 59.5377,18.2045 C59.5697,18.2755 59.6457,18.2895 59.7267,18.2385 C59.7987,18.1935 59.9567,18.2715 60.0657,18.4075 C60.1747,18.5445 60.4537,18.6615 60.6737,18.6615 C60.8937,18.6615 61.4937,18.9285 61.9837,19.2445 C62.4747,19.5595 63.0737,19.8735 63.2947,19.9275 C63.7337,20.0375 64.7987,20.9345 64.7987,21.1965 C64.7987,21.2875 64.8997,21.3655 65.0187,21.3655 C65.1397,21.3655 65.5007,21.5895 65.8217,21.8645 C66.1427,22.1395 66.5187,22.3675 66.6587,22.3715 C66.7977,22.3765 67.0067,22.5325 67.1237,22.7185 C67.2397,22.9045 67.4257,23.0585 67.5377,23.0605 C67.7397,23.0655 68.8567,23.9915 68.8567,24.1555 C68.8567,24.2025 69.0897,24.4845 69.3797,24.7895 C69.6647,25.0875 70.0437,25.6095 70.2087,25.9305 C70.3737,26.2515 70.6747,26.6575 70.8677,26.8175 C71.0707,26.9865 71.2227,27.2075 71.2227,27.3335 C71.2227,27.4585 71.3647,27.7055 71.5537,27.9085 C72.3107,28.7195 73.3457,31.2455 73.2097,31.9485 C73.1257,32.3835 73.3597,33.1825 73.8977,34.2985 C74.2587,35.0485 74.4817,35.9895 74.5387,37.0035 C74.6057,38.1865 74.9067,40.0795 75.0817,40.4015 C75.3647,40.9255 75.6577,44.0225 75.4477,44.2725 C75.3397,44.4015 75.2347,45.6755 75.1947,47.3325 C75.1107,50.8665 74.9617,52.4475 74.6707,52.8945 C74.5507,53.0795 74.3757,53.7225 74.2827,54.3145 C74.1907,54.9065 74.0027,55.5195 73.8687,55.6665 C73.7317,55.8175 73.5707,56.2755 73.5047,56.6985 C73.4397,57.1215 73.2437,57.7895 73.0657,58.2035 C72.8907,58.6085 72.7447,59.0465 72.7447,59.1665 C72.7447,59.4105 72.4557,60.1135 71.7117,61.6855 C71.4397,62.2605 71.2227,62.8025 71.2227,62.9115 C71.2227,63.0115 71.1127,63.1705 70.9947,63.2415 C70.8677,63.3165 70.6157,63.7135 70.4277,64.1365 C70.2407,64.5595 69.9477,65.0665 69.7687,65.2785 C69.5957,65.4825 69.2137,65.9625 68.9407,66.3175 C68.6677,66.6725 68.2187,67.1055 67.9687,67.2555 C67.7117,67.4105 67.3567,67.8225 67.1737,68.1775 C66.9617,68.5895 66.5237,69.0245 65.9487,69.3905 C65.0527,69.9615 64.8447,70.1165 64.1727,70.7195 C63.9537,70.9165 63.7107,71.0685 63.6157,71.0685 C63.5217,71.0685 63.3177,71.2715 63.1577,71.5245 C62.6877,72.2695 62.3987,72.4685 60.2847,73.4985 C57.5287,74.8425 57.0687,75.0925 56.7007,75.4425 C56.5707,75.5655 56.3127,75.6245 56.1267,75.5735 C55.9367,75.5215 55.4837,75.6245 55.0947,75.8105 C54.7097,75.9935 54.0637,76.1715 53.6407,76.2115 C52.8297,76.2895 51.4547,76.6915 50.7667,77.0535 C50.3707,77.2625 49.1097,77.5995 48.5687,77.6415 C48.4307,77.6525 47.7407,77.7415 47.0477,77.8365 C44.9687,78.1235 41.9427,78.1985 41.4007,77.9745 C41.0297,77.8215 40.9007,77.8255 40.8007,77.9915 C40.7197,78.1255 40.6347,78.1415 40.5647,78.0335 C40.5037,77.9395 40.1417,77.8605 39.7527,77.8555 C39.3637,77.8505 38.9727,77.7685 38.8737,77.6695 C38.7737,77.5695 38.5277,77.4925 38.3077,77.4925 C38.0877,77.4925 37.9187,77.4185 37.9187,77.3235 C37.9187,77.2295 37.7837,77.1545 37.6147,77.1545 C37.4427,77.1545 37.1667,77.0465 36.9807,76.9095 C36.7967,76.7725 36.4907,76.7055 36.2877,76.7565 C36.0847,76.8085 35.8757,76.7675 35.8147,76.6645 C35.7527,76.5595 35.5187,76.4775 35.2817,76.4775 C34.9137,76.4775 33.8277,76.0715 32.9657,75.6095 C32.7967,75.5195 32.5937,75.4895 32.5087,75.5425 C32.3267,75.6575 31.5457,75.2865 30.5647,74.6215 C30.1927,74.3685 29.6487,74.1165 29.3567,74.0605 C29.0597,74.0035 28.4607,73.7795 28.0037,73.5535 C27.5467,73.3275 26.8837,72.9975 26.5077,72.8095 C26.1287,72.6205 25.4597,72.2935 24.9857,72.0675 C24.0227,71.6065 22.3657,70.2585 22.3657,69.9355 C22.3657,69.8175 22.2957,69.7155 22.2137,69.7155 C22.1307,69.7155 21.8337,69.5025 21.5627,69.2505 C21.2927,68.9985 20.8627,68.6775 20.6247,68.5485 C20.3777,68.4155 20.1367,68.1015 20.0747,67.8305 C20.0137,67.5605 19.8607,67.3485 19.7287,67.3485 C19.5977,67.3485 19.4457,67.1285 19.3907,66.8585 C19.3327,66.5775 18.8997,65.9945 18.3767,65.4895 C17.8687,65.0005 17.5007,64.5495 17.5477,64.4745 C17.5927,64.4035 17.5137,64.2455 17.3787,64.1365 C17.2437,64.0285 17.1687,63.8635 17.2177,63.7825 C17.2737,63.6905 17.2537,63.6295 17.1677,63.6295 C17.0867,63.6295 16.8987,63.3675 16.7357,63.0295 C16.5737,62.6915 16.3377,62.3885 16.1947,62.3365 C16.0597,62.2875 15.9417,62.1765 15.9417,62.0995 C15.9417,62.0225 15.8517,61.7365 15.7477,61.4825 C15.6427,61.2295 15.5427,60.9695 15.5297,60.9245 C15.3807,60.3835 15.1667,59.9975 14.8257,59.6575 C14.6067,59.4375 14.4197,59.0965 14.4197,58.9135 C14.4197,58.7275 14.3517,58.5335 14.2677,58.4825 C14.1827,58.4295 14.0297,58.0415 13.9207,57.6025 C13.8127,57.1635 13.6187,56.6645 13.4817,56.4705 C13.3477,56.2805 13.2367,55.7595 13.2367,55.3205 C13.2367,54.8805 13.1637,54.3265 13.0757,54.0945 C12.9877,53.8635 12.8737,52.9615 12.8227,52.0995 C12.7717,51.2385 12.6457,50.2685 12.5427,49.9535 C12.3607,49.3935 12.4297,47.0955 12.6547,46.2165 C12.7147,45.9825 12.7817,45.5235 12.8057,45.1855 C12.8287,44.8475 12.9007,44.4945 12.9657,44.3915 C13.0307,44.2895 13.0687,43.7825 13.0507,43.2755 C13.0307,42.7175 13.1047,42.2375 13.2367,42.0755 C13.3577,41.9265 13.4637,41.3905 13.4737,40.8835 C13.4827,40.3755 13.5397,39.9615 13.6007,39.9615 C13.6607,39.9615 13.7627,39.6495 13.8287,39.2605 C13.8937,38.8715 14.0897,38.3255 14.2677,38.0345 C14.4427,37.7485 14.5887,37.2565 14.5887,36.9525 C14.5887,36.6145 14.6897,36.3585 14.8427,36.3015 C14.9777,36.2525 15.0967,36.0985 15.0967,35.9725 C15.0967,35.4655 15.9817,33.2335 16.5977,32.1855 C16.9547,31.5765 17.2957,30.7925 17.3617,30.4275 C17.4487,29.9425 17.6997,29.5605 18.3087,28.9855 C19.2097,28.1345 19.8167,27.3505 20.2837,26.4375 C20.6097,25.7995 21.8417,24.5155 23.5157,23.0705 C25.4937,21.3615 25.7007,21.1925 26.4227,20.7025 C26.7447,20.4845 27.2467,20.0805 27.5217,19.8185 C28.1627,19.2105 29.3647,18.3235 30.1427,17.8855 C30.4637,17.7055 30.8477,17.4545 31.0127,17.3165 C31.1747,17.1835 32.1367,16.8225 33.1347,16.5225 C34.1317,16.2225 35.0947,15.8925 35.2557,15.7955 C35.4227,15.6955 35.6957,15.6185 35.8817,15.6185 C36.0677,15.6185 36.2557,15.5435 36.3127,15.4485 C36.3687,15.3555 36.6337,15.2795 36.9047,15.2795 C37.1727,15.2795 37.8677,15.0395 38.4427,14.7475 C39.1377,14.3945 39.9397,14.1545 40.8177,14.0375 C41.5447,13.9395 42.1457,13.7985 42.1457,13.7245 C42.1457,13.5105 42.6017,13.5695 43.2947,13.8725 M44.6807,9.6665 C44.6807,9.7315 44.3007,9.7895 43.8437,9.7935 C43.1507,9.8015 42.9307,9.8855 42.5597,10.2845 C42.3077,10.5545 42.0457,10.9435 41.9617,11.1715 C41.7967,11.6145 41.5537,11.6435 40.0317,11.3955 C39.0467,11.2345 38.4427,11.2915 36.1437,11.7605 C35.6697,11.8565 35.0567,12.0405 34.7497,12.1775 C34.4097,12.3295 33.9797,12.3805 33.6247,12.3125 C33.2867,12.2485 33.0047,12.2795 32.9407,12.3895 C32.8817,12.4875 32.6357,12.5745 32.4167,12.5745 C32.1957,12.5745 32.0017,12.6385 32.0017,12.7095 C32.0017,12.8755 31.2577,13.1735 30.2437,13.4145 C29.8037,13.5185 29.2697,13.7575 29.0777,13.9355 C28.8747,14.1235 28.5917,14.2655 28.4177,14.2655 C28.2487,14.2655 28.1137,14.3215 28.1137,14.3925 C28.1137,14.4615 27.8097,14.6525 27.4377,14.8145 C27.0657,14.9775 26.5137,15.3615 26.2117,15.6685 C25.9117,15.9735 25.4507,16.3185 25.1977,16.4295 C24.9437,16.5395 24.7327,16.7085 24.7327,16.8015 C24.7327,16.9025 24.6647,16.9705 24.5637,16.9705 C24.4677,16.9705 24.1857,17.1895 23.9127,17.4775 C23.6397,17.7645 23.3577,17.9845 23.2617,17.9845 C23.0677,17.9845 22.5857,18.3535 21.5547,19.2905 C21.1147,19.6905 20.7067,20.0135 20.6417,20.0135 C20.5767,20.0135 20.4777,20.1655 20.4217,20.3515 C20.3657,20.5375 20.2057,20.6895 20.0667,20.6895 C19.7957,20.6895 17.1247,23.2995 17.1247,23.5635 C17.1247,23.6555 16.8547,23.9065 16.5337,24.1125 C16.0937,24.3955 15.9417,24.6175 15.9417,24.9755 C15.9417,25.2965 15.7477,25.6515 15.3577,26.0395 C15.0377,26.3615 14.7297,26.7645 14.6737,26.9355 C14.6187,27.1055 14.4597,27.3425 14.3267,27.4515 C14.1977,27.5585 14.0817,27.8065 14.0817,27.9765 C14.0817,28.3235 13.3917,29.7845 12.8917,30.4945 C12.7297,30.7255 12.4177,31.3405 12.2057,31.8475 C11.9937,32.3545 11.7477,32.8235 11.6647,32.8785 C11.5827,32.9335 11.4737,33.2845 11.4277,33.6395 C11.3817,33.9945 11.1687,34.4935 10.9647,34.7215 C10.5587,35.1755 10.3937,35.5665 9.9287,37.1725 C9.7677,37.7305 9.5327,38.3085 9.4077,38.4575 C9.2847,38.6025 9.1797,38.8885 9.1797,39.0745 C9.1797,39.2625 8.9747,39.8605 8.7317,40.3845 C8.2987,41.3145 8.2937,41.3695 8.5707,41.9395 C8.7597,42.3295 8.8007,42.6015 8.6917,42.7345 C8.4167,43.0715 8.2157,44.8305 8.1597,47.4005 C8.1417,48.2285 8.2867,49.8575 8.4017,50.1225 C8.4667,50.2695 8.5437,50.7305 8.5707,51.1365 C8.5987,51.5415 8.6787,52.0725 8.7487,52.3025 C8.8797,52.7425 9.0317,53.6715 9.3367,55.9205 C9.4397,56.6815 9.6337,57.3875 9.7877,57.5605 C9.9487,57.7415 10.0617,58.1775 10.0667,58.6335 C10.0717,59.0565 10.1747,59.4875 10.2947,59.5885 C10.4157,59.6915 10.6417,60.1645 10.7957,60.6375 C11.1707,61.7875 11.4697,62.3635 12.1637,63.2745 C12.4727,63.6805 12.7297,64.1645 12.7297,64.3395 C12.7297,64.5195 12.8527,64.8465 13.0087,65.0835 C13.1647,65.3205 13.2427,65.5465 13.1857,65.5995 C13.1297,65.6505 13.3487,65.9715 13.6677,66.3095 C13.9877,66.6475 14.2517,67.0025 14.2517,67.0955 C14.2517,67.1885 14.5387,67.5365 14.8937,67.8725 C15.7387,68.6705 16.1107,69.1575 16.1107,69.4615 C16.1107,69.5975 16.2097,69.7195 16.3217,69.7245 C16.4397,69.7285 16.7167,70.0285 16.9477,70.4005 C17.1777,70.7725 17.4217,71.0685 17.4967,71.0685 C17.5727,71.0685 18.0037,71.4405 18.4777,71.9135 C18.9507,72.3865 19.4157,72.7585 19.5337,72.7585 C19.6487,72.7585 20.2067,73.2655 20.7597,73.8735 C21.3437,74.5165 22.0427,75.0975 22.4077,75.2445 C22.7627,75.3855 23.0417,75.5645 23.0417,75.6495 C23.0417,75.7365 23.1937,75.8015 23.3967,75.8015 C23.5977,75.8015 23.9427,76.0215 24.1917,76.3085 C24.4407,76.5965 24.7047,76.8165 24.7997,76.8165 C25.0367,76.8165 26.5027,77.5575 26.5727,77.7115 C26.6027,77.7795 26.8207,77.8305 27.0737,77.8305 C27.3277,77.8305 27.7057,77.9775 27.9447,78.1675 C28.1767,78.3535 28.6037,78.5065 28.8917,78.5065 C29.1787,78.5065 29.4647,78.5605 29.5247,78.6245 C29.5867,78.6905 29.9897,78.7585 30.4297,78.7775 C30.8697,78.7955 31.2547,78.8945 31.2917,78.9975 C31.3297,79.1005 31.5207,79.1825 31.7227,79.1825 C31.9267,79.1825 32.2727,79.3315 32.5087,79.5215 C32.7457,79.7095 33.0287,79.8605 33.1517,79.8615 C33.5497,79.8665 35.4847,80.5915 35.9237,80.9015 C36.1607,81.0685 36.4107,81.2115 36.4647,81.2115 C36.5197,81.2115 36.7267,81.3485 36.9127,81.5075 C37.0987,81.6655 37.3147,81.8065 37.3777,81.8115 C37.4437,81.8165 37.7667,81.9145 38.1047,82.0315 C38.5027,82.1695 39.2037,82.2095 40.1337,82.1475 C43.3627,81.9295 44.0617,81.9215 44.4447,82.0975 C44.7317,82.2295 44.8927,82.2285 45.0617,82.0905 C45.1877,81.9885 46.0847,81.8715 47.0647,81.8305 C48.6367,81.7635 50.3707,81.4425 51.3587,81.0345 C51.8217,80.8435 52.5427,80.7045 53.6407,80.5945 C54.1487,80.5435 54.9087,80.3555 55.3147,80.1805 C55.7207,80.0045 56.1427,79.8595 56.2447,79.8595 C56.3477,79.8595 56.5127,79.7235 56.6167,79.5545 C56.7197,79.3855 57.3937,79.0675 58.1377,78.8355 C58.8647,78.6115 59.5007,78.3645 59.5327,78.2945 C59.5657,78.2245 59.7947,78.1675 60.0477,78.1675 C60.3187,78.1675 60.6007,78.0315 60.7417,77.8305 C60.8707,77.6465 61.1477,77.4925 61.3497,77.4925 C61.6887,77.4925 62.8787,76.9195 63.1077,76.6465 C63.1537,76.5915 63.4717,76.4155 63.8097,76.2575 C64.1477,76.1005 64.4647,75.8715 64.5117,75.7505 C64.5577,75.6285 65.1537,75.2385 65.8467,74.8745 C67.2667,74.1305 68.1757,73.4415 69.5827,72.0425 C70.1237,71.5045 70.6727,71.0685 70.8087,71.0685 C70.9437,71.0685 71.0537,70.9615 71.0537,70.8305 C71.0537,70.7035 71.3237,70.3245 71.6457,70.0025 C71.9667,69.6815 72.2367,69.3455 72.2367,69.2675 C72.2367,69.1885 72.3897,69.0295 72.5757,68.9135 C72.7637,68.7945 72.9137,68.5405 72.9137,68.3375 C72.9137,68.1415 73.1847,67.6445 73.5047,67.2555 C73.8257,66.8675 74.0967,66.4915 74.0967,66.4365 C74.0967,66.3795 74.3637,65.9455 74.6887,65.4725 C75.0137,64.9985 75.2797,64.4345 75.2797,64.2215 C75.2797,64.0015 75.3907,63.7445 75.5337,63.6295 C75.6727,63.5185 75.7877,63.2745 75.7877,63.0885 C75.7877,62.9035 75.9287,62.4715 76.0997,62.1335 C76.2717,61.7955 76.5117,61.3065 76.6327,61.0515 C76.7527,60.7975 76.9447,60.5865 77.0557,60.5865 C77.3067,60.5865 77.5437,59.5395 77.3957,59.0815 C77.3407,58.9135 77.3757,58.7085 77.4697,58.6515 C77.5667,58.5905 77.6467,58.3215 77.6467,58.0505 C77.6467,57.7805 77.7607,57.4475 77.9007,57.3065 C78.0357,57.1715 78.1107,56.9395 78.0617,56.8085 C78.0097,56.6735 78.0897,56.3265 78.2387,56.0395 C78.3867,55.7515 78.4597,55.5145 78.3987,55.5145 C78.3367,55.5145 78.3857,55.3965 78.5087,55.2445 C78.6297,55.0965 78.7477,54.6955 78.7717,54.3575 C78.7947,54.0175 78.8897,53.4355 78.9827,53.0635 C79.0767,52.6885 79.2267,52.0495 79.3207,51.6265 C79.4147,51.2045 79.5347,50.7425 79.5907,50.5865 C79.6467,50.4345 79.6157,50.2575 79.5237,50.1985 C79.4087,50.1225 79.4057,49.9535 79.5147,49.6655 C79.6047,49.4305 79.6267,48.9475 79.5657,48.5755 C79.4967,48.1525 79.5367,47.8145 79.6757,47.6545 C79.8187,47.4885 79.8597,47.1215 79.7937,46.5975 C79.7257,46.0565 79.7637,45.7005 79.9117,45.5065 C80.2467,45.0675 80.0971156,42.6825 79.7097,42.2945 C79.5947,42.1795 79.5067,41.8975 79.5067,41.6445 C79.5067,41.3905 79.4657,41.1555 79.4137,41.1025 C79.3627,41.0525 79.2817,40.4435 79.2357,39.7675 C79.1907,39.0915 79.1247,38.1205 79.0927,37.6375 C79.0567,37.0965 78.8807,36.5055 78.6447,36.1245 C78.4347,35.7865 78.2717,35.2965 78.2897,35.0595 C78.3077,34.8225 78.2137,34.4715 78.0867,34.2985 C77.9397,34.0995 77.8817,33.7405 77.9347,33.3515 C77.9867,32.9625 77.8847,32.3375 77.6637,31.6955 C77.4657,31.1205 77.3087,30.5515 77.3087,30.4105 C77.3087,30.2745 77.2457,30.1565 77.1737,30.1565 C76.9667,30.1565 76.4227,29.0235 76.5077,28.7705 C76.5477,28.6525 76.4987,28.4565 76.4017,28.3475 C75.8927,27.7725 75.7877,27.6115 75.7877,27.4005 C75.7877,27.2715 75.5587,26.7335 75.2797,26.2095 C75.0017,25.6855 74.7737,25.1475 74.7737,25.0175 C74.7737,24.8825 74.6717,24.7405 74.5367,24.6875 C74.4087,24.6375 74.2447,24.3495 74.1817,24.0615 C74.1067,23.7245 73.8837,23.4275 73.5727,23.2505 C73.3017,23.0965 73.0407,22.8395 72.9897,22.6765 C72.9367,22.5065 72.8097,22.3805 72.6937,22.3805 C72.5787,22.3805 72.3657,22.1605 72.2037,21.8725 C72.0407,21.5855 71.8167,21.3655 71.6877,21.3655 C71.5597,21.3655 71.3107,21.0865 71.1217,20.7315 C70.9227,20.3595 70.6367,20.0765 70.4277,20.0475 C70.2257,20.0185 69.9467,19.8545 69.7777,19.6665 C69.6107,19.4805 69.3967,19.3365 69.2867,19.3365 C69.1807,19.3365 68.7447,18.9735 68.3237,18.5345 C67.9027,18.0945 67.2557,17.5725 66.8947,17.3795 C65.6097,16.6955 65.0787,16.3465 64.5277,15.8255 C64.4097,15.7135 64.2307,15.6185 64.1397,15.6185 C63.8687,15.6185 62.6007,14.8935 62.6007,14.7385 C62.6007,14.6645 62.4487,14.6035 62.2627,14.6035 C62.0767,14.6035 61.8297,14.4515 61.7127,14.2655 C61.5977,14.0795 61.4217,13.9275 61.3247,13.9275 C61.2267,13.9275 61.0177,13.7755 60.8597,13.5895 C60.7017,13.4035 60.4197,13.2505 60.2337,13.2505 C60.0477,13.2505 59.8967,13.1755 59.8967,13.0815 C59.8967,12.9915 59.6337,12.9135 59.3297,12.9135 C59.0257,12.9135 58.5047,12.7845 58.2057,12.6345 C57.9027,12.4825 57.3777,12.3325 57.0557,12.3075 C56.5147,12.2635 55.7367,11.9745 55.5007,11.7295 C55.2947,11.5165 53.7257,11.2225 52.7957,11.2225 C52.2377,11.2225 51.7817,11.1465 51.7817,11.0535 C51.7817,10.9585 51.5697,10.8845 51.2997,10.8845 C51.0337,10.8845 50.5977,10.8125 50.3277,10.7235 C50.0497,10.6325 49.6177,10.5225 49.3307,10.4705 C49.0457,10.4175 48.4507,10.3065 47.9777,10.2165 C47.5037,10.1265 46.8347,10.0075 46.4567,9.9465 C46.0847,9.8855 45.7037,9.7635 45.6107,9.6745 C45.4247,9.4975 44.6807,9.4915 44.6807,9.6665" id="Fill-4" fill="#DF6067"></path>
                        <path d="M60.1497,12.4145 C60.0937,12.5025 60.2007,12.5745 60.3867,12.5745 C60.7927,12.5745 60.8347,12.4795 60.4877,12.3455 C60.3527,12.2925 60.2077,12.3225 60.1497,12.4145" id="Fill-6" fill="#DF6067"></path>
                        <path d="M46.2025,18.8808 C45.9665,18.9938 45.7055,19.1428 45.6115,19.2188 C45.5215,19.2908 45.3065,19.4508 45.1545,19.5608 C44.8915,19.7488 44.7985,20.1658 44.8355,20.9768 C44.8595,21.4848 45.6855,21.5208 45.9935,21.0278 C46.2355,20.6388 46.8425,20.5758 46.9775,20.9258 C47.1105,21.2728 46.7875,21.8218 45.8735,22.8028 C45.4325,23.2768 45.0165,23.8328 44.9515,24.0368 C44.8875,24.2398 44.7715,24.4088 44.6985,24.4088 C44.5255,24.4088 44.2695,25.2368 44.3315,25.5918 C44.3565,25.7328 44.4965,25.9808 44.6475,26.1498 C44.8895,26.4228 45.1035,26.4438 46.6925,26.3518 C50.4295,26.1358 51.1145,26.0398 51.3665,25.6938 C51.5635,25.4228 51.5695,25.3118 51.3965,25.1358 C51.0795,24.8138 49.4315,24.4248 48.5355,24.4618 C48.1135,24.4788 47.7035,24.4398 47.6395,24.3748 C47.5755,24.3108 47.7645,24.0028 48.0565,23.6988 C48.9175,22.8028 49.1465,22.2448 49.1545,21.0278 C49.1605,19.9968 49.1245,19.8898 48.5695,19.2948 C48.0665,18.7558 47.8765,18.6618 47.3015,18.6698 C46.9295,18.6738 46.4345,18.7688 46.2025,18.8808" id="Fill-8" fill="#DF6067"></path>
                        <path d="M41.0462,19.4355 C40.8972,19.4925 40.8792,20.7405 40.9582,25.7615 C40.9722,26.6575 41.2872,27.0105 41.9422,26.8635 C42.4332,26.7535 42.4832,26.6825 42.4832,26.1075 C42.4832,25.7555 42.5632,25.0685 42.6632,24.5605 C42.8082,23.8265 42.8702,21.7045 42.7862,20.3685 C42.7772,20.2405 42.6272,20.0965 42.4582,20.0555 C42.2892,20.0145 42.1452,19.9255 42.1452,19.8615 C42.1452,19.7635 41.3512,19.3165 41.2492,19.3575 C41.2292,19.3655 41.1482,19.3965 41.0462,19.4355" id="Fill-10" fill="#DF6067"></path>
                        <path d="M62.0262,19.9458 C61.9632,20.1148 62.0012,20.1908 62.1282,20.1478 C62.3812,20.0628 62.5202,19.6748 62.2972,19.6748 C62.2012,19.6748 62.0832,19.7938 62.0262,19.9458" id="Fill-12" fill="#DF6067"></path>
                        <path d="M30.785,24.6709 C30.218,24.9839 29.938,25.4909 29.858,26.3529 C29.785,27.1199 29.956,27.2829 30.835,27.2829 C31.615,27.2829 32.279,26.6909 32.429,25.8629 C32.521,25.3559 32.468,25.1569 32.148,24.8149 C31.711,24.3459 31.427,24.3159 30.785,24.6709" id="Fill-14" fill="#DF6067"></path>
                        <path d="M59.8709,25.0596 C59.6219,25.1206 59.2609,25.3726 59.0589,25.6256 C58.7629,25.9986 58.7179,26.2006 58.8139,26.7256 C58.8799,27.0796 59.0539,27.4586 59.2029,27.5726 C59.6089,27.8796 60.4699,27.8186 60.8599,27.4556 C61.2479,27.0926 61.6529,26.0516 61.5369,25.7106 C61.4979,25.5966 61.5869,25.4186 61.7389,25.3046 C61.9819,25.1216 61.9749,25.1036 61.6709,25.1186 C61.4799,25.1286 61.1129,25.0956 60.8259,25.0426 C60.5379,24.9906 60.1249,24.9976 59.8709,25.0596" id="Fill-16" fill="#DF6067"></path>
                        <path d="M23.887,31.1255 C23.348,31.3385 22.873,32.1515 22.873,32.8615 C22.873,33.7405 24.624,33.9435 25.066,33.1155 C25.662,31.9995 24.906,30.7235 23.887,31.1255" id="Fill-18" fill="#DF6067"></path>
                        <path d="M65.847,32.6182 C65.543,32.8602 65.306,33.1952 65.306,33.3862 C65.306,33.5722 65.192,33.7652 65.053,33.8172 C64.851,33.8902 64.906,34.0452 65.323,34.5692 C65.766,35.1272 65.946,35.2282 66.489,35.2282 C67.673,35.2282 68.502,33.8442 67.978,32.7432 C67.655,32.0622 66.624,32.0012 65.847,32.6182" id="Fill-20" fill="#DF6067"></path>
                        <path d="M21.098,42.5654 C21.493,42.9614 21.385,43.3204 20.659,44.0294 C19.898,44.7714 19.33,44.8724 18.816,44.3574 C18.477,44.0194 18.368,43.2514 18.61,42.9204 C19.032,42.3454 20.647,42.1154 21.098,42.5654 M18.816,41.1364 C18.679,41.2144 18.359,41.3744 18.122,41.4844 C16.557,42.2094 16.753,44.9254 18.427,45.7114 C19.306,46.1254 19.845,46.1434 20.523,45.7844 C20.929,45.5684 21.029,45.5644 21.106,45.7604 C21.225,46.0674 20.737,47.5184 20.286,48.1954 C19.869,48.8204 18.936,49.3334 18.444,49.2074 C18.221,49.1504 18.04,49.2524 17.852,49.5394 C17.592,49.9364 17.598,49.9694 17.979,50.3764 C18.377,50.7984 19.209,50.9364 19.406,50.6124 C19.463,50.5194 19.661,50.4434 19.847,50.4434 C20.35,50.4434 21.634,49.0404 22.104,47.9754 C22.583,46.8934 23.108,42.8164 22.839,42.2784 C22.754,42.1074 22.341,41.7534 21.901,41.4744 C21.251,41.0634 20.937,40.9774 20.092,40.9844 C19.534,40.9894 18.954,41.0584 18.816,41.1364" id="Fill-22" fill="#DF6067"></path>
                        <path d="M67.4359,42.6543 C66.4389,42.9973 66.2319,43.2583 66.4699,43.8833 C66.6779,44.4323 67.0139,44.4733 68.2479,44.1023 C69.1769,43.8223 69.8709,43.9243 69.8709,44.3413 C69.8709,44.7593 69.7349,44.8863 68.2309,45.8873 C66.7429,46.8773 66.4779,47.2883 66.9969,47.8053 C67.3099,48.1193 67.3349,48.1203 67.9939,47.8273 C68.7709,47.4813 69.7819,47.5843 69.9519,48.0263 C70.0159,48.1913 69.8659,48.5333 69.5659,48.9053 C69.1859,49.3773 68.8899,49.5523 68.2479,49.6873 C67.2839,49.8893 66.6589,50.2073 66.6589,50.4943 C66.6589,50.6043 66.8449,50.8713 67.0639,51.0773 L67.4699,51.4583 L68.5519,51.1063 C70.0729,50.6123 70.8129,50.0593 71.0909,49.2093 C71.3999,48.2623 71.1759,46.7873 70.6989,46.6323 C70.3659,46.5233 70.3659,46.5123 70.6989,45.9883 C70.8849,45.6963 71.0859,45.0673 71.1469,44.5933 C71.2479,43.8003 71.2189,43.6903 70.7749,43.1993 C70.5149,42.9123 70.1219,42.6433 69.9209,42.6163 C69.7179,42.5893 69.4959,42.5113 69.4309,42.4473 C69.2369,42.2533 68.3319,42.3473 67.4359,42.6543" id="Fill-24" fill="#DF6067"></path>
                        <path d="M22.1121,58.2705 C21.9761,58.4795 21.7691,58.9215 21.6641,59.2255 C21.4841,59.7495 21.5051,59.8235 21.9431,60.2065 C22.2641,60.4875 22.5301,60.5845 22.7711,60.5105 C22.9741,60.4485 23.2711,60.3865 23.4651,60.3675 C23.6671,60.3465 23.8061,60.1985 23.8111,59.9955 C23.8161,59.8135 23.8841,59.4375 23.9591,59.1835 C24.1661,58.4855 23.7011,57.8815 22.9571,57.8815 C22.5351,57.8815 22.2931,57.9935 22.1121,58.2705" id="Fill-26" fill="#DF6067"></path>
                        <path d="M64.951,58.2685 C64.461,58.6715 64.096,59.4315 64.195,59.8425 C64.247,60.0625 64.303,60.3105 64.315,60.3835 C64.351,60.5875 65.306,60.9245 65.847,60.9245 C66.118,60.9245 66.527,60.8015 66.76,60.6505 C67.351,60.2645 67.351,59.0655 66.76,58.4735 C66.304,58.0165 65.383,57.9125 64.951,58.2685" id="Fill-28" fill="#DF6067"></path>
                        <path d="M44.8504,71.7363 C44.8504,72.2593 44.7554,72.4773 44.4104,72.7463 C43.8864,73.1553 43.5454,73.1813 43.1084,72.8503 C42.8854,72.6803 42.8184,72.4883 42.8904,72.2173 C43.0154,71.7423 43.9374,71.0683 44.4614,71.0683 C44.7964,71.0683 44.8504,71.1613 44.8504,71.7363 M42.6014,66.0743 C42.3654,66.1963 41.9864,66.4653 41.7814,66.6563 C41.5794,66.8443 41.3544,67.0103 41.3004,67.0103 C41.0144,67.0103 40.5934,68.1603 40.5064,69.1743 C40.2994,71.5913 40.9184,73.3683 42.2294,74.1263 C43.0244,74.5853 44.2864,74.5273 45.0534,73.9983 C45.4084,73.7523 45.6954,73.4773 45.6954,73.3833 C45.6954,73.2903 45.8174,73.0803 45.9704,72.9113 C46.3094,72.5353 46.1824,71.4063 45.7114,70.6293 C45.3334,70.0033 44.2044,69.5713 43.6334,69.8343 C42.0274,70.5713 41.9734,70.5853 41.8724,70.2733 C41.6604,69.6143 41.6534,69.5473 41.8074,69.5473 C41.9034,69.5473 41.9764,69.3943 41.9764,69.1913 C41.9764,68.6383 42.2294,68.3173 43.2274,67.6033 C43.8864,67.1323 44.1744,66.8133 44.1744,66.5543 C44.1744,66.3513 44.1124,66.1483 44.0384,66.1083 C43.6334,65.8853 42.9974,65.8703 42.6014,66.0743" id="Fill-30" fill="#DF6067"></path>
                        <path d="M30.7342,66.207 C30.0712,66.586 29.8972,66.876 29.9252,67.552 C29.9602,68.37 30.3112,68.687 31.1902,68.695 C31.7312,68.7 31.8852,68.616 32.1662,68.16 C32.6232,67.417 32.5992,66.982 32.0692,66.453 C31.5842,65.967 31.2582,65.907 30.7342,66.207" id="Fill-32" fill="#DF6067"></path>
                        <path d="M57.6644,66.79 C57.3244,66.84 57.0964,67.045 56.8544,67.518 C56.4674,68.278 56.4294,68.735 56.7124,69.26 C57.0314,69.851 57.3174,70.054 57.8334,70.054 C58.5914,70.054 59.2484,69.242 59.3534,68.178 C59.4294,67.399 59.3934,67.263 59.0344,66.99 C58.6264,66.68 58.5264,66.666 57.6644,66.79" id="Fill-34" fill="#DF6067"></path>
                        <path d="M79.9119,45.5068 C79.7639,45.6998 79.7249,46.0568 79.7939,46.5978 C79.8599,47.1208 79.8189,47.4878 79.6759,47.6538 C79.5369,47.8148 79.4959,48.1528 79.5659,48.5748 C79.6269,48.9468 79.6039,49.4308 79.5149,49.6658 C79.4059,49.9528 79.4089,50.1238 79.5229,50.1978 C79.6159,50.2578 79.6459,50.4348 79.5909,50.5868 C79.5349,50.7418 79.4139,51.2038 79.3209,51.6268 C79.2269,52.0498 79.0769,52.6888 78.9829,53.0638 C78.8899,53.4358 78.7939,54.0178 78.7709,54.3578 C78.7479,54.6948 78.6299,55.0968 78.5089,55.2438 C78.3859,55.3968 78.3379,55.5148 78.3989,55.5148 C78.4589,55.5148 78.3869,55.7518 78.2389,56.0388 C78.0899,56.3258 78.0099,56.6738 78.0609,56.8088 C78.1109,56.9398 78.0359,57.1718 77.9009,57.3068 C77.7609,57.4468 77.6469,57.7798 77.6469,58.0508 C77.6469,58.3208 77.5669,58.5908 77.4699,58.6518 C77.3759,58.7088 77.3409,58.9128 77.3959,59.0818 C77.5439,59.5388 77.3069,60.5868 77.0559,60.5868 C76.9449,60.5868 76.7519,60.7978 76.6329,61.0518 C76.5119,61.3068 76.2709,61.7958 76.0999,62.1338 C75.9289,62.4718 75.7869,62.9028 75.7869,63.0888 C75.7869,63.2748 75.6729,63.5188 75.5339,63.6298 C75.3909,63.7438 75.2799,64.0018 75.2799,64.2218 C75.2799,64.4348 75.0139,64.9988 74.6879,65.4728 C74.3639,65.9448 74.0969,66.3798 74.0969,66.4368 C74.0969,66.4908 73.8259,66.8668 73.5049,67.2558 C73.1849,67.6448 72.9129,68.1418 72.9129,68.3378 C72.9129,68.5408 72.7639,68.7948 72.5759,68.9128 C72.3899,69.0288 72.2369,69.1888 72.2369,69.2678 C72.2369,69.3458 71.9669,69.6818 71.6449,70.0028 C71.3239,70.3238 71.0539,70.7028 71.0539,70.8308 C71.0539,70.9618 70.9439,71.0688 70.8089,71.0688 C70.6739,71.0688 70.1239,71.5048 69.5829,72.0428 C68.1759,73.4418 67.2669,74.1308 65.8469,74.8748 C65.1539,75.2378 64.5579,75.6288 64.5119,75.7508 C64.4649,75.8708 64.1479,76.1008 63.8099,76.2578 C63.4719,76.4158 63.1539,76.5918 63.1079,76.6478 C62.8789,76.9198 61.6879,77.4918 61.3499,77.4918 C61.1469,77.4918 60.8699,77.6468 60.7419,77.8298 C60.6009,78.0308 60.3189,78.1688 60.0479,78.1688 C59.7949,78.1688 59.5659,78.2248 59.5329,78.2948 C59.4999,78.3638 58.8649,78.6108 58.1379,78.8358 C57.3939,79.0678 56.7199,79.3858 56.6169,79.5548 C56.5129,79.7238 56.3479,79.8598 56.2449,79.8598 C56.1429,79.8598 55.7209,80.0048 55.3149,80.1808 C54.9089,80.3558 54.1479,80.5438 53.6409,80.5948 C52.5419,80.7038 51.8219,80.8438 51.3589,81.0338 C50.3709,81.4428 48.6369,81.7638 47.0649,81.8298 C46.0839,81.8708 45.1879,81.9878 45.0609,82.0908 C44.8929,82.2288 44.7319,82.2298 44.4449,82.0978 C44.0619,81.9218 43.3629,81.9298 40.1339,82.1478 C39.2039,82.2098 38.5029,82.1698 38.1049,82.0308 C37.7669,81.9138 37.4439,81.8168 37.3779,81.8118 C37.3139,81.8078 37.0989,81.6658 36.9129,81.5078 C36.7269,81.3488 36.5189,81.2118 36.4649,81.2118 C36.4109,81.2118 36.1609,81.0688 35.9239,80.9018 C35.4849,80.5918 33.5499,79.8658 33.1519,79.8608 C33.0289,79.8608 32.7459,79.7098 32.5089,79.5218 C32.2719,79.3318 31.9269,79.1828 31.7229,79.1828 C31.5199,79.1828 31.3289,79.1008 31.2919,78.9968 C31.2549,78.8948 30.8699,78.7958 30.4299,78.7778 C29.9899,78.7588 29.5859,78.6908 29.5249,78.6248 C29.4649,78.5608 29.1789,78.5068 28.8909,78.5068 C28.6039,78.5068 28.1769,78.3538 27.9449,78.1688 C27.7049,77.9778 27.3279,77.8298 27.0739,77.8298 C26.8209,77.8298 26.6029,77.7788 26.5729,77.7118 C26.5029,77.5578 25.0369,76.8168 24.7999,76.8168 C24.7039,76.8168 24.4409,76.5968 24.1919,76.3088 C23.9429,76.0218 23.5979,75.8018 23.3969,75.8018 C23.1939,75.8018 23.0419,75.7358 23.0419,75.6498 C23.0419,75.5648 22.7629,75.3858 22.4079,75.2438 C22.0429,75.0978 21.3439,74.5168 20.7599,73.8738 C20.2059,73.2658 19.6489,72.7588 19.5339,72.7588 C19.4159,72.7588 18.9509,72.3868 18.4769,71.9128 C18.0039,71.4408 17.5729,71.0688 17.4969,71.0688 C17.4219,71.0688 17.1779,70.7728 16.9479,70.4008 C16.7169,70.0278 16.4399,69.7288 16.3219,69.7248 C16.2089,69.7198 16.1109,69.5978 16.1109,69.4618 C16.1109,69.1568 15.7389,68.6708 14.8929,67.8718 C14.5379,67.5358 14.2509,67.1888 14.2509,67.0958 C14.2509,67.0028 13.9879,66.6478 13.6679,66.3098 C13.3489,65.9718 13.1299,65.6508 13.1859,65.5998 C13.2429,65.5468 13.1649,65.3198 13.0089,65.0838 C12.8519,64.8468 12.7299,64.5198 12.7299,64.3398 C12.7299,64.1648 12.4729,63.6808 12.1629,63.2748 C11.4699,62.3628 11.1709,61.7868 10.7959,60.6378 C10.6419,60.1638 10.4159,59.6918 10.2949,59.5888 C10.1749,59.4868 10.0719,59.0568 10.0669,58.6338 C10.0619,58.1778 9.9489,57.7408 9.7879,57.5608 C9.6339,57.3878 9.4399,56.6818 9.3359,55.9208 C9.0319,53.6718 8.8799,52.7418 8.7479,52.3028 C8.6789,52.0718 8.5989,51.5418 8.5709,51.1368 C8.5429,50.7308 8.4669,50.2698 8.4019,50.1218 C8.2869,49.8578 8.1409,48.2288 8.1599,47.4008 C8.2159,44.8308 8.4159,43.0708 8.6919,42.7348 C8.8009,42.6018 8.7599,42.3288 8.5709,41.9398 C8.2929,41.3688 8.2989,41.3148 8.7309,40.3848 C8.9749,39.8608 9.1799,39.2628 9.1799,39.0738 C9.1799,38.8888 9.2849,38.6028 9.4079,38.4578 C9.5329,38.3088 9.7679,37.7308 9.9289,37.1728 C10.3929,35.5668 10.5579,35.1758 10.9649,34.7208 C11.1689,34.4938 11.3819,33.9938 11.4279,33.6388 C11.4739,33.2838 11.5829,32.9328 11.6639,32.8788 C11.7469,32.8228 11.9939,32.3548 12.2049,31.8468 C12.4179,31.3398 12.7299,30.7258 12.8919,30.4948 C13.3919,29.7848 14.0819,28.3238 14.0819,27.9758 C14.0819,27.8068 14.1979,27.5588 14.3269,27.4518 C14.4599,27.3418 14.6189,27.1058 14.6739,26.9358 C14.7299,26.7638 15.0369,26.3608 15.3579,26.0398 C15.7469,25.6518 15.9419,25.2968 15.9419,24.9748 C15.9419,24.6168 16.0939,24.3958 16.5339,24.1128 C16.8539,23.9068 17.1249,23.6548 17.1249,23.5638 C17.1249,23.2988 19.7959,20.6898 20.0669,20.6898 C20.2059,20.6898 20.3659,20.5378 20.4219,20.3518 C20.4769,20.1658 20.5769,20.0138 20.6409,20.0138 C20.7069,20.0138 21.1149,19.6908 21.5549,19.2908 C22.5859,18.3538 23.0679,17.9848 23.2619,17.9848 C23.3579,17.9848 23.6399,17.7648 23.9119,17.4778 C24.1859,17.1898 24.4679,16.9698 24.5629,16.9698 C24.6649,16.9698 24.7329,16.9028 24.7329,16.8008 C24.7329,16.7088 24.9439,16.5398 25.1979,16.4288 C25.4509,16.3188 25.9119,15.9728 26.2119,15.6688 C26.5139,15.3618 27.0659,14.9778 27.4369,14.8148 C27.8089,14.6528 28.1139,14.4618 28.1139,14.3918 C28.1139,14.3218 28.2489,14.2658 28.4179,14.2658 C28.5919,14.2658 28.8739,14.1238 29.0779,13.9358 C29.2689,13.7568 29.8039,13.5178 30.2439,13.4138 C31.2579,13.1738 32.0019,12.8758 32.0019,12.7098 C32.0019,12.6388 32.1959,12.5748 32.4159,12.5748 C32.6359,12.5748 32.8819,12.4878 32.9399,12.3888 C33.0049,12.2798 33.2869,12.2488 33.6249,12.3128 C33.9799,12.3808 34.4099,12.3288 34.7489,12.1778 C35.0569,12.0408 35.6699,11.8568 36.1439,11.7598 C38.4429,11.2918 39.0469,11.2348 40.0319,11.3958 C41.5539,11.6428 41.7969,11.6148 41.9609,11.1718 C42.0459,10.9438 42.3079,10.5548 42.5589,10.2838 C42.9309,9.8848 43.1509,9.8008 43.8439,9.7938 C44.3009,9.7898 44.6809,9.7318 44.6809,9.6668 C44.6809,9.4908 45.4249,9.4978 45.6109,9.6748 C45.7039,9.7638 46.0839,9.8858 46.4559,9.9458 C46.8349,10.0078 47.5039,10.1268 47.9779,10.2168 C48.4509,10.3068 49.0459,10.4178 49.3299,10.4698 C49.6179,10.5228 50.0499,10.6328 50.3279,10.7238 C50.5979,10.8128 51.0339,10.8838 51.2999,10.8838 C51.5699,10.8838 51.7819,10.9588 51.7819,11.0528 C51.7819,11.1468 52.2379,11.2228 52.7959,11.2228 C53.7249,11.2228 55.2949,11.5168 55.4999,11.7298 C55.7369,11.9748 56.5149,12.2638 57.0559,12.3078 C57.3769,12.3328 57.9029,12.4828 58.2049,12.6338 C58.5049,12.7838 59.0259,12.9128 59.3299,12.9128 C59.6339,12.9128 59.8959,12.9908 59.8959,13.0818 C59.8959,13.1748 60.0479,13.2508 60.2339,13.2508 C60.4199,13.2508 60.7019,13.4028 60.8599,13.5898 C61.0179,13.7758 61.2269,13.9268 61.3249,13.9268 C61.4219,13.9268 61.5979,14.0798 61.7139,14.2658 C61.8299,14.4518 62.0769,14.6038 62.2629,14.6038 C62.4489,14.6038 62.6009,14.6648 62.6009,14.7388 C62.6009,14.8938 63.8689,15.6178 64.1399,15.6178 C64.2299,15.6178 64.4099,15.7138 64.5279,15.8258 C65.0789,16.3458 65.6099,16.6948 66.8949,17.3798 C67.2559,17.5718 67.9029,18.0948 68.3239,18.5338 C68.7449,18.9738 69.1809,19.3378 69.2869,19.3378 C69.3969,19.3378 69.6109,19.4808 69.7779,19.6668 C69.9469,19.8548 70.2249,20.0178 70.4289,20.0478 C70.6369,20.0768 70.9229,20.3598 71.1209,20.7318 C71.3109,21.0868 71.5599,21.3658 71.6879,21.3658 C71.8169,21.3658 72.0399,21.5858 72.2039,21.8728 C72.3659,22.1598 72.5789,22.3808 72.6939,22.3808 C72.8089,22.3808 72.9359,22.5068 72.9899,22.6758 C73.0409,22.8398 73.3019,23.0968 73.5729,23.2508 C73.8839,23.4278 74.1059,23.7238 74.1819,24.0618 C74.2449,24.3498 74.4089,24.6378 74.5369,24.6878 C74.6719,24.7408 74.7729,24.8818 74.7729,25.0178 C74.7729,25.1478 75.0019,25.6848 75.2799,26.2098 C75.5579,26.7338 75.7869,27.2718 75.7869,27.4008 C75.7869,27.6108 75.8919,27.7728 76.4019,28.3478 C76.4989,28.4568 76.5479,28.6528 76.5079,28.7708 C76.4229,29.0238 76.9669,30.1568 77.1739,30.1568 C77.2459,30.1568 77.3089,30.2748 77.3089,30.4098 C77.3089,30.5518 77.4659,31.1198 77.6639,31.6948 C77.8849,32.3378 77.9869,32.9628 77.9339,33.3518 C77.8819,33.7408 77.9389,34.0988 78.0869,34.2988 C78.2139,34.4718 78.3079,34.8228 78.2889,35.0588 C78.2709,35.2968 78.4339,35.7858 78.6439,36.1248 C78.8809,36.5058 79.0569,37.0968 79.0929,37.6368 C79.1249,38.1208 79.1899,39.0908 79.2359,39.7678 C79.2819,40.4438 79.3629,41.0528 79.4129,41.1028 C79.4659,41.1558 79.5069,41.3908 79.5069,41.6448 C79.5069,41.8978 79.5949,42.1798 79.7089,42.2948 C80.0972596,42.6828 80.2469,45.0678 79.9119,45.5068 M84.2399,46.3018 C84.3149,46.2088 84.3449,45.2198 84.3079,44.1038 C84.2709,42.9878 84.2399,41.9608 84.2399,41.8208 C84.2399,41.6828 84.2439,40.9008 84.2479,40.0888 C84.2529,39.2778 84.1959,38.5138 84.1219,38.3978 C84.0449,38.2778 83.9709,37.9668 83.9499,37.6798 C83.8629,36.4958 83.8279,36.3208 83.6479,36.1408 C83.5359,36.0278 83.4339,35.6168 83.4199,35.2118 C83.4059,34.8058 83.3199,34.4098 83.2259,34.3158 C83.1319,34.2218 83.0569,34.0108 83.0569,33.8418 C83.0569,33.6728 82.9939,33.4098 82.9139,33.2508 C82.6469,32.7098 82.2109,31.2228 82.2109,30.8498 C82.2109,30.6468 82.1389,30.4948 82.0419,30.4948 C81.9499,30.4948 81.8729,30.1908 81.8729,29.8188 C81.8729,29.4468 81.7969,29.1428 81.7039,29.1428 C81.6109,29.1428 81.5359,28.9898 81.5359,28.8038 C81.5359,28.6178 81.4739,28.4658 81.3999,28.4658 C81.2389,28.4658 80.8999,27.2318 80.8759,26.5558 C80.8669,26.2848 80.7469,25.8608 80.6089,25.6098 C80.2559,24.9668 80.0489,24.5228 79.9399,24.1728 C79.8879,24.0048 79.6929,23.8288 79.5069,23.7798 C79.1769,23.6948 78.9729,23.2418 79.0269,22.7178 C79.0699,22.3128 78.8019,21.3658 78.6439,21.3658 C78.5599,21.3658 78.3999,21.1628 78.2839,20.9088 C78.0839,20.4718 77.9179,20.2498 77.0619,19.2868 C76.8759,19.0758 76.5619,18.6108 76.3789,18.2718 C76.1959,17.9338 75.9589,17.6468 75.8639,17.6468 C75.7659,17.6468 75.5789,17.4948 75.4489,17.3088 C75.3189,17.1228 75.1209,16.9698 75.0099,16.9698 C74.7219,16.9698 73.8149,15.9898 73.5869,15.4318 C73.4759,15.1618 73.2809,14.9418 73.1499,14.9418 C73.0149,14.9418 72.9129,14.8768 72.9129,14.7898 C72.9129,14.7068 72.5409,14.4668 72.1019,14.2658 C71.6289,14.0488 71.1779,13.6958 71.0199,13.4208 C70.8699,13.1568 70.4789,12.8488 70.1409,12.7268 C69.8029,12.6048 69.5319,12.4468 69.5319,12.3718 C69.5319,12.2968 69.4389,12.2328 69.3209,12.2288 C69.2049,12.2238 68.9589,11.9838 68.7769,11.6958 C68.4109,11.1188 66.3199,9.8848 65.6949,9.8758 C65.4749,9.8728 65.3059,9.8108 65.3059,9.7348 C65.3059,9.6608 64.8239,9.4998 64.2489,9.3798 C63.6749,9.2598 62.9379,9.0138 62.6349,8.8388 C62.3299,8.6638 61.8579,8.5178 61.5949,8.5178 C61.3249,8.5178 61.0839,8.4318 61.0459,8.3228 C61.0079,8.2148 60.6829,8.1178 60.3099,8.1038 C59.9379,8.0898 59.3799,7.9578 59.0509,7.8058 C58.1379,7.3868 57.8359,7.3038 56.9379,7.2238 C56.4759,7.1828 55.6699,6.9518 55.1619,6.7158 C54.3279,6.3278 53.7759,6.1918 51.7819,5.8828 C51.2299,5.7978 50.7329,5.6268 50.0739,5.2978 C49.9169,5.2188 48.6119,5.1498 47.1919,5.1448 C45.7709,5.1398 44.2789,5.1168 43.8949,5.0938 C43.4889,5.0698 43.0439,4.9168 42.8379,4.7308 C42.5339,4.4558 42.4829,4.4478 42.4829,4.6798 C42.4829,5.2358 41.3339,5.6868 39.3559,5.9048 C38.8829,5.9578 38.2129,6.0358 37.8339,6.0828 C37.4659,6.1298 36.7359,6.1958 36.2279,6.2288 C35.0789,6.3048 34.0489,6.5668 33.6079,6.8958 C33.4139,7.0408 32.9069,7.1518 32.4159,7.1568 C31.9429,7.1618 31.4909,7.2328 31.4019,7.3178 C31.3139,7.4008 30.8189,7.6038 30.3109,7.7648 C29.8039,7.9268 29.3199,8.1608 29.2459,8.2808 C29.1709,8.4028 28.8149,8.5828 28.4429,8.6868 C28.0719,8.7898 27.7759,8.9438 27.7759,9.0328 C27.7759,9.1218 27.6229,9.1938 27.4369,9.1938 C27.2509,9.1938 27.0989,9.2618 27.0989,9.3458 C27.0989,9.4328 26.9729,9.5418 26.8039,9.5998 C26.6409,9.6548 26.2039,9.8838 25.8309,10.1068 C25.4589,10.3298 25.0219,10.5198 24.8589,10.5288 C24.6899,10.5388 24.5629,10.6188 24.5629,10.7148 C24.5629,10.8058 24.4449,10.8838 24.3099,10.8838 C24.0879,10.8838 22.9569,11.6238 22.1799,12.2778 C22.0359,12.3978 21.7059,12.6018 21.4189,12.7468 C20.8609,13.0278 18.4769,15.3818 18.4769,15.6518 C18.4769,15.8378 17.4029,16.9698 17.2259,16.9698 C16.9789,16.9698 15.0969,19.0328 15.0969,19.3028 C15.0969,19.3798 14.8769,19.6508 14.5889,19.9288 C14.2679,20.2388 14.0819,20.5928 14.0819,20.8928 C14.0819,21.1968 13.9919,21.3658 13.8289,21.3658 C13.5809,21.3658 13.3689,21.6868 12.6909,23.0898 C12.4779,23.5298 12.1369,23.9648 11.9269,24.0618 C11.6829,24.1758 11.5459,24.3918 11.5459,24.6628 C11.5459,24.8988 11.4789,25.0848 11.3939,25.0848 C11.2019,25.0848 10.3629,26.4878 10.3629,26.8098 C10.3629,26.9438 10.1939,27.2038 9.9739,27.4088 C9.4669,27.8818 8.9159,28.6908 8.9759,28.8718 C9.0049,28.9558 8.7579,29.5478 8.4269,30.1908 C8.0969,30.8328 7.8269,31.5428 7.8269,31.7718 C7.8269,31.9908 7.6609,32.3518 7.4719,32.5408 C7.2689,32.7428 7.1569,32.9318 7.2099,32.9798 C7.2629,33.0278 7.2049,33.1658 7.0749,33.3008 C6.9489,33.4318 6.8849,33.6898 6.9309,33.8758 C6.9819,34.0788 6.9339,34.2148 6.8129,34.2148 C6.4909,34.2148 6.1169,35.3638 6.2339,35.9888 C6.3169,36.4288 6.2669,36.6128 6.0009,36.8568 C5.6749,37.1548 5.3419,38.2548 5.3419,39.0318 C5.3419,39.2208 5.2109,39.8948 5.0459,40.5538 C4.8809,41.2128 4.7169,42.1108 4.6739,42.5818 C4.6319,43.0558 4.5569,43.5388 4.5049,43.6818 C4.1209,44.7298 4.1139,52.4718 4.4959,52.4718 C4.5819,52.4718 4.6149,52.7508 4.5729,53.1068 C4.5279,53.4778 4.5979,53.9428 4.7419,54.2308 C4.8769,54.4998 4.9829,55.1348 4.9779,55.6418 C4.9739,56.1498 5.0799,56.8288 5.2149,57.1548 C5.3479,57.4768 5.4599,57.8618 5.4599,57.9998 C5.4599,58.2708 5.9649,59.4418 6.1369,59.5688 C6.2029,59.6178 6.3099,59.8428 6.3819,60.0788 C6.4529,60.3158 6.7959,60.9158 7.1589,61.4408 C7.5229,61.9648 7.8589,62.5758 7.9199,62.8268 C7.9819,63.0798 8.1329,63.3598 8.2659,63.4688 C8.3909,63.5708 8.5029,63.8158 8.5029,63.9848 C8.5029,64.1548 8.6979,64.4768 8.9169,64.6688 C9.1399,64.8638 9.3789,65.2528 9.4329,65.5058 C9.4879,65.7598 9.6329,66.0578 9.7459,66.1488 C9.8629,66.2418 10.1339,66.6978 10.3539,67.1718 C10.5749,67.6448 10.8119,68.0258 10.8869,68.0258 C10.9639,68.0258 10.9849,68.1268 10.9339,68.2618 C10.8069,68.6058 11.4449,69.7758 11.9349,70.0978 C12.1719,70.2528 12.4119,70.5458 12.4809,70.7638 C12.8049,71.7868 14.2169,73.5568 15.4339,74.4648 C15.7629,74.7088 16.3389,75.1988 16.7279,75.5658 C17.1169,75.9308 17.7159,76.4468 18.0719,76.7238 C18.8159,77.3028 19.4629,77.9518 19.8149,78.4728 C19.9529,78.6758 20.1549,78.8448 20.2609,78.8448 C20.3669,78.8448 20.9789,79.3078 21.6049,79.8598 C22.2299,80.4108 22.8969,80.8728 23.0669,80.8728 C23.2369,80.8728 23.3799,80.9508 23.3799,81.0428 C23.3799,81.1358 23.5319,81.2118 23.7179,81.2118 C23.9039,81.2118 24.0569,81.2728 24.0569,81.3468 C24.0569,81.4228 24.4029,81.6238 24.8429,81.8038 C25.2819,81.9828 25.7109,82.2058 25.8139,82.3108 C25.9179,82.4138 26.3389,82.6128 26.7609,82.7588 C27.1839,82.9038 27.8599,83.1448 28.2829,83.2998 C28.6989,83.4518 29.4069,83.6198 29.8469,83.6708 C30.2859,83.7228 30.7609,83.8748 30.8949,84.0098 C31.0359,84.1508 31.4529,84.2548 31.8749,84.2548 C32.2979,84.2548 32.7829,84.3788 33.0159,84.5478 C33.4529,84.8618 33.7429,84.9148 35.0959,84.9248 C35.5519,84.9278 36.0489,84.9988 36.2029,85.0828 C36.3539,85.1648 36.7519,85.2698 37.0739,85.3118 C37.3949,85.3528 37.7809,85.4338 37.9189,85.4878 C38.0589,85.5448 38.8149,85.6768 39.6099,85.7838 C40.4039,85.8918 41.1519,86.0658 41.2829,86.1728 C41.4429,86.3048 42.2469,86.3548 43.7679,86.3248 C45.0699,86.3008 46.0609,86.3548 46.1209,86.4518 C46.2109,86.5978 47.0119,86.3508 47.2169,86.1138 C47.3789,85.9268 49.2289,85.5648 49.5669,85.6528 C49.7699,85.7068 49.8909,85.6638 49.8709,85.5478 C49.8499,85.4288 50.1249,85.3398 50.5809,85.3198 C50.9869,85.3008 51.3789,85.2008 51.4429,85.0998 C51.5089,84.9968 52.3139,84.8158 53.2439,84.6948 C54.4779,84.5328 55.2209,84.3318 56.0329,83.9418 C56.6419,83.6498 57.2249,83.4088 57.3269,83.4088 C57.5439,83.4088 59.1519,82.9258 59.7269,82.6888 C59.9639,82.5898 60.3359,82.4428 60.5729,82.3528 C60.8089,82.2628 61.1249,82.1248 61.2909,82.0398 C61.4599,81.9528 61.7029,81.8878 61.8569,81.8878 C62.0069,81.8878 62.4399,81.7258 62.8289,81.5248 C63.2179,81.3228 63.6629,81.0968 63.8269,81.0178 C63.9819,80.9418 64.2749,80.8728 64.4439,80.8728 C64.9169,80.8728 66.3199,80.0388 66.3199,79.7578 C66.3199,79.6318 66.4389,79.5218 66.5739,79.5218 C66.7089,79.5218 66.8279,79.4458 66.8279,79.3608 C66.8279,79.2698 66.9959,79.1498 67.2159,79.0828 C67.9599,78.8608 69.2899,78.1828 69.6509,77.8428 C69.8529,77.6518 70.0989,77.4918 70.1919,77.4918 C70.2849,77.4918 70.4059,77.3398 70.4619,77.1538 C70.5179,76.9678 70.6739,76.8168 70.8089,76.8168 C70.9439,76.8168 71.0539,76.7478 71.0539,76.6638 C71.0539,76.5818 71.3839,76.3998 71.7719,76.2668 C72.2959,76.0878 72.5069,75.9208 72.5499,75.6498 C72.5819,75.4478 72.7949,75.2038 73.0149,75.1168 C73.2349,75.0298 73.4209,74.8708 73.4209,74.7708 C73.4209,74.6688 73.7219,74.2638 74.0859,73.8738 C75.5129,72.3538 75.7429,72.0628 76.0389,71.4058 C76.2079,71.0338 76.4019,70.7308 76.4719,70.7308 C76.5419,70.7308 76.6969,70.4858 76.8189,70.1808 C76.9399,69.8758 77.1369,69.5188 77.2579,69.3778 C77.3819,69.2358 77.6919,68.8878 77.9679,68.5828 C78.2349,68.2888 78.6779,67.5178 78.9399,66.8928 C79.2029,66.2668 79.6729,65.3228 79.9719,64.8208 C80.2739,64.3148 80.5209,63.8058 80.5209,63.6888 C80.5209,63.5748 80.6109,63.2578 80.7149,63.0038 C80.8199,62.7508 80.9349,62.4518 80.9649,62.3618 C81.7219,60.0458 82.1279,58.8638 82.3309,58.3888 C82.4679,58.0688 82.6109,57.6818 82.6419,57.5438 C82.6749,57.4038 82.7859,56.9858 82.8879,56.6138 C83.1419,55.6848 83.5579,53.3798 83.6349,52.4718 C83.6709,52.0498 83.7389,51.5988 83.7889,51.4578 C83.8949,51.1608 84.0379,50.1728 84.1359,49.0738 C84.1749,48.6348 84.2439,48.2148 84.2909,48.1358 C84.3379,48.0558 84.3149,47.6538 84.2399,47.2318 C84.1649,46.8088 84.1649,46.3958 84.2399,46.3018" id="Fill-36" fill="#FFFFFF"></path>
                    </g>
                </g>
            </g>
        </g>
    </g>
</svg>