<?xml version="1.0" encoding="UTF-8"?>
<svg width="186px" height="38px" viewBox="0 0 186 38" version="1.1" xmlns="http://www.w3.org/2000/svg" xmlns:xlink="http://www.w3.org/1999/xlink">
    <!-- Generator: Sketch 61 (89581) - https://sketch.com -->
    <title>img-grass2</title>
    <desc>Created with Sketch.</desc>
    <g id="Page-1" stroke="none" stroke-width="1" fill="none" fill-rule="evenodd">
        <g id="200318_kodomonooka-ver2" transform="translate(-480.000000, -5054.000000)" fill="#7ED6DC">
            <g id="img-grass2" transform="translate(480.000000, 5054.000000)">
                <path d="M88.92481,31.11186 C88.86371,31.06116 88.77401,30.69586 88.72721,30.30456 C88.67911,29.90806 88.48541,29.23336 88.29431,28.78876 C88.10581,28.35196 87.84061,27.50046 87.70931,26.91546 C86.93191,23.40936 86.76811,23.10776 85.29391,22.43176 C84.59451,22.11066 83.18791,22.33816 82.71731,22.84776 C82.28051,23.32096 82.43781,25.43216 82.98641,26.45266 C83.22301,26.89466 83.42451,27.35356 83.42841,27.46666 C83.43231,27.58366 83.52071,27.66946 83.63251,27.66556 C83.74041,27.66036 83.83531,27.83456 83.84441,28.05036 C83.85351,28.26616 83.94841,28.43776 84.05631,28.43386 C84.16811,28.42996 84.25781,28.57426 84.26561,28.76926 C84.27341,28.96296 84.41251,29.32436 84.58281,29.59216 C84.74921,29.85476 85.12231,30.51386 85.40961,31.05336 C86.45611,33.01636 88.05641,33.37516 88.76621,31.80606 C88.91961,31.46546 88.98851,31.16516 88.92481,31.11186" id="Fill-1"></path>
                <path d="M166.29132,11.43792 C166.16262,11.31832 165.98972,10.11322 165.88572,8.60522 C165.59842,4.48942 165.40992,3.33502 164.92112,2.69022 C164.32832,1.90762 163.95522,1.66452 163.37542,1.68142 C162.39912,1.71132 162.08842,2.17152 161.98312,3.74712 C161.73872,7.35202 162.29122,13.10712 162.87882,13.08502 C162.96202,13.08242 163.04132,13.21502 163.04652,13.37232 C163.06342,13.77792 163.82652,14.18612 164.77292,14.29792 C165.46322,14.37982 165.65562,14.32002 166.08332,13.89232 C166.47852,13.49842 166.57732,13.20462 166.55002,12.51822 C166.53182,12.04762 166.41222,11.54972 166.29132,11.43792" id="Fill-3"></path>
                <path d="M184.71089,22.85738 C184.51979,22.35428 184.29879,21.94088 184.22339,21.94348 C184.14539,21.94738 183.88279,21.78618 183.61889,21.57428 C183.31599,21.32988 183.01829,21.24668 182.76479,21.33248 C182.55159,21.40658 182.04459,21.49628 181.63379,21.53268 C180.23629,21.66008 180.11799,21.96558 180.24149,25.12458 C180.32729,27.30338 180.45469,28.24328 180.83819,29.54328 C181.10729,30.45588 181.40369,31.22158 181.50249,31.25538 C181.60129,31.28918 181.83529,31.48808 182.02249,31.69738 C182.21359,31.91188 182.56069,32.14588 182.81939,32.23558 C183.45639,32.45788 184.82009,32.16018 184.80579,31.80398 C184.79929,31.64668 184.91109,31.47898 185.06579,31.41268 C185.38169,31.27878 185.27249,29.64468 184.92539,29.32358 C184.68099,29.09738 184.50159,26.61698 184.71349,26.38428 C184.78369,26.30758 184.84869,26.03458 184.85519,25.79928 C184.86169,25.55488 184.91109,25.00108 184.96439,24.56688 C185.02809,24.05208 184.93969,23.45798 184.71089,22.85738" id="Fill-5"></path>
                <path d="M80.1307,28.49028 C79.7992,28.07038 79.5145,27.50228 79.5002,27.22668 C79.4833,26.95238 79.3598,26.62478 79.2259,26.50128 C79.0413,26.33228 79.0374,26.21398 79.2064,26.03068 C79.4898,25.72518 79.4781,24.76058 79.1895,24.59938 C79.0829,24.53958 78.9802,24.26138 78.9698,24.00658 C78.9607,23.75048 78.8554,23.52948 78.7462,23.53338 C78.6279,23.53728 78.585,23.46448 78.6422,23.36178 C78.7917,23.10308 77.6841,22.28278 76.869,22.04358 C76.2476,21.86028 76.0188,21.88628 75.3831,22.20088 C74.4159,22.68058 74.1455,23.24218 74.3561,24.33418 C74.4445,24.79958 74.5797,25.56398 74.659,26.05148 C74.7383,26.54028 74.8787,27.01868 74.9762,27.12918 C75.0737,27.24098 75.2037,27.62188 75.27,27.99238 C75.5495,29.55238 75.764,30.02038 76.5622,30.79128 C78.1638,32.33958 79.6874,32.28758 80.3985,30.65998 C80.8691,29.58098 80.847,29.39638 80.1307,28.49028" id="Fill-8"></path>
                <path d="M176.48436,23.22931 C176.33616,22.86141 176.19576,22.37261 176.17886,22.16071 C176.11646,21.42101 175.39886,20.86331 174.59546,20.92701 C173.42026,21.02321 173.11736,21.09211 172.47256,21.41711 C171.98896,21.66281 171.86156,21.85781 171.80696,22.44931 C171.68346,23.77011 172.12026,30.11411 172.35036,30.32731 C172.46996,30.43781 172.58306,30.73941 172.59216,30.97601 C172.60126,31.21131 172.70266,31.46871 172.81056,31.52721 C172.91976,31.58701 173.02116,31.83271 173.03546,32.06801 C173.06666,32.62961 173.37736,32.98191 174.30166,33.49801 C174.88536,33.82431 175.19476,33.88151 175.73686,33.76061 C176.12686,33.67221 176.42456,33.52791 176.42066,33.42911 C176.41676,33.33421 176.55196,33.24711 176.70926,33.24061 C177.05116,33.22631 177.06806,31.65461 176.73266,31.07871 C176.62216,30.89021 176.48046,29.54601 176.41936,28.11471 C176.35696,26.68211 176.29716,25.25081 176.28546,24.95571 C176.27376,24.66191 176.34526,24.41361 176.44146,24.40971 C176.74696,24.39671 176.76386,23.92481 176.48436,23.22931" id="Fill-10"></path>
                <path d="M156.96525,13.61516 C156.85605,13.55276 156.75595,13.28496 156.74555,13.03016 C156.73515,12.77536 156.63505,12.50886 156.52715,12.45036 C156.41665,12.38926 156.32565,12.14226 156.32435,11.90826 C156.32305,11.14126 156.01625,8.78956 155.90445,8.68166 C155.84985,8.62966 155.88235,8.42686 155.97725,8.22666 C156.09295,7.98616 156.08385,7.83016 155.94995,7.75606 C155.83685,7.69366 155.78745,7.31016 155.83685,6.87596 C155.91095,6.22466 155.82775,5.99456 155.29735,5.37446 C154.81245,4.81156 154.45105,4.60226 153.71915,4.46446 C152.37235,4.21226 151.77955,4.39946 151.44285,5.18206 C151.28815,5.54216 151.21275,5.96856 151.27905,6.12196 C151.34275,6.27146 151.26475,6.52236 151.11265,6.65886 C150.89685,6.85386 150.87735,7.03196 151.03465,7.39856 C151.14775,7.67026 151.20235,7.94456 151.15555,8.02256 C151.11395,8.09536 151.15815,8.28776 151.25045,8.42166 C151.34795,8.56206 151.36615,8.92866 151.29205,9.22636 C151.21795,9.52406 151.23485,9.84516 151.32975,9.93226 C151.42595,10.02066 151.55335,10.48346 151.61575,10.97226 C151.67945,11.46106 151.84715,12.10846 151.99795,12.43086 C152.32945,13.14456 152.64535,14.01296 152.80005,14.63826 C153.30055,16.66236 155.53395,17.47096 156.90675,16.12546 C157.28505,15.75496 157.33055,13.82056 156.96525,13.61516" id="Fill-12"></path>
                <path d="M71.61596,30.88592 C71.50936,30.89112 71.30006,30.58432 71.15706,30.21642 C71.01536,29.84852 70.81516,29.54302 70.71896,29.54692 C70.41606,29.55862 70.14566,28.15332 70.01436,25.87962 C69.84016,22.88052 69.39296,22.23442 67.21286,21.82362 C66.65906,21.71962 66.45626,21.76902 66.20146,22.07062 C66.02856,22.27342 65.73216,22.50352 65.55276,22.57112 C65.17836,22.71152 64.80396,23.50972 64.82736,24.11812 C64.83646,24.33002 65.01716,24.73952 65.21996,25.00732 C65.66326,25.58972 66.10396,27.33042 66.23266,29.01522 C66.30676,29.96942 66.47316,30.42962 67.11926,31.46442 C67.57556,32.19372 68.13846,32.83202 68.43616,32.95422 C69.67376,33.45992 71.66926,32.86322 71.58736,32.00652 C71.56396,31.77252 71.60556,31.41762 71.67836,31.22782 C71.75506,31.02762 71.72906,30.88202 71.61596,30.88592" id="Fill-14"></path>
                <path d="M68.17811,4.31964 C67.83881,3.86074 67.55411,3.40314 67.55021,3.31344 C67.54631,3.21984 67.41501,3.15094 67.25901,3.15614 C67.10171,3.16264 66.87291,2.99494 66.74811,2.78304 C66.23201,1.90424 64.22611,2.70634 63.97131,3.89454 C63.77111,4.82664 63.79191,7.02494 64.00121,7.01714 C64.08701,7.01324 64.17021,7.32524 64.18451,7.69834 C64.20921,8.32104 64.56151,9.80564 64.85531,10.52064 C64.91901,10.67534 64.99441,10.94834 65.01521,11.10434 C65.03861,11.26554 65.25831,11.72314 65.50791,12.12614 C65.75751,12.52784 65.96681,13.06864 65.97851,13.33644 C65.98891,13.62894 66.10981,13.81224 66.29051,13.80444 C66.45431,13.79794 66.74551,13.88504 66.94701,14.00074 C67.42671,14.27634 68.48361,13.69914 68.70331,13.04264 C68.78781,12.79044 68.76441,11.80244 68.65261,10.84434 C68.45501,9.14134 68.47581,6.35414 68.69291,5.55594 C68.76571,5.28554 68.60321,4.89164 68.17811,4.31964" id="Fill-16"></path>
                <path d="M166.88672,22.24924 C166.52402,21.83194 165.95982,21.42114 165.63222,21.33924 C164.87822,21.14684 163.69132,21.27294 163.60942,21.55244 C163.57562,21.67074 163.42872,21.77604 163.29092,21.78124 C162.81642,21.79944 162.43682,22.52224 162.46932,23.34644 C162.48752,23.81704 162.59282,24.16674 162.71762,24.16154 C162.86582,24.15504 162.90742,24.50734 162.85152,25.29644 C162.63182,28.40864 163.34422,33.76334 163.97732,33.73994 C164.09692,33.73474 164.40112,33.93884 164.66632,34.20274 C165.22012,34.75394 165.98322,34.79424 166.82822,34.31974 C167.42492,33.98434 167.86692,33.30834 167.67322,33.02494 C167.60562,32.92484 167.65372,32.81564 167.78892,32.76494 C167.95272,32.70254 167.88642,32.47634 167.56272,31.99794 C167.30402,31.61444 167.13632,31.28294 167.17922,31.23614 C167.36512,31.03334 167.36512,28.31894 167.17922,28.21364 C167.05832,28.14604 167.02192,28.01994 167.08692,27.90034 C167.14802,27.78984 167.21432,26.97214 167.23382,26.08684 C167.25202,25.20154 167.34692,24.38254 167.44312,24.27074 C167.78242,23.87554 167.54452,23.00974 166.88672,22.24924" id="Fill-18"></path>
                <path d="M148.18011,13.80808 C148.13331,13.61308 148.03191,13.47008 147.94091,13.47268 C147.65881,13.48438 147.30651,11.71118 147.34291,10.45148 C147.37541,9.35168 147.53141,7.67338 147.72771,6.30968 C147.77451,5.98728 147.69651,5.30998 147.55611,4.82378 C147.16091,3.46658 146.15471,2.98038 144.13971,3.17148 C143.56901,3.22608 142.85141,4.24268 142.89951,4.92778 C142.91381,5.14098 142.89171,5.81178 142.85011,6.40328 C142.64601,9.31918 143.12311,14.03558 143.65351,14.33718 C143.75491,14.39438 143.83941,14.60628 143.84851,14.82208 C143.85761,15.03788 143.93951,15.20168 144.03961,15.19778 C144.14101,15.19388 144.25931,15.33688 144.31781,15.53058 C144.37371,15.71908 144.79361,16.11038 145.25641,16.40808 C146.05331,16.92028 146.13131,16.93068 146.90741,16.65248 C148.12681,16.21178 148.39981,15.88548 148.32571,14.95208 C148.29061,14.50098 148.22561,13.99788 148.18011,13.80808" id="Fill-20"></path>
                <path d="M60.54945,10.20006 C60.44415,10.14026 60.34145,9.91146 60.33365,9.71516 C60.32585,9.52016 60.14385,9.25626 59.94885,9.16006 C59.65635,9.01706 59.56665,8.75316 59.52635,7.90946 C59.49775,7.32186 59.36645,6.65886 59.23255,6.43786 C59.07135,6.16876 59.05185,5.91396 59.17015,5.67476 C59.45745,5.09366 59.07785,3.43746 58.52405,2.85116 C57.00955,1.24566 54.14175,2.11796 54.22235,4.15896 C54.23275,4.41376 54.33285,4.68026 54.44205,4.74006 C54.56295,4.80636 54.60195,4.92076 54.54215,5.02996 C54.33545,5.40306 55.01145,8.56726 55.52235,9.60856 C55.81355,10.20656 56.05405,10.81106 56.06055,10.96316 C56.07615,11.35446 57.77655,12.63106 58.30695,12.65056 C59.22215,12.68306 60.07755,12.10326 60.55855,11.12176 C60.81335,10.60046 60.81075,10.34436 60.54945,10.20006" id="Fill-22"></path>
                <path d="M61.11053,24.52177 C60.99743,24.45807 60.90253,24.21367 60.89213,23.95757 C60.85703,23.05147 58.53003,21.83987 57.44323,22.16227 C56.65673,22.39497 56.14713,23.18147 56.18223,24.10317 C56.20043,24.55427 56.32913,25.03397 56.46953,25.16267 C56.60733,25.29137 56.76723,25.90757 56.81923,26.51467 C56.99733,28.59077 57.23523,30.17287 57.39513,30.36267 C57.48353,30.46797 57.67073,30.86317 57.81373,31.25057 C58.37923,32.78067 60.00943,33.46967 61.09363,32.63637 C61.52003,32.30877 61.60323,32.09427 61.57593,31.38707 C61.55773,30.92427 61.41603,30.07667 61.26783,29.53197 C61.04293,28.71687 61.04033,28.49977 61.25093,28.35417 C61.45373,28.21637 61.45633,28.06297 61.26133,27.63657 C61.01563,27.09577 60.98573,25.51367 61.21843,25.26147 C61.39393,25.07167 61.33153,24.64527 61.11053,24.52177" id="Fill-24"></path>
                <path d="M139.91679,13.19877 C139.85439,13.03627 139.66069,12.61897 139.47609,12.25237 C139.11859,11.53737 138.93529,9.30787 139.16929,8.51227 C139.44489,7.57757 139.34999,5.30387 139.02369,4.98147 C138.86119,4.82287 138.51669,4.46017 138.23329,4.15727 C137.79129,3.68277 137.59369,3.62037 136.59269,3.64117 C135.65019,3.66197 135.36419,3.75167 134.93259,4.15857 L134.41259,4.65127 L134.64919,7.69717 C134.78049,9.38067 134.91959,11.09277 134.95989,11.52567 C135.04569,12.42657 135.49679,13.56797 135.76329,13.55757 C135.85949,13.55367 135.94269,13.64857 135.94789,13.76687 C135.95179,13.88517 136.25079,14.22967 136.61609,14.53517 C137.18419,15.01357 137.39479,15.07207 138.11629,14.96807 C138.70259,14.88357 139.12249,14.67167 139.50469,14.26477 C140.08969,13.64337 140.08969,13.64337 139.91679,13.19877" id="Fill-26"></path>
                <path d="M158.86065,33.5582 C158.32895,33.1591 158.05075,30.2198 158.19115,26.4992 C158.30295,23.5482 158.11185,22.841 157.06665,22.3691 C156.04615,21.9076 155.52485,21.8777 154.88005,22.2404 C153.68795,22.9125 153.19655,23.8238 153.66195,24.4959 C153.78675,24.6766 153.79585,24.9145 153.68795,25.1342 C153.58005,25.3539 153.58915,25.5255 153.71525,25.5944 C153.83615,25.6607 153.87515,25.7777 153.81405,25.8856 C153.68015,26.1261 153.74645,30.3693 153.88815,30.4993 C154.05845,30.6579 154.14815,31.1974 154.25995,32.7444 C154.34705,33.9404 154.43025,34.2225 154.70325,34.2602 C154.88005,34.2849 155.04255,34.4253 155.04905,34.5605 C155.06465,34.957 156.80275,36.1829 157.31235,36.1556 C157.90125,36.127 158.72935,35.3782 158.97115,34.6632 C159.21815,33.9261 159.20775,33.8182 158.86065,33.5582" id="Fill-28"></path>
                <path d="M52.56797,31.31752 C52.14417,30.84302 51.78797,29.54172 51.39927,27.04182 C51.04307,24.75642 51.01967,23.96212 51.29267,23.66572 C51.45127,23.49412 51.44087,23.26792 51.24717,22.70502 C50.84937,21.54152 50.15647,20.93182 49.11907,20.83302 C47.43167,20.67052 47.10407,20.98122 46.71277,23.11842 C46.41507,24.74082 46.51907,25.71972 47.15737,27.30572 C47.34327,27.76982 47.51227,28.49522 47.52917,28.90342 C47.54477,29.31422 47.64747,29.69772 47.75927,29.75752 C47.86457,29.81602 47.96597,30.04482 47.97377,30.24112 C47.98157,30.43612 48.13367,30.74812 48.29487,30.89632 C48.45737,31.04712 48.60557,31.30712 48.61077,31.45272 C48.61727,31.60612 48.98127,32.10662 49.43237,32.58112 C50.42427,33.62112 51.29917,33.84212 52.31837,33.30652 C52.87607,33.01272 52.98657,32.84632 52.95797,32.33412 C52.93977,32.00002 52.76037,31.53332 52.56797,31.31752" id="Fill-30"></path>
                <path d="M130.59969,12.41422 C130.03159,11.79542 130.01469,11.73042 130.01339,9.98062 C130.01209,8.99782 130.04199,7.82522 130.07969,7.39492 C130.11609,6.96332 130.14729,5.95712 130.14859,5.17192 L130.15119,3.73672 L129.26589,3.19462 C128.11929,2.49392 126.59569,2.44062 126.16409,3.08802 C126.04319,3.27002 125.84689,3.54042 125.74809,3.66522 C125.64279,3.79392 125.57909,4.24112 125.59989,4.67142 C125.62329,5.10302 125.55569,5.62302 125.45039,5.84662 C125.34509,6.06632 125.31519,6.29772 125.38149,6.36012 C125.56479,6.53042 125.64929,8.26332 125.48029,8.37772 C125.36199,8.45702 125.43609,9.52042 125.67919,11.20132 C125.68699,11.25332 125.62979,11.46002 125.55959,11.63812 C125.47379,11.85652 125.58039,12.17762 125.85989,12.54162 C126.09519,12.84582 126.30189,13.30082 126.31099,13.53482 C126.33179,14.03922 127.49269,15.10912 128.37019,15.43152 C129.64679,15.90212 131.28739,14.87902 131.21979,13.65702 C131.19769,13.27612 130.96629,12.81202 130.59969,12.41422" id="Fill-32"></path>
                <path d="M51.05841,10.93391 C50.92321,10.60501 50.66971,10.16691 50.50721,9.98231 C49.83121,9.21531 49.62191,8.54321 49.56861,6.97411 C49.53871,6.09011 49.60371,5.28931 49.71291,5.16971 C49.83771,5.03711 49.84031,4.84081 49.72201,4.64971 C49.61671,4.47681 49.46851,4.02051 49.38661,3.61101 C49.26961,3.02991 49.05901,2.76601 48.35441,2.32011 C47.36641,1.69871 47.22861,1.68311 45.96631,2.07181 C44.89901,2.39941 44.74301,2.72311 44.7364831,4.60941 C44.73261,5.79761 45.15381,8.85521 45.54771,10.49061 C45.72061,11.21081 46.72941,12.69021 47.40411,13.21281 C47.63161,13.38831 48.10481,13.51831 48.47791,13.50921 C49.26311,13.48971 50.95051,12.66811 51.08961,12.23911 C51.14031,12.07921 51.21441,11.84781 51.24821,11.74121 C51.28071,11.63331 51.19361,11.26281 51.05841,10.93391" id="Fill-34"></path>
                <path d="M149.13353,32.61115 C148.51473,31.78175 148.23523,30.70145 148.15723,28.85675 C148.08183,27.05365 148.31583,23.91415 148.54593,23.65545 C148.80983,23.35645 148.69543,22.15655 148.37173,21.85495 C147.89203,21.40645 146.60373,21.09965 145.70413,21.21925 C144.74603,21.34795 144.14803,21.94335 144.18833,22.72595 C144.22603,23.43055 144.12333,24.82545 144.01803,25.03085 C143.94133,25.18685 143.94653,26.70395 144.03363,29.31435 C144.08953,30.96145 144.67713,33.02195 145.38173,34.03595 C146.44773,35.56475 148.10653,36.01065 149.02303,35.01355 C149.70423,34.26865 149.74453,33.43275 149.13353,32.61115" id="Fill-36"></path>
                <path d="M41.56997,32.96657 C41.44907,32.77937 41.29697,32.11377 41.23587,31.50667 C40.94207,28.57127 40.17507,25.41877 39.72397,25.28617 C39.61997,25.25497 39.52117,25.11977 39.51727,25.00147 C39.51207,24.87797 39.30667,24.65957 39.06487,24.52177 C38.50327,24.19677 36.29977,24.23577 36.20097,24.57117 C36.15937,24.71027 36.03717,24.91177 35.90977,25.05477 C35.44567,25.56827 35.46257,26.03497 36.00857,27.95767 C36.31797,29.04577 36.57537,30.17547 36.58837,30.49007 C36.60007,30.80467 36.68587,31.09977 36.78077,31.15177 C36.87437,31.20117 37.02387,31.65097 37.11097,32.13977 C37.64267,35.12457 40.71847,36.61437 41.57907,34.30167 C41.87677,33.50477 41.87547,33.44107 41.56997,32.96657" id="Fill-38"></path>
                <path d="M40.56962,10.60761 C40.51372,10.40091 40.29532,9.94981 40.07172,9.58581 C39.77142,9.09311 39.64662,8.50161 39.56472,7.16781 C39.50492,6.19021 39.38532,5.36471 39.29562,5.31401 C39.20592,5.26331 39.11232,4.63281 39.08242,3.90741 C39.04342,2.90641 38.93292,2.47871 38.61962,2.11731 C38.38952,1.85211 38.20492,1.54661 38.19842,1.42701 C38.18022,1.07471 36.07682,0.38961 35.51262,0.55341 C34.85352,0.74321 34.27112,1.45561 34.27372,2.07181 C34.27502,2.34741 34.26202,2.80891 34.24642,3.07411 C34.22952,3.35361 34.30752,3.81771 34.42582,4.14791 C34.71312,4.94481 35.40082,7.82301 35.65952,9.30631 C35.97412,11.12241 37.23642,12.39121 38.72752,12.3938114 C39.88842,12.39511 40.80882,11.50071 40.56962,10.60761" id="Fill-40"></path>
                <path d="M137.76737,24.54959 C137.46967,22.73479 136.48167,21.84949 134.82677,21.91449 C134.06107,21.94309 133.88947,22.03409 133.52677,22.59309 C133.11987,23.22229 133.11597,23.33539 133.32787,27.37579 C133.56967,31.96349 133.57877,32.05449 133.92717,32.81369 C134.05977,33.10359 134.17807,33.41819 134.18327,33.49229 C134.19757,33.70159 135.18297,34.52059 135.74327,34.78839 C136.35297,35.08089 137.23957,34.83129 137.94027,34.17219 C138.28997,33.84199 138.33027,33.66389 138.18337,33.03989 C138.01437,32.31709 137.76217,26.63219 137.86227,25.82229 C137.88957,25.60389 137.84797,25.03709 137.76737,24.54959" id="Fill-42"></path>
                <path d="M116.99922,1.65867 C116.59752,0.49517 115.43402,-0.25883 114.56562,0.08177 C114.25622,0.20397 113.89222,0.26767 113.75572,0.22347 C113.61792,0.18057 113.26172,0.41067 112.96012,0.73567 L112.41412,1.32717 L112.49212,5.09717 C112.53502,7.17717 112.57142,8.95427 112.57142,9.06217 C112.56752,9.79017 112.88082,11.71807 113.04852,12.01057 C113.16682,12.21467 113.36962,12.58777 113.51002,12.85687 C113.81292,13.43537 114.98812,14.17507 115.56792,14.15167 C115.79152,14.14387 116.28422,13.88517 116.64692,13.58877 L117.31252,13.04277 L117.12012,11.75317 C116.86532,10.05407 116.65212,6.24247 116.80682,6.13977 C116.86922,6.09817 116.90692,5.45467 116.88872,4.72797 C116.87052,4.00257 116.94462,3.36167 117.04992,3.32137 C117.29172,3.23297 117.26702,2.43477 116.99922,1.65867" id="Fill-44"></path>
                <path d="M34.49745,32.14393 C34.27255,32.52613 34.27775,32.74193 34.51435,32.73283 C34.61965,32.72763 34.70285,32.51833 34.69245,32.28303 C34.67945,31.93073 34.64045,31.90213 34.49745,32.14393" id="Fill-46"></path>
                <path d="M32.21738,30.83756 C31.18778,29.86646 31.07338,29.54666 31.03308,27.52386 C31.00968,26.42406 31.08118,25.52576 31.20208,25.39576 C31.55698,25.01226 31.20858,23.58876 30.60928,22.98296 C29.87868,22.24586 29.26378,22.07946 27.99368,22.27446 C27.05638,22.41876 26.86528,22.52796 26.48568,23.13376 C26.09438,23.76036 26.07358,23.92676 26.28678,24.80166 C26.41678,25.34766 26.47918,25.82086 26.42588,25.87806 C26.27508,26.04186 26.33228,27.94376 26.48698,27.93856 C26.56238,27.93596 26.67808,28.34416 26.74568,28.85246 C27.01478,30.88436 28.23938,32.80446 29.64728,33.39986 C30.58718,33.79506 32.60348,33.51816 32.28368,33.03586 C32.23038,32.95526 32.30838,32.70176 32.45008,32.49896 C32.84398,31.93346 32.76338,31.35366 32.21738,30.83756" id="Fill-48"></path>
                <path d="M130.45617,33.20915 C130.34437,33.14545 130.18317,32.70475 130.09347,32.21725 C130.00247,31.72975 129.85167,31.34235 129.75417,31.34625 C129.65537,31.35015 129.52277,29.74465 129.45387,27.72315 C129.35247,24.70195 129.26667,23.93365 128.94167,23.13675 C128.72847,22.61545 128.47627,22.23195 128.38657,22.29435 C128.29297,22.36065 128.12397,22.33075 127.98227,22.22155 C127.84837,22.11885 127.36607,22.06815 126.91627,22.10715 C125.83597,22.20335 125.22757,22.82085 124.89737,24.14945 C124.58667,25.39875 124.49697,28.15865 124.75177,28.59545 C124.85707,28.77615 125.05727,29.52755 125.19637,30.26725 C125.67997,32.84255 125.90877,33.80455 126.12717,34.18025 C126.31177,34.50005 127.07357,35.16955 128.10577,35.91835 C128.23057,36.00805 128.59717,35.94955 128.94557,35.78315 C129.56307,35.48935 129.59297,35.47895 129.93487,35.46595 C130.30797,35.45165 130.78247,33.39375 130.45617,33.20915" id="Fill-50"></path>
                <path d="M29.09556,10.78155 C28.96036,10.65545 28.81736,10.24205 28.77446,9.85075 C28.73286,9.45945 28.59766,9.03305 28.47286,8.89135 C28.30646,8.70155 28.28956,8.20885 28.41046,7.04665 C28.49886,6.17825 28.50016,5.30465 28.41306,5.12135 C28.32076,4.92765 28.27266,4.69755 28.29996,4.58445 C28.59766,3.35465 28.58336,2.63705 28.24536,1.93375 C28.04126,1.50995 27.72666,1.11995 27.54726,1.06665 C27.36916,1.01595 26.87646,0.75985 26.47346,0.51155 C25.56736,-0.05135 24.58196,0.09035 24.22316,0.83525 C24.09706,1.09525 23.90986,1.31885 23.81366,1.32275 C23.71616,1.32665 23.71486,2.78005 23.81366,4.56365 C23.90986,6.34855 24.05936,7.79545 24.14516,7.79285 C24.23356,7.78895 24.31676,8.15945 24.33626,8.63005 C24.36876,9.46855 24.59106,10.13285 25.33726,11.61745 C26.03536,13.00455 28.33376,13.60645 28.92786,12.55605 C29.27106,11.95285 29.35816,11.02465 29.09556,10.78155" id="Fill-52"></path>
                <path d="M107.2669,2.66929 C106.4856,1.68259 105.8135,1.37059 104.5772,1.41869 C103.4592,1.46159 102.6714,1.92049 102.6935,2.51459 C102.7,2.67059 102.6129,2.88899 102.4881,3.02289 C102.3204,3.20489 102.3295,3.32449 102.5284,3.55199 C102.6753,3.71969 102.8001,4.33719 102.8209,4.98459 C102.8976,7.45719 102.8612,11.33769 102.7585,11.70689 C102.6103,12.24249 103.4982,13.64259 103.9753,13.62439 C104.0585,13.62049 104.2743,13.74919 104.4368,13.90129 C104.6045,14.05469 104.9373,14.13529 105.1713,14.07809 C105.4014,14.02089 105.833,13.91559 106.1047,13.85189 C106.6195,13.72709 107.0355,13.03289 107.0095,12.34519 C107.0017,12.15019 107.1096,11.92659 107.237,11.87459 C107.4242,11.79919 107.4177,11.71079 107.211,11.48329 C107.0186,11.27009 106.9575,10.73709 106.9887,9.55669 C107.0979,5.48509 107.198,4.59069 107.5763,4.25009 C107.9819,3.88609 107.9,3.46879 107.2669,2.66929" id="Fill-54"></path>
                <path d="M22.8748,30.04547 C22.4991,29.55797 22.3249,27.61057 22.4705,25.54097 C22.5927,23.81847 21.164,22.44957 19.3193,22.52107 C18.4756,22.55357 17.4486,23.43757 17.4759,24.10707 C17.485,24.34107 17.3888,24.57247 17.251,24.64657 C17.0586,24.74797 17.0599,24.79477 17.2614,24.88057 C17.4096,24.94557 17.5253,25.37197 17.5474,25.94137 C17.5682,26.47047 17.6735,26.94107 17.7853,27.00217 C17.8971,27.06327 17.9998,27.45587 18.0167,27.88747 C18.0336,28.31907 18.1324,28.81177 18.2377,28.99767 C18.3404,29.18097 18.5549,29.71267 18.7044,30.15987 C18.8552,30.60577 19.0593,30.98017 19.1503,30.97757 C19.2491,30.97367 19.3193,31.04777 19.3245,31.16607 C19.3375,31.51187 20.8182,32.67797 21.2498,32.68447 C22.3314,32.70137 23.1777,32.21907 22.9606,31.71077 C22.9021,31.57687 22.9502,31.39357 23.0633,31.31687 C23.3649,31.10757 23.2856,30.57847 22.8748,30.04547" id="Fill-56"></path>
                <path d="M119.35157,32.14783 C118.94207,31.54853 118.89137,31.25213 118.86797,29.32683 C118.85107,27.87473 118.92647,27.04533 119.09937,26.77363 C119.43217,26.24973 119.39707,25.56983 119.02397,25.29163 C118.87317,25.17853 118.78737,24.93933 118.83937,24.77943 C118.99927,24.29583 118.33757,23.80963 117.20917,23.58603 C116.01967,23.34813 115.43857,23.46383 114.79117,24.06183 C114.42457,24.39983 114.35957,24.65983 114.38427,25.70113 C114.39987,26.38753 114.33097,27.05443 114.22957,27.20003 C113.97347,27.56403 114.16977,31.74223 114.45317,32.00613 C114.61437,32.15303 114.61307,32.29343 114.45317,32.49753 C114.30887,32.67823 114.30367,32.82383 114.44017,32.89923 C114.55847,32.96683 114.77687,33.28923 114.93937,33.63763 C115.10317,33.98343 115.43077,34.33703 115.68947,34.44233 C115.94947,34.54893 116.15097,34.70753 116.15487,34.80763 C116.16527,35.06243 117.53677,35.45633 118.10227,35.36793 C118.71847,35.26913 119.43217,34.56063 119.55697,33.92753 C119.61027,33.64933 119.69347,33.27493 119.73377,33.11503 C119.77537,32.95253 119.59987,32.51053 119.35157,32.14783" id="Fill-58"></path>
                <path d="M19.87362,9.2378 C19.77482,9.1325 19.56292,8.6606 19.39652,8.1757 C19.23012,7.6908 19.00912,7.1929 18.89992,7.0551 C18.76342,6.8835 18.76342,6.7418 18.90122,6.5936 C19.04162,6.4428 19.03382,6.2439 18.87522,5.9163 C18.71532,5.5887 18.70622,5.3248 18.84012,5.0141 C19.32112,3.8948 19.24702,3.562 18.35132,2.8145 C16.86802,1.5769 14.79712,1.5236 14.11982,2.704 C13.88712,3.1109 14.33172,6.409 14.72302,7.1591 C14.91412,7.5257 14.91152,7.6414 14.71132,7.7207 C14.55662,7.7805 14.53842,7.9066 14.66062,8.047 C14.86992,8.2836 15.61742,9.4627 16.09322,10.309 C16.63662,11.2762 17.35942,11.6337 18.49432,11.4959 C19.06112,11.4283 19.64612,11.2541 19.81512,11.1033 C20.11802,10.8329 20.15962,9.5394 19.87362,9.2378" id="Fill-60"></path>
                <path d="M97.91171,2.62223 C97.56721,1.66673 96.78591,1.14023 95.56391,1.04533 C94.65651,0.97253 94.50441,1.02323 94.00131,1.54843 C93.69971,1.86303 93.45141,2.28683 93.45791,2.47273 C93.46571,2.66903 93.39291,2.86923 93.29021,2.94073 C93.17971,3.01743 93.18101,3.24103 93.29671,3.51143 C93.47221,3.92743 93.49171,5.17283 93.36041,7.94963 C93.22391,10.88243 93.42151,11.88343 94.33411,12.88183 C94.90351,13.50193 95.11281,13.59943 95.83821,13.58513 C96.79371,13.56563 97.26691,13.15873 97.80381,11.90163 C98.07811,11.26203 98.07551,11.16193 97.77651,10.74203 C97.42291,10.24933 97.24871,7.40363 97.51911,6.56773 C97.60361,6.30903 97.62571,6.00483 97.56981,5.86833 C97.51651,5.73703 97.59191,5.23913 97.73361,4.78023 C97.87531,4.32393 98.03521,3.79873 98.08201,3.63753 C98.12881,3.47633 98.04951,3.01093 97.91171,2.62223" id="Fill-62"></path>
                <path d="M15.23106,31.52318 C14.89306,31.53618 14.27816,29.75388 14.23396,28.63458 C14.17546,27.14348 14.36266,24.45898 14.55376,24.04428 C14.64476,23.84408 14.63826,23.66208 14.53816,23.60228 C14.44196,23.54508 14.30546,23.24868 14.22616,22.91718 C13.94406,21.75368 11.98366,21.33898 10.44186,22.11638 C9.86466,22.40628 9.55136,23.69068 9.81786,24.68128 C9.91666,25.05048 9.93486,25.56268 9.85686,25.80058 C9.67096,26.37778 9.89586,30.74968 10.11166,30.74058 C10.19876,30.73798 10.28066,31.05908 10.29756,31.45038 C10.32096,32.05748 10.48866,32.30968 11.38306,33.10008 C12.58426,34.15828 13.19136,34.41828 13.98046,34.21028 C14.70456,34.02048 15.46376,32.92848 15.43126,32.12508 C15.41956,31.79098 15.32856,31.51928 15.23106,31.52318" id="Fill-64"></path>
                <path d="M108.70912,35.31528 C108.60382,35.31918 108.50892,35.20478 108.50372,35.06828 C108.49722,34.92788 108.21122,34.66398 107.87062,34.48328 L107.24922,34.15308 L107.25312,31.46208 C107.25832,28.49548 107.41952,26.50518 107.72242,25.66668 C107.83162,25.36508 107.85112,24.85678 107.76402,24.50708 C107.50662,23.45538 105.82702,22.33478 104.88972,22.58958 C103.19582,23.04848 103.00082,23.41638 102.96962,26.20748 C102.95662,27.28778 102.86822,28.88418 102.77072,29.75258 C102.56662,31.56738 102.56532,31.52838 102.81752,33.28598 C103.02552,34.75108 103.35312,35.72088 103.63652,35.71048 C103.73142,35.70658 103.81592,35.82098 103.82242,35.95878 C103.83412,36.27338 104.79612,37.25618 105.52152,37.69428 C106.10392,38.04788 107.68602,38.07128 107.78742,37.72808 C107.81992,37.61628 107.97852,37.50578 108.11632,37.50058 C108.26062,37.49408 108.51152,37.28868 108.66752,37.04558 C108.99122,36.54118 109.02112,35.30228 108.70912,35.31528" id="Fill-66"></path>
                <path d="M88.72929,12.13875 C88.60059,12.02045 88.43939,9.97815 88.29769,6.66315 L88.07149,1.37735 L87.56839,0.83785 C87.16409,0.40105 86.84039,0.27885 85.89269,0.20475 C84.80979,0.12025 84.69929,0.14755 84.44449,0.56745 C84.29629,0.80795 84.17019,1.10695 84.17409,1.20575 C84.17799,1.30975 84.07529,1.43585 83.93879,1.49045 C83.74899,1.56715 83.75289,1.67375 83.95959,2.00005 C84.14679,2.29385 84.27029,3.60815 84.39249,6.57085 C84.61479,11.98535 84.79809,13.22815 85.45199,13.72995 C86.32169,14.39815 86.98469,14.56455 87.61389,14.27465 C87.94279,14.12125 88.31719,13.85605 88.47839,13.66105 C88.84759,13.21385 88.98409,12.37535 88.72929,12.13875" id="Fill-69"></path>
                <path d="M5.28294,32.60101 C5.21924,32.26951 5.08274,31.91721 4.96574,31.78721 C4.84744,31.65591 4.73954,30.50021 4.71224,29.04811 C4.68364,27.67271 4.64334,26.28561 4.61864,25.98531 C4.55104,25.10001 3.85034,24.38111 2.86104,24.17571 C1.55324,23.90531 1.09044,23.97161 0.49634,24.52021 C-0.02366,24.99731 -0.03406,25.05711 0.02314,27.23591 C0.05564,28.45401 0.15184,29.55511 0.23634,29.66431 C0.32214,29.77481 0.42354,30.29611 0.46254,30.82521 C0.54574,31.94061 0.88634,32.98581 1.34264,33.52141 C1.89254,34.16751 2.82334,34.96311 3.04694,34.97611 C4.50424,35.06451 4.55624,35.04891 5.00864,34.39891 C5.26214,34.03621 5.45584,33.60851 5.43374,33.45901 C5.41164,33.30431 5.34664,32.93251 5.28294,32.60101" id="Fill-71"></path>
                <path d="M80.11549,6.43344 C80.09339,6.41784 80.02969,5.56244 79.97379,4.54324 C79.91659,3.52404 79.76709,2.21884 79.64359,1.65854 C79.45379,0.80184 79.33679,0.61854 78.92079,0.53014 C78.34749,0.40664 77.10079,0.62634 76.85249,0.89284 C76.67439,1.08654 76.63019,5.10614 76.76149,9.38574 C76.84339,12.05334 77.07349,12.81254 78.03679,13.58214 C78.76869,14.16454 79.36929,14.22564 79.91139,13.77194 C80.36119,13.39364 80.36639,13.33904 80.26109,9.92654 C80.20259,8.02204 80.13759,6.45034 80.11549,6.43344" id="Fill-74"></path>
                <path d="M98.41962,22.19087 C98.13492,21.94777 97.62272,21.65137 97.28472,21.53177 C95.98992,21.07807 94.22452,21.69947 94.26092,22.59777 C94.27002,22.83437 94.19202,23.12297 94.08932,23.23477 C93.96712,23.36607 93.98662,23.70017 94.14652,24.18507 C94.28302,24.60367 94.35712,25.28747 94.31162,25.73987 C94.20762,26.80587 93.98272,31.53267 94.00612,32.15797 C94.02562,32.64417 94.25312,33.97537 94.46762,34.85157 C94.58462,35.33127 95.17482,35.90977 96.07962,36.42717 C97.88922,37.46327 99.88732,35.78627 98.89282,34.06897 C98.60032,33.56197 98.52362,32.94317 98.46252,30.54987 C98.42222,28.95867 98.47032,27.47147 98.56912,27.26347 C98.66792,27.05547 98.73162,26.39247 98.70952,25.80357 C98.68612,25.21597 98.75372,24.66737 98.85902,24.60107 C98.96432,24.53087 99.02542,24.06287 98.99422,23.55327 C98.95002,22.82787 98.82782,22.53797 98.41962,22.19087" id="Fill-76"></path>
            </g>
        </g>
    </g>
</svg>