<?xml version="1.0" encoding="UTF-8"?>
<svg width="43px" height="49px" viewBox="0 0 43 49" version="1.1" xmlns="http://www.w3.org/2000/svg" xmlns:xlink="http://www.w3.org/1999/xlink">
    <!-- Generator: Sketch 61 (89581) - https://sketch.com -->
    <title>img-nav-about</title>
    <desc>Created with Sketch.</desc>
    <g id="Page-1" stroke="none" stroke-width="1" fill="none" fill-rule="evenodd">
        <g id="200318_kodomonooka-ver2" transform="translate(-489.000000, -132.000000)" fill="#0099CB">
            <path d="M524.361514,178.906314 C524.32769,178.818983 524.136275,178.594858 523.946397,178.41865 C523.754982,178.242442 523.591241,178.066233 523.588935,178.03532 C523.586629,178.003633 523.455943,177.88307 523.28759,177.757869 C523.118468,177.632668 522.98394,177.489692 522.976252,177.428638 C522.969334,177.368356 522.64954,177.066947 522.260559,176.753173 C521.873117,176.441717 521.210466,175.899181 520.789968,175.551402 C520.370238,175.202849 519.972033,174.920761 519.907459,174.925399 C519.84596,174.929263 519.784462,174.848887 519.777543,174.753827 C519.765243,174.571436 519.855185,174.501108 520.922959,173.854238 C521.185867,173.695805 521.392657,173.542782 521.390351,173.508777 C521.387276,173.473999 521.513348,173.380485 521.677089,173.295472 C523.125387,172.542723 524.615966,170.593612 524.759719,169.265868 C524.845818,168.463656 524.79585,167.707816 524.639028,167.45355 C524.33999,166.966659 523.824937,166.685344 523.298353,166.721668 C522.754088,166.76031 522.471193,167.234836 522.485799,168.087282 C522.495024,168.636773 522.336664,169.185492 522.07145,169.520133 C521.991502,169.620603 521.896947,169.791401 521.87081,169.880278 C521.843905,169.970701 521.702457,170.110585 521.565622,170.180914 C521.424944,170.254334 521.126674,170.518646 520.899128,170.773685 C520.676195,171.02254 520.220335,171.392732 519.902847,171.582079 C519.586128,171.772198 519.271715,171.999414 519.215597,172.080563 C519.161017,172.160165 519.051856,172.235131 518.981133,172.239768 C518.905797,172.244405 518.852754,172.28923 518.856597,172.343329 C518.859672,172.394337 518.80663,172.44148 518.740518,172.446117 C518.534497,172.460801 517.299139,173.233645 517.257627,173.374302 C517.236102,173.443085 517.125405,173.507231 517.0124,173.51496 C516.900934,173.522688 516.638795,173.625476 516.438923,173.739857 C516.236746,173.855783 515.777042,174.055177 515.417274,174.181923 C514.643925,174.456283 514.571664,174.500335 514.584733,174.689681 C514.590114,174.767738 514.430217,175.02355 514.231883,175.25463 C513.93592,175.601636 513.867502,175.759296 513.858278,176.120987 C513.847515,176.491952 513.776792,176.648066 513.411642,177.100179 L512.976538,177.638078 L511.671993,177.733911 C510.940157,177.787237 510.365142,177.792647 510.361299,177.744731 C510.358224,177.69836 510.286731,177.692177 510.205245,177.731592 C510.122991,177.771007 510.026899,177.771007 509.993843,177.732365 C509.906207,177.628804 509.085197,177.29339 508.94375,177.302664 C508.769247,177.31503 508.2442,176.801862 508.157333,176.532912 C508.050479,176.201363 508.145802,176.124851 508.888401,175.944779 C509.667899,175.755432 509.837021,175.615548 509.80704,175.184301 C509.776291,174.735279 509.652524,174.712867 507.181039,174.721368 C505.04011,174.728323 504.384378,174.593076 503.065996,173.870468 C502.781564,173.714353 502.52865,173.606155 502.506357,173.630886 C502.485601,173.655617 502.407958,173.613884 502.34031,173.543555 C502.272661,173.47168 502.11507,173.416809 502.002066,173.424537 C501.879837,173.433038 501.736852,173.352663 501.663822,173.234418 C501.591561,173.120037 501.320966,172.91987 501.046527,172.779986 C500.772857,172.639328 500.439995,172.443799 500.290091,172.334828 C500.140957,172.22663 499.990284,172.14239 499.951848,172.144709 C499.912642,172.1478 499.753514,171.97391 499.604379,171.766015 C499.455244,171.558121 499.296116,171.361818 499.259217,171.338633 C499.112388,171.244346 498.62501,170.350167 498.412839,169.785991 C498.112263,168.986871 498.001565,168.373234 497.92546,167.088768 C497.871649,166.162902 497.835518,165.988239 497.654865,165.770298 C497.382733,165.441839 496.993753,165.313547 496.489462,165.385422 C496.153524,165.434111 496.044364,165.505985 495.82143,165.827488 L495.555448,166.210818 L495.678446,167.64908 C495.763007,168.638319 495.854486,169.210223 495.969796,169.482264 C496.064351,169.703297 496.145837,169.974565 496.155062,170.095901 C496.162749,170.21801 496.207336,170.333164 496.256535,170.358668 C496.307271,170.384945 496.382608,170.525602 496.431038,170.683262 C496.4787,170.840922 496.544042,170.95994 496.580941,170.957621 C496.653203,170.952211 496.975303,171.555802 497.088307,171.908219 C497.130587,172.038056 497.246667,172.205763 497.352752,172.288457 C497.451919,172.366515 497.546474,172.498671 497.551086,172.568227 C497.56108,172.709657 497.964666,173.258376 498.093045,173.303973 C498.139169,173.320203 498.172993,173.368892 498.176068,173.426083 C498.179912,173.479409 498.312903,173.626249 498.482794,173.764588 C498.653453,173.9037 498.785676,174.054404 498.789519,174.11314 C498.794132,174.171876 498.863318,174.212837 498.94711,174.206654 C499.031671,174.201244 499.236923,174.311761 499.417576,174.460147 C499.918023,174.872072 500.300085,175.110881 500.630641,175.21676 C500.803607,175.272405 500.951204,175.353554 500.954279,175.394514 C500.95966,175.468707 501.420133,175.595454 501.550049,175.557584 C501.722246,175.508122 501.583874,175.636414 501.062671,176.011243 C500.756714,176.231504 500.486119,176.441717 500.462288,176.476495 C500.439995,176.511273 500.289323,176.622562 500.134807,176.717622 C499.98106,176.813455 499.777345,176.997391 499.690478,177.118728 C499.602073,177.243928 499.292272,177.55693 498.989391,177.826652 C498.688046,178.096374 498.38747,178.410921 498.312134,178.537668 C498.02309,179.025332 497.1106,179.316694 497.590291,180.030801 C497.794775,180.336074 498.178374,180.475959 498.544293,180.496825 C499.855756,180.573337 500.342365,179.472808 501.297904,178.876173 C501.415521,178.803526 501.573111,178.652049 501.643066,178.547715 C501.713021,178.441835 501.868306,178.253261 501.982848,178.134244 C502.097389,178.016771 502.268817,177.835153 502.356453,177.738548 C502.444089,177.642715 502.535569,177.560021 502.556324,177.558475 C502.634736,177.553838 503.827045,176.67357 503.875475,176.584693 C503.936974,176.473403 504.159139,176.454855 505.048566,176.487315 C505.719672,176.512046 505.730434,176.516683 505.798852,176.801089 C506.011023,177.692177 506.143245,177.886934 507.127996,178.766429 C507.83062,179.393978 508.158102,179.582552 508.947594,179.812859 C509.21742,179.890916 509.474946,179.983657 509.532601,180.021527 C509.589488,180.059396 509.986156,180.091855 510.411266,180.093401 C511.061617,180.09572 511.279169,180.056305 511.784997,179.845318 C512.114785,179.707752 512.40383,179.557048 512.42766,179.51145 C512.449954,179.466625 512.571414,179.421028 512.693643,179.412526 C513.044186,179.387795 513.935151,178.709239 514.229577,178.243214 C514.37948,178.004406 514.517084,177.658172 514.540146,177.457233 C514.577045,177.132639 514.610101,177.097088 514.891458,177.077767 C515.641745,177.025214 516.192159,176.359023 516.079155,175.63796 C516.066087,175.55372 516.098374,175.475663 516.147573,175.472572 C516.202153,175.468707 516.245202,175.522806 516.250583,175.597772 C516.269033,175.853583 517.116948,176.522865 517.798048,176.817319 C518.662876,177.192921 519.09798,177.416272 519.278633,177.577796 C519.356276,177.648125 519.466974,177.706861 519.513867,177.702997 C519.563066,177.699906 519.606884,177.744731 519.610727,177.801148 C519.620721,177.942578 519.998939,178.234713 520.288752,178.324363 C520.413287,178.363005 520.53936,178.458838 520.577028,178.544623 C520.613159,178.626545 520.856848,178.889311 521.108993,179.1173 C522.709501,180.570245 523.207642,182.099702 525.011865,179.887052 C524.760488,179.444213 524.525255,179.060883 524.489893,179.063201 C524.452225,179.066293 524.397645,178.999055 524.361514,178.906314 M504.159139,161.287807 C504.549656,161.201248 505.370666,160.116949 505.34376,159.723572 C505.33761,159.629285 505.373741,159.513359 505.421403,159.479354 C505.585143,159.361882 505.452921,158.368778 505.231525,158.052685 C505.117752,157.889615 504.917112,157.700269 504.774127,157.619893 C504.510451,157.47228 503.856257,157.447549 503.327366,157.565794 C502.985279,157.641533 502.505588,158.129197 502.300335,158.608359 C502.152738,158.949956 502.111995,159.750622 502.234224,159.883551 C502.284192,159.939195 502.361066,160.11154 502.408727,160.279246 C502.550943,160.775412 503.638704,161.402188 504.159139,161.287807 M510.876352,166.484405 C511.402167,166.187633 511.618182,165.630413 511.439835,165.036097 C511.337593,164.6945 511.276863,164.641947 510.864052,164.526793 C510.277506,164.363723 510.122991,164.378407 509.767835,164.630354 C509.493383,164.82511 509.473409,164.879209 509.504158,165.322821 C509.531064,165.710016 509.60025,165.880041 509.857777,166.189952 C510.238301,166.646702 510.46969,166.713939 510.876352,166.484405 M507.64228,169.020876 C507.602306,169.202494 507.601537,169.340833 507.641511,169.360927 C507.681486,169.381794 507.695323,169.419663 507.676873,169.455214 C507.611531,169.58196 507.829083,170.002387 508.092759,170.256653 C508.244969,170.403493 508.423316,170.592067 508.48789,170.676306 C508.560919,170.772912 508.679305,170.823919 508.806915,170.814645 C508.919919,170.806917 509.032154,170.833966 509.062135,170.8757 C509.164377,171.018676 509.748616,171.187929 509.869308,171.109099 C509.986156,171.03336 510.242913,171.051908 510.249063,171.136921 C510.256751,171.251302 511.540539,171.183292 511.753479,171.057318 C511.841115,171.004765 512.035605,170.921298 512.195502,170.868744 C512.363087,170.812327 512.563727,170.670897 512.681343,170.527148 C512.790504,170.3919 513.007287,170.157729 513.161803,170.00857 C513.521571,169.660018 513.81446,169.165398 513.799854,168.935091 C513.792166,168.836167 513.707605,168.676188 513.608438,168.575719 C513.377049,168.34232 512.998062,168.365505 512.532977,168.642956 C512.341562,168.757337 512.083267,168.876355 511.9472,168.913451 C511.814209,168.950548 511.671224,169.009284 511.635094,169.042516 C511.598194,169.076521 511.326831,169.110526 511.03548,169.117482 C510.556557,169.129847 510.322093,169.10898 509.644837,168.996918 C509.523377,168.976051 509.35118,168.879446 509.248938,168.772794 C508.691605,168.191615 507.79449,168.329954 507.64228,169.020876 M515.182041,160.113858 C515.186653,160.183414 515.280439,160.310933 515.390368,160.397492 C515.500297,160.48405 515.594083,160.607705 515.598695,160.672624 C515.602539,160.738315 515.813941,160.86197 516.074543,160.952393 C516.432774,161.075275 516.610352,161.089959 516.82406,161.013448 C516.980882,160.957803 517.131554,160.936163 517.165379,160.964758 C517.302214,161.082231 517.859547,160.481731 518.048656,160.012616 C518.248527,159.518769 518.25929,159.362654 518.13168,158.783795 C518.097855,158.624589 518.031744,158.466929 517.97947,158.419786 C517.929502,158.372642 517.884915,158.269854 517.878766,158.184841 C517.867235,158.005542 517.555128,157.733501 517.376781,157.745866 C517.309901,157.749731 517.179985,157.697177 517.090811,157.628394 C516.999332,157.557293 516.694144,157.490828 516.401255,157.476917 C515.889277,157.452959 515.865447,157.463006 515.493379,157.857929 C515.247383,158.119923 515.078261,158.411284 515.019069,158.678688 C514.907602,159.179491 514.946039,160.001796 515.07903,159.992522 C515.128229,159.988657 515.177428,160.047394 515.182041,160.113858 M531.910499,154.465147 C531.850538,154.686953 531.809026,154.992226 531.819789,155.139839 C531.830551,155.290543 531.80672,155.483754 531.765208,155.579587 C531.725234,155.673101 531.616842,156.078071 531.524594,156.473766 C531.433883,156.868689 531.327029,157.239654 531.289361,157.291435 C531.25323,157.340897 531.224787,157.447549 531.229399,157.514013 C531.233243,157.585115 531.140995,157.762096 531.020303,157.912801 C530.899612,158.063505 530.805826,158.215755 530.808132,158.254397 C530.811207,158.294585 530.738946,158.411284 530.642854,158.522574 C530.472195,158.718876 530.472195,158.718876 530.745096,159.249819 C530.894999,159.5435 531.067965,159.867321 531.130233,159.972428 C531.195575,160.085263 531.25938,160.608478 531.28398,161.242209 C531.323954,162.283229 531.31396,162.347375 531.006466,163.073075 C530.699741,163.796456 530.127032,164.633445 529.928699,164.646584 C529.878731,164.650448 529.838756,164.709957 529.844138,164.776421 C529.84875,164.844431 529.72114,164.979679 529.558168,165.080921 C529.395196,165.181391 529.143819,165.351417 528.993916,165.461933 C528.727933,165.659008 528.34664,165.775708 527.609423,165.88777 C527.401095,165.919456 526.961379,165.997514 526.616216,166.063205 C526.132681,166.156719 525.875155,166.155174 525.436207,166.05625 C525.129481,165.986694 524.824293,165.917911 524.761257,165.904772 C524.619041,165.873859 524.465294,165.3035 524.529099,165.043052 C524.58906,164.797288 524.762794,164.712275 525.380089,164.627262 C525.651453,164.590166 525.976628,164.492015 526.115,164.405456 C526.251067,164.321217 526.591617,164.133416 526.865287,163.992758 C527.138188,163.852101 527.499494,163.615611 527.659391,163.472635 C528.076814,163.099351 528.858618,161.785518 528.862462,161.449331 C528.871687,160.775412 528.803269,160.553606 528.56573,160.477867 C528.440426,160.438452 528.313585,160.354212 528.288216,160.293931 C528.207499,160.099947 527.512562,159.981702 526.952154,160.06826 C526.644659,160.115404 526.394052,160.11154 526.357921,160.058986 C526.324865,160.01107 526.219549,159.973973 526.135756,159.979383 C526.045046,159.986339 525.861318,159.84259 525.716795,159.653243 C525.504624,159.377338 525.453888,159.216587 525.438513,158.771429 C525.427751,158.449927 525.381627,158.230439 525.326278,158.234303 C525.274004,158.237395 525.021089,158.065823 524.762026,157.848655 C523.50053,156.799133 522.563441,155.968327 522.330514,155.692422 C522.186761,155.522396 521.972283,155.282815 521.844673,155.14834 C521.717063,155.014638 521.613284,154.883255 521.610978,154.851569 C521.606365,154.78124 520.929878,154.007624 520.454799,153.528461 L520.128855,153.200003 L519.539235,153.530779 C519.211753,153.713943 518.886578,153.873922 518.808167,153.890152 C518.732062,153.905608 518.586771,153.958162 518.486836,154.006078 C517.783442,154.341492 517.558971,154.413366 517.111567,154.445053 C516.445073,154.491424 515.521053,154.262662 515.162822,153.962799 C515.012919,153.836825 514.784604,153.696941 514.670831,153.66139 C514.554752,153.625839 514.206515,153.329067 513.903633,153.00911 C513.365518,152.438752 513.188709,152.090972 513.130285,151.488155 C513.087236,151.056135 512.952707,151.052271 512.320806,151.465742 C512.24547,151.515204 512.004087,151.662045 511.77731,151.795746 C511.550533,151.930221 511.209983,152.155118 511.01088,152.302732 C510.251369,152.861497 508.418703,153.706215 507.444715,153.946569 C506.619862,154.149827 505.646642,154.190788 505.140045,154.042402 C504.206031,153.768815 503.302767,153.086395 502.986048,152.414021 C502.809239,152.037646 502.618592,151.930221 502.507125,152.144299 C502.475607,152.203035 502.359528,152.301186 502.250368,152.359149 C502.075096,152.453436 501.575418,152.838312 501.346334,153.057799 C501.296367,153.10417 501.114176,153.25642 500.935061,153.398623 C500.49765,153.747176 499.666647,154.566389 499.063189,155.244946 C498.782601,155.560266 498.495862,155.843126 498.422832,155.877131 C498.349034,155.911137 498.293685,155.993058 498.299066,156.061068 C498.303678,156.129078 498.186062,156.275919 498.033083,156.392618 C497.884717,156.506226 497.597979,156.849368 497.401951,157.147686 C497.205924,157.446003 497.012202,157.711861 496.975303,157.732728 C496.938404,157.752822 496.910729,157.827015 496.915341,157.893479 C496.926104,158.044184 496.36877,158.737424 496.22886,158.747471 C496.17428,158.750563 496.130462,158.820118 496.135075,158.895857 C496.149681,159.097569 495.401701,159.468534 494.912785,159.503312 C494.499205,159.531907 494.431556,159.58446 493.819643,160.347257 C493.507536,160.735997 493.46218,160.884383 493.442962,161.568349 C493.428356,162.140253 493.546741,162.377516 494.117912,162.916188 C494.652183,163.419309 495.03732,163.64266 495.45705,163.691349 C495.952116,163.74854 496.202723,163.969573 496.230398,164.371451 C496.248079,164.625717 496.190424,164.763283 495.979021,164.970405 C495.638471,165.305819 495.376332,165.390059 494.742894,165.368419 C494.241679,165.351417 493.139311,164.992044 492.86026,164.754782 C492.776468,164.682907 492.547385,164.52061 492.340595,164.386908 C492.132268,164.252434 491.966989,164.11564 491.964683,164.076225 C491.962377,164.03681 491.833998,163.810367 491.67487,163.565376 C491.515742,163.320385 491.363532,162.956375 491.330476,162.745389 C491.298189,162.53904 491.222853,162.243041 491.162892,162.097747 C491.026057,161.75615 490.998382,161.322585 491.108312,161.241436 C491.158279,161.205113 491.189798,161.048226 491.179035,160.896748 C491.169042,160.745271 491.202866,160.615433 491.254371,160.611569 C491.305877,160.608478 491.342007,160.520374 491.335089,160.416813 C491.324326,160.26379 491.504979,159.902099 491.94239,159.198039 C491.986977,159.125392 491.93009,158.956912 491.79633,158.766792 C491.675639,158.595221 491.50421,158.321635 491.415037,158.158565 C491.325095,157.993949 491.213628,157.864111 491.163661,157.867976 C491.113693,157.871067 490.996076,157.722681 490.895372,157.531016 C490.794667,157.338578 490.673976,157.117545 490.619396,157.027895 C490.564815,156.937472 490.520997,156.824637 490.517154,156.765128 C490.51331,156.709484 490.414143,156.544868 490.303445,156.410393 C490.152004,156.225684 490.072824,155.961371 490.006713,155.415744 C489.910621,154.625898 489.879103,154.525429 489.539322,153.902517 C489.328688,153.515323 489.225678,152.700746 489.266421,151.740102 C489.271802,151.609491 489.233365,151.382275 489.181091,151.233889 C489.049637,150.865243 488.983526,149.901508 489.003513,148.676551 C489.022731,147.489464 489.086537,146.978615 489.267189,146.571326 C489.340219,146.405165 489.43708,146.151672 489.490123,145.987057 C489.542397,145.821668 489.614658,145.621502 489.65617,145.524896 C489.696144,145.429837 489.723818,145.278359 489.717669,145.184073 C489.699219,144.924397 490.024394,143.976891 490.246559,143.639159 C490.723944,142.912686 491.20056,142.072606 491.193641,141.969818 C491.18211,141.799792 491.835536,141.027722 492.502029,140.424904 C492.821824,140.135861 493.126243,139.857637 493.184667,139.801219 C493.246934,139.741711 493.314583,139.697658 493.347639,139.69534 C493.406063,139.690703 494.078707,139.082475 494.413107,138.730832 C494.511505,138.628043 494.863586,138.289538 495.209517,137.96649 C495.554679,137.644214 495.842186,137.355171 495.857561,137.314983 C495.873705,137.273249 495.936741,137.237698 496.002852,137.233834 C496.067426,137.229197 496.190424,137.13491 496.276522,137.024394 C496.361852,136.91465 496.481006,136.820363 496.540967,136.816499 C496.598622,136.812635 496.732382,136.719894 496.829243,136.616333 C496.929179,136.508907 497.1475,136.38448 497.322771,136.335018 C497.499581,136.285556 497.683308,136.203634 497.739426,136.149535 C497.792469,136.098528 497.88318,136.059885 497.926998,136.067614 C498.056145,136.090799 498.529687,135.907635 498.87408,135.702059 C499.045508,135.599271 499.336859,135.471752 499.510593,135.423835 C499.685865,135.375146 499.882661,135.271585 499.947235,135.194301 C500.013347,135.113925 500.159406,135.046688 500.280867,135.038187 C500.403096,135.029685 500.519175,134.996453 500.549155,134.962448 C500.687528,134.802469 502.763883,133.98171 503.322754,133.865783 C504.614999,133.597607 506.041004,133.444584 506.975018,133.473179 C508.610887,133.524187 510.923244,133.953115 510.940925,134.208926 C510.957069,134.446189 512.007162,134.048947 512.230864,133.720489 C512.356168,133.536552 513.128747,133.110716 513.454691,133.045024 C513.864427,132.963103 514.454048,132.769119 515.575633,132.346374 C516.184472,132.117612 516.490429,132.060422 517.346032,132.017142 C517.919509,131.987774 518.781261,131.997049 519.281708,132.038009 C519.774468,132.07897 520.388688,132.125341 520.636989,132.140797 C521.196629,132.174803 521.474143,132.294593 522.007645,132.729704 C522.134487,132.832492 522.432756,133.000972 522.665683,133.101442 C522.900148,133.201138 523.1177,133.313201 523.145374,133.347206 C523.174586,133.383529 523.29374,133.453085 523.420582,133.507184 C523.737301,133.64475 523.921029,133.784635 524.944216,134.666449 C525.435438,135.089967 525.839793,135.476389 525.842868,135.525851 C525.846712,135.57454 526.021215,135.793254 526.227236,136.006559 C526.879893,136.681251 526.967528,136.781721 526.97291,136.865188 C526.975985,136.915423 527.007503,136.961021 527.051321,136.978023 C527.091295,136.99348 527.245042,137.234607 527.390333,137.508966 C527.534855,137.783326 527.786232,138.162792 527.943054,138.342864 C528.09757,138.522164 528.232867,138.719239 528.236711,138.773338 C528.240555,138.829756 528.284373,138.869171 528.338184,138.865306 C528.391227,138.862215 528.436582,138.929452 528.443501,139.024512 C528.448882,139.11648 528.543437,139.287279 528.658747,139.412479 C528.77252,139.536907 528.870149,139.734755 528.880143,139.861501 C528.901668,140.135088 529.141513,140.819827 529.256055,140.935753 C529.299873,140.979805 529.342153,141.11428 529.349841,141.237162 C529.359065,141.360044 529.485907,141.754194 529.636579,142.122841 C529.887187,142.739569 530.060152,143.279014 530.440677,144.646174 C530.526006,144.953765 530.633629,145.248991 530.680522,145.30309 C530.80967,145.453022 531.13177,146.438397 531.268605,147.102269 C531.442339,147.943896 531.706016,149.358199 531.843619,150.192097 C531.907424,150.5762 531.966617,151.109462 531.972767,151.368364 C532.022735,153.252556 532.005054,154.115822 531.910499,154.465147" id="Fill-1"></path>
        </g>
    </g>
</svg>