<?xml version="1.0" encoding="UTF-8"?>
<svg width="61px" height="141px" viewBox="0 0 61 141" version="1.1" xmlns="http://www.w3.org/2000/svg" xmlns:xlink="http://www.w3.org/1999/xlink">
    <!-- Generator: Sketch 61 (89581) - https://sketch.com -->
    <title>img-boy2-2</title>
    <desc>Created with Sketch.</desc>
    <defs>
        <polygon id="path-1" points="2.57571742e-13 1 55 1 55 54 2.57571742e-13 54"></polygon>
    </defs>
    <g id="Page-1" stroke="none" stroke-width="1" fill="none" fill-rule="evenodd">
        <g id="Group-11" transform="translate(0.000000, -1.000000)">
            <g id="Group-19" transform="translate(2.000000, 3.000000)" fill="#FFFFFF">
                <ellipse id="Oval" cx="16.5" cy="36.5" rx="16.5" ry="12.5"></ellipse>
                <ellipse id="Oval" cx="30" cy="25" rx="25.5" ry="25"></ellipse>
            </g>
            <g id="Group-17">
                <path d="M28.3478248,54.1447837 C28.9693903,54.203293 30.2565614,54.2880305 31.1854065,54.331408 C32.411522,54.3889084 33.1091567,54.5139971 33.6896849,54.7813238 C34.1270829,54.9830797 34.5674835,55.1081684 34.6535619,55.0557119 C34.7426429,55.0012378 34.9868651,55.0315011 35.2140718,55.1263264 C35.4352731,55.2181254 35.8186219,55.3341351 36.063845,55.3825565 C36.3090681,55.4299692 36.6713977,55.6135671 36.869578,55.788086 C37.0627538,55.9595785 37.5441918,56.3873011 37.911526,56.7151546 L38.5941471,57.3234488 L38.5861398,58.7710477 C38.5801343,59.795968 38.4930551,60.3487793 38.2908712,60.6604922 C37.8604796,61.321243 37.7313621,63.1673099 38.0646653,63.8744645 C38.2148019,64.1912214 38.4470132,64.5352153 38.5941471,64.6592952 C38.7342746,64.7773224 38.8573866,64.9699994 38.8573866,65.0739037 C38.8573866,65.3684674 40.2886888,68.374631 41.0243581,69.6295531 C41.3816832,70.2368385 42.2564791,71.4645235 42.7979718,72.117204 C42.9441047,72.2947492 43.0612113,72.5580407 43.0612113,72.7093577 C43.0612113,72.8687449 43.1603014,73.0200618 43.2984271,73.0715096 C43.4255428,73.119931 43.6587549,73.458881 43.8048879,73.8129627 C43.9570263,74.1751147 44.2212667,74.8187162 44.4014306,75.2605617 C44.5815946,75.7013984 44.7057075,76.1089455 44.6806847,76.1785513 C44.6576638,76.2451307 44.8388286,76.6022388 45.0760444,76.9553117 C45.3122593,77.3083846 45.5134424,77.746195 45.5134424,77.9086086 C45.5134424,78.0790923 45.6275462,78.4382179 45.7746801,78.7388343 C46.7785934,80.7684992 47.3040715,84.5060282 46.8146262,86.1170495 C46.6965188,86.5064385 46.5513867,87.0814429 46.4943348,87.3981998 C46.4352811,87.717983 46.1960634,88.4039532 45.9518412,88.9517206 C45.7066181,89.4984792 45.5134424,90.0089218 45.5134424,90.1067734 C45.5134424,90.5869526 43.8319125,91.6592855 42.6588452,91.9276209 C41.8531121,92.1132364 41.6789537,91.8206902 41.9532032,90.7433135 C42.1944227,89.7920342 42.2494728,88.6954906 42.1083444,87.6191225 C42.0643043,87.2801725 41.9882351,86.7092032 41.9401914,86.3561303 C41.8921477,86.0081013 41.7279983,85.4119124 41.5818654,85.0588395 C41.4337306,84.7057666 41.3096177,84.1943153 41.3096177,83.9461554 C41.3096177,83.2450535 40.1735841,80.62727 39.3718546,79.4792787 C39.0595705,79.0344068 39.0625733,78.9950644 39.4699439,78.1113733 C39.6991524,77.61808 39.9463774,76.9008376 40.0134384,76.5407032 C40.0825012,76.1694723 40.2026105,75.7931974 40.286687,75.6842492 C40.5589347,75.3311763 40.6239939,74.1287108 40.3857771,73.8311208 C40.0534748,73.4165123 39.4879603,73.161291 39.0145295,73.21173 C38.2278138,73.2964675 38.1707619,73.3892752 37.7313621,75.3130182 C37.6182592,75.8083291 37.6022446,75.8143818 37.2719441,75.5167918 C37.0797693,75.3422729 36.9306336,75.1072272 36.9306336,74.9781034 C36.9306336,74.8499883 36.6944187,74.3415633 36.3961473,73.8311208 C36.0978759,73.3186607 35.8196228,72.6700153 35.7655736,72.3653638 C35.7125253,72.0657562 35.5784033,71.5785156 35.4673022,71.287987 C35.3541993,70.9883794 35.2581119,70.6827191 35.2491037,70.5818412 C35.2400955,70.4860071 35.2200773,70.3175409 35.2070654,70.211619 C35.178039,69.9876699 34.2501949,69.5226224 33.5145255,69.3632352 C32.7268089,69.1917427 32.0361805,69.7707822 32.1012397,70.5475426 C32.1272634,70.8642995 32.2293563,71.3051363 32.3324501,71.5532961 C32.433542,71.7954032 32.7688471,72.6296641 33.0771276,73.4074333 C33.3854081,74.1831849 33.7117049,74.9619629 33.8037887,75.1374906 C34.3112504,76.1079367 35.0228979,77.3971572 35.5203505,78.2445322 C35.8376392,78.786247 36.2490134,79.6477449 36.4491956,80.1945035 C36.6493777,80.7422709 36.9896873,81.447408 37.2188958,81.7924106 C37.4430998,82.1273255 37.631271,82.5197409 37.631271,82.6488647 C37.631271,82.7810148 37.7393694,83.0987804 37.8754932,83.3640895 C38.8784057,85.3241486 39.2177144,89.4016364 38.5451025,91.4131432 C38.2448293,92.3139836 38.0666672,92.559117 37.3600242,93.0463577 C36.9046099,93.3610969 36.4011519,93.5810109 36.2480125,93.5325895 C36.0908695,93.4831593 35.6344543,93.4044745 35.2140718,93.3540355 C34.2682113,93.2400434 33.3563817,92.8678036 32.6036969,92.2877553 C32.2894109,92.0436306 31.9240785,91.8549888 31.7719401,91.8549888 C31.6147971,91.8549888 31.4996924,91.7924444 31.4996924,91.7046806 C31.4996924,91.6219606 31.0883181,91.2900721 30.5808564,90.9642362 C30.0783993,90.6404179 28.9083347,89.6891386 27.9965052,88.862948 C27.0856765,88.0367574 26.0247112,87.076399 25.6503706,86.7404754 C24.8886776,86.0555139 24.8656566,86.0292856 23.7166112,84.5816867 C23.2812151,84.0349281 22.9168836,83.5033011 22.9168836,83.4175548 C22.9168836,83.3307998 22.7126978,82.8869367 22.4684756,82.4460999 C21.7648355,81.1750374 20.6348073,80.9087196 19.6068721,81.7722351 C19.0113303,82.2725898 19.0013212,82.3018444 19.2505479,82.7981641 C19.4977729,83.2934749 20.1533693,84.3658078 20.4166088,84.7057666 C20.4906762,84.8026095 20.8680195,85.3584471 21.2533701,85.9415218 C21.6387207,86.5245965 22.3994128,87.3981998 22.9439082,87.8824141 C23.4874027,88.3676371 23.9418161,88.8659743 23.9508243,88.9860191 C23.9608334,89.110099 24.0379035,89.2069419 24.1259837,89.2069419 C24.3361749,89.2069419 26.0707531,90.923885 26.0707531,91.1316937 C26.0707531,91.2194575 26.2098796,91.3415199 26.3860399,91.4070905 C27.1567411,91.6915664 27.6341755,92.0900344 27.9154314,92.6852145 C28.3288075,93.5568002 28.0495534,93.7252664 26.3329917,93.6385114 C25.9406347,93.6193446 24.9487322,93.6939943 24.1440001,93.8029425 C22.3393582,94.0500935 15.1878516,94.0702691 14.5442661,93.8321971 C14.2860311,93.7353542 13.3892152,93.5598266 12.5644648,93.4438169 C11.5665569,93.3035965 10.7167837,93.0594718 10.0431709,92.7205218 C9.48166001,92.4380635 8.88611818,92.2080617 8.71195972,92.2080617 C8.29157725,92.2080617 8.22251442,91.7672249 8.09139512,88.2364958 C7.95627218,84.5816867 7.95427036,84.7087929 8.19949347,81.7924106 C8.41669108,79.2149784 8.44271476,79.0112048 8.60386137,78.6147544 C8.6629151,78.4684813 8.83707355,77.7139141 8.98921197,76.9381624 C9.5367101,74.1478776 9.84499057,72.8717712 10.1792947,71.9941328 C10.3674659,71.4998307 10.590669,70.8400888 10.6847546,70.4940773 C10.9710151,69.4469639 11.20723,68.7983185 11.878841,67.2286572 C12.5344375,65.6912769 12.7936733,65.2232031 13.0378955,65.1314041 C13.1790239,65.0789476 13.2831186,64.9518413 13.2831186,64.8358316 C13.2831186,64.7208307 13.424247,64.4292934 13.6074137,64.1649931 C13.783574,63.9117894 13.9877597,63.4588473 14.0548208,63.1763889 C14.1218818,62.8888867 14.4081422,62.3118647 14.6934017,61.8881772 C14.9786613,61.4644897 15.2098716,61.0801446 15.2098716,61.0317232 C15.2098716,60.982293 15.4811184,60.5727284 15.8154226,60.1137336 C16.1487258,59.65373 16.639172,58.97583 16.9114197,58.59552 C17.6941319,57.500994 19.7580096,55.4884784 20.0973183,55.4884784 C20.2544613,55.4884784 20.4776644,55.4047497 20.5697482,55.3119419 C20.783943,55.0960631 23.1450912,54.2426354 23.9688407,54.0832482 C24.6504609,53.9521068 26.5962312,53.9783351 28.3478248,54.1447837" id="Fill-1" fill="#FFFFFF"></path>
                <path d="M41.7278063,94.3024867 C42.2693758,94.4729962 42.7799699,94.6702717 42.8469166,94.7356998 C42.9138634,94.8021192 43.2056315,94.8586252 43.4854091,94.8586252 L44,94.8586252 L43.8960826,96.5498417 C43.8371295,97.4866527 43.7202224,98.6623753 43.6332915,99.1867912 C43.5463606,99.7062504 43.5113884,100.22571 43.5543543,100.340704 C43.5983193,100.454708 43.5083908,101.024725 43.3535139,101.61556 C43.1996362,102.205404 43.1216982,102.75163 43.1786529,102.837876 C43.2366069,102.92313 43.052753,103.688441 42.7769722,104.521161 C42.4991931,105.353882 42.1224925,106.560336 41.9466323,107.174964 C41.7667753,107.799504 41.4899953,108.496412 41.3251264,108.737307 C41.1622559,108.975227 40.9764036,109.413397 40.9144529,109.708814 C40.8515029,110.003241 40.6546594,110.402748 40.4768008,110.594076 C40.2989422,110.784412 40.1060955,111.092717 40.0481415,111.278097 C39.992186,111.463476 39.6064926,112.136592 39.2028135,112.762124 C37.7169947,115.056072 37.7779462,114.860779 37.7309835,117.497729 C37.7080018,118.838013 37.6320622,121.054636 37.5641162,122.442504 C37.4252266,125.252937 37.4252266,125.252937 37.4781845,127.386289 C37.5391361,129.902296 37.3223084,132.503557 36.9575983,133.614843 C36.7747437,134.16999 36.6218652,134.768756 36.6218652,134.925387 C36.6218652,135.086975 36.4839749,135.3586 36.3061162,135.548936 C36.1282576,135.740264 35.940407,136.015855 35.8744594,136.182399 C35.7725404,136.439155 34.925214,136.763321 33.9110202,136.93383 C31.5678829,137.32739 31.5678829,137.32739 31.9785564,134.898621 C32.5071362,131.765013 32.5491029,131.273311 32.5840751,127.7511 C32.6020608,125.859634 32.6610139,124.224924 32.7139718,124.133721 C32.7659305,124.042518 32.8368741,123.023426 32.8708471,121.861583 C32.9048201,120.698747 32.9817589,119.480397 33.0427105,119.146318 C33.1606168,118.500959 33.176604,118.001326 33.1186501,116.924737 C33.0337176,115.347524 33.3194905,113.958665 33.9070234,113.109091 C34.2427565,112.622346 34.6404404,112.257535 34.8902418,112.206977 C35.3798526,112.10487 37.3213092,110.844884 37.3213092,110.627781 C37.3213092,110.555414 37.4781845,110.440419 37.6530455,110.386887 C38.0547262,110.26297 38.8950582,109.510547 38.8950582,109.275601 C38.8950582,109.187372 39.0169613,109.019837 39.1738366,108.891955 C39.5505371,108.585632 40.2100128,107.540766 40.3329151,107.054021 C40.3878715,106.833945 40.3199255,106.42948 40.1800367,106.151907 C39.9282368,105.653265 39.8033361,105.597751 38.4584053,105.384614 C38.3524895,105.367761 37.6610391,105.96157 36.9356158,106.68921 C36.0213426,107.609168 35.2309709,108.212891 34.400631,108.62826 C32.5990632,109.528391 30.781508,111.129396 30.6316272,111.946256 C30.5786693,112.235726 30.3988122,112.813674 30.2279481,113.246887 C29.975149,113.886297 29.7553238,116.006762 29.795292,117.411482 C29.8302642,118.677416 29.7783055,120.942616 29.7113587,121.054636 C29.6653953,121.129978 29.5894556,122.946102 29.5434922,125.079454 C29.4345788,130.12832 29.3006852,132.069353 29.0019227,132.903065 C28.8640323,133.284729 28.7531205,133.801214 28.7531205,134.049047 C28.7531205,134.299855 28.639211,134.84608 28.4993222,135.280285 C28.3614319,135.705567 28.1166265,136.512513 27.963748,137.049817 C27.6280149,138.230496 27.2902834,138.568541 26.4789284,138.543758 C26.1441944,138.532853 25.2728871,138.615134 24.5554574,138.72418 C23.8320325,138.834218 21.4429317,138.949213 19.2226967,138.980936 C15.0250336,139.041407 14.7252719,138.997789 14.1057644,138.247349 C13.8060027,137.882537 13.8309828,137.108305 14.1507286,136.847584 C14.2936151,136.731598 14.4135197,136.486739 14.4135197,136.312264 C14.4135197,136.13085 14.5883807,135.943487 14.8152004,135.881033 C16.4159279,135.440881 16.960495,134.621047 17.5760057,131.724368 C17.936719,130.023238 17.9447126,129.841824 17.6919136,128.991259 C17.5410335,128.483696 17.3401932,127.54292 17.237275,126.86683 C17.135356,126.189748 16.9065379,125.34414 16.7226841,124.958511 C16.537831,124.573873 16.2100915,123.760979 15.9872687,123.136439 C15.765445,122.511898 15.5346285,121.930976 15.4716786,121.834816 C15.4077294,121.738657 15.2568493,121.314366 15.1309494,120.881153 C15.0040503,120.446948 14.8411798,120.022657 14.7632417,119.927489 C14.6873021,119.833312 14.5663982,119.397125 14.5014498,118.981756 C14.4355023,118.565396 14.2376595,117.88534 14.0727906,117.506651 C13.9059232,117.124987 13.7070813,116.487559 13.6361377,116.10986 C13.5631957,115.728197 13.3963283,115.181971 13.2664316,114.895476 C12.806797,113.889271 12.3151878,112.303136 12.3151878,111.825313 C12.3151878,111.563601 12.1563141,110.957896 11.956473,110.454298 C11.7566318,109.951691 11.4938407,109.083282 11.3619456,108.493438 C11.233048,107.917473 10.9942379,106.941009 10.8373626,106.351165 C10.6804873,105.762312 10.6015501,105.184364 10.6625016,105.085231 C10.7284492,104.980149 10.6894802,104.798735 10.5715739,104.659948 C10.3517486,104.399227 9.87412832,102.335269 9.87013149,101.624482 C9.86813308,101.389536 9.74223317,100.834389 9.59634914,100.418028 C9.44446987,99.986798 9.30158346,99.2214879 9.27260649,98.6831933 C9.24362953,98.1597687 9.15569943,97.2695505 9.0797598,96.7312559 C8.94087021,95.7428955 8.94087021,95.7428955 9.43048099,95.6209614 C9.90410449,95.5039839 11.2830083,95.8489683 12.3151878,96.3436441 C12.7378518,96.5458764 16.634754,96.9434015 18.5222535,96.9761155 C19.0038706,96.9850375 20.0260581,96.9324968 20.7964456,96.862112 C21.5648348,96.790736 22.3132399,96.7391866 22.4571255,96.7490999 C22.6010111,96.7590133 24.4765202,96.7778486 26.6098243,96.7927186 C30.4577654,96.817502 30.5077257,96.8135366 31.1482165,96.4021329 C32.0574937,95.8182369 32.7629329,95.5267846 32.9667709,95.6516927 C33.0636938,95.7121641 33.5443117,95.7984102 34.050909,95.8469856 C34.5575063,95.8945697 35.0990758,96.0085731 35.274936,96.1017586 C35.5836905,96.2673114 37.9158366,96.1671866 38.4404196,95.9649544 C38.5843052,95.9094397 38.8421003,95.569412 39.0149628,95.2046009 C39.2947404,94.614757 40.0421463,94.0318524 40.555738,94 C40.6506626,93.995173 41.1852376,94.1329685 41.7278063,94.3024867" id="Fill-3" fill="#FFFFFF"></path>
                <g id="Group-7" transform="translate(6.000000, 0.000000)">
                    <mask id="mask-2" fill="white">
                        <use xlink:href="#path-1"></use>
                    </mask>
                    <g id="Clip-6"></g>
                    <path d="M22.2334785,1.0637766 C21.7597124,1.13112932 20.9330996,1.24271368 20.4117587,1.31006641 C19.891409,1.37741913 19.3829529,1.50508772 19.292759,1.59154047 C19.1976093,1.6840248 19.0410088,1.75037226 18.9200894,1.75037226 C18.806108,1.75037226 18.4086599,1.88608297 18.0439195,2.04893581 C17.6791791,2.21279393 17.2381208,2.37263098 17.0726,2.40077839 C16.9070792,2.42993106 16.1617401,2.70034721 15.4342416,2.99690024 C12.2596125,4.28967039 11.5806799,4.64854982 11.5707685,5.03959771 C11.5677951,5.15922418 11.3923629,5.34318759 11.1663824,5.46281406 C10.3229202,5.91116203 9.36349436,6.67616832 6.43169512,9.23356121 C5.99757475,9.61254593 5.52281754,9.99454644 5.3909956,10.0709465 C5.25421795,10.1503624 5.14816571,10.3353311 5.14816571,10.4931576 C5.14816571,10.6479684 4.96777779,11.0209215 4.74873532,11.3204903 C4.53068399,11.6190539 4.0797142,12.3317864 3.75164606,12.8947345 C3.42357792,13.4576826 3.01522725,14.1352309 2.84970647,14.3905681 C2.67823884,14.6539474 2.50082435,14.990711 2.4413558,15.1646218 C2.3828784,15.3405431 2.26394131,15.4722327 2.16482707,15.4722327 C2.06472169,15.4722327 2.03102285,15.6310645 2.08553568,15.84217 C2.18365878,16.22216 2.02507599,16.6162237 1.46408939,17.3902774 C1.29856861,17.6184724 1.15782639,18.0054993 1.15782639,18.2346996 C1.15782639,18.6800317 0.573052369,20.6262238 0.285621072,21.1368982 C0.193444828,21.3017616 0.0784723093,22.4829473 0.0308974739,23.7666701 C-0.0384824944,25.6314358 0.00116320176,26.2778208 0.230117097,26.9955797 C0.594857502,28.1385654 0.840660818,28.3979237 1.41849684,28.247134 C2.02507599,28.0883022 2.45622294,27.0830377 2.79222021,25.0423508 C2.93296243,24.1808391 3.20949117,23.0418744 3.40474622,22.5090842 C3.59801899,21.9813204 3.7595752,21.2896984 3.7595752,20.9871138 C3.7595752,20.6885502 3.87653,20.2030075 4.01132537,19.9325913 C4.15008531,19.6561436 4.70413391,18.4809894 5.24331538,17.3189036 C7.05710598,13.4144563 7.2305559,13.1420296 7.24740532,14.1704152 C7.32570557,19.0087532 7.66665856,21.3510195 8.6657301,23.9164545 C9.19301786,25.2715511 10.2664251,26.5552738 10.8720131,26.5552738 C11.3745223,26.5552738 11.6797942,26.1270312 11.4220971,25.7812202 C11.2139572,25.5017566 10.7372177,24.1104706 10.6044046,23.3886907 C10.1118069,20.7317766 9.98791407,19.4591117 9.98791407,17.0555243 C9.98791407,13.6949251 10.1970451,11.8301594 10.6807226,10.8982792 C10.8809334,10.5112524 11.0018528,10.084015 10.9483311,9.94830427 C10.8343497,9.65878809 11.4092123,9.05663466 12.1733831,8.66558677 C12.4667612,8.51580235 12.8285282,8.27755467 13.0049516,8.11771761 C13.3231083,7.83121723 14.6879114,7.07827412 16.9427603,5.94735155 C18.2302543,5.30096648 18.5038096,5.23059796 22.5803783,4.48569697 C24.3148775,4.16903865 26.5142225,4.13586492 28.2170052,4.39823896 C28.9286454,4.50881805 29.872213,4.60029712 30.2993954,4.60029712 C30.7325246,4.60029712 31.2211578,4.67870775 31.3995634,4.77621841 C31.5809425,4.87573959 31.9902843,4.98631869 32.336193,5.03055033 C32.684084,5.07578723 33.1499209,5.21049267 33.4036534,5.33916653 C33.651439,5.46482459 34.3224424,5.78952503 34.8943316,6.05994118 C35.468203,6.33136259 36.0727999,6.6198735 36.2393118,6.70230519 C36.4127617,6.78775268 36.6248662,6.8520896 36.7338919,6.8520896 C37.0332169,6.8520896 39.2662607,8.22628618 39.9600604,8.837487 C40.3129071,9.14811373 41.0265296,9.81460409 41.5468794,10.3182416 C42.0672291,10.8208739 42.734268,11.4059378 43.0296284,11.6180486 C43.8007372,12.1709441 45.094178,13.8366674 45.5332541,14.8389161 C45.7641903,15.3686905 46.3430175,16.1135915 47.0368172,16.7740502 C47.6612369,17.3681616 48.1637461,17.9220623 48.1637461,18.0145466 C48.1637461,18.1060257 48.330258,18.3573418 48.5284865,18.5684474 C48.7257238,18.7785477 49.1112782,19.3867327 49.3699664,19.8964018 C49.6296457,20.4090867 50.1361195,21.383188 50.4820282,22.0345994 C51.2888181,23.5525488 51.49002,24.8312452 51.3572069,27.6108016 C51.2015975,30.8829375 50.6227704,33.898731 49.7525473,35.9675654 C49.6692914,36.1645972 49.5305314,36.5124187 49.4383552,36.7587085 C49.0200931,37.8675153 47.7187231,40.4168661 47.2746913,40.9989142 C47.0051006,41.3507568 46.7771378,41.7227046 46.7771378,41.8081521 C46.7771378,42.1418999 42.1653522,47.3149911 41.8680095,47.3149911 C41.7302407,47.3149911 40.8788494,47.884976 40.2722702,48.3835872 C40.0819709,48.5414138 39.45656,48.9264301 38.8846709,49.2410778 C38.3127817,49.5557256 37.7270165,49.9156103 37.5833009,50.0412684 C37.4385941,50.168937 36.9945623,50.3599372 36.5782825,50.4725269 C35.6059718,50.7369114 33.2470529,51.8648182 33.2470529,52.0648658 C33.2470529,52.1503133 32.969533,52.2749661 32.6404737,52.3372925 C32.0844428,52.44184 32.0338946,52.5011506 32.0338946,53.0319303 C32.0338946,53.5838205 32.0765137,53.6220205 32.9090733,53.805984 C33.3947331,53.9135473 33.9319323,54 34.1143025,54 C34.8943316,54 39.3267204,52.5715191 40.0115998,52.1000501 C40.2554208,51.9321709 40.6627804,51.7039759 40.9403002,51.5803283 C41.2108821,51.4596966 41.676719,51.1631436 41.9720795,50.9228854 C43.2377683,49.8894735 44.4717406,48.9505564 45.0426386,48.5836349 C45.3746713,48.3705188 45.845464,47.9040761 46.082347,47.5522335 C46.3261681,47.1923488 46.8286773,46.5932112 47.2281076,46.1890948 C48.3381871,45.0631986 50.0726863,43.0245222 50.0726863,42.8455851 C50.0726863,42.6415164 52.1035371,38.4475529 52.604064,37.6212255 C52.8141862,37.2723987 53.0718833,36.5305135 53.1769444,35.9675654 C53.2820054,35.4046172 53.4366237,34.8607692 53.5218619,34.7532058 C53.9212923,34.2515789 54.5813931,30.9181218 54.5714817,29.4584777 C54.5675171,28.9658981 54.6824897,28.2421077 54.8341345,27.8128597 C55.0125401,27.3031906 55.0472301,26.9453165 54.9372133,26.7402425 C54.8470193,26.5713581 54.8143116,26.2737998 54.8638687,26.080789 C55.0868758,25.2182721 52.8637434,19.4229222 52.067856,18.7896056 C51.824035,18.5965948 51.6337356,18.3141155 51.6337356,18.1462363 C51.6337356,17.6456146 50.3839051,15.9366649 49.2916661,14.941453 C48.719777,14.420726 48.1102244,13.812541 47.9397479,13.5893723 C47.7623334,13.3611773 47.4986895,13.1812349 47.3311864,13.1762086 C47.1696302,13.1711823 46.8029075,12.8515082 46.5164674,12.4634761 C46.2310184,12.0784597 45.6412886,11.2672113 45.2101417,10.6690789 C44.0296911,9.03351357 41.2584569,6.31929942 40.3584996,5.91920415 C40.1186432,5.81164084 39.6042403,5.46683512 39.205801,5.14515048 C38.8063706,4.82346584 38.3266577,4.56511286 38.1304115,4.56511286 C37.9381299,4.56511286 37.3930016,4.35199679 36.9420318,4.0996754 C33.4353699,2.13639383 29.6561439,1.16932938 25.3545859,1.13313985 C24.297037,1.12409247 23.3693277,1.07785031 23.274178,1.02859235 C23.1760549,0.979334385 22.7181471,0.995418617 22.2334785,1.0637766" id="Fill-5" fill="#5FC2C7" mask="url(#mask-2)"></path>
                </g>
                <path d="M20.6300786,13.3321139 C19.9527968,13.7439352 19.7760252,14.0427075 19.4080937,15.4023234 C18.6177603,18.3183815 19.0226905,24.4997383 20.2148709,27.7327372 C20.3967812,28.2273265 20.5930799,28.8490959 20.6598831,29.1458495 C20.7719069,29.6404388 22.0288351,31.0000547 22.3741563,31.0000547 C22.4625421,31.0000547 22.5910098,30.9122398 22.6567853,30.8062564 C22.8756943,30.451969 24.3885301,29.9240706 24.874652,30.0310634 C25.1305596,30.0885973 25.7287053,30.48225 26.1963278,30.9031555 L27.0503812,31.671283 L26.9928277,32.8027822 C26.9301354,34.0392554 26.8417496,34.2502129 25.6629299,35.999444 C24.6989081,37.4307248 23.9260463,37.8899863 22.4830969,37.8899863 C21.7451784,37.8899863 21.452272,37.9616513 21.3330539,38.1715994 C21.1531991,38.4895497 21.2477514,39.1264596 21.4748823,39.1264596 C21.543741,39.1264596 21.9250332,39.3424639 22.3032421,39.593796 C22.9527749,40.0278233 23.1028252,40.0540668 24.3433095,39.947074 C25.5128796,39.8471468 25.8242853,39.7411634 26.7811129,39.1183846 C29.4820182,37.3610786 30,36.4233777 30,33.2963621 C30,31.0707103 29.7410091,30.4499503 28.2559223,29.1216247 C26.8304445,27.8467956 25.4861583,27.2482416 24.0113489,27.2320918 C23.3638716,27.2260356 22.7092001,27.2553072 22.5725105,27.2977005 C22.0606951,27.4571804 21.7873158,25.3657742 21.7657332,21.1082688 C21.7462061,17.3988491 21.7729274,17.0496085 22.1624415,15.8615849 C22.6033427,14.5191282 22.5786769,13.7449446 22.0791944,13.2483365 C21.7235958,12.8930397 21.3135268,12.9172645 20.6300786,13.3321139" id="Fill-8" fill="#5FC2C7"></path>
                <g id="Group-12" transform="translate(0.000000, 29.000000)" fill="#5FC2C7">
                    <path d="M41.7278063,65.3024867 C42.2693758,65.4729962 42.7799699,65.6702717 42.8469166,65.7356998 C42.9138634,65.8021192 43.2056315,65.8586252 43.4854091,65.8586252 L44,65.8586252 L43.8960826,67.5498417 C43.8371295,68.4866527 43.7202224,69.6623753 43.6332915,70.1867912 C43.5463606,70.7062504 43.5113884,71.2257096 43.5543543,71.3407044 C43.5983193,71.4547078 43.5083908,72.0247251 43.3535139,72.6155604 C43.1996362,73.2054044 43.1216982,73.7516296 43.1786529,73.8378757 C43.2366069,73.9231304 43.052753,74.6884406 42.7769722,75.5211615 C42.4991931,76.3538824 42.1224925,77.5603363 41.9466323,78.1749636 C41.7667753,78.7995043 41.4899953,79.4964124 41.3251264,79.7373066 C41.1622559,79.9752269 40.9764036,80.4133967 40.9144529,80.7088143 C40.8515029,81.0032406 40.6546594,81.4027484 40.4768008,81.5940759 C40.2989422,81.7844121 40.1060955,82.0927171 40.0481415,82.2780966 C39.992186,82.4634762 39.6064926,83.1365922 39.2028135,83.7621242 C37.7169947,86.056072 37.7779462,85.8607791 37.7309835,88.4977285 C37.7080018,89.8380126 37.6320622,92.0546363 37.5641162,93.4425045 C37.4252266,96.2529374 37.4252266,96.2529374 37.4781845,98.386289 C37.5391361,100.902296 37.3223084,103.503557 36.9575983,104.614843 C36.7747437,105.16999 36.6218652,105.768756 36.6218652,105.925387 C36.6218652,106.086975 36.4839749,106.3586 36.3061162,106.548936 C36.1282576,106.740264 35.940407,107.015855 35.8744594,107.182399 C35.7725404,107.439155 34.925214,107.763321 33.9110202,107.93383 C31.5678829,108.32739 31.5678829,108.32739 31.9785564,105.898621 C32.5071362,102.765013 32.5491029,102.273311 32.5840751,98.7511001 C32.6020608,96.8596341 32.6610139,95.2249237 32.7139718,95.1337209 C32.7659305,95.0425181 32.8368741,94.0234264 32.8708471,92.8615825 C32.9048201,91.6987473 32.9817589,90.4803973 33.0427105,90.1463176 C33.1606168,89.5009589 33.176604,89.0013264 33.1186501,87.9247373 C33.0337176,86.3475243 33.3194905,84.9586648 33.9070234,84.1090912 C34.2427565,83.6223461 34.6404404,83.257535 34.8902418,83.2069769 C35.3798526,83.1048695 37.3213092,81.8448835 37.3213092,81.6277813 C37.3213092,81.5554139 37.4781845,81.4404191 37.6530455,81.386887 C38.0547262,81.2629702 38.8950582,80.5105474 38.8950582,80.2756012 C38.8950582,80.1873724 39.0169613,80.0198369 39.1738366,79.8919548 C39.5505371,79.5856324 40.2100128,78.540766 40.3329151,78.0540208 C40.3878715,77.8339446 40.3199255,77.4294802 40.1800367,77.1519065 C39.9282368,76.6532653 39.8033361,76.5977506 38.4584053,76.3846137 C38.3524895,76.367761 37.6610391,76.9615703 36.9356158,77.6892098 C36.0213426,78.6091681 35.2309709,79.2128907 34.400631,79.6282598 C32.5990632,80.5283914 30.781508,82.1293965 30.6316272,82.946256 C30.5786693,83.2357256 30.3988122,83.8136736 30.2279481,84.2468867 C29.975149,84.8862974 29.7553238,87.0067616 29.795292,88.4114825 C29.8302642,89.6774165 29.7783055,91.9426155 29.7113587,92.0546363 C29.6653953,92.1299777 29.5894556,93.9461023 29.5434922,96.0794539 C29.4345788,101.12832 29.3006852,103.069353 29.0019227,103.903065 C28.8640323,104.284729 28.7531205,104.801214 28.7531205,105.049047 C28.7531205,105.299855 28.639211,105.84608 28.4993222,106.280285 C28.3614319,106.705567 28.1166265,107.512513 27.963748,108.049817 C27.6280149,109.230496 27.2902834,109.568541 26.4789284,109.543758 C26.1441944,109.532853 25.2728871,109.615134 24.5554574,109.72418 C23.8320325,109.834218 21.4429317,109.949213 19.2226967,109.980936 C15.0250336,110.041407 14.7252719,109.997789 14.1057644,109.247349 C13.8060027,108.882537 13.8309828,108.108305 14.1507286,107.847584 C14.2936151,107.731598 14.4135197,107.486739 14.4135197,107.312264 C14.4135197,107.13085 14.5883807,106.943487 14.8152004,106.881033 C16.4159279,106.440881 16.960495,105.621047 17.5760057,102.724368 C17.936719,101.023238 17.9447126,100.841824 17.6919136,99.9912594 C17.5410335,99.4836962 17.3401932,98.5429199 17.237275,97.8668298 C17.135356,97.1897484 16.9065379,96.3441402 16.7226841,95.9585111 C16.537831,95.5738734 16.2100915,94.7609792 15.9872687,94.1364385 C15.765445,93.5118979 15.5346285,92.9309759 15.4716786,92.8348165 C15.4077294,92.738657 15.2568493,92.3143659 15.1309494,91.8811528 C15.0040503,91.4469483 14.8411798,91.0226572 14.7632417,90.9274891 C14.6873021,90.8333124 14.5663982,90.3971252 14.5014498,89.9817561 C14.4355023,89.5653957 14.2376595,88.8853403 14.0727906,88.5066506 C13.9059232,88.1249868 13.7070813,87.4875588 13.6361377,87.1098604 C13.5631957,86.7281967 13.3963283,86.1819714 13.2664316,85.8954758 C12.806797,84.8892714 12.3151878,83.3031364 12.3151878,82.8253132 C12.3151878,82.5636009 12.1563141,81.9578956 11.956473,81.4542978 C11.7566318,80.9516912 11.4938407,80.0832823 11.3619456,79.4934383 C11.233048,78.9174731 10.9942379,77.9410087 10.8373626,77.3511647 C10.6804873,76.7623121 10.6015501,76.1843642 10.6625016,76.0852307 C10.7284492,75.9801493 10.6894802,75.7987351 10.5715739,75.6599483 C10.3517486,75.3992273 9.87412832,73.3352692 9.87013149,72.6244824 C9.86813308,72.3895362 9.74223317,71.8343889 9.59634914,71.4180285 C9.44446987,70.986798 9.30158346,70.2214879 9.27260649,69.6831933 C9.24362953,69.1597687 9.15569943,68.2695505 9.0797598,67.7312559 C8.94087021,66.7428955 8.94087021,66.7428955 9.43048099,66.6209614 C9.90410449,66.5039839 11.2830083,66.8489683 12.3151878,67.3436441 C12.7378518,67.5458764 16.634754,67.9434015 18.5222535,67.9761155 C19.0038706,67.9850375 20.0260581,67.9324968 20.7964456,67.862112 C21.5648348,67.790736 22.3132399,67.7391866 22.4571255,67.7490999 C22.6010111,67.7590133 24.4765202,67.7778486 26.6098243,67.7927186 C30.4577654,67.817502 30.5077257,67.8135366 31.1482165,67.4021329 C32.0574937,66.8182369 32.7629329,66.5267846 32.9667709,66.6516927 C33.0636938,66.7121641 33.5443117,66.7984102 34.050909,66.8469856 C34.5575063,66.8945697 35.0990758,67.0085731 35.274936,67.1017586 C35.5836905,67.2673114 37.9158366,67.1671866 38.4404196,66.9649544 C38.5843052,66.9094397 38.8421003,66.569412 39.0149628,66.2046009 C39.2947404,65.614757 40.0421463,65.0318524 40.555738,65 C40.6506626,64.995173 41.1852376,65.1329685 41.7278063,65.3024867 M28.3479142,25.1447837 C28.9694768,25.203293 30.2566417,25.2880305 31.1854823,25.331408 C32.4105911,25.3889084 33.1082224,25.5139971 33.6897487,25.7813238 C34.1271446,25.9830797 34.5675432,26.1081684 34.6526202,26.0557119 C34.7417008,26.0012378 34.9859218,26.0315011 35.2141283,26.1263264 C35.4353285,26.2181254 35.8186755,26.3341351 36.0638974,26.3815477 C36.3091193,26.4299692 36.6714473,26.6135671 36.8686257,26.788086 C37.0628014,26.9595785 37.5432363,27.3873011 37.9105687,27.7151546 L38.5941874,28.3234488 L38.5851792,29.7710477 C38.5791738,30.7949592 38.492095,31.3487793 38.289912,31.6604922 C37.8605234,32.321243 37.7314065,34.1673099 38.0647082,34.8734558 C38.2148441,35.1912214 38.4460533,35.5352153 38.5941874,35.6592952 C38.7343142,35.7773224 38.8574256,35.9699994 38.8574256,36.0739037 C38.8574256,36.3684674 40.2877201,39.374631 41.0243868,40.6295531 C41.3817102,41.2368385 42.2565019,42.4645235 42.796991,43.117204 C42.9441242,43.2947492 43.0612302,43.5580407 43.0612302,43.7093577 C43.0612302,43.8677361 43.159319,44.0200618 43.297444,44.0715096 C43.4255599,44.119931 43.658771,44.458881 43.8049032,44.8129627 C43.95604,45.1751147 44.2212801,45.8187162 44.4014431,46.2605617 C44.5806053,46.7013984 44.7047176,47.1089455 44.6806958,47.1785513 C44.657675,47.2451307 44.8378381,47.6022388 45.0760537,47.9553117 C45.3122674,48.3083846 45.5134495,48.746195 45.5134495,48.9086086 C45.5134495,49.0790923 45.6265519,49.4382179 45.7746859,49.7388343 C46.7785945,51.7684992 47.3040701,55.5060282 46.8146271,57.1170495 C46.6965202,57.5064385 46.5513889,58.0814429 46.4943372,58.3981998 C46.4352838,58.717983 46.1960673,59.4039532 45.9518463,59.9517206 C45.7056234,60.4984792 45.5134495,61.0089218 45.5134495,61.1067734 C45.5134495,61.5869526 43.8309268,62.6582767 42.6578651,62.9276209 C41.8531368,63.1132364 41.6789792,62.8206902 41.9522265,61.7433135 C42.1944457,60.7920342 42.2484946,59.6954906 42.1083678,58.6191225 C42.064328,58.2801725 41.9882591,57.7092032 41.9402156,57.3561303 C41.8921722,57.0081013 41.7280236,56.4119124 41.5808904,56.0578307 C41.4337573,55.7057666 41.309645,55.1943153 41.309645,54.9461554 C41.309645,54.2450535 40.1736168,51.62727 39.3708903,50.4792787 C39.0596086,50.0344068 39.0626113,49.9950644 39.46998,49.1113733 C39.6981865,48.6170712 39.9464112,47.9008376 40.0134719,47.5407032 C40.0815335,47.1694723 40.2016422,46.7931974 40.2857183,46.6832404 C40.5589656,46.3311763 40.6230235,45.1287108 40.3858089,44.8311208 C40.0535081,44.4155035 39.4879963,44.161291 39.0145678,44.21173 C38.2278558,44.2964675 38.1708042,44.3892752 37.7314065,46.3130182 C37.6173033,46.8083291 37.6022897,46.8143818 37.2719908,46.515783 C37.0788159,46.3422729 36.9306819,46.1072272 36.9306819,45.9781034 C36.9306819,45.8499883 36.6944681,45.3415633 36.3961982,44.8311208 C36.0979282,44.3186607 35.8186755,43.6700153 35.7656275,43.364355 C35.7125795,43.0657562 35.5774572,42.5785156 35.4673575,42.287987 C35.3542552,41.9883794 35.2581682,41.6817104 35.2481591,41.5818412 C35.239151,41.4860071 35.2201338,41.3175409 35.2061211,41.211619 C35.1780957,40.9876699 34.250256,40.5226224 33.5145902,40.3632352 C32.7268773,40.1917427 32.0352514,40.7707822 32.1013112,41.5475426 C32.1273347,41.8642995 32.2294271,42.3051363 32.3325204,42.5532961 C32.4336119,42.7954032 32.7689154,43.6296641 33.0761935,44.4074333 C33.3854734,45.1831849 33.7117687,45.9619629 33.803852,46.1374906 C34.3113113,47.1079367 35.0229553,48.3971572 35.5204055,49.2445322 C35.8376927,49.786247 36.2480641,50.6477449 36.4482453,51.1945035 C36.6494273,51.7422709 36.9887344,52.447408 37.2189428,52.7924106 C37.4431457,53.1273255 37.631316,53.5197409 37.631316,53.6488647 C37.631316,53.7810148 37.7384129,54.0987804 37.8745361,54.3640895 C38.8784446,56.3241486 39.2177517,60.4016364 38.545143,62.4131432 C38.2438703,63.3139836 38.06671,63.559117 37.3600705,64.0463577 C36.9036574,64.3610969 36.4012027,64.5810109 36.2470632,64.5325895 C36.0909219,64.4831593 35.6345088,64.4044745 35.2141283,64.3540355 C34.2682723,64.2400434 33.3564471,63.8678036 32.6037659,63.2867465 C32.2884806,63.0436306 31.9241508,62.8549888 31.7720131,62.8549888 C31.61387,62.8549888 31.4997667,62.7924444 31.4997667,62.7046806 C31.4997667,62.6219606 31.0883944,62.2900721 30.5809352,61.9642362 C30.0774795,61.6404179 28.9074206,60.6891386 27.9965963,59.862948 C27.085772,59.0367574 26.0238109,58.0753903 25.6494721,57.7394666 C24.8887836,57.0555139 24.8647619,57.0292856 23.7167229,55.5816867 C23.2813288,55.0349281 22.9169991,54.5022923 22.9169991,54.4175548 C22.9169991,54.3307998 22.7128143,53.8869367 22.4685933,53.4460999 C21.7649565,52.1750374 20.6349338,51.9087196 19.6060026,52.7722351 C19.0114645,53.2725898 19.0014554,53.3018444 19.250681,53.7981641 C19.4979047,54.2924662 20.1534981,55.3658078 20.4167363,55.7057666 C20.4908033,55.8026095 20.8681448,56.3584471 21.2534936,56.940513 C21.6388423,57.5245965 22.3985299,58.3981998 22.9430227,58.8824141 C23.4865145,59.3676371 23.9409258,59.8659743 23.9509349,59.9860191 C23.9609439,60.110099 24.0380137,60.2069419 24.1260934,60.2069419 C24.3362836,60.2069419 26.0698525,61.923885 26.0698525,62.1316937 C26.0698525,62.2194575 26.2099794,62.3415199 26.3861388,62.4060818 C27.1558354,62.6915664 27.6342684,63.0900344 27.9155229,63.6852145 C28.328897,64.5568002 28.0496443,64.7252664 26.3330908,64.6385114 C25.9397348,64.6193446 24.948838,64.6939943 24.1431088,64.8029425 C22.3394764,65.0500935 15.1870033,65.0702691 14.5444217,64.8321971 C14.286188,64.7353542 13.3883755,64.5598266 12.5646299,64.4438169 C11.5667268,64.3035965 10.7159568,64.0594718 10.0433481,63.7205218 C9.48183994,63.4380635 8.88530005,63.2080617 8.71114244,63.2080617 C8.29176289,63.2080617 8.22169948,62.7672249 8.09058081,59.2364958 C7.95645943,55.5816867 7.95445762,55.7087929 8.19967955,52.7924106 C8.41687612,50.2139696 8.44289967,50.0112048 8.60404551,49.6147544 C8.66309896,49.4684813 8.83625567,48.7139141 8.98939426,47.9381624 C9.53688976,45.1478776 9.84416785,43.8717712 10.1784704,42.9941328 C10.3676416,42.4998307 10.5898427,41.8400888 10.6839279,41.4940773 C10.9701869,40.4469639 11.2074016,39.7983185 11.8790094,38.2286572 C12.5346028,36.6912769 12.7938374,36.2232031 13.0380584,36.1314041 C13.1781852,36.0789476 13.2832803,35.9518413 13.2832803,35.8358316 C13.2832803,35.7208307 13.4234072,35.4292934 13.6075738,35.1649931 C13.7837333,34.9117894 13.9879181,34.4588473 14.0539778,34.1763889 C14.1220394,33.8888867 14.4082985,33.3118647 14.6935567,32.8881772 C14.9778139,32.4644897 15.2100241,32.0801446 15.2100241,32.0317232 C15.2100241,31.982293 15.4802687,31.5727284 15.8145712,31.1127248 C16.1488738,30.65373 16.6383167,29.97583 16.911564,29.59552 C17.6942724,28.500994 19.7581403,26.4874696 20.0964464,26.4874696 C20.2545896,26.4874696 20.4767907,26.4047497 20.5698749,26.3119419 C20.7840688,26.0960631 23.1442047,25.2426354 23.9689512,25.0832482 C24.6495671,24.9521068 26.596329,24.9783351 28.3479142,25.1447837 M3.30203892,1.41519035 C1.9440371,2.37853768 0.483638355,4.48374081 0.483638355,5.4760085 C0.483638355,5.71834122 0.361358542,6.38251236 0.205277805,6.97687573 C-0.245069799,8.7041196 0.0849862814,12.8197867 0.811706146,14.5161157 C0.977728331,14.9040475 1.25708303,15.5632324 1.44099982,15.9990324 C1.62392246,16.4358296 1.9241542,16.9394429 2.11403586,17.1339074 C2.94017021,17.9716007 5.79933071,20.0079933 6.29441483,20.1107105 C6.58967585,20.1725402 6.91177877,20.2862272 7.00721667,20.3620185 C7.10464286,20.4398043 7.72101265,20.7160436 8.40001357,20.9853022 C9.49556116,21.4191077 10.593097,21.9506441 11.2701097,22.3734797 C11.4003426,22.4552546 11.6787032,22.5470019 11.8705731,22.5699388 C12.0723845,22.5948701 12.453142,22.6437356 12.7493972,22.6836257 C13.0446582,22.7235159 13.4214391,22.8292248 13.6192739,22.9279529 C13.8101497,23.0236893 14.5935358,23.203195 15.3590273,23.3278518 C16.7508301,23.5522339 17.533222,23.8733497 17.533222,24.2193968 C17.533222,24.3241085 17.4676085,24.3550234 17.368194,24.2981799 C17.2747444,24.2443282 16.9884307,24.4896527 16.716035,24.8566421 C16.441651,25.2236316 15.9376196,25.8249757 15.5658094,26.2258718 C14.9504338,26.8890457 13.7057645,28.6541852 13.7057645,28.8616141 C13.7057645,28.908485 13.386644,29.3323179 13.0098631,29.7870657 C12.6330822,30.2408163 12.3139617,30.6766163 12.3139617,30.7374488 C12.3139617,30.7992785 12.1161269,31.1134135 11.8795204,31.4275485 C11.6419198,31.7416835 11.444085,32.0548213 11.444085,32.116651 C11.444085,32.179478 11.2601682,32.5265224 11.0325091,32.8935119 C10.6497633,33.5108121 10.2819297,34.1500519 9.15158705,36.1565268 C8.87620893,36.6461785 8.66047951,37.1836984 8.66047951,37.3781629 C8.66047951,37.7272018 8.12662374,39.4065775 7.96457813,39.5661382 C7.69118831,39.836394 7.32832545,41.0091646 6.91376706,42.9627852 C6.81137014,43.4494451 6.58271683,44.375894 6.39880004,45.0570185 C6.21687154,45.7291677 5.93851099,47.0644907 5.78143611,48.0248463 C5.62336708,48.9842046 5.42254983,50.1001318 5.33605923,50.5020252 C5.15711316,51.3317405 4.99804999,53.9236035 4.93044814,57.1337641 C4.90559452,58.3214935 4.84992241,59.3157557 4.80618004,59.3596349 C4.76343181,59.4025168 4.79623859,59.9789296 4.87676432,60.6241529 C4.95729005,61.2743625 5.05471624,62.5618174 5.09249375,63.4693185 C5.19886724,66.035253 6.07073225,72.5134148 6.37195813,72.9811269 C6.43458925,73.0768633 6.49622623,73.3122152 6.50915012,73.5046852 C6.59265828,74.7442719 6.79645797,76.1494027 6.9147612,76.2969963 C7.14739109,76.5842055 7.6156333,78.3383752 7.6156333,78.914788 C7.6156333,79.2109724 7.70311805,79.5420607 7.8084974,79.6487669 C7.98744346,79.8272754 8.44773252,81.6193407 8.55311187,82.5447924 C8.58194207,82.8070702 8.70123945,83.1271887 8.80860709,83.2338949 C8.91498058,83.3425956 9.0084302,83.6617169 9.0084302,83.9239947 C9.0084302,84.1852752 9.08100277,84.5542592 9.16451093,84.7178088 C9.25100153,84.8863447 9.43591247,85.3381008 9.5740986,85.7210463 C9.71129058,86.1019973 9.99661015,86.8559213 10.2004098,87.3794797 C10.4042095,87.903038 10.5742083,88.5372915 10.5742083,88.7756352 C10.5742083,89.0199624 10.7273066,89.4996416 10.922159,89.8666311 C11.1170114,90.2326233 11.2740862,90.616566 11.279057,90.7392283 C11.2840277,90.8588988 11.4361318,91.2707646 11.6180604,91.6557047 C11.7989947,92.0386502 11.952093,92.4395463 11.9560696,92.5452552 C11.9679993,92.9112474 12.665889,94.9576126 12.8358878,95.128143 C12.9293374,95.2218849 13.0098631,95.4682066 13.0098631,95.6596794 C13.0098631,95.8571356 13.1271722,96.2450674 13.2723173,96.5242986 C13.5785139,97.1146729 13.8270501,98.0431163 14.2117842,100.031641 C14.4145897,101.079755 14.4503789,103.103183 14.2714329,103.34751 C14.0716098,103.620758 13.1311488,104.248031 12.7315026,104.376676 C12.2592838,104.528259 10.4737997,106.419052 10.3077775,106.943608 C10.2352049,107.169985 10.064212,107.522015 9.93596731,107.710496 C9.62678827,108.164247 9.63275314,108.832407 9.94789705,108.958061 C10.0791242,109.010915 10.3117541,109.351976 10.4549109,109.700018 C10.8237386,110.608516 11.999812,111.816191 12.7841922,112.095422 C14.9554045,112.865302 16.4545749,113.039822 20.491797,112.992951 C22.7524823,112.967022 23.0547024,112.925137 24.0577945,112.500307 C24.246682,112.420527 24.6831116,112.301854 25.0141618,112.240024 C25.3442179,112.179191 25.8850327,111.975752 26.1971942,111.795249 C26.5630394,111.583831 26.8791775,111.51502 27.0670709,111.604773 C27.7460718,111.926886 29.5583978,111.43524 29.7751214,110.869797 C29.8864656,110.577601 30.8080378,110.624472 31.1907836,110.941599 C31.4194369,111.132075 32.5646917,111.033347 35.4526824,110.577601 C36.0789937,110.478873 36.7202171,110.387126 36.8882276,110.372167 C37.063197,110.358206 37.1924359,110.290392 37.1924359,110.215598 C37.1924359,110.144793 37.6656488,109.534474 38.2362879,108.8713 C38.8069271,108.208126 39.2811341,107.599801 39.2811341,107.527999 C39.2811341,107.456197 39.3994374,107.265721 39.5416001,107.109152 C39.6827687,106.952583 39.8269197,106.585594 39.8547557,106.306363 C39.8835859,106.027132 39.9909535,105.644186 40.090368,105.468669 C40.1977357,105.277197 40.2186127,104.857353 40.1420636,104.438506 C40.0714793,104.054563 40.0665086,103.525021 40.1331163,103.2787 C40.2007181,103.026394 40.2007181,101.969305 40.1331163,100.905235 C40.0655144,99.8451543 40.0466257,97.0299063 40.090368,94.621538 C40.1778528,89.7180402 40.199724,89.29321 40.3697227,89.0199624 C40.4383187,88.90827 40.454225,88.6878769 40.4025295,88.5482613 C40.3498398,88.4026622 40.4343421,87.7714005 40.5943995,87.1261772 C40.7534626,86.4799566 40.9005961,85.7958404 40.9244555,85.5814308 C40.9731686,85.1446335 41.3817622,84.4126491 41.5776087,84.4126491 C41.6452105,84.4126491 41.8301215,84.1593466 41.9951495,83.8452116 C42.156201,83.5360629 42.5558472,82.9297325 42.8729794,82.5098885 C43.1920999,82.0910419 43.4555482,81.6313078 43.4555482,81.4976758 C43.4555482,81.2314089 43.7458385,80.5213641 44.4119156,79.1591152 C44.6296333,78.7143399 44.8692222,77.9105532 44.9358299,77.4059427 C45.0024376,76.8893652 45.2738391,75.8083419 45.5442465,74.9885991 C45.8126656,74.1678591 46.0363482,73.2703305 46.0423131,72.9811269 C46.096991,70.240673 46.2858786,66.8879051 46.4210822,66.2097724 C46.5105553,65.7560219 46.5403796,65.0758947 46.4837134,64.7268558 C46.3862872,64.1215226 46.4310237,64.040745 47.1965152,63.4653295 C48.0484973,62.8230979 48.327852,62.4591003 48.327852,61.9864019 C48.327852,61.829833 48.4819445,61.5406293 48.6758027,61.331206 C48.8706551,61.1217827 49.0237534,60.8216092 49.0237534,60.6510788 C49.0237534,60.4765594 49.0863845,60.3040344 49.1708868,60.2491855 C49.254395,60.196331 49.3697158,59.8662399 49.4323469,59.4992505 C49.494978,59.1352528 49.6212344,58.496013 49.7166723,58.0592157 C50.0626347,56.4705902 50.0984239,53.7540704 49.7872566,52.6850141 C49.4383118,51.4793341 49.0396597,50.2407446 48.8507722,49.7700408 C48.774223,49.5795653 48.6151599,49.1417708 48.5008332,48.8096852 C48.1936425,47.9131539 48.0753392,47.622953 47.4689109,46.2796519 C47.1627143,45.5985274 46.7630681,44.7089769 46.5692098,44.2721796 C45.808689,42.5618891 44.2697529,40.0896965 43.4734429,39.3028631 C42.9554934,38.7902746 42.1472537,37.1856929 41.7108241,35.8074879 C41.5895384,35.4235452 41.3748031,34.9767754 41.2336346,34.8132257 C40.8389591,34.3594752 40.8528771,31.7416835 41.2515292,31.1303668 C41.7555606,30.3584923 41.6869646,28.6870946 41.1024075,27.5003624 C40.673931,26.6317542 40.4989615,26.462221 39.5237055,25.9735666 C38.9152888,25.6684069 38.1348852,25.1598073 37.7670516,24.8307135 C36.9140753,24.0678142 35.539173,23.3118957 34.8621604,23.2341099 C34.5629228,23.2002033 33.8183084,23.0516124 33.191003,22.9030216 C30.9472181,22.3684935 22.5556417,22.4283287 21.274189,22.9887854 C20.9093378,23.1483461 20.560393,23.2081813 20.1955419,23.1742747 C20.0802211,23.1633049 19.7402235,22.7883374 19.4340269,22.3345868 C18.8345576,21.444039 17.9199444,20.5584775 17.5859117,20.544516 C17.4825207,20.5405269 17.3095395,20.4318263 17.2121133,20.3101613 C17.0957983,20.1665567 16.5679074,20.0738121 15.7676208,20.0568588 C15.0717195,20.0428972 14.3072221,19.9561361 14.0626625,19.8643888 C13.819097,19.7736386 13.1490434,19.6031082 12.5754218,19.4854323 C11.4460733,19.2540693 10.5742083,18.9548931 8.40001357,18.0533756 C6.7815458,17.3832209 5.83213749,16.7878603 5.0626694,15.9641285 C4.37969191,15.2311468 3.61817698,13.6116064 3.63706573,12.9274902 C3.6430306,12.6512508 3.59729993,11.8285163 3.53566296,11.1124879 C3.34081057,8.87863904 3.45414308,7.29699425 3.8537893,6.67969404 C4.01185832,6.43536682 4.13612643,6.09330871 4.13612643,5.9028332 C4.13612643,5.71136044 4.25144723,5.47201949 4.39758652,5.35334627 C4.53974922,5.23965931 4.6590466,4.99533209 4.6590466,4.82081265 C4.6590466,4.64529595 4.90460037,4.23642182 5.19986139,3.92228682 C6.19798279,2.85821684 6.29441483,2.63882097 6.03096646,2.03747682 C5.78541269,1.47702009 4.93740715,0.985373886 4.24150578,1 C4.04267681,1.00432171 3.61519454,1.19280271 3.30203892,1.41519035" id="Fill-10"></path>
                </g>
                <path d="M23.3555358,42.4012057 C22.889606,42.8596491 22.8885842,42.9461099 23.3115994,44.88243 C23.623241,46.3070227 24.2363064,47.4631848 25.1078811,48.266466 C25.9130404,49.0084205 26.1848327,49.1149884 26.7355698,48.9048685 C27.130997,48.7530594 27.0880825,48.3127125 26.5720857,47.2218988 C26.1296568,46.2859102 25.869104,45.269493 25.6739449,43.7202358 C25.4798075,42.1900805 24.2710468,41.5014101 23.3555358,42.4012057" id="Fill-13" fill="#5FC2C7"></path>
                <path d="M27.4845944,42.351193 L27,42.7658637 L27.3581785,43.7375406 C27.5544558,44.2689264 27.8061788,45.1305305 27.9126343,45.6391426 C28.2342187,47.1668768 29.410774,49.1861428 30.2790518,49.6994994 C31.4966369,50.418768 32.4514098,49.7573825 31.7760826,48.6613993 C31.2582208,47.82162 30.5762402,45.5233764 30.3788539,43.9624307 C30.2335865,42.8000243 29.6802395,42.1690036 28.6877636,42.0342594 C28.0856245,41.9517048 27.8904561,42.0038945 27.4845944,42.351193" id="Fill-15" fill="#5FC2C7"></path>
            </g>
            <g id="Group-18" style="mix-blend-mode: multiply;" transform="translate(8.000000, 54.000000)">
                <g id="Group-3"></g>
            </g>
        </g>
    </g>
</svg>