<?xml version="1.0" encoding="UTF-8"?>
<svg width="78px" height="85px" viewBox="0 0 78 85" version="1.1" xmlns="http://www.w3.org/2000/svg" xmlns:xlink="http://www.w3.org/1999/xlink">
    <title>img-leaf-set3</title>
    <g id="Page-1" stroke="none" stroke-width="1" fill="none" fill-rule="evenodd">
        <g id="Group" transform="translate(0.090234, 1.837406)" fill="#7ED6DC">
            <g id="Group" transform="translate(38.758065, 40.500000) scale(-1, 1) rotate(3.000000) translate(-38.758065, -40.500000) ">
                <path d="M48.9502663,59.284284 C48.7908526,59.4200679 48.6568401,59.5873888 48.6533365,59.6548428 C48.648957,59.7214207 48.4921711,59.9526914 48.3117358,60.1550533 C47.9867773,60.52386 47.9569967,60.5291161 47.0583243,60.3872 C46.3619846,60.2776968 46.0562958,60.1497971 45.8040369,59.8650889 C45.4203931,59.4305802 45.1103248,58.4967371 45.3249201,58.422275 C45.4046269,58.3942421 45.4703193,58.2628383 45.4703193,58.1331866 C45.4703193,57.9965266 45.6586376,57.7135704 45.9047653,57.4796716 C46.1517688,57.2457728 46.340963,57.0092459 46.340963,56.9356598 C46.340963,56.7227856 47.0119017,56.7902396 47.2045994,57.0232623 C47.3000724,57.1388977 47.4726246,57.2405166 47.5733529,57.2405166 C47.7940795,57.2405166 48.7479336,57.7564956 49.1385846,58.0885093 C49.4600395,58.3592011 49.3706978,58.9259896 48.9502663,59.284284 M55.3303149,44.0440694 C55.3303149,44.2464312 55.2033096,44.4855862 55.0403924,44.5880812 C54.8809787,44.687072 54.7504698,44.892938 54.7504698,45.0444904 C54.7504698,45.3204384 53.9963207,46.0738203 53.7204125,46.0738203 C53.4576428,46.0738203 51.8932871,45.5052798 51.4448268,45.2468523 C50.9499438,44.962144 50.6898018,44.5215032 50.6898018,43.9713592 C50.6898018,43.7830138 50.6302406,43.585908 50.5601687,43.5412308 C50.332435,43.3993146 50.7519906,42.5066447 51.4062872,41.7383704 C52.2567852,40.7370733 52.4354686,40.656479 53.3437759,40.8605929 C54.9387881,41.2188873 55.0745524,41.3012337 55.3434534,42.0721361 C55.520385,42.5793548 55.5536692,42.9104924 55.4608239,43.2319938 C55.3898761,43.4781569 55.3303149,43.8452116 55.3303149,44.0440694 M69.0582808,66.5947163 C68.9566765,66.6980873 68.6115723,66.9144656 68.292745,67.0756543 C67.3800582,67.5346916 66.3394901,67.3253215 65.6913248,66.550915 C65.2919149,66.0726051 65.2919149,66.0726051 65.5783339,65.7537319 C65.9085478,65.3858012 65.9006647,64.6508159 65.55994,64.1576135 C65.3628627,63.8720292 65.3786289,63.8352362 65.8139507,63.5636683 C66.0749686,63.3998515 66.401679,63.2544313 66.5602167,63.2299026 C66.7205062,63.2053739 67.0323263,63.0923666 67.2784539,62.968847 C67.6209304,62.798022 67.8145041,62.7848817 68.1920166,62.9110293 C68.4530345,62.9977558 68.6378492,63.1265316 68.5975579,63.1939855 C68.5581424,63.2614395 68.683396,63.6652872 68.8752179,64.0849034 C69.2711243,64.9556727 69.368349,66.2784711 69.0582808,66.5947163 M70.5219081,36.111659 C69.7633795,36.8799333 68.8866046,37.4327053 68.6553672,37.2872851 C68.5940543,37.247864 68.3505544,37.3021775 68.1333314,37.4055485 C67.3651679,37.7708512 66.4113139,37.5606051 65.8130748,36.8939497 C64.9406793,35.9224375 64.796156,35.666638 64.8627243,35.2119808 C64.8995121,34.9649417 64.9888538,34.7625798 65.0598016,34.7625798 C65.134253,34.7625798 65.1903106,34.5742343 65.1903106,34.3280712 C65.1903106,34.080156 65.2524994,33.8926865 65.3348339,33.8926865 C65.4162925,33.8926865 65.4802332,33.7761751 65.4802332,33.6316309 C65.4802332,33.3416665 66.3070819,32.152024 66.5094145,32.152024 C66.5803624,32.152024 66.9009414,31.981199 67.2057543,31.7814652 C67.7312937,31.4380632 67.8145041,31.4240468 68.3943493,31.5755992 C68.9584283,31.7227715 69.2492268,31.9636785 70.5254117,33.3416665 C70.6217606,33.4450375 70.8302246,33.6535316 70.9896382,33.805084 C71.1902191,33.9951815 71.2795608,34.2763857 71.2795608,34.7117703 C71.2795608,35.2715506 71.1945986,35.4301112 70.5219081,36.111659 M73.7128083,50.2358172 C73.4955854,50.7290195 72.6433356,51.5848964 72.3674274,51.5848964 C72.2658231,51.5848964 72.1484526,51.6689948 72.1134167,51.7662336 C72.0731253,51.8783649 71.7735678,51.9475709 71.3233557,51.9475709 C70.6716868,51.9475709 70.5429297,51.8897532 70.0489226,51.3676421 C69.4025091,50.6860943 69.1747754,49.6313596 69.5978346,49.2818255 C69.72484,49.1775785 69.8299479,48.9454317 69.8299479,48.7711026 C69.8299479,47.921358 71.251532,47.3887345 72.4699076,47.7820699 C73.759231,48.199058 74.2129467,49.092604 73.7128083,50.2358172 M77.0596186,48.5538483 C76.8406439,48.1333561 76.6961205,47.6900872 76.7399155,47.5753279 C76.7880899,47.4465522 76.5586044,47.129431 76.1521872,46.7623763 C75.789565,46.4356188 75.4847521,46.0746963 75.4847521,45.9730774 C75.4847521,45.5490811 74.8330832,44.7764266 74.3977614,44.686196 C74.1507579,44.6336345 73.8564558,44.5004786 73.715436,44.376959 C73.421134,44.1176555 71.598388,44.2245306 70.9616094,44.5390237 C70.7347516,44.651155 70.3589909,44.7843109 70.1128632,44.8412525 C69.8667356,44.8981942 69.4971062,45.0322261 69.2790073,45.1452333 C69.0617844,45.2582406 68.7753654,45.3493473 68.6343456,45.3493473 C68.4942018,45.3493473 68.2988763,45.478999 68.1990238,45.6393117 C68.0991713,45.7978723 67.945889,45.9292761 67.8582991,45.9292761 C67.6445797,45.9292761 66.6399235,47.2923717 66.6399235,47.5823361 C66.6399235,47.7128639 66.5768588,47.8136068 66.4945243,47.8136068 C66.4139415,47.8136068 66.3500009,47.9879359 66.3500009,48.2060662 C66.3500009,48.8105238 66.2046017,48.9463077 65.3786289,49.1197608 C64.9581973,49.2091154 64.5517802,49.3720561 64.458059,49.4885675 C64.3660896,49.6050789 64.1996687,49.6996896 64.0884296,49.6996896 C63.971935,49.6996896 63.885221,49.7618874 63.885221,49.8451098 C63.885221,49.9239521 63.7906239,49.989654 63.6750052,49.989654 C63.5593865,49.989654 63.3807031,50.0737525 63.2755952,50.1779995 C62.9856727,50.46884 62.4198419,50.7430359 62.3191135,50.642293 C62.2700631,50.5932356 62.3015955,50.3523286 62.3918131,50.091273 C62.4785271,49.8372256 62.6361889,49.3151144 62.739545,48.9375475 C62.8429011,48.5608565 62.9812932,48.2489915 63.0443579,48.2489915 C63.1100503,48.2489915 63.1608525,48.1263479 63.1608525,47.9660353 C63.1608525,47.8065986 63.21691,47.6506661 63.2904855,47.6068648 C63.4288776,47.5245184 63.5935466,47.060225 63.9071185,45.856566 C63.9912048,45.5376927 64.1173342,45.1618778 64.189158,45.0225898 C64.2636094,44.8780456 64.3205428,44.7063446 64.3205428,44.6239982 C64.3205428,44.5451559 64.4466723,44.1956218 64.5955751,43.8627321 C64.744478,43.5289664 64.9511901,43.0138634 65.0457872,42.7379154 C65.2595066,42.1141853 65.4741019,41.5798098 65.6449022,41.244292 C65.7114705,41.1146403 65.7701557,40.8965099 65.7701557,40.7808746 C65.7701557,40.6661152 65.8524903,40.4322165 65.9435838,40.2876723 C66.0846035,40.0660378 66.1914632,40.0406331 66.4945243,40.1588965 C67.0734935,40.3849111 68.8007665,40.3779029 69.6854245,40.1475082 C70.1198704,40.0336249 70.6935843,39.7848337 70.9467191,39.5982402 C71.2077371,39.4072667 71.5344474,39.2583424 71.693861,39.2583424 C71.8523988,39.2583424 72.0074329,39.1724919 72.0486001,39.0621127 C72.0888915,38.9543615 72.3096181,38.8273378 72.5417313,38.7800325 C72.8299021,38.7195867 73.0488769,38.5329933 73.2380711,38.1852112 C73.3869739,37.9101392 73.6655098,37.5973981 73.8468209,37.5036634 C74.1017075,37.3705075 74.1805384,37.1988065 74.1805384,36.7783143 C74.1805384,36.4734575 74.245355,36.1887492 74.3250618,36.1396918 C74.4056445,36.0915104 74.470461,35.770009 74.470461,35.4222269 C74.470461,35.045536 74.557175,34.7214066 74.687684,34.6162835 C75.0056353,34.3604841 74.9635922,33.979413 74.5449124,33.3127577 C74.3443316,32.9930084 74.1805384,32.6408462 74.1805384,32.5295909 C74.1805384,32.4174597 74.0491536,32.2930641 73.8906159,32.2536429 C73.7093048,32.2080896 73.5647814,32.0066037 73.5060962,31.7166393 C73.4535422,31.4555837 73.325661,31.2216849 73.2161736,31.1805117 C73.1145693,31.1428427 73.0199722,31.0201991 73.0199722,30.9264644 C73.0199722,30.8265975 72.7160352,30.4744352 72.3385227,30.1389175 C71.6658323,29.5414681 71.1350374,29.3049413 70.1198704,29.1533889 C69.8439622,29.1130917 69.4270343,28.9816879 69.2063077,28.8686806 C68.7718618,28.6444181 67.8311462,28.7320206 67.5780114,29.019357 C67.5009323,29.1078355 67.3073586,29.1884299 67.1470691,29.1989422 C66.3359865,29.2567599 65.1228663,29.7201773 64.6542604,30.154686 C63.4358848,31.2812547 62.8709299,31.947034 62.8709299,32.2536429 C62.8709299,32.3552619 62.8166241,32.4419884 62.7544353,32.4419884 C62.6913706,32.4419884 62.5450954,32.6741351 62.4356081,32.9492071 C62.3252448,33.2251551 62.1798455,33.4573019 62.1159049,33.4573019 C61.9424769,33.4573019 61.9573672,35.8838924 62.1307952,35.9925195 C62.2087502,36.0407009 62.236779,36.1834931 62.1912322,36.3000044 C62.1010146,36.5339032 62.4785271,37.179534 62.912973,37.5299442 C63.1757428,37.7419355 63.1871294,37.8295449 63.0294676,38.453275 C62.9348705,38.8299659 62.66159,39.5264061 62.4286009,39.9906996 C62.1938599,40.4549931 62.0002862,41.0428062 62.0002862,41.2880933 C62.0002862,41.5342565 61.8951783,41.9407323 61.768173,42.1868954 C61.6411676,42.4339346 61.5036515,42.8404104 61.4633601,43.0865735 C61.4239447,43.3327367 61.2767936,43.6997914 61.1375257,43.8995252 C60.9982577,44.0983829 60.675051,44.9139626 60.4201643,45.7120218 C60.1644018,46.509205 59.867472,47.2792313 59.7606124,47.4228995 C59.5801771,47.6629305 59.5346304,47.6191292 59.1877744,46.8639953 C58.9801863,46.4154702 58.8102619,45.9529288 58.8102619,45.8416736 C58.8102619,45.7286663 58.7393141,45.5228003 58.6508483,45.3782561 C58.5238429,45.1706381 58.5536235,44.9936809 58.7953716,44.515371 C58.965296,44.1816053 59.1001845,43.7523529 59.1001845,43.550867 C59.1001845,43.3476291 59.1641251,43.1487714 59.2455837,43.0997139 C59.4978426,42.9455334 59.3971142,42.0572436 59.0152223,41.070839 C58.7682187,40.4322165 58.2225336,39.761181 57.8529042,39.6411655 C57.620791,39.5658273 57.3483864,39.38449 57.2441544,39.2364417 C57.1425501,39.0910215 56.9594872,38.9683779 56.8456203,38.9683779 C56.7300016,38.9683779 56.6345286,38.902676 56.6345286,38.8238337 C56.6345286,38.7406113 56.5486905,38.6784135 56.432196,38.6784135 C56.3244604,38.6784135 56.1484047,38.5759185 56.0546835,38.4602832 C55.9618382,38.3437718 55.6929372,38.2421528 55.4748383,38.2421528 C55.2576153,38.2421528 55.0421442,38.1624345 55.0114877,38.0686998 C54.9799553,37.973213 54.6339752,37.8777263 54.2424483,37.8575777 C51.9081774,37.7358101 51.4676001,37.7927518 50.2553558,38.3700526 C49.4425215,38.7563798 49.091286,39.0612366 48.8083706,39.6210169 C48.683117,39.86718 48.5499804,40.0853104 48.50093,40.1238555 C48.197869,40.3630104 47.5006533,41.8110805 47.5006533,42.2017878 C47.5006533,42.4549592 47.4375886,42.8833356 47.3631372,43.1443912 C47.2133584,43.6665024 47.5190472,44.8561449 47.8772899,45.1426053 C47.9867773,45.2310838 48.0804985,45.4649826 48.0804985,45.6533281 C48.0804985,45.9879698 48.4282304,46.3760491 49.7911293,47.5569314 C50.0521473,47.7829459 50.3184206,47.9590271 50.3998792,47.9590271 C50.4874691,47.9590271 50.5452784,48.0115886 50.5452784,48.0904309 C50.5452784,48.3041811 52.5896268,48.7351856 53.6626032,48.7465739 C54.227558,48.7527061 55.0342611,48.7054007 55.4827214,48.6414509 L56.2876726,48.5249395 L56.5408074,49.438634 C56.6818272,49.9458528 56.8622624,50.4740961 56.9472246,50.6274006 C57.030435,50.7772009 57.2283882,51.1346193 57.3816705,51.4105673 C57.6313018,51.8582163 57.6453161,52.0045126 57.4981651,52.6580275 C57.4061957,53.0636273 57.2721831,53.5086482 57.2012353,53.6444322 C57.1320393,53.77496 57.1075141,53.9860821 57.1495573,54.0938332 C57.1933522,54.2042124 57.1311634,54.5870356 57.0120411,54.9348177 C56.8929189,55.2834758 56.7816797,55.8362478 56.7659135,56.1533691 C56.7492714,56.4722423 56.6774477,56.8077601 56.6064999,56.8997427 C56.5346761,56.9917254 56.4558452,57.2913261 56.432196,57.5663981 C56.4085467,57.8423461 56.3428543,58.1419468 56.2876726,58.2339295 C56.2342428,58.320656 56.2316151,58.4730844 56.2797895,58.5528027 C56.3314676,58.6360252 56.2675269,58.8646678 56.1422734,59.0530133 C56.0161439,59.2413587 55.9101601,59.5479676 55.9101601,59.7205447 C55.9101601,60.0183933 55.6973167,60.9390961 55.5116261,61.4463148 C55.4669552,61.5654542 55.226083,62.2951834 54.9746999,63.0625817 L54.5183565,64.4624704 L53.9893135,63.6433866 C53.6976391,63.1922335 53.2903461,62.4327194 53.082758,61.9535335 C52.8751699,61.4752236 52.657071,60.9855254 52.5983858,60.8663859 C52.4267096,60.5177278 52.396929,59.5672402 52.5502114,59.3727626 C52.7937113,59.0661537 52.8699145,58.4292832 52.7122527,58.0236834 C52.6176556,57.7766442 52.6150279,57.5786625 52.7061214,57.4866798 C52.7989667,57.3946971 52.7691861,57.219492 52.6255387,57.0013617 C52.5020369,56.8130162 52.4433517,56.6605878 52.4959056,56.6605878 C52.5484596,56.6605878 52.4792635,56.4722423 52.3356161,56.2252031 C52.1919686,55.97904 52.0351827,55.7906945 51.9738698,55.7906945 C51.9151845,55.7906945 51.6392763,55.5585478 51.3721271,55.2834758 C51.104102,55.0066518 50.808924,54.775381 50.7265895,54.775381 C50.6425032,54.775381 50.4997317,54.6807703 50.4077623,54.5642589 C50.3184206,54.4512516 50.0302498,54.3110875 49.7841222,54.2602781 C49.5379945,54.2094686 49.2375611,54.0763127 49.1315774,53.9703137 C49.0247177,53.8634385 48.6603437,53.7004978 48.3266261,53.6093912 C47.2396354,53.3167987 44.3684383,53.9168761 43.9392478,54.5283419 C43.0642246,55.7758021 42.4896348,56.7981238 42.1296403,57.7477354 C41.8712501,58.4292832 41.7197196,59.4095556 41.8598634,59.4954061 C41.9281836,59.5374553 41.9903724,59.7056522 41.9903724,59.8501964 C41.9903724,60.1480451 42.3424838,60.6053304 43.4557515,61.7502956 C44.1030409,62.416951 44.9622979,62.9145334 45.8329415,63.1247795 C46.0799451,63.1843493 46.3427148,63.2885963 46.4416914,63.3656865 C46.6913226,63.5610402 48.2828312,63.6162298 48.9213616,63.452413 C50.1248469,63.1423 50.0626581,63.1326638 50.1625105,63.6503948 C50.2124368,63.9114504 50.2649907,64.207547 50.2772533,64.3030338 C50.28864,64.3993966 50.4515572,64.5132799 50.6398755,64.5570811 C50.9008934,64.6184029 50.9797244,64.7384184 50.9797244,65.0713081 C50.9797244,65.3183472 51.0366578,65.5066927 51.1111092,65.5066927 C51.3108142,65.5066927 52.4302132,68.0156296 52.4302132,68.4650306 C52.4302132,68.5955584 52.4906502,68.6971774 52.5686052,68.6971774 C52.6456844,68.6971774 52.8068498,68.7979203 52.9382346,68.9293241 C53.2027562,69.1947598 53.1405673,69.7413997 52.8068498,70.0742894 C52.6947347,70.1872967 52.5589703,70.6042848 52.5029128,71.0107606 C52.4459794,71.4163604 52.3434992,71.7431178 52.2707996,71.7431178 C52.1989758,71.7431178 52.1402906,71.9095627 52.1402906,72.1128006 C52.1402906,72.3142864 52.0483212,72.6988616 51.937082,72.9599172 C51.8267187,73.2209728 51.6883267,73.779877 51.6331451,74.1863528 C51.5779634,74.5928286 51.4851181,74.9327265 51.4299365,74.9327265 C51.3747548,74.9327265 51.3116901,75.1727575 51.2924203,75.4627219 C51.2722746,75.7526863 51.1943196,76.1092287 51.1181164,76.2528968 C51.0410373,76.398317 50.9797244,76.6514884 50.9797244,76.8249414 C50.9797244,76.9992705 50.8588503,77.3698293 50.705568,77.6597937 C50.3700986,78.2975402 50.1099566,79.081583 50.1099566,79.4573979 C50.1099566,79.7184535 51.1198682,80.8695509 51.3721271,80.8958317 C51.4378196,80.9028399 51.6760641,80.9387569 51.9230676,80.9781781 C52.4161988,81.0578964 53.6582237,80.9028399 53.5320942,80.7766922 C53.4830438,80.7276348 53.5268388,80.5594379 53.6336985,80.3859849 C53.7379305,80.217788 53.906979,79.6098263 54.0103351,79.0298975 C54.1145671,78.4499686 54.2582145,77.9427499 54.3300382,77.8989486 C54.4001102,77.8551474 54.4605472,77.5572987 54.4605472,77.2533179 C54.4605472,76.948461 54.5271155,76.6471083 54.6050705,76.6006789 C54.6856532,76.5524975 54.7504698,76.3037063 54.7504698,76.0426507 C54.7504698,75.7886033 54.8836064,75.3102934 55.0403924,75.0054366 C55.1963024,74.7014558 55.3303149,74.2222698 55.3303149,73.9690985 C55.3303149,73.7080429 55.3942556,73.4583757 55.4748383,73.4101943 C55.555421,73.3611368 55.6202375,73.1491387 55.6202375,72.9318844 C55.6202375,72.6988616 55.7384839,72.4667149 55.9101601,72.3589637 C56.1089892,72.2345681 56.2000827,72.0181898 56.2000827,71.6704077 C56.2000827,71.3944597 56.2605197,71.0466776 56.3305917,70.9091416 C56.4032913,70.7681015 56.5486905,70.4667488 56.6564261,70.234602 C56.9183199,69.6686896 57.472764,69.1045292 58.0131937,68.854862 C58.2505624,68.7444828 58.7594597,68.4965676 59.1369722,68.305594 C59.511857,68.1163725 60.2388532,67.8947381 60.7311085,67.8193999 C61.2251156,67.7449377 61.7830633,67.6056497 61.9573672,67.5154191 C62.236779,67.3691228 62.3471423,67.4208083 62.8630468,67.9429195 C63.1923848,68.2766852 63.4507751,68.6367316 63.4507751,68.7620033 C63.4507751,68.8934071 63.5444963,68.9871418 63.6750052,68.9871418 C63.798507,68.9871418 64.2189385,69.1500825 64.6104654,69.3498163 C65.0019923,69.5495501 65.4443213,69.7116148 65.5967277,69.7116148 C65.7412511,69.7116148 65.9164309,69.7571682 65.9663571,69.8071016 C66.0189111,69.8587871 66.3789056,70.0077114 66.7853227,70.1452474 C67.6121715,70.4238235 69.4191512,70.3808983 70.1776798,70.0655291 C70.7146059,69.8421426 71.8602819,68.752367 71.8602819,68.4650306 C71.8602819,68.3493953 71.9224707,68.2617927 72.0048052,68.2617927 C72.0862638,68.2617927 72.1502044,68.1242567 72.1502044,67.9508037 C72.1502044,67.7755986 72.2885965,67.5197992 72.4620245,67.3699988 C72.7484435,67.1238357 72.7720928,66.9714073 72.7598302,65.5066927 C72.7510712,64.5781057 72.8053769,63.9114504 72.8894632,63.9114504 C73.1855171,63.9114504 72.9849362,63.4909582 72.301735,62.6788826 C71.8996973,62.1996967 71.4880248,61.6294041 71.3890482,61.4103977 C71.2900716,61.1922674 71.0921184,61.0109301 70.9537263,61.0109301 C70.809203,61.0109301 70.6997156,60.9303358 70.6997156,60.8225847 C70.6997156,60.5816777 69.8877572,59.8256677 69.3368167,59.5532238 C68.8585758,59.3158209 67.0515961,59.2921682 66.7564181,59.5181828 C66.6513102,59.5979011 66.1975945,59.7398172 65.7342439,59.83618 C65.2700174,59.9334188 64.900388,60.0709548 64.900388,60.1480451 C64.900388,60.2207552 64.769879,60.2864571 64.6253557,60.2864571 C64.4685698,60.2864571 64.1602533,60.4432657 63.9141257,60.6491316 C63.667998,60.8541216 63.4411402,61.0109301 63.3920898,61.0109301 C63.2309244,61.0109301 62.3681638,61.9535335 62.158824,62.3600093 C62.0467089,62.5772636 61.9021855,62.7515927 61.8338654,62.7515927 C61.768173,62.7515927 61.7094877,62.8523356 61.7094877,62.968847 C61.7094877,63.0844824 61.6420435,63.1861013 61.5649644,63.1861013 C61.4870094,63.1861013 61.4300759,63.4550411 61.4423385,63.7739144 C61.4537252,64.0927876 61.4046749,64.414289 61.333727,64.4791149 C61.1760652,64.620155 59.4049973,65.1413901 58.6070533,65.2806781 L58.0561128,65.3761649 L58.1577171,64.7524348 C58.2146505,64.4046527 58.3162548,64.0612507 58.3898303,63.9762763 C58.4695371,63.8825415 58.4511433,63.7520138 58.3390282,63.6363784 C58.1997602,63.4909582 58.1997602,63.4305124 58.3390282,63.3753228 C58.4388807,63.3350256 58.5203393,63.1501843 58.5203393,62.9609628 C58.5203393,62.7726173 58.5851558,62.5825198 58.6657385,62.5334624 C58.7454454,62.485281 58.8102619,62.2583904 58.8102619,62.0262436 C58.8102619,61.7940969 58.8750784,61.5663303 58.9556611,61.5190249 C59.0371197,61.4690914 59.1001845,61.3087788 59.1001845,61.1484661 C59.1001845,60.9934096 59.165001,60.7349821 59.2455837,60.5764215 C59.3252905,60.4161089 59.4522959,60.1655656 59.5276232,60.0175173 C59.6178408,59.8440642 59.6047023,59.6881317 59.4917113,59.5751244 C59.3612024,59.4454727 59.3576988,59.3753906 59.477697,59.3000524 C59.564411,59.2439868 59.676526,58.835759 59.7247005,58.4003743 C59.8201735,57.529605 59.8385674,57.4428785 60.0943299,56.5589688 C60.2038173,56.1822779 60.3606032,55.9352387 60.492864,55.9352387 C60.7547578,55.9352387 61.2023422,55.6750592 61.681459,55.2458067 C61.8846676,55.0635934 62.0983869,54.9208013 62.166707,54.9208013 C62.2323995,54.9208013 62.2902088,54.8183063 62.2902088,54.7026709 C62.2902088,54.5844075 62.4715199,54.3759134 62.6896188,54.2462617 C62.9059658,54.1157339 63.4280017,53.7854723 63.8344188,53.5209126 C64.240836,53.2563529 64.6770337,53.0347185 64.7917765,53.0347185 C64.9073952,53.0347185 65.047539,52.9891652 65.1027207,52.9330995 C65.1587782,52.8787859 65.5091378,52.7167212 65.87176,52.5800613 C66.5961286,52.3049893 66.9298461,52.4074843 66.9298461,52.9041907 C66.9298461,53.0671314 67.234659,53.3448315 67.7418045,53.6444322 C68.1920166,53.9089919 68.7219355,54.224361 68.9312754,54.3496327 C69.5190037,54.704423 71.1639421,54.9707347 72.0775048,54.8586035 C72.5224615,54.8042899 73.2669757,54.6063081 73.759231,54.4118305 C74.6289988,54.0693045 75.9043078,53.2283201 75.9148186,52.9909172 C75.9174463,52.9190831 76.1153994,52.6142263 76.3553958,52.3093694 C76.5953921,52.0045126 76.7898417,51.6935235 76.7898417,51.6138052 C76.7898417,51.5358389 76.891446,51.3869146 77.0070647,51.2949319 C77.1218075,51.2029493 77.2251635,50.9900751 77.2251635,50.8446549 C77.2251635,50.7001107 77.3004909,50.5695829 77.3845772,50.5695829 C77.6657408,50.5695829 77.4677876,49.3370151 77.0596186,48.5538483" id="Fill-1"></path>
                <path d="M30.9527079,39.7329391 C30.4017166,39.2217089 30.0583202,39.0553425 29.2867594,38.9279681 C28.7937216,38.8465179 28.5973715,38.888976 28.3076037,39.1428581 C28.1069287,39.3178895 27.7868866,39.4599942 27.5905365,39.4599942 C27.3898615,39.4599942 27.1952413,39.5267141 27.1433426,39.6133633 C27.0923089,39.699146 26.889039,39.7684653 26.6883639,39.7684653 C26.4721193,39.7684653 26.0638495,40.018015 25.6780691,40.3862741 C25.3234279,40.7250724 24.9324576,41.0040828 24.8148205,41.0040828 C24.6911286,41.0040828 24.5985759,41.0967974 24.5985759,41.2207058 C24.5985759,41.3437476 24.5397574,41.4598576 24.4601793,41.4901848 C24.3831962,41.520512 24.2975634,41.6452868 24.2672891,41.7691952 C24.2378799,41.8905041 24.0199053,42.161716 23.788956,42.3636086 C23.5580068,42.5663678 23.3651165,42.804653 23.3651165,42.8895692 C23.3651165,42.9744855 23.1592517,43.2898885 22.9023531,43.5992261 C22.3885558,44.2179014 22.3375221,44.2707574 21.8384295,44.7256656 C21.4984929,45.0350033 21.3678812,46.1025213 21.6688937,46.1025213 C21.9664463,46.1025213 21.8081553,46.4907097 21.3133875,46.9681468 C20.6819532,47.5798901 20.3385568,47.7063979 20.2278395,47.3693325 C20.1811307,47.2254949 19.9899704,46.7194636 19.80746,46.2567569 C19.3689159,45.1441812 19.2746332,43.4943806 19.6327343,43.2249016 C19.7719959,43.1200561 20.0046751,43.023009 20.126637,43.0169436 C20.3740209,43.0048127 21.2061302,42.3350144 21.2061302,42.1469857 C21.2061302,42.0889307 21.4604339,41.6530853 21.7675013,41.1895121 C22.4914883,40.0925333 23.951572,38.6697536 24.7992509,38.2356411 C25.0302002,38.1177982 25.2533646,37.8959763 25.3009384,37.7365417 C25.3467823,37.5831727 25.4531746,37.4505994 25.5310227,37.4505994 C25.6157906,37.4505994 25.6780691,37.3587513 25.6780691,37.2348429 C25.6780691,37.1118011 25.7671618,36.9454346 25.8865289,36.8483875 C25.9989761,36.7556729 26.1788916,36.3934793 26.2800941,36.0529479 C26.3804316,35.7132831 26.5724568,35.3077649 26.7004736,35.1647937 C27.3232582,34.4698672 27.6830892,33.9603699 27.6830892,33.7740742 C27.6830892,33.6640297 27.8828993,33.2801738 28.1250932,32.9249121 C28.7054938,32.0748835 28.8006414,31.5029988 28.4823294,30.7777451 C28.2349455,30.2171248 27.9910216,30.0516248 27.2211907,29.923384 C26.001571,29.7188919 24.1349474,29.928583 23.8642091,30.298575 C23.5277325,30.7569493 23.1177327,31.1763313 22.6091253,31.584449 C22.3479018,31.7941401 22.1316572,32.0367578 22.1316572,32.121674 C22.1316572,32.2057238 21.9932606,32.3625588 21.8228599,32.4691373 C21.6533241,32.5748493 21.5149275,32.766344 21.5149275,32.8937184 C21.5149275,33.0176267 21.456974,33.1259382 21.3912356,33.1259382 C21.1810458,33.1259382 20.2382193,35.1647937 20.2122699,35.674291 C20.1984303,35.936838 20.1344219,36.2513746 20.0652236,36.4004112 C19.9960253,36.5468483 20.0167848,36.8951781 20.1127974,37.1880524 C20.3065526,37.7859318 20.0807932,38.3864107 19.4329243,38.9920886 C19.2166797,39.1931147 19.0471439,39.4357324 19.0471439,39.5440439 C19.0471439,39.6471564 18.9390216,39.7779967 18.8161946,39.8239208 C18.4459838,39.963426 18.1008574,39.7459365 18.1397814,39.3976068 C18.2029249,38.8257221 17.9425663,37.7434737 17.7211318,37.657691 C17.6069547,37.6143664 17.5048872,37.435869 17.5048872,37.2816335 C17.5048872,36.9411022 17.1831152,36.1751233 16.9807102,36.0321521 C16.8077145,35.9108433 16.9807102,35.674291 17.2427987,35.674291 C17.3388113,35.674291 17.5092121,35.4741313 17.635499,35.2107178 C17.7626508,34.9490372 17.9235368,34.6206368 18.0057098,34.4542703 C18.3465113,33.7723412 18.8153296,32.986433 19.3775657,32.1528678 C19.7010676,31.6736977 19.9726709,31.2014596 19.9726709,31.1174099 C19.9726709,30.8773916 20.6049702,30.3592295 21.2372694,30.0784861 C21.5607714,29.9355149 21.8228599,29.768282 21.8228599,29.7041616 C21.8228599,29.6391747 22.1619315,29.3705622 22.5944207,29.0941512 C23.026045,28.8168738 23.3651165,28.5075362 23.3651165,28.3905598 C23.3651165,28.2822483 23.4386397,28.1826017 23.5190827,28.1826017 C23.6038506,28.1826017 23.6739139,28.0430965 23.6739139,27.8732641 C23.6739139,27.7042982 23.871994,27.2320601 24.113323,26.8300078 C24.3555169,26.4262226 24.63404,25.7564243 24.7352425,25.3396417 C24.9514871,24.4436891 25.5889763,23.0391056 25.8934487,22.787823 C26.1935962,22.5408728 26.1053684,21.7090405 25.6970986,20.9213994 C25.3156431,20.1866142 23.5043781,19.7291065 22.624695,20.1467556 C20.975181,20.9283313 20.4354344,21.2948574 20.4354344,21.6319227 C20.4354344,21.7315693 20.3273121,21.8572107 20.2036201,21.9031347 C20.0738734,21.9507918 19.9726709,22.0963624 19.9726709,22.2350011 C19.9726709,22.4516241 19.6941478,23.053836 19.5099074,23.2392653 C19.3282619,23.4212286 19.0471439,24.0104431 19.0471439,24.2123357 C19.0471439,24.3310451 18.9078823,24.552867 18.7392115,24.7062361 C18.5696757,24.8587387 18.4295492,25.1628774 18.4295492,25.3786339 C18.4295492,25.6221181 18.2297392,25.9557175 17.9062372,26.2511912 C17.4114695,26.7026335 17.3846552,26.7762853 17.4434737,27.5483296 C17.4772079,27.9971725 17.5394864,28.4234865 17.5818703,28.4910729 C17.6251192,28.5595257 17.5005623,28.908722 17.2998873,29.2795805 C16.2056895,31.3028392 16.0465335,31.5809831 15.9782002,31.5792501 C15.823369,31.5766506 15.0466183,29.5568579 15.1244664,29.3558318 C15.1703102,29.2379889 15.1037069,28.8229393 14.9756901,28.4373504 C14.8494032,28.050895 14.7101417,27.5743244 14.6677577,27.3784972 C14.6253738,27.186136 14.5163865,26.7762853 14.4281587,26.4825446 C14.2897621,26.0198379 14.3044668,25.9210578 14.5293612,25.7884845 C15.2248039,25.3795003 15.7524408,24.5511341 16.0145293,23.4550218 C16.0370187,23.3631736 16.1762802,23.0997601 16.3172717,22.8840036 C16.4582632,22.6673806 16.5802252,22.410899 16.5802252,22.3277158 C16.5802252,22.0183781 17.1312165,21.2359359 17.3050772,21.3009228 C17.4071446,21.338182 17.5723555,21.2688626 17.674423,21.1458208 C17.7773554,21.0219124 17.9356465,20.9343967 18.0299292,20.9499936 C18.3681358,21.0080486 19.0471439,20.5557398 19.0471439,20.2723969 C19.0471439,20.1198943 19.1855404,19.9076038 19.3559412,19.8018918 C19.525477,19.6953133 19.6638736,19.4838893 19.6638736,19.3305202 C19.6638736,19.1771511 19.7789157,18.8747454 19.9181772,18.6589889 C20.0574388,18.442366 20.1967003,18.0489786 20.2269746,17.7855651 C20.2563838,17.523018 20.3506665,17.2370757 20.4354344,17.1521595 C20.5210672,17.0663768 20.5894005,16.7890994 20.5894005,16.5265523 C20.5894005,16.2640052 20.692333,15.7233143 20.8203498,15.3065317 C20.9500966,14.8888826 21.0184299,14.4989612 20.975181,14.4253094 C20.9284721,14.3464586 20.9587464,14.2572099 21.052164,14.2017545 C21.134337,14.1523644 21.2061302,13.8308959 21.2061302,13.5059614 C21.2061302,13.1818935 21.2770585,12.858692 21.3600964,12.8067025 C21.5642313,12.6784616 21.5503917,12.0233937 21.3332821,11.4211819 C21.1983454,11.0477238 20.9587464,10.8492972 20.250329,10.5217632 C19.124127,10.0018681 18.4563636,10.0001351 17.3664907,10.5130983 C16.2402886,11.0433914 15.9626306,11.301606 15.9626306,11.8223676 C15.9626306,12.0545875 15.8917023,12.2980717 15.8086644,12.3483282 C15.7256264,12.3977183 15.6538332,12.6264721 15.6538332,12.8422286 C15.6538332,13.2746081 15.0353736,14.7424454 14.8528631,14.7424454 C14.7853948,14.7424454 14.7291712,15.0197228 14.7291712,15.3602542 C14.7291712,15.7007855 14.6772725,15.9780629 14.6132641,15.9780629 C14.5492557,15.9780629 14.5077367,16.6114685 14.5207114,17.3999762 C14.5406059,18.6971146 14.2845723,20.0592399 13.97318,20.3070566 C13.9238762,20.3469152 13.7612603,20.6276586 13.6185388,20.9213994 C13.4239187,21.3234516 13.3547204,21.3823731 13.3486655,21.1536192 C13.3452056,20.9794543 13.2396782,20.6519204 13.1099315,20.4041037 C12.9801847,20.1571535 12.8781172,19.7975593 12.8781172,19.5852688 C12.8781172,19.3807767 12.7405856,18.9059391 12.5779697,18.5506774 C12.4136238,18.1919498 12.1904593,17.4069081 12.0849319,16.8202931 C11.9785396,16.2328115 11.8496578,15.7146494 11.7986241,15.6765237 C11.6956916,15.5985394 11.5572951,15.113304 11.3808394,14.2017545 C11.3289407,13.9383409 11.2398479,13.7043881 11.1749746,13.6610635 C11.1118311,13.6186054 10.916346,13.3283306 10.7433503,13.0198595 L10.4267682,12.4566397 L10.9587299,11.891687 C11.2502277,11.5832158 11.4976115,11.2097578 11.5062613,11.0659202 C11.5140461,10.921216 11.5451854,10.5252292 11.5763246,10.1846979 C11.6057338,9.84156707 11.6636874,9.13450966 11.7060714,8.59381869 C11.8297633,7.01853636 11.9785396,6.1771727 12.1541302,6.07059419 C12.2709023,5.99954186 12.2743622,5.90596073 12.1653749,5.76732202 C11.9024215,5.43112315 11.6169786,3.63488538 11.7259659,3.00147978 C11.8219785,2.44779144 11.7778646,2.33774696 11.1801644,1.62635709 C10.2563674,0.530244799 9.2460725,-0.0962288659 8.57657914,0.0120826252 C8.28335143,0.0597396813 7.95638956,0.192312946 7.83529257,0.313621817 C7.71246562,0.436663671 7.55676949,0.530244799 7.47286658,0.530244799 C7.38550375,0.530244799 7.32755019,0.588299758 7.32755019,0.676681935 C7.32755019,0.758132176 7.12082033,1.04754048 6.86392172,1.32568439 C6.60788808,1.6038283 6.4020232,1.91663189 6.4020232,2.02840934 C6.4020232,2.24416583 6.09582081,2.86544055 5.92369009,2.99714732 C5.86400657,3.0422049 5.68928091,3.38793518 5.53012487,3.77439058 C5.29225578,4.35580667 5.24641192,4.88609973 5.25246677,7.01853636 C5.25679166,8.42398627 5.31647518,9.92821626 5.38567346,10.3701271 C5.59845817,11.7270535 6.80250824,12.8162339 8.40704336,13.1013097 L8.94678994,13.1974903 L8.8922963,14.3637884 C8.85683218,15.1358328 8.90354102,15.6080709 9.03069286,15.7623064 C9.13795019,15.8905472 9.23482778,16.3879136 9.24693748,16.881814 C9.25991216,17.3757144 9.38619902,17.9995886 9.53238039,18.2872639 C9.67423686,18.5680073 9.79446887,19.1450909 9.79446887,19.5462767 C9.79446887,19.9483289 9.8576123,20.3269859 9.93286543,20.37291 C10.0107135,20.420567 10.1058611,20.7134413 10.1491101,21.0375093 C10.192359,21.3624438 10.273667,21.8043546 10.3342155,22.0417734 C10.4250382,22.3970351 10.391304,22.4663545 10.1344054,22.4663545 C9.88529161,22.4663545 9.39311885,22.0928965 8.48316147,21.2099412 C8.39839357,21.126758 8.10603084,20.8468811 7.82837274,20.5817345 C7.55071464,20.316588 7.32755019,20.0271797 7.32755019,19.9327321 C7.32755019,19.7187086 6.89592592,19.2447375 6.4020232,18.9189365 C5.64603199,18.4181042 4.55183419,17.5108871 4.55183419,17.3835128 C4.55183419,17.154759 3.19381794,16.5958717 2.63936672,16.5958717 C2.34613901,16.5958717 1.93700418,16.6608586 1.74411398,16.7379763 C1.31248971,16.9112747 0.512384595,17.6010023 0.61877695,17.7084473 C0.660295918,17.7509054 0.579852918,18.1486252 0.441456358,18.5810047 C0.189747614,19.3686458 0.190612593,19.3799102 0.518439444,19.6623866 C0.703544843,19.8218211 0.84972621,20.0271797 0.84972621,20.1259598 C0.84972621,20.2186744 0.92411436,20.3035906 1.00455736,20.3035906 C1.0875953,20.3035906 1.20177246,20.5046167 1.25280619,20.7359701 C1.35054876,21.1848129 2.92567461,22.7756921 3.27080103,22.7756921 C3.46542119,22.7756921 3.64187681,22.8467444 4.3502942,23.2115375 C4.54577934,23.3111841 4.92118001,23.3935008 5.18326849,23.3935008 C5.61489276,23.3935008 7.59742348,24.239197 7.78944871,24.5060765 C7.83269764,24.5658644 8.20636835,24.7019037 8.63799262,24.8145476 C9.06961689,24.9271916 9.4432876,25.0562989 9.48653653,25.1082884 C9.52719052,25.1585449 9.88702157,25.250393 10.272802,25.3093145 L10.9820844,25.417626 L11.3133711,26.869 C11.4967466,27.672238 11.6455229,28.5179341 11.6455229,28.7614183 C11.6455229,29.0083685 11.7043414,29.2631172 11.7804595,29.3411014 C11.9906493,29.5568579 12.1186661,30.9389126 11.9387506,31.0498235 C11.7640249,31.158135 11.0279282,30.8843236 10.2572324,30.4276823 C9.57822425,30.0247636 8.19771856,29.5386616 7.91314064,29.602782 C7.79204365,29.6287768 7.41923791,29.3792271 7.06546171,29.0317638 C5.58461852,27.5864553 4.49388063,26.7918822 4.28628579,27.0076387 C4.2456318,27.0500968 4.05793146,27.025835 3.87196109,26.9547827 C3.36335373,26.7589555 1.15333366,27.2251282 0.726899263,27.617649 C0.201857313,28.100285 -0.131159409,28.7813477 0.0496210976,29.0005701 C0.134388991,29.1036827 0.277975421,29.4719417 0.372258078,29.8272034 C0.491625111,30.2786457 0.828101747,30.7612817 1.50537991,31.4570747 C2.36084365,32.3348311 2.61601231,32.4959986 3.77248856,32.8937184 C4.48177093,33.1380691 5.4687114,33.356425 5.9392597,33.3728884 C6.41759281,33.3902182 7.07757141,33.4604041 7.41923791,33.5297234 C8.1440899,33.6778935 8.38195898,33.6423674 8.67432172,33.3416947 C8.84039759,33.1718623 8.95716968,33.1579984 9.11632573,33.2897052 C9.31008091,33.4517392 11.0279282,33.8286631 12.2302483,33.9725008 C12.7864295,34.0392207 13.169615,34.4109457 13.1903745,34.9022466 C13.1972943,35.0720791 13.3106065,35.4897282 13.4420832,35.829393 C13.572695,36.1690578 13.7396358,36.7244792 13.812294,37.0650105 C13.8858172,37.4107408 14.0216188,38.0224841 14.1202263,38.4548636 C14.4125891,39.7216748 14.4264287,39.6913475 13.5882646,39.6670858 C13.1713449,39.6549549 12.686957,39.5709052 12.5087714,39.4816565 C12.0771471,39.2633005 9.95881479,38.8439184 9.7330554,38.9305676 C9.63790776,38.9669603 9.13103036,38.6186305 8.59128378,38.1463924 C8.0515372,37.6741543 7.48670624,37.2963638 7.31976539,37.2963638 C7.14936462,37.2963638 7.01875287,37.2426413 7.01875287,37.173322 C7.01875287,36.9965576 5.9392597,36.6794216 5.33809964,36.6794216 C5.07514618,36.6794216 4.85976653,36.6092357 4.85976653,36.5243195 C4.85976653,36.4368039 4.72915478,36.370084 4.55875402,36.370084 C4.38921823,36.370084 4.17037867,36.2825683 4.05793146,36.1690578 C3.94634924,36.0581469 3.41006257,35.8952464 2.85561135,35.8059977 C1.97592822,35.6638931 1.78303801,35.6777569 1.29000027,35.9221076 C0.981202941,36.0737437 0.695760037,36.1681914 0.657700983,36.1309322 C0.620506907,36.0928066 0.511519616,36.153461 0.420696874,36.2617725 C0.172448044,36.5607122 0.14649869,37.7608035 0.372258078,38.5319813 C0.633481585,39.427934 1.17149821,40.5413761 1.34362893,40.5413761 C1.4093673,40.5413761 1.46732086,40.6488211 1.46732086,40.7727295 C1.46732086,40.8983708 1.63599167,41.0716692 1.83753166,41.1513864 C2.03734169,41.2311037 2.25272134,41.3723419 2.30721498,41.4598576 C2.36257361,41.5499727 2.87031598,41.8367816 3.44033682,42.1010616 C4.33558956,42.5152447 4.57778354,42.5655013 5.24468197,42.4719201 C5.66938641,42.4121322 6.43229744,42.3393469 6.94176978,42.3098861 C7.45037714,42.2795589 8.08527136,42.2137055 8.35254971,42.163449 C8.6146382,42.112326 8.88191656,42.1409202 8.93381527,42.2249699 C9.06702195,42.4407264 10.4111985,42.4407264 10.4111985,42.2249699 C10.4111985,42.1175249 10.5660297,42.0906637 10.8272532,42.1521846 C11.2934766,42.2613626 11.4906917,42.2873574 13.1869145,42.4701872 C13.8192138,42.53864 14.4835173,42.6122918 14.6521881,42.6339541 C14.8217239,42.6556164 15.0371036,42.6781452 15.1305212,42.6842107 C15.2974621,42.697208 15.4713228,43.1200561 15.6114493,43.8626397 C15.6434535,44.0324721 15.7360062,44.2369642 15.8164492,44.3175479 C15.8986221,44.4007312 15.9626306,44.742129 15.9626306,45.0973907 C15.9626306,45.4448539 16.0750778,46.0635292 16.2100144,46.4655814 C16.3440861,46.8667672 16.4176092,47.2410917 16.3717654,47.2922147 C16.3259215,47.3407383 16.38647,47.6232147 16.5023771,47.9022251 C16.6191492,48.1795025 16.668453,48.4186542 16.6104994,48.4186542 C16.5542758,48.4186542 16.58801,48.4749762 16.6796977,48.5347642 C16.7791703,48.5997511 16.8803727,48.8207065 16.911512,49.0373295 L16.9651406,49.4237849 L14.6132641,49.4307168 L12.2622525,49.4385152 L11.5296157,48.7435887 C11.1282657,48.3631988 10.7260507,47.909157 10.6412828,47.7393246 C10.4146585,47.2904818 8.69940609,46.4517176 7.79031369,46.3451391 C7.66229687,46.3304087 7.28084135,46.193503 6.94176978,46.0401339 C6.60269821,45.8876313 6.18577857,45.702202 6.01624279,45.6285502 C5.63046238,45.4604508 2.65407136,45.5323696 1.94478899,45.7273303 C1.48375545,45.8529716 1.3972576,45.9630161 1.22858679,46.6432123 C1.12046448,47.0755918 1.07029573,47.5989529 1.11440963,47.8329057 C1.20263744,48.2956124 1.8556962,49.0373295 2.17573825,49.0373295 C2.2864555,49.0373295 2.51826973,49.2383556 2.69213041,49.4853058 C3.23533691,50.2573501 3.84514675,50.8136379 4.4748511,51.1099782 C4.81305769,51.2694127 5.20835287,51.4583079 5.35280428,51.5276273 C5.66852143,51.6809964 8.43731761,51.9825356 10.1032662,52.0440565 C11.5218309,52.0969125 13.7007118,52.2936062 13.7880746,52.3776559 C13.8244037,52.4114491 13.9273361,52.3707239 14.0345935,52.2797423 C14.254298,52.096046 16.1944448,52.0509884 17.1346764,52.2078235 C17.875098,52.3325983 18.1216169,52.6982579 18.1216169,53.6721948 C18.1216169,53.9962628 18.2643383,54.5308883 18.4295492,54.8306945 C18.60168,55.1391656 18.7392115,55.4831629 18.7392115,55.6027388 C18.7392115,55.8921471 19.3559412,56.9302045 19.726152,57.2620709 C20.2252446,57.7117802 21.5996954,57.4414347 22.1965306,56.7768354 C22.501003,56.4363041 22.501003,56.4363041 22.1619315,55.742244 C21.9733661,55.3549221 21.8228599,54.8237626 21.8228599,54.5447522 C21.8228599,54.2657418 21.7536616,53.973734 21.6688937,53.8879513 C21.5339571,53.7536451 21.2182399,51.988601 21.2095901,51.3240017 C21.2069952,51.13424 21.3211724,51.0458578 21.5685562,51.0458578 C21.7692312,51.0458578 22.0546741,50.9072191 22.2086403,50.7365202 C22.3608765,50.5666877 22.5727962,50.428049 22.6791886,50.428049 C22.785581,50.428049 22.9542518,50.2261564 23.0563192,49.9792062 C23.1566567,49.7365885 23.5510869,49.2071619 23.9204327,48.8207065 C24.2889136,48.4351176 24.5985759,48.0122695 24.5985759,47.8944266 C24.5985759,47.7003324 25.4315502,47.3450707 25.8934487,47.3398718 C26.0759592,47.3381388 27.6830892,45.6848722 27.6830892,45.4994429 C27.6830892,45.4162597 27.7289331,45.3391419 27.7989963,45.3070817 C27.8630047,45.275888 28.1813168,44.8582389 28.5160635,44.3643385 C28.8499452,43.8695716 29.1717172,43.4753178 29.2409155,43.4753178 C29.3585526,43.4753178 29.6690799,42.9658205 29.9934468,42.2405668 C30.0885944,42.0274098 30.4432356,41.6028287 30.7831722,41.2978236 C31.4915896,40.6566195 31.5339735,40.2718971 30.9527079,39.7329391" id="Fill-3"></path>
            </g>
        </g>
    </g>
</svg>