<?xml version="1.0" encoding="UTF-8"?>
<svg width="59px" height="57px" viewBox="0 0 59 57" version="1.1" xmlns="http://www.w3.org/2000/svg" xmlns:xlink="http://www.w3.org/1999/xlink">
    <!-- Generator: Sketch 61 (89581) - https://sketch.com -->
    <title>img-lunch3</title>
    <desc>Created with Sketch.</desc>
    <g id="Page-1" stroke="none" stroke-width="1" fill="none" fill-rule="evenodd">
        <g id="Group-2" fill="#F05563">
            <path d="M56.209936,31.2115414 C56.1172602,31.4985169 56.0105232,31.7318043 55.9708963,31.7318043 C55.9312694,31.7318043 55.8993122,31.8129755 55.8993122,31.9114036 C55.8993122,32.0104709 55.858407,32.091003 55.809193,32.091003 C55.7606181,32.091003 55.5707924,32.3159815 55.3918322,32.5844218 C55.212872,32.8541404 55.0275204,33.0784798 54.9834195,33.0784798 C54.9380403,33.0784798 54.8038202,33.195443 54.674074,33.3475592 C54.5443279,33.5003145 54.4120252,33.6172778 54.3685634,33.6172778 C54.3257408,33.6172778 54.1934381,33.7157059 54.0675268,33.8416172 C53.9422546,33.9675285 53.7505116,34.0659566 53.6329092,34.0659566 C53.5159459,34.0659566 53.3810866,34.1062226 53.3318725,34.1554367 C53.222579,34.2647302 52.2191236,34.4564733 51.7704448,34.4539167 C51.5985152,34.4526384 51.2316468,34.4468861 50.9619282,34.4404947 C50.2978581,34.4245161 49.8587665,34.4564733 49.7507512,34.5274182 C49.700898,34.5600145 49.4989286,34.6168983 49.3014333,34.6539686 C49.1039379,34.691039 48.8942988,34.7587882 48.8348585,34.8054457 C48.7191735,34.896204 47.8109505,34.8431551 46.9679202,34.6974304 C46.6675227,34.6456598 46.1510947,34.6328769 45.800844,34.6673906 C45.0734987,34.7408922 44.7884406,34.7421704 44.2298292,34.6756995 C43.1886643,34.5523448 41.4546678,34.1803633 41.312778,34.049978 C41.2654813,34.0071554 41.1868667,33.9764765 41.1242306,33.9764765 C40.9887322,33.9764765 40.4870045,33.7463848 40.1457018,33.5284368 C39.9967814,33.4338436 39.7462371,33.2906754 39.5845338,33.208865 C39.4228305,33.1270547 39.2930843,33.0267091 39.2930843,32.9838865 C39.2930843,32.9410639 39.2036042,32.8797061 39.086641,32.8432749 C38.8444056,32.7672169 37.947048,31.8570764 37.947048,31.6870642 C37.947048,31.6212325 37.8658768,31.4838166 37.7757575,31.3981714 C37.6230022,31.2511683 37.3309136,30.5743153 37.0650299,29.7485418 C36.9001309,29.2365878 36.8784,28.5373648 37.0183724,28.2676462 C37.0848434,28.1385392 37.1385314,27.9173956 37.1385314,27.7735883 C37.1385314,27.6297809 37.1711277,27.5134568 37.2101155,27.5134568 C37.3079045,27.5134568 37.7674487,26.6602002 37.7674487,26.48124 C37.7674487,26.4019862 37.853733,26.2204694 37.9598309,26.0773013 C38.1490174,25.8229221 38.2621458,25.5385032 38.7562037,24.0755036 C38.9025676,23.6447209 39.0853627,23.2241644 39.158225,23.1506629 C39.2304483,23.0790788 39.2930843,22.9538067 39.2930843,22.8815835 C39.2930843,22.6406264 39.8721484,21.9394859 41.0583988,20.7455657 C41.5671571,20.2336117 42.1212946,19.7504192 42.3002548,19.6634957 C42.4798541,19.5765721 42.6447531,19.4506609 42.6722363,19.3809942 C42.7009978,19.308771 42.750851,19.2550829 42.7891996,19.2550829 C42.8269091,19.2550829 43.1349763,19.1016885 43.4852269,18.9086671 C44.1786977,18.5258201 44.1314011,18.5379639 45.0383458,18.511759 C45.4058533,18.5008935 45.7350122,18.4599884 45.765052,18.4203615 C45.7950917,18.3807346 45.9261162,18.3986306 46.0609754,18.4606275 C46.2667797,18.5558599 46.3479509,18.5488293 46.5997735,18.4114134 C46.8349783,18.2829456 46.9679202,18.2688844 47.2459476,18.3404685 C47.5508191,18.4197223 48.0723602,18.4535969 49.2387972,18.4702147 C49.4005005,18.4727712 49.5257727,18.5015327 49.5257727,18.5373247 C49.5257727,18.618496 50.2345829,18.8255785 50.3247021,18.769973 C50.3636899,18.7463247 50.5579895,18.8019302 50.7465369,18.8920494 C50.9363625,18.9815295 51.2942829,19.1234194 51.5275703,19.2013949 C51.7608577,19.2793704 52.0900166,19.4679177 52.2459676,19.6136425 C52.8736066,20.2010154 53.1752824,20.5039694 53.5504596,20.9245259 C53.7664902,21.1674005 54.0349305,21.4652414 54.1480589,21.5892352 C54.264383,21.7151465 54.3832637,21.9062504 54.4177774,22.024492 C54.4535695,22.1440118 54.5916245,22.3523726 54.7360709,22.5044888 C54.8817957,22.6572441 54.9917284,22.8400391 54.9904501,22.9263235 C54.9878935,23.0611828 55.4269851,24.3445831 55.622563,24.7753658 C55.720352,24.9920355 55.8028015,25.3678519 55.8577679,25.8529619 C55.8801379,26.0504572 55.9395782,26.2262217 55.9887923,26.2434786 C56.0373672,26.2600963 56.0782724,26.517032 56.0782724,26.8040075 C56.0782724,27.0916221 56.1159819,27.4035241 56.1607219,27.4866128 C56.450254,28.0266891 56.481572,30.3678719 56.209936,31.2115414 M58.627816,28.3660743 C58.5581494,28.1161692 58.462917,27.638729 58.4143421,27.2891174 C58.1989507,25.7449466 57.9279539,24.504369 57.7675288,24.3266871 C57.7279019,24.2832253 57.6940273,24.1381397 57.6940273,24.0128676 C57.6940273,23.8869563 57.6109386,23.6901001 57.514428,23.5859197 C57.4147216,23.4785436 57.3354678,23.3181185 57.3354678,23.2228861 C57.3354678,23.1327669 57.305428,23.0221951 57.2721926,22.9895987 C57.1948562,22.9116232 56.9794648,22.2890974 56.9775474,22.1363421 C56.9769082,22.0717886 56.8656973,21.8538406 56.7289205,21.6473973 C56.592783,21.4409539 56.4221316,21.1552567 56.347991,21.0056971 C56.2719329,20.8529418 56.1939574,20.7168042 56.1683916,20.6918777 C56.1428259,20.6656728 56.0648504,20.5301743 55.9887923,20.377419 C55.8596853,20.1172876 53.8706706,18.0886459 53.7447593,18.0886459 C53.7089672,18.0886459 53.592004,18.0100313 53.4756798,17.9090466 C53.3587166,17.8074228 53.2238573,17.7294473 53.1656952,17.7294473 C53.1094506,17.7294473 52.8876678,17.581166 52.6812244,17.4060406 C52.4741419,17.2309153 52.2747291,17.1075606 52.2459676,17.1369612 C52.2140105,17.1682792 52.1475395,17.1535789 52.0842643,17.1018083 C51.9072216,16.9548053 50.1272068,16.3961938 49.66958,16.3431449 C49.4356534,16.3156617 49.2055617,16.2722 49.166574,16.2479125 C49.1269471,16.2236251 48.6597331,16.1648238 48.1215743,16.1181664 C47.5827763,16.0708697 47.047174,16.005038 46.9231801,15.9711633 C46.3754341,15.8209646 45.0044712,15.898301 44.8670553,16.0868483 C44.7801318,16.2044507 44.3825845,16.3635975 44.1582451,16.3693498 C43.9268751,16.3757412 43.2334044,16.6045546 42.8748448,16.7937411 C42.7399855,16.864686 42.5680559,16.9215698 42.488163,16.9215698 C42.4076309,16.9215698 42.3449948,16.9605576 42.3449948,17.0110499 C42.3449948,17.0628205 42.2913068,17.1011692 42.2190835,17.1011692 C42.0394842,17.1011692 41.4469981,17.4590895 41.4469981,17.5677439 C41.4469981,17.6144014 41.3894752,17.6361323 41.3262,17.612484 C41.2616465,17.5888357 41.1370135,17.639328 41.0603163,17.7204993 C40.8391726,17.9537867 40.6557384,18.0886459 40.5592277,18.0886459 C40.5087354,18.0886459 40.4371513,18.13786 40.3975244,18.2004961 C40.3566192,18.2644104 40.2217599,18.3788171 40.0875398,18.4657406 C39.9545979,18.5501076 39.6069038,18.8485876 39.3020323,19.1387588 C38.9965217,19.42893 38.6590539,19.7267709 38.5395341,19.811777 C38.4238491,19.8935873 38.2953812,20.0808564 38.2627849,20.2157157 C38.1349562,20.7455657 37.4069717,22.0238528 36.9557364,22.5134368 C36.873926,22.6022777 36.7518496,22.8457914 36.6853786,23.0522348 C36.6195468,23.2586782 36.5383756,23.4695955 36.5064184,23.5188096 C36.473183,23.5686628 36.3760331,23.8869563 36.2859139,24.237207 C36.1868467,24.6226105 35.9740119,25.0974942 35.734333,25.4669192 C35.5183025,25.7986347 35.3438163,26.0900841 35.3438163,26.1175673 C35.3438163,26.1450505 35.2505013,26.3150627 35.1322598,26.50361 C35.0159357,26.6896008 34.8516758,27.064778 34.7653914,27.3428055 C34.4969511,28.204371 34.674633,29.9799118 35.1092506,30.7897067 C35.191061,30.942462 35.2536971,31.1131133 35.2536971,31.1846974 C35.2536971,31.3067738 35.827648,32.3063943 36.0161953,32.5128377 C36.0660485,32.5678041 36.2469261,32.8004523 36.4207732,33.0337397 C37.0228464,33.8428955 37.7316566,34.4635038 38.6200662,34.9613967 C38.9345248,35.1371612 39.4202739,35.4203018 39.7149191,35.5986228 C40.2172859,35.902216 40.7381879,36.0920416 41.312778,36.1802434 C41.4565853,36.2026135 41.6559981,36.2741975 41.7569827,36.3413076 C41.8592457,36.4084177 42.0714414,36.4525186 42.2331447,36.4403749 C42.394848,36.427592 42.5245942,36.4576317 42.5245942,36.5074849 C42.5245942,36.5573381 42.6326094,36.5765124 42.7668296,36.5509467 C43.000117,36.5068458 44.6267373,36.7139283 44.7775752,36.8072433 C44.825511,36.837283 44.8581073,36.8251393 44.8581073,36.7765644 C44.8581073,36.4806409 50.2978581,36.4493229 50.844965,36.7426898 C50.9529802,36.8002127 51.0961484,36.8321699 51.1600627,36.8123564 C51.2239771,36.792543 51.6975825,36.726072 52.2191236,36.6647143 C52.7393865,36.6027173 53.2455882,36.4978978 53.3497686,36.4314269 C53.453949,36.3643168 53.7358113,36.3016807 53.9780467,36.2920936 C54.2381781,36.2812281 54.4714655,36.2192312 54.549441,36.1393383 C54.7188141,35.9661303 54.9565755,35.8146533 55.3157741,35.6516717 C55.4685294,35.5820051 55.6372633,35.4650418 55.7062909,35.3806749 C55.7727618,35.2988645 55.8993122,35.2330327 55.9887923,35.2330327 C56.1472999,35.2330327 56.6170704,34.7031827 56.6170704,34.5235833 C56.6170704,34.4698953 56.6579756,34.4251552 56.7065505,34.4251552 C56.7557646,34.4251552 56.7966698,34.343984 56.7966698,34.2455559 C56.7966698,34.1464886 56.8772018,34.0154642 56.9762691,33.9541064 C57.0753363,33.8921095 57.1552293,33.7911248 57.1552293,33.7291279 C57.1552293,33.6664918 57.1871865,33.6172778 57.2274525,33.6172778 C57.2658011,33.6172778 57.3955473,33.4421524 57.509954,33.2357091 C57.6243607,33.0292657 57.8384738,32.7096939 57.9771679,32.5403209 C58.1158621,32.3696696 58.2328253,32.1804831 58.2328253,32.1274342 C58.2328253,32.073107 58.3299751,31.8353455 58.4482167,31.6020581 C58.5798803,31.3419267 58.6514644,31.0690124 58.6322901,30.9015568 C58.6150332,30.7519972 58.6335683,30.4797221 58.6731952,30.3001227 C58.712183,30.1205234 58.712183,29.8853186 58.6731952,29.7798599 C58.6322901,29.6718446 58.6322901,29.5670251 58.6731952,29.5414593 C58.7850454,29.4705144 58.761397,28.8415971 58.627816,28.3660743" id="Fill-39"></path>
            <path d="M49.1144199,23.5459093 C48.9450468,23.2237809 48.5832916,23.0985088 47.676986,23.050573 C46.9138486,23.010307 46.8473777,23.0211724 46.6684175,23.2135546 C46.3558763,23.5497441 46.4741178,24.443906 46.8684694,24.7321597 C47.3836191,25.1079761 47.9729095,25.1444073 48.6376188,24.8420924 C49.0952456,24.6337316 49.3387593,23.9728572 49.1144199,23.5459093" id="Fill-43"></path>
            <path d="M45.7108526,29.1109322 C45.5868588,28.9862992 45.3069139,28.7913604 45.0832136,28.6712015 C44.8582351,28.5516816 44.6786358,28.4238529 44.6786358,28.384226 C44.6786358,28.3445991 44.5667856,28.2142138 44.4319264,28.0966114 C44.2395441,27.9285166 44.0861497,27.8805809 43.735899,27.8773852 C43.2431193,27.8729112 43.1587524,27.9099815 42.9944925,28.2046267 C42.8596332,28.4468621 42.8442938,29.1288282 42.9734008,29.1288282 C43.0270888,29.1288282 43.0628809,29.1614246 43.0628809,29.2099995 C43.0628809,29.3755377 43.6470581,29.9220054 44.0235136,30.1092745 C44.4459875,30.3195527 45.1573543,30.3630145 45.5133573,30.200672 C45.7434489,30.0964916 45.9358311,29.7756415 45.9358311,29.4969749 C45.9358311,29.4062165 45.8367639,29.2368435 45.7108526,29.1109322" id="Fill-45"></path>
            <path d="M26.2263057,14.6294093 C26.1911528,14.6645622 26.1630304,14.8000606 26.1630304,14.9349199 C26.1630304,15.2091125 26.0058011,15.6258341 25.4356851,16.8644943 C25.3398135,17.0709377 25.2656729,17.2697113 25.2656729,17.3182862 C25.2656729,17.3649437 25.0950216,17.5918397 24.8841042,17.8251271 C24.6706302,18.060971 24.304401,18.4668272 24.0544958,18.7448546 C23.8033124,19.0235212 23.547655,19.2433866 23.4747926,19.2433866 C23.4012911,19.2433866 23.2555664,19.3290318 23.1386031,19.440882 C23.0254747,19.5482581 22.7973005,19.6895088 22.6355972,19.7502274 C21.405885,20.2142457 21.1470318,20.2883863 21.0108942,20.2123282 C20.9303621,20.166949 20.8306558,20.153527 20.7820808,20.1816494 C20.7309494,20.21105 20.6785396,20.2021019 20.6516956,20.1586402 C20.6274081,20.1190133 20.3736681,20.1094261 20.0866927,20.1362702 C19.7990781,20.1637533 19.3989742,20.1637533 19.19317,20.1362702 C18.9867266,20.108787 18.7272343,20.1254047 18.6096319,20.1720622 C18.4933078,20.2193588 18.3188216,20.2717686 18.2197543,20.2890255 C17.9947758,20.3280132 16.9171798,20.8642547 16.7567547,21.0163708 C16.4851187,21.2739457 15.1135166,21.4324533 14.3414312,21.2950374 C14.1004741,21.2515757 13.7137923,21.1940527 13.4619697,21.164013 C13.2107863,21.1339732 12.8950494,21.0591935 12.7435723,20.9940008 C12.5959302,20.9294473 12.3127896,20.8501935 12.1159334,20.8175972 C11.4691201,20.7108602 9.43472615,20.0461509 8.8396835,19.7476709 C8.2644543,19.4594171 7.76080918,19.1277016 7.43868083,18.826665 C7.07117328,18.4828058 6.41605114,17.6685369 6.41605114,17.5560476 C6.41605114,17.5061944 6.35724993,17.4435584 6.28566585,17.4167143 C6.21472092,17.3898703 6.08625306,17.232641 6.00252526,17.0709377 C5.92007574,16.9092343 5.82612163,16.7552007 5.79672103,16.7315524 C5.67911862,16.6356809 5.51869358,16.2720082 5.51869358,16.1013569 C5.51869358,16.0029288 5.4777884,15.9217576 5.42857434,15.9217576 C5.378082,15.9217576 5.3384551,15.8456995 5.3384551,15.7472714 C5.3384551,15.6482041 5.29946734,15.5484977 5.248975,15.518458 C5.20103924,15.4890574 5.15885576,15.3030666 5.15885576,15.1145192 C5.15885576,14.9259719 5.11795057,14.739342 5.06937566,14.7099414 C5.02080075,14.6811799 4.97989557,14.5578252 4.97989557,14.4408619 C4.97989557,14.3245378 4.93835124,14.2011831 4.88977632,14.1717825 C4.83992313,14.1417427 4.80029623,13.9832351 4.80029623,13.8125838 C4.80029623,13.6425716 4.7587519,13.4821466 4.70570298,13.4489111 C4.6545715,13.4175931 4.6341189,13.323639 4.66096293,13.2431069 C4.6884461,13.1612965 4.65712807,12.6819389 4.59193543,12.1789329 C4.46027186,11.1556641 4.47688959,10.6494624 4.6545715,10.2314625 C4.71976414,10.0793463 4.84695371,9.72845649 4.93451637,9.45937706 C5.02399647,9.18582361 5.27070588,8.5971724 5.48673641,8.13954561 C5.70340607,7.68191883 5.87725312,7.26200151 5.87725312,7.19744801 C5.87725312,7.13353366 5.99996868,6.93667744 6.14633256,6.76666526 C6.29333557,6.59601393 6.41605114,6.40107514 6.41605114,6.3403565 C6.41605114,6.27708129 6.45503889,6.22786724 6.50617038,6.22786724 C6.55921929,6.22786724 6.59501133,6.19591006 6.59501133,6.14733515 C6.59501133,6.04635047 6.84363818,5.74339642 7.42461967,5.13301433 C7.66365936,4.88183091 7.85220671,4.62873006 7.85220671,4.55842427 C7.85220671,4.48620105 7.88096817,4.43251299 7.91931678,4.43251299 C7.95638711,4.43251299 8.08996811,4.33536317 8.21524025,4.21712161 C8.34179067,4.09888005 8.53097716,3.97552535 8.63707499,3.94356817 C8.74509025,3.91097185 8.85374466,3.80998717 8.88442355,3.71475478 C8.9144633,3.6182441 9.01416969,3.52045514 9.11323694,3.49041539 C9.21230419,3.4597365 9.28836228,3.40477015 9.28836228,3.36450411 C9.28836228,3.29675489 9.53954569,3.19768764 9.88915722,3.12738185 C9.95434986,3.11459898 10.2758391,2.97654397 10.6075546,2.81803637 C11.3170039,2.48120771 11.6052577,2.41026278 12.1606734,2.4383851 C13.3002664,2.49654716 13.6607433,2.48184686 13.8659084,2.36935759 C14.1100613,2.23577659 14.8623332,2.15204878 15.7060027,2.16419251 C16.6218954,2.17697538 17.496883,2.22235457 17.572941,2.26006404 C17.6119288,2.27987749 17.9142437,2.31247381 18.2376503,2.33228726 C18.6761028,2.35849215 19.0538367,2.46650741 19.6910628,2.745174 C20.1678639,2.95289566 20.5730809,3.14847359 20.5980075,3.18043076 C20.6229341,3.21302708 20.8223469,3.3204032 21.0466863,3.42266617 C21.2710257,3.52492914 21.5266831,3.69046732 21.6212763,3.79528686 C21.7184262,3.90330213 21.8264414,3.98383421 21.8724597,3.98383421 C21.9146432,3.98383421 22.011793,4.03816142 22.0750683,4.09632348 C22.1409,4.15768126 22.3217777,4.30340599 22.474533,4.41909097 C22.6266491,4.53477596 22.7519213,4.68689212 22.7519213,4.75591963 C22.7519213,4.82494713 22.8330925,4.93232325 22.9321598,4.99368103 C23.0305879,5.05567796 23.1117591,5.1502712 23.1117591,5.20459841 C23.1117591,5.32028339 23.7579332,6.19910578 23.9547895,6.35186109 C24.1356671,6.49247267 24.5479147,7.26008408 24.5479147,7.45757944 C24.5479147,7.55281183 24.6271685,7.71323686 24.7268749,7.82125212 C24.8278596,7.92926738 24.9071134,8.05965267 24.9071134,8.11781473 C24.9071134,8.17342022 25.0304681,8.48084827 25.1800276,8.7953069 C25.5558441,9.58464919 25.7974403,10.3356429 25.8012752,10.7248813 C25.8031926,10.9000066 25.8664678,11.2227741 25.9393302,11.4298566 C26.0115534,11.6356609 26.0530977,11.8459391 26.0281711,11.8874834 C26.0013271,11.9328626 26.0198623,11.9852724 26.0735503,12.0178687 C26.1227644,12.0466302 26.1630304,12.2422081 26.1630304,12.4480123 C26.1630304,12.6550948 26.1943485,12.8736819 26.2320579,12.9331223 C26.3183423,13.0679816 26.3132292,14.5431249 26.2263057,14.6294093 M28.2638953,11.2547313 C28.2140421,11.2547313 28.1220054,10.9945999 28.0574519,10.6711932 C27.9928984,10.3477866 27.9046966,10.0652851 27.8599566,10.0384411 C27.8139382,10.0103188 27.7794245,9.91252984 27.7794245,9.81410173 C27.7794245,9.71503448 27.7397976,9.6389764 27.6893053,9.6389764 C27.6400912,9.6389764 27.599186,9.52201313 27.599186,9.37884497 C27.599186,9.23503767 27.5410239,9.00558513 27.4681616,8.86689098 C27.2770577,8.49874429 26.980495,7.79121238 26.9376724,7.60138674 C26.8641709,7.27286695 26.7689385,7.03574469 26.4704585,6.44325862 C26.303642,6.11090397 26.1630304,5.79197133 26.1630304,5.74339642 C26.1630304,5.69418237 26.0550152,5.54142706 25.925269,5.40656777 C25.7955229,5.27170848 25.6408502,5.08188284 25.5852447,4.98920703 C25.2011194,4.3519809 24.9243702,3.99086479 24.7901501,3.95379447 C24.705144,3.9307853 24.6105507,3.84002691 24.5766761,3.75054682 C24.4833612,3.50128083 23.3092545,2.39939734 22.8420405,2.12264818 C22.6177011,1.98970632 22.4246798,1.85165131 22.4067838,1.81138527 C22.3895269,1.77175837 22.3032425,1.73980119 22.2137624,1.73980119 C22.1242823,1.73980119 22.0303282,1.6841957 22.0034842,1.61388991 C21.976001,1.5448624 21.8008757,1.42022941 21.6123283,1.33586246 C21.423781,1.25149551 21.1630104,1.12558423 21.0287903,1.0546393 C19.6469619,0.319624207 19.2730629,0.191795496 18.4434546,0.16559061 C18.022259,0.152807739 17.4201857,0.108706834 17.0974182,0.0678016463 C16.4333481,-0.0172044466 15.6146052,-0.0229567386 15.3474432,0.0543796317 C15.2477368,0.0831410917 14.7773271,0.134272576 14.2922172,0.168786328 C13.8077464,0.203939224 13.4172296,0.271688441 13.4172296,0.321541638 C13.4172296,0.372033979 13.3680156,0.39376486 13.3047404,0.370755692 C13.2440217,0.349024811 13.0043429,0.403352013 12.7800035,0.489636393 C12.3811779,0.64366999 12.1964655,0.68137946 11.1195086,0.830939052 C10.858738,0.867370235 10.5973283,0.941510887 10.5270225,0.999033807 C10.4592733,1.0546393 10.2930959,1.12111023 10.1678238,1.14284111 C10.0425517,1.16457199 9.84761289,1.23104292 9.74598906,1.28664841 C9.63861295,1.34544961 9.5190931,1.36590221 9.46732247,1.33330589 C9.38103809,1.27897868 8.90231957,1.51034865 8.68692819,1.71103973 C8.6268487,1.76664522 8.36352155,1.87913448 8.09444211,1.96414058 C7.82536268,2.04914667 7.47383372,2.23258087 7.30509982,2.37702731 C7.13380935,2.52275204 6.96954946,2.63715874 6.93247913,2.63715874 C6.8954088,2.63715874 6.72475747,2.78096604 6.55921929,2.95161737 C6.39368111,3.1222687 6.20960777,3.266076 6.15591971,3.266076 C6.10159251,3.266076 6.05685246,3.30634204 6.05685246,3.3555561 C6.05685246,3.4054093 5.88364455,3.67384959 5.66633575,3.96146419 C5.44902694,4.24843965 5.16269062,4.70670557 5.02016161,4.99368103 C4.8776326,5.28129563 4.59065714,5.67500806 4.37398748,5.88209057 C4.1585961,6.0878948 3.9150824,6.41002315 3.83071545,6.60048793 C3.74762679,6.78903528 3.6479204,6.94626459 3.61085007,6.94626459 C3.57377974,6.94626459 3.54374,7.0402187 3.54374,7.15718197 C3.54374,7.27222781 3.35838836,7.74072003 3.13532726,8.18939881 C2.88478299,8.69176565 2.69751393,9.21075021 2.6502173,9.52648713 C2.60803383,9.81410173 2.50832744,10.2078142 2.42587792,10.4155358 C2.30635807,10.7159333 2.28654462,10.9850127 2.32361495,11.8107862 C2.38497273,13.1843057 2.47509197,14.0330883 2.56457207,14.0874155 C2.60867297,14.1136204 2.6457433,14.2344186 2.6457433,14.3513818 C2.6457433,14.4683451 2.6808962,14.5872258 2.72244053,14.6115133 C2.76334571,14.6358007 2.85218667,14.8448007 2.91482274,15.06914 C2.97873709,15.2941186 3.0669389,15.5024794 3.10784409,15.527406 C3.15066671,15.5523326 3.18454132,15.6935833 3.18454132,15.8456995 C3.18454132,15.9958982 3.26123854,16.2675342 3.35519265,16.4471336 C3.44850761,16.6267329 3.59039748,16.9207389 3.66901213,17.0977817 C3.74890508,17.277381 3.87225978,17.4710415 3.94767872,17.5330385 C4.0192628,17.5931179 4.08253801,17.6877112 4.08253801,17.7350078 C4.08253801,17.784861 4.36823518,18.2111698 4.72104243,18.6866926 C5.41962633,19.6294293 6.70174831,20.9486216 6.91841797,20.9486216 C6.99000205,20.9486216 7.07628643,21.0112577 7.10249132,21.0834809 C7.1286962,21.155065 7.19964114,21.2183402 7.25460748,21.2183402 C7.31276955,21.2183402 7.45721599,21.2969549 7.58248813,21.3973004 C7.70839941,21.4982851 7.89566847,21.5768997 8.00879688,21.5768997 C8.11681214,21.5768997 8.21076624,21.6190832 8.21076624,21.667019 C8.21076624,21.7513859 8.66008416,21.9079761 9.15350299,21.9961779 C9.29986686,22.0217436 9.56702887,22.1054715 9.73704105,22.1783338 C10.903478,22.6768658 12.7851167,23.1709238 13.8211684,23.2501776 C14.6347981,23.3128136 15.5890395,23.1530277 16.6033603,22.7855202 C16.9536109,22.6589698 17.4112377,22.5643765 17.6764823,22.5643765 C17.9283049,22.5643765 18.3437482,22.5068536 18.587901,22.4378261 C19.0365798,22.3106365 20.1160933,22.2984928 20.311032,22.4173735 C20.3711115,22.4544438 20.4676222,22.4518873 20.5308974,22.4116212 C20.5941726,22.3713552 20.7597108,22.3310891 20.9124661,22.3195845 C21.2537688,22.2933797 21.6532335,22.2345785 21.944683,22.1674684 C22.064842,22.1399852 22.2859856,22.0907712 22.4202058,22.0626488 C22.7436124,21.9942605 23.4383615,21.6945021 23.7393981,21.4931719 C23.8646702,21.4100833 24.1433368,21.2688325 24.3683153,21.1748784 C24.7805629,21.0029488 24.9627188,20.874481 25.248416,20.5536309 C25.3295872,20.4628725 25.4944863,20.2909429 25.6018624,20.1854842 C25.7098777,20.0806647 25.8044709,19.9400531 25.8044709,19.8850867 C25.8044709,19.828203 25.885003,19.7821846 25.9840702,19.7821846 C26.0824984,19.7821846 26.1630304,19.7355271 26.1630304,19.6786434 C26.1630304,19.6230379 26.3068377,19.4523866 26.4774891,19.3060227 C26.6481404,19.1596588 26.7919477,18.9711115 26.7919477,18.8931359 C26.7919477,18.8145213 26.9236113,18.5435244 27.0840363,18.2917019 C27.5365499,17.5828917 27.599186,17.4620935 27.599186,17.3048642 C27.599186,17.2243321 27.6720484,17.0709377 27.7525805,16.9814576 C28.1252012,16.5666534 28.2408861,15.8770175 28.289461,13.8036358 C28.3201399,12.4844435 28.3041614,11.7596547 28.2408861,11.640774 C28.1756935,11.5148627 28.1782501,11.4298566 28.2504733,11.3576334 C28.3131094,11.2949973 28.3182225,11.2547313 28.2638953,11.2547313" id="Fill-47"></path>
            <path d="M20.105803,14.5307894 C20.0361364,14.3332941 19.8456716,14.0584623 19.68269,13.9197682 C19.4091366,13.6864808 19.143892,13.6468539 18.6504732,13.7644563 C18.5501276,13.7874655 17.7115713,14.7014408 17.558816,14.9526242 C17.3069934,15.3655109 17.3089108,15.6320338 17.5639291,15.940101 C17.8368434,16.2679816 18.3181185,16.3267828 18.8300725,16.0934954 C19.0365159,15.9995413 19.299843,15.922205 19.4136106,15.922205 C19.6398674,15.922205 19.7402129,15.8410337 20.038693,15.4198381 C20.2713412,15.0906792 20.2777327,15.0152602 20.105803,14.5307894" id="Fill-49"></path>
            <path d="M18.6233735,9.01037871 C18.5249454,8.9119506 18.4437741,8.79498733 18.4437741,8.75024728 C18.4437741,8.70614638 18.2501136,8.46710669 18.0174654,8.22487128 C17.6186398,7.80878882 17.5553646,7.77683165 17.0255146,7.71866958 C16.3793405,7.6470855 16.261738,7.70396928 16.0578512,8.18460523 C15.8456556,8.68761121 15.8923131,9.10305452 16.2086891,9.53128071 C16.3614444,9.73772408 16.5193129,9.88728367 16.5589398,9.86235707 C16.6273282,9.81889531 17.0434106,9.96525918 17.4741934,10.1844854 C17.8608752,10.3813416 18.6233735,10.227308 18.6233735,9.95311545 C18.6233735,9.88089223 18.6649178,9.81825616 18.7134927,9.81825616 C18.8803092,9.81825616 18.8119208,9.19892606 18.6233735,9.01037871" id="Fill-51"></path>
            <path d="M11.6645702,11.6942703 C11.5980993,11.5773071 11.5086192,11.4130472 11.4689923,11.3350717 C11.4306436,11.2570961 11.2401789,11.0033561 11.0529098,10.7783776 C10.6726194,10.3233074 10.3025553,10.1999527 9.65574199,10.312442 C9.34511822,10.3667692 9.27097757,10.4287661 9.0996871,10.7783776 C8.92456176,11.1375763 8.91497461,11.220665 9.01595929,11.523619 C9.14187057,11.9007137 9.38921913,12.2132549 9.73691322,12.4324811 C9.86090707,12.5104566 10.0213321,12.6906951 10.0954728,12.8345024 C10.2571761,13.1483219 10.337069,13.2365237 10.6432188,13.4372148 C10.8995154,13.6040313 11.0918976,13.5663218 11.4153042,13.2838204 C11.7789769,12.9668051 11.9106405,12.1250531 11.6645702,11.6942703" id="Fill-53"></path>
            <path d="M31.7040216,53.5769001 C31.545514,54.0166309 31.3160614,54.3138327 31.1920676,54.2371354 C31.1479667,54.2096523 30.5190494,54.1674688 29.7923432,54.1425422 C28.8943465,54.1118633 28.3900622,54.0562578 28.2168543,53.9674169 C28.073047,53.8945545 27.9388269,53.8587625 27.9113437,53.8868848 C27.8825823,53.9156462 27.8173896,53.8983894 27.7541144,53.8459796 C27.6972306,53.7993221 27.5655671,53.7437166 27.476087,53.7296555 C27.3859677,53.7155943 27.2632522,53.6772457 27.2159555,53.6484842 C27.1654632,53.6184445 26.8478088,53.567313 26.4975582,53.5321601 C25.8756715,53.4701632 25.2141579,53.3027076 24.3430052,52.9869706 C24.2445771,52.9511786 24.0477209,52.9077168 23.9039136,52.89046 C23.7569106,52.8725639 23.5172318,52.7626313 23.3555285,52.6392765 C23.1951034,52.5159218 22.8844797,52.3733928 22.6511923,52.3158699 C22.4179049,52.258347 22.2121006,52.1771758 22.1846175,52.1317966 C22.1564951,52.0864174 22.0587062,52.0512645 21.9602781,52.0512645 C21.8624891,52.0512645 21.6982292,51.9521972 21.5876574,51.8269251 C21.4770855,51.7010138 21.2994036,51.6025857 21.1837187,51.6025857 C20.8654252,51.6025857 20.2774131,51.3124145 19.8645264,50.9512984 C19.7654591,50.865014 19.6318781,50.7940691 19.5679637,50.7940691 C19.5053277,50.7940691 19.4516396,50.7512465 19.4516396,50.700115 C19.4516396,50.6489835 19.3973124,50.6183046 19.3346763,50.6323658 C19.1467681,50.6751884 17.476686,50.014314 17.476686,49.8967116 C17.476686,49.8673109 17.2836647,49.7880571 17.0503773,49.7215862 C16.8170899,49.6551153 16.572937,49.5618003 16.5115793,49.5151428 C16.4476649,49.4665679 16.3460411,49.4505893 16.2738179,49.4774334 C16.1440717,49.5266474 15.196861,49.2601246 14.8645063,49.0811644 C14.6785155,48.981458 13.9575616,48.888143 13.4737299,48.901565 C13.3216138,48.906039 12.9036139,48.8076109 12.5533632,48.6848954 C12.2031125,48.5628189 11.8362441,48.460556 11.7448466,48.460556 C11.6560057,48.460556 11.550547,48.4317945 11.5166724,48.3979199 C11.4821586,48.3634062 11.283385,48.344871 11.0769416,48.3570147 C10.8698591,48.3697976 10.5841619,48.3167487 10.4435503,48.2406906 C10.3003822,48.1627151 10.1073608,48.1013573 10.0038196,48.1013573 C9.90539147,48.1013573 9.77244961,48.0374429 9.71684412,47.9626632 C9.66059948,47.8866051 9.43370352,47.801599 9.21831214,47.7760332 C8.76643765,47.721706 8.64436123,47.68144 8.0071351,47.3772077 C7.62300983,47.1944126 7.41464903,47.0589142 6.92953907,46.6811803 C6.8816033,46.64411 6.77678376,46.5872262 6.70519968,46.559743 C6.52560034,46.4900764 4.9724815,45.2271287 4.88172312,45.07693 C4.84401365,45.0136548 4.76156413,44.9586884 4.70340206,44.956771 C4.55959476,44.952297 4.19208722,44.6384775 4.19208722,44.520236 C4.19208722,44.4665479 4.15118203,44.4211687 4.10196798,44.4211687 C4.05147564,44.4211687 4.01248788,44.3719547 4.01248788,44.3093186 C4.01248788,44.2460434 3.89424632,44.070918 3.74340844,43.9098539 C3.59193142,43.7481505 3.47368986,43.5992301 3.47368986,43.5685512 C3.47368986,43.5397897 3.42319752,43.4605359 3.36375717,43.3978999 C3.12407834,43.1441599 2.97643618,42.9313251 2.85883376,42.6711937 C2.7904454,42.5184383 2.70288273,42.343313 2.65750354,42.2672549 C2.47982163,41.969414 2.37691952,41.6658208 2.30725287,41.2343989 C2.26698683,40.985133 2.17367187,40.5703288 2.0963355,40.3012493 C2.01899913,40.0321699 1.97489822,39.7848214 1.99726825,39.7445553 C2.01963827,39.7055676 2.05415202,39.4083658 2.07396547,39.0939072 C2.09313978,38.7800877 2.15258013,38.3774272 2.20371162,38.2144456 C2.25612139,38.0476292 2.34368406,37.7338097 2.40120698,37.5094703 C2.4587299,37.2851309 2.5379837,37.0460912 2.58080631,36.9713114 C2.62298979,36.8965316 2.72269618,36.7060668 2.8051457,36.5450027 C2.88695608,36.3832993 2.98921905,36.2529141 3.03459824,36.2529141 C3.07742086,36.2529141 3.11513033,36.199226 3.11513033,36.1365899 C3.11513033,36.0720364 3.18991012,35.9390946 3.28066851,35.8400273 C3.37142689,35.7422384 3.49605989,35.5709479 3.55486109,35.4629326 C3.63731061,35.3114556 3.74340844,35.2660764 4.01248788,35.2660764 C4.20103523,35.2660764 4.38574772,35.2283669 4.4119526,35.1849052 C4.44007492,35.1388868 4.57812993,35.0768899 4.73088524,35.041737 C4.8830014,35.0053058 5.06771389,34.894734 5.15719399,34.7854405 C5.2453958,34.6774252 5.41285141,34.5476791 5.53876269,34.4907953 C5.73050576,34.4032326 6.63297646,34.1788932 6.92953907,34.1450186 C6.97939227,34.1392663 7.19030964,34.0849391 7.40506187,34.0223031 C7.62045325,33.959667 7.8588538,33.9302664 7.94385989,33.955193 C8.0275877,33.9794804 8.33885061,34.0082419 8.63477408,34.017829 C8.93133669,34.0280553 9.29437023,34.0983611 9.44329067,34.1750584 C9.59540684,34.2543122 9.77117132,34.3201439 9.8472294,34.3278137 C10.0089327,34.3444314 10.3674923,34.4473335 10.6097277,34.5464008 C10.7113515,34.5879451 10.9062903,34.6659206 11.0584064,34.7272784 C11.2047703,34.7854405 11.4719323,34.8519114 11.6419445,34.8717248 C11.9838863,34.9119909 12.6249473,35.1861835 12.628143,35.2929204 C12.6287822,35.3280733 12.7284886,35.3555565 12.8537607,35.3555565 C13.1049441,35.3555565 13.7070173,35.6214402 13.7070173,35.7326512 C13.7070173,35.7754738 13.7421702,35.8042353 13.7958583,35.8042353 C13.9249653,35.8042353 14.440115,36.172382 14.5890354,36.3698773 C14.6491149,36.4504094 14.7456256,36.5219935 14.7929222,36.5219935 C14.8945461,36.5219935 15.0441057,36.6376785 15.4033043,36.9924032 C15.5375245,37.125345 15.6979495,37.2403909 15.7484419,37.2403909 C15.8027691,37.2403909 15.8564571,37.2691523 15.8743531,37.3075009 C15.89161,37.3439321 16.0897445,37.499244 16.3051359,37.6443296 C16.5275578,37.7938892 16.90657,38.1294395 17.1577534,38.398519 C17.4102151,38.6675984 17.75727,39.035106 17.9387868,39.2242925 C18.1196644,39.4128398 18.3388907,39.6876715 18.4283708,39.8391486 C18.5178509,39.9919039 18.6616582,40.112702 18.7511383,40.112702 C18.8412575,40.112702 18.9128416,40.1568029 18.9128416,40.2117692 C18.9128416,40.2660965 19.1109761,40.5121667 19.3576855,40.7633501 C19.6031166,41.0151727 19.8472695,41.3309096 19.9047924,41.4727995 C19.9629545,41.6166068 20.0434865,41.7284569 20.0888657,41.7284569 C20.1348841,41.7284569 20.1693978,41.768723 20.1693978,41.822411 C20.1693978,41.8735425 20.2198902,41.9706923 20.2793305,42.0333284 C20.4141898,42.1777748 20.5522448,42.347787 20.9779144,42.895533 C21.1517615,43.1198724 21.3217737,43.3128938 21.358844,43.3307898 C21.3978317,43.349325 21.4259541,43.4068479 21.4259541,43.4701231 C21.4259541,43.5302026 21.6240886,43.76349 21.8746328,43.999334 C22.1264554,44.2358171 22.3233116,44.4428996 22.3233116,44.4703828 C22.3233116,44.4972268 22.3750822,44.573924 22.4358009,44.6365601 C22.4997152,44.7023919 22.6716449,44.8928567 22.8307916,45.0718168 C22.9848252,45.2456639 23.2935315,45.5070736 23.5089229,45.647046 C23.9039136,45.9033426 24.5692621,46.4050703 24.8549592,46.662006 C25.2052099,46.9771038 25.299164,47.0391007 25.4742893,47.0710579 C25.5823046,47.0908713 25.7261119,47.178434 25.811118,47.2755838 C25.8910109,47.3682596 26.1249375,47.5325195 26.3224328,47.6347825 C26.5205673,47.7370455 26.7391544,47.8866051 26.8030688,47.9626632 C26.870818,48.0431952 26.9705244,48.1013573 27.0408302,48.1013573 C27.1034663,48.1013573 27.217873,48.1537671 27.2785916,48.2106509 C27.538723,48.4535254 27.9784538,48.7302746 28.1043651,48.7302746 C28.1759492,48.7302746 28.2743773,48.7833235 28.3338176,48.8555467 C28.3894231,48.9245742 28.6067319,49.0632684 28.8138144,49.1629747 C29.172374,49.3361827 29.6843279,49.7254211 29.6843279,49.8251275 C29.6843279,49.9222773 30.2045908,50.4355096 30.3036581,50.4355096 C30.3586244,50.4355096 30.4020862,50.4936716 30.4020862,50.5658949 C30.4020862,50.6374789 30.4544959,50.7295156 30.5190494,50.7710599 C30.677557,50.8733229 31.0418689,51.4677264 31.3307617,52.0960045 C31.4668993,52.391928 31.6375507,52.7357872 31.7091347,52.8585028 C31.8657249,53.1282214 31.8657249,53.1282214 31.7040216,53.5769001 M33.8905317,52.3471879 C33.8579354,52.2596253 33.7837947,52.0103593 33.7281892,51.8045551 C33.6719446,51.5974726 33.5856602,51.4223472 33.5396419,51.4223472 C33.491067,51.4223472 33.4539966,51.3686592 33.4539966,51.2970751 C33.4539966,51.04717 33.148486,50.6061609 32.3080122,49.6455281 C32.1514221,49.4659288 32.0178411,49.262042 32.0178411,49.2013234 C32.0178411,49.1380481 31.9788533,49.0888341 31.928361,49.0888341 C31.8746729,49.0888341 31.8382417,49.0530421 31.8382417,48.999354 C31.8382417,48.8069718 30.8507649,47.9294277 30.3305021,47.65907 C30.0249915,47.5005624 29.7373769,47.3171282 29.6798539,47.2442658 C29.6236093,47.17396 29.5002546,47.1145197 29.4101354,47.1145197 C29.3206553,47.1145197 29.2113617,47.062749 29.172374,47.0020304 C29.1327471,46.9393943 28.9211905,46.7923913 28.6968512,46.670954 C28.2481724,46.4280795 27.8026893,46.1308777 27.6665517,45.9832356 C27.6160594,45.9282692 27.2651696,45.6943427 26.8791269,45.4578596 C26.4930842,45.2213764 26.0936194,44.9356793 25.9817693,44.8161594 C25.8724758,44.6998353 25.7382556,44.600768 25.6896807,44.600768 C25.6404667,44.600768 25.5497083,44.520236 25.4877114,44.4211687 C25.4263536,44.3227406 25.31706,44.2422085 25.2461151,44.2422085 C25.1732527,44.2422085 25.0831335,44.1878813 25.0435066,44.1207712 C25.0038797,44.053022 24.74247,43.8523309 24.4554945,43.6676185 C24.1685191,43.482906 23.9397057,43.2815757 23.9397057,43.2138265 C23.9397057,43.1454382 23.8227424,42.9818174 23.6706262,42.8367318 C23.5172318,42.6922854 23.4009076,42.5171601 23.4009076,42.4327931 C23.4009076,42.352261 23.3395499,42.2627809 23.2660484,42.2352977 C23.1880728,42.2071754 23.1318282,42.1279216 23.1318282,42.0467504 C23.1318282,41.9662183 23.0749444,41.9080562 22.9969689,41.9080562 C22.9253848,41.9080562 22.8621096,41.8620379 22.8621096,41.808989 C22.8621096,41.684356 22.3418468,41.0260381 22.0273881,40.753763 C21.8925289,40.6367997 21.7851527,40.4655092 21.7851527,40.3683594 C21.7851527,40.2737662 21.6726635,40.072436 21.5384433,39.9286287 C21.4048623,39.7854605 21.0859297,39.4441578 20.8430551,39.1833873 C20.5925109,38.9162253 20.1342449,38.425363 19.8082817,38.0751123 C18.45138,36.6210608 18.2417409,36.4152565 17.9790529,36.2797581 C17.8294933,36.2024217 17.5393221,35.9870303 17.3507747,35.8131833 C17.1622274,35.6393362 16.9327749,35.4258623 16.8528819,35.3510825 C16.7717107,35.2743853 16.5652673,35.1452783 16.3952551,35.0634679 C16.2284387,34.9842141 15.9242063,34.7688227 15.735659,34.5968931 C15.5471116,34.4256026 15.3355551,34.2785996 15.2773931,34.2785996 C15.2179527,34.2785996 15.0620017,34.1782541 14.9277815,34.0542602 C14.7929222,33.9289881 14.6491149,33.8299208 14.6043749,33.8299208 C14.4695156,33.8299208 13.8859775,33.5308017 13.8859775,33.461135 C13.8859775,33.4259821 13.7690143,33.3518415 13.6168981,33.2911228 C13.4641428,33.229765 13.3471795,33.1505112 13.3471795,33.1070495 C13.3471795,33.0642269 13.2263814,33.0348263 13.0742652,33.0399394 C12.9208708,33.0444134 12.7546934,33.0028691 12.6971705,32.9453462 C12.6383693,32.886545 12.490088,32.842444 12.3558679,32.842444 C12.2216477,32.842444 12.0241524,32.7695817 11.9027151,32.6743493 C11.555021,32.4046307 11.1664217,32.2307837 10.6908989,32.1336338 C10.4480243,32.0837806 10.090104,32.005166 9.89196945,31.9578694 C9.69447409,31.9112119 8.98502474,31.8504932 8.32095459,31.8230101 C7.19861851,31.7769917 6.75888774,31.8217318 6.21114171,32.0358449 C6.1127136,32.0741935 5.78994611,32.174539 5.4933835,32.258906 C5.19682089,32.3426338 4.77306871,32.5043371 4.5512859,32.6181047 C4.32630737,32.7325114 4.01376617,32.8520312 3.84631056,32.8871841 C3.68460724,32.9210587 3.43406296,33.0744532 3.30303853,33.2188996 C2.96429245,33.5959943 2.54309684,34.0191073 2.22608164,34.3003305 C2.07396547,34.4358289 1.94741505,34.5879451 1.94741505,34.6371592 C1.94741505,34.6914864 1.9173753,34.7272784 1.87135697,34.7272784 C1.83045178,34.7272784 1.73777596,34.8391285 1.67002675,34.9739878 C1.60099924,35.108208 1.5211063,35.2411498 1.49426227,35.2660764 C1.4667791,35.291003 1.29868434,35.5172598 1.11333271,35.7773913 C0.798234937,36.2203177 0.697889399,36.4862015 0.504228902,37.4020942 C0.458210566,37.6174856 0.366813037,37.9146873 0.296507246,38.0751123 C0.105403323,38.5154823 -0.0492694177,39.5106288 0.0146449379,39.8973106 C0.0459629721,40.0896928 0.0938987388,40.4897967 0.121381912,40.7857202 C0.148225941,41.0822828 0.207027148,41.3628668 0.251128054,41.4095243 C0.295868102,41.4568209 0.332299285,41.6472857 0.332299285,41.835833 C0.332299285,42.0243804 0.370647899,42.2474415 0.417944522,42.334365 C0.464602001,42.4206494 0.654427637,42.815001 0.839140125,43.2093525 C1.02449176,43.6043432 1.35173326,44.1699853 1.56648549,44.4665479 C1.78123773,44.7624714 2.11870552,45.237355 2.31620088,45.5211348 C2.51561367,45.8081102 2.71310903,46.0369236 2.76040565,46.0369236 C2.81153714,46.0369236 2.84605089,46.0727157 2.84605089,46.1270429 C2.84605089,46.225471 3.46474185,46.8448011 3.5638091,46.8448011 C3.59832286,46.8448011 3.76066532,46.9636818 3.93195579,47.1145197 C4.09685483,47.2602444 4.4119526,47.4884186 4.61839597,47.6124125 C4.82483934,47.7364063 5.09455792,47.9358191 5.20640804,48.0476692 C5.31889731,48.1601585 5.61482077,48.3295316 5.85705618,48.4202899 C6.09929159,48.5110483 6.33641385,48.643351 6.37731904,48.7117394 C6.470634,48.8651339 7.35137382,49.2684334 7.59360922,49.2684334 C7.68372846,49.2684334 7.77896085,49.3131735 7.79621773,49.3623875 C7.81283546,49.4147973 7.98923908,49.4729594 8.1860953,49.4921337 C8.54593312,49.5272866 9.0444651,49.7266994 9.30843138,49.9408125 C9.38257204,50.0002528 9.60499399,50.0731152 9.80185021,50.1018766 C10.7356389,50.2386534 11.5486295,50.4272007 12.0011432,50.611274 C12.222926,50.7020324 12.7911246,50.824748 13.2583386,50.8835492 C14.2093842,51.003069 14.7360385,51.1302586 14.9993656,51.3041057 C15.0997111,51.3705766 15.3042371,51.4223472 15.4659404,51.4223472 C15.6270046,51.4223472 15.9510504,51.5214145 16.2022338,51.6466866 C16.4534172,51.7725979 16.7122703,51.8716651 16.7902458,51.8716651 C16.8707779,51.8716651 16.9781541,51.9221575 17.0452641,51.9924633 C17.1117351,52.0614908 17.2791907,52.1401054 17.431946,52.1752583 C17.7368175,52.2442858 19.2151565,52.9639615 19.2611748,53.0655853 C19.2771534,53.0988208 19.3436244,53.1282214 19.4068996,53.1282214 C19.4682573,53.1282214 19.573716,53.1908574 19.6305998,53.2630807 C19.6913184,53.3378605 19.8236212,53.3973008 19.9316364,53.3973008 C20.0390125,53.3973008 20.3042571,53.5008421 20.5285965,53.6305882 C20.7529359,53.7609735 21.1613486,53.9597471 21.4483241,54.0799061 C21.7359387,54.199426 22.155856,54.4128999 22.396174,54.5599029 C22.6358528,54.7075451 23.0334001,54.8705267 23.2935315,54.9280496 C23.553663,54.9855725 23.7594672,55.0667438 23.7594672,55.112123 C23.7594672,55.1549456 23.8764305,55.1926551 24.0112897,55.1926551 C24.1487056,55.1926551 24.4644425,55.250178 24.7073171,55.3185663 C24.9533873,55.388233 25.5107205,55.4700434 25.9593993,55.5026397 C26.4080781,55.5345969 27.0855702,55.5844501 27.485035,55.6144898 C27.8800257,55.6438904 28.3747228,55.6624256 28.5843619,55.6547558 C28.8809245,55.6445295 28.9914963,55.6815999 29.0784199,55.8209332 C29.1397776,55.9200004 29.2612149,56.0005325 29.3474993,56.0005325 C29.4369794,56.0005325 29.5047286,56.0350463 29.5047286,56.0810646 C29.5047286,56.2223153 29.9265634,56.2453245 30.223126,56.1206915 C30.383551,56.0535814 30.6449607,56.0005325 30.8149729,56.0005325 C31.0373949,56.0005325 31.2144376,55.9148873 31.4662602,55.6860739 C31.6548075,55.5147834 31.9091867,55.3722544 32.0267891,55.3722544 C32.1456698,55.3722544 32.489529,55.2520954 32.7944005,55.103175 C33.2162352,54.8967316 33.4067,54.738224 33.6022779,54.4295176 C33.7441678,54.2051783 33.8898925,54.0255789 33.9295194,54.0255789 C34.0126081,54.0255789 33.9793726,52.5894234 33.8905317,52.3471879" id="Fill-55"></path>
            <path d="M24.3943924,49.4658649 C24.1905056,48.8286388 23.9930102,48.6068559 23.6970868,48.6822749 C23.2867566,48.7870944 23.1979157,48.963498 23.2119768,49.6454642 C23.2266771,50.3184824 23.3155181,50.5434609 23.6344507,50.712834 C23.9182304,50.8630327 24.2307716,50.7582131 24.4090927,50.4533417 C24.593166,50.1395222 24.5925269,50.085195 24.3943924,49.4658649" id="Fill-57"></path>
            <path d="M19.6426796,44.7265515 C19.6113616,44.6274842 19.4937592,44.430628 19.3799916,44.2868207 C19.2029489,44.0637596 19.096851,44.020937 18.6392242,43.9902581 L18.1049002,43.9544661 L17.9106006,44.3852488 C17.658778,44.9444995 17.645356,44.9956309 17.609564,45.614961 C17.5616282,46.4407345 17.7169401,46.7123705 18.3381876,46.8849393 C18.6667074,46.9763368 19.4515757,45.9920557 19.4515757,45.4896889 C19.4515757,45.4085177 19.5148509,45.2845238 19.5857958,45.2257226 C19.7270466,45.1100376 19.7366337,45.022475 19.6426796,44.7265515" id="Fill-59"></path>
            <path d="M14.517004,41.9977281 C14.4773771,41.9248657 14.4077104,41.7420707 14.3668052,41.5982634 C14.3239826,41.4506212 14.1686707,41.2620739 14.0165546,41.1719546 C13.764732,41.0236733 13.7263834,41.0217559 13.5448666,41.1495846 C13.4253468,41.2339515 13.3473713,41.387346 13.3473713,41.5401013 C13.3473713,41.6749606 13.2642826,41.8660645 13.1684111,41.952988 C13.0693438,42.041829 12.9881726,42.1811623 12.9881726,42.2629727 C12.9881726,42.3435048 12.9511023,42.45152 12.9057231,42.5007341 C12.8002644,42.6145016 12.5388547,43.613483 12.4263654,44.3312412 C12.3388027,44.8879352 12.3458333,44.9409842 12.5394938,45.2068679 C12.7171757,45.4491033 12.7862032,45.4823388 13.0246038,45.4375987 C13.3032704,45.3851889 13.7065699,45.0867089 13.7065699,44.9326753 C13.7065699,44.8872961 13.7787932,44.7492411 13.8727473,44.6143818 C13.9660622,44.4808008 14.0664078,44.2641311 14.1015607,44.1203238 C14.1360744,43.9803514 14.2639031,43.658223 14.3859795,43.4070396 C14.6071232,42.9494128 14.6697593,42.273199 14.517004,41.9977281" id="Fill-61"></path>
            <path d="M12.3237189,37.7340653 C12.3045446,37.6848513 12.2636394,37.532096 12.2342388,37.3978758 C12.2048382,37.2630165 12.1217496,37.1505273 12.0501655,37.1505273 C11.9824163,37.1505273 11.8450004,37.0699952 11.7606335,36.9798759 C11.4551228,36.6545519 10.7047683,36.7913286 10.3398173,37.2406465 C9.96080521,37.7078605 9.54855762,38.9727256 9.43990321,40.0049424 C9.38174115,40.5526884 9.55047505,41.0365201 9.86493368,41.2257066 C10.0911905,41.3624833 10.4427195,41.1362265 10.6044228,40.7501838 C10.7725175,40.3462451 11.0320098,39.900762 11.1214899,39.8592177 C11.1636734,39.8394042 11.193074,39.780603 11.193074,39.7179669 C11.193074,39.5869425 11.4985846,39.3108325 11.8309393,39.1414594 C11.9562114,39.076906 12.1038536,38.947799 12.1671288,38.8474534 C12.2789789,38.6672149 12.3876333,37.8970469 12.3237189,37.7340653" id="Fill-63"></path>
        </g>
    </g>
</svg>