<?xml version="1.0" encoding="UTF-8"?>
<svg width="69px" height="106px" viewBox="0 0 69 106" version="1.1" xmlns="http://www.w3.org/2000/svg" xmlns:xlink="http://www.w3.org/1999/xlink">
    <title>img-baby1-3</title>
    <g id="Page-1" stroke="none" stroke-width="1" fill="none" fill-rule="evenodd">
        <g id="Group-37" transform="translate(0.004000, -1.000000)">
            <g id="Group-24" transform="translate(0.000000, 0.835616)">
                <path d="M65.4057899,93.7536903 C65.3047963,93.596079 65.2711317,93.3696084 65.3200983,93.1691513 C65.369065,92.982466 65.3445817,92.723861 65.2650109,92.5739008 C65.1854401,92.4285311 65.066084,91.7567702 64.9941643,91.0681771 C64.8549154,89.7139439 64.3652492,87.593077 64.1540806,87.4033314 C64.0760401,87.3344721 63.9888183,87.0437327 63.9566839,86.7545236 C63.9260798,86.4637843 63.8373278,86.1317294 63.7592872,86.0077826 C63.4624271,85.5425997 63.1563857,84.8172816 62.7768943,83.6987003 C62.5626654,83.0651946 62.3193625,82.4362795 62.2367313,82.2909099 C62.1525699,82.1486006 61.9765961,81.8150155 61.8511191,81.5625313 C61.7256422,81.3131076 61.4517351,80.8953611 61.251278,80.650528 C61.0477605,80.4072251 60.8748471,80.1363784 60.8656658,80.0583379 C60.8549544,79.9787671 60.2994892,79.0637033 59.6216076,78.0201022 C58.9421957,76.976501 58.3392941,76.0109404 58.2734952,75.8686312 C58.2076963,75.7247917 57.9751048,75.349891 57.7501644,75.0254871 C57.525224,74.699553 57.3278273,74.3032294 57.3064044,74.130316 C57.2819211,73.9635235 57.2130618,73.8258048 57.1533837,73.8303955 C57.0921754,73.8365163 56.7524695,73.4478437 56.3989917,72.9704191 C56.0455138,72.4914644 55.6660225,71.9803752 55.5573778,71.8395962 C55.4533237,71.6988171 55.2039,71.3193258 55.0095637,71.0056334 C54.8152274,70.691941 54.4387965,70.1732008 54.1817217,69.8656292 C53.924647,69.5565274 53.7042972,69.2413047 53.6966461,69.1709152 C53.6874649,69.0928747 53.6262566,69.0469685 53.5436254,69.0530893 C53.4701755,69.0607403 53.3936651,68.9735185 53.3844839,68.8602832 C53.3722423,68.7531687 53.2972621,68.6628865 53.2238122,68.6690073 C53.148832,68.6766584 53.0753821,68.6016782 53.0662009,68.5052752 C53.0554894,68.4073419 52.919301,68.2145359 52.7647501,68.0783474 C52.5137961,67.8564674 51.3064628,66.500704 50.9116694,65.9987961 C50.8259778,65.8901515 50.6239905,65.7187683 50.4755604,65.6300163 C50.3194793,65.5351434 50.0195588,65.2994916 49.7884975,65.088323 C49.5666175,64.8878659 49.148871,64.5206162 48.8810848,64.2987362 C48.6117683,64.075326 48.3761165,63.8197814 48.3684654,63.7478617 C48.357754,63.6728815 48.1557667,63.4510015 47.9262356,63.2719673 C47.6967046,63.0898727 47.3921934,62.8067844 47.2667164,62.6644751 C47.0096416,62.3614942 45.8298521,61.2413826 45.2988702,60.7960924 C45.1075944,60.6323603 44.9408018,60.4349636 44.934681,60.3599834 C44.9254997,60.2850033 44.6301698,59.8749078 44.276692,59.4541009 C43.9247444,59.0317638 43.6324748,58.6476818 43.6294144,58.6002454 C43.6018707,58.3630633 43.1810638,58.2085124 42.8138141,58.3049155 C42.5337862,58.3783654 42.1588855,58.3110363 41.6034204,58.0830354 C40.8367867,57.769343 39.8712261,57.6913025 38.1681057,57.7968867 C37.9324538,57.8121888 37.6891509,57.7953565 37.6065197,57.761692 C37.5254188,57.7280274 37.0449338,57.7417993 36.5338447,57.7938263 C36.0227555,57.8427929 35.5438007,57.8550346 35.4688206,57.8167794 C35.3923102,57.776994 35.0694366,57.8718669 34.7511535,58.0233574 C34.4313403,58.1794385 33.9003584,58.3569425 33.5591223,58.4242716 C32.8965427,58.552809 32.5415346,58.7211318 31.8452905,59.2505834 C31.5912761,59.4433894 31.1842411,59.6407861 30.9118642,59.7019944 C30.636427,59.7616725 30.3395668,59.9376463 30.2293919,60.1090295 C30.1161566,60.2773523 29.7779808,60.5313666 29.4596978,60.6859175 C28.7971182,61.0057308 28.5553455,61.2306712 28.5844194,61.4999876 C28.5936006,61.6086323 28.448231,61.8580561 28.2477739,62.0738152 C28.0075314,62.3293598 27.8835846,62.6292804 27.8728731,62.9919394 C27.8621617,63.284209 27.7718795,63.7922377 27.6770067,64.0967489 C27.5806036,64.3981996 27.4551266,64.7914628 27.4046298,64.9490742 C27.3526028,65.1082157 27.3403611,65.7937484 27.3755559,66.4869322 C27.450536,67.8748299 27.4306433,68.5450606 27.2975153,69.0791028 C27.1353134,69.7263803 27.1215415,70.255832 27.2347768,71.8212337 C27.2959851,72.6796798 27.2852737,73.7431737 27.2118237,74.203766 C27.1291926,74.6949624 27.1291926,75.6895969 27.2072331,76.6444461 C27.2791528,77.5304359 27.3005757,78.3383852 27.2516091,78.4332581 C27.1689779,78.6077017 27.317408,80.0063108 27.5071537,80.8372132 C27.5622411,81.0682745 27.5622411,81.3467722 27.5086839,81.4799002 C27.2164144,82.2082787 27.2393675,84.4393205 27.5377578,84.4071861 C27.620389,84.3980049 27.6831275,84.3276153 27.6739462,84.2526352 C27.6662952,84.1730644 27.7764701,84.1011447 27.9294908,84.0858426 C28.0794511,84.0690104 28.226351,83.9986208 28.2615457,83.9251709 C28.3686602,83.7032909 31.6754375,81.5900751 31.9646466,81.5579407 C32.1161371,81.5441689 32.2951713,81.441645 32.367091,81.3345305 C32.492568,81.1432546 34.3793132,80.9060725 35.2913166,80.968811 C35.6447944,80.9917641 35.6708079,80.9519788 35.678459,80.4209969 C35.6907006,79.3575031 35.774862,78.5403726 36.0028628,77.2856028 C36.0457086,77.0530114 36.0365274,76.4745931 35.9814399,76.0032894 C35.8804463,75.0958766 36.0809034,74.470022 36.5537373,74.2389607 C36.8980339,74.0691078 38.1772869,74.1364369 38.4037576,74.3353638 C38.5093419,74.425646 38.7205104,74.7485197 38.8827124,75.0668027 C39.1260153,75.5426971 39.1566194,75.7324427 39.0709278,76.2328204 C39.01278,76.5602847 38.9821758,76.8755074 39.0051289,76.9305948 C39.0265518,76.9856823 38.9775852,77.331509 38.8934238,77.7033493 C38.6944969,78.5908694 38.5950335,80.4669031 38.7235708,80.9045423 C38.8153833,81.2151744 38.8964842,81.2473087 39.419815,81.1784494 C39.4580702,81.1738588 39.8712261,81.316168 40.3532413,81.4952022 C40.8321961,81.6757667 41.30503,81.7767603 41.4090841,81.7186124 C41.5238496,81.6574042 41.8681462,81.8150155 42.2476375,82.1042246 C42.5965247,82.3689504 43.0617076,82.6612199 43.2652252,82.7407907 C43.4687427,82.8203615 43.8222205,83.0437717 44.0441005,83.2304569 C44.2659805,83.415612 44.4939814,83.5655723 44.5460084,83.5594514 C44.6776062,83.5456796 45.6385762,84.1118562 46.0961081,84.4760454 C46.295035,84.6321265 46.5368077,84.7407712 46.6546336,84.7300598 C46.7617481,84.7178181 46.9208896,84.827993 46.9882187,84.9595908 C47.1182863,85.2151354 47.6217244,85.5579018 48.9575951,86.2939313 C49.8160412,86.7698257 50.1511566,87.3008075 49.9828338,87.9312528 C49.9246859,88.1485422 49.7747256,88.4301003 49.6599601,88.5448658 C49.370751,88.8248937 48.4725195,88.7973499 47.9767324,88.4897783 C47.7701545,88.3597107 47.5176703,88.2663681 47.4029048,88.2786098 C47.2957903,88.2908514 47.0325947,88.191388 46.8214262,88.0597902 C46.613318,87.9297226 46.3302297,87.83638 46.1909809,87.8501518 C46.0547925,87.8639237 45.8573958,87.807306 45.7456907,87.7246748 C45.6385762,87.6405135 45.3646691,87.5012646 45.1489099,87.415573 C44.9300903,87.3344721 44.6929083,87.1386056 44.6271094,86.9855849 C44.4955116,86.6795435 43.7686632,86.0873534 43.2897085,85.8945473 C43.1275065,85.8287484 42.923989,85.7277547 42.8321766,85.6680767 C42.2002011,85.2457395 41.0219417,84.6397776 40.6439806,84.5403141 C40.3853756,84.4714548 40.0594415,84.3827028 39.8972396,84.3383268 C38.9775852,84.0781916 37.3264919,83.9374126 35.7962849,83.9909698 C34.769516,84.0261646 34.451233,84.0858426 34.1008156,84.3107831 C33.8666939,84.4607434 33.5621827,84.598462 33.4351755,84.6107036 C32.9852947,84.6612005 31.338792,85.6267611 30.6792727,86.232723 C30.4359698,86.4530728 30.171244,86.6382279 30.074841,86.6458789 C29.978438,86.6565904 29.7320746,86.9289672 29.5178457,87.2579617 C29.3097375,87.5823656 28.8001786,88.1760859 28.3946737,88.5708793 C27.9922293,88.9672029 27.6632348,89.3558755 27.6708858,89.4323858 C27.6923087,89.6420242 26.8109095,90.79427 25.0389298,92.8722911 C24.5431428,93.4537698 23.8560798,94.4285116 23.6296092,94.8753321 C23.1567752,95.8072281 22.1238855,96.6626138 21.2118822,96.8844938 C20.7635315,96.9916083 19.9433406,96.7697283 19.9157969,96.5294858 C19.909676,96.4529755 19.7979709,96.3994182 19.6587221,96.4101297 C19.5317149,96.4223713 19.2822912,96.3504516 19.1353913,96.2632298 C18.4743419,95.8714968 17.5837614,96.4024786 17.3389283,97.3374351 C17.2348742,97.7383493 17.4230897,98.4743789 17.6235468,98.4498956 C17.6893457,98.4437747 17.758205,98.5355871 17.7719769,98.6442318 C17.7842185,98.7574672 17.9112257,98.8385681 18.0489443,98.8232661 C18.1897234,98.8110244 18.4299659,98.9104879 18.5814564,99.0466763 C18.7344771,99.1843949 18.9349342,99.2869188 19.0252164,99.2777375 C19.1170288,99.2685563 19.3618619,99.4246374 19.5699701,99.6250945 C19.9341593,99.9755119 20.8951293,100.439165 20.8737064,100.25401 C20.870646,100.200452 21.0175459,100.269312 21.1981103,100.4055 C21.7245015,100.798763 23.7489653,101.543974 24.9608893,101.791868 C26.2187194,102.048942 28.1636125,102.126983 28.3701904,101.928056 C28.448231,101.851546 28.6838828,101.741371 28.9134139,101.674042 C29.1398845,101.606713 29.6555643,101.418497 30.0702504,101.250174 C30.8414747,100.941073 31.605048,100.858441 35.0908595,100.70389 C37.0648265,100.613608 40.240006,100.944133 41.1764926,101.335866 C41.3448154,101.404725 42.0900262,101.517961 42.8367672,101.58988 C43.5835082,101.66027 44.2567993,101.747492 44.33637,101.785747 C44.4190012,101.820942 44.9958892,101.863787 45.6248043,101.877559 C46.2521892,101.888271 47.1228769,101.949479 47.5651068,102.010687 C48.0042762,102.071895 48.6469631,102.100969 48.9881993,102.073426 C49.7226986,102.021399 54.7846233,101.482766 55.4487331,101.384833 C55.9414598,101.314443 56.3530854,101.433799 56.8442819,101.787277 C57.2574378,102.082607 58.715725,102.047412 59.9781458,101.707706 C60.5320807,101.560806 61.0477605,101.375651 61.1120292,101.305262 C61.1808885,101.231812 61.3277883,101.162953 61.4532653,101.149181 C61.7547161,101.117046 62.2902885,100.758978 63.144144,100.013767 C64.1158255,99.1690928 65.3308098,96.9610042 65.2466484,96.1928403 C65.2007422,95.7506104 65.3308098,94.6075458 65.4669982,94.2693701 C65.5373877,94.0949265 65.517495,93.9220131 65.4057899,93.7536903" id="Fill-1" fill="#FBE2E2"></path>
                <g id="Group-5" transform="translate(0.000000, 0.150266)" fill="#EC6D6C">
                    <path d="M65.4057899,93.603424 C65.517495,93.7717468 65.5373877,93.9446602 65.4669982,94.1191038 C65.3308098,94.4572795 65.2007422,95.6003441 65.2466484,96.0425739 C65.3308098,96.8107378 64.1158255,99.0188265 63.144144,99.8635008 C62.2902885,100.608712 61.7547161,100.96678 61.4532653,100.998914 C61.3277883,101.012686 61.1808885,101.081546 61.1120292,101.154995 C61.0477605,101.225385 60.5320807,101.41054 59.9781458,101.55744 C58.715725,101.897146 57.2574378,101.932341 56.8442819,101.637011 C56.3530854,101.283533 55.9414598,101.164177 55.4487331,101.234566 C54.7846233,101.332499 49.7226986,101.871132 48.9881993,101.923159 C48.6469631,101.950703 48.0042762,101.921629 47.5651068,101.860421 C47.1228769,101.799213 46.2521892,101.738004 45.6248043,101.727293 C44.9958892,101.713521 44.4190012,101.670675 44.33637,101.63548 C44.2567993,101.597225 43.5835082,101.510003 42.8367672,101.439614 C42.0900262,101.367694 41.3448154,101.254459 41.1764926,101.1856 C40.240006,100.793867 37.0648265,100.463342 35.0908595,100.553624 C31.605048,100.708175 30.8414747,100.790806 30.0702504,101.099908 C29.6555643,101.268231 29.1398845,101.456446 28.9134139,101.523775 C28.6838828,101.591104 28.448231,101.701279 28.3701904,101.77779 C28.1636125,101.976717 26.2187194,101.898676 24.9608893,101.641601 C23.7489653,101.393708 21.7245015,100.648497 21.1981103,100.255234 C21.0175459,100.119045 20.870646,100.050186 20.8737064,100.103743 C20.8951293,100.288898 19.9341593,99.8252456 19.5699701,99.4748282 C19.3618619,99.2743711 19.1170288,99.11829 19.0252164,99.1274712 C18.9349342,99.1366525 18.7344771,99.0341286 18.5814564,98.89641 C18.4299659,98.7602215 18.1897234,98.6607581 18.0489443,98.6729997 C17.9112257,98.6883018 17.7842185,98.6072008 17.7719769,98.4939655 C17.758205,98.3853208 17.6893457,98.2935084 17.6235468,98.2996292 C17.4230897,98.3241125 17.2348742,97.588083 17.3389283,97.1871688 C17.5837614,96.2522123 18.4743419,95.7212305 19.1353913,96.1129635 C19.2822912,96.2001853 19.5317149,96.272105 19.6587221,96.2598633 C19.7979709,96.2491519 19.909676,96.3027091 19.9157969,96.3792195 C19.9433406,96.619462 20.7635315,96.841342 21.2118822,96.7342275 C22.1238855,96.5123475 23.1567752,95.6569618 23.6296092,94.7250657 C23.8560798,94.2782453 24.5431428,93.3035034 25.0389298,92.7220248 C26.8109095,90.6440037 27.6923087,89.4917579 27.6708858,89.2821195 C27.6632348,89.2056092 27.9922293,88.8169366 28.3946737,88.420613 C28.8001786,88.0258196 29.3097375,87.4320993 29.5178457,87.1076954 C29.7320746,86.7787009 29.978438,86.506324 30.074841,86.4956126 C30.171244,86.4879616 30.4359698,86.3028065 30.6792727,86.0824567 C31.338792,85.4764947 32.9852947,84.5109341 33.4351755,84.4604373 C33.5621827,84.4481957 33.8666939,84.310477 34.1008156,84.1605167 C34.451233,83.9355763 34.769516,83.8758982 35.7962849,83.8407035 C37.3264919,83.7871462 38.9775852,83.9279253 39.8972396,84.1880605 C40.0594415,84.2324365 40.3853756,84.3211885 40.6439806,84.3900478 C41.0219417,84.4895112 42.2002011,85.0954732 42.8321766,85.5178103 C42.923989,85.5774884 43.1275065,85.6784821 43.2897085,85.744281 C43.7686632,85.937087 44.4955116,86.5292771 44.6271094,86.8353185 C44.6929083,86.9883392 44.9300903,87.1842057 45.1489099,87.2653067 C45.3646691,87.3509983 45.6385762,87.4902471 45.7456907,87.5744085 C45.8573958,87.6570397 46.0547925,87.7136574 46.1909809,87.6998855 C46.3302297,87.6861136 46.613318,87.7794563 46.8214262,87.9095238 C47.0325947,88.0411216 47.2957903,88.1405851 47.4029048,88.1283434 C47.5176703,88.1161018 47.7701545,88.2094444 47.9767324,88.339512 C48.4725195,88.6470836 49.370751,88.6746273 49.6599601,88.3945995 C49.7747256,88.2798339 49.9246859,87.9982758 49.9828338,87.7809865 C50.1511566,87.1505412 49.8160412,86.6195594 48.9575951,86.143665 C47.6217244,85.4076354 47.1182863,85.0648691 46.9882187,84.8093245 C46.9208896,84.6777267 46.7617481,84.5675518 46.6546336,84.5797935 C46.5368077,84.5905049 46.295035,84.4818602 46.0961081,84.3257791 C45.6385762,83.9615898 44.6776062,83.3954133 44.5460084,83.4091851 C44.4939814,83.4153059 44.2659805,83.2653457 44.0441005,83.0801906 C43.8222205,82.8935054 43.4687427,82.6700951 43.2652252,82.5905244 C43.0617076,82.5109536 42.5965247,82.2186841 42.2476375,81.9539583 C41.8681462,81.6647492 41.5238496,81.5071378 41.4090841,81.5683461 C41.30503,81.626494 40.8321961,81.5255003 40.3532413,81.3449359 C39.8712261,81.1659017 39.4580702,81.0235924 39.419815,81.0281831 C38.8964842,81.0970424 38.8153833,81.064908 38.7235708,80.754276 C38.5950335,80.3166368 38.6944969,78.4406031 38.8934238,77.553083 C38.9775852,77.1812427 39.0265518,76.8354159 39.0051289,76.7803285 C38.9821758,76.725241 39.01278,76.4100184 39.0709278,76.0825541 C39.1566194,75.5821764 39.1260153,75.3924308 38.8827124,74.9165364 C38.7205104,74.5982533 38.5093419,74.2753797 38.4037576,74.1850974 C38.1772869,73.9861705 36.8980339,73.9188414 36.5537373,74.0886944 C36.0809034,74.3197557 35.8804463,74.9456103 35.9814399,75.8530231 C36.0365274,76.3243268 36.0457086,76.902745 36.0028628,77.1353365 C35.774862,78.3901062 35.6907006,79.2072368 35.678459,80.2707306 C35.6708079,80.8017124 35.6447944,80.8414978 35.2913166,80.8185447 C34.3793132,80.7558062 32.492568,80.9929883 32.367091,81.1842642 C32.2951713,81.2913787 32.1161371,81.3939025 31.9646466,81.4076744 C31.6754375,81.4398087 28.3686602,83.5530246 28.2615457,83.7749046 C28.226351,83.8483545 28.0794511,83.918744 27.9294908,83.9355763 C27.7764701,83.9508784 27.6662952,84.0227981 27.6739462,84.1023689 C27.6831275,84.177349 27.620389,84.2477385 27.5377578,84.2569198 C27.2393675,84.2890541 27.2164144,82.0580124 27.5086839,81.3296338 C27.5622411,81.1965058 27.5622411,80.9180082 27.5071537,80.6869469 C27.317408,79.8560445 27.1689779,78.4574353 27.2516091,78.2829917 C27.3005757,78.1881189 27.2791528,77.3801696 27.2072331,76.4941798 C27.1291926,75.5393306 27.1291926,74.5446961 27.2118237,74.0534996 C27.2852737,73.5929073 27.2959851,72.5294135 27.2347768,71.6709674 C27.1215415,70.1055656 27.1353134,69.576114 27.2975153,68.9288365 C27.4306433,68.3947942 27.450536,67.7245636 27.3755559,66.3366658 C27.3403611,65.6434821 27.3526028,64.9579494 27.4046298,64.7988078 C27.4551266,64.6411965 27.5806036,64.2479333 27.6770067,63.9464825 C27.7718795,63.6419714 27.8621617,63.1339426 27.8728731,62.8416731 C27.8835846,62.4790141 28.0075314,62.1790935 28.2477739,61.9235489 C28.448231,61.7077897 28.5936006,61.458366 28.5844194,61.3497213 C28.5553455,61.0804049 28.7971182,60.8554644 29.4596978,60.5356512 C29.7779808,60.3811003 30.1161566,60.1270859 30.2293919,59.9587632 C30.3395668,59.78738 30.636427,59.6114062 30.9118642,59.5517281 C31.1842411,59.4905198 31.5912761,59.2931231 31.8452905,59.100317 C32.5415346,58.5708654 32.8965427,58.4025427 33.5591223,58.2740053 C33.9003584,58.2066762 34.4313403,58.0291722 34.7511535,57.873091 C35.0694366,57.7216006 35.3923102,57.6267277 35.4688206,57.6665131 C35.5438007,57.7047683 36.0227555,57.6925266 36.5338447,57.64356 C37.0449338,57.591533 37.5254188,57.5777611 37.6065197,57.6114257 C37.6891509,57.6450902 37.9324538,57.6619225 38.1681057,57.6466204 C39.8712261,57.5410361 40.8367867,57.6190767 41.6034204,57.9327691 C42.1588855,58.16077 42.5337862,58.2280991 42.8138141,58.1546491 C43.1810638,58.0582461 43.6018707,58.212797 43.6294144,58.4499791 C43.6324748,58.4974155 43.9247444,58.8814974 44.276692,59.3038346 C44.6301698,59.7246415 44.9254997,60.134737 44.934681,60.2097171 C44.9408018,60.2846972 45.1075944,60.4820939 45.2988702,60.6458261 C45.8298521,61.0911163 47.0096416,62.2112278 47.2667164,62.5142088 C47.3921934,62.6565181 47.6967046,62.9396064 47.9262356,63.121701 C48.1557667,63.3007352 48.357754,63.5226152 48.3684654,63.5975954 C48.3761165,63.6695151 48.6117683,63.9250597 48.8810848,64.1484699 C49.148871,64.3703499 49.5666175,64.7375996 49.7884975,64.9380567 C50.0195588,65.1492252 50.3194793,65.3848771 50.4755604,65.4797499 C50.6239905,65.5685019 50.8259778,65.7398851 50.9116694,65.8485298 C51.3064628,66.3504377 52.5137961,67.7062011 52.7647501,67.9280811 C52.919301,68.0642695 53.0554894,68.2570756 53.0662009,68.3550089 C53.0753821,68.4514119 53.148832,68.526392 53.2238122,68.518741 C53.2972621,68.5126202 53.3722423,68.6029024 53.3844839,68.7100169 C53.3936651,68.8232522 53.4701755,68.910474 53.5436254,68.902823 C53.6262566,68.8967021 53.6874649,68.9426083 53.6966461,69.0206489 C53.7042972,69.0910384 53.924647,69.406261 54.1817217,69.7153629 C54.4387965,70.0229345 54.8152274,70.5416746 55.0095637,70.8553671 C55.2039,71.1690595 55.4533237,71.5485508 55.5573778,71.6893299 C55.6660225,71.8301089 56.0455138,72.341198 56.3989917,72.8201528 C56.7524695,73.2975774 57.0921754,73.68625 57.1533837,73.6801291 C57.2130618,73.6755385 57.2819211,73.8132572 57.3064044,73.9800497 C57.3278273,74.1529631 57.525224,74.5492867 57.7501644,74.8752208 C57.9751048,75.1996247 58.2076963,75.5745254 58.2734952,75.7183648 C58.3392941,75.8606741 58.9421957,76.8262347 59.6216076,77.8698359 C60.2994892,78.913437 60.8549544,79.8285008 60.8656658,79.9080715 C60.8748471,79.9861121 61.0477605,80.2569587 61.251278,80.5002616 C61.4517351,80.7450948 61.7256422,81.1628413 61.8511191,81.412265 C61.9765961,81.6647492 62.1525699,81.9983343 62.2367313,82.1406435 C62.3193625,82.2860132 62.5626654,82.9149283 62.7768943,83.548434 C63.1563857,84.6670153 63.4624271,85.3923334 63.7592872,85.8575163 C63.8373278,85.981463 63.9260798,86.313518 63.9566839,86.6042573 C63.9888183,86.8934664 64.0760401,87.1842057 64.1540806,87.253065 C64.3652492,87.4428107 64.8549154,89.5636776 64.9941643,90.9179108 C65.066084,91.6065039 65.1854401,92.2782648 65.2650109,92.4236344 C65.3445817,92.5735947 65.369065,92.8321997 65.3200983,93.0188849 C65.2711317,93.2193421 65.3047963,93.4458127 65.4057899,93.603424 M68.1509813,90.8597629 C67.9658262,90.1252635 67.3307903,86.8521508 67.3445622,86.7006603 C67.3522132,86.5843646 67.0997291,85.8896506 66.9222251,85.5453541 C66.5901701,84.9103182 66.3621693,84.302826 66.3269745,83.9615898 C66.3055516,83.7687838 66.21986,83.5713871 66.1387591,83.5361923 C66.0607185,83.4979371 65.9750269,83.2959498 65.9505436,83.0893719 C65.9306509,82.8827939 65.8526104,82.6563233 65.7806906,82.5905244 C65.7057105,82.5247255 65.5404482,82.2049122 65.4042597,81.8713271 C65.2680713,81.537742 64.8656269,80.7971218 64.5121491,80.221764 C63.8480392,79.1475587 63.4042792,78.2967636 63.1334326,77.5760361 C62.958989,77.1215646 62.3025302,76.20038 62.1586907,76.2172123 C62.0010794,76.2309842 60.3561069,73.4505981 59.6889367,72.0428077 C59.5741711,71.8025652 59.4425733,71.6220008 59.3828953,71.6281216 C59.3201568,71.6357726 59.2757808,71.5852758 59.2650693,71.5087654 C59.2574183,71.4368457 58.8702759,70.9089243 58.4096836,70.3442779 C57.9475611,69.7796316 57.1992899,68.8416147 56.7570601,68.2815589 C56.3133001,67.7153823 55.9032046,67.25479 55.8450567,67.2624411 C55.7853787,67.2685619 55.7348818,67.210414 55.7257006,67.1262527 C55.7180496,67.0482121 55.5022904,66.7391103 55.255927,66.4453105 C55.0034429,66.1484504 54.5948776,65.6021665 54.3423935,65.2242054 C54.0883791,64.8477745 53.8129419,64.5019477 53.7226597,64.4575717 C53.4181485,64.3014906 51.9476196,62.8477939 51.5972022,62.3581277 C51.4074565,62.0918717 50.7586487,61.4797889 50.1465659,60.9916529 C49.5360134,60.5019866 48.9132191,59.9312194 48.757138,59.7154602 C48.2491093,59.0161557 48.0761959,58.8248798 47.4227975,58.2403407 C47.0754405,57.9297087 46.7265533,57.5364455 46.6607544,57.3803644 C46.5934253,57.2196927 46.4817202,57.0988063 46.4082703,57.1049271 C46.3332901,57.1125782 46.2690215,57.037598 46.2552496,56.9258929 C46.2460683,56.8203086 46.0746852,56.4775423 45.8726978,56.1653801 C45.6737709,55.8532178 45.4381191,55.447713 45.3463066,55.2656184 C45.2514338,55.0819935 45.1106548,54.8356302 45.0280236,54.7070928 C44.9469226,54.5846762 44.845929,54.1960037 44.8122644,53.8639488 C44.7602374,53.3819336 44.8000228,53.2258525 44.9989497,53.1432213 C45.2468432,53.0361068 45.5069784,52.638253 45.8298521,51.8654984 C45.9140134,51.6604507 45.947678,51.2166907 45.9063624,50.857092 C45.8375031,50.280204 45.866577,50.1975728 46.2200548,50.0078272 C46.4312234,49.8945919 46.6026066,49.747692 46.5964857,49.6880139 C46.5903649,49.6252754 46.7556273,49.4860266 46.9805677,49.3682007 C47.2039779,49.2488445 47.3723007,49.1065353 47.3646497,49.0407364 C47.3585288,48.9749375 47.4579923,48.8770042 47.5911203,48.8188564 C47.7227181,48.7637689 48.0700751,48.4561973 48.3546936,48.1394445 C48.6439027,47.8211614 49.0478773,47.3957639 49.245274,47.1983672 C49.4472613,46.9994403 49.8236923,46.5648615 50.0838275,46.2297461 C50.3454928,45.8931006 50.7035613,45.5197301 50.8825955,45.3973135 C51.0616297,45.274897 51.4319398,44.9168286 51.7043166,44.6046663 C51.9782237,44.2879135 52.3470036,43.9130128 52.5229774,43.7691733 C52.6928304,43.6268641 53.0111134,43.2687956 53.2069799,42.997949 C53.4043766,42.7255722 53.6997065,42.3246579 53.8466064,42.1318519 C54.0011573,41.9344552 54.1205135,41.7401189 54.1159228,41.7003335 C54.1113322,41.6574877 54.3026081,41.371339 54.5489714,41.0515257 C54.7938045,40.7317125 55.0600605,40.3063149 55.1488126,40.0798443 C55.2360344,39.8625549 55.3661019,39.6743394 55.4380217,39.6666884 C55.5114716,39.6590374 55.5604382,39.567225 55.5527872,39.4723521 C55.5420757,39.3759491 55.6874454,39.0255317 55.8710702,38.7133695 C56.216897,38.1165887 56.6392342,36.6200463 56.5933279,36.1640446 C56.5764957,36.0278562 56.6101602,35.8059762 56.6652477,35.6682576 C57.0141349,34.7883886 57.4686063,32.300272 57.5160428,30.9980659 C57.5298146,30.6063329 57.5910229,30.1702239 57.6537614,30.0049615 C57.8037217,29.6193494 57.843507,28.1702434 57.7486342,26.5757677 C57.7057884,25.8550402 57.7011978,25.158796 57.7348623,25.0409701 C57.8389164,24.7104454 57.7440436,23.7341733 57.5956135,23.576562 C57.5221636,23.5000517 57.3890356,23.0685333 57.303344,22.6324243 C57.0539202,21.3608223 56.8641746,20.6232625 56.7096237,20.3371138 C56.6315831,20.1871536 56.519878,19.923958 56.4586697,19.7357425 C56.0501045,18.4794426 55.8297547,18.0188503 55.5130018,17.743413 C55.2452156,17.5108216 55.122799,17.2522166 55.078423,16.8405909 C55.0095637,16.1856623 54.6775088,15.1803163 54.3194404,14.534569 C54.1817217,14.2851452 54.0103386,13.7862978 53.9307678,13.403746 C53.8022304,12.7763612 53.5650483,12.2668022 53.3278662,12.1137815 C53.2804298,12.0816472 53.0998654,11.8444651 52.9330728,11.599632 C52.7662803,11.3517385 52.3898494,10.9676565 52.1098215,10.7564879 C51.8206124,10.5437892 51.5864907,10.3111977 51.5788397,10.2362176 C51.5696584,10.1535864 51.5206918,10.0831969 51.4548929,10.0602438 C51.3936846,10.0403511 51.1610932,9.73430969 50.9285017,9.37165063 C50.6928498,9.00593116 50.3868084,8.60807735 50.2307273,8.46729831 C50.0761764,8.32957968 49.7334101,7.99140394 49.4656238,7.71290627 C49.1993678,7.4359388 48.6041173,6.96157464 48.1527062,6.6677749 C47.7028254,6.37397516 47.0096416,5.8797183 46.6270899,5.58132794 C45.9691009,5.0671784 45.733449,4.93252018 44.9010164,4.5851632 C44.4021689,4.37552484 43.7273477,4.01286579 43.5682061,3.86290551 C43.2988897,3.61348177 41.8360118,2.87745221 41.6493266,2.89887511 C41.4611111,2.91723759 40.9898074,2.74738462 40.4129193,2.44746405 C40.1971602,2.33422873 39.7840043,2.23476528 39.4749025,2.21487259 C39.1673309,2.19957052 38.6531813,2.10316748 38.3211264,1.9991134 C37.9890715,1.89352912 37.5254188,1.78947505 37.2836461,1.75887091 C37.0418734,1.73285739 36.839886,1.65787725 36.832235,1.59360856 C36.8230538,1.52780966 36.4588645,1.44058786 36.0089837,1.39315144 C35.5575726,1.35030565 35.0250606,1.22176826 34.8108316,1.10547253 C34.599663,0.989176798 34.2431248,0.886652931 34.0197146,0.874411275 C33.7993648,0.865230033 33.3250006,0.842276928 32.9868249,0.825444652 C32.6517095,0.807082168 32.263037,0.753524924 32.145211,0.707618714 C31.3678659,0.400047111 29.8621422,0.268449311 28.9608503,0.427590837 C25.5775627,1.03049239 24.6885124,1.17280164 24.4727532,1.1421975 C24.3396252,1.12230481 23.7504955,1.25849323 23.1583054,1.44517848 C22.5630549,1.63339394 21.6954276,1.8216094 21.2134124,1.8659854 C20.2738653,1.95014678 19.1001965,2.30056418 18.8308801,2.57294102 C18.7405979,2.66322323 18.2983681,2.79941165 17.831655,2.87745221 C17.3634116,2.95396256 16.9655578,3.05189581 16.9257724,3.09780202 C16.8921079,3.14370823 16.7344965,3.19726547 16.5983081,3.21256754 C16.2387095,3.25082271 15.5332841,3.7297775 15.3527196,4.05571158 C15.2685583,4.20567187 15.118598,4.34798112 15.0313762,4.35716236 C14.9395638,4.36787381 14.726865,4.51018306 14.5508912,4.68768707 C14.371857,4.86366087 14.1117218,5.01209095 13.9587011,5.02892322 C13.80262,5.04728571 13.5210619,5.16970227 13.3129537,5.3089511 C13.1017852,5.44973014 12.8569521,5.56755608 12.7483074,5.57979774 C12.486642,5.60734146 11.6939948,6.18882011 11.3099128,6.63564055 C11.1385296,6.83762787 10.8278976,7.06715892 10.6396821,7.13754844 C9.79194748,7.44665025 8.9855284,8.76109805 9.08040124,9.67004099 C9.1385491,10.1795999 9.49814774,10.7978035 9.92048487,11.1023147 C10.3810772,11.4343696 11.1752546,11.4818061 11.5930011,11.2033084 C11.7873374,11.0717106 12.0153382,10.9615357 12.1086808,10.9508242 C12.3030171,10.9309315 13.2792892,9.80928983 13.2624569,9.6287254 C13.2563361,9.55833588 13.536364,9.28748925 13.8974928,9.0151124 C14.2601519,8.74120536 14.5386495,8.48260038 14.5325287,8.4229223 C14.5264079,8.36477444 14.5830255,8.31427761 14.6656567,8.30509637 C14.7467577,8.29591512 15.465955,7.87969883 16.2769647,7.37626073 C18.2524619,6.14750453 21.6648234,4.96771494 23.3434605,4.93405039 C23.5928842,4.92792956 24.0167516,4.83764735 24.2722961,4.7381839 C25.5285961,4.24239684 30.5782791,3.52472976 30.7986289,3.80934826 C30.8644278,3.89657006 31.0908984,3.95930855 31.3127784,3.95165751 C31.5270074,3.94094606 31.9340425,3.95777834 32.2033589,3.98073144 C32.4711451,4.00368455 32.8751198,4.02204703 33.0862883,4.01898662 C33.2959267,4.0159262 33.5575921,4.07866469 33.6524649,4.15364483 C33.7488679,4.23168539 33.9661573,4.28065201 34.1314197,4.26075932 C34.296682,4.24545725 34.4619444,4.28677284 34.4971392,4.35563215 C34.5308037,4.42449147 34.7006567,4.48876016 34.8674493,4.4979414 C35.035772,4.50406223 35.2239875,4.55302885 35.2821353,4.59893506 C35.3433436,4.64943189 35.4948341,4.67544541 35.6325527,4.66014334 C35.7702714,4.64331106 35.9171712,4.71982141 35.9722587,4.83152652 C36.0288763,4.94629205 36.1604741,5.02127219 36.2844209,5.00903053 C36.4083677,4.99525867 36.5017103,5.03198364 36.5093613,5.09625233 C36.5170124,5.1559304 36.8276444,5.25386365 37.1933639,5.3089511 C37.5743854,5.36556876 38.184938,5.49410615 38.5889126,5.59816022 C38.9882966,5.70527471 39.4779629,5.80932878 39.6952523,5.83687251 C39.907951,5.86288603 40.1252404,5.93786617 40.1742071,6.00213486 C40.2231737,6.06640356 40.4006777,6.10159832 40.5781817,6.08323583 C40.7602763,6.06334314 41.075499,6.21177322 41.3080904,6.42294178 C41.5391517,6.63717076 41.837542,6.78713104 41.9936232,6.76876856 C42.1451136,6.75346649 42.2767114,6.80090291 42.2843625,6.87588305 C42.2935437,6.9539236 42.4771686,7.03808499 42.6868069,7.06409851 C42.9040963,7.09164223 43.5651457,7.49561687 44.1741681,7.97457166 C44.7831905,8.45199624 45.4610722,8.92176978 45.6982543,9.03041447 C46.0517321,9.19567683 47.1259374,10.364755 47.1504207,10.6141787 C47.1580717,10.6738568 47.2682466,10.7825015 48.0486522,11.4802758 C48.2429885,11.6531892 48.3990696,11.829163 48.4036602,11.8750692 C48.409781,11.9209755 48.5505601,12.1107211 48.7265339,12.301997 C49.0432867,12.6462936 49.4564426,13.2277722 50.287345,14.4932534 C50.5352385,14.8712145 50.7984341,15.1787861 50.8657632,15.1711351 C50.9361527,15.1619538 50.9958308,15.2170413 51.0050121,15.3027329 C51.0141933,15.3823036 51.1549723,15.5643983 51.3278857,15.7143586 C51.5007991,15.8612584 51.6446386,16.0632458 51.6568802,16.1672998 C51.6660615,16.2682935 51.788478,16.4473277 51.9200758,16.5559724 C52.1174725,16.7212348 52.1603183,16.9017992 52.1327746,17.477157 C52.0623851,18.9094307 52.2154058,19.6423999 52.7708709,20.5498126 C53.9996271,22.5543838 54.0853187,22.7961565 54.3301518,24.9476275 C54.5000048,26.4349887 54.5137767,26.9659705 54.3882997,27.0623735 C54.2903664,27.1358235 54.2567019,27.3898378 54.3071987,27.6652751 C54.3515747,27.9254103 54.3454539,28.2283912 54.2903664,28.3431568 C54.1878426,28.5543253 54.1113322,29.4938724 54.1189833,30.4533122 C54.1205135,30.7348703 54.0700166,31.0852877 54.0057479,31.242899 C53.9414792,31.4020405 53.887922,31.8350891 53.8863918,32.2252919 C53.8787408,33.483122 53.8083512,33.9620768 53.5880014,34.2528161 C53.2788996,34.6613814 53.1258789,35.0990206 53.1595435,35.4723911 C53.1748456,35.6453045 53.0478384,36.1548634 52.8795156,36.5894422 C51.9001831,39.1372368 51.6170948,39.7661519 51.2605566,40.1976702 C51.0447974,40.4578054 50.7295748,40.898505 50.5689031,41.164761 C50.4067011,41.4340775 50.198593,41.733998 50.1083108,41.8258105 C49.6186445,42.3231277 48.3761165,43.9007711 48.1205719,44.3460613 C47.3554684,45.6849925 45.5712471,47.9527592 44.6791364,48.7193929 C44.4358335,48.9290313 44.1098994,49.2167102 43.9629995,49.3498382 C43.8176299,49.4829662 43.5054676,49.6390473 43.2759366,49.6910743 C42.7158808,49.8196117 42.3578124,50.0797469 42.1864292,50.4806611 C41.82224,51.3314562 41.5758766,51.7614444 41.4473393,51.7767464 C41.3692987,51.7843975 41.179553,51.9588411 41.0142907,52.1715398 C40.7648669,52.4928833 40.7419138,52.645904 40.86127,53.163114 C41.0127605,53.8180426 40.9010554,53.9282175 40.4037381,53.6328875 C40.240006,53.5334241 39.8069574,53.4875178 39.4504192,53.525773 C39.0908205,53.5640282 38.7511146,53.5364845 38.6960271,53.4676252 C38.6378792,53.3895846 38.5552481,53.3712221 38.4894492,53.4186585 C38.4297711,53.4645647 37.9523465,53.5563772 37.4427876,53.6221761 C36.9347589,53.6895052 36.307374,53.8501769 36.0717221,53.9771841 C35.8345401,54.1057215 35.6310225,54.1577485 35.6233715,54.0904194 C35.6065392,53.9557612 34.4420517,54.1485673 34.2232321,54.3199504 C34.1528426,54.3735077 33.683069,54.4882732 33.187282,54.5663138 C32.6960855,54.6474147 32.174285,54.7591198 32.041157,54.8142073 C31.8728342,54.886127 31.7442968,54.8187979 31.6065782,54.583146 C31.4994637,54.3995212 31.3602149,54.2541515 31.2990066,54.2602724 C31.2423889,54.2663932 31.0908984,54.1929433 30.9822537,54.1057215 C30.8674882,54.0123788 30.5583864,53.8501769 30.2814189,53.740002 C30.0044515,53.6313573 29.6984101,53.4722158 29.586705,53.384994 C29.0220586,52.9320527 27.0220781,53.0575297 26.7359294,53.562498 C26.6364659,53.7430624 20.9823511,54.3704473 19.9433406,54.3199504 C19.5577284,54.2969973 18.8706655,54.3337223 18.416194,54.3964608 C16.6671674,54.6351731 14.7253348,54.7193345 13.7613044,54.5999783 C13.4078266,54.5540721 12.9946707,54.5127565 12.8309385,54.5020451 C12.6672064,54.4928638 12.0428819,54.3199504 11.4338596,54.1133725 C10.8263674,53.9113852 10.1377743,53.7231697 9.89600156,53.6940958 C9.65422885,53.6650219 9.41398636,53.5609678 9.36195932,53.4584439 C9.30687187,53.3543898 9.17374386,53.2809399 9.06509917,53.2931816 C8.95033364,53.3069534 8.65194328,53.1569931 8.37650603,52.956536 C7.13550817,52.0353514 6.87843339,51.8685589 6.62288883,51.8150016 C6.46527751,51.7843975 6.33367971,51.7094173 6.32602867,51.6482091 C6.31990785,51.588531 6.01692686,51.2901406 5.66344905,50.9917503 C4.61219686,50.1149417 4.15772538,49.6436379 4.13324207,49.4125767 C4.11947021,49.2993413 4.00623489,49.0759311 3.88075792,48.9229104 C3.44311872,48.3827474 2.98558684,46.0522421 3.22123871,45.5610457 C3.25796368,45.4860655 3.31305113,45.1035138 3.34518548,44.6949485 C3.39721251,44.1027584 3.35436672,43.8747576 3.12789609,43.5044475 C2.7591162,42.8984855 2.10265741,42.5955046 1.34367475,42.6766055 C0.662732643,42.7500555 0.329147521,43.1065937 0.248046551,43.8395628 C0.220502826,44.0813355 0.150113305,44.3430009 0.0843144046,44.4455248 C-0.0381021538,44.6322101 -0.024330291,46.368995 0.104207095,47.3467972 C0.212851791,48.173109 0.538785877,49.5288724 0.64896078,49.5992619 C0.777498166,49.6818931 1.44619862,50.7622192 1.59921931,51.1371199 C1.66807863,51.3008521 1.89454926,51.5793497 2.09347617,51.7400215 C2.29087287,51.9006932 2.46225605,52.0644254 2.46684667,52.1042107 C2.47143729,52.1394055 2.63363923,52.3092585 2.8233849,52.4714604 C3.33294382,52.9029788 3.66499874,53.2579868 3.88993916,53.5976927 C4.1393629,53.9771841 5.37883055,54.9442749 5.58846891,54.9243822 C5.67263029,54.915201 6.0460008,55.1539132 6.42855254,55.4614848 C6.87231256,55.8195533 7.23497162,56.0031781 7.45379122,55.980225 C7.65730875,55.9572719 7.91438352,56.0705072 8.09800836,56.2602529 C8.26939154,56.4377569 8.52646631,56.5632339 8.68101721,56.5448714 C8.8309775,56.5280391 9.00083047,56.6045495 9.05438772,56.7162546 C9.10641475,56.8218389 9.23954276,56.9060002 9.33747601,56.8952888 C9.44153008,56.8830471 10.076566,57.0651418 10.7575081,57.2992634 C11.43692,57.5364455 12.0535934,57.7200703 12.1346944,57.7108891 C12.2096745,57.7032381 12.3948296,57.7414932 12.5248971,57.7950505 C13.1706445,58.0521253 15.5332841,58.1041523 17.1155181,57.8991046 C19.2914724,57.6129559 20.1927643,57.5226736 20.9823511,57.5043112 C21.4429434,57.4905393 21.8867034,57.4124987 21.9693346,57.3268072 C22.0565564,57.2349947 22.1728522,57.1967396 22.2447719,57.2334645 C22.3136312,57.2686593 22.7681027,57.1676656 23.2394064,57.0161751 C23.7260122,56.8570336 24.5339615,56.6473953 25.0664735,56.5341599 C25.9692957,56.3490049 26.8843594,55.9159563 26.8598761,55.6864253 C26.8537553,55.6267472 26.9914739,55.5594181 27.1582665,55.5410556 C27.3939184,55.5150421 27.5484693,55.6527607 27.790242,56.1026416 C27.9708064,56.4316361 28.1682031,56.6902411 28.2370624,56.68259 C28.58901,56.6443348 28.2952103,56.9595575 27.5851942,57.3727134 C27.058803,57.680285 26.7206273,57.9878566 26.5997409,58.2602334 C26.4926265,58.4958853 26.2539142,58.7330674 26.0503966,58.8034569 C25.646422,58.9411755 24.8201102,60.0322131 24.8537748,60.3826305 C24.8660164,60.5050471 24.8063384,60.889129 24.7206468,61.2456672 C24.4926459,62.205107 24.3319742,63.3481716 24.3732898,63.7276629 C24.3901221,63.9066972 24.3579877,64.0964428 24.2983096,64.1408188 C24.2386316,64.1836646 24.1896649,64.6825121 24.1942556,65.2395074 C24.2064972,66.7314593 24.0672484,69.0451322 23.9448318,69.4399256 C23.9081069,69.5592817 23.8928048,70.004572 23.9111673,70.4223185 C23.9769662,71.9617067 23.9601339,73.1567984 23.8560798,74.1131777 C23.7443747,75.1200539 23.7443747,75.2547121 23.8637309,77.811688 C23.9004558,78.6012748 23.8989256,79.3158814 23.8606704,79.3878012 C23.8239455,79.4597209 23.8775027,79.5653052 23.983087,79.6142718 C24.1621212,79.7030238 24.5186595,82.4038391 24.7818551,85.6677706 C24.8216404,86.1681483 24.8981508,86.6991301 24.9532382,86.8659227 C25.0220975,87.0633194 24.9379362,87.326515 24.6976937,87.6585699 C24.5033574,87.9324769 24.3457461,88.1972028 24.3488065,88.243109 C24.3579877,88.3150287 24.2615847,88.4603984 23.5898238,89.4274892 C23.2149231,89.9630616 22.7665725,90.6593058 22.4314571,91.2239522 C22.2723156,91.4947988 22.0412544,91.8559276 21.9218982,92.0273108 C21.7994816,92.2017544 21.6280985,92.5598229 21.528635,92.8505622 C21.4307018,93.1397713 21.34348,93.3830742 21.3281779,93.4106179 C21.3174664,93.4351012 21.0955864,93.373893 20.833921,93.2744295 C20.5768463,93.1764963 20.116254,93.1015161 19.8255146,93.1106974 C19.5317149,93.1198786 19.2088412,93.0755026 19.110908,93.0158245 C18.8798467,92.8750455 18.6350136,92.8750455 17.3940158,93.0158245 C16.648805,93.1015161 16.3473542,93.196389 16.0856888,93.4427523 C15.8944129,93.6171959 15.6633517,93.7671562 15.5638882,93.780928 C15.0987053,93.8451967 14.2188363,95.2606382 14.1362051,96.0792989 C14.0046073,97.3646728 14.0275604,97.7625266 14.2754539,98.4924353 C14.5355891,99.2605992 15.3817936,100.677571 15.7643453,100.985142 C15.8699296,101.072364 16.0183597,101.217734 16.0841586,101.298835 C16.1499575,101.384527 16.4391666,101.548259 16.7161341,101.663024 C17.7658561,102.089952 18.157589,102.278167 18.8645447,102.703565 C19.2685193,102.945338 19.6556617,103.225365 19.7260512,103.324829 C19.7995011,103.425823 19.9693541,103.494682 20.1055425,103.47938 C20.2417309,103.464078 20.4804432,103.565071 20.6334639,103.70279 C20.7864846,103.837448 20.9930626,103.943033 21.0909958,103.932321 C21.1919895,103.92161 21.3235873,103.991999 21.4000976,104.092993 C21.5684204,104.331705 22.9486671,104.850445 23.3052053,104.81066 C23.4566958,104.793828 24.0335838,104.948379 24.5691563,105.145775 C26.1988267,105.745616 26.925675,105.825187 28.4283383,105.580354 C29.1551866,105.460998 30.0901431,105.25595 30.5155406,105.125883 C30.9348173,104.997345 31.3846982,104.919305 31.5025241,104.951439 C31.6172896,104.983573 31.8911967,104.937667 32.0916538,104.855036 C33.6815388,104.183275 33.9891104,104.102174 35.4626998,104.002711 C37.1015514,103.891006 37.845232,103.964455 39.7656418,104.434229 C40.4404631,104.597961 41.2392311,104.770875 41.5529235,104.819841 C42.7878006,105.014177 43.8451736,105.150366 44.2828128,105.171789 C44.5352969,105.1825 44.772479,105.242178 44.8229759,105.307977 C44.8704123,105.370716 45.1458495,105.39979 45.4197566,105.369185 C45.7059053,105.340112 46.2185246,105.382957 46.5765931,105.470179 C47.0157625,105.574233 47.8160607,105.572703 49.0891929,105.465589 C50.9300319,105.307977 50.9621663,105.311038 51.3141139,105.646153 C51.5696584,105.886395 51.9124248,106.007282 52.5030847,106.06849 C52.956026,106.115926 53.4104974,106.096034 53.4977192,106.027174 C53.5864712,105.952194 53.7241899,105.932302 53.806821,105.975147 C54.0088084,106.079202 55.3706926,105.99657 58.1174141,105.707361 C59.9414208,105.516085 60.5152484,105.40285 61.3997081,105.063144 C62.833512,104.5138 63.1869898,104.314873 63.3201178,103.979758 C63.3828563,103.828267 63.7026696,103.494682 64.0362547,103.234547 C64.3698398,102.977472 65.1517756,102.122086 65.7669188,101.346271 C66.3851224,100.568926 67.0522926,99.8160643 67.2435685,99.6814061 C67.4409652,99.5421573 67.7332348,99.1121691 67.9153294,98.7020737 C68.2030083,98.0440847 68.3070624,97.6125663 68.5824996,95.9079157 C68.6834933,95.2851215 68.3820425,91.7840079 68.1509813,90.8597629" id="Fill-3"></path>
                </g>
                <path d="M35.9060007,39.9574277 C35.8294904,39.9650788 35.7437988,39.7508498 35.7147249,39.4769427 C35.6688186,39.0469546 35.220468,38.3292875 34.8715808,38.1181189 C34.8119027,38.081394 34.651231,37.8855275 34.5012707,37.6651777 C33.8830671,36.7547045 32.4354913,36.0018427 31.5005348,36.1013061 C31.3199704,36.1211988 31.09503,36.0676416 30.9833249,35.9758292 C30.6772835,35.7294658 29.5036147,35.4616796 29.1378953,35.5550223 C28.9603912,35.5993983 28.603853,35.7753721 28.3528991,35.937574 C28.0988847,36.1043666 27.6245206,36.3553205 27.2771636,36.49916 C26.9313368,36.6460598 26.5946913,36.861819 26.5120601,36.987296 C26.4370799,37.1066521 26.3085426,37.1831625 26.238153,37.1479677 C26.0300449,37.0500345 25.2588206,37.859514 25.1256926,38.3216365 C25.055303,38.5664696 24.9466583,38.7592757 24.8762688,38.7669267 C24.8089397,38.7761079 24.7768054,39.0148202 24.8074095,39.2902575 C24.877799,39.9543673 25.4500964,40.6521417 25.9627158,40.7041687 C26.1754145,40.7255916 26.3972946,40.7913905 26.4386101,40.846478 C26.5625569,40.9964383 27.4714999,40.5832824 27.9030182,40.180838 C29.4898429,38.7011278 30.8211229,38.5603488 32.1539332,39.7324873 C32.7063379,40.2160327 32.9511711,40.8495384 32.6742036,41.0698882 C32.6068745,41.1219152 32.5609683,41.3284932 32.5823912,41.5075274 C32.6007537,41.6865616 32.5655589,41.9818916 32.5104714,42.1364425 C32.0330469,43.4156955 31.7591398,44.0369595 31.5678639,44.2756718 C31.4684005,44.3965582 31.3796485,44.5526393 31.361286,44.6413913 C31.3429235,44.7224923 31.0552446,44.838788 30.710948,44.9015265 C29.8785154,45.0545472 29.6428636,45.2029773 29.5831855,45.6191936 C29.5143262,46.0920275 29.815777,46.5618011 30.311564,46.7515467 C30.6650418,46.8892653 32.0682416,46.8601914 33.0965407,46.6964593 C33.3780988,46.6520833 34.7659965,45.3697698 34.946561,44.9872181 C34.9894067,44.8954057 35.1148837,44.70566 35.2143472,44.5817132 C35.3138106,44.4592967 35.3949116,44.2970947 35.3872606,44.2343562 C35.3811397,44.1716178 35.5586437,43.8762878 35.7789935,43.5855485 C36.218163,43.0086604 36.3803649,42.0614623 36.1110485,41.6391252 C35.9656788,41.4080639 35.9197726,40.8357665 36.0008736,40.2542879 C36.0238267,40.0844349 35.9809809,39.9497767 35.9060007,39.9574277" id="Fill-6" fill="#EC6D6C"></path>
                <path d="M29.6880047,17.0759367 C29.5105007,16.8433453 29.2518957,16.612284 29.0942844,16.5480153 C28.6137994,16.3521488 27.908374,16.5296528 27.5579566,16.9290369 C27.2289621,17.3085282 27.1463309,17.6558852 26.9825987,19.3467639 C26.9412831,19.813477 26.8617124,20.3031432 26.8127458,20.4393317 C26.7607187,20.5770503 26.7867322,21.3651069 26.873954,22.1929489 C27.0055518,23.4783227 27.0790018,23.7675319 27.3712713,24.1638555 C27.7645345,24.6948373 28.4776109,24.9687443 28.7989544,24.71473 C29.0238948,24.537226 29.2044593,23.2273688 29.1264187,22.3291373 C29.0606198,21.5808661 29.2457749,20.2189819 29.4707153,19.7798125 C29.5717089,19.5870064 29.6466891,19.3391129 29.6344474,19.2381192 C29.623736,19.1310047 29.7170786,18.9152455 29.8517368,18.7331509 C30.1684897,18.3077533 30.1011606,17.61763 29.6880047,17.0759367" id="Fill-8" fill="#EC6D6C"></path>
                <path d="M25.4963087,13.5045867 C25.1963881,13.0899006 24.9408436,12.9215778 24.4970835,12.8435372 C24.02731,12.7639665 23.1122462,13.1036724 23.1413201,13.351566 C23.1505014,13.4433784 23.073991,13.5612043 22.9668766,13.6147616 C22.8582319,13.669849 22.7878423,13.8228697 22.8092652,13.9605883 C22.8276277,14.098307 22.7511174,14.6507117 22.6378821,15.207707 C22.3211292,16.7516859 22.4909822,19.103614 23.0418567,20.7899021 C23.2040586,21.2902798 23.7595238,21.5856097 24.3930295,21.5075692 C25.0020518,21.4356494 25.2055694,21.1433799 25.1305892,20.4532566 C25.0953945,20.1150808 25.0265351,19.487696 24.9836894,19.0730099 C24.8612728,17.9421869 24.8612728,17.9421869 24.9393133,17.1235262 C24.9790987,16.701189 25.0785622,16.2145832 25.1581329,16.0539115 C25.3386974,15.6851316 25.7365512,14.150334 25.705947,13.928454 C25.6937054,13.8381718 25.5973023,13.6468959 25.4963087,13.5045867" id="Fill-10" fill="#EC6D6C"></path>
                <path d="M21.0401929,11.6799679 C20.9116556,11.2331474 20.2674384,10.6914542 19.8221482,10.6547292 C19.3263611,10.6149438 18.3669214,11.8130959 18.1848267,12.6975555 C18.1144372,13.0403219 18.0195644,13.3937997 17.9767186,13.4733704 C17.8374697,13.728915 17.7425969,15.0770274 17.8160468,15.7533788 C17.9246915,16.7877988 18.8688292,17.5529022 19.4197038,17.0540548 C19.702792,16.79698 19.8588732,16.412898 19.9675179,15.6891101 C20.0807532,14.9423691 20.3837342,14.0533189 20.9238972,12.8781199 C21.2023949,12.2767486 21.2039251,12.2492049 21.0401929,11.6799679" id="Fill-12" fill="#EC6D6C"></path>
                <path d="M16.9546933,26.5994859 C16.7756591,26.1618467 16.5614301,25.6308649 16.4833896,25.4304078 C16.2859929,24.9208489 15.6830913,24.1832891 15.1505793,23.8007373 C14.8169942,23.5604948 14.4573955,23.4457293 13.8743867,23.3998231 C13.1567196,23.3416752 13.026652,23.3753398 12.7037783,23.6982135 C12.3273474,24.0777048 12.1483132,24.7433448 12.3793745,24.9177884 C12.4528244,24.9744061 12.4987306,25.1014133 12.4880192,25.2115882 C12.4589452,25.4671327 13.1766123,26.3332299 13.4382777,26.3607736 C13.5545734,26.3745455 13.8070576,26.5520495 14.0228168,26.7708691 C14.2370457,26.9942793 14.468107,27.1702531 14.5583892,27.1794344 C14.6440808,27.1886156 14.8690212,27.5068986 15.0511158,27.8741483 C15.5009967,28.7892121 15.6723799,28.9743671 16.1115493,29.0218036 C17.1673921,29.1335087 17.5468834,28.0440013 16.9546933,26.5994859" id="Fill-14" fill="#EC6D6C"></path>
                <path d="M7.43726498,51.8852381 C7.86113231,51.67713 8.37681207,51.4277062 8.56961815,51.3389542 C9.063875,51.1048326 9.76164938,50.4514342 10.1074762,49.895969 C10.3247656,49.5470819 10.4104571,49.178302 10.4211686,48.5983535 C10.4303498,47.8730354 10.3890342,47.7460282 10.0416773,47.4476379 C9.63770262,47.0972205 8.96288134,46.9656227 8.80373981,47.2058652 C8.75018257,47.2839057 8.62776601,47.337463 8.51912132,47.3344026 C8.26204654,47.3252213 7.44644622,48.0979758 7.43726498,48.3611714 C7.43267436,48.4789974 7.27200263,48.7437232 7.06542469,48.9732542 C6.86037695,49.1997249 6.69970522,49.4430278 6.6966448,49.53331 C6.69358439,49.622062 6.3890732,49.8684253 6.03559539,50.0719428 C5.15419617,50.583032 4.98128278,50.7697172 4.9644505,51.2104168 C4.9200745,52.2693201 6.03559539,52.5738313 7.43726498,51.8852381" id="Fill-16" fill="#EC6D6C"></path>
                <path d="M14.224498,31.4321856 C14.0561753,30.6747331 13.3216759,29.5760445 12.9559565,29.5377893 C12.8304795,29.5240175 12.7264254,29.453628 12.7325462,29.3878291 C12.7631504,29.1093314 12.2000342,29.0282304 11.6078441,29.2195063 C10.8412104,29.46893 10.3102286,29.9142203 9.99959657,30.5722093 C9.72415931,31.1567483 9.49156785,33.0144196 9.6767229,33.1597893 C9.74711242,33.2164069 9.78536759,33.4398171 9.76241449,33.6616972 C9.73640097,33.882047 9.82209256,34.1513634 9.94909974,34.2676591 C10.0761069,34.3824246 10.2046443,34.5721703 10.2367787,34.6961171 C10.2704432,34.8185336 10.7218543,35.1184542 11.2405944,35.3602269 C12.1556582,35.7932755 12.1969738,35.7993963 12.6590963,35.6065902 C12.9177013,35.4948851 13.3691123,35.116924 13.655261,34.7710972 C14.1296252,34.192679 14.1877731,34.0457791 14.2795855,33.1322455 C14.3346729,32.581371 14.3101896,31.819328 14.224498,31.4321856" id="Fill-18" fill="#EC6D6C"></path>
                <path d="M5.94133464,15.6713597 C5.85870346,15.680541 5.8005556,15.6621785 5.79596498,15.6254535 C5.79290456,15.5871984 5.84187118,15.5229297 5.91685133,15.4647818 C5.99336168,15.4096944 6.05456996,15.429587 6.0637512,15.5122182 C6.07293244,15.5948494 6.01937519,15.6637087 5.94133464,15.6713597 M6.30399369,15.1434383 C6.22595314,15.2031164 6.16627506,15.1878143 6.16015424,15.103653 C6.15097299,15.0210218 6.1968792,14.9276792 6.27338955,14.8695313 C6.35143011,14.8113834 6.40957797,14.8251553 6.41875922,14.9077865 C6.42488004,14.9934781 6.38050404,15.0852905 6.30399369,15.1434383 M8.37895436,14.4747379 C8.33151794,14.3875161 8.07291296,14.2712204 7.80206633,14.2161329 C7.37360837,14.1289111 7.25425223,14.1641059 6.89465359,14.4732077 C6.62686737,14.7057991 6.53658515,14.7440543 6.64063923,14.5772618 C6.72633082,14.4426035 6.73704227,14.3308984 6.66359233,14.3370193 C6.45701439,14.3615026 5.63682345,15.5642453 5.73934732,15.6943128 C5.78678373,15.7585815 5.68272966,15.9284345 5.50216524,16.0768646 C5.32313102,16.2191738 5.09359997,16.5787725 4.99413652,16.8695118 C4.89467306,17.1602511 4.66667222,17.6789913 4.49069842,18.0186973 C4.31319441,18.3584032 4.16935496,18.6705654 4.17241537,18.7088206 C4.17700599,18.7455456 4.00103219,19.1740035 3.79139383,19.6453073 C3.31243905,20.7103313 2.62690632,23.8013494 2.56416784,25.1770055 C2.49224811,26.8036155 2.46470438,27.6253367 2.45858355,28.2603726 C2.45552314,28.6505753 2.40808672,29.0698521 2.35452948,29.2136915 C2.30097223,29.3529403 2.36830134,30.6627975 2.50601997,32.1272056 C2.7539135,34.754571 2.76156454,34.7943564 3.16553918,35.2763716 C3.57869506,35.767568 3.93523329,35.9037564 4.47998697,35.7629774 C4.94057927,35.6466817 4.95435114,35.4875401 4.97577403,30.851013 C4.98342507,28.8540929 5.02933128,27.8717 5.17164053,26.6689573 C5.2083655,26.3476138 5.2083655,25.7676654 5.17011032,25.3942949 C5.12879473,25.0209244 5.15480825,24.6659164 5.22519777,24.6123591 C5.2971175,24.5603321 5.33231226,24.3093781 5.30323833,24.0477127 C5.2741644,23.7829869 5.3399633,23.3637102 5.45319861,23.095924 C5.56184331,22.8311982 5.69956194,22.2298269 5.75617959,21.7631137 C5.81432746,21.2964006 6.05303975,20.3920483 6.28869162,19.7524218 C6.52281329,19.1127952 6.79672034,18.3614636 6.89618379,18.0814357 C7.2267085,17.1526001 7.39044065,16.8496191 7.8617444,16.2773217 C8.10963793,15.9774011 8.31162525,15.6545275 8.30397421,15.5734265 C8.29479297,15.4892651 8.34988042,15.414285 8.42486057,15.4051037 C8.56563961,15.3898017 8.53503547,14.7654772 8.37895436,14.4747379" id="Fill-20" fill="#EC6D6C"></path>
                <path d="M3.30386989,38.5676938 C3.1738023,38.3871293 3.05291594,38.1071015 3.03149305,37.9341881 C3.01007015,37.7582143 2.80043179,37.4628843 2.55100806,37.2547762 C1.96034816,36.7528683 1.47068193,36.8125463 1.00090839,37.4322802 C0.717820094,37.8117715 0.661202436,38.0275307 0.722410715,38.5370896 C0.809632513,39.3037233 1.19371446,39.7367719 2.09653658,40.0902497 C2.76676724,40.3534453 3.07280864,40.2509214 3.40180314,39.6464897 C3.62521335,39.2394546 3.60073004,38.9823798 3.30386989,38.5676938" id="Fill-22" fill="#EC6D6C"></path>
            </g>
        </g>
    </g>
</svg>