<?xml version="1.0" encoding="UTF-8"?>
<svg width="51px" height="58px" viewBox="0 0 51 58" version="1.1" xmlns="http://www.w3.org/2000/svg" xmlns:xlink="http://www.w3.org/1999/xlink">
    <!-- Generator: Sketch 61 (89581) - https://sketch.com -->
    <title>img-nav-about-white</title>
    <desc>Created with Sketch.</desc>
    <g id="Page-1" stroke="none" stroke-width="1" fill="none" fill-rule="evenodd">
        <g id="200318_kodomonooka-ver2" transform="translate(-215.000000, -6399.000000)" fill="#FFFFFF">
            <path d="M256.919768,6454.26795 C256.879701,6454.16505 256.652959,6453.90097 256.428038,6453.69335 C256.201295,6453.48573 256.007335,6453.27811 256.004603,6453.24169 C256.001871,6453.20435 255.847067,6453.0623 255.647643,6452.91478 C255.447308,6452.76726 255.287951,6452.59879 255.278845,6452.52686 C255.27065,6452.45583 254.891835,6452.10069 254.431065,6451.73098 C253.972117,6451.364 253.187169,6450.72475 252.689064,6450.31498 C252.19187,6449.90429 251.720173,6449.57192 251.643681,6449.57738 C251.570832,6449.58194 251.497984,6449.48723 251.489788,6449.37523 C251.475218,6449.16032 251.58176,6449.07746 252.8466,6448.31527 C253.158029,6448.1286 253.402984,6447.9483 253.400252,6447.90823 C253.39661,6447.86725 253.54595,6447.75707 253.739911,6447.6569 C255.455504,6446.76997 257.221181,6444.4734 257.391465,6442.90897 C257.493454,6441.96376 257.434264,6441.07318 257.248499,6440.77359 C256.894271,6440.1999 256.284161,6439.86844 255.660392,6439.91124 C255.015678,6439.95677 254.680573,6440.51588 254.697875,6441.52029 C254.708802,6442.16773 254.521216,6442.81427 254.207055,6443.20856 C254.112351,6443.32694 254.000346,6443.52819 253.969385,6443.63291 C253.937513,6443.73945 253.769961,6443.90427 253.607872,6443.98714 C253.44123,6444.07364 253.087912,6444.38507 252.818371,6444.68558 C252.554294,6444.97879 252.014301,6445.41498 251.638218,6445.63808 C251.263046,6445.86209 250.890605,6446.12981 250.824131,6446.22542 C250.759477,6446.31921 250.63017,6446.40754 250.546394,6446.41301 C250.457154,6446.41847 250.394322,6446.47129 250.398875,6446.53503 C250.402517,6446.59513 250.339685,6446.65068 250.261372,6446.65614 C250.017328,6446.67344 248.553975,6447.58405 248.504801,6447.74978 C248.479304,6447.83083 248.348176,6447.90641 248.214316,6447.91552 C248.082277,6447.92462 247.771759,6448.04573 247.535,6448.1805 C247.295509,6448.3171 246.750963,6448.55203 246.324796,6448.70137 C245.40872,6449.02464 245.323123,6449.07655 245.338603,6449.29965 C245.344977,6449.39162 245.15557,6449.69303 244.920632,6449.9653 C244.570047,6450.37417 244.489002,6450.55993 244.478075,6450.9861 C244.465326,6451.42319 244.38155,6451.60714 243.949009,6452.13985 L243.433603,6452.77363 L241.888294,6452.88655 C241.021391,6452.94938 240.340253,6452.95575 240.3357,6452.8993 C240.332058,6452.84466 240.247371,6452.83737 240.150846,6452.88382 C240.05341,6452.93026 239.939584,6452.93026 239.900428,6452.88473 C239.796618,6452.7627 238.824084,6452.3675 238.656531,6452.37843 C238.449822,6452.393 237.827874,6451.78835 237.724975,6451.47146 C237.5984,6451.0808 237.711316,6450.99065 238.590967,6450.77848 C239.514328,6450.55538 239.714663,6450.39056 239.679149,6449.88244 C239.642724,6449.35337 239.496116,6449.32696 236.568498,6449.33698 C234.032443,6449.34518 233.255691,6449.18582 231.693991,6448.3344 C231.357065,6448.15045 231.057473,6448.02297 231.031065,6448.05211 C231.006479,6448.08125 230.914507,6448.03207 230.834373,6447.94921 C230.754239,6447.86452 230.567564,6447.79987 230.433704,6447.80897 C230.288917,6447.81899 230.119543,6447.72429 230.033035,6447.58496 C229.947437,6447.45019 229.626902,6447.21434 229.301813,6447.04952 C228.977635,6446.88379 228.58334,6446.65341 228.405771,6446.52501 C228.229112,6446.39753 228.050632,6446.29827 228.005101,6446.301 C227.95866,6446.30464 227.770163,6446.09976 227.593505,6445.8548 C227.416846,6445.60985 227.228349,6445.37855 227.18464,6445.35123 C227.010713,6445.24014 226.433385,6444.18656 226.182056,6443.52181 C225.826007,6442.58024 225.694878,6441.85721 225.604728,6440.34378 C225.540985,6439.25286 225.498186,6439.04706 225.284192,6438.79027 C224.961836,6438.40326 224.501066,6438.2521 223.903704,6438.33679 C223.505767,6438.39416 223.37646,6438.47884 223.112382,6438.85766 L222.797311,6439.30932 L222.943009,6441.00397 C223.043176,6442.16955 223.151539,6442.84341 223.288131,6443.16394 C223.400136,6443.42438 223.496661,6443.744 223.507588,6443.88697 C223.516694,6444.03084 223.56951,6444.16653 223.627789,6444.19658 C223.687889,6444.22754 223.777129,6444.39327 223.834498,6444.57903 C223.890956,6444.7648 223.968358,6444.90503 224.012067,6444.9023 C224.097665,6444.89593 224.479211,6445.60711 224.613071,6446.02235 C224.663155,6446.17534 224.800657,6446.37294 224.926322,6446.47037 C225.043791,6446.56235 225.155796,6446.71806 225.16126,6446.80002 C225.173098,6446.96666 225.651169,6447.61319 225.803241,6447.66692 C225.857878,6447.68604 225.897945,6447.74341 225.901587,6447.8108 C225.90614,6447.87363 226.063676,6448.04664 226.264922,6448.20964 C226.467078,6448.37355 226.623703,6448.55112 226.628256,6448.62033 C226.63372,6448.68954 226.715675,6448.7378 226.814931,6448.73051 C226.915099,6448.72414 227.158232,6448.85436 227.372226,6449.02919 C227.965034,6449.51455 228.417609,6449.79593 228.809172,6449.92068 C229.01406,6449.98625 229.188897,6450.08186 229.19254,6450.13012 C229.198914,6450.21754 229.744371,6450.36688 229.898264,6450.32226 C230.102241,6450.26398 229.938331,6450.41515 229.320936,6450.85679 C228.958512,6451.11632 228.637977,6451.364 228.609748,6451.40498 C228.58334,6451.44596 228.40486,6451.57709 228.221827,6451.68909 C228.039705,6451.80201 227.798392,6452.01873 227.695493,6452.1617 C227.590773,6452.30922 227.223796,6452.67802 226.865015,6452.99582 C226.508055,6453.31362 226.152006,6453.68424 226.062766,6453.83358 C225.720376,6454.40818 224.639479,6454.75148 225.207701,6455.59289 C225.449924,6455.95258 225.904319,6456.1174 226.337771,6456.14199 C227.891275,6456.23214 228.467692,6454.93543 229.599583,6454.23243 C229.738907,6454.14683 229.925582,6453.96835 230.008448,6453.84542 C230.091314,6453.72067 230.275257,6453.49848 230.410939,6453.35824 C230.54662,6453.21983 230.749686,6453.00584 230.853496,6452.89201 C230.957306,6452.7791 231.065669,6452.68166 231.090255,6452.67984 C231.183138,6452.67438 232.595497,6451.63719 232.652866,6451.53247 C232.725715,6451.40134 232.988882,6451.37948 234.04246,6451.41773 C234.837424,6451.44687 234.850173,6451.45233 234.931217,6451.78744 C235.182546,6452.83737 235.339171,6453.06685 236.505666,6454.10313 C237.337965,6454.84254 237.725886,6455.06473 238.661084,6455.33609 C238.980709,6455.42807 239.285764,6455.53734 239.35406,6455.58196 C239.421446,6455.62658 239.891321,6455.66483 240.39489,6455.66665 C241.165268,6455.66938 241.422971,6455.62294 242.022154,6455.37434 C242.412806,6455.21225 242.755197,6455.03468 242.783426,6454.98096 C242.809833,6454.92814 242.95371,6454.87441 243.098497,6454.8644 C243.513736,6454.83526 244.569136,6454.03574 244.9179,6453.48664 C245.09547,6453.20526 245.258469,6452.79731 245.285788,6452.56055 C245.329497,6452.17809 245.368653,6452.1362 245.701937,6452.11344 C246.590695,6452.05152 247.242693,6451.26657 247.108833,6450.41697 C247.093353,6450.31771 247.131598,6450.22574 247.189878,6450.2221 C247.254531,6450.21754 247.305525,6450.28129 247.3119,6450.36962 C247.333754,6450.67103 248.338159,6451.45962 249.144962,6451.80656 C250.1694,6452.24912 250.684807,6452.51229 250.898801,6452.7026 C250.990773,6452.78547 251.121901,6452.85468 251.177448,6452.85012 C251.235727,6452.84648 251.287632,6452.8993 251.292185,6452.96577 C251.304023,6453.13241 251.752044,6453.47662 252.095345,6453.58226 C252.242864,6453.62779 252.392205,6453.7407 252.436825,6453.84178 C252.479623,6453.9383 252.768287,6454.24791 253.066968,6454.51654 C254.962863,6456.22849 255.552939,6458.0306 257.690146,6455.42351 C257.392376,6454.90173 257.113728,6454.45007 257.07184,6454.4528 C257.02722,6454.45644 256.962567,6454.37722 256.919768,6454.26795 M232.988882,6433.50872 C233.451472,6433.40673 234.424006,6432.12914 234.392135,6431.66564 C234.38485,6431.55455 234.427649,6431.41796 234.484107,6431.37789 C234.678067,6431.23948 234.521442,6430.06934 234.259185,6429.6969 C234.124415,6429.50476 233.886745,6429.28166 233.717371,6429.18696 C233.405031,6429.01303 232.6301,6428.98389 232.003599,6429.12321 C231.598377,6429.21245 231.030155,6429.78705 230.787021,6430.35163 C230.612184,6430.75412 230.563921,6431.69751 230.708709,6431.85414 C230.767899,6431.9197 230.85896,6432.12277 230.915418,6432.32037 C231.083881,6432.90499 232.372397,6433.64349 232.988882,6433.50872 M240.94581,6439.63168 C241.568669,6439.282 241.824551,6438.62545 241.613289,6437.92519 C241.492178,6437.5227 241.420239,6437.46078 240.93124,6437.3251 C240.236443,6437.13296 240.05341,6437.15026 239.632708,6437.44712 C239.307604,6437.67659 239.283943,6437.74034 239.320368,6438.26303 C239.352239,6438.71924 239.434194,6438.91958 239.739249,6439.28473 C240.190002,6439.82291 240.464096,6439.90213 240.94581,6439.63168 M237.114865,6442.62031 C237.067513,6442.8343 237.066603,6442.9973 237.113954,6443.02098 C237.161306,6443.04556 237.177697,6443.09018 237.155843,6443.13207 C237.078441,6443.28141 237.336144,6443.77678 237.648484,6444.07638 C237.828785,6444.24939 238.040047,6444.47158 238.116538,6444.57084 C238.203047,6444.68466 238.343281,6444.74476 238.494442,6444.73384 C238.628302,6444.72473 238.761252,6444.7566 238.796766,6444.80578 C238.917877,6444.97424 239.609942,6445.17366 239.752908,6445.08078 C239.891321,6444.99154 240.195466,6445.0134 240.202751,6445.11356 C240.211857,6445.24833 241.732579,6445.1682 241.984819,6445.01977 C242.088628,6444.95785 242.319013,6444.8595 242.508421,6444.79758 C242.706934,6444.73111 242.944604,6444.56446 243.083928,6444.39509 C243.213234,6444.23573 243.470027,6443.95982 243.65306,6443.78407 C244.079227,6443.37338 244.42617,6442.79059 244.408868,6442.51923 C244.399762,6442.40267 244.299595,6442.21417 244.182126,6442.09579 C243.908031,6441.82079 243.4591,6441.84811 242.908179,6442.17502 C242.681437,6442.30979 242.375471,6442.45002 242.214293,6442.49373 C242.056757,6442.53744 241.887383,6442.60665 241.844584,6442.6458 C241.800875,6442.68587 241.479429,6442.72594 241.134307,6442.73413 C240.566996,6442.7487 240.289259,6442.72412 239.48701,6442.59208 C239.343133,6442.56749 239.139156,6442.45366 239.018044,6442.328 C238.357851,6441.64322 237.295166,6441.80622 237.114865,6442.62031 M246.046149,6432.1255 C246.051612,6432.20746 246.162707,6432.35771 246.292925,6432.4597 C246.423142,6432.56169 246.534237,6432.70738 246.539701,6432.78387 C246.544254,6432.86128 246.794672,6433.00697 247.103369,6433.11352 C247.527715,6433.2583 247.738066,6433.27561 247.991216,6433.18545 C248.176981,6433.11989 248.355461,6433.09439 248.395528,6433.12809 C248.557617,6433.2665 249.217811,6432.55895 249.441821,6432.00621 C249.678581,6431.42433 249.691329,6431.24039 249.540167,6430.55834 C249.500101,6430.37075 249.421788,6430.18499 249.359866,6430.12944 C249.300676,6430.07389 249.247861,6429.95278 249.240576,6429.85261 C249.226917,6429.64135 248.857208,6429.32082 248.645946,6429.33539 C248.566723,6429.33994 248.41283,6429.27802 248.307199,6429.19697 C248.198836,6429.1132 247.837323,6429.03488 247.49038,6429.01849 C246.883912,6428.99026 246.855683,6429.0021 246.414947,6429.46743 C246.123551,6429.77612 245.923216,6430.11942 245.853099,6430.4345 C245.72106,6431.02457 245.766591,6431.99346 245.924127,6431.98254 C245.982406,6431.97798 246.040685,6432.04719 246.046149,6432.1255 M265.861979,6425.46984 C265.790951,6425.73118 265.741778,6426.09088 265.754527,6426.2648 C265.767275,6426.44237 265.739046,6426.67002 265.689873,6426.78294 C265.642522,6426.89312 265.514125,6427.37029 265.404852,6427.83652 C265.2974,6428.30184 265.170825,6428.73894 265.126205,6428.79995 C265.083406,6428.85823 265.049713,6428.98389 265.055177,6429.0622 C265.05973,6429.14598 264.950456,6429.35451 264.80749,6429.53208 C264.664524,6429.70965 264.55343,6429.88904 264.556161,6429.93457 C264.559804,6429.98192 264.474206,6430.11942 264.36038,6430.25055 C264.158224,6430.48185 264.158224,6430.48185 264.481491,6431.10744 C264.659061,6431.45347 264.863948,6431.83502 264.937708,6431.95886 C265.01511,6432.09181 265.090691,6432.70829 265.11983,6433.455 C265.167182,6434.68159 265.155344,6434.75717 264.791099,6435.61224 C264.427765,6436.46457 263.749359,6437.45076 263.514421,6437.46624 C263.455231,6437.4708 263.407879,6437.54091 263.414254,6437.61922 C263.419717,6437.69936 263.268556,6437.85872 263.075506,6437.97801 C262.882456,6438.09639 262.584686,6438.29672 262.407117,6438.42694 C262.092045,6438.65914 261.640381,6438.79665 260.767104,6438.92869 C260.520328,6438.96602 259.999458,6439.05799 259.590593,6439.13539 C259.017818,6439.24558 258.712763,6439.24376 258.192804,6439.1272 C257.82947,6439.04524 257.467957,6438.9642 257.393286,6438.94872 C257.224823,6438.91229 257.042701,6438.24026 257.118282,6437.93339 C257.189309,6437.64381 257.395108,6437.54364 258.126329,6437.44348 C258.447775,6437.39977 258.832964,6437.28412 258.996874,6437.18213 C259.158053,6437.08287 259.561454,6436.8616 259.885632,6436.69586 C260.208899,6436.53013 260.636887,6436.25149 260.826294,6436.08302 C261.320756,6435.6432 262.246849,6434.09516 262.251402,6433.69904 C262.262329,6432.90499 262.181285,6432.64364 261.899906,6432.5544 C261.751476,6432.50796 261.601225,6432.4087 261.571175,6432.33767 C261.475561,6432.10911 260.652367,6431.96979 259.988531,6432.07178 C259.624286,6432.12732 259.327427,6432.12277 259.284628,6432.06085 C259.245471,6432.00439 259.120718,6431.96068 259.021461,6431.96706 C258.914009,6431.97525 258.696372,6431.80588 258.525177,6431.58278 C258.273848,6431.25769 258.213748,6431.06828 258.195536,6430.54377 C258.182787,6430.16495 258.12815,6429.90634 258.062586,6429.91089 C258.000665,6429.91454 257.701073,6429.71238 257.394197,6429.4565 C255.899883,6428.21989 254.789846,6427.24098 254.513931,6426.91589 C254.343646,6426.71556 254.089586,6426.43327 253.938424,6426.27482 C253.787262,6426.11728 253.66433,6425.96248 253.661598,6425.92514 C253.656134,6425.84228 252.854796,6424.93076 252.292037,6424.36618 L251.905938,6423.97917 L251.207498,6424.36891 C250.819577,6424.58472 250.434389,6424.77322 250.341506,6424.79234 C250.251356,6424.81055 250.07925,6424.87248 249.96087,6424.92893 C249.12766,6425.32414 248.861761,6425.40883 248.331785,6425.44616 C247.542284,6425.5008 246.447729,6425.23126 246.023383,6424.87794 C245.845814,6424.72951 245.575362,6424.56469 245.440592,6424.5228 C245.303089,6424.48091 244.890582,6424.13124 244.531801,6423.75424 C243.894372,6423.08221 243.684932,6422.67244 243.615725,6421.96216 C243.564731,6421.45313 243.405374,6421.44857 242.65685,6421.93575 C242.56761,6421.99403 242.281678,6422.16705 242.013048,6422.32458 C241.744417,6422.48303 241.341016,6422.74802 241.105167,6422.92195 C240.205483,6423.58032 238.034583,6424.57562 236.880838,6424.85882 C235.903751,6425.09831 234.750916,6425.14657 234.150823,6424.97173 C233.044429,6424.64938 231.97446,6423.84531 231.599287,6423.05307 C231.389847,6422.60961 231.164015,6422.48303 231.031976,6422.73527 C230.994641,6422.80448 230.857139,6422.92012 230.727832,6422.98842 C230.520212,6423.09951 229.928314,6423.553 229.656952,6423.81161 C229.597762,6423.86625 229.381947,6424.04564 229.169774,6424.21319 C228.651636,6424.62388 227.667264,6425.58913 226.952434,6426.38865 C226.62006,6426.76018 226.280402,6427.09346 226.193894,6427.13353 C226.106475,6427.17359 226.040911,6427.27012 226.047285,6427.35025 C226.052749,6427.43039 225.913425,6427.6034 225.732214,6427.7409 C225.556465,6427.87476 225.216807,6428.27908 224.984601,6428.63057 C224.752395,6428.98207 224.522921,6429.29532 224.479211,6429.31991 C224.435502,6429.34358 224.40272,6429.431 224.408184,6429.50931 C224.420932,6429.68688 223.760738,6430.5037 223.595007,6430.51554 C223.530353,6430.51918 223.478449,6430.60114 223.483912,6430.69038 C223.501214,6430.92805 222.615188,6431.36514 222.036039,6431.40612 C221.54613,6431.43981 221.465996,6431.50173 220.741149,6432.40051 C220.37144,6432.85854 220.317714,6433.03338 220.294949,6433.83927 C220.277647,6434.51313 220.417881,6434.79268 221.094466,6435.42738 C221.727341,6436.02019 222.183558,6436.28336 222.680752,6436.34073 C223.267187,6436.40811 223.564046,6436.66855 223.596828,6437.14206 C223.617772,6437.44166 223.549476,6437.60374 223.299058,6437.84779 C222.895657,6438.24299 222.585138,6438.34225 221.834794,6438.31675 C221.241075,6438.29672 219.935257,6437.87329 219.604705,6437.59373 C219.505448,6437.50904 219.234085,6437.31781 218.989131,6437.16028 C218.742355,6437.00183 218.546573,6436.84065 218.543841,6436.79421 C218.54111,6436.74777 218.389037,6436.48096 218.200541,6436.1923 C218.012044,6435.90363 217.831743,6435.47473 217.792586,6435.22614 C217.754341,6434.983 217.665101,6434.63424 217.594073,6434.46304 C217.431984,6434.06055 217.399202,6433.5497 217.52942,6433.45409 C217.588609,6433.41129 217.625944,6433.22643 217.613196,6433.04795 C217.601358,6432.86947 217.641425,6432.71649 217.702436,6432.71194 C217.763447,6432.70829 217.806246,6432.60448 217.79805,6432.48246 C217.785302,6432.30216 217.999295,6431.87599 218.517434,6431.04643 C218.570249,6430.96083 218.502864,6430.76232 218.344417,6430.53831 C218.201451,6430.33615 217.998385,6430.01379 217.892754,6429.82165 C217.786212,6429.62769 217.654173,6429.47471 217.594984,6429.47926 C217.535794,6429.48291 217.39647,6429.30807 217.27718,6429.08224 C217.15789,6428.85549 217.014924,6428.59506 216.95027,6428.48943 C216.885617,6428.38289 216.833712,6428.24994 216.829159,6428.17982 C216.824606,6428.11426 216.707137,6427.9203 216.576009,6427.76185 C216.396618,6427.54421 216.302825,6427.23278 216.224512,6426.58989 C216.110686,6425.65925 216.073351,6425.54087 215.67086,6424.80691 C215.421352,6424.3507 215.29933,6423.39091 215.347593,6422.25902 C215.353967,6422.10513 215.308437,6421.83741 215.246515,6421.66257 C215.0908,6421.22821 215.012488,6420.09267 215.036164,6418.64935 C215.058929,6417.25065 215.13451,6416.64874 215.348504,6416.16885 C215.435012,6415.97306 215.549749,6415.67438 215.612581,6415.48042 C215.674503,6415.28555 215.7601,6415.0497 215.809273,6414.93588 C215.856625,6414.82387 215.889407,6414.64539 215.882122,6414.5343 C215.860268,6414.22833 216.245456,6413.11192 216.508623,6412.71398 C217.074113,6411.85801 217.638693,6410.86817 217.630498,6410.74706 C217.616838,6410.54673 218.390859,6409.63703 219.180359,6408.92675 C219.559174,6408.58618 219.919776,6408.25836 219.988983,6408.19188 C220.062742,6408.12177 220.142876,6408.06986 220.182033,6408.06713 C220.251239,6408.06167 221.048025,6407.34501 221.444141,6406.93069 C221.560699,6406.80957 221.97776,6406.41073 222.387535,6406.03009 C222.7964,6405.65037 223.136969,6405.3098 223.155181,6405.26244 C223.174304,6405.21327 223.248974,6405.17138 223.327287,6405.16683 C223.403778,6405.16137 223.549476,6405.05027 223.651465,6404.92005 C223.752543,6404.79075 223.893688,6404.67965 223.964715,6404.6751 C224.033011,6404.67055 224.191458,6404.56127 224.306195,6404.43925 C224.424575,6404.31268 224.683188,6404.16607 224.890808,6404.10779 C225.100249,6404.04951 225.317885,6403.95298 225.38436,6403.88924 C225.447192,6403.82914 225.554644,6403.78361 225.606549,6403.79272 C225.759532,6403.82003 226.320469,6403.60422 226.728423,6403.362 C226.93149,6403.24089 227.276612,6403.09063 227.48241,6403.03418 C227.69003,6402.97681 227.923146,6402.85479 227.999638,6402.76372 C228.07795,6402.66902 228.250967,6402.5898 228.394843,6402.57978 C228.539631,6402.56976 228.677133,6402.53061 228.712647,6402.49054 C228.876557,6402.30204 231.336121,6401.33497 231.998136,6401.19838 C233.528875,6400.8824 235.21806,6400.7021 236.324454,6400.73579 C238.262236,6400.79589 241.001358,6401.30128 241.022302,6401.60269 C241.041425,6401.88225 242.285321,6401.4142 242.550309,6401.02719 C242.698739,6400.81046 243.613904,6400.30871 244.000003,6400.23131 C244.48536,6400.13479 245.183799,6399.90622 246.512382,6399.40812 C247.233587,6399.13858 247.596011,6399.07119 248.609522,6399.0202 C249.288839,6398.9856 250.309635,6398.99652 250.902443,6399.04478 C251.486146,6399.09305 252.213725,6399.14768 252.507852,6399.1659 C253.170778,6399.20596 253.499509,6399.34711 254.131474,6399.85978 C254.281725,6399.98089 254.635042,6400.17941 254.910958,6400.29779 C255.188694,6400.41526 255.446398,6400.54729 255.47918,6400.58736 C255.513783,6400.63016 255.654928,6400.71212 255.805179,6400.77586 C256.180351,6400.93795 256.397987,6401.10277 257.610012,6402.14178 C258.191893,6402.64079 258.670875,6403.0961 258.674518,6403.15438 C258.679071,6403.21175 258.88578,6403.46945 259.129824,6403.72078 C259.902933,6404.51574 260.006743,6404.63412 260.013117,6404.73247 C260.01676,6404.79166 260.054095,6404.84538 260.106,6404.86542 C260.153352,6404.88363 260.335474,6405.16774 260.50758,6405.49101 C260.678775,6405.81428 260.976545,6406.26139 261.16231,6406.47356 C261.345343,6406.68482 261.505611,6406.91703 261.510164,6406.98077 C261.514717,6407.04724 261.566622,6407.09369 261.630365,6407.08913 C261.693197,6407.08549 261.746923,6407.16471 261.755118,6407.27672 C261.761493,6407.38508 261.873498,6407.58633 262.01009,6407.73385 C262.14486,6407.88045 262.260508,6408.11357 262.272346,6408.26291 C262.297843,6408.58527 262.581954,6409.39207 262.717635,6409.52866 C262.76954,6409.58057 262.819624,6409.73901 262.82873,6409.8838 C262.839657,6410.02859 262.989908,6410.493 263.168388,6410.92736 C263.465248,6411.65403 263.670136,6412.28964 264.120889,6413.90051 C264.221967,6414.26293 264.349452,6414.61079 264.405,6414.67453 C264.557983,6414.85119 264.939529,6416.01222 265.101618,6416.79444 C265.307416,6417.78609 265.619756,6419.45251 265.782756,6420.43506 C265.858337,6420.88764 265.928454,6421.51596 265.935739,6421.82102 C265.994928,6424.04109 265.973984,6425.05824 265.861979,6425.46984" id="img-nav-about-white"></path>
        </g>
    </g>
</svg>