<?xml version="1.0" encoding="UTF-8"?>
<svg width="71px" height="157px" viewBox="0 0 71 157" version="1.1" xmlns="http://www.w3.org/2000/svg" xmlns:xlink="http://www.w3.org/1999/xlink">
    <title>img-girl4</title>
    <g id="Page-1" stroke="none" stroke-width="1" fill="none" fill-rule="evenodd">
        <g id="Group-20">
            <ellipse id="Oval" fill="#FFFFFF" cx="44.5" cy="36" rx="25.5" ry="26"></ellipse>
            <g id="Group-33">
                <path d="M44.4915982,145.234501 C43.3992419,145.569798 41.1742262,145.831304 39.4245104,145.831304 L38,145.831304 L38.0291851,147.478014 C38.0625395,149.342214 38.2084649,149.882055 38.6670878,149.831566 C38.8463677,149.812147 39.5412508,149.858752 40.2277953,149.939017 C41.074163,150.03611 41.6689829,150.017986 42.120657,149.879466 C42.4806064,149.769426 43.3909033,149.64903 44.1316488,149.612782 C45.4116235,149.550642 47.1349337,149.32409 47.7380922,149.141553 C47.8854075,149.093654 48.2342388,149.0108 48.5038534,148.956428 C48.9207833,148.87228 49,148.771303 49,148.336323 C49,147.580286 48.7289956,147.230749 47.864561,146.870854 C47.4518004,146.69738 46.7777637,146.201555 46.3858497,145.780815 C45.9939356,145.362665 45.5770057,145.004065 45.4755527,145.000182 C45.3713203,144.995003 44.9252053,145.101159 44.4915982,145.234501" id="Fill-1" fill="#FFFFFF"></path>
                <path d="M26.999904,151.183135 C26.7341335,151.28393 25.9468782,151.40176 25.2573115,151.44293 C24.5677448,151.481261 23.5104092,151.60477 22.9170946,151.712663 C21.8425198,151.907155 19.5999914,151.672913 17.9407216,151.188813 C17.5858821,151.088018 17.2195497,151 17.1391003,151 C16.9236107,151 16.9710184,151.689949 17.1951276,151.826235 C17.3014358,151.891539 17.3804486,152.104486 17.3804486,152.327371 C17.3804486,152.707836 17.614614,153.522714 18.0111148,154.519307 C18.1188596,154.79046 18.5555852,155.183702 19.0210427,155.430721 C19.7824393,155.831062 20.0927443,155.866553 23.3179052,155.909143 C25.2386358,155.936116 27.3791657,155.967348 28.1003375,155.982964 C28.8258192,156 29.4536122,156.004259 29.5153859,155.995741 C29.7854661,155.954571 30.0871516,154.83163 29.9765336,154.280806 C29.850113,153.651902 28.587344,151.576377 28.3230101,151.562181 C28.2439973,151.556502 28.0443102,151.423055 27.8949041,151.275412 C27.5774161,150.963089 27.5774161,150.963089 26.999904,151.183135" id="Fill-3" fill="#FFFFFF"></path>
                <path d="M15.5678383,14.1506521 C15.8050784,13.9219657 16,13.9578139 16,14.2297652 C16,14.358324 15.9384458,14.470813 15.867915,14.470813 C15.7255709,14.470813 15.3344453,15.6117726 15.3344453,16.0283526 C15.3344453,16.3794171 14.4880752,18 14.3034126,18 C14.2239051,18 14.1700452,17.9456097 14.1700452,17.8627882 C14.1700452,17.7873835 13.9161341,17.4066516 13.5981041,17.0073775 C12.3400903,15.4176982 13.2056962,13.5090941 14.9022836,14.1284015 C15.2357021,14.2507796 15.4575537,14.2569604 15.5678383,14.1506521 M10.8214126,4.14593276 C10.9624591,3.9155583 11.4962235,3.95306112 12.8790328,4.29326527 C13.5248047,4.45265225 14.0239988,4.65891776 13.9991083,4.75535358 C13.9756005,4.8517894 13.6686169,5.08350325 13.3090864,5.27905367 C12.4655728,5.73444505 11.8018243,6.92783835 11.8018243,7.98729301 C11.8018243,8.85119725 11.6220591,8.99719037 10.56421,9.00790546 C10.2973279,9.01058424 9.85344608,9.290516 9.40126744,9.744568 C8.18854371,10.9513552 7.02836673,11.7871323 5.68289331,12.4246802 C3.67367143,13.3756446 3.55336703,13.1747366 5.19891006,11.619709 C6.45450088,10.4330126 7.76125565,9.53428433 8.2314108,9.53428433 C8.40979319,9.53428433 8.71954247,9.30792802 8.92281543,9.02933565 C9.39297059,8.38643017 9.2602209,7.67655536 8.62551144,7.43948397 C7.37268624,6.97337749 5.95254112,7.54261672 4.21158424,9.20479527 C2.52317412,10.8174165 2.62688481,9.744568 4.35124798,7.76093671 C6.6660707,5.10225466 7.99771603,4.34416195 10.4203979,4.30799852 C10.5821866,4.30531974 10.7702486,4.22897472 10.8214126,4.14593276 M19.7505135,3.76286414 C20.3202123,3.18603573 20.4840982,3.11250596 21.3958763,3.0301019 C22.4416246,2.93628805 22.6965583,3.02629863 23.6239446,3.81610984 C24.2248597,4.33081827 24.113001,4.68959287 23.2350407,5.0724548 C22.779802,5.26895679 22.4234151,5.54405957 22.3739892,5.73802605 C22.3284653,5.91931498 22.2296135,6.06637453 22.1554746,6.06637453 C22.0813357,6.06637453 21.3022272,6.79026249 20.4372736,7.66374551 C18.153276,9.96472039 18.1051508,10.0166983 18.1051508,10.1130477 C18.1051508,10.1574191 17.70324,10.6391659 17.2271904,11.1652841 C16.4090614,12.070461 16.3284191,12.1186357 16.0461711,11.8726913 C15.8770825,11.7281672 15.7418115,11.5075779 15.7418115,11.3795347 C15.7418115,11.2552947 15.6481624,10.9865307 15.5350031,10.7874932 C15.1890217,10.1789709 14.9210812,8.96572964 15.0212337,8.45355672 C15.212434,7.459637 15.269664,7.42794313 17.0750106,7.30243541 L18.7632959,7.18580197 L18.9401886,6.58361847 C19.0364391,6.25907325 19.1170814,5.62266036 19.1170814,5.19415926 C19.1170814,4.50323292 19.196423,4.3244795 19.7505135,3.76286414 M38.9575751,0.0289327077 C38.9120143,-0.0134823344 38.6441718,-0.00800942574 38.3390523,0.0371420707 C37.8447863,0.113762792 35.580551,0.305314595 34.2013004,0.388776452 C33.5206491,0.431191494 30.4528864,1.39168696 30.3714292,1.58871168 C30.3396747,1.6653324 30.1615732,1.7310073 29.9820912,1.7310073 C29.8026091,1.7310073 29.6051788,1.80489157 29.5513342,1.89108988 C29.3539039,2.20988681 27.6557275,2.96241175 27.3754593,2.8543218 C27.219448,2.79411981 26.6685761,2.35902357 26.1660263,1.89929924 C25.6648572,1.44094314 25.1043209,0.933330864 24.9386451,0.78556233 C24.4802755,0.376462408 22.5570561,0.173964787 21.2137019,0.395617588 C19.9587081,0.603588117 18.8293517,1.18097998 17.7552205,2.17020822 C17.0925175,2.78180576 17.023486,2.8036974 16.4035825,2.60119978 C16.0446184,2.4862687 15.5296429,2.27966639 15.2645617,2.14831659 C14.9967193,2.01559855 14.2083788,1.86509356 13.4918312,1.8117327 C12.7752835,1.75700362 12.1374319,1.67901467 12.0587359,1.63386317 C11.9731367,1.58597522 11.8723507,1.62565381 11.807461,1.7310073 C11.7494745,1.82951966 11.3780847,1.86919824 10.9832241,1.81994207 C10.5869829,1.77068589 9.93532498,1.81857384 9.52389686,1.92666379 C9.11937189,2.03201728 8.40420489,2.1893634 7.95688035,2.2700888 C6.63009369,2.50952856 5.71197389,2.92683784 5.03546456,3.59590093 C4.69582927,3.93248481 4.27749799,4.21707606 4.12286729,4.21707606 C3.96133343,4.21707606 3.83569598,4.29096033 3.83569598,4.385368 C3.83569598,4.48388036 3.67416212,4.60565258 3.46016427,4.67406393 C2.98798838,4.82456892 1.65982108,6.22289708 0.994356807,7.27232732 C-0.100483798,8.99218887 -0.311720384,11.7450619 0.462813765,14.1941885 C0.821777897,15.3311853 0.892190093,15.4269612 1.66810487,15.8100648 C2.35980114,16.1534898 2.6359274,16.1972731 3.38699082,16.0850785 C4.73586758,15.8839491 6.5776297,15.2463552 8.18882641,14.4267872 L9.65781809,13.6797351 L9.65781809,15.214886 C9.65781809,16.654261 9.69233387,16.7951884 10.2017868,17.4259411 C11.2331184,18.7038653 12.8512182,20.3731024 13.0610742,20.3731024 C13.1770472,20.3731024 13.4297027,20.5413944 13.6078042,20.7370509 C13.9018786,21.0585842 13.9350138,21.3760129 13.8949755,23.5063426 C13.8701241,24.8376277 13.7734799,26.1100789 13.679597,26.3563598 C13.5843335,26.6040089 13.5650046,26.887232 13.6340362,26.9966901 C13.836989,27.3154871 14.2166626,30.1723454 14.2221851,31.4160639 C14.2249464,32.0741811 14.3064036,32.6529412 14.4058091,32.711775 C14.5052145,32.7706088 14.5839105,33.0319402 14.5839105,33.2973762 C14.5839105,33.5655488 14.7343993,34.1675687 14.9249264,34.6656034 C15.1154535,35.1622699 15.3225482,35.903849 15.3957217,36.3512593 C15.6083389,37.6647573 17.0027765,40.306804 17.9885472,41.2672995 C18.4717682,41.7379696 18.8707706,42.1963257 18.8749125,42.2893652 C18.880435,42.3837728 18.7175206,42.6355266 18.5159484,42.8503383 C18.259151,43.1226155 18.1224685,43.5508706 18.0603401,44.2787675 C18.0106373,44.8465817 17.9347026,45.4171325 17.8891418,45.5389047 C17.8449616,45.6620451 17.8573873,46.1162965 17.9195157,46.5596021 C18.1514617,48.2397851 20.2458794,49.7037882 22.7531058,49.9391232 C24.3477349,50.0896282 24.8489041,49.9774336 25.1139853,49.4178287 C25.2824223,49.0648261 25.2617128,48.9457903 24.9924897,48.7077188 C24.8130077,48.5517409 24.5520683,48.4244958 24.4015795,48.4244958 C24.2566132,48.4244958 23.8286175,48.2206299 23.4696534,47.9811902 C23.1120699,47.7403822 22.7337769,47.5365163 22.6467972,47.5365163 C22.4231349,47.5365163 21.3973259,45.7605575 21.3945646,45.3706127 C21.393184,45.1927432 21.4677381,44.9122566 21.5630016,44.73986 C21.6568845,44.5674634 21.7756188,44.2185655 21.8308441,43.9503929 C21.9385333,43.4222572 22.3775741,43.1171426 23.3274484,42.9078038 C23.8797009,42.7887681 23.9901514,42.8489701 25.0118186,43.8258843 C25.6192963,44.4101173 26.1908777,44.872578 26.3013282,44.872578 C27.5549414,44.8630005 28.7367617,44.1597317 28.7367617,43.4195208 C28.7367617,42.9639011 27.9663695,41.6900817 27.3575111,41.1400543 C26.4090174,40.2821759 25.0118186,39.7554084 23.6491355,39.7485673 C22.9684843,39.7444626 22.2450335,39.8333974 22.0365581,39.945592 C21.8294635,40.0591549 21.4732606,40.1713495 21.2399339,40.1959776 C21.0066072,40.2206057 20.678017,40.367006 20.5054381,40.5229839 C20.209983,40.7925246 20.1699447,40.7542143 19.8151224,39.8662348 C19.6066471,39.3422038 19.3125726,38.3748672 19.1524194,37.6825443 C18.9964081,37.0025354 18.6719597,35.6767233 18.4372524,34.7545382 C17.3631213,30.5294527 17.2140131,29.2816295 17.3092766,25.254937 C17.36036,23.0890333 17.4804749,21.3568578 17.5936867,21.1447825 C17.7013759,20.9463896 17.8090652,20.4264633 17.828394,19.9995764 C17.9236576,18.0649032 19.1137617,14.6539129 19.9587081,13.8945468 C20.1561383,13.7194137 20.3176722,13.4868151 20.3176722,13.3773569 C20.3176722,13.269267 20.7649967,12.667247 21.3200105,12.0282849 C21.8681211,11.3989004 22.755867,10.3426291 23.276365,9.70229877 C24.1696335,8.60224412 25.695231,7.41325472 26.2115871,7.41325472 C26.3399858,7.41325472 26.6768599,7.23264873 26.9640312,7.0096277 C28.2438764,6.01903124 28.5945567,5.77685503 29.937911,4.95865518 C30.742819,4.46746163 31.8542272,3.93658949 32.4368536,3.76419287 C33.0098156,3.5945327 33.6062483,3.41529494 33.7539758,3.37014344 C34.449814,3.15396355 41.4385695,3.19774682 42.7101309,3.42624076 C43.4460074,3.55759057 44.4400619,3.71493669 44.9053347,3.77240223 C45.371988,3.831236 45.7972225,3.94753531 45.8455446,4.02962894 C45.8952473,4.1130908 46.401939,4.23896769 46.974901,4.31285196 C47.9233946,4.42915127 49.7472086,5.00517491 50.5217427,5.43206178 C50.7122698,5.53741527 51.2562386,5.78916907 51.7574077,6.00124428 C52.2585769,6.21468772 52.7956424,6.50748833 52.9751245,6.66757091 C53.1559872,6.82628526 53.4956225,6.97815848 53.7468974,7.01236416 C54.373704,7.09856247 56.0497904,7.88392486 56.3383423,8.22871811 C56.4695023,8.38469601 57.0065678,8.78695479 57.5256852,9.11669754 C58.0461832,9.44644029 58.6177645,9.8952188 58.7889628,10.1018211 C58.9560192,10.3056869 59.2915126,10.6532166 59.5055105,10.8475049 C59.7208889,11.0417932 59.9086548,11.2867058 59.9086548,11.3729041 C59.9086548,11.5671924 60.6721439,12.3826558 60.8585291,12.3867605 C61.0269661,12.3894969 62.1080004,13.1297078 62.2833406,13.35957 C62.3565141,13.4580823 62.4172618,13.6975221 62.4172618,13.8918103 C62.4172618,14.5458229 62.8107417,14.8618834 63.7606161,14.9754463 C64.6028011,15.0753268 64.6966841,15.0438576 65.3276326,14.4541517 C65.7045449,14.0984126 66,13.7590923 66,13.6797351 C66,13.2651623 65.2296077,12.0693318 64.764335,11.7628489 C64.4592155,11.5603513 64.1789473,11.1922981 64.1154383,10.9104434 C63.8821116,9.86238134 58.9794899,5.45942633 58.0461832,5.45942633 C57.8984556,5.45942633 57.5256852,5.2213548 57.2219463,4.92855419 C56.9168268,4.63438535 56.5578627,4.39494559 56.4239414,4.39494559 C56.2927815,4.39494559 55.7073938,4.12950952 55.1344318,3.80797614 C54.5614698,3.48781098 53.7206654,3.11838965 53.280244,2.99388097 C52.8329195,2.86389939 52.3745499,2.6778205 52.2502931,2.57383523 C52.1246556,2.46984997 51.9796894,2.43427606 51.9189416,2.49447806 C51.8595744,2.55331183 51.471617,2.43017138 51.0588083,2.22220085 C50.1627786,1.77205412 48.9450618,1.43547023 48.0490321,1.39168696 C47.8874982,1.3834776 47.622417,1.25075957 47.4843539,1.1112004 C47.3145363,0.936067318 46.6780652,0.806085738 45.6398305,0.737674379 C44.761749,0.677472384 43.8822869,0.562541302 43.6696697,0.479079445 C43.4584331,0.396985815 42.3263154,0.276581825 41.1610626,0.213643375 C39.9971905,0.150704925 39.0017553,0.0658748412 38.9575751,0.0289327077" id="Fill-5" fill="#EC6D6C"></path>
                <path d="M48.5966788,9.38041917 C49.0485715,9.61726987 49.5199905,9.80920061 49.6552793,9.81464545 C49.7891735,9.82009029 50.6413539,10.3291832 51.546534,10.9458117 C54.6595728,13.0665783 55.507569,13.6028954 56.5591958,14.1133495 C57.1575353,14.400565 57.9957684,15.3084927 58,15.6705748 C58.0055315,16.0421853 57.5187705,16.453271 56.6679848,16.8044634 C55.8004624,17.1611007 55.3011488,17.0399529 54.8380983,16.3579863 C54.6344676,16.0585199 54.3848108,15.7917225 54.2620745,15.7440801 C54.0779701,15.6732972 53.0667904,14.9450493 49.6817792,12.4472273 C49.139229,12.0470313 48.2926275,11.3296732 47.8184191,10.8655003 C47.1308169,10.1957845 46.9620545,9.91673627 47.0066859,9.52334632 C47.0820013,8.87404872 47.5478414,8.83185118 48.5966788,9.38041917" id="Fill-7" fill="#EC6D6C"></path>
                <path d="M35.7950289,10.1236778 C35.8704432,10.2003589 35.9999042,10.2565918 36.0966858,10.2565918 C36.1934674,10.2565918 36.382003,10.4470166 36.5290607,10.6949523 C36.6736046,10.9390539 37.3963243,11.8144969 38.1504665,12.6592674 C40.5612078,15.3648336 42.0606939,16.6415746 42.8248914,16.6415746 C43.0184546,16.6415746 43.3678738,16.8562818 43.6318236,17.137446 C44.0352897,17.5681383 44.0717399,17.6908282 43.9108562,18.0512295 C43.2258437,19.5771842 41.0627124,19.2244509 39.1220531,17.2665259 C38.1278422,16.264559 36.2676247,13.9321744 36.016244,13.3736801 C35.9194624,13.1589729 35.7912582,12.9928304 35.7221285,12.9928304 C35.6555126,12.9928304 35.4405821,12.4701206 35.2482758,11.8400573 C34.9767846,10.945444 34.9390775,10.609325 35.0811076,10.339663 C35.2646156,9.99076381 35.572557,9.89619041 35.7950289,10.1236778" id="Fill-9" fill="#EC6D6C"></path>
                <path d="M32.1653105,16.2710495 C34.7823662,19.2554302 36.7004748,20.8285921 37.7249192,20.8285921 C38.0271666,20.8285921 38.4107883,21.0055047 38.6679892,21.2599868 C39.0850325,21.6750511 39.0893919,21.7104337 38.7915038,22.1350241 C38.3352265,22.7841575 37.800481,22.9869266 36.4999453,22.9991744 C35.1064103,23.0155048 34.7271479,22.8059314 32.6724467,20.8898311 C30.9752113,19.3044214 30.0088914,17.6414423 30.0001727,16.2887408 C29.9958134,15.5647597 30.0728283,15.3334123 30.3619977,15.1850779 C30.5697928,15.0802911 30.7993846,15 30.8909307,15 C30.9795706,15 31.5462845,15.5647597 32.1653105,16.2710495" id="Fill-11" fill="#EC6D6C"></path>
                <path d="M67.4784409,16.3076543 C68.0772299,16.6028059 68.3155968,16.9608138 69.6797444,19.5652533 C70.0976044,20.3632557 70.3460229,21.1257306 70.6762902,22.6151529 C70.7624469,23.0045891 70.8414239,24.2808464 70.8514755,25.4518876 C70.8600911,26.6215624 70.916093,27.7912372 70.9720948,28.0494948 C71.0309686,28.3159511 70.993634,28.5714758 70.88881,28.6343322 C70.785422,28.698555 70.7021372,29.4596635 70.7021372,30.3451182 C70.7021372,32.1720518 70.5671584,33.0397428 70.1765814,33.7680567 C70.0258071,34.0495438 69.7788246,34.6904054 69.6309223,35.186424 C69.1326494,36.8534839 68.5022696,37.9179426 67.683781,38.4809169 C66.8265219,39.0643879 66.1932702,39.1586724 65.8357199,38.7501061 C65.5801217,38.4576874 65.626072,38.1119774 66.1803467,36.1456667 C66.3914306,35.4009555 66.5651799,34.6330148 66.5651799,34.4594766 C66.5651799,34.2818391 66.6613882,33.7858204 66.7805717,33.3417266 C66.8997551,32.9003657 67.0189385,32.2294424 67.0505293,31.8345405 C67.0806842,31.4451044 67.1553533,30.8479691 67.215663,30.5063584 C67.6019322,28.3077524 67.6407027,27.5452775 67.4942363,25.026924 C67.319051,22.0125518 67.1094031,20.64201 66.7116463,19.9013981 C66.5723597,19.641774 66.3167615,19.1402896 66.1559356,18.8027783 C65.9936739,18.465267 65.6619706,17.8735974 65.4293475,17.5005586 L65,16.8173374 L65.5226839,16.3923738 C66.1300886,15.8936222 66.6025145,15.8758585 67.4784409,16.3076543" id="Fill-13" fill="#EC6D6C"></path>
                <path d="M22.7967095,20.0226741 C23.0289536,20.0584245 23.2598152,20.2179263 23.3261706,20.3829282 C23.3897613,20.546555 24.1224359,21.6768177 24.9601733,22.9088316 C26.3204597,24.906729 28.3581246,27.128754 29.683851,28.0582645 C30.09719,28.3470177 30.1068669,29.1967773 29.7032046,29.5597814 C29.5221096,29.7220332 28.9857365,29.8952851 28.4825411,29.9557858 C27.6392741,30.056162 27.5480353,30.0245366 26.9577484,29.4429051 C26.0799213,28.5738953 24.3519151,26.504497 23.887427,25.7633637 C23.2501384,24.7458522 22.3349863,22.9652072 22.2382179,22.5513276 C22.1801569,22.3065748 22.0861534,21.6946929 22.0308572,21.1955623 C21.9175,20.1959261 22.1041247,19.9112979 22.7967095,20.0226741" id="Fill-15" fill="#EC6D6C"></path>
                <path d="M23.2490127,28.426543 C24.4138062,30.5134911 25.5308004,32.1864067 26.2012485,32.8466209 C26.6415052,33.2816349 27,33.7823905 27,33.9628304 C27,34.4775737 26.4465344,34.8790175 25.5974679,34.9769306 C24.6502869,35.0832362 24.1458785,34.8300609 23.7609684,34.052351 C23.6087653,33.744624 23.4565623,33.4690686 23.4100209,33.4173145 C23.3647373,33.3669592 23.0955518,32.8004618 22.8074981,32.1472415 C22.1584339,30.6771459 21.8263545,28.9272986 22.0917664,28.3719914 C22.3383102,27.8530518 22.9446066,27.8824258 23.2490127,28.426543" id="Fill-17" fill="#EC6D6C"></path>
                <path d="M43.4156309,38.2958982 C43.5211462,38.4399522 43.7079203,38.6823508 43.8146484,38.8167088 C44.1069378,39.1823844 44.0499353,40.2004584 43.6691101,41.4595458 C43.2385594,42.8793088 42.9984212,43.2990046 42.3701809,43.7283964 C41.7407279,44.156403 40.6952779,44.0663693 40.2804937,43.5441735 C40.0415684,43.2435993 39.9954813,42.8793088 40.0003325,41.3515053 C40.0088223,39.0688033 40.091294,38.7114386 40.7025548,38.3194455 C41.3465617,37.9052902 43.1184903,37.8900537 43.4156309,38.2958982" id="Fill-19" fill="#EC6D6C"></path>
                <path d="M44.4959,30.0366685 C44.9167785,30.1592084 45.1404529,30.9724281 44.9035433,31.5182879 C44.6944276,31.9941249 43.958552,32.4190362 43.3351754,32.4190362 C43.0625309,32.4190362 42.3306259,32.5718133 41.7085728,32.7580103 C40.4485844,33.1367702 40.1521166,33.0890273 40.0224119,32.4858761 C39.9032954,31.9384249 40.2659391,31.3145851 40.9449034,30.897631 C41.8210718,30.3597283 43.8857586,29.8584285 44.4959,30.0366685" id="Fill-21" fill="#EC6D6C"></path>
                <path d="M38.8695711,81.5397999 L64.5322217,81.5397999 L64.5322217,107.140763 L54.3605872,107.089091 C57.1484963,104.652886 56.9664199,103.440041 53.8143581,103.450555 C53.3888999,103.451974 52.2140984,101.858545 51.7219758,101.904402 C51.0713264,101.965031 50.4675967,105.163751 49.3991161,105.521157 C47.0148331,106.318698 42.5103987,105.851429 40.986026,105.074722 C38.5058391,99.4260215 37.8003541,91.5810474 38.8695711,81.5397999 Z" id="Rectangle" fill="#FFFFFF" transform="translate(51.459329, 94.340282) rotate(-27.000000) translate(-51.459329, -94.340282) "></path>
                <path d="M29.0842045,56.6702399 C28.8093623,57.043207 28.3050268,57.7313383 27.9367382,58.2322979 C27.0957209,59.3759721 26.3467758,60.7467297 26.3467758,61.1430933 C26.3467758,61.3123736 26.0279588,61.8023231 25.6308117,62.2509847 C25.0096682,62.9473736 23.6725607,65.350328 23.6725607,65.7673356 C23.6725607,65.8485351 23.3894732,66.4651007 23.0349267,67.1614896 C22.3808022,68.4469189 21.9012025,69.6662875 21.8943314,70.0709087 C21.891583,70.2016537 21.7321745,70.5195703 21.5370365,70.7865653 C21.0546883,71.4444188 20.3538406,73.5005551 19.6653608,76.2682192 C19.3465438,77.5550247 19.0071136,78.788156 18.9040478,79.0372595 C17.7771946,81.7512494 16.602244,86.9782947 16.9815263,87.5907315 C17.0433658,87.6911987 17.0090105,87.912777 16.9059447,88.0916911 C16.8028788,88.2664765 16.6049924,89.0192921 16.4689455,89.7528401 C16.3301502,90.4932693 15.9728552,91.770441 15.6705288,92.6085849 C15.1414574,94.0743046 15.0122816,94.3935975 14.4708424,95.5551631 C14.332047,95.8551884 14.1080506,96.4318424 13.9637584,96.8598601 C13.8194663,97.2878777 13.4388097,97.9581176 13.102128,98.3778777 C12.5826762,99.0233449 11.9120611,100.216565 11.1328833,101.877713 C11.0243206,102.110302 10.8016984,102.360782 10.6189283,102.458496 C10.4457777,102.54933 10.2987371,102.779165 10.2987371,102.95808 C10.2987371,103.141123 10.187426,103.520971 10.0513791,103.807234 C9.79165315,104.349481 9.38626084,105.252309 8.58234728,107.074481 C8.29925977,107.717196 8.01067541,108.262196 7.936468,108.297978 C7.8622606,108.332385 7.80316951,108.476893 7.80316951,108.620024 C7.80316951,108.760403 7.70422631,109.054923 7.58741835,109.270996 C7.37578982,109.660478 6.40147407,112.360706 5.93149383,113.860832 C5.79269849,114.306741 5.56595364,115.377473 5.42166146,116.272044 C5.2787435,117.165238 5.1083413,118.015769 5.03825653,118.19193 C4.95030701,118.40938 5.01214652,118.541501 5.243014,118.629582 C5.42440989,118.695642 5.8669059,118.981905 6.22420082,119.261286 C6.79175005,119.705819 7.00887543,119.769127 7.91860326,119.753988 C8.49164934,119.744354 10.4677651,119.81592 12.3050855,119.915011 C15.3901897,120.07741 15.7090067,120.126955 16.4235965,120.548092 C16.8523504,120.799948 17.415777,121.003635 17.6809998,121.003635 C17.9434741,121.003635 18.5192686,121.21145 18.9480225,121.464683 C19.7134582,121.911968 21.9712872,122.652397 22.1210763,122.503761 C22.1595542,122.465226 22.4866164,122.553306 22.8425371,122.700567 C23.2589231,122.871223 24.1178052,122.977195 25.2240452,122.992334 C28.2596778,123.037751 28.7007996,122.940036 34.2828456,121.033913 C36.3853888,120.315503 36.7756647,120.241185 38.2048444,120.301741 C42.0388937,120.46414 44.5413324,120.373306 46.0323516,120.019607 C46.2412317,119.971438 47.1207268,119.857208 48.0125899,119.762246 C50.3666138,119.513142 51.8425166,118.875933 53.237341,117.513433 C53.8969624,116.866589 54.3422068,116.280302 54.3422068,116.055971 C54.3422068,115.597675 53.1356494,112.931855 52.307,111.556968 C51.9730667,111.003711 51.5594291,110.14217 51.3821558,109.627448 L51.0619646,108.699847 L50.517777,108.932436 C50.2209474,109.056299 49.3936722,109.306779 48.6983213,109.476059 C46.5930297,109.993534 46.3635365,108.834721 45.1528564,107.411665 C43.862472,105.890895 42.3700786,104.502246 41.0549585,102.963585 C40.9257826,102.81082 40.7691226,102.50116 40.6976636,102.253433 C40.5547456,101.759355 39.4828609,99.5559585 37.8131942,96.3231177 C37.2222834,95.1794435 36.6519857,93.9958576 36.5406746,93.6806935 C36.3249235,93.0682566 36.3853888,93.054494 34.871008,94.0715521 C34.3185751,94.4403904 33.6507084,94.7528021 33.407473,94.7528021 C32.6599021,94.7528021 32.0593718,94.4307566 31.8381238,93.9132819 C31.7240643,93.6435344 31.5303005,93.2870824 31.4203636,93.1453273 C31.3076783,92.9980673 30.9462607,92.2342415 30.6178243,91.4483956 C30.2893878,90.6611734 29.9279702,89.9001002 29.8152849,89.7528401 C29.7025996,89.6042037 29.4854742,89.1610471 29.334311,88.7688123 C29.1817735,88.3765775 28.8368465,87.5742164 28.5675011,86.9824235 C28.2981557,86.3947593 28.0700366,85.8304917 28.0617914,85.7341533 C28.0315587,85.3611861 25.3587179,79.9813757 24.9904293,79.5547343 C24.8612534,79.4047216 24.6345086,78.9932191 24.4751001,78.6161232 C24.2002578,77.9734085 24.2043805,77.9252393 24.5603012,77.4297848 C25.2721426,76.4333707 27.064114,76.5531055 27.2125288,77.608699 C27.2468841,77.8591787 27.3375821,78.0931434 27.4172863,78.1440651 C27.4956164,78.1936106 27.9903324,79.0716661 28.5221521,80.1066156 C29.0553461,81.1429413 29.5734237,82.1434842 29.6819864,82.3389135 C29.7905491,82.5398478 30.0324103,83.05457 30.2261741,83.5018554 C30.4158152,83.9381306 30.7758585,84.7501255 31.0190939,85.2868679 C31.2623293,85.8236104 31.5151842,86.47183 31.5742753,86.7168048 C31.7034511,87.2342795 32.451022,88.1453654 32.7492259,88.1453654 C32.860537,88.1453654 32.9567318,88.2788628 32.9718481,88.457777 C32.9855902,88.6284335 33.010326,88.9917668 33.0254423,89.2615143 C33.0391844,89.527133 33.231574,89.9923098 33.4445767,90.2785724 C33.6575795,90.564835 33.8362269,90.9611986 33.8362269,91.1456178 C33.8362269,91.6630925 34.0272423,91.7277769 34.5315778,91.382335 C35.0317907,91.0410218 36.2039929,90.4671203 36.4046277,90.4671203 C36.4719641,90.4671203 36.8759822,90.2290269 37.2868713,89.9482693 C37.7005089,89.6661355 38.4906804,89.3000497 39.0252485,89.144532 C39.5598167,88.9876381 40.5588682,88.5320951 41.2184896,88.1453654 C41.878111,87.755883 42.6009461,87.4310851 42.8057036,87.4310851 C43.0173321,87.4310851 43.4557055,87.2549235 43.8130004,87.0292164 C44.1702953,86.8021331 44.6017977,86.5420194 44.8024325,86.4305422 C44.9989447,86.3218174 45.1844632,86.1057442 45.2160701,85.9460977 C45.273787,85.6625876 43.6714567,82.3237746 42.2024249,79.6620827 C41.7695483,78.8762368 41.1415338,77.6706308 40.8089747,76.9838757 C40.4709187,76.2874869 40.0339196,75.4961359 39.8209168,75.1974869 C39.4443829,74.6676258 38.9936417,73.7689263 37.2428966,70.0543936 C36.8883501,69.3015779 36.1902508,67.4271083 37.3226008,66.9522977 C38.2927939,66.544924 39.2533676,68.7414391 39.4567508,69.3937875 C39.5350809,69.6442673 39.7302189,70.0365022 39.8992469,70.286982 C40.062778,70.5264517 40.3417429,71.0976006 40.505274,71.5269946 C40.6688051,71.9550122 41.0508359,72.5646966 41.3352976,72.8495829 C41.6252562,73.1413506 42.190057,74.0372975 42.6009461,74.8589263 C43.0104611,75.6805551 43.4034855,76.3012495 43.4831897,76.251704 C43.5601456,76.2021586 43.6755793,75.8567167 43.7346704,75.5016409 C43.8542268,74.768093 44.6416498,72.4078026 44.9961963,71.7155425 C45.3081422,71.1072345 45.7836193,69.585088 45.7836193,69.196982 C45.7836193,68.5872977 46.1766437,68.0106436 46.8541299,67.6294189 C47.6195655,67.1958962 48.1252752,67.283977 48.7148119,67.9459593 C49.0652357,68.3395704 49.0652357,68.3395704 48.566397,69.8039138 C47.9589957,71.5903026 47.0918684,74.1074869 46.8307683,74.8410349 C46.7235798,75.1410601 46.5737908,75.6984465 46.4885897,76.1085727 C46.4047628,76.5076889 46.0488421,77.3320702 45.7025409,77.9197343 C45.3576138,78.5101509 45.0704037,79.0537747 45.0704037,79.118459 C45.0704037,79.1817671 45.2504254,79.4831686 45.4799186,79.805214 C45.7107861,80.124507 45.9883768,80.7699741 46.11343,81.2695574 C46.2384832,81.7677645 46.5092028,82.4765397 46.7277024,82.8770322 C47.0423968,83.4481811 47.2279153,83.5926887 47.655295,83.5981937 C47.9809831,83.6036988 48.5471581,83.8679412 49.099591,84.2698099 C49.5998039,84.6303907 50.101391,84.9304159 50.2140763,84.9304159 C50.32951,84.9304159 50.7142892,84.6716786 51.0880746,84.3399993 C51.4591117,84.0152013 52.2740189,83.379368 52.9157756,82.9196963 C53.5589064,82.4600246 54.2858642,81.927411 54.5469643,81.7251004 C54.8080644,81.5227898 55.3673684,81.2062494 55.7961223,81.0177014 C56.223502,80.8319059 56.9078592,80.4369186 57.3201225,80.1355171 C58.0154734,79.6304287 58.0608224,79.5423479 57.9591308,78.9120196 C57.8464454,78.2238883 57.4259368,77.1627899 56.9449629,76.3590525 C56.7979223,76.1127015 56.5217058,75.591098 56.3306905,75.1974869 C56.1383009,74.8024995 55.585868,73.7069945 55.0911519,72.7422344 C54.5978101,71.7788506 54.2281473,71.0012622 54.2625026,71.0012622 C54.2968579,71.0012622 54.0082735,70.3571714 53.6207459,69.5727017 C53.2332184,68.7868557 52.9157756,68.1042295 52.9157756,68.0533078 C52.9157756,67.9734845 52.671166,67.5551007 50.3281358,63.625871 C49.7647092,62.6776261 49.2273926,61.8931564 49.14494,61.8931564 C49.0583647,61.8931564 48.9924025,61.7858079 48.9924025,61.6426766 C48.9924025,61.2366792 48.5650228,61.1664898 45.6407014,61.0811615 C44.1249464,61.0357448 42.8304394,60.9614266 42.7521094,60.9132575 C42.5940751,60.8141665 40.505274,60.3283459 39.5776814,60.1728282 C39.2409997,60.1164014 38.4453314,59.8810605 37.78571,59.6429671 C37.1260886,59.4034974 36.4499767,59.2149494 36.2617097,59.2149494 C36.074817,59.2149494 35.6721731,59.0594317 35.3698467,58.8763888 C35.066146,58.6892171 34.4958483,58.431856 34.1041981,58.3066161 C32.8921438,57.9226388 30.4487963,56.487197 30.4487963,56.1610227 C30.4487963,56.0743182 30.2426646,56 30.0117971,56 C29.7094706,56 29.4250089,56.2064394 29.0842045,56.6702399" id="Fill-31" fill="#FBE2E2"></path>
                <ellipse id="Oval" fill="#FFFFFF" cx="65.5" cy="92.5" rx="2.5" ry="1.5"></ellipse>
                <path d="M26.2306806,149.183135 C26.7637687,148.963089 26.7637687,148.963089 27.0568346,149.275412 C27.1947479,149.423055 27.3790744,149.556502 27.4520093,149.562181 C27.6960099,149.576377 28.8616428,151.651902 28.9783387,152.280806 C29.0804476,152.83163 28.8019688,153.954571 28.5526639,153.995741 C28.495642,154.004259 27.9161408,154 27.2464654,153.982964 C26.5807683,153.967348 24.6048945,153.936116 22.8319125,153.909143 C19.8548409,153.866553 19.5684055,153.831062 18.8655779,153.430721 C18.4359248,153.183702 18.0327935,152.79046 17.9333368,152.519307 C17.567336,151.522714 17.3511834,150.707836 17.3511834,150.327371 C17.3511834,150.104486 17.2782484,149.891539 17.1801178,149.826235 C16.9732478,149.689949 16.9294868,149 17.1284003,149 C17.2026613,149 17.5408142,149.088018 17.8683584,149.188813 C19.3999921,149.672913 21.4700183,149.907155 22.4619334,149.712663 C23.0096085,149.60477 23.9856106,149.481261 24.6221337,149.44293 C25.2586568,149.40176 25.985354,149.28393 26.2306806,149.183135 M43.4915982,144.233145 C43.9252053,144.101089 44.3713203,143.99622 44.4755527,144.000105 C44.5770057,144.003989 44.9939356,144.360023 45.3858497,144.78079 C45.7777637,145.200263 46.4531901,145.697416 46.864561,145.868312 C47.7303853,146.229525 48,146.577791 48,147.333878 C48,147.770181 47.9207833,147.869871 47.5038534,147.955319 C47.2342388,148.009695 46.8854075,148.093848 46.7380922,148.139162 C46.1363234,148.323005 44.4116235,148.549572 43.1316488,148.611716 C42.3922931,148.647967 41.4806064,148.768371 41.120657,148.879712 C40.6689829,149.018242 40.074163,149.036367 39.2277953,148.937973 C38.5426406,148.858998 37.8477574,148.811095 37.6670878,148.830515 C37.2084649,148.881007 37.0625395,148.34113 37.0291851,146.478101 L37,144.829987 L38.4245104,144.829987 C40.1742262,144.829987 42.4006317,144.568464 43.4915982,144.233145 M18.0126887,125.91383 C17.955439,124.185342 17.9791767,124 18.2584433,124 C18.4315887,124 18.7206297,124.111205 18.9189091,124.256733 C19.1088104,124.395397 19.4453268,124.520331 19.6436061,124.523077 C19.8432818,124.528569 20.1002072,124.613689 20.1965542,124.707046 C20.5582045,125.055764 23.4220845,125.37977 26.4116344,125.407228 C27.9336379,125.42233 28.0844419,125.453907 27.9699425,125.735353 C27.9001259,125.905593 27.7688705,127.134343 27.6795052,128.452333 C27.5901398,129.770322 27.4714515,131.54137 27.4169945,132.370605 C27.3625375,133.20945 27.2368675,134.283063 27.1363315,134.775936 C27.0357955,135.266063 26.9143144,136.103535 26.8640464,136.637596 C26.8151748,137.171656 26.7034681,137.73592 26.6154991,137.893804 C26.4591097,138.173877 26.091874,139.924331 25.9759784,140.940281 C25.9466554,141.195642 25.874046,141.634972 25.8140037,141.919163 C25.752565,142.2061 25.664596,142.792331 25.614328,143.238525 C25.56406,143.68472 25.459335,144.395885 25.3783476,144.842079 C25.300153,145.275917 25.2470923,146.035134 25.2610556,146.497803 C25.2861896,147.283105 25.241507,147.376463 24.7262599,147.641433 C24.0406602,147.99427 19.6896851,148.134307 18.5474844,147.841878 C18.1425477,147.740283 17.4527589,147.571415 16.9807982,147.461583 C16.1834918,147.274868 16.1318275,147.226816 16.0298951,146.544482 C15.9684565,146.140848 16.0047611,145.429683 16.1108825,144.929945 C16.2156075,144.438445 16.3817712,143.36346 16.4823072,142.525987 C16.5828432,141.688515 16.7406289,140.768668 16.8355795,140.468002 C16.9319266,140.165963 17.0073286,139.747227 17.0073286,139.523443 C17.0073286,139.301032 17.1162426,138.909754 17.2516869,138.64341 C17.3871313,138.377067 17.5463133,137.697479 17.6049593,137.127723 C17.6650016,136.557967 17.792068,135.999194 17.8870186,135.881125 C17.9819693,135.763055 18.1160173,134.475269 18.185834,132.995277 C18.2556507,131.516658 18.336638,130.282416 18.3673574,130.234364 C18.3966804,130.184939 18.345016,129.62754 18.248669,128.986393 C18.1537183,128.352111 18.047597,126.964103 18.0126887,125.91383 M41.8674385,122.342333 C42.7345638,122.268128 43.956247,122.1472 44.5677309,122.072994 C45.6673742,121.943821 45.6866436,121.946569 45.7932679,122.412417 C45.8536455,122.680382 45.8613533,122.997818 45.8099681,123.144855 C45.7585829,123.286396 45.8009757,123.456795 45.9011768,123.52413 C46.1786569,123.709644 45.8395146,128.608601 45.285839,132.424703 C45.1278296,133.513055 44.9865202,134.545065 44.9685354,134.742947 C44.949266,134.943578 44.879896,135.295368 44.8105259,135.545469 C44.7411559,135.7887 44.657655,136.757498 44.6255392,137.686444 C44.5947081,138.611268 44.5600231,139.467383 44.549746,139.575944 C44.5214842,139.871393 42.8347649,141.180988 42.1847421,141.409102 C41.8751463,141.516288 41.2007155,141.644087 40.7009944,141.688061 C40.2012734,141.73066 39.1594384,141.819982 38.4092144,141.884569 L37.0333757,142 L37.0089677,141.491553 C36.9948368,141.207097 36.997406,140.8663 37.0166755,140.716514 C37.0359449,140.566729 37.0423681,140.083017 37.0333757,139.619918 C37.0243833,139.163689 37.1374307,138.058847 37.2838785,137.169752 C37.4303264,136.276534 37.584482,135.002668 37.6255901,134.341686 C37.6666983,133.683453 37.7360683,132.854822 37.7784611,132.514025 C37.9339013,131.264894 38.2537742,128.123515 38.2846053,127.521624 C38.3025902,127.179452 38.1355883,125.970173 37.9172011,124.846092 C37.6975294,123.722012 37.5035503,122.674885 37.4855655,122.527848 C37.4521651,122.247515 37.5998975,122.237896 39.4510494,122.402797 C39.9070931,122.441274 41.0003132,122.413791 41.8674385,122.342333 M48.3173199,87.3733128 C48.974119,86.783465 49.9059526,86.9165134 49.911426,87.60393 C49.9141626,87.9705522 50.795368,89.6366135 53.2611011,93.9325975 C53.6688638,94.6421889 54,95.3044741 54,95.4094345 C54,95.5158732 53.7331754,95.6016155 53.4129859,95.6016155 C53.0927963,95.6016155 52.7301885,95.7080542 52.6138804,95.8337109 C52.4907305,95.9667593 52.3744224,96.0303269 52.3347408,95.9859774 C52.1979076,95.8277977 50.6079066,92.8593407 50.341082,92.2635796 C50.1974072,91.9413069 49.8566927,91.2686735 49.5953414,90.7867427 C49.3353585,90.3077686 48.9344374,89.5626977 48.7168727,89.156161 C48.5020447,88.7540593 48.2188001,88.2573453 48.1038602,88.0829041 C47.9273455,87.8108941 47.9615538,87.6941072 48.3173199,87.3733128 M30.0110929,56 C30.2433339,56 30.4480908,56.0756933 30.4480908,56.1610202 C30.4480908,56.4871894 32.8914316,57.9226089 34.1034825,58.3093327 C34.4951316,58.4331944 35.0654277,58.6891753 35.3705017,58.8763441 C35.6728274,59.0607604 36.0754701,59.2148994 36.2609881,59.2148994 C36.4492546,59.2148994 37.1253646,59.4048207 37.7849841,59.6429104 C38.4459779,59.8837526 39.2402698,60.1163374 39.5783248,60.1741395 C40.5045406,60.3282786 42.5933358,60.8140917 42.7513697,60.9145573 C42.8310737,60.9613495 44.1255771,61.0356665 45.6413278,61.0824587 C48.5656412,61.1664094 48.9930197,61.237974 48.9930197,61.6439651 C48.9930197,61.785718 49.0576074,61.894441 49.1441825,61.894441 C49.2280092,61.894441 49.76395,62.6788985 50.3287493,63.6257524 C52.6703987,67.5549211 52.9163818,67.9732984 52.9163818,68.0544966 C52.9163818,68.1040413 53.2324495,68.7866569 53.619976,69.5738669 C54.0075025,70.3583244 54.296086,71.001029 54.2617309,71.001029 C54.2273757,71.001029 54.5970375,71.7786053 55.0917521,72.7419741 C55.5850926,73.7067192 56.137524,74.8022072 56.329913,75.1971884 C56.522302,75.5921696 56.7985177,76.113765 56.9441837,76.358736 C57.4251563,77.1624608 57.8456638,78.2235428 57.9583488,78.9116634 C58.0614143,79.5419818 58.0160655,79.6300613 57.3207165,80.1351418 C56.9070801,80.4365386 56.2227248,80.8315198 55.7953463,81.0186886 C55.3679678,81.2058574 54.8086654,81.5223929 54.547566,81.7260766 C54.2850924,81.9270078 53.5581367,82.4609894 52.9163818,82.920654 C52.2732528,83.3803185 51.4583478,84.0147657 51.088686,84.3409349 C50.7135274,84.6712328 50.3287493,84.9299661 50.2146901,84.9299661 C50.1020051,84.9299661 49.5990452,84.6313218 49.1002079,84.2693703 C48.5464023,83.8675079 47.9802288,83.6046458 47.6559159,83.5991409 C47.2271632,83.5922597 47.0416452,83.4491306 46.7283259,82.8779905 C46.5084527,82.4775043 46.2377339,81.7687401 46.112681,81.2705408 C45.9890023,80.769589 45.7100382,80.1268844 45.4791714,79.8048439 C45.2496787,79.4828035 45.0696576,79.1827829 45.0696576,79.1180996 C45.0696576,79.0534162 45.3582411,78.509801 45.7031672,77.9207697 C46.0480932,77.3317385 46.4053872,76.5087463 46.4878396,76.1096363 C46.5730405,75.6981402 46.7228291,75.1407625 46.8300172,74.8407419 C47.0911167,74.1085816 47.9596157,71.5900602 48.5670154,69.8064516 C49.0644785,68.3407548 49.0644785,68.3407548 48.7140556,67.9471498 C48.1245206,67.2838015 47.6201865,67.1970983 46.8533788,67.6292381 C46.1758945,68.0118331 45.7828712,68.587102 45.7828712,69.1967768 C45.7828712,69.5848768 45.3073954,71.1083758 44.9954504,71.7152982 C44.6422791,72.4075475 43.853484,74.7691774 43.733928,75.5013377 C43.6762113,75.8577842 43.5607778,76.2032207 43.482448,76.2513892 C43.4041182,76.3009338 43.0110949,75.6802491 42.6002069,74.8586331 C42.1893189,74.0370171 41.6258938,73.1410841 41.3345619,72.8493209 C41.0501009,72.564439 40.6694455,71.9561404 40.5045406,71.5281294 C40.3410099,71.0987421 40.0620458,70.527602 39.8985151,70.2867598 C39.7294876,70.0362839 39.5343502,69.6440552 39.4573945,69.3935793 C39.2540119,68.7426172 38.2934409,66.54476 37.3218763,66.9521274 C36.1895294,67.4283069 36.8890009,69.3013711 37.2421722,70.0541751 C38.9929124,73.76865 39.4436525,74.6673355 39.8215595,75.1971884 C40.0331874,75.4958327 40.4701854,76.2871714 40.8082404,76.9835495 C41.1421728,77.6702938 41.7688114,78.8758811 42.2030609,79.6630911 C43.6720886,82.3233653 45.2730403,85.6635027 45.2166978,85.9483846 C45.185091,86.1052761 44.9981988,86.3227222 44.8016871,86.4314453 C44.6010528,86.5429208 44.1695517,86.8016541 43.813632,87.0287339 C43.4563381,87.2544375 43.0165917,87.4305964 42.8049638,87.4305964 C42.6015811,87.4305964 41.8773738,87.7553893 41.2177542,88.1448655 C40.5581347,88.5329656 39.5590859,88.9885014 39.0245192,89.1440166 C38.4899525,89.3022844 37.6997833,89.6656121 37.2861469,89.9477415 C36.8766331,90.2284947 36.4712419,90.4665844 36.4039057,90.4665844 C36.2032714,90.4665844 35.0310725,91.040477 34.5322352,91.3817848 C34.0279011,91.7272214 33.8355121,91.662538 33.8355121,91.1450713 C33.8355121,90.9620313 33.6568651,90.5656738 33.443863,90.2794156 C33.2308608,89.9917812 33.039846,89.5279879 33.0247297,89.2609972 C33.0096134,88.9926301 32.9862519,88.6279262 32.9711356,88.4572723 C32.9560193,88.2783609 32.8598248,88.1448655 32.748514,88.1448655 C32.4516852,88.1448655 31.7027422,87.2351701 31.5749409,86.7177034 C31.5144758,86.4727325 31.2616216,85.8231467 31.0183869,85.2891651 C30.7751522,84.7510548 30.4151099,83.9404487 30.2254692,83.502804 C30.031706,83.0541494 29.7912197,82.5394352 29.6812831,82.3398802 C29.5727207,82.1430777 29.0546445,81.1439266 28.5228263,80.107617 C27.9896338,79.0726836 27.4962933,78.1932655 27.4165893,78.1437208 C27.3368853,78.0941761 27.2461876,77.8588389 27.2118324,77.608363 C27.0647922,76.5541622 25.2714516,76.4344292 24.5596121,77.4308279 C24.2050666,77.9262747 24.200944,77.9744431 24.4744113,78.6171478 C24.6351935,78.9928616 24.8619378,79.4043577 24.989739,79.5557443 C25.3580266,79.9837553 28.03086,85.3607296 28.0624668,85.733691 C28.070712,85.8327803 28.2974563,86.3942867 28.5668009,86.983318 C28.8361456,87.5751017 29.1824458,88.3760741 29.3336086,88.769679 C29.4861457,89.1619078 29.7032704,89.6036812 29.8159554,89.7523153 C29.9286404,89.8995731 30.2886828,90.6620107 30.6184926,91.4478444 C30.9455539,92.2336781 31.3069705,92.997492 31.4196555,93.146126 C31.5295921,93.2878789 31.7233553,93.6443254 31.8374145,93.9126924 C32.0586619,94.4315353 32.6591905,94.7521995 33.4081336,94.7521995 C33.6513683,94.7521995 34.3178589,94.441169 34.8702902,94.0709601 C36.386041,93.0552941 36.3242017,93.0690565 36.5413264,93.6801076 C36.6526372,93.9966431 37.2229333,95.1802105 37.8124683,96.323867 C39.4821303,99.5552813 40.5540121,101.758643 40.6969296,102.25409 C40.7697626,102.501814 40.9277965,102.816973 41.0583462,102.966983 C41.1888959,103.11837 41.4032722,103.510598 41.5489382,103.869797 C41.69323,104.223491 42.0656402,104.797384 42.39545,105.171722 C42.8654289,105.707079 43.0907989,105.830941 43.5181774,105.785525 C44.1063382,105.724971 44.5845624,105.192365 44.2492558,104.97079 C43.919446,104.751968 43.5580294,103.984025 42.3844563,101.001711 C41.9763167,99.9681536 41.2589804,98.3675851 40.7807563,97.4303649 C39.2938639,94.520991 38.8293818,93.5232161 38.8293818,93.2534729 C38.8293818,93.1186012 38.7043289,92.8997789 38.5614113,92.7841746 C38.0694451,92.3850647 38.2755762,92.0630242 39.3103544,91.6129933 C39.8765278,91.3680224 41.6547522,90.5120004 43.2419617,89.7247904 C44.8291713,88.9375805 46.2446049,88.3292819 46.371032,88.3760741 C46.4988333,88.4256187 46.7035902,88.8591347 46.8258946,89.3408191 C46.9495733,89.8225036 47.1735691,90.452822 47.3261061,90.7432089 C47.4786431,91.0335958 47.9623641,91.9666873 48.4062331,92.8240856 C49.4410113,94.8237641 50.2298064,95.7554793 51.1147959,96.0224701 C51.5243097,96.1477081 51.8472485,96.3665304 51.8994683,96.5564517 C51.9915402,96.8867496 52.4518997,96.9734528 53.6831895,96.8936308 C54.8237817,96.8193138 56.1251561,97.6849695 56.1251561,98.5203479 C56.1251561,99.0474483 55.3047543,99.4520632 54.1284327,99.5071128 C53.540272,99.5332614 52.8655361,99.6818955 52.6305467,99.833282 C51.8541195,100.338363 52.1591935,101.55496 53.4385806,103.057815 C53.6914348,103.352331 54.0528513,103.939986 54.2438662,104.367997 C54.5393208,105.028592 54.554437,105.168969 54.3428091,105.302464 C53.8961917,105.58597 53.4811811,105.489633 53.3492572,105.074008 C53.2791726,104.851057 53.0675446,104.467086 52.8888977,104.234501 C52.7061281,103.996412 52.4821323,103.521608 52.387312,103.162409 C52.0657474,101.966456 50.6571849,101.860485 50.0511594,102.983498 C49.8587704,103.341321 49.9151129,103.467935 51.2068678,105.555693 C51.7702928,106.466765 51.7084535,106.926429 51.0076077,107.036528 C50.7149016,107.081944 50.5499967,106.852112 50.0896372,105.742862 C49.7763179,104.99281 49.5275864,104.3157 49.5275864,104.21661 C49.5275864,103.898698 48.7071846,104.02256 48.2083473,104.414789 C47.6394254,104.863444 47.6325544,105.162088 48.1698695,106.287853 C48.8610958,107.734283 48.8762121,107.88154 48.3512648,108.121006 C48.0832944,108.243492 47.8592986,108.317809 47.8469307,108.287532 C47.4456622,107.324163 46.4947106,105.720842 46.2116239,105.532297 C45.7732518,105.240534 45.1383679,105.394673 44.7302283,105.895624 C44.5131036,106.161239 44.5337167,106.305744 44.8841396,107.037905 C45.4324483,108.181561 46.2377339,109.175207 46.8891082,109.512386 C47.3742034,109.762862 47.5404825,109.76011 48.6989393,109.475228 C49.3942883,109.307326 50.2201869,109.058227 50.5183899,108.931613 L51.0612018,108.699028 L51.3813922,109.627991 C51.5600391,110.141329 51.9723013,111.002856 52.3062337,111.556104 C53.136255,112.930969 54.3428091,115.598125 54.3428091,116.056413 C54.3428091,116.28074 53.8961917,116.867019 53.2365721,117.513853 C51.8417516,118.876331 50.3658529,119.512155 48.0118356,119.761254 C47.119975,119.856215 46.2404823,119.970443 46.032977,120.019988 C44.5405877,120.372306 42.038156,120.463137 38.2054916,120.302117 C36.7749417,120.241563 36.386041,120.314503 34.2821295,121.032901 C28.7014732,122.940372 28.2603527,123.036709 25.2233543,122.992669 C24.1184916,122.976154 23.2596119,122.870183 22.8432271,122.699529 C22.4873074,122.553648 22.160246,122.464192 22.120394,122.504103 C21.9719796,122.652737 19.7127826,121.912319 18.9473491,121.465041 C18.5185964,121.211813 17.9428035,121.002624 17.6803299,121.002624 C17.4151079,121.002624 16.8516828,120.79894 16.4229301,120.548464 C15.7083423,120.127335 15.3895262,120.07779 12.3044305,119.914017 C10.4671152,119.814928 8.49100501,119.74474 7.91796052,119.754373 C7.00823522,119.768136 6.79111045,119.704829 6.224937,119.261679 C5.86764308,118.982302 5.42377409,118.696044 5.24375292,118.628608 C5.01151187,118.541905 4.95104675,118.409786 5.03762181,118.190963 C5.10770639,118.016181 5.27810811,117.165664 5.42239988,116.271107 C5.56531745,115.377926 5.79206167,114.305834 5.93223083,113.859932 C6.40083555,112.359829 7.3751486,109.66102 7.58815075,109.270168 C7.70495837,109.05685 7.8025271,108.759582 7.8025271,108.620582 C7.8025271,108.476077 7.86161802,108.331571 7.93582522,108.297165 C8.01003242,108.262759 8.29861597,107.716392 8.5817027,107.075063 C9.38561402,105.251544 9.79100521,104.348729 10.0507304,103.807867 C10.1867769,103.521608 10.2980877,103.14039 10.2980877,102.95735 C10.2980877,102.779814 10.4465021,102.549982 10.6196523,102.457774 C10.8010476,102.361437 11.0236692,102.109585 11.1336058,101.877 C11.9114072,100.215877 12.5820204,99.0240522 13.1014708,98.3772188 C13.4381516,97.9602177 13.8188071,97.2872358 13.9630989,96.8592248 C14.1073906,96.4312138 14.3313865,95.8545687 14.4715556,95.5545481 C15.0116191,94.3930006 15.1421688,94.0737126 15.6712387,92.609392 C15.9735643,91.7698848 16.3308582,90.492733 16.468279,89.7523153 C16.6043255,89.0187787 16.8022114,88.2687273 16.9052769,88.0925684 C17.0097167,87.9122808 17.0426977,87.6920822 16.9808583,87.5902403 C16.6015771,86.9805655 17.7765244,81.750849 18.9047487,79.0382776 C19.00644,78.7891779 19.3458693,77.5546896 19.6660596,76.2692803 C20.3531633,73.5016593 21.0553833,71.4455549 21.5363559,70.7863354 C21.7328675,70.5193446 21.8909014,70.2028091 21.8936498,70.0720662 C21.9005208,69.6674513 22.3801192,68.4467253 23.0342419,67.1626923 C23.3901616,66.464938 23.6718742,65.8497582 23.6718742,65.76856 C23.6718742,65.3501827 25.0089779,62.9472655 25.6301197,62.2508875 C26.0286398,61.8049854 26.347456,61.3136672 26.347456,61.1443896 C26.347456,60.7466559 27.096399,59.3759196 27.9360397,58.2322632 C28.3043273,57.7326877 28.8100356,57.0459433 29.0835029,56.6716057 C29.4243063,56.2064362 29.7087673,56 30.0110929,56 M67.5650786,39.3329764 C67.3469622,39.5067462 67.1178714,39.9035433 67.0492813,40.2223494 C66.940909,40.7203982 66.9998965,40.8668027 67.4759115,41.289597 C68.0561835,41.8026968 68.0891067,42.4006291 67.8847083,43.1230736 C67.7735924,43.5143977 67.4457319,45.0181222 66.9861784,45.0181222 C66.8887805,45.0181222 66.7996135,44.9633916 66.7241644,44.9018196 C66.1727002,44.4502918 66.0451227,43.5540775 65.3907735,43.2749512 C64.903784,43.0642382 64.2658964,43.3734663 64.1314598,43.8838296 C64.0793314,44.0822282 64.0930494,44.2860998 64.1067674,44.4886032 C64.1588958,45.23294 64.4154227,46.2536666 64.1287162,46.9692698 C64.0203439,47.2415547 63.9654719,47.81349 64.0052541,48.2568082 C64.0999084,49.3035318 63.67465,51.1246941 63.0971216,52.1454207 C62.6540298,52.9253324 61.1532791,54.4701049 60.836393,54.4701049 C60.7582003,54.4701049 60.3946729,54.7807013 60.035261,55.1542379 C59.675849,55.5264063 59.1778851,55.8985747 58.9405635,55.9710928 C58.6963828,56.0463475 58.3081631,56.2775845 58.0584952,56.496507 C57.5358389,56.9576127 56.1901018,57.4228232 54.9623396,57.5651229 C54.4808373,57.6212218 53.9938478,57.745734 53.8758729,57.8442492 C53.757898,57.9427644 53.0665101,58.0508574 52.3188783,58.0836958 C51.5712466,58.1179024 50.9031793,58.1794744 50.8153841,58.2218907 C50.594524,58.3286154 46.8275575,58.2602021 45.1539599,58.120639 C44.3884947,58.0563305 43.5009392,57.8948751 43.2046301,57.766258 C42.9069492,57.632168 42.0920992,57.4789221 41.3979677,57.421455 C40.0988719,57.3119937 39.013777,57.0219212 39.013777,56.7783699 C39.013777,56.6990104 38.7462757,56.5868126 38.4074408,56.5225041 C37.6776425,56.3856775 36.7503048,55.9560419 36.2537127,55.5250381 C36.0602887,55.3581096 35.6130814,55.159711 35.2742465,55.0912977 C34.9258089,55.0242527 34.331819,54.7807013 33.9216504,54.542623 C33.5128536,54.3031764 33.0985695,54.1170922 32.9792228,54.1170922 C32.8626197,54.1170922 32.4990923,53.9145888 32.1780908,53.6710374 C31.8570893,53.4315908 31.5086518,53.2277192 31.4126257,53.2277192 C31.3152278,53.2277192 31.0669317,53.0498446 30.8666487,52.8363951 C30.4880316,52.4354931 30.0956964,52.2110974 28.4220987,51.4489732 C27.9241348,51.221841 27.3589527,50.9659752 27.1408363,50.8674601 C26.9268352,50.7703132 26.6195517,50.738843 26.4645382,50.800415 C26.1078698,50.9386099 25.8074453,51.7540965 25.9473691,52.198783 C26.099639,52.6776762 27.260183,53.9392176 27.5496331,53.9392176 C27.6785824,53.9392176 27.8980706,54.1088826 28.0475969,54.3195956 C28.2986366,54.6794496 28.261598,54.7547042 27.460466,55.5482986 C26.1435367,56.8549928 24.7429275,58.5188044 24.3601949,59.2289346 C24.1695145,59.586052 23.9541417,59.9281186 23.8924106,59.9746396 C23.8265642,60.0238972 23.5961015,60.4535328 23.3670107,60.9529499 C23.1379199,61.4482623 22.8580724,61.955889 22.7318667,62.10503 C22.1474793,62.7960044 19.0115414,69.0284568 18.7138605,70.0943361 C18.5890266,70.5376544 18.2323582,71.6035337 17.9113567,72.4915384 C17.5889834,73.3809114 17.2405459,74.4440542 17.1266864,74.8887407 C17.0141986,75.332059 16.8125438,76.0421891 16.6739919,76.4868756 C16.53544,76.9301938 16.3735674,77.5609645 16.3090927,77.9071359 C16.2432463,78.2546755 16.0059246,78.8471347 15.7658594,79.2576146 C15.5257942,79.6639896 15.3392292,80.1948769 15.3392292,80.4630571 C15.3392292,80.729869 15.2445749,81.11572 15.1279718,81.3332743 C14.9002527,81.7560686 14.339186,84.8127752 14.1773134,86.5176348 C14.1210696,87.1032527 14.0305307,87.7025533 13.9770304,87.8489578 C13.9235302,87.993994 13.731478,88.7205433 13.551772,89.4470927 C13.0867314,91.3462461 12.8329481,92.3149785 12.6669601,92.821237 C12.3596766,93.7612359 10.920657,96.7440561 10.5077448,97.2940991 C10.2704232,97.6142734 9.96039607,98.1643163 9.83007494,98.5009098 C9.69838201,98.8388716 9.4884964,99.2438783 9.36777788,99.3889146 C8.88901921,99.9663229 7.32105026,102.976508 7.05629259,103.828938 C6.93283047,104.225735 6.56930311,105.034381 5.25923282,107.840695 C5.02739839,108.337375 4.836718,108.801217 4.836718,108.869631 C4.836718,108.938044 4.6336914,109.438829 4.39088256,109.971085 C4.14807372,110.503341 3.94641892,111.108114 3.94641892,111.302408 C3.94641892,111.496702 3.85313643,111.834664 3.73927691,112.048113 C3.40592918,112.677515 3.06435065,115.066508 3.0149658,117.125749 C2.97243996,118.848396 3.00536319,119.10563 3.3153903,119.45317 C3.50469888,119.665251 3.74613592,120.090782 3.84764922,120.393168 C4.05753483,121.010256 4.40871598,121.174448 6.52677727,121.6465 C8.36087568,122.055612 8.94937847,122.144549 9.64213815,122.11992 C9.98783209,122.106238 11.155235,122.148654 12.2595351,122.212962 C13.7904655,122.303268 14.2760831,122.389469 14.352904,122.59334 C14.4859687,122.944985 14.8632141,129.500348 14.7891368,130.192691 C14.7575854,130.489604 14.7493546,131.276357 14.7685598,131.9687 C14.7891368,132.656938 14.6821363,134.081303 14.5284946,135.163602 C14.3762246,136.247268 14.2129803,137.433555 14.1635954,137.827616 C14.1155824,138.217572 14.0017229,138.778561 13.9125558,139.070001 C13.7026702,139.762344 13.3638352,142.356577 13.4626049,142.513927 C13.5051308,142.582341 13.3940149,143.163854 13.2197961,143.783678 C13.0469491,144.404871 12.9221152,145.359921 12.9481794,145.870284 C13.1457188,149.778052 13.3706942,151.414499 13.7698884,151.853712 C13.8521965,151.946754 13.9152994,152.175255 13.9152994,152.385968 C13.9152994,152.998951 14.6258925,154.800957 15.1897028,155.617812 C15.8015262,156.505817 16.2651951,156.664536 17.4216236,156.390883 C18.5067185,156.13228 18.5067185,156.13228 19.3791842,156.452455 C20.0993799,156.71653 22.1557101,156.872512 26.4645382,156.991552 C28.7773953,157.054492 29.8542593,156.776734 31.127291,155.787477 C32.349566,154.837901 32.4894897,154.462996 32.1918088,152.936011 C32.0573723,152.243668 31.7734094,151.395343 31.5635238,151.054645 C31.3563818,150.716683 31.1080858,150.270628 31.0202905,150.077703 C30.9283798,149.875199 30.699289,149.578286 30.4866598,149.38536 C30.2726587,149.192434 30.1135298,148.899625 30.1135298,148.701227 C30.1135298,148.508301 29.8460285,148.108768 29.5071936,147.796803 C29.1765895,147.490311 28.7252668,146.855436 28.5112658,146.39433 C28.1710591,145.663676 28.1340204,145.372235 28.2355337,144.218787 C28.2972648,143.490869 28.4317013,142.626125 28.5277274,142.311424 C28.6278689,141.99125 28.7828825,141.218179 28.876165,140.579199 C28.9694475,139.940219 29.1203456,139.028953 29.2136281,138.537746 C29.3069106,138.052011 29.4358599,137.046336 29.4989628,136.319786 C29.5620656,135.590501 29.6786688,134.81743 29.7568614,134.614927 C30.0504269,133.851434 29.8967852,126.235665 29.566181,125.168417 C29.5154244,125.002857 29.6951304,124.896132 30.1039272,124.848243 C30.4482493,124.8113 31.0381239,124.633425 31.4482925,124.444604 C32.0710903,124.161373 34.1301642,123.429351 34.6336153,123.314417 C34.8023468,123.274737 34.9024883,123.570282 35.333234,125.364079 C35.5595812,126.305446 35.5554658,126.395752 35.2577849,126.6653 C34.9011165,126.986843 34.7968596,128.136187 35.0972841,128.434469 C35.1974256,128.53572 35.1905666,128.861368 35.0794507,129.307422 C34.9820528,129.69601 34.8695651,130.495077 34.8297829,131.082064 C34.7913724,131.663577 34.6733975,132.908699 34.5718842,133.832279 C34.4703709,134.755858 34.3482806,135.961301 34.3043829,136.497661 C34.2604853,137.040863 34.145254,138.023278 34.0451125,138.716989 C33.8187653,140.27818 33.8119062,142.266271 34.0259073,143.775469 C34.1150743,144.410344 34.2371647,145.6842 34.2961521,146.606411 C34.3551396,147.529991 34.4347041,148.331795 34.4731145,148.39063 C34.5128967,148.449466 34.3853192,148.736802 34.1973824,149.021401 C34.0080738,149.308737 33.8503167,149.794472 33.8503167,150.09549 C33.8503167,150.713946 34.2426519,150.97939 35.3634136,151.118953 C36.5747142,151.269462 37.9931568,151.533538 38.8354428,151.763407 C39.7422035,152.012431 43.6134269,151.86329 43.9083642,151.569113 C43.9961595,151.482912 44.4063281,151.409026 44.8164967,151.409026 C45.2252935,151.409026 45.7932193,151.288618 46.071695,151.14495 C46.3570296,150.993073 47.0058917,150.882243 47.5573558,150.890453 C48.7494512,150.905504 49.7193148,150.460817 50.5574854,149.509872 C51.0362441,148.968039 51.1706806,148.641023 51.2447579,147.841956 C51.3641046,146.562627 51.0664237,145.689673 50.3160484,145.117738 C49.6754171,144.629267 48.6246173,143.188483 48.6246173,142.798527 C48.6246173,142.675383 48.5011552,142.522137 48.3584878,142.468775 C48.0306273,142.348367 48.1074482,139.780132 48.502527,137.614166 C48.6479379,136.815099 48.7275024,136.006453 48.6781175,135.820369 C48.6301045,135.639758 48.6918356,135.004883 48.8125541,134.43842 C48.9319008,133.869222 49.0594783,133.063313 49.0882861,132.67883 C49.3749926,128.896943 49.5286344,127.207134 49.6630709,126.376596 C49.8125973,125.447544 49.6877633,123.287051 49.4243775,122.256747 C49.3146334,121.82848 49.3557874,121.764171 49.8002511,121.661551 C51.9004789,121.168975 53.5480124,120.382222 54.5343375,119.398439 C54.9541087,118.981118 55.7278047,118.327086 56.243602,117.954918 C57.618147,116.964293 57.5468133,116.488137 55.3533029,112.030326 C54.9568524,111.223049 54.6056712,110.400721 54.2448874,109.581129 C53.74418,108.441363 52.7125853,107.276969 54.5343375,106.926693 C55.0501348,106.828178 55.7387791,106.34518 55.8677285,105.994904 C55.9253441,105.833448 56.0858449,105.62684 56.2079352,105.554322 C56.6318218,105.303929 56.4768083,104.361194 55.8128564,103.135227 C55.4644189,102.496247 55.1104941,101.746437 55.0336732,101.485098 C54.9047239,101.04999 54.9445061,100.993891 55.4603034,100.884429 C56.671604,100.6313 58.3081631,99.3711271 58.4892408,98.5556405 C58.619562,97.9686543 58.218996,96.7262686 57.8993663,96.7262686 C57.7964812,96.7262686 57.7031987,96.6277535 57.7031987,96.522397 C57.7031987,96.4074626 57.4891977,96.0421355 57.2134656,95.6877546 C56.9377335,95.3333737 56.5687189,94.8093277 56.3684359,94.4891534 C56.1681529,94.1689792 55.8594976,93.6955591 55.6633301,93.4054867 C53.3340113,89.9615607 51.3641046,86.3383919 51.7043113,86.1208376 C51.8181708,86.0483195 52.0609797,85.901915 52.2201086,85.8088729 C52.3860966,85.7103578 53.5384097,85.0289612 54.766172,84.3024119 C58.5399975,82.066665 58.0996493,82.2691684 58.3808685,82.6468099 C59.026987,83.5170271 62.5086188,89.4771945 62.5086188,89.7139046 C62.5086188,89.8562042 62.5881833,89.9793482 62.6787222,89.9793482 C62.7720047,89.9793482 62.8913514,90.1216479 62.9462235,90.2995225 C63.108096,90.8249367 63.8269199,91.0643833 64.6993856,90.8892452 C65.8558141,90.6580082 66.9985247,90.6689543 67.4937449,90.9234518 C67.8627595,91.1136408 67.9409522,91.2928837 67.956042,91.9852264 C67.9656446,92.4654878 67.9066572,92.774716 67.8133747,92.7145122 C67.7242076,92.6556768 67.0835763,92.8869138 66.3716114,93.2371899 C65.6596465,93.5874661 64.8365657,93.9610027 64.5210514,94.0759371 C63.9874207,94.2674943 63.5703931,95.0049898 63.8447533,95.2745382 C63.9037408,95.3320054 64.4853846,95.360739 65.1438492,95.3415833 L66.3359446,95.3060083 L67.2646541,97.0628621 C68.2852743,98.9989587 68.3716978,99.3697588 67.8668749,99.6858283 C67.4553345,99.9430624 67.3469622,99.8349693 66.8860369,98.6787844 C66.374355,97.4008238 66.126059,97.0122362 65.6418131,96.7331099 C65.2467343,96.5059778 65.1260158,96.5114508 64.5567182,96.7809993 C63.8090865,97.1326437 63.6225215,97.4911294 63.9119716,98.0220167 C65.5677358,101.058199 65.6815954,101.34143 65.3221834,101.534356 C65.0533103,101.676656 64.8996686,101.62603 64.5827825,101.289436 C63.8502405,100.508156 63.3989179,99.6365707 63.3989179,98.9989587 C63.3989179,98.6076346 63.267225,98.2587267 63.0436213,98.0575916 C62.7267352,97.7729922 62.6073885,97.7620461 61.9667573,97.9522351 C61.4674216,98.0986396 61.1916895,98.301143 61.0750864,98.6076346 C60.8130723,99.2849263 60.843252,99.3889146 61.7212048,100.84475 C62.1697839,101.590455 62.4921572,102.29648 62.4290543,102.400468 C62.3673233,102.498984 62.038091,102.585184 61.7170894,102.585184 C61.2012921,102.585184 61.0929198,102.507193 60.9159574,102.007776 C60.8020979,101.68897 60.463263,101.177238 60.1546077,100.863905 C59.4920276,100.187982 58.7690883,100.100413 58.2368294,100.634037 C57.8636994,101.004837 57.7608143,101.776539 58.0584952,101.959887 C58.1600085,102.022827 58.3575479,102.300585 58.5125615,102.602972 C58.7622293,103.083233 58.7622293,103.173539 58.5221641,103.508764 C58.3191375,103.791995 58.2999323,103.965765 58.4425996,104.235313 C58.6140748,104.563697 58.7704601,104.582853 60.3919293,104.485706 C61.3521903,104.426871 62.2260277,104.333828 62.313823,104.281834 C62.4029901,104.228472 63.0436213,104.10396 63.7555863,104.005445 C64.4675512,103.906929 65.2467343,103.686639 65.5087484,103.508764 C65.766647,103.333626 66.6116767,102.871152 67.3771418,102.488037 C68.142607,102.103555 68.9478544,101.584982 69.15774,101.342799 C69.3703692,101.095142 69.7544736,100.759917 70.020603,100.587516 C70.4829001,100.290602 70.6804395,99.6871966 70.3772714,99.4983759 C70.3004505,99.44775 70.2510657,99.0605307 70.2702709,98.6527874 C70.2963351,98.1013761 70.1975654,97.7538365 69.9053717,97.3652489 C69.344305,96.6195439 68.9176748,95.7520631 68.9176748,95.3593707 C68.9176748,95.1746548 69.2290737,94.7272318 69.6022036,94.3728508 C70.1399498,93.8652241 70.3512072,93.4766365 70.580298,92.5722126 C71.0521977,90.7072658 70.9863512,90.0272375 70.2702709,89.3362631 C69.6899989,88.7793788 69.558306,88.734226 68.3483772,88.7013876 C67.6350405,88.6822319 66.8064725,88.6534983 66.5142788,88.6384474 C66.2234569,88.6247647 65.6061463,88.6015042 65.1616826,88.585085 C64.3495762,88.5590879 64.33723,88.5522466 63.7377528,87.484999 C63.4030333,86.893908 62.7130172,85.7623519 62.1972199,84.9632845 C61.6814226,84.164217 61.2630232,83.4253533 61.2630232,83.3117872 C61.2630232,83.1968528 61.112125,82.9724572 60.9159574,82.7973191 C60.7280207,82.6290224 60.4509168,82.1405514 60.310993,81.7328081 L60.0530944,80.9775251 L60.6676614,80.4890541 C61.1477919,80.1086761 61.2547924,79.9157506 61.1615099,79.6106272 C61.0257016,79.167309 60.0270302,77.5486501 59.7320929,77.2927844 C59.6154898,77.1915327 59.3822835,76.6633819 59.2190392,76.1311264 C58.8568836,74.9557858 58.6003568,74.3906919 57.8829046,73.2016686 C57.5865956,72.710461 57.0968625,71.7991958 56.7868354,71.1615837 C56.4768083,70.5212352 56.0392036,69.7796349 55.8073692,69.5018769 C55.5727912,69.2172775 55.3889698,68.8505822 55.3889698,68.6658662 C55.3889698,68.4879916 55.3107771,68.2923296 55.2202382,68.2389672 C55.1269557,68.1856048 54.8553391,67.7244991 54.6152738,67.2086628 C54.3738368,66.6941947 53.971899,66.0880528 53.7153721,65.8513428 C53.4670761,65.621474 53.2530751,65.302668 53.2530751,65.1590001 C53.2530751,65.0139639 53.0500485,64.6267446 52.8086114,64.3065703 C52.5658026,63.986396 52.362776,63.66759 52.362776,63.606018 C52.362776,63.5417095 51.9608382,62.9752473 51.4738487,62.3540545 C50.9868592,61.7314934 50.5835496,61.1882917 50.5835496,61.1554533 C50.5835496,61.1226149 51.2420143,61.0446237 52.0431463,60.9871566 C53.7332055,60.8640126 57.0008364,60.2414515 57.7923658,59.8911754 C59.6223488,59.0811618 61.1381893,58.3860826 62.6883248,57.0588644 C63.6911116,56.2009615 64.8928096,55.2582262 65.6130053,54.1335114 C66.9944093,51.9730191 67.3579366,50.8674601 67.5390144,48.2745957 C67.5705658,47.81349 67.6967715,47.5959357 68.0273757,47.4303755 C68.2715563,47.3085998 68.8367385,46.8926469 69.2825739,46.5081641 C69.9177179,45.9594894 70.2126552,45.5065933 70.6502599,44.4037707 C71.215442,42.9807739 71.0878645,41.819116 70.3237711,40.4946343 C70.1536678,40.2018254 69.9341796,39.8939655 69.6803963,39.6367314 C69.1028679,39.0470087 68.3442618,38.7104153 67.5650786,39.3329764" id="Fill-23" fill="#EC6D6C"></path>
                <path d="M60.2653355,40.0483789 C60.4275358,40.1149949 60.6754053,40.3575775 60.8136183,40.5850772 C61.0329314,40.9470658 61.0466385,41.1971898 60.9175636,42.5181966 C60.8364634,43.3490106 60.7690703,44.0792722 60.7690703,44.1333191 C60.7690703,44.1861091 60.5029247,44.4236641 60.1762396,44.662476 C59.4943128,45.1589533 59.1504938,45.1199893 58.5165419,44.463885 C58.2629611,44.2024489 58.0824847,43.805267 58.0242296,43.3804332 C57.8860167,42.3711388 58.3646218,40.4857818 58.8123861,40.2796494 C59.3458196,40.0332961 59.9809138,39.9314868 60.2653355,40.0483789" id="Fill-25" fill="#EC6D6C"></path>
                <path d="M53.731835,46.2276715 C54.1415632,46.5628321 54.105027,46.7275478 53.4604227,47.4179213 C52.8680131,48.0524348 52.5248331,48.1555611 52.1907872,47.7888897 C51.8723996,47.439406 51.9493868,47.0440884 52.4452362,46.488352 C52.9410856,45.929751 53.2855705,45.8610001 53.731835,46.2276715" id="Fill-27" fill="#EC6D6C"></path>
                <path d="M45.411817,50.3512686 C45.568463,50.558805 45.6657351,50.8202775 45.8160647,51.0325041 C46.1836775,51.550759 46.8178411,51.8532698 47.4557946,52.0185955 C48.1215401,52.1897837 48.821394,52.2108891 49.5111417,52.179231 C50.3600619,52.1358477 50.6581946,51.7946437 51.3390994,51.4288167 C51.8343029,51.1626541 52.3762475,50.9926383 52.7438603,51.5155833 C53.097577,52.0174229 53.0849443,52.4465661 52.705962,52.7772175 C52.2057055,53.2145683 50.0998274,53.8582831 48.8378165,53.9602926 C47.6692879,54.0540944 47.5922282,54.0388516 45.5267749,53.2614692 C44.6386932,52.9284729 43.9464189,51.6445608 44.0032663,50.7815843 C44.0323216,50.3266456 44.2306556,49.9502659 44.8016556,50.0053744 C45.0972617,50.033515 45.2766467,50.1730452 45.411817,50.3512686" id="Fill-29" fill="#EC6D6C"></path>
            </g>
        </g>
    </g>
</svg>