<?xml version="1.0" encoding="UTF-8"?>
<svg width="69px" height="71px" viewBox="0 0 69 71" version="1.1" xmlns="http://www.w3.org/2000/svg" xmlns:xlink="http://www.w3.org/1999/xlink">
    <!-- Generator: Sketch 61 (89581) - https://sketch.com -->
    <title>img-leaf-set3</title>
    <desc>Created with Sketch.</desc>
    <g id="Page-1" stroke="none" stroke-width="1" fill="none" fill-rule="evenodd">
        <g id="200318_kodomonooka-ver2" transform="translate(-954.000000, -5718.000000)" fill="#7ED6DC">
            <g id="Group-6" transform="translate(954.000000, 5718.000000)">
                <path d="M67.8915,9.6514 C67.7305,9.5474 67.2265,9.4554 66.7565,9.4424 C66.0625,9.4244 65.7965,9.5184 65.2635,9.9704 C64.9015,10.2774 64.0635,10.8314 63.3705,11.2204 C62.6775,11.6114 61.9205,12.0614 61.6625,12.2384 C61.3985,12.4174 61.0425,12.5694 60.8435,12.5894 C60.6585,12.6064 60.4075,12.7244 60.3145,12.8374 C60.2185,12.9534 59.7135,13.2074 59.2065,13.3924 C58.3395,13.7134 58.2735,13.7134 58.2435,13.3924 C58.2245,13.2074 58.3485,12.9234 58.5115,12.7764 C58.6745,12.6294 58.9815,12.0764 59.1815,11.5694 C59.3805,11.0634 59.7095,10.4304 59.8985,10.1894 C60.7875,9.0544 62.9065,5.0884 63.1265,4.1464 C63.2125,3.7834 63.2535,3.2204 63.2195,2.8744 C63.1735,2.3914 63.0645,2.2384 62.7325,2.1904 C62.5045,2.1574 62.1295,2.2144 61.9295,2.3124 C61.3755,2.5834 58.9435,5.1294 58.9705,5.4104 C58.9835,5.5404 58.9245,5.6574 58.8445,5.6654 C58.6405,5.6844 57.9445,6.4174 57.9605,6.5934 C57.9685,6.6774 57.7555,6.9944 57.4695,7.3244 C57.1835,7.6544 56.9705,7.9714 56.9785,8.0554 C56.9865,8.1364 56.6895,8.5534 56.3185,8.9804 C55.9485,9.4084 55.6525,9.8404 55.6625,9.9434 C55.6835,10.1654 55.0425,10.9944 54.9265,10.8944 C54.6405,10.6484 54.0755,6.5194 53.8595,3.0934 C53.7945,2.0704 53.6695,1.3674 53.5315,1.2534 C53.4075,1.1504 53.2925,0.9204 53.2755,0.7344 C53.2345,0.3104 52.4845,-0.0796 51.8945,0.0144 C51.6365,0.0554 51.2635,0.2944 51.0475,0.5564 C50.8295,0.8214 50.5895,1.0314 50.4955,1.0404 C50.2615,1.0634 49.8555,2.7314 50.0285,2.9584 C50.1045,3.0574 50.0835,3.2804 49.9855,3.4214 C49.8625,3.5974 49.9025,4.6844 50.0995,6.5384 C50.2645,8.0934 50.4095,9.6764 50.4185,10.0364 C50.4735,12.0974 50.4425,13.9244 50.8295,15.9474 C51.0295,16.9904 51.4545,18.8434 50.0025,19.6054 C49.9285,19.6444 49.8765,19.8464 49.8945,20.0324 C49.9125,20.2174 49.8405,20.3934 49.7435,20.4024 C49.6315,20.4134 49.5645,20.4874 49.5745,20.5884 C49.5825,20.6784 49.3935,21.1304 49.1555,21.5834 C48.8135,22.2344 48.6995,22.3394 48.6215,22.0754 C48.5685,21.8924 48.4435,21.6684 48.3485,21.5864 C48.0755,21.3504 47.9565,19.7514 48.1925,19.4664 C48.3465,19.2784 48.3375,19.2274 48.1525,19.2454 C47.9745,19.2624 47.9145,19.0344 47.9275,18.3784 C47.9365,17.8874 47.9465,16.9804 47.9485,16.3624 C47.9505,15.7444 47.9895,15.1084 48.0355,14.9494 C48.2045,14.3544 47.9645,11.9974 47.6555,11.2214 C47.3805,10.5364 47.2495,10.4174 46.6935,10.3464 C45.6505,10.2144 44.8175,10.3374 44.5505,10.6604 C44.4225,10.8164 44.2085,11.9854 44.0775,13.2534 C43.8355,15.5734 43.8195,15.8804 43.7785,18.6944 C43.7665,19.5564 43.7145,20.3204 43.6635,20.3804 C43.6135,20.4424 43.6585,20.5784 43.7615,20.6804 C43.9285,20.8454 44.1175,21.6014 44.4955,23.6254 C44.5545,23.9374 44.6855,24.3014 44.7855,24.4304 C44.8865,24.5614 45.0195,24.9884 45.0835,25.3944 C45.1495,25.7994 45.3005,26.2044 45.4255,26.3064 C45.5455,26.4064 45.6705,26.7134 45.6955,26.9734 C45.7205,27.2334 45.8455,27.5414 45.9655,27.6404 C46.1295,27.7754 46.1455,27.9324 46.0225,28.2244 C45.9285,28.4504 45.8825,28.9134 45.9185,29.2844 C45.9545,29.6554 45.9015,29.9504 45.7965,29.9604 C45.6985,29.9694 45.6235,30.1084 45.6385,30.2564 C45.6525,30.4054 45.5785,30.5434 45.4795,30.5524 C45.3805,30.5624 45.3145,30.7844 45.3375,31.0254 C45.3625,31.2754 45.1715,31.9304 44.9165,32.4804 C44.6615,33.0294 44.4645,33.6654 44.4815,33.8894 C44.4975,34.1124 44.4165,34.4524 44.3035,34.6364 C43.9995,35.1304 43.4885,35.1464 43.4415,34.6644 C43.4205,34.4504 43.2145,33.9834 42.9865,33.6304 C42.7535,33.2734 42.4255,32.6274 42.2465,32.1754 C42.0675,31.7254 41.8495,31.2804 41.7565,31.1744 C41.6635,31.0704 41.3375,30.1474 41.0335,29.1284 C40.4515,27.1804 40.0295,26.5914 39.1085,26.4394 C38.6435,26.3624 37.7945,26.8004 37.3415,27.3494 C37.0885,27.6574 37.3045,29.2254 37.8605,31.1014 C38.0225,31.6474 38.2355,32.4354 38.3295,32.8354 C38.4255,33.2384 38.5585,33.6024 38.6235,33.6444 C38.8305,33.7784 39.3525,34.9834 39.3955,35.4284 C39.4185,35.6714 39.5665,36.0584 39.7355,36.3234 C39.8945,36.5744 40.2025,37.0644 40.3995,37.3824 C40.5955,37.7014 40.7885,38.2194 40.8165,38.5044 C40.8445,38.8004 40.9535,39.0734 41.0635,39.1264 C41.1735,39.1784 41.2855,39.4794 41.3175,39.8134 C41.3495,40.1474 41.5525,40.5944 41.7815,40.8364 C42.1885,41.2644 42.4855,42.5434 42.2135,42.6944 C42.1355,42.7384 42.0055,43.5864 41.9265,44.5674 C41.7595,46.6434 41.4005,48.8114 41.2045,48.9224 C41.1375,48.9614 41.1015,49.2634 41.1265,49.5794 C41.1525,49.8934 41.0815,50.3124 40.9735,50.4914 C40.4855,51.2944 38.1765,47.4294 37.8975,47.0664 C36.2525,44.9224 34.6475,42.7494 33.0835,40.5464 C32.5305,39.7674 31.9335,38.9454 31.0475,38.5874 C30.1625,38.2294 28.9185,38.5904 28.7095,39.5224 C28.6485,39.7974 28.6815,40.0834 28.7275,40.3604 C29.2145,43.3164 31.0245,45.8864 33.0475,48.0944 C34.7035,49.9024 36.4385,51.6684 38.1465,53.4244 C39.3505,54.6644 40.2935,54.8124 40.1635,56.5734 C40.1095,57.3094 39.9545,58.0294 39.8155,58.1994 C39.6435,58.4074 39.6065,58.7624 39.6985,59.3154 C39.7715,59.7574 39.7655,60.1324 39.6845,60.1404 C39.4845,60.1604 39.5865,60.9364 39.8305,61.2504 C39.9515,61.4054 39.9505,61.7154 39.8275,62.1024 C39.7225,62.4314 39.6975,62.9334 39.7735,63.1944 C39.8525,63.4674 39.8445,63.6834 39.7555,63.6924 C39.6695,63.7004 39.6555,64.4324 39.7245,65.3054 C39.7925,66.1794 39.7665,67.0054 39.6655,67.1284 C39.4645,67.3724 39.4875,68.2134 39.6945,68.1924 C39.7735,68.1844 39.9725,68.4094 40.1235,68.6754 C40.4235,69.2074 41.5805,69.6964 42.3605,69.6214 C43.5475,69.5054 44.8355,68.1674 44.4645,67.4324 C44.4025,67.3074 44.3985,67.1674 44.4565,67.0954 C44.5125,67.0294 44.5045,66.0704 44.4395,64.9714 C44.3745,63.8734 44.3715,62.6704 44.4345,62.3034 C44.4955,61.9424 44.5205,61.3484 44.4875,61.0064 C44.4535,60.6544 44.5325,60.2334 44.6665,60.0524 C44.7995,59.8744 44.9305,59.0154 44.9585,58.1324 C44.9875,57.2504 45.0225,56.1834 45.0375,55.7474 C45.0525,55.3144 45.1725,54.8474 45.3025,54.7144 C45.6535,54.3564 46.7455,54.1364 48.7755,54.0154 C49.3975,53.9784 50.4585,53.8024 51.1715,53.6194 C51.8835,53.4354 52.8205,53.2544 53.2855,53.2094 C53.7495,53.1644 54.3435,52.9814 54.6215,52.7984 C54.9045,52.6144 55.2305,52.4594 55.3655,52.4464 C55.5005,52.4334 55.8275,52.2784 56.1085,52.0934 C56.3905,51.9084 56.7655,51.7494 56.9625,51.7304 C57.1575,51.7124 57.4685,51.5344 57.6555,51.3364 C57.9105,51.0654 58.0205,51.0294 58.0945,51.1904 C58.2405,51.5034 58.5465,51.4464 58.5145,51.1124 C58.4995,50.9604 58.7135,50.7564 58.9865,50.6644 C59.2565,50.5714 59.9435,50.2064 60.4915,49.8634 C61.0385,49.5204 61.5905,49.2234 61.7025,49.2134 C61.8855,49.1944 62.0245,49.0584 63.1045,47.8324 C64.6115,46.1214 63.3215,44.8404 61.2405,45.9824 C60.8845,46.1764 60.3375,46.4874 60.0505,46.6564 C59.7575,46.8294 59.0345,47.1854 58.4415,47.4484 C57.8485,47.7124 57.0825,48.0724 56.7395,48.2504 C56.4005,48.4244 55.9515,48.5624 55.7565,48.5504 C55.5695,48.5394 55.2655,48.6134 55.1175,48.7074 C53.8695,49.4954 51.8175,50.0324 49.0715,50.2914 C46.3615,50.5464 45.6345,50.4254 45.8165,49.7544 C46.1045,48.6964 46.2195,47.9204 46.1695,47.3974 C46.1395,47.0824 46.1665,46.7804 46.2335,46.7024 C46.4275,46.4724 46.6995,45.1734 46.6585,44.6724 C46.5885,43.8234 46.9375,43.5214 48.1245,43.4074 C49.1265,43.3104 50.2115,42.9914 51.0385,42.5504 C51.2355,42.4464 51.8835,42.1824 52.4805,41.9654 C53.5485,41.5784 55.9415,40.5824 56.9825,40.0924 C57.2775,39.9544 57.8445,39.7214 58.2435,39.5764 C61.2455,38.4784 65.3295,36.3624 65.2875,35.9254 C65.2785,35.8284 65.3925,35.7474 65.5595,35.7304 C65.7265,35.7144 65.8785,35.5824 65.9215,35.4154 C65.9615,35.2604 66.1015,35.1164 66.2195,35.1044 C66.5185,35.0764 67.2885,34.0654 67.3925,33.5684 C67.4535,33.2754 67.3365,33.0944 66.9615,32.8984 C66.3115,32.5574 65.2185,32.4804 64.9445,32.7554 C64.2985,33.4054 59.4395,35.4834 54.3695,37.2784 C51.4905,38.2974 50.8645,38.4954 50.4245,38.5194 C50.2015,38.5324 49.9685,38.6364 49.9125,38.7494 C49.8575,38.8634 49.6585,38.9204 49.4665,38.8764 C49.2755,38.8324 49.0795,38.8844 49.0255,38.9944 C48.9275,39.1904 47.6465,39.4184 47.6295,39.2414 C47.6205,39.1524 48.0445,37.8714 48.5385,36.4944 C48.7055,36.0284 48.9075,35.6534 48.9955,35.6444 C49.0795,35.6364 49.1405,35.4994 49.1265,35.3504 C49.1125,35.2034 49.1645,34.9164 49.2385,34.7414 C49.5965,33.8814 49.9845,32.5974 49.9595,32.3484 C49.9465,32.2054 50.0755,31.8034 50.2475,31.4504 C50.4215,31.0964 50.5495,30.6994 50.5375,30.5604 C50.5195,30.3814 50.9455,30.2314 52.0315,30.0324 C52.8595,29.8804 53.7175,29.7384 53.9195,29.7184 C54.1285,29.6994 54.5385,29.5364 54.8585,29.3474 C55.1685,29.1644 56.0225,28.7974 56.7455,28.5384 C57.4655,28.2804 58.7025,27.6524 59.4595,27.1614 C60.2175,26.6714 60.9665,26.2484 61.1035,26.2354 C61.2335,26.2224 61.3465,26.1434 61.3395,26.0724 C61.3315,25.9944 61.7155,25.6934 62.2105,25.3884 C62.7045,25.0844 63.0875,24.7794 63.0795,24.6964 C63.0725,24.6144 63.1865,24.5364 63.3345,24.5214 C63.4835,24.5064 63.6595,24.3774 63.7275,24.2304 C63.7975,24.0824 64.0985,23.8064 64.4155,23.6024 C64.7225,23.4054 65.2915,22.8714 65.6615,22.4334 C66.2325,21.7564 66.3195,21.5314 66.1995,21.0234 C66.1215,20.6944 66.0415,20.3104 66.0245,20.1784 C66.0005,20.0084 65.6955,19.9774 64.9745,20.0724 C63.9245,20.2094 63.5105,20.4294 60.7885,22.3024 C60.0695,22.7974 59.3415,23.2214 59.1845,23.2364 C59.0175,23.2534 58.8195,23.3584 58.7115,23.4884 C58.3955,23.8734 54.4705,25.5274 53.2775,25.7794 C52.1025,26.0284 51.9485,25.9444 52.3585,25.2814 C52.4825,25.0824 52.5825,24.7494 52.5715,24.5774 C52.5585,24.3914 52.6285,24.2444 52.7355,24.2344 C52.8315,24.2244 52.9115,24.1144 52.9005,24.0034 C52.8885,23.8834 53.0785,23.4704 53.3285,23.0714 C53.8525,22.2344 54.1595,21.5244 54.1285,21.2144 C54.1175,21.0924 54.2635,20.8594 54.4535,20.6974 C54.6435,20.5344 54.7915,20.3184 54.7815,20.2154 C54.7315,19.7004 55.5375,18.9314 56.4115,18.6634 C57.7325,18.2554 60.1415,17.1564 62.5995,15.8384 C62.9375,15.6584 63.5075,15.3534 63.8455,15.1734 C64.1845,14.9934 64.6695,14.7034 64.9085,14.5374 C65.1535,14.3674 65.6825,14.0194 66.1055,13.7494 C66.9165,13.2324 68.1765,11.6314 68.1475,11.1534 C68.1375,10.9874 68.1415,10.6304 68.1555,10.3464 C68.1695,10.0644 68.0525,9.7554 67.8915,9.6514" id="Fill-1"></path>
                <path d="M30.7938,19.6573 C30.5538,19.4853 30.1538,19.3343 29.8858,19.3123 C29.3668,19.2713 27.7488,19.9823 26.6988,20.7123 C26.3098,20.9823 25.8708,21.2173 25.7008,21.2453 C25.5358,21.2723 25.3628,21.3793 25.3218,21.4783 C25.2398,21.6763 24.2318,22.1263 23.8568,22.1353 C23.7248,22.1373 23.6428,22.2123 23.6588,22.3143 C23.6758,22.4113 23.2428,22.7103 22.6848,22.9873 C22.1268,23.2643 21.5958,23.5773 21.4888,23.6903 C21.1998,23.9983 18.6698,25.2563 18.1738,25.3393 C17.6588,25.4253 17.6048,25.2553 17.9658,24.6933 C18.1108,24.4683 18.3358,23.9603 18.4778,23.5403 C18.6188,23.1193 18.7778,22.7803 18.8408,22.7703 C18.9008,22.7603 19.1898,22.2293 19.4908,21.5743 C19.7918,20.9203 20.0648,20.3513 20.1078,20.2933 C20.3998,19.8943 21.1188,18.4233 21.0938,18.2733 C21.0748,18.1633 21.1168,18.0533 21.1988,18.0013 C21.2748,17.9513 21.6848,17.2673 22.1218,16.4573 C22.5608,15.6463 23.0328,14.8143 23.1888,14.5783 C23.3428,14.3423 23.5678,13.7593 23.6958,13.2643 C23.8228,12.7703 23.9738,12.2243 24.0338,12.0363 C24.2268,11.4373 24.0278,10.8943 23.4848,10.5353 C22.8158,10.0933 22.7328,10.1073 21.6668,10.8503 C21.0998,11.2463 20.3988,12.0393 19.6968,13.0833 C19.0948,13.9773 18.6148,14.7513 18.6248,14.8113 C18.6358,14.8733 18.4108,15.2633 18.1198,15.6893 C16.8838,17.5033 16.2308,18.5813 16.2608,18.7603 C16.2788,18.8703 16.0998,19.2053 15.8638,19.4973 C15.6218,19.7983 15.2788,20.3223 15.0808,20.6963 C14.4818,21.8233 14.4878,21.8353 13.9508,18.7683 C13.2498,14.7653 12.9048,11.9353 13.0148,11.0813 C13.1458,10.0573 12.8178,9.2173 12.0188,8.5263 C11.5818,8.1483 11.3398,8.0923 10.6598,8.2053 C9.5568,8.3893 9.0388,9.0623 9.1058,10.2223 C9.1318,10.6903 9.1538,11.3593 9.1538,11.7263 C9.1558,13.4273 9.3618,15.9303 9.6318,17.5433 C9.8068,18.5923 9.8578,19.3893 9.7568,19.4783 C9.6318,19.5883 9.6478,19.6853 9.8148,19.8283 C9.9668,19.9573 10.1148,20.6943 10.2448,21.9583 C10.6158,25.5623 11.0568,27.5873 11.5668,28.0303 C11.7928,28.2273 11.7658,28.4313 11.4118,29.2093 C11.1788,29.7203 11.0008,30.2563 11.0218,30.3803 C11.0418,30.5043 10.9278,30.8113 10.7728,31.0463 C10.6198,31.2793 10.4608,31.6653 10.4308,31.8783 C10.3998,32.0913 10.2788,32.3863 10.1688,32.5163 C9.9178,32.8113 9.7788,32.5443 9.3198,30.8823 C8.8518,29.1833 8.1968,27.3083 8.0128,27.1323 C7.9208,27.0453 7.7938,26.6773 7.7358,26.3273 C7.5788,25.3893 6.5378,23.8963 6.0698,23.9383 C5.3618,24.0013 4.7828,24.2123 4.6088,24.4693 C4.0578,25.2843 5.2128,31.9283 6.4578,35.1023 C6.7358,35.8123 7.0928,36.7773 7.2588,37.2743 C7.6238,38.3663 7.9198,38.9833 8.1998,39.2343 C8.3428,39.3613 8.3078,39.5853 8.0968,39.9033 C7.9178,40.1743 7.8108,40.5653 7.8508,40.8043 C7.9218,41.2303 7.8908,41.4023 7.5668,42.3833 C7.4818,42.6423 7.4768,42.9103 7.5558,42.9993 C7.6328,43.0853 7.6248,43.4413 7.5378,43.7963 C7.4498,44.1503 7.3348,44.6463 7.2788,44.9063 L7.1788,45.3773 L6.7058,44.8133 C6.4488,44.5073 6.0288,43.7453 5.7838,43.1433 C5.5398,42.5423 5.2678,42.0493 5.1878,42.0623 C5.1068,42.0763 4.9978,41.8293 4.9448,41.5163 C4.8438,40.9103 4.3088,39.5253 3.9558,38.9613 C3.8378,38.7703 3.5178,38.2783 3.2358,37.8523 C2.9558,37.4273 2.6618,36.9513 2.5758,36.7823 C2.4898,36.6143 2.2558,36.5053 2.0528,36.5383 C1.8508,36.5723 1.6278,36.5333 1.5568,36.4513 C1.3948,36.2633 0.4678,36.6673 0.1208,37.0763 C-0.0632,37.2933 -0.0412,37.6823 0.2198,38.8293 C0.7268,41.0513 1.0638,42.1683 1.3308,42.5173 C1.4628,42.6893 1.6308,43.1673 1.6948,43.5533 C1.7598,43.9393 2.0018,44.5313 2.2208,44.8363 C2.4468,45.1503 2.7138,45.7933 2.8218,46.2853 C2.9308,46.7773 3.1148,47.2533 3.2378,47.3583 C3.3588,47.4633 3.7968,48.1733 4.2108,48.9353 C4.6238,49.6973 5.1308,50.5483 5.3378,50.8253 C5.9928,51.7053 6.2028,52.6843 5.9618,53.7263 C5.8658,54.1393 5.8138,54.6263 5.8458,54.8133 C5.8758,54.9963 5.8438,55.4093 5.7758,55.7043 C5.7078,56.0073 5.6898,56.6633 5.7368,57.1663 C5.7848,57.6683 5.7578,58.1903 5.6768,58.3293 C5.5908,58.4753 5.5838,58.6183 5.6588,58.6723 C5.7308,58.7223 5.7488,58.9223 5.6998,59.1193 C5.5778,59.6143 5.5578,59.9553 5.6128,60.5513 C5.6388,60.8303 5.6078,61.1213 5.5438,61.2053 C5.4808,61.2883 5.4738,61.6333 5.5278,61.9643 C5.5838,62.2953 5.5588,62.6343 5.4738,62.7103 C5.3848,62.7893 5.3788,62.9523 5.4618,63.0903 C5.5378,63.2183 5.5008,63.5463 5.3808,63.7933 C5.2398,64.0833 5.2218,64.6513 5.3318,65.3133 C5.4308,65.9013 5.4358,66.4333 5.3438,66.5133 C5.1298,66.6993 5.2658,67.5113 5.5288,67.6183 C5.6528,67.6693 5.7718,67.9323 5.7968,68.2123 C5.8948,69.3103 5.9978,69.4323 7.1158,69.7643 C8.7468,70.2483 9.5558,70.1883 10.3838,69.5243 C10.8838,69.1233 11.0168,68.9023 10.8818,68.7043 C10.6858,68.4163 10.3408,66.4853 10.4368,66.2083 C10.4708,66.1083 10.4168,65.4653 10.3148,64.7633 C10.2138,64.0623 10.1998,63.3753 10.2838,63.2193 C10.3678,63.0633 10.4308,62.4103 10.4258,61.7503 C10.4198,61.0893 10.4148,60.3803 10.4138,60.1543 C10.4128,59.9283 10.4368,59.5693 10.4678,59.3433 C10.4978,59.1163 10.4768,58.4623 10.4188,57.8673 C10.3608,57.2713 10.3828,56.4183 10.4658,55.9403 C10.5478,55.4733 10.5748,54.8423 10.5258,54.5513 C10.4768,54.2553 10.6168,53.4583 10.8428,52.7593 C11.2948,51.3553 11.6788,51.0423 13.1948,50.8433 C13.6568,50.7823 14.0358,50.6723 14.0238,50.6013 C13.9978,50.4473 14.9698,49.9283 15.8458,49.6293 C16.2388,49.4943 16.7238,49.2383 16.9228,49.0593 C17.1238,48.8783 17.6248,48.6263 18.0558,48.4903 C19.1688,48.1383 22.1828,46.6303 23.0788,45.9753 C25.8238,43.9713 26.3878,43.4443 26.6058,42.6783 C26.8638,41.7643 26.5988,41.3673 25.7288,41.3643 C24.9868,41.3623 23.6038,41.8793 22.8288,42.4473 C22.5758,42.6323 22.2068,42.8083 21.9968,42.8433 C21.7948,42.8773 21.4808,43.0093 21.3168,43.1273 C20.8428,43.4723 19.7958,43.9763 19.1308,44.1793 C18.7888,44.2843 18.2768,44.5053 18.0118,44.6623 C17.7428,44.8213 16.9158,45.1783 16.1868,45.4493 C15.4568,45.7203 14.5298,46.0713 14.1428,46.2203 C12.0478,47.0303 11.9188,47.0553 11.8558,46.6743 C11.8218,46.4723 11.9508,45.9693 12.1418,45.5583 C12.3338,45.1453 12.5198,44.2863 12.5578,43.6363 C12.5958,42.9883 12.6948,42.4003 12.7818,42.3233 C12.8678,42.2473 12.9238,41.8183 12.9048,41.3673 C12.8878,40.9173 12.9218,40.4873 12.9818,40.4103 C13.0418,40.3323 13.7128,40.1503 14.4818,40.0033 C16.1488,39.6853 17.6908,39.1343 18.6728,38.5043 C19.0658,38.2523 19.7128,37.9263 20.1028,37.7833 C20.4938,37.6393 21.0798,37.3263 21.4028,37.0873 C22.5478,36.2403 24.8248,34.7973 25.2148,34.6723 C25.5918,34.5523 26.3988,33.5463 26.8308,32.6613 C27.0668,32.1763 27.0738,31.9593 26.8628,31.5033 C26.5568,30.8363 26.0698,30.6343 25.3548,30.8743 C25.0678,30.9703 24.6738,31.0923 24.4738,31.1463 C24.2748,31.2003 24.0448,31.3483 23.9628,31.4773 C23.8798,31.6053 22.5238,32.3753 20.9408,33.1913 C19.3578,34.0093 17.9168,34.7673 17.7278,34.8833 C17.1788,35.2183 14.7518,36.1013 14.5738,36.0303 C14.4878,35.9963 14.3908,35.8373 14.3658,35.6893 C14.3078,35.3403 14.6568,34.0323 14.9058,33.6723 C15.0028,33.5303 15.0958,33.1673 15.1118,32.8623 C15.1288,32.5563 15.2788,32.1373 15.4468,31.9283 C15.6198,31.7123 15.7308,31.4173 15.7028,31.2513 C15.6758,31.0853 15.8558,30.6903 16.1178,30.3413 C16.3808,29.9923 16.5628,29.6093 16.5368,29.4583 C16.5058,29.2713 16.6088,29.2083 16.8798,29.2453 C17.4018,29.3173 18.8538,29.0693 19.0848,28.8673 C19.1868,28.7783 19.5468,28.6373 19.9088,28.5453 C20.2728,28.4523 20.6268,28.2773 20.7218,28.1443 C20.8148,28.0133 21.1098,27.8723 21.3868,27.8253 C21.6618,27.7793 21.9598,27.6033 22.0578,27.4293 C22.1518,27.2603 22.3698,27.0943 22.5348,27.0663 C22.7038,27.0383 23.4178,26.5823 24.1408,26.0423 C24.8628,25.5023 25.5648,25.0483 25.7188,25.0223 C25.8648,24.9983 25.9818,24.8993 25.9668,24.8103 C25.9508,24.7203 26.4608,24.3753 27.0868,24.0513 C28.2348,23.4573 29.6238,22.3033 30.2728,21.4023 C30.4728,21.1263 30.7838,20.8683 30.9538,20.8403 C31.3948,20.7653 31.2928,20.0133 30.7938,19.6573" id="Fill-4"></path>
            </g>
        </g>
    </g>
</svg>