<?xml version="1.0" encoding="UTF-8"?>
<svg width="86px" height="208px" viewBox="0 0 86 208" version="1.1" xmlns="http://www.w3.org/2000/svg" xmlns:xlink="http://www.w3.org/1999/xlink">
    <!-- Generator: Sketch 61 (89581) - https://sketch.com -->
    <title>img-boy1</title>
    <desc>Created with Sketch.</desc>
    <g id="Page-1" stroke="none" stroke-width="1" fill="none" fill-rule="evenodd">
        <g id="200318_kodomonooka-ver2" transform="translate(-303.000000, -893.000000)">
            <g id="Group-35" transform="translate(303.000000, 894.000000)">
                <path d="M27.9170506,82.1209365 C26.6042554,82.8174915 25.1795566,83.3391315 23.9693398,84.6587565 C21.8545687,86.9657715 20.1210988,89.6195115 18.8735807,92.4906015 C18.3772675,93.6342765 17.8913157,94.8907665 16.833412,95.5521315 C15.8832675,96.1451865 14.6088096,96.1534665 13.7830024,96.9090165 C13.0670265,97.5652065 12.8815566,98.6022765 12.7375325,99.5617215 C12.0433157,104.165402 11.3480627,108.768047 10.6528096,113.370691 C5.13844819,114.591992 0.359749398,119.732837 0.781460241,125.359097 C1.20213494,130.985357 8.00027952,135.497957 12.9530506,132.783152 C12.0008337,136.102397 14.0244241,139.987786 17.2903518,141.114902 C18.4611952,141.519587 19.7397976,141.605492 20.853653,142.148867 C21.9664723,142.691206 22.903147,143.948732 22.4938699,145.116212 C16.8023277,149.750942 15.3071711,158.760617 19.1947855,164.980967 C21.4131711,168.528947 25.2748819,171.848192 24.4708337,175.953002 C23.9517253,178.600532 22.1550506,180.865112 22.1840627,183.681347 C22.2110024,186.307142 23.4025687,189.732991 24.429388,192.127982 C26.0519904,195.916082 31.8088096,201.024842 36.3346892,200.344847 C37.9262072,200.104727 38.6691229,198.184801 38.6048819,196.578482 C38.540641,194.971127 37.9966651,193.354457 38.3448096,191.784362 C41.9164,190.379866 46.3562795,193.958897 45.7345928,197.740787 C45.4828096,199.277762 44.6290265,201.030017 45.6144,202.236827 C46.2132916,202.970642 47.2649783,203.128997 48.2120145,203.133246 C53.3989542,203.154872 58.3651952,199.928776 60.8136048,195.362357 C63.2620145,190.794902 63.2682313,185.099297 61.2114843,180.343471 C60.0147373,177.577952 58.1165205,174.765857 58.7682554,171.823352 C59.4977012,168.534122 62.9895084,166.816022 65.6016289,164.684957 C71.3159663,160.026421 73.4442072,151.468007 70.5782313,144.678407 C69.802159,142.839212 68.6934843,140.768177 69.5887133,138.982801 C70.5906651,136.986287 73.5136289,136.689242 74.7103759,134.801401 C75.313412,133.851271 75.3652193,132.669302 75.6149301,131.571167 C76.330906,128.427872 78.6808819,125.966642 80.5044964,123.306691 C82.3281108,120.646742 83.6771711,117.124637 82.1840867,114.268037 C81.0194602,112.039682 78.4228819,110.847362 77.2302795,108.635567 C75.0170747,104.531791 78.1565928,98.1686115 74.3933157,95.4134415 C73.5882313,94.8234915 72.589388,94.5492165 71.7594361,93.9934215 C69.8943759,92.7431415 69.2291711,90.3760965 68.2479422,88.3568115 C66.863653,85.5095265 64.605894,83.0928015 61.8580386,81.5154615 C60.7338217,80.8706565 59.4541831,80.2900215 58.8480386,79.1442765 C58.0087614,77.5586565 58.8521831,75.5590365 60.1121349,74.2828815 C61.3720867,73.0046565 63.0102313,72.1487115 64.269147,70.8715215 C66.9859181,68.1142815 67.8158699,63.5540715 71.2506892,61.7666265 C72.3510747,61.1942715 73.6151711,60.9800265 74.6865446,60.3579915 C77.498641,58.7247615 78.0840627,54.9521865 78.0467614,51.7022865 C78.0177494,49.1955165 77.7835807,46.6297515 76.7194602,44.3589615 C75.6791711,42.1378515 73.9135807,40.3473015 72.1086169,38.6840565 C63.5884,30.8294415 52.3161831,24.5418165 40.8657494,26.3603115 C33.6645446,27.5029515 27.367894,31.6864215 21.3271711,35.7674265 C16.3785446,39.1094415 10.2207373,42.9151365 10.0622072,49.4459865 C9.97827952,52.9163415 9.48196627,57.2312565 12.8110988,59.2629615 C13.9550024,59.9615865 15.2190988,60.4811565 16.2448819,61.3433115 C18.3637976,63.1245465 17.9856048,64.9751265 18.431147,67.3307865 C18.7875807,69.2165565 19.4268819,70.5196215 20.6308819,72.2232315 C22.9331952,75.4824465 25.8820627,78.1537815 30.0131711,78.5884815 C30.5654361,79.2457065 30.3043277,80.3065815 29.6836771,80.8996365 C29.1448819,81.4161015 28.5428819,81.7887015 27.9170506,82.1209365" id="Fill-1" fill="#FFFFFF"></path>
                <path d="M82.9136361,33.3788535 C82.6587446,31.8491235 82.1717566,29.2543785 81.851588,27.7101585 C81.5977325,26.4929985 81.0029855,24.6848535 80.7657084,24.4095435 C80.6797084,24.3101835 80.4797325,23.7678435 80.3222386,23.2048035 C79.6186964,20.6949285 79.3016361,19.7054685 78.8374434,18.5742135 C78.5597566,17.8973235 78.3245518,17.1759285 78.3100458,16.9492635 C78.2934675,16.7236335 78.2157566,16.4773035 78.1349373,16.3955385 C77.9235639,16.1833635 77.4811301,14.9268735 77.4417566,14.4259335 C77.4220699,14.1930585 77.2417807,13.8297735 77.0314434,13.6010385 C76.8200699,13.3723035 76.6449614,13.0586985 76.6325277,12.8889585 C76.6221663,12.7161135 76.5382386,12.5908785 76.4387687,12.5981235 C76.3392988,12.6053685 76.2605518,12.5318835 76.2522627,12.4283835 C76.2460458,12.3300585 75.9963349,11.9678085 75.710359,11.6386785 C75.4212747,11.3085135 74.9570819,10.6129935 74.6897566,10.1089485 C74.4224313,9.6049035 74.1374916,9.1629585 74.0639253,9.1339785 C73.9841422,9.1029285 73.9250819,9.0201285 73.9188651,8.9269785 C73.9085036,8.7737985 73.7479012,8.5906035 72.5418289,7.3517085 C72.1605277,6.9604785 71.8393229,6.5599335 71.8320699,6.4698885 C71.825853,6.3788085 71.0798289,5.6708685 70.1721663,4.8935835 C68.2832747,3.2758785 67.9434193,3.0191985 67.3590337,2.7666585 C67.1259012,2.6662635 66.9041663,2.5389585 66.8502867,2.4737535 C66.7984795,2.4106185 66.3974916,2.2056885 65.9664554,2.0214585 C65.5354193,1.8372285 64.9821181,1.5287985 64.7510578,1.3404285 C63.7656843,0.5414085 63.2517566,0.3230235 62.2197566,0.2588535 C61.7597084,0.2309085 60.6261663,0.1460385 59.7153952,0.0704835 C58.7921904,-0.0050715 57.2006723,-0.0216315 56.1406964,0.0311535 C54.561612,0.1118835 53.9969133,0.2164185 52.8737325,0.6366285 C50.8024795,1.4118435 49.7124554,1.7678835 48.9560699,1.9189935 C48.3540699,2.0390535 46.9272988,2.8215135 46.6962386,3.1578885 C46.2817807,3.7602585 44.3431542,4.4899335 44.313106,4.0531635 C44.2809855,3.5843085 40.0099976,2.7977085 36.9896361,2.7035235 C35.2654916,2.6517735 32.6326482,2.9322585 30.2453711,3.4238835 C29.2154434,3.6360585 25.3796361,5.1440535 25.1247446,5.4359235 C25.0698289,5.4990585 24.8543108,5.5590885 24.6284313,5.5756485 C24.4025518,5.5901385 24.1352265,5.7143385 24.0119253,5.8613085 C23.8927687,6.0041385 23.5301181,6.1925085 23.2058048,6.2825535 C22.8846,6.3705285 22.3478771,6.6044385 22.0297807,6.7928085 C21.3946241,7.1716185 20.5201181,7.5069585 20.282841,7.4645235 C20.1999494,7.4489985 20.0331301,7.5214485 19.9357325,7.6135635 C19.8300458,7.7139585 19.4912265,7.8650685 19.1669133,7.9551135 C18.8415639,8.0451585 18.4385036,8.2728585 18.2530337,8.4715785 C18.0748169,8.6599485 17.8282145,8.8307235 17.7214916,8.8379685 C17.6116602,8.8462485 17.3930337,9.0180585 17.2334675,9.2198835 C17.0749373,9.4227435 16.8480217,9.5955885 16.7288651,9.6028335 C16.6076361,9.6111135 16.4905518,9.6773535 16.4605036,9.7518735 C16.4325277,9.8263935 15.9020217,10.3573485 15.2637566,10.9493685 C14.6254916,11.5403535 13.9737566,12.1623885 13.7924313,12.3517935 C13.1759253,12.9965985 11.933588,14.1123285 11.8258289,14.1195735 C11.7646964,14.1237135 11.6393229,14.2054785 11.525347,14.3141535 C11.4165518,14.4186885 10.8539253,14.9299785 10.2633229,15.4598985 C9.03341928,16.5652785 7.8252747,17.9811585 7.84703373,18.2937285 C7.85946747,18.4820985 6.97978072,20.0242485 6.09802169,21.3562935 C5.68770843,21.9752235 5.08881687,23.7150585 5.12093735,24.1901235 C5.13337108,24.3629685 5.0826,24.6413835 5.00799759,24.8162985 C4.93132289,24.9932835 4.79766024,25.3607085 4.7012988,25.6639635 C4.6039012,25.9661835 4.42568434,26.4308985 4.2899494,26.7362235 C3.95734699,27.4845285 3.84026265,28.4212035 3.80296145,30.5978085 C3.76566024,32.8458285 3.88896145,34.6136085 4.13141928,35.2915335 C4.22881687,35.5627035 4.29823855,35.9798085 4.28787711,36.2199285 C4.2132747,37.9825335 4.4039253,39.4781085 4.79247952,40.1881185 C5.41934699,41.3307585 5.47737108,41.5149885 5.65558795,42.9650235 C5.77888916,43.9658685 5.9239494,44.4502485 6.20474458,44.7876585 C6.40782892,45.0360585 6.59122651,45.3382785 6.59847952,45.4397085 C6.60573253,45.5494185 6.68758795,45.7553835 6.78809398,45.9230535 C6.88756386,46.0855485 7.11137108,46.4923035 7.29684096,46.8452385 C7.4812747,47.1971385 7.6999012,47.4693435 7.79211807,47.4620985 C7.8832988,47.4569235 8.09052771,47.6939385 8.25631084,47.9961585 C8.42002169,48.2963085 8.73708193,48.7972485 8.96088916,49.1129235 C9.20749157,49.4617185 9.31317831,49.7711835 9.23028675,49.9036635 C8.42209398,51.1953435 8.08845542,51.8587785 8.10917831,52.1392635 C8.12161205,52.3307385 8.05426265,52.4911635 7.95893735,52.4984085 C7.86464819,52.5046185 7.80247952,52.7437035 7.82113012,53.0210835 C7.84081687,53.2974285 7.78072048,53.5861935 7.6905759,53.6524335 C7.48645542,53.8014735 7.53722651,54.5973885 7.79211807,55.2235635 C7.90091325,55.4905935 8.04079277,56.0339685 8.10088916,56.4117435 C8.16098554,56.7998685 8.44385301,57.4664085 8.73604578,57.9166335 C9.0292747,58.3668585 9.26758795,58.7818935 9.27173253,58.8533085 C9.27691325,58.9267935 9.5825759,59.1772635 9.96491325,59.4235935 C10.3482867,59.6699235 10.7710337,59.9669685 10.9254193,60.0984135 C11.4403831,60.5341485 13.4764072,61.1944785 14.4016843,61.2255285 C15.5714916,61.2648585 16.0553711,61.1106435 16.685347,60.4948185 C17.0759735,60.1149735 17.1816602,59.8634685 17.1485036,59.3956485 C17.0977325,58.6587285 16.6335398,58.2530085 15.7206964,58.1484735 C14.9446241,58.0573935 14.2338289,57.6485685 13.2484554,56.7253485 C12.1926241,55.7369235 11.9729614,55.3032585 12.0019735,54.2537685 C12.0361663,52.9983135 12.1211301,52.7240385 12.6951542,52.0129935 C13.8266241,50.6116035 13.9519976,50.5163835 14.7166723,50.4635985 C15.6181181,50.4004635 16.9992988,49.7194335 16.9733952,49.3499385 C16.9640699,49.2112485 17.0448892,49.0839435 17.1464313,49.0766985 C17.4033952,49.0580685 18.4333229,47.7870885 18.4136361,47.5086735 C18.405347,47.3875785 18.4561181,47.2519935 18.5234675,47.2147335 C18.5928892,47.1764385 18.9513952,46.6889535 19.3119735,46.1414385 C19.6725518,45.5949585 20.2030578,44.9646435 20.4786723,44.7555735 C20.7605036,44.5423635 20.9770578,44.2732635 20.9677325,44.1469935 C20.9584072,44.0238285 21.0620217,43.8727185 21.1967205,43.8095835 C21.3314193,43.7485185 21.8619253,43.2289485 22.3789614,42.6503835 C23.493853,41.4052785 25.0283831,39.9034935 25.8365759,39.2628285 C26.167106,39.0020085 26.5048892,38.7235935 26.5950337,38.6376885 C27.019853,38.2350735 27.9409855,37.5292035 28.2652988,37.3563585 C28.4663108,37.2487185 28.6818289,37.0696635 28.739853,36.9609885 C28.9450096,36.5697585 29.2972988,36.7653735 29.6247205,37.4567535 C30.2101422,38.6904735 31.8772988,39.9417885 33.6014434,40.4437635 C34.5370819,40.7159685 36.3327205,40.6424835 37.8579253,40.2678135 C39.6566723,39.8269035 43.0407205,38.2764735 44.4426241,37.2507885 C44.8114916,36.9816885 45.4404313,36.5687235 45.8579976,36.3223935 C46.2776361,36.0760635 46.7221422,35.8069635 46.8620217,35.7169185 C48.0287205,34.9582635 48.2773952,34.9655085 48.355106,35.7583185 C48.4649373,36.8636985 48.7913229,37.5022935 49.7849855,38.5476435 C50.3434675,39.1355235 50.9879494,39.6799335 51.2013952,39.7451385 C51.4106964,39.8103435 51.8324072,40.0670235 52.110094,40.2978285 C52.7711542,40.8484485 54.4776843,41.2676235 55.707588,41.1817185 C56.5354675,41.1247935 56.9488892,40.9933485 58.2471783,40.3775235 C58.4336843,40.2895485 58.7010096,40.1932935 58.8429614,40.1643135 C58.9849133,40.1353335 59.5869133,39.8413935 60.1909855,39.5050185 L61.2810096,38.8985085 L61.8819735,39.5008785 C62.7606241,40.3806285 64.0091783,41.7996135 64.0174675,41.9289885 C64.021612,41.9859135 64.2122627,42.2281035 64.4474675,42.4733985 C64.6837084,42.7186935 65.0795157,43.1596035 65.3458048,43.4721735 C65.7758048,43.9772535 67.5061663,45.5018085 69.8354193,47.4279435 C70.3161904,47.8264185 70.7814193,48.1420935 70.8777807,48.1358835 C70.9793229,48.1286385 71.0642867,48.5312535 71.0850096,49.1212035 C71.1129855,49.9378185 71.2072747,50.2327935 71.5979012,50.7389085 C71.8662627,51.0856335 72.2061181,51.3495585 72.3719012,51.3381735 C72.528359,51.3278235 72.7210819,51.3950985 72.7832506,51.4830735 C72.8495639,51.5793285 73.3116843,51.5865735 73.8805277,51.4996335 C74.9146,51.3412785 76.1983831,51.5575935 76.347588,51.9146685 C76.3931783,52.0254135 76.6294193,52.1796285 76.8594434,52.2520785 C77.2998048,52.3907685 77.4251783,52.7975235 77.4086,54.0343485 C77.4003108,54.6512085 75.9569614,57.0617235 75.1860699,57.7468935 C74.8907687,58.0097835 74.2234916,58.4434485 73.7199253,58.7011635 C73.2153229,58.9599135 72.585347,59.3035335 72.3346,59.4587835 C72.0786723,59.6171385 71.4787446,59.7961935 70.9772506,59.8655385 C69.8395639,60.0207885 69.5173229,60.1770735 69.4064554,60.6272985 C69.2883349,61.1054685 69.5722386,62.1528885 69.8343831,62.2077435 C69.9504313,62.2336185 70.5151301,62.3588535 71.0819012,62.4861585 C71.8911301,62.6683185 72.3656843,62.6714235 73.2609133,62.5006485 C73.897106,62.3795535 74.7094434,62.2356885 75.0928169,62.1777285 C76.4563831,61.9727985 77.1599253,61.7575185 77.652094,61.3952685 C77.9277084,61.1934435 78.3919012,60.8819085 78.6923831,60.6976785 C78.9939012,60.5124135 79.2280699,60.2640135 79.2208169,60.1377435 C79.2114916,60.0166485 79.2840217,59.9079735 79.3772747,59.9017635 C79.7430337,59.8758885 80.8009373,58.3409835 81.3666723,57.0141135 C81.9355157,55.6820685 81.952094,55.5640785 81.8785277,53.6545035 C81.8339735,52.4921985 81.7168892,51.5317185 81.5956602,51.3247185 C81.4806482,51.1311735 81.1625518,50.5370835 80.8848651,49.9999185 C80.3812988,49.0249485 80.3812988,49.0249485 80.6952506,48.6647685 C80.8734675,48.4598385 81.006094,48.2455935 81.0009133,48.1731435 C80.9957325,48.1006935 81.170841,47.8222785 81.393612,47.5459335 C81.6163831,47.2685535 81.787347,46.9435635 81.7780217,46.8131535 C81.7697325,46.6920585 81.8225759,46.4964435 81.8899253,46.4063985 C81.9583108,46.3111785 82.1572506,45.6301485 82.325106,44.9056485 C82.4939976,44.1811485 82.6950096,43.4369835 82.7685759,43.2651735 C82.8442145,43.0892235 82.8887687,42.7342185 82.8690819,42.4568385 C82.8504313,42.1877385 82.927106,41.6267685 83.0379735,41.2189785 C83.2120458,40.5793485 83.2431301,38.9947635 83.1519494,35.5378635 C83.1395157,35.0627985 83.0317566,34.0847235 82.9136361,33.3788535" id="Fill-3" fill="#E5555D"></path>
                <path d="M66.7623181,95.2232085 C66.0142217,95.4902385 65.0961976,95.8048785 64.7200771,95.9218335 C64.3460289,96.0377535 63.5823904,96.3254835 63.0239084,96.5614635 C62.4654265,96.7964085 61.5577639,97.0468785 61.0054988,97.1182935 C60.4532337,97.1897085 59.9165108,97.3170135 59.8066795,97.4018835 C59.6978843,97.4867535 59.3020771,97.6658085 58.9280289,97.8024285 C58.5570892,97.9369785 57.6732578,98.2909485 56.979041,98.5807485 C56.2848241,98.8715835 55.2445349,99.2359035 54.6829446,99.3849435 C54.1182458,99.5329485 53.2499566,99.8444835 52.7536434,100.074253 C52.2645831,100.301953 51.5651855,100.578298 51.2274024,100.677658 C50.8854747,100.777018 50.2979807,100.962283 49.9239325,101.088553 C49.5467759,101.215858 48.8805349,101.376283 48.4329205,101.448733 C47.5718843,101.585353 45.2395229,102.614143 45.2550651,102.848053 C45.2788964,103.180288 43.9288,103.067473 43.3278361,102.686593 C42.9817639,102.467173 42.6191133,102.300538 42.5082458,102.307783 C42.3973783,102.316063 42.1725349,102.191863 42.0015711,102.029368 C41.8337157,101.871013 41.1830169,101.547058 40.5758361,101.320393 C39.9624386,101.089588 38.7957398,100.644538 37.9896193,100.333003 C37.1845349,100.021468 36.4747759,99.7678935 36.417788,99.7720335 C36.3608,99.7751385 36.009547,99.6726735 35.6531133,99.5464035 C35.2925349,99.4201335 34.6863904,99.3031785 34.3195952,99.2907585 C33.9465831,99.2783385 32.9663904,99.1137735 32.1157157,98.9212635 C31.2671133,98.7297885 30.3490892,98.5289985 30.0558602,98.4731085 C29.767812,98.4172185 28.8870892,98.2050435 28.1244867,98.0063235 C27.3618843,97.8086385 26.3568241,97.6202685 25.9185349,97.5933585 C25.4802458,97.5674835 25.0720048,97.5002085 25.0222699,97.4463885 C24.5176675,96.9019785 22.1044867,96.3658485 21.2154747,96.6007935 C20.9502217,96.6701385 20.5968964,96.6038985 20.2881253,96.4269135 C20.0156193,96.2695935 19.4571373,96.1226235 19.0551133,96.1039935 L18.3204867,96.0667335 L18.8261253,95.4053685 C19.7254988,94.2296085 20.4559807,93.1749435 20.5119325,92.9741535 C20.5419807,92.8696185 20.7606072,92.5570485 20.9854506,92.2972635 C21.2123663,92.0374785 21.6206072,91.5054885 21.8734265,91.1401335 C22.9479084,89.5865985 23.2701494,89.1974385 23.8099807,88.8093135 C24.1249687,88.5816135 24.385041,88.3145835 24.3788241,88.2245385 C24.3726072,88.1344935 24.6596193,87.7515435 25.016053,87.3737685 C25.9579084,86.3791335 26.0542699,86.2901235 26.5060289,86.0106735 C26.7236193,85.8761235 27.0168482,85.5987435 27.144294,85.4062335 C27.2727759,85.2126885 27.559788,84.8659635 27.7711614,84.6486135 C27.9825349,84.4312635 28.298559,84.0990285 28.4612337,83.9220435 C28.6228723,83.7460935 28.7917639,83.5949835 28.8301012,83.5929135 C28.9761976,83.5825635 31.1759325,81.9669285 31.2660771,81.8044335 C31.380053,81.5995035 31.7903663,81.5663835 33.4316193,81.6253785 C34.6718843,81.6709185 34.6915711,81.6791985 34.8169446,82.2029085 C35.2106795,83.8371735 35.4531373,84.1942485 37.2726072,85.8078135 C38.5698602,86.9608035 39.1749687,87.3054585 40.6328241,87.7277385 C41.1312096,87.8716035 41.6068,88.0413435 41.7135229,88.1106885 C41.8192096,88.1800335 42.5496916,88.2390285 43.334053,88.2421335 C44.5370169,88.2473085 44.939041,88.1738235 45.8726072,87.7877685 C46.4818602,87.5352285 47.0154747,87.2588835 47.0569205,87.1750485 C47.0983663,87.0922485 47.3242458,87.0084135 47.5501253,86.9928885 C48.1977157,86.9483835 49.8441494,85.7032785 50.386053,84.8473335 C50.6637398,84.4105635 50.916559,83.7730035 50.959041,83.4066135 C51.0284627,82.8104535 51.0895952,82.7442135 51.6076675,82.7090235 C52.9950651,82.6127685 54.0104867,81.3904335 53.8022217,80.0677035 C53.7783904,79.9134885 53.8374506,79.7696235 53.9286313,79.7634135 C54.0281012,79.7572035 54.1099566,79.8555285 54.1192819,79.9942185 C54.1524386,80.4630735 55.718053,81.6905835 56.9759325,82.2318885 C58.5736675,82.9201635 59.3766795,83.3300235 59.7092819,83.6260335 C59.8543422,83.7554085 60.0574265,83.8630485 60.1454988,83.8578735 C60.2356434,83.8516635 60.3164627,83.9323935 60.3237157,84.0358935 C60.3423663,84.2956785 61.0417639,84.8328435 61.5743422,84.9963735 C61.8064386,85.0667535 62.0374988,85.2427035 62.1079566,85.4010585 C62.175306,85.5511335 62.6270651,86.0344785 63.0933301,86.4546885 C64.4392819,87.6656385 65.9406554,89.6580135 65.9841735,90.2914335 C65.9945349,90.4270185 66.2017639,90.6661035 66.4576916,90.8327385 C66.7125831,91.0004085 66.9229205,91.2612285 66.9343181,91.4257935 C66.9457157,91.5820785 67.0659084,91.7807985 67.1902458,91.8480735 C67.4503181,91.9898685 68.0481735,92.8106235 68.2253542,93.2680935 C68.2844145,93.4212735 68.4108241,93.5516835 68.4926795,93.5454735 C68.5807518,93.5392635 68.6594988,93.6820935 68.6729687,93.8725335 C68.6854024,94.0629735 68.7941976,94.2596235 68.9216434,94.3248285 C69.0718843,94.4014185 68.976559,94.4893935 68.6356675,94.5887535 C68.3528,94.6705185 67.5114506,94.9551435 66.7623181,95.2232085 M85.2823663,115.770028 C85.1362699,115.205953 84.8668723,114.546658 84.6824386,114.305503 C84.491788,114.058138 84.3394747,113.754883 84.3291133,113.608948 C84.3187518,113.470258 84.2265349,113.305693 84.1312096,113.257048 C84.0358843,113.208403 83.9384867,113.009683 83.926053,112.835803 C83.8804627,112.164088 82.8640048,110.833078 81.761547,109.996798 C81.1357157,109.523803 80.4166313,108.940063 80.1358361,108.678208 C79.7068723,108.277663 79.4592337,108.204178 78.4458843,108.178303 C77.2418843,108.145183 75.6938843,107.685643 76.5424867,107.612158 C76.7683663,107.592493 76.9372578,107.513833 76.931041,107.429998 C76.9258602,107.347198 77.1434506,107.222998 77.4346072,107.143303 C77.7765349,107.050153 77.9392096,106.895938 77.9247036,106.682728 C77.913306,106.508848 77.9796193,106.272868 78.0718361,106.167298 C78.1661253,106.060693 78.2676675,105.240973 78.3018602,104.333278 C78.3350169,103.427653 78.4210169,101.872048 78.493547,100.856713 C78.8033542,96.5728485 78.8188964,95.5430235 78.5816193,94.8816585 C78.1091373,93.5589285 76.5435229,92.8313235 75.1115711,93.2711985 C73.9510892,93.6272385 73.5304145,93.5899785 73.498294,93.1294035 C73.4817157,92.8954935 73.2247518,92.4856335 72.9118361,92.1947985 C72.5968482,91.9039635 72.3461012,91.5820785 72.337812,91.4599485 C72.3295229,91.3419585 72.1523422,91.0562985 71.9451133,90.8265285 C71.7378843,90.5967585 71.5648482,90.3618135 71.5607036,90.3048885 C71.5379084,89.9933535 69.4821976,86.3418735 69.3340289,86.3532585 C69.2646072,86.3573985 69.1630651,86.2331985 69.0967518,86.0644935 C69.033547,85.9040685 68.6812578,85.4931735 68.3289687,85.1692185 C67.9766795,84.8462985 67.6741253,84.5223435 67.6699807,84.4664535 C67.6658361,84.4074585 67.4244145,84.1870035 67.1125349,83.9572335 C66.7996193,83.7274635 66.5519807,83.4656085 66.5385108,83.3527935 C66.5260771,83.2430835 65.9354747,82.6893585 65.2163904,82.1138985 C64.5014506,81.5415435 63.2777639,80.5479435 62.5016916,79.9083135 C61.7256193,79.2697185 60.9909928,78.7522185 60.8708,78.7604985 C60.7578602,78.7687785 60.6438843,78.6197385 60.6324867,78.4458585 C60.6086554,78.1115535 60.7744386,77.9821785 62.7472578,76.7950335 C63.2321735,76.5041985 63.6134747,76.2237135 63.6093301,76.1605785 C63.6041494,76.0974435 63.8372819,75.9256335 64.1398361,75.7693485 C66.8130892,74.3876235 69.5661253,70.8116985 69.8313783,68.3773785 C69.9909446,66.9045735 69.8976916,65.5187085 69.6096434,65.0508885 C69.0573783,64.1576835 68.1051614,63.6412185 67.1332578,63.7084935 C66.1281976,63.7778385 65.6059807,64.6503435 65.6329205,66.2142285 C65.6515711,67.2223185 65.3583422,68.2293735 64.8682458,68.8431285 C64.7200771,69.0263235 64.5439325,69.3399285 64.4962699,69.5034585 C64.4475711,69.6700935 64.1864627,69.9267735 63.9346795,70.0561485 C63.6735711,70.1896635 63.1233783,70.6740435 62.7027036,71.1418635 C62.2903181,71.6003685 61.4489687,72.2793285 60.863547,72.6270885 C60.2781253,72.9738135 59.6978843,73.3919535 59.5942699,73.5420285 C59.4927277,73.6869285 59.2906795,73.8235485 59.1611614,73.8318285 C59.0223181,73.8421785 58.9249205,73.9239435 58.9301012,74.0222685 C58.9373542,74.1154185 58.8389205,74.2023585 58.7176916,74.2106385 C58.3363904,74.2375485 56.0568723,75.6554985 55.9781253,75.9152835 C55.939788,76.0415535 55.7335952,76.1585085 55.5263663,76.1729985 C55.3191373,76.1864535 54.8342217,76.3758585 54.4663904,76.5849285 C54.0933783,76.7971035 53.2437398,77.1634935 52.5795711,77.3963685 C51.1517639,77.8993785 51.0181012,77.9801085 51.0419325,78.3278685 C51.052294,78.4696635 50.7580289,78.9395535 50.3912337,79.3659735 C49.8451855,80.0004285 49.7187759,80.2902285 49.7001253,80.9536635 C49.6825108,81.6346935 49.5509205,81.9203535 48.8753542,82.7504235 L48.0733783,83.7367785 L45.6643422,83.9127285 C44.3121735,84.0110535 43.2501253,84.0203685 43.2439084,83.9334285 C43.2376916,83.8475235 43.1061012,83.8371735 42.953788,83.9085885 C42.8025108,83.9820735 42.6253301,83.9820735 42.5641976,83.9096235 C42.402559,83.7212535 40.8856434,83.1043935 40.6255711,83.1230235 C40.3033301,83.1447585 39.3345349,82.2029085 39.1739325,81.7092135 C38.9770651,81.1016685 39.1532096,80.9619435 40.5229928,80.6307435 C41.9621976,80.2840185 42.2751133,80.0263035 42.2201976,79.2355635 C42.1632096,78.4106685 41.9342217,78.3703035 37.371041,78.3847935 C33.4160771,78.3982485 32.2058602,78.1498485 29.7709205,76.8250485 C29.2455952,76.5383535 28.778294,76.3396335 28.7389205,76.3851735 C28.7005831,76.4296785 28.556559,76.3551585 28.4311855,76.2247485 C28.3068482,76.0943385 28.0146554,75.9918735 27.8063904,76.0063635 C27.581547,76.0218885 27.3173301,75.8749185 27.1815952,75.6586035 C27.0500048,75.4484985 26.5485108,75.0810735 26.0428723,74.8233585 C25.5372337,74.5656435 24.9217639,74.2064985 24.6451133,74.0067435 C24.3694988,73.8090585 24.091812,73.6538085 24.0192819,73.6589835 C23.9498602,73.6631235 23.654559,73.3443435 23.3789446,72.9634635 C23.102294,72.5825835 22.8101012,72.2213685 22.7417157,72.1778985 C22.4712819,72.0060885 21.5708723,70.3645785 21.1792096,69.3306135 C20.6238361,67.8629835 20.4186795,66.7389735 20.2798361,64.3812435 C20.1793301,62.6838435 20.114053,62.3619585 19.7793783,61.9624485 C19.275812,61.3590435 18.5588,61.1251335 17.6262699,61.2576135 C17.0056193,61.3466235 16.8046072,61.4780685 16.394294,62.0669835 L15.9031614,62.7718185 L16.1300771,65.4089985 C16.2854988,67.2254235 16.4533542,68.2738785 16.6678361,68.7737835 C16.8419084,69.1795035 16.9921494,69.6763035 17.0076916,69.8988285 C17.0232337,70.1234235 17.1061253,70.3335285 17.1983422,70.3811385 C17.290559,70.4297835 17.4294024,70.6874985 17.5185108,70.9772985 C17.6076193,71.2670985 17.7288482,71.4844485 17.7972337,71.4803085 C17.9298602,71.4709935 18.5246072,72.5774085 18.7328723,73.2242835 C18.8105831,73.4633685 19.0250651,73.7686935 19.2208964,73.9218735 C19.4053301,74.0647035 19.5794024,74.3079285 19.5887277,74.4352335 C19.605306,74.6960535 20.3513301,75.7020735 20.5875711,75.7859085 C20.6735711,75.8159235 20.7347036,75.9049335 20.7429928,76.0094685 C20.7492096,76.1067585 20.9947759,76.3768935 21.3087277,76.6304685 C21.6226795,76.8850785 21.8682458,77.1624585 21.8754988,77.2700985 C21.883788,77.3777385 22.0101976,77.4522585 22.1656193,77.4408735 C22.3220771,77.4315585 22.7023422,77.6344185 23.0349446,77.9066235 C23.9581494,78.6632085 24.6637639,79.0999785 25.274053,79.2945585 C25.5952578,79.3970235 25.8656916,79.5460635 25.8708723,79.6216185 C25.8812337,79.7582385 26.7329446,79.9900785 26.972294,79.9207335 C27.2903904,79.8286185 27.0344627,80.0645985 26.0718843,80.7528735 C25.5082217,81.1554885 25.0067277,81.5415435 24.9642458,81.6067485 C24.9217639,81.6709185 24.643041,81.8748135 24.3591373,82.0486935 C24.0752337,82.2236085 23.697041,82.5620535 23.5385108,82.7835435 C23.3758361,83.0143485 22.801812,83.5898085 22.2443663,84.0835035 C21.6858843,84.5782335 21.1325831,85.1557635 20.9937398,85.3886385 C20.8548964,85.6204785 20.1865831,86.4712485 19.4892578,87.3033885 C18.7919325,88.1334585 18.1339807,89.0308035 18.0086072,89.3195685 C17.8842699,89.6062635 17.6583904,90.0005985 17.5040048,90.1993185 C17.3465108,90.4011435 17.2335711,90.6930135 17.2460048,90.8689635 C17.2584386,91.0418085 17.190053,91.1867085 17.0936916,91.1918835 C16.9900771,91.1991285 16.9248,91.2705435 16.932053,91.3688685 C16.9382699,91.4589135 16.7362217,91.9484685 16.4854747,92.4525135 C16.2326554,92.9586285 16.0347518,93.5051085 16.0461494,93.6665685 C16.057547,93.8311335 15.9269928,94.1623335 15.7508482,94.4190135 C15.5726313,94.6746585 15.441041,94.9748085 15.4493301,95.1000435 C15.4638361,95.3215335 14.7996675,95.2780635 14.1893783,95.0193135 C13.685812,94.8061035 11.7699807,94.7957535 11.7834506,95.0058585 C11.7907036,95.1072885 11.6446072,95.2573635 11.4757157,95.3246385 C11.0488241,95.4933435 10.5628723,95.9963535 10.3401012,96.4983285 C10.2199084,96.7705335 10.2199084,98.1077535 10.3390651,100.414768 C10.4395711,102.338833 10.5027759,104.231848 10.4810169,104.615833 C10.4364627,105.367243 10.4219566,109.197778 10.4613301,109.489648 C10.4758361,109.586938 10.5545831,109.831198 10.6436916,110.050618 C10.7597398,110.338348 10.7421253,110.434603 10.5732337,110.418043 C9.84378795,110.343523 7.63887229,111.078373 6.55506506,111.757333 C6.20381205,111.976753 5.78417349,112.163053 5.61631807,112.174438 C5.44328193,112.186858 5.31790843,112.262413 5.3241253,112.351423 C5.33034217,112.436293 5.12207711,112.573948 4.8661494,112.653643 C4.5501253,112.751968 4.25378795,113.060398 3.95641446,113.603773 C3.71084819,114.049858 3.12439036,114.790918 2.63429398,115.270123 C2.06441446,115.827988 1.76393253,116.265793 1.78051084,116.512123 C1.79501687,116.721193 1.74942651,116.972698 1.67896867,117.066883 C1.60954699,117.163138 1.46863133,117.560578 1.36708916,117.950773 C1.26451084,118.340968 1.00651084,118.969213 0.79306506,119.348023 C0.576510843,119.732008 0.359956627,120.438913 0.302968675,120.947098 C0.245980723,121.457353 0.153763855,122.209798 0.0947036145,122.650708 C-0.0451759036,123.685708 -0.0482843373,123.599803 0.211787952,125.165758 C0.337161446,125.922343 0.558896386,126.741028 0.704992771,126.984253 C0.936053012,127.369273 0.941233735,127.516243 0.739185542,128.105158 C0.562004819,128.622658 0.557860241,128.852428 0.72053494,129.081163 C0.835546988,129.242623 0.945378313,129.569683 0.960920482,129.794278 C0.995113253,130.279693 1.46552289,131.123218 1.8561494,131.398528 C2.00328193,131.503063 2.13901687,131.697643 2.14730602,131.817703 C2.1607759,132.014353 4.61229398,133.697263 4.94696867,133.740733 C5.0194988,133.750048 5.13554699,133.758328 5.23501687,133.761433 C5.32308916,133.764538 5.54896867,133.897018 5.71371566,134.041918 C6.56542651,134.788153 10.1183663,134.962033 11.7295711,134.335858 C12.5947518,134.000518 12.5947518,134.000518 13.4941253,133.407463 C14.8618361,132.504943 16.4440289,129.486883 16.3404145,127.979923 C16.3207277,127.703578 16.2409446,127.455178 16.1621976,127.427233 C16.0834506,127.399288 15.8378843,127.075333 15.6161494,126.707908 C15.2928723,126.172813 15.1011855,126.036193 14.6535711,126.026878 C14.1748723,126.014458 13.9624627,126.169708 13.1615229,127.113628 C12.6444867,127.723243 12.0341976,128.501563 11.7927759,128.860708 C11.5565349,129.214678 11.0270651,129.738388 10.6271133,130.011628 C9.92978795,130.491868 9.81788434,130.516708 8.21600482,130.527058 C6.85865542,130.537408 6.43383614,130.473238 6.00590843,130.192753 C5.00292048,129.535528 4.01340241,128.596783 3.99164337,128.279038 C3.97920964,128.098948 3.80202892,127.805008 3.59790843,127.629058 C3.20831807,127.289578 3.04771566,126.374638 3.33990843,126.164533 C3.47253494,126.068278 3.47046265,126.003073 3.33161928,125.923378 C3.20417349,125.851963 3.17930602,125.611843 3.25598072,125.207158 C3.31918554,124.871818 3.43316145,124.124548 3.51087229,123.544948 C3.64867952,122.507878 4.77393253,119.310763 5.07855904,119.090308 C5.16973976,119.023033 5.41737831,118.592473 5.63289639,118.124653 C6.00487229,117.316318 6.90735422,116.435533 7.39952289,116.401378 C7.52386024,116.393098 7.8274506,116.145733 8.07508916,115.849723 C8.38593253,115.481263 8.77552289,115.258738 9.32364337,115.136608 C9.77022169,115.038283 10.2085108,114.877858 10.317306,114.775393 C10.5359325,114.570463 12.5906072,114.375883 13.2941494,114.493873 C14.0432819,114.618073 15.0887518,115.363273 15.5228964,116.081563 C15.9767277,116.834008 16.5776916,117.319423 17.0263422,117.294583 C17.4252578,117.274918 18.3204867,116.369293 18.2966554,116.011183 C18.2852578,115.855933 18.3588241,115.620988 18.4531133,115.513348 C18.6707036,115.262878 18.0065349,112.985878 17.5879325,112.544968 C17.448053,112.399033 17.3340771,112.200313 17.3268241,112.093708 C17.3185349,111.983998 17.1796916,111.867043 17.003547,111.820468 C16.8294747,111.773893 16.3435229,111.472708 15.9010892,111.139438 C15.1664627,110.583643 15.1219084,110.507053 15.2680048,110.035093 C15.3612578,109.732873 15.3581494,109.492753 15.2607518,109.439968 C14.8214265,109.201918 14.5623904,106.420873 14.7136675,103.557028 C14.7727277,102.420598 14.7437157,101.670223 14.6380289,101.612263 C14.5447759,101.562583 14.4815711,101.327638 14.4991855,101.100973 C14.5250892,100.755283 14.6587518,100.654888 15.2607518,100.533793 C15.6555229,100.455133 16.0544386,100.439608 16.129041,100.500673 C16.2057157,100.561738 16.6170651,100.637293 17.0553542,100.671448 C17.4936434,100.703533 18.0386554,100.742863 18.2811133,100.760458 C18.5256434,100.777018 18.8364867,100.827733 18.9867277,100.876378 C19.5037639,101.043013 21.7107518,101.278993 21.8464867,101.180668 C21.9190169,101.129953 22.0899807,101.167213 22.2184627,101.261398 C22.3510892,101.358688 22.8784867,101.492203 23.4058843,101.562583 C26.5536916,101.982793 31.0723181,102.930853 32.4939084,103.471123 C32.9943663,103.660528 33.5559566,103.798183 33.7694024,103.783693 C33.9776675,103.769203 34.2605349,103.847863 34.3921253,103.956538 C34.7060771,104.217358 35.7981735,104.526823 35.9732819,104.404693 C36.0541012,104.346733 36.303812,104.409868 36.5224386,104.541313 C36.7400289,104.673793 37.0446554,104.778328 37.191788,104.774188 C37.3399566,104.767978 37.9502458,105.038113 38.5491373,105.375523 C39.1480289,105.711898 39.7355229,105.941668 39.8557157,105.885778 C40.0919566,105.777103 42.1466313,106.258378 42.4947759,106.502638 C42.6077157,106.583368 42.7216916,106.947688 42.7527759,107.328568 C42.7838602,107.709448 42.9009446,108.159673 43.0149205,108.345973 C43.1278602,108.529168 43.1931373,108.783778 43.1589446,108.911083 C43.1247518,109.038388 43.0843422,109.646968 43.0708723,110.274178 C43.0563663,110.900353 42.9931614,111.720073 42.9278843,112.110268 C42.8636434,112.502533 42.8108,113.355373 42.8108,114.033298 C42.8076916,116.574223 42.7662458,117.712723 42.6543422,118.307848 C42.5921735,118.642153 42.5652337,119.305588 42.5973542,119.755813 C42.6284386,120.206038 42.5797398,120.751483 42.4916675,120.947098 C42.3341735,121.293823 42.1746072,125.215438 42.201547,128.084458 C42.2098361,128.901073 42.1590651,129.721828 42.0886072,129.918478 C41.9601253,130.275553 41.786053,131.916028 41.850294,132.145798 C41.8668723,132.202723 42.0305831,133.690018 42.2170892,135.470218 L42.5548723,138.692173 L42.1248723,139.147573 C41.7953783,139.496368 41.707306,139.760293 41.7518602,140.262268 C41.8316434,141.161683 41.6378843,142.722463 41.4037157,143.052628 C41.1809446,143.370373 40.4048723,143.352778 39.4744145,143.010193 C39.1532096,142.892203 38.3864627,142.775248 37.7927518,142.755583 C37.2000771,142.733848 36.2613301,142.597228 35.7339325,142.454398 C35.2013542,142.308463 34.3890169,142.165633 33.9268964,142.135618 C33.4575229,142.104568 32.7001012,141.922408 32.2162217,141.723688 C31.731306,141.523933 31.2660771,141.371788 31.1645349,141.379033 C31.0681735,141.385243 30.835041,141.278638 30.6692578,141.152368 C30.4350892,140.972278 29.9066554,140.942263 28.5534506,141.030238 C26.6801012,141.151333 26.1609928,141.085093 24.3000771,140.483758 C24.0254988,140.395783 22.9914265,140.218798 22.0081253,140.091493 C21.0227518,139.963153 19.9596675,139.761328 19.6498602,139.645408 C19.3462699,139.530523 18.9628964,139.440478 18.8188723,139.449793 C18.6624145,139.461178 18.5049205,139.406323 18.4417157,139.319383 C18.3018361,139.125838 17.2584386,138.688033 16.9807518,138.707698 C16.6906313,138.727363 16.165306,137.998723 16.1331855,137.530903 C16.0824145,136.803298 15.3063422,135.874903 14.6307759,135.736213 C13.6060289,135.524038 13.2402699,135.625468 12.632053,136.289938 C12.1077639,136.861258 12.0621735,137.012368 12.0228,138.303013 C11.9989687,139.069948 11.929547,139.795483 11.8684145,139.915543 C11.7171373,140.202238 12.4351855,141.990718 12.7377398,142.081798 C12.861041,142.120093 12.9791614,142.291903 12.990559,142.447153 C13.0174988,142.836313 13.3687518,143.134393 13.7676675,143.107483 C13.9407036,143.095063 14.0847277,143.161303 14.0919807,143.258593 C14.1044145,143.430403 15.1592096,143.326903 16.6357157,143.008123 C17.0170169,142.926358 17.4884627,143.005018 18.0811373,143.251348 C18.5650169,143.453173 19.0841253,143.608423 19.2374747,143.597038 C19.3928964,143.587723 19.5182699,143.642578 19.5244867,143.725378 C19.5307036,143.807143 20.0031855,143.847508 20.593788,143.816458 C21.1843904,143.785408 21.7418361,143.821633 21.8537398,143.898223 C22.0381735,144.024493 22.4598843,144.105223 23.7426313,144.261508 C23.8887277,144.279103 24.4689687,144.417793 25.0357398,144.570973 C25.6843663,144.744853 26.7008241,144.835933 27.7794506,144.815233 C29.0849928,144.791428 29.6362217,144.856633 30.0890169,145.091578 C30.7210651,145.417603 30.7759807,145.439338 31.9499325,145.792273 C32.3415952,145.911298 32.8068241,146.072758 32.985041,146.150383 C33.1653301,146.230078 33.3787759,146.242498 33.4668482,146.178328 C33.5487036,146.118298 33.630559,146.158663 33.637812,146.262163 C33.6461012,146.382223 33.788053,146.417413 33.9921735,146.350138 C34.1807518,146.290108 34.3807277,146.306668 34.439788,146.389468 C34.4967759,146.471233 34.7185108,146.526088 34.9267759,146.512633 C35.1402217,146.497108 35.5059807,146.571628 35.7577639,146.681338 C36.0085108,146.790013 36.589788,146.868673 37.0767759,146.859358 C37.6860289,146.847973 38.0714747,146.943193 38.3615952,147.179173 C38.5833301,147.358228 38.9200771,147.517618 39.0817157,147.520723 C39.2568241,147.522793 39.5490169,147.599383 39.7655711,147.699778 C39.9810892,147.799138 40.1852096,147.826048 40.2401253,147.763948 C40.3603181,147.627328 42.1310892,148.135513 42.1424867,148.309393 C42.1476675,148.387018 42.2999807,148.437733 42.4895952,148.424278 C42.6812819,148.410823 42.9527518,148.509148 43.1154265,148.650943 C43.2822458,148.795843 43.4625349,148.858978 43.5443904,148.804123 C43.6189928,148.752373 43.850053,148.812403 44.0324145,148.931428 C44.4769205,149.218123 45.5804145,149.148778 46.4435229,148.777213 C46.8186072,148.615753 47.7977639,148.226593 48.6474024,147.900568 C49.4949687,147.576613 50.321812,147.215398 50.5072819,147.089128 C50.9383181,146.793118 53.7587036,145.752943 56.0278602,145.053283 C56.3521735,144.952888 57.0453542,144.666193 57.5509928,144.421933 C58.3685108,144.026563 60.4397639,143.383828 62.3773542,142.923253 C62.7203181,142.842523 63.006294,142.704868 63.0011133,142.625173 C62.9948964,142.544443 63.1036916,142.469923 63.2425349,142.461643 C63.379306,142.451293 63.7461012,142.314673 64.0486554,142.161493 C65.1770169,141.588103 66.9995952,140.920528 67.7528723,140.804608 C68.6139084,140.672128 69.8614265,140.311948 70.4509928,140.026288 C70.6488964,139.931068 70.9991133,139.761328 71.2011614,139.664038 C71.4125349,139.562608 72.1108964,139.348363 72.7792096,139.180693 C73.4464867,139.014058 74.050559,138.820513 74.1427759,138.747028 C74.2318843,138.674578 74.6826072,138.485173 75.1240048,138.333028 C76.7797639,137.765848 77.6615229,136.779493 78.0594024,135.046903 C78.235547,134.286178 77.1786795,132.264823 76.7611133,132.562903 C76.6834024,132.618793 76.5932578,132.573253 76.544559,132.455263 C76.2948482,131.850823 73.8101735,132.714013 73.8578361,133.389868 C73.9189687,134.282038 72.8092578,135.358438 71.7513542,135.432958 C71.563812,135.444343 71.0322699,135.613048 70.5929446,135.799348 C70.151547,135.986683 69.2884386,136.193683 68.6988723,136.253713 C68.1113783,136.312708 67.5207759,136.456573 67.4057639,136.568353 C67.2845349,136.687378 67.0368964,136.774318 66.8275952,136.774318 C66.6234747,136.774318 66.1002217,136.956478 65.6463904,137.187283 C65.1967036,137.413948 64.3688241,137.749288 63.8072337,137.932483 C63.2446072,138.113608 62.1338602,138.551413 61.3401735,138.903313 C60.5454506,139.255213 59.5932337,139.604008 59.2254024,139.678528 C58.2794024,139.870003 57.4473783,140.149453 56.757306,140.507563 C55.5626313,141.127528 53.3639325,141.927583 52.3899566,142.098358 C51.8397639,142.194613 51.2781735,142.323988 51.138294,142.386088 C50.9932337,142.451293 50.7269446,142.495798 50.5176434,142.490623 C50.3083422,142.484413 50.0669205,142.602403 49.9529446,142.764898 C49.8389687,142.929463 49.6866554,143.052628 49.5913301,143.059873 C49.5011855,143.066083 49.1084867,143.256523 48.723041,143.482153 C47.8858361,143.972743 46.6082699,144.097978 46.1917398,143.729518 C45.985547,143.547358 45.8788241,143.028823 45.7555229,141.628468 C45.6653783,140.608993 45.5669446,139.653688 45.5379325,139.511893 C45.5089205,139.371133 45.5762699,138.813268 45.6840289,138.283348 C45.8581012,137.437753 46.0176675,135.111073 46.0518602,132.949993 C46.0767277,131.330218 46.1658361,130.419418 46.2994988,130.410103 C46.5046554,130.395613 46.5989446,129.467218 46.609306,127.343398 C46.6227759,124.905973 46.6725108,123.730213 46.8113542,122.666233 C46.8735229,122.196343 46.8838843,121.286578 46.838294,120.609688 C46.7906313,119.934868 46.8206795,119.250733 46.9046072,119.065468 C46.9874988,118.883308 46.9926795,117.728248 46.917041,116.515228 C46.7844145,114.401758 46.8341494,113.155618 47.1045831,111.734563 C47.1708964,111.391978 47.2237398,110.612623 47.2237398,109.986448 C47.2237398,109.359238 47.2859084,108.539518 47.3646554,108.148288 C47.4434024,107.760163 47.5107518,107.349268 47.5128241,107.233348 C47.5200771,106.941478 49.3468,105.836098 49.884559,105.798838 C50.1270169,105.782278 50.3321735,105.703618 50.3259566,105.629098 C50.3207759,105.551473 50.7487036,105.314458 51.2906072,105.091933 C51.8325108,104.870443 52.2987759,104.638603 52.3433301,104.566153 C52.4096434,104.457478 52.9328964,104.288773 56.0910651,103.359343 C56.7914988,103.153378 57.5219807,102.873928 57.7043422,102.742483 C57.8835952,102.612073 58.3260289,102.434053 58.6689928,102.353323 C59.0129928,102.273628 59.559041,102.066628 59.8584867,101.905168 C60.1651855,101.739568 61.0044627,101.483923 61.7432337,101.330743 C62.4809687,101.178598 63.207306,100.973668 63.3741253,100.869133 C63.9927036,100.486183 66.6307277,99.6706035 67.1612337,99.6975135 C67.4824386,99.7151085 69.1205831,99.0765135 70.2644867,98.4875985 C70.7183181,98.2547235 71.3037398,98.0487585 71.5658843,98.0311635 C71.8259566,98.0125335 72.2093301,97.8324435 72.409306,97.6326885 C72.6838843,97.3594485 72.9335952,97.2807885 73.4060771,97.3201185 C74.4764145,97.4091285 74.4971373,97.4805435 74.7706795,101.915518 C75.0245349,106.004803 75.1488723,106.634083 75.8410169,107.339953 C76.250294,107.758093 76.0254506,107.944393 75.1861735,107.882293 C74.5064627,107.833648 74.1780048,107.922658 73.0828,108.452578 C72.8942217,108.544693 72.5823422,108.651298 72.3761494,108.694768 C72.1761735,108.737203 71.6985108,108.956623 71.3296434,109.175008 C70.961812,109.394428 70.5649687,109.585903 70.4613542,109.593148 C70.0728,109.619023 69.3174506,110.629183 69.1143663,111.391978 C68.8677639,112.314163 68.8750169,113.009683 69.1299084,112.991053 C69.2241976,112.984843 69.3091614,113.065573 69.3164145,113.170108 C69.3329928,113.409193 70.223041,114.180268 70.7618361,114.422458 C71.0208723,114.537343 71.3804145,114.544588 71.721306,114.437983 C72.029041,114.344833 72.3201976,114.263068 72.3885831,114.253753 C72.581306,114.226843 73.2050651,113.718658 73.6568241,113.217718 C73.9541976,112.889623 74.4214988,112.668133 75.2431614,112.465273 C76.5279807,112.147528 76.967306,112.173403 77.6211133,112.604998 C77.8594265,112.761283 78.1951373,112.884448 78.3547036,112.874098 C78.7888482,112.843048 79.7379566,113.788003 80.2197639,114.728818 C80.5471855,115.366378 80.707788,116.060863 80.8880771,117.614398 C81.1149928,119.565373 81.1077398,119.700958 80.7347277,120.548623 C80.5212819,121.033003 80.3503181,121.539118 80.3596434,121.662283 C80.3938361,122.159083 79.5980771,123.733318 78.9805349,124.387438 C78.5215229,124.873888 77.8998361,125.251663 76.8491855,125.682223 C76.035812,126.014458 75.117788,126.435703 74.8141976,126.614758 C74.4712337,126.816583 74.0174024,126.924223 73.6153783,126.897313 C72.7574506,126.840388 71.3120289,126.208003 70.6292096,125.591143 C69.9567518,124.982563 69.3019084,125.002228 68.6335952,125.653243 C68.1434988,126.129343 68.0025831,126.861088 68.3652337,127.050493 C68.4626313,127.102243 68.5579566,127.335118 68.5745349,127.560748 C68.5900771,127.785343 68.753788,128.068933 68.9309687,128.179678 C69.1091855,128.290423 69.4708,128.646463 69.7236193,128.960068 C70.2945349,129.668008 70.8115711,130.062343 71.298559,130.160668 C71.5037157,130.202068 72.2165831,130.452538 72.8973301,130.723708 C73.9365831,131.137708 74.2702217,131.190493 75.0804867,131.068363 C75.6151373,130.987633 76.3000289,130.771318 76.6315952,130.577773 C76.967306,130.383193 77.4843422,130.153423 77.8148723,130.051993 C78.1381494,129.953668 79.2654747,129.374068 80.321306,128.764453 C82.1304145,127.720138 82.292053,127.579378 83.1810651,126.286663 C83.6949928,125.537323 84.1664386,124.873888 84.2203181,124.824208 C84.5083663,124.552003 85.1072578,122.568943 85.5082458,120.556903 C85.796294,119.111008 85.7185831,117.462253 85.2823663,115.770028" id="Fill-5" fill="#E5555D"></path>
                <path d="M75.9621422,116.433567 C75.8346964,116.243127 75.5756602,115.999902 75.3570337,115.865352 C74.8296361,115.541397 72.1097566,115.050807 71.6528169,115.197777 C71.4580217,115.259877 71.0186964,115.368552 70.693347,115.434792 C69.4903831,115.679052 68.8459012,116.254512 68.8914916,117.045252 C68.9505518,118.087497 69.6292265,118.920672 70.7368651,119.316042 C71.3088169,119.518902 71.4580217,119.516832 71.8496843,119.294307 C72.0973229,119.153547 73.0360699,118.938267 73.9157566,118.820277 C75.3829373,118.622592 75.5632265,118.558422 75.8958289,118.108197 C76.2812747,117.585522 76.3061422,116.948997 75.9621422,116.433567" id="Fill-8" fill="#E5555D"></path>
                <path d="M74.4535157,120.470481 C74.1737566,120.037851 73.1521181,119.602116 72.8775398,119.799801 C72.7770337,119.873286 72.2289133,119.976786 71.6403831,120.035781 C69.8582145,120.213801 69.7919012,120.235536 69.3132024,120.827556 C68.6241663,121.678326 68.7288169,122.503221 69.639588,123.397461 C70.2768169,124.021566 70.4146241,124.077456 71.2487205,124.059861 C71.8237807,124.047441 72.2247687,123.951186 72.3283831,123.803181 C72.4195639,123.672771 72.9200217,123.400566 73.4287687,123.204951 C73.9375157,123.007266 74.4649133,122.669856 74.5892506,122.462856 C74.8648651,122.000211 74.7975157,121.003506 74.4535157,120.470481" id="Fill-10" fill="#E5555D"></path>
                <path d="M37.4143518,190.175351 C36.7367133,191.370776 36.5937253,191.899661 36.6455325,193.029881 C36.6735084,193.653986 36.7802313,193.901351 37.1770747,194.2636 C37.8474602,194.877356 38.075412,195.715706 37.9407133,197.081906 C37.8868337,197.625281 37.7459181,197.926466 37.4361108,198.161411 C37.2040145,198.336326 36.9615566,198.558851 36.9118217,198.641651 C36.8610506,198.725486 36.3471229,198.781376 35.788641,198.766886 C34.2862313,198.724451 34.147388,198.708926 34.1390988,198.599216 C34.1266651,198.431546 32.8946892,197.988565 32.513388,198.014441 C32.3227373,198.028931 32.1155084,197.925431 32.0523036,197.786741 C31.9901349,197.644946 31.7487133,197.545586 31.5062554,197.563181 C30.9446651,197.602511 30.421412,197.359285 29.7406651,196.745531 C29.4308578,196.467116 28.8381831,196.017926 28.4548096,195.770561 C27.5057012,195.159911 27.4072675,195.067796 27.0580867,194.477846 C26.8912675,194.194255 26.6570988,193.881686 26.5203277,193.758521 C26.3866651,193.638461 26.2167373,193.317611 26.1400627,193.044371 C26.063388,192.772165 25.9317976,192.512381 25.8468337,192.464771 C25.7597976,192.417161 25.6831229,192.232931 25.669653,192.042491 C25.6561831,191.852051 25.5722554,191.579846 25.4769301,191.420456 C24.9132675,190.473431 24.4863759,189.034781 24.1693157,187.00411 C24.0657012,186.34999 23.8719422,185.393651 23.7341349,184.87615 C23.5973639,184.358651 23.4284723,183.21808 23.3580145,182.336261 C23.2336771,180.795145 23.2461108,180.717521 23.6854361,180.284891 C24.0584482,179.9185 24.1568819,179.618351 24.2252675,178.63924 C24.2698217,177.973736 24.3309542,177.178855 24.3610024,176.853865 L24.4169542,176.267021 L25.0552193,176.806255 C25.4064723,177.102265 25.6976289,177.406555 25.7028096,177.483146 C25.7079904,177.56077 25.8996771,177.791575 26.1307373,178.00168 C26.3617976,178.210751 27.0114602,178.84624 27.5792675,179.415491 C28.1429301,179.9806 29.1355566,180.917276 29.7696771,181.482385 C30.4048337,182.04646 30.9322313,182.53912 30.9343036,182.567066 C30.9436289,182.702651 32.1041108,183.773876 34.9866651,186.306521 C36.6393157,187.75759 38.0008096,188.990275 38.0039452,189.037886 C38.0070265,189.085496 37.7428096,189.594716 37.4143518,190.175351 M74.1581108,149.79586 C74.1301349,149.76895 74.0006169,149.250415 73.8731711,148.650115 C73.7446892,148.04878 73.3022554,146.714665 72.8919422,145.698295 C72.4826651,144.68296 72.1324482,143.66452 72.116906,143.44717 C72.0619904,142.66264 71.2113157,141.692845 70.2445928,141.314035 C69.1877253,140.90107 68.2189301,141.301615 67.7723518,142.33765 C67.5671952,142.812715 67.5703036,143.021785 67.8013639,143.77216 C67.952641,144.26068 68.3225446,145.1011 68.6385687,145.671385 C69.1400627,146.575975 69.5120386,147.629605 70.1264723,149.883835 C70.497412,151.241755 70.0207855,154.259815 69.1473157,156.077275 C68.9659904,156.45505 68.6634361,157.10296 68.4935084,157.4797 C68.3225446,157.85644 67.9723277,158.4319 67.7350506,158.724805 C67.4946651,159.018745 67.2988337,159.339595 67.3050506,159.424465 C67.3112675,159.517615 67.2490988,159.58489 67.1506651,159.5911 C67.057412,159.598345 66.9455084,159.780505 66.8926651,160.00924 C66.784906,160.48534 66.4139663,160.914865 65.7632675,161.31748 C65.494906,161.484115 64.8473157,162.13513 64.305412,162.782005 C63.7655807,163.42888 62.9677494,164.320015 62.5118458,164.785765 C62.0580145,165.249445 61.1213398,166.211996 60.4219422,166.93132 C58.4056048,169.00546 58.2294602,169.223845 58.2553639,169.60576 C58.2885205,170.064265 58.0377735,170.055985 57.7569783,169.587131 C57.2544482,168.75292 56.5757735,167.76967 56.3239904,167.511955 C56.177894,167.362915 55.9302554,166.930285 55.7883036,166.574245 C55.5240867,165.91495 53.720159,163.44751 53.4310747,163.35022 C53.3564723,163.32538 53.2808337,163.206355 53.2746169,163.10389 C53.2673639,162.991075 53.0166169,162.67747 52.7026651,162.3856 C52.3876771,162.094765 52.1410747,161.825665 52.1369301,161.77288 C52.1327855,161.722165 51.8892916,161.471695 51.6116048,161.23468 C51.3214843,160.987315 50.845894,160.426345 50.5298699,159.96163 C50.2148819,159.494845 49.6968096,158.888335 49.3538458,158.58094 C49.0108819,158.27458 48.7352675,157.94752 48.7280145,157.840915 C48.7207614,157.735345 48.4213157,157.44658 48.0565928,157.19197 C47.6897976,156.93736 47.2732675,156.4861 47.1188819,156.17767 C46.7147855,155.367265 45.8962313,154.942915 44.7098458,154.928425 C43.9430988,154.920145 43.6695566,154.98328 43.5110265,155.209945 C43.4011952,155.363125 43.1483759,155.5132 42.9743036,155.524585 C42.8012675,155.537005 42.6541349,155.66224 42.661388,155.79058 C42.6717494,155.92927 42.5919663,156.068995 42.4759181,156.11764 C42.1080867,156.269785 42.3723036,157.96822 42.8302795,158.389465 C43.0406169,158.584045 43.2219422,158.836585 43.2291952,158.944225 C43.2374843,159.05911 43.3763277,159.176065 43.5535084,159.2185 C43.7265446,159.258865 44.0322072,159.48967 44.2435807,159.736 C44.4539181,159.98233 45.0362313,160.56814 45.5532675,161.053555 C46.0713398,161.540005 46.5500386,162.071995 46.6308578,162.250015 C46.7064964,162.41872 46.8857494,162.562585 47.0090506,162.554305 C47.1364964,162.546025 47.3872434,162.74578 47.5613157,162.99418 C47.735388,163.243615 48.0970024,163.649335 48.3560386,163.88842 C48.6181831,164.13061 48.8337012,164.386255 48.8388819,164.462845 C48.8450988,164.541505 49.0792675,164.812675 49.3797494,165.087985 C49.6729783,165.357085 50.2811952,166.05157 50.7422795,166.646695 C51.2033639,167.240785 51.6157494,167.75311 51.6665205,167.794511 C51.8146892,167.91457 52.1234602,168.39481 53.253894,170.26609 C53.7895807,171.151015 54.3159422,171.99868 54.4143759,172.13323 C55.0557494,173.011945 56.170641,174.682435 56.1758217,174.77869 C56.1892916,174.970165 57.0783036,176.394325 57.2150747,176.444006 C57.2876048,176.470915 57.3477012,176.59408 57.3570265,176.73277 C57.3756771,176.996695 57.511412,177.261655 58.0388096,178.060676 C58.8501108,179.291291 59.7380867,180.90175 59.7567373,181.178095 C59.7691711,181.351975 59.8458458,181.523785 59.9318458,181.56622 C60.0157735,181.608655 60.2219663,182.085791 60.3898217,182.631236 C60.556641,183.175645 60.8022072,183.767665 60.9379422,183.949825 C61.3130265,184.458011 61.6435566,185.867681 61.9274602,188.17987 C62.0849542,189.45706 62.1222554,190.381315 62.0269301,190.62661 C60.907894,193.488385 60.721388,193.885825 60.2737735,194.36917 C60.126641,194.525455 60.0043759,194.759366 60.0116289,194.8639 C60.0178458,194.968435 59.9422072,195.069865 59.8510265,195.075041 C59.7577735,195.082285 59.6883518,195.235465 59.7007855,195.40831 C59.7132193,195.58426 59.5764482,195.88027 59.3982313,196.063466 C59.2117253,196.255975 59.0811711,196.556125 59.094641,196.763126 C59.1215807,197.230945 58.4387614,198.123115 58.027412,198.156235 C57.8564482,198.170726 57.1187133,198.615775 56.3882313,199.147765 C54.7480145,200.34112 52.7202795,201.486865 52.1814843,201.524125 C51.9556048,201.53965 51.742159,201.629695 51.6903518,201.73216 C51.6395807,201.832555 51.1132193,201.946405 50.5070747,201.987805 C49.4481349,202.06129 49.3859663,202.040591 48.5280386,201.333686 L47.6400627,200.602975 L47.6535325,199.436531 C47.6659663,198.416021 47.7820145,197.930605 48.4254602,196.21561 C48.7456289,195.365875 47.921894,193.188235 46.9323759,192.265016 C46.7230747,192.070436 46.5624723,191.865505 46.5572916,191.786845 C46.5510747,191.706115 46.4433157,191.6554 46.3044723,191.66368 C45.972906,191.687485 44.611412,190.372 44.2560145,189.68269 C44.0974843,189.3784 43.6612675,188.837095 43.2872193,188.48002 C42.9131711,188.12398 42.4427614,187.568185 42.2407133,187.247335 C41.8718458,186.65635 40.8191229,185.674135 39.4586651,184.651556 C39.0514602,184.34416 38.0401831,183.544106 37.1905446,182.85583 C36.3419422,182.167555 35.6052434,181.616935 35.5368578,181.621075 C35.4705446,181.62625 35.1213639,181.23295 34.7535325,180.73615 C34.3846651,180.239351 33.8717735,179.71564 33.5992675,179.55418 C33.3267614,179.393755 32.8594602,179.07187 32.5475807,178.826575 C32.2336289,178.582315 31.9393639,178.39084 31.8813398,178.39498 C31.8243518,178.39912 31.5622072,178.12174 31.3073157,177.79054 C30.5467855,176.79901 29.5603759,175.771255 29.3831952,175.783675 C29.1915084,175.796095 28.6931229,175.386235 28.6806892,175.206145 C28.6672193,175.00018 26.7897253,173.057485 25.6396048,172.057675 C25.2686651,171.736825 24.7288337,171.146875 24.4242072,170.732875 C24.1195807,170.318875 23.7071952,169.822075 23.4968578,169.61404 C22.6099181,168.735325 21.0867855,166.209925 21.040159,165.53821 C21.0225446,165.278425 20.925147,164.922385 20.8308578,164.769205 C20.1283518,163.632775 19.9501349,163.02109 19.6299663,160.658185 C19.2984,158.207305 19.2870024,157.41139 19.5304964,153.843745 C19.578159,153.15133 19.8164723,152.214655 20.1397494,151.444615 C20.4329783,150.744955 20.6630024,150.080485 20.6547133,149.956285 C20.6319181,149.618875 21.2453157,148.670815 21.9447133,147.962875 C22.6762313,147.22078 22.7000627,146.68879 22.0234602,146.101945 C21.2080145,145.391935 20.7220627,145.342255 20.0060867,145.88977 C18.6000386,146.967205 16.9515325,149.314585 17.0105928,150.15604 C17.0178458,150.277135 16.9712193,150.36718 16.8945446,150.37339 C16.8220145,150.37753 16.6810988,150.64042 16.5785205,150.960235 C16.474906,151.281085 16.3257012,151.6837 16.2448819,151.86172 C15.9205687,152.574835 15.7485687,158.44018 16.0127855,159.76084 C16.1215807,160.31146 16.2251952,161.012155 16.2376289,161.29471 C16.3070506,162.960025 17.6146651,167.36602 18.2902313,168.21679 C18.4870988,168.464156 18.6487373,168.712555 18.6528819,168.774655 C18.6559904,168.836755 18.8746169,169.1338 19.1326169,169.428775 C19.3906169,169.724785 19.6113157,170.041495 19.6164964,170.126365 C19.6310024,170.316805 20.4609542,171.74821 20.6267373,171.86827 C20.6868337,171.910705 20.860906,172.23259 21.0163277,172.587595 C21.1707133,172.9426 21.4214602,173.353495 21.5789542,173.506675 C22.3084,174.220825 22.3964723,174.510625 22.0545446,175.073665 C21.8670024,175.382095 21.6525205,175.62325 21.5582313,175.62946 C21.4711952,175.635671 21.4079904,175.8406 21.4235325,176.065195 C21.4390747,176.290825 21.3862313,176.535085 21.3116289,176.586835 C21.2328819,176.640655 21.1551711,177.129175 21.1354843,177.68704 C21.111653,178.38463 21.0007855,178.778965 20.7717976,178.983895 C20.2319663,179.467241 19.1958217,182.128225 19.2030747,183.01522 C19.2072193,183.44992 19.1657735,183.86599 19.1129301,183.927055 C18.9450747,184.119565 19.0797735,185.19907 19.269388,185.18665 C19.3781831,185.17837 19.4683277,185.495081 19.4766169,185.91115 C19.4859422,186.31066 19.5926651,186.802285 19.7087133,186.982375 C19.8268337,187.167641 20.1034843,188.05981 20.3272916,188.9851 C20.5500627,189.908321 20.7945928,190.687675 20.8743759,190.73011 C20.9531229,190.77151 21.1603518,191.46703 21.3292434,192.256735 C21.5706651,193.387991 21.770641,193.87444 22.2410506,194.480951 C22.5757253,194.910475 23.0171229,195.525265 23.2316048,195.856465 C23.7704,196.68964 24.6583759,197.70187 25.2593398,198.169691 C25.5442795,198.390145 26.2094843,198.9211 26.7441349,199.354765 C27.2798217,199.788431 28.0330988,200.2666 28.428906,200.420816 C28.8205687,200.57503 29.5976771,200.93935 30.1395807,201.22501 C30.6825205,201.509636 31.2565446,201.787015 31.4016048,201.83359 C31.5477012,201.8812 31.9372916,202.014715 32.2584964,202.13167 C32.5807373,202.246555 32.9630747,202.33453 33.0998458,202.32418 C33.2386892,202.314865 33.3557735,202.36972 33.3609542,202.445276 C33.3868578,202.829261 36.5491711,203.204965 38.3676048,203.04247 C39.1633639,202.97002 39.4431229,202.87273 39.6348096,202.594315 C39.7695084,202.397665 40.0575566,202.171 40.2792916,202.0882 C40.5010265,202.0054 41.0128819,201.540685 41.4345928,201.041815 C42.1049783,200.245901 42.2065205,200.00578 42.3287855,198.901435 C42.4904241,197.44519 42.231388,193.52668 41.9578458,193.28863 C41.7350747,193.095085 41.6273157,192.16255 41.8272916,192.1522 C42.2179181,192.13357 42.6986892,192.836335 42.9245687,193.76059 C42.9960627,194.04832 43.2654602,194.554435 43.5151711,194.86804 C43.9917976,195.46627 44.0011229,195.792295 43.5928819,197.24647 C43.1639181,198.77413 43.2986169,201.366805 43.8622795,202.465975 C44.1555084,203.03626 45.3180627,204.67984 46.0330024,205.534751 C46.2008578,205.73554 46.545894,205.924945 46.8101108,205.960135 C47.0753639,205.99429 47.6462795,206.073985 48.1032193,206.140225 C48.6306169,206.21578 49.1238217,206.184731 49.4906169,206.05225 C49.8045687,205.939436 50.3723759,205.823515 50.7536771,205.7935 C51.9846169,205.698281 54.5521831,204.710891 54.7138217,204.272051 C54.7417976,204.19753 54.8785687,204.121975 55.0008337,204.112661 C55.131388,204.103345 55.5593157,203.7442 55.963412,203.306396 C57.195388,201.97021 57.762159,201.499285 58.1880145,201.462025 C58.4024964,201.44443 58.8718699,201.277795 59.2075807,201.101845 C61.947147,199.66009 62.3730024,199.325785 63.1003759,198.03514 C63.344906,197.60044 63.7738699,197.088115 64.0712434,196.874906 C64.7343759,196.39777 65.9197253,194.655866 65.8876048,194.204605 C65.8751711,194.014165 65.9300867,193.779221 66.0088337,193.682965 C66.0886169,193.58671 66.2782313,192.941905 66.4326169,192.252595 C66.6512434,191.269345 66.6781831,190.530355 66.5600627,188.832955 C66.4771711,187.638565 66.3176048,186.448315 66.2015566,186.17818 C66.0865446,185.905975 65.9228337,185.18872 65.8347614,184.56772 C65.6285687,183.12079 65.4120145,182.335225 65.2213639,182.348681 C65.1332916,182.353856 65.0493639,182.1334 65.028641,181.838425 C65.0089542,181.544485 64.9167373,181.192586 64.8151952,181.026985 C64.7157253,180.861385 64.5250747,180.51673 64.376906,180.232105 C64.2297735,179.94541 63.9624482,179.534515 63.7624723,179.281975 C63.5697494,179.03875 63.3076048,178.582315 63.1863759,178.278025 C62.6921349,177.042236 59.7163277,171.958315 59.2407373,171.538105 C59.1464482,171.45427 59.0687373,171.28039 59.0583759,171.12514 C59.0438699,170.910895 59.2645687,170.838445 60.1484,170.77117 C61.1368819,170.69458 61.3358217,170.614885 61.9709783,170.044601 C62.3647133,169.69063 62.7201108,169.35736 62.7646651,169.30147 C62.8081831,169.246615 63.1076289,168.975445 63.4205446,168.708415 C63.731388,168.44035 64.2442795,167.94769 64.5385446,167.629945 C64.8297012,167.315305 65.1498699,167.03896 65.2286169,167.033785 C65.3125446,167.02861 65.4690024,166.91269 65.5933398,166.764685 C65.7114602,166.62496 66.2191711,166.251325 66.7040867,165.94807 C67.1869301,165.64585 67.7267614,165.30016 67.8790747,165.193555 C68.2282554,164.951365 69.0084723,163.899805 68.9950024,163.692805 C68.9887855,163.605865 69.4871711,163.00867 70.1202554,162.3442 C70.7533398,161.67973 71.249653,161.051485 71.2403277,160.92625 C71.2330747,160.805155 71.3056048,160.69648 71.3988578,160.689235 C71.4983277,160.683025 71.5667133,160.59919 71.5594602,160.49569 C71.5522072,160.39633 71.7480386,159.968875 71.9904964,159.55177 C72.2329542,159.134665 72.5116771,158.48986 72.6059663,158.12554 C72.7023277,157.753975 72.8453157,157.45693 72.933388,157.45072 C73.0224964,157.44451 73.0846651,157.36171 73.077412,157.257175 C73.070159,157.15885 73.2017494,156.735535 73.3675325,156.32464 C73.6783759,155.555635 73.9788578,154.141825 74.1632916,152.58001 C74.2658699,151.70233 74.2627614,149.892115 74.1581108,149.79586" id="Fill-12" fill="#E5555D"></path>
                <path d="M57.592853,49.143456 C57.528612,48.852621 57.4073831,48.561786 57.3120578,48.474846 C57.2188048,48.388941 57.1369494,48.200571 57.1255518,48.044286 C57.1027566,47.715156 56.5287325,47.216286 56.1982024,47.239056 C56.0759373,47.247336 55.8355518,47.149011 55.6697687,47.022741 C55.499841,46.893366 54.9372145,46.771236 54.396347,46.746396 C53.4524193,46.701891 53.4068289,46.720521 52.7198651,47.445021 C52.2649976,47.924226 51.9541542,48.461391 51.8443229,48.949911 C51.6402024,49.868991 51.708588,51.378021 51.9562265,51.361461 C52.0453349,51.355251 52.1365157,51.461856 52.1448048,51.582951 C52.1541301,51.711291 52.3271663,51.946236 52.5292145,52.104591 C52.7333349,52.262946 52.9053349,52.489611 52.912588,52.609671 C52.9219133,52.729731 53.3115036,52.957431 53.794347,53.121996 C54.4543711,53.347626 54.7828289,53.375571 55.1786361,53.234811 C55.4666843,53.132346 55.7464434,53.091981 55.8075759,53.144766 C56.0603952,53.360046 57.0903229,52.258806 57.4395036,51.399756 C57.8083711,50.492061 57.8280578,50.205366 57.592853,49.143456" id="Fill-15" fill="#E5555D"></path>
                <path d="M49.2389373,67.110435 C48.8120458,66.68091 48.1126482,66.723345 47.2536843,67.232565 C46.900359,67.441635 46.4237325,67.661055 46.1709133,67.7304 C45.925347,67.79664 45.6632024,67.90635 45.5948169,67.967415 C45.5285036,68.029515 45.0259735,68.091615 44.4871783,68.10507 C43.603347,68.12577 43.1723108,68.08851 41.9216843,67.88151 C41.6958048,67.84425 41.3777084,67.66623 41.1891301,67.47165 C40.1592024,66.4056 38.5044795,66.659175 38.2226482,67.92705 C38.1490819,68.26032 38.1480458,68.511825 38.2205759,68.551155 C38.2941422,68.58945 38.3210819,68.65776 38.2868892,68.724 C38.1646241,68.95584 38.5676843,69.72795 39.0536361,70.1937 C39.3344313,70.4628 39.6628892,70.809525 39.7820458,70.964775 C39.9188169,71.14176 40.1364072,71.23491 40.371612,71.21835 C40.5819494,71.20386 40.7881422,71.25354 40.844094,71.33013 C41.0337084,71.59302 42.1133711,71.902485 42.335106,71.757585 C42.549588,71.618895 43.0251783,71.654085 43.0365759,71.8083 C43.0500458,72.018405 45.4207446,71.894205 45.8124072,71.662365 C45.9761181,71.567145 46.3346241,71.413965 46.6299253,71.31564 C46.9386964,71.21421 47.3106723,70.954425 47.5272265,70.689465 C47.7292747,70.4421 48.1312988,70.012575 48.4141663,69.739335 C49.0793711,69.09867 49.6212747,68.19201 49.5922627,67.768695 C49.5787928,67.58757 49.4223349,67.294665 49.2389373,67.110435" id="Fill-17" fill="#E5555D"></path>
                <path d="M45.2349639,60.615396 C45.0453494,59.990256 44.9355181,59.891931 44.1718795,59.680791 C43.0880723,59.381676 42.8020964,59.408586 42.147253,59.871231 C41.6416145,60.228306 41.6032771,60.327666 41.6602651,61.142211 C41.71,61.851186 41.8374458,62.163756 42.3140723,62.731971 C43.0155422,63.570321 43.4434699,63.694521 44.1946747,63.272241 C45.164506,62.727831 45.5644578,61.706286 45.2349639,60.615396" id="Fill-19" fill="#E5555D"></path>
                <path d="M33.7706458,47.8021995 C33.5603084,47.5030845 33.1904048,47.1563595 32.926188,47.0073195 C32.4392,46.7371845 31.2310554,46.6916445 30.2529349,46.9089945 C29.622959,47.0476845 28.7370554,47.9429595 28.3567904,48.8206395 C28.0863566,49.4488845 28.0086458,50.9185845 28.2345253,51.1618095 C28.3277783,51.2632395 28.4697301,51.5799495 28.5588386,51.8873445 C28.8209831,52.7971095 30.8290313,53.9469945 31.7905735,53.7368895 C32.510694,53.5795695 34.0276096,51.5892645 33.9778747,50.8678695 C33.965441,50.6950245 34.0338265,50.4828495 34.1208627,50.4197145 C34.424453,50.2033995 34.180959,48.3828345 33.7706458,47.8021995" id="Fill-21" fill="#E5555D"></path>
                <path d="M36.6079205,110.54804 C36.0784506,109.887709 35.9064506,109.77593 35.2940892,109.684849 C34.6610048,109.590665 34.0558964,109.938424 33.7802819,110.55218 C33.6559446,110.83163 33.7118964,111.080029 34.0341373,111.66584 C34.5573904,112.621144 34.8454386,112.828145 35.5790289,112.776395 C36.7757759,112.693595 37.3435831,111.464015 36.6079205,110.54804" id="Fill-23" fill="#E5555D"></path>
                <path d="M32.3661518,110.410591 C32.2697904,110.359876 32.1765373,110.194276 32.167212,110.054551 C32.1185133,109.343506 30.747694,108.939856 29.873188,109.379731 C29.4514771,109.590871 29.3582241,109.745086 29.3882723,110.177716 C29.4338627,110.835976 30.1063205,112.054171 30.683453,112.525096 C31.292706,113.020861 32.2573566,112.850086 32.295694,112.239436 C32.3112361,111.994141 32.3848024,111.728146 32.4625133,111.636031 C32.6635253,111.394876 32.5961759,110.532721 32.3661518,110.410591" id="Fill-25" fill="#E5555D"></path>
                <path d="M28.341041,109.206783 C27.8727036,108.055863 27.1619084,107.751573 26.1185108,108.253548 C25.7651855,108.424323 25.424294,108.726543 25.3797398,108.907668 C25.0958361,110.057553 26.8780048,111.344058 27.9483422,110.763423 C28.4394747,110.496393 28.6021494,109.849518 28.341041,109.206783" id="Fill-27" fill="#E5555D"></path>
                <path d="M23.473959,108.743931 C22.8937181,107.461566 22.1031398,106.961661 21.3747301,107.419131 C20.6774048,107.856936 21.3260313,110.473416 22.1984651,110.740446 C22.7849229,110.920536 23.2926337,110.762181 23.5413084,110.322306 C23.8241759,109.824471 23.8096699,109.486026 23.473959,108.743931" id="Fill-29" fill="#E5555D"></path>
                <path d="M16.4081783,118.004283 C16.3501542,117.834543 16.2320337,117.703098 16.1398169,117.709308 C16.0517446,117.716553 15.9678169,117.617193 15.9595277,117.496098 C15.9356964,117.150408 14.6177205,116.481798 13.703841,116.352423 C12.7536964,116.217873 11.5061783,116.375193 10.9912145,116.692938 C10.357094,117.086238 9.88046747,117.755883 9.91155181,118.211283 C9.94988916,118.748448 10.7166361,119.817603 11.0502747,119.798973 C11.1694313,119.793798 11.3279614,119.939733 11.3839133,120.110508 C11.5082506,120.484143 12.4863711,120.678723 12.7464434,120.381678 C12.8345157,120.279213 13.5919373,120.147768 14.4239614,120.090843 C15.8642024,119.991483 15.9574554,119.961468 16.2641542,119.510208 C16.5812145,119.047563 16.6195518,118.632528 16.4081783,118.004283" id="Fill-31" fill="#E5555D"></path>
                <path d="M15.8040024,122.448573 C15.5843398,121.828608 14.805159,121.431168 13.4871831,121.265568 C11.694653,121.043043 9.79229157,121.502583 9.83684578,122.149458 C9.84927952,122.322303 9.76949639,122.498253 9.65552048,122.545863 C9.20583373,122.732163 10.4637133,124.889103 11.0004361,124.852878 C11.142388,124.842528 11.3993518,124.951203 11.5661711,125.091963 C11.7816892,125.273088 12.0521229,125.308278 12.4810867,125.210988 C12.819906,125.134398 13.3897855,125.002953 13.765906,124.913943 C14.1430627,124.823898 14.5388699,124.638633 14.6600988,124.494768 C14.7854723,124.346763 14.9823398,124.228773 15.1211831,124.219458 C15.328412,124.203933 16.0412795,123.122358 15.972894,122.924673 C15.9594241,122.887413 15.8827494,122.670063 15.8040024,122.448573" id="Fill-33" fill="#E5555D"></path>
            </g>
        </g>
    </g>
</svg>