<?xml version="1.0" encoding="UTF-8"?>
<svg width="377px" height="561px" viewBox="0 0 377 561" version="1.1" xmlns="http://www.w3.org/2000/svg" xmlns:xlink="http://www.w3.org/1999/xlink">
    <!-- Generator: Sketch 61 (89581) - https://sketch.com -->
    <title>img-bg-object1</title>
    <desc>Created with Sketch.</desc>
    <defs>
        <polygon id="path-1" points="5.27279408e-05 1570 2836.00005 1570 2836.00005 0 5.27279408e-05 0"></polygon>
    </defs>
    <g id="Page-1" stroke="none" stroke-width="1" fill="none" fill-rule="evenodd">
        <g id="200318_kodomonooka-ver2" transform="translate(0.000000, -1255.000000)">
            <g id="Group-25" transform="translate(-692.000000, 1002.000000)">
                <mask id="mask-2" fill="white">
                    <use xlink:href="#path-1"></use>
                </mask>
                <g id="Mask"></g>
                <path d="M893.633953,608.711225 C895.153953,608.525225 896.670953,608.326225 898.186953,608.109225 C975.007953,597.117225 1042.58795,537.293225 1062.81695,462.371225 C1068.71295,440.535225 1070.84995,417.407225 1066.51395,395.208225 C1063.56495,380.108225 1057.67395,365.675225 1050.09895,352.285225 C1009.07195,279.769225 918.313953,243.075225 835.901953,255.326225 C785.092953,262.879225 735.069953,288.824225 708.301953,332.666225 C698.749953,348.310225 692.350953,365.773225 682.127953,380.986225 C661.565953,411.591225 627.572953,429.837225 592.932953,439.938225 C561.853953,449.001225 522.858953,447.826225 504.185953,479.653225 C490.061953,503.730225 498.053953,534.221225 494.324953,561.885225 C490.158953,592.788225 469.815953,621.049225 441.831953,634.808225 C422.864953,644.133225 401.413953,646.900225 380.356953,648.696225 C338.408953,652.274225 296.111953,652.535225 254.547953,659.224225 C212.983953,665.911225 171.402953,679.615225 139.203953,706.736225 C127.977953,716.193225 117.437953,728.556225 117.013953,743.228225 C116.289953,768.308225 143.877953,783.891225 168.058953,790.588225 C205.269953,800.894225 244.023953,804.192225 282.556953,806.647225 C357.905953,811.445225 433.421953,813.193225 508.922953,813.595225 C577.315953,813.959225 645.923953,813.206225 713.720953,804.188225 C729.397953,802.103225 745.269953,799.501225 759.536953,792.681225 C773.804953,785.860225 786.469953,774.209225 791.085953,759.084225 C803.648953,717.923225 756.225953,674.732225 791.982953,637.327225 C804.958953,623.752225 823.648953,617.069225 842.164953,613.936225 C859.172953,611.059225 876.514953,610.796225 893.633953,608.711225" id="Fill-7" fill="#9AE1E9" mask="url(#mask-2)"></path>
            </g>
        </g>
    </g>
</svg>