<?xml version="1.0" encoding="UTF-8"?>
<svg width="117px" height="86px" viewBox="0 0 117 86" version="1.1" xmlns="http://www.w3.org/2000/svg" xmlns:xlink="http://www.w3.org/1999/xlink">
    <!-- Generator: Sketch 61 (89581) - https://sketch.com -->
    <title>img-cloud</title>
    <desc>Created with Sketch.</desc>
    <g id="Page-1" stroke="none" stroke-width="1" fill="none" fill-rule="evenodd">
        <g id="200318_kodomonooka-ver2" transform="translate(-1178.000000, -5424.000000)">
            <g id="Group-78-Copy" transform="translate(1046.000000, 5506.000000)"></g>
            <g id="Group-6" transform="translate(1178.000000, 5425.000000)">
                <path d="M110.7411,61.233 C110.5771,61.285 110.5661,61.724 110.7091,62.622 C110.8681,63.629 110.8471,64.071 110.6211,64.516 C110.4551,64.841 110.2581,65.491 110.1721,65.994 C110.0861,66.498 109.9371,66.945 109.8331,67.012 C109.7271,67.08 109.6461,67.319 109.6461,67.56 C109.6461,67.8 109.5521,67.987 109.4281,67.987 C109.3031,67.987 109.2091,68.151 109.2091,68.37 C109.2091,68.586 108.9221,69.059 108.5521,69.454 C108.1821,69.848 107.8941,70.212 107.8941,70.286 C107.8941,70.492 105.3541,73.041 104.8731,73.318 C104.6311,73.458 103.8331,73.938 103.0891,74.391 C102.3441,74.845 101.6091,75.212 101.4461,75.212 C101.2871,75.212 100.7571,75.41 100.2971,75.64 C98.5221,76.527 96.5851,77.377 95.7421,77.636 C95.2601,77.785 94.6691,77.99 94.4281,78.092 C93.6391,78.428 91.1721,78.236 90.9151,77.819 C90.8471,77.71 90.5091,77.622 90.1581,77.622 C89.8071,77.622 89.4741,77.543 89.4151,77.446 C89.2791,77.224 90.5301,74.556 90.7711,74.556 C90.8561,74.556 90.8901,74.118 90.8471,73.571 C90.7861,72.782 90.6901,72.586 90.3661,72.586 C90.1471,72.586 89.9051,72.495 89.8411,72.388 C89.6591,72.091 88.3181,72.46 87.8151,72.944 C86.9831,73.744 86.1741,74.365 85.6691,74.592 C85.3961,74.714 85.0401,75.059 84.8911,75.344 C84.7431,75.629 84.4471,75.87 84.2461,75.87 C84.0441,75.87 83.6331,76.055 83.3471,76.275 C83.0631,76.494 82.6461,76.74 82.4391,76.811 C82.2261,76.884 82.0551,77.118 82.0551,77.337 C82.0551,78.001 79.6691,78.967 77.4581,79.2 C76.4281,79.308 74.9601,79.501 74.1731,79.63 C72.6231,79.887 71.8301,79.899 67.2751,79.728 C64.0781,79.608 63.4581,79.542 61.8881,79.152 C61.3631,79.022 60.6771,78.864 60.3781,78.804 C60.0711,78.743 59.6331,78.656 59.3821,78.607 C59.1331,78.558 58.7031,78.319 58.4181,78.071 C58.1341,77.822 57.7271,77.622 57.5091,77.622 C57.2901,77.622 57.0561,77.524 56.9831,77.403 C56.9141,77.288 56.6551,77.183 56.4361,77.183 C56.2051,77.183 55.7581,76.94 55.4281,76.636 C55.1001,76.332 54.7201,76.088 54.5751,76.088 C54.4261,76.088 54.0601,75.804 53.7321,75.432 C53.4031,75.059 53.0661,74.775 52.9541,74.775 C52.8501,74.775 52.7071,74.578 52.6511,74.359 C52.4691,73.648 50.8081,72.947 49.4281,73 C48.7501,73.025 48.0721,73.183 47.8741,73.363 C47.6781,73.541 47.4191,73.68 47.2831,73.68 C46.9681,73.68 46.7521,74.403 46.9281,74.863 C47.0051,75.059 46.9591,75.212 46.8231,75.212 C46.6861,75.212 46.5821,75.498 46.5821,75.87 C46.5821,76.242 46.5451,76.527 46.4951,76.527 C46.4471,76.527 45.6301,76.671 44.6881,76.844 C43.7471,77.018 42.5231,77.214 41.9841,77.279 C39.9261,77.523 39.2101,77.63 38.0641,77.865 C36.5631,78.171 30.0721,78.179 28.1881,77.877 C19.4081,76.464 13.7531,74.519 11.1961,72.03 C10.5831,71.433 9.8911,70.785 9.6631,70.592 C8.9191,69.965 8.2621,68.994 8.0371,68.184 C7.9221,67.768 7.5741,67.182 7.2761,66.903 C6.9701,66.615 6.7291,66.234 6.7291,66.038 C6.7291,65.847 6.5441,65.337 6.3241,64.921 C6.0981,64.495 5.8561,63.596 5.7761,62.895 C5.6971,62.195 5.5761,61.394 5.5031,61.089 C5.4291,60.783 5.46400195,60.421 5.5801,60.268 C5.6931,60.118 5.8071,59.304 5.8321,58.472 C5.8551,57.64 5.9601,56.846 6.0611,56.72 C6.1631,56.595 6.2911,55.943 6.3441,55.286 C6.4521,53.928 7.2451,51.96 7.9831,51.213 C8.2641,50.928 8.4811,50.615 8.4811,50.491 C8.4811,50.371 8.6781,50.212 8.9191,50.14 C9.1601,50.068 9.3591,49.89 9.3621,49.747 C9.3801,48.901 12.0071,47.041 14.1751,46.337 C14.5911,46.203 15.0781,45.869 15.2421,45.608 C15.7071,44.863 15.5981,43.289 15.0421,42.695 C14.6451,42.274 14.5941,42.039 14.7211,41.25 C14.8061,40.73 14.9011,39.367 14.9341,38.207 C14.9931,36.104 15.1781,35.46 15.9591,34.615 C16.1811,34.375 16.3641,34.049 16.3641,33.892 C16.3641,33.586 16.7931,32.712 17.0431,32.51 C17.1171,32.45 17.3201,32.119 17.5121,31.747 C17.8951,31.003 20.0841,28.865 20.3711,28.955 C20.4701,28.986 20.7881,28.725 21.1041,28.352 C21.4211,27.98 21.8341,27.696 22.0571,27.696 C22.2761,27.696 22.5721,27.549 22.7221,27.367 C23.0631,26.954 24.6851,26.224 25.6711,26.042 C26.0871,25.964 26.4361,25.82 26.4361,25.725 C26.4361,25.628 26.7551,25.476 27.1481,25.385 C27.5431,25.295 28.0551,25.099 28.2981,24.948 C28.5511,24.79 30.3561,24.557 32.5681,24.398 C36.9471,24.083 36.4451,24.084 39.2471,24.382 C42.2241,24.701 43.0511,24.93 44.3921,25.814 C45.0271,26.233 45.8311,26.638 46.1661,26.711 C46.4951,26.781 46.8351,27.019 46.9001,27.225 C46.9681,27.441 47.3591,27.938 47.7981,28.364 C48.2351,28.789 48.6631,29.33 48.7751,29.6 C49.0491,30.257 50.6171,31.229 51.1151,31.05 C51.9471,30.752 52.7141,30.067 52.7141,29.623 C52.7141,29.36 52.8491,29.007 53.0311,28.801 C53.3151,28.478 53.2841,28.341 52.7351,27.509 C52.4041,27.005 51.8821,26.413 51.5961,26.217 C51.3031,26.015 50.8821,25.615 50.6391,25.309 C49.3271,23.644 47.7801,22.44 46.9551,22.44 C46.7861,22.44 46.4701,22.243 46.2541,22.003 C46.0371,21.761 45.7761,21.619 45.6741,21.685 C45.5691,21.753 45.3341,21.657 45.1371,21.465 C44.9401,21.275 44.7051,21.174 44.6001,21.236 C44.4891,21.301 44.3661,21.262 44.2941,21.137 C44.2271,21.022 43.7351,20.866 43.1881,20.787 C42.3341,20.664 42.2031,20.573 42.2031,20.108 C42.2031,19.824 42.3051,19.377 42.4221,19.156 C42.5431,18.925 42.6751,18.368 42.7181,17.908 C42.7591,17.458 43.0601,16.648 43.3751,16.145 C43.6881,15.641 43.9551,15.074 43.9551,14.908 C43.9551,14.736 44.4121,14.119 44.9951,13.506 C45.5771,12.893 46.4241,11.987 46.9191,11.448 C48.5871,9.63 50.2161,8.426 51.0061,8.426 C51.1781,8.426 51.6191,8.171 52.0121,7.844 C53.9281,6.254 59.2391,5.206 64.7571,5.326 C67.0341,5.375 70.6431,5.855 71.8741,6.272 C72.5961,6.517 73.7291,6.862 74.3911,7.038 C75.5831,7.354 78.8591,8.873 80.3041,9.778 C81.1531,10.31 83.5231,12.05 84.6621,12.977 C85.4501,13.62 88.1871,16.801 88.1871,17.076 C88.1871,17.173 88.3181,17.404 88.4871,17.601 C89.2381,18.477 90.8151,22.111 90.8151,22.965 C90.8151,23.272 90.8951,23.535 90.9901,23.535 C91.1781,23.535 91.6381,26.601 91.7971,28.9 C91.9181,30.652 91.7101,31.893 91.2751,32.015 C90.5701,32.213 89.8811,33.367 89.8661,34.375 C89.8541,35.163 89.9691,35.462 90.4941,36.016 C91.5291,37.112 94.1081,38.272 94.9971,38.044 C95.4791,37.92 98.0971,38.383 98.2631,38.623 C98.3231,38.709 98.8511,39.006 99.4651,39.301 C100.0781,39.595 100.9061,40.193 101.3471,40.659 C101.7831,41.119 102.2241,41.493 102.3331,41.495 C102.7491,41.503 105.7051,44.283 105.7051,44.666 C105.7051,44.81 105.9021,45.106 106.1431,45.323 C106.3841,45.54 106.5811,45.806 106.5811,45.915 C106.5811,46.021 106.8731,46.483 107.2161,46.921 C107.5651,47.367 107.9841,48.126 108.1461,48.608 C108.3091,49.089 108.5021,49.535 108.5741,49.597 C108.7601,49.759 109.0451,50.512 109.1431,51.104 C109.1901,51.388 109.3261,51.81 109.4381,52.023 C109.5541,52.244 109.6461,52.746 109.6461,53.162 C109.6461,53.578 109.7151,53.969 109.8001,54.049 C109.8851,54.128 109.9921,54.651 110.0411,55.22 C110.0901,55.79 110.2171,56.421 110.3251,56.633 C110.4331,56.842 110.5321,57.542 110.5451,58.176 C110.5561,58.812 110.6461,59.586 110.7421,59.884 C111.0021,60.695 111.0021,61.152 110.7411,61.233" id="Fill-1" fill="#FFFFFF"></path>
                <path d="M110.7411,61.233 C110.5771,61.285 110.5661,61.724 110.7091,62.622 C110.8681,63.629 110.8471,64.071 110.6211,64.516 C110.4551,64.841 110.2581,65.491 110.1721,65.994 C110.0861,66.498 109.9371,66.945 109.8331,67.012 C109.7271,67.08 109.6461,67.319 109.6461,67.56 C109.6461,67.8 109.5521,67.987 109.4281,67.987 C109.3031,67.987 109.2091,68.151 109.2091,68.37 C109.2091,68.586 108.9221,69.059 108.5521,69.454 C108.1821,69.848 107.8941,70.212 107.8941,70.286 C107.8941,70.492 105.3541,73.041 104.8731,73.318 C104.6311,73.458 103.8331,73.938 103.0891,74.391 C102.3441,74.845 101.6091,75.212 101.4461,75.212 C101.2871,75.212 100.7571,75.41 100.2971,75.64 C98.5221,76.527 96.5851,77.377 95.7421,77.636 C95.2601,77.785 94.6691,77.99 94.4281,78.092 C93.6391,78.428 91.1721,78.236 90.9151,77.819 C90.8471,77.71 90.5091,77.622 90.1581,77.622 C89.8071,77.622 89.4741,77.543 89.4151,77.446 C89.2791,77.224 90.5301,74.556 90.7711,74.556 C90.8561,74.556 90.8901,74.118 90.8471,73.571 C90.7861,72.782 90.6901,72.586 90.3661,72.586 C90.1471,72.586 89.9051,72.495 89.8411,72.388 C89.6591,72.091 88.3181,72.46 87.8151,72.944 C86.9831,73.744 86.1741,74.365 85.6691,74.592 C85.3961,74.714 85.0401,75.059 84.8911,75.344 C84.7431,75.629 84.4471,75.87 84.2461,75.87 C84.0441,75.87 83.6331,76.055 83.3471,76.275 C83.0631,76.494 82.6461,76.74 82.4391,76.811 C82.2261,76.884 82.0551,77.118 82.0551,77.337 C82.0551,78.001 79.6691,78.967 77.4581,79.2 C76.4281,79.308 74.9601,79.501 74.1731,79.63 C72.6231,79.887 71.8301,79.899 67.2751,79.728 C64.0781,79.608 63.4581,79.542 61.8881,79.152 C61.3631,79.022 60.6771,78.864 60.3781,78.804 C60.0711,78.743 59.6331,78.656 59.3821,78.607 C59.1331,78.558 58.7031,78.319 58.4181,78.071 C58.1341,77.822 57.7271,77.622 57.5091,77.622 C57.2901,77.622 57.0561,77.524 56.9831,77.403 C56.9141,77.288 56.6551,77.183 56.4361,77.183 C56.2051,77.183 55.7581,76.94 55.4281,76.636 C55.1001,76.332 54.7201,76.088 54.5751,76.088 C54.4261,76.088 54.0601,75.804 53.7321,75.432 C53.4031,75.059 53.0661,74.775 52.9541,74.775 C52.8501,74.775 52.7071,74.578 52.6511,74.359 C52.4691,73.648 50.8081,72.947 49.4281,73 C48.7501,73.025 48.0721,73.183 47.8741,73.363 C47.6781,73.541 47.4191,73.68 47.2831,73.68 C46.9681,73.68 46.7521,74.403 46.9281,74.863 C47.0051,75.059 46.9591,75.212 46.8231,75.212 C46.6861,75.212 46.5821,75.498 46.5821,75.87 C46.5821,76.242 46.5451,76.527 46.4951,76.527 C46.4471,76.527 45.6301,76.671 44.6881,76.844 C43.7471,77.018 42.5231,77.214 41.9841,77.279 C39.9261,77.523 39.2101,77.63 38.0641,77.865 C36.5631,78.171 30.0721,78.179 28.1881,77.877 C19.4081,76.464 13.7531,74.519 11.1961,72.03 C10.5831,71.433 9.8911,70.785 9.6631,70.592 C8.9191,69.965 8.2621,68.994 8.0371,68.184 C7.9221,67.768 7.5741,67.182 7.2761,66.903 C6.9701,66.615 6.7291,66.234 6.7291,66.038 C6.7291,65.847 6.5441,65.337 6.3241,64.921 C6.0981,64.495 5.8561,63.596 5.7761,62.895 C5.6971,62.195 5.5761,61.394 5.5031,61.089 C5.4291,60.783 5.46400195,60.421 5.5801,60.268 C5.6931,60.118 5.8071,59.304 5.8321,58.472 C5.8551,57.64 5.9601,56.846 6.0611,56.72 C6.1631,56.595 6.2911,55.943 6.3441,55.286 C6.4521,53.928 7.2451,51.96 7.9831,51.213 C8.2641,50.928 8.4811,50.615 8.4811,50.491 C8.4811,50.371 8.6781,50.212 8.9191,50.14 C9.1601,50.068 9.3591,49.89 9.3621,49.747 C9.3801,48.901 12.0071,47.041 14.1751,46.337 C14.5911,46.203 15.0781,45.869 15.2421,45.608 C15.7071,44.863 15.5981,43.289 15.0421,42.695 C14.6451,42.274 14.5941,42.039 14.7211,41.25 C14.8061,40.73 14.9011,39.367 14.9341,38.207 C14.9931,36.104 15.1781,35.46 15.9591,34.615 C16.1811,34.375 16.3641,34.049 16.3641,33.892 C16.3641,33.586 16.7931,32.712 17.0431,32.51 C17.1171,32.45 17.3201,32.119 17.5121,31.747 C17.8951,31.003 20.0841,28.865 20.3711,28.955 C20.4701,28.986 20.7881,28.725 21.1041,28.352 C21.4211,27.98 21.8341,27.696 22.0571,27.696 C22.2761,27.696 22.5721,27.549 22.7221,27.367 C23.0631,26.954 24.6851,26.224 25.6711,26.042 C26.0871,25.964 26.4361,25.82 26.4361,25.725 C26.4361,25.628 26.7551,25.476 27.1481,25.385 C27.5431,25.295 28.0551,25.099 28.2981,24.948 C28.5511,24.79 30.3561,24.557 32.5681,24.398 C36.9471,24.083 36.4451,24.084 39.2471,24.382 C42.2241,24.701 43.0511,24.93 44.3921,25.814 C45.0271,26.233 45.8311,26.638 46.1661,26.711 C46.4951,26.781 46.8351,27.019 46.9001,27.225 C46.9681,27.441 47.3591,27.938 47.7981,28.364 C48.2351,28.789 48.6631,29.33 48.7751,29.6 C49.0491,30.257 50.6171,31.229 51.1151,31.05 C51.9471,30.752 52.7141,30.067 52.7141,29.623 C52.7141,29.36 52.8491,29.007 53.0311,28.801 C53.3151,28.478 53.2841,28.341 52.7351,27.509 C52.4041,27.005 51.8821,26.413 51.5961,26.217 C51.3031,26.015 50.8821,25.615 50.6391,25.309 C49.3271,23.644 47.7801,22.44 46.9551,22.44 C46.7861,22.44 46.4701,22.243 46.2541,22.003 C46.0371,21.761 45.7761,21.619 45.6741,21.685 C45.5691,21.753 45.3341,21.657 45.1371,21.465 C44.9401,21.275 44.7051,21.174 44.6001,21.236 C44.4891,21.301 44.3661,21.262 44.2941,21.137 C44.2271,21.022 43.7351,20.866 43.1881,20.787 C42.3341,20.664 42.2031,20.573 42.2031,20.108 C42.2031,19.824 42.3051,19.377 42.4221,19.156 C42.5431,18.925 42.6751,18.368 42.7181,17.908 C42.7591,17.458 43.0601,16.648 43.3751,16.145 C43.6881,15.641 43.9551,15.074 43.9551,14.908 C43.9551,14.736 44.4121,14.119 44.9951,13.506 C45.5771,12.893 46.4241,11.987 46.9191,11.448 C48.5871,9.63 50.2161,8.426 51.0061,8.426 C51.1781,8.426 51.6191,8.171 52.0121,7.844 C53.9281,6.254 59.2391,5.206 64.7571,5.326 C67.0341,5.375 70.6431,5.855 71.8741,6.272 C72.5961,6.517 73.7291,6.862 74.3911,7.038 C75.5831,7.354 78.8591,8.873 80.3041,9.778 C81.1531,10.31 83.5231,12.05 84.6621,12.977 C85.4501,13.62 88.1871,16.801 88.1871,17.076 C88.1871,17.173 88.3181,17.404 88.4871,17.601 C89.2381,18.477 90.8151,22.111 90.8151,22.965 C90.8151,23.272 90.8951,23.535 90.9901,23.535 C91.1781,23.535 91.6381,26.601 91.7971,28.9 C91.9181,30.652 91.7101,31.893 91.2751,32.015 C90.5701,32.213 89.8811,33.367 89.8661,34.375 C89.8541,35.163 89.9691,35.462 90.4941,36.016 C91.5291,37.112 94.1081,38.272 94.9971,38.044 C95.4791,37.92 98.0971,38.383 98.2631,38.623 C98.3231,38.709 98.8511,39.006 99.4651,39.301 C100.0781,39.595 100.9061,40.193 101.3471,40.659 C101.7831,41.119 102.2241,41.493 102.3331,41.495 C102.7491,41.503 105.7051,44.283 105.7051,44.666 C105.7051,44.81 105.9021,45.106 106.1431,45.323 C106.3841,45.54 106.5811,45.806 106.5811,45.915 C106.5811,46.021 106.8731,46.483 107.2161,46.921 C107.5651,47.367 107.9841,48.126 108.1461,48.608 C108.3091,49.089 108.5021,49.535 108.5741,49.597 C108.7601,49.759 109.0451,50.512 109.1431,51.104 C109.1901,51.388 109.3261,51.81 109.4381,52.023 C109.5541,52.244 109.6461,52.746 109.6461,53.162 C109.6461,53.578 109.7151,53.969 109.8001,54.049 C109.8851,54.128 109.9921,54.651 110.0411,55.22 C110.0901,55.79 110.2171,56.421 110.3251,56.633 C110.4331,56.842 110.5321,57.542 110.5451,58.176 C110.5561,58.812 110.6461,59.586 110.7421,59.884 C111.0021,60.695 111.0021,61.152 110.7411,61.233 M116.4571,60.947 C116.3071,60.899 116.2081,59.951 116.1941,58.462 C116.1811,57.126 116.1131,55.955 116.0411,55.834 C115.9691,55.713 115.8851,55.035 115.8541,54.334 C115.8191,53.502 115.6741,52.911 115.4381,52.648 C115.2401,52.425 115.0231,51.794 114.9571,51.246 C114.8901,50.699 114.7531,50.25 114.6501,50.25 C114.5471,50.25 114.4641,50.075 114.4641,49.856 C114.4641,49.002 112.7601,45.055 112.1861,44.583 C111.9901,44.421 111.8371,44.155 111.8371,43.976 C111.8371,43.797 111.5491,43.352 111.1791,42.958 C110.8101,42.564 110.5221,42.157 110.5221,42.027 C110.5221,41.9 109.7231,41.067 108.7381,40.166 C107.7531,39.265 106.6541,38.212 106.2851,37.812 C105.9161,37.413 105.2451,36.879 104.7851,36.619 C104.3261,36.359 103.9531,36.08 103.9531,35.995 C103.9531,35.812 101.1941,34.046 100.9101,34.046 C100.4381,34.046 97.4501,32.654 96.9681,32.211 C96.5141,31.793 96.4771,31.615 96.5911,30.433 C96.7521,28.747 96.7771,26.206 96.6381,25.505 C96.5791,25.206 96.4111,24.236 96.2671,23.36 C96.1241,22.484 95.9211,21.712 95.8181,21.652 C95.7141,21.59 95.6331,21.356 95.6331,21.116 C95.6331,20.879 95.4371,20.371 95.1941,19.977 C94.9521,19.583 94.7571,19.138 94.7571,18.98 C94.7571,18.587 93.0201,14.995 92.8301,14.995 C92.7461,14.995 92.5521,14.721 92.4021,14.393 C92.2551,14.067 91.7871,13.419 91.3851,12.981 C90.9691,12.528 90.3791,11.634 90.0491,10.955 C89.7191,10.276 89.3321,9.74 89.1731,9.74 C89.0161,9.74 88.4711,9.393 87.9691,8.973 C87.4651,8.553 86.9791,8.207 86.8951,8.207 C86.8131,8.207 86.5341,8.014 86.2931,7.791 C86.0431,7.559 85.5491,7.219 85.1771,7.025 C84.8041,6.83 84.3241,6.446 84.0931,6.16 C83.8621,5.875 83.4701,5.577 83.2171,5.492 C82.9541,5.404 82.7051,5.203 82.6371,5.021 C82.5721,4.853 82.3411,4.704 82.1431,4.704 C81.9401,4.704 81.3341,4.45 80.8071,4.145 C80.2791,3.838 79.3411,3.433 78.7271,3.248 C78.1141,3.061 77.4031,2.78 77.1511,2.624 C76.8971,2.466 76.2101,2.225 75.6181,2.087 C75.0271,1.948 74.2501,1.682 73.8881,1.496 C73.5271,1.309 72.7271,1.125 72.1151,1.086 C70.4941,0.984 69.8131,0.858 68.6331,0.444 C68.0631,0.245 67.5251,0.132 67.4281,0.193 C67.3291,0.255 67.1221,0.217 66.9471,0.105 C66.7711,-0.007 66.5271,0.002 66.3781,0.127 C66.2041,0.271 65.7201,0.275 64.9541,0.138 C64.3191,0.024 63.5911,-0.031 63.3451,0.017 C63.0981,0.065 61.5601,0.155 59.9391,0.214 C58.3191,0.274 56.8051,0.383 56.5901,0.456 C56.3701,0.528 55.9321,0.624 55.6041,0.67 C53.8301,0.919 52.0131,1.439 51.1591,1.944 C50.6321,2.255 49.5061,2.871 48.6741,3.302 C47.8421,3.733 46.8981,4.264 46.5941,4.473 C46.2911,4.681 45.5531,5.165 44.9841,5.529 C43.7581,6.314 42.2031,7.689 42.2031,7.988 C42.2031,8.096 42.0061,8.244 41.7641,8.316 C41.5291,8.387 41.2621,8.711 41.1841,9.017 C41.1051,9.335 40.5711,10.057 39.9801,10.648 C39.3891,11.24 38.9181,11.846 38.9181,12.017 C38.9181,12.18 38.7651,12.446 38.5901,12.587 C38.4121,12.729 38.2621,13.09 38.2621,13.375 C38.2621,13.66 38.1311,13.9 37.9761,13.9 C37.8141,13.9 37.5651,14.393 37.3961,15.049 C37.2331,15.685 36.9931,16.337 36.8601,16.506 C36.7261,16.675 36.6191,17.36 36.6191,18.039 C36.6191,19.265 36.6191,19.265 35.9621,19.265 C35.5901,19.265 35.2531,19.332 35.1841,19.419 C35.1191,19.503 33.4001,19.627 31.3861,19.692 C29.3711,19.758 26.9991,19.962 26.1411,20.141 C25.2871,20.32 24.3021,20.469 23.9731,20.469 C23.5791,20.469 23.2501,20.659 23.0201,21.017 C22.8241,21.324 22.5451,21.564 22.3861,21.564 C22.2341,21.564 21.9781,21.717 21.8391,21.893 C21.6951,22.072 21.4111,22.221 21.2151,22.221 C21.0121,22.221 20.6121,22.414 20.3051,22.659 C19.9991,22.905 19.5951,23.097 19.3861,23.097 C19.1781,23.097 18.6521,23.439 18.1921,23.875 C17.7321,24.31 17.0241,24.81 16.5831,25.012 C15.6411,25.442 14.8311,26.136 14.8311,26.513 C14.8311,26.668 14.4321,27.257 13.9591,27.805 C13.0671,28.835 12.4231,30.075 12.4231,30.761 C12.4231,30.966 12.2251,31.311 11.9841,31.528 C11.7411,31.747 11.5471,32.184 11.5471,32.513 C11.5471,33.17 10.7171,35.131 10.1751,35.754 C9.8381,36.142 9.5661,37.002 9.4351,38.097 C9.3901,38.469 9.3091,38.953 9.2471,39.213 C9.1841,39.476 9.2741,39.852 9.4551,40.089 C9.6351,40.325 9.7771,40.724 9.7821,41.009 C9.7931,41.535 8.9961,42.804 8.6561,42.804 C8.5481,42.804 8.3161,42.927 8.1411,43.079 C7.9661,43.23 7.4731,43.645 7.0361,44.011 C6.0071,44.871 4.7591,46.083 4.7591,46.22 C4.7591,46.282 4.4081,46.68 3.9701,47.119 C3.5321,47.556 3.0951,48.213 2.9851,48.596 C2.8791,48.968 2.5861,49.504 2.3491,49.757 C2.1051,50.02 1.9121,50.368 1.9121,50.545 C1.9121,50.718 1.7481,51.246 1.5511,51.706 C1.3501,52.173 0.9061,53.622 0.5541,54.958 C-0.0289,57.17 -0.0699,57.554 0.0611,59.666 C0.1401,60.936 0.1941,62.425 0.1811,62.994 C0.1701,63.563 0.2581,64.082 0.3791,64.155 C0.5041,64.23 0.5971,64.483 0.5971,64.746 C0.5971,65.359 1.0761,66.672 1.2991,66.672 C1.3961,66.672 1.4731,66.848 1.4731,67.067 C1.4731,67.283 1.9201,68.348 2.4591,69.421 C2.9991,70.494 3.4441,71.504 3.4441,71.655 C3.4441,71.808 3.5311,71.928 3.6411,71.928 C4.0001,71.928 5.8531,73.964 5.8531,74.359 C5.8531,74.578 5.9471,74.775 6.0511,74.775 C6.1581,74.775 6.5531,75.032 6.9271,75.343 C7.5731,75.885 8.1751,76.247 9.9041,77.132 C10.2761,77.323 10.7321,77.615 10.9551,77.807 C11.1751,77.996 11.4861,78.167 11.6561,78.191 C11.8291,78.215 12.2691,78.388 12.6631,78.585 C13.0571,78.782 13.5031,78.935 13.6811,78.935 C13.8571,78.935 14.4041,79.145 14.9081,79.406 C15.4121,79.667 15.9871,79.96 16.2001,80.063 C16.4171,80.169 16.8681,80.25 17.2401,80.25 C17.5991,80.25 18.6191,80.487 19.4951,80.775 C22.6551,81.813 25.6711,82.393 28.8451,82.572 C33.3351,82.826 34.0571,82.832 35.7431,82.629 C36.7071,82.512 38.0221,82.373 38.6671,82.319 C39.3021,82.265 39.9281,82.165 40.0351,82.099 C40.1441,82.033 40.8231,81.935 41.5681,81.88 C42.3121,81.826 43.0831,81.685 43.3081,81.563 C43.5271,81.445 43.8701,81.405 44.0531,81.475 C44.2501,81.551 44.3921,81.505 44.3921,81.366 C44.3921,81.235 44.6661,81.12 44.9951,81.114 C45.3231,81.108 45.8451,80.963 46.1441,80.796 C46.4511,80.625 46.8701,80.485 47.0961,80.479 C47.3221,80.473 47.9401,80.174 48.4871,79.808 C49.6481,79.031 49.7241,79.025 50.5901,79.67 C51.2241,80.144 52.8691,81.001 53.1511,81.004 C53.3551,81.006 54.0271,81.738 54.0271,81.958 C54.0271,82.064 54.4541,82.28 54.9581,82.428 C55.4631,82.577 56.4251,82.892 57.0601,83.118 C57.6951,83.343 58.4771,83.534 58.7681,83.534 C59.0661,83.534 59.5671,83.666 59.8961,83.83 C60.2221,83.993 61.3191,84.194 62.3481,84.278 C63.3781,84.363 64.8451,84.49 65.6331,84.563 C66.4221,84.635 67.3491,84.684 67.7141,84.672 C68.0761,84.661 69.5961,84.616 71.1071,84.574 C72.6181,84.532 74.8251,84.321 76.0341,84.103 C77.2381,83.886 78.6921,83.655 79.2641,83.588 C79.8341,83.523 80.3041,83.383 80.3041,83.282 C80.3041,83.181 80.4901,83.096 80.7091,83.096 C80.9291,83.096 81.3551,82.916 81.6391,82.702 C81.9291,82.485 82.5591,82.116 83.0421,81.88 C83.5231,81.646 84.1541,81.232 84.4431,80.961 C84.7271,80.694 85.1891,80.468 85.4501,80.468 C86.1941,80.468 87.2561,80.899 87.3921,81.256 C87.4551,81.422 87.6941,81.563 87.9141,81.563 C88.1381,81.563 89.1941,81.862 90.2901,82.235 C92.5451,83.004 94.2731,83.333 94.7571,83.082 C95.4131,82.742 98.7931,81.707 99.0921,81.754 C99.1161,81.757 99.6501,81.535 100.2861,81.256 C100.9211,80.978 101.9261,80.63 102.5301,80.479 C103.1431,80.326 104.0111,80.037 104.5011,79.822 C104.9821,79.612 105.6521,79.37 105.9901,79.286 C106.3321,79.2 106.8641,78.837 107.1941,78.464 C107.5231,78.092 108.0181,77.587 108.3111,77.325 C110.0851,75.732 113.1501,72.605 113.1501,72.388 C113.1501,72.256 113.2501,72.147 113.3691,72.147 C113.4861,72.147 113.5881,71.994 113.5881,71.819 C113.5881,71.643 113.7201,71.489 113.8731,71.487 C114.2371,71.482 115.3401,69.016 115.3401,68.206 C115.3401,67.811 115.4981,67.483 115.7561,67.34 C116.0981,67.152 116.1951,66.771 116.3031,65.195 C116.3761,64.144 116.4941,62.77 116.5661,62.151 C116.6501,61.428 116.6111,60.996 116.4571,60.947" id="Fill-3" fill="#7ED6DC"></path>
            </g>
        </g>
    </g>
</svg>