<?xml version="1.0" encoding="UTF-8"?>
<svg width="512px" height="733px" viewBox="0 0 512 733" version="1.1" xmlns="http://www.w3.org/2000/svg" xmlns:xlink="http://www.w3.org/1999/xlink">
    <!-- Generator: Sketch 61 (89581) - https://sketch.com -->
    <title>img-bg-object2</title>
    <desc>Created with Sketch.</desc>
    <defs>
        <polygon id="path-1" points="5.27279408e-05 1570 2836.00005 1570 2836.00005 0 5.27279408e-05 0"></polygon>
    </defs>
    <g id="Page-1" stroke="none" stroke-width="1" fill="none" fill-rule="evenodd">
        <g id="200318_kodomonooka-ver2" transform="translate(-928.000000, -1246.000000)">
            <g id="Group-25" transform="translate(-692.000000, 1002.000000)">
                <mask id="mask-2" fill="white">
                    <use xlink:href="#path-1"></use>
                </mask>
                <g id="Mask"></g>
                <path d="M2413.10845,393.195968 C2388.61945,338.002968 2336.39345,305.788968 2283.97345,281.634968 C2225.41045,254.649968 2159.71445,235.318968 2094.94945,247.962968 C2050.74145,256.593968 2007.65045,280.611968 1985.48245,319.821968 C1967.06145,352.402968 1964.83245,391.249968 1959.52845,428.299968 C1954.22445,465.349968 1943.74645,504.724968 1914.67345,528.295968 C1871.26745,563.483968 1806.65545,549.245968 1753.71545,567.118968 C1723.44945,577.336968 1697.72445,597.972968 1675.64045,621.052968 C1651.83045,645.936968 1630.96945,675.176968 1623.71745,708.844968 C1616.64345,741.686968 1623.12845,776.167968 1634.96345,807.608968 C1664.61545,886.380968 1731.65945,952.640968 1813.75945,971.183968 C1895.85845,989.725968 1990.08145,954.391968 2031.53045,881.136968 C2050.99045,846.743968 2058.38245,807.087968 2069.90245,769.286968 C2081.42345,731.485968 2098.92145,692.991968 2131.62045,670.800968 C2166.03945,647.444968 2210.27045,646.535968 2250.93845,637.798968 C2305.74045,626.024968 2358.22845,597.409968 2391.41045,552.233968 C2424.59145,507.057968 2435.84045,444.431968 2413.10845,393.195968" id="Fill-1" fill="#9AE1E9" mask="url(#mask-2)"></path>
            </g>
            <text id="心豊かな人に-なってほしい" font-family="DNPShueiMGoStd-B, DNP ShueiMGoStd" font-size="32" font-weight="bold" line-spacing="46" letter-spacing="5.302637" fill="#E5555D">
                <tspan x="750" y="1108">心豊かな人に</tspan>
                <tspan x="750" y="1154">なってほしい</tspan>
                <tspan x="750" y="1200"></tspan>
            </text>
        </g>
    </g>
</svg>