<?xml version="1.0" encoding="UTF-8"?>
<svg width="60px" height="44px" viewBox="0 0 60 44" version="1.1" xmlns="http://www.w3.org/2000/svg" xmlns:xlink="http://www.w3.org/1999/xlink">
    <!-- Generator: Sketch 61 (89581) - https://sketch.com -->
    <title>img-nav-sick</title>
    <desc>Created with Sketch.</desc>
    <g id="Page-1" stroke="none" stroke-width="1" fill="none" fill-rule="evenodd">
        <g id="200318_kodomonooka-ver2" transform="translate(-874.000000, -134.000000)" fill="#0099CB">
            <path d="M915.671934,166.823779 C915.030581,166.71784 914.778973,166.608616 914.55861,166.340894 C914.124463,165.81202 914.126107,165.249476 914.562721,164.916056 C915.027292,164.562926 915.593821,164.426601 916.007412,164.569496 C916.227774,164.646691 916.590386,164.651619 916.823082,164.581814 C917.440591,164.395394 918.380421,164.567032 918.580227,164.902095 C918.7603,165.202666 918.778389,166.021435 918.606539,166.073172 C918.547337,166.091239 918.523492,166.174184 918.551448,166.267804 C918.62874,166.523208 917.546661,166.986383 917.24654,166.825421 C917.188983,166.794214 916.994932,166.812281 916.820615,166.86484 C916.645477,166.917399 916.126638,166.899332 915.671934,166.823779 M930.465006,163.441943 C930.627811,163.748263 930.621233,163.845169 930.422249,164.080041 C930.215043,164.32559 930.118017,165.207593 930.211754,166.003367 C930.259444,166.408235 930.219976,166.762186 930.123773,166.790929 C930.065393,166.808997 930.038259,166.887014 930.062927,166.968316 C930.086772,167.048796 929.956034,167.596558 929.76774,168.198522 C929.539977,168.926134 929.34017,169.33675 929.160098,169.446795 C929.013738,169.535488 928.728417,169.762148 928.530256,169.946926 C928.332094,170.131703 928.138043,170.267206 928.10022,170.247497 C928.064041,170.227787 927.988394,170.313195 927.939059,170.428989 C927.887257,170.550532 927.707185,170.68932 927.532046,170.741879 C927.357729,170.794438 927.183413,170.897092 927.139011,170.974288 C927.095432,171.050662 926.755843,171.324954 926.378431,171.589391 C926.001842,171.853828 925.607985,172.145365 925.496159,172.24227 C925.008566,172.666026 923.390381,173.510253 922.6224,173.74102 C922.157008,173.88145 921.767262,174.058015 921.745884,174.138496 C921.720394,174.232117 921.168665,174.436604 920.174567,174.718286 C918.525959,175.18721 917.760445,175.310395 917.110869,175.212668 C916.883106,175.177355 916.494183,175.167501 916.272998,175.189674 C916.050991,175.211847 915.795272,175.172428 915.719625,175.103444 C915.647267,175.036103 915.506662,174.995863 915.427727,175.019679 C915.055248,175.131366 914.090751,173.969322 914.330847,173.699137 C914.460762,173.552136 914.119529,172.871335 913.884366,172.807278 C913.779118,172.778535 913.759384,172.700518 913.821053,172.55516 C913.870388,172.438545 913.868743,172.322751 913.818586,172.295651 C913.705116,172.234879 913.448575,171.582821 912.79242,169.688238 C912.5145,168.884251 912.245625,168.18374 912.198757,168.141857 C912.085287,168.040845 911.997306,167.51772 912.056508,167.29763 C912.081998,167.199082 911.988261,166.684169 911.847657,166.155295 C911.562337,165.086872 911.499846,164.516937 911.649495,164.350227 C911.751454,164.237718 911.866569,163.816425 911.933993,163.313831 C911.977572,162.983696 912.387052,162.366129 912.60577,162.30043 C912.780087,162.247871 913.179699,161.874211 913.245479,161.701752 C913.266035,161.64755 913.460908,161.516975 913.671404,161.416784 C914.359626,161.08747 914.69757,160.878056 914.816796,160.708061 C914.950822,160.515071 916.393868,160.086388 916.820615,160.112667 C916.983421,160.121701 917.329587,160.032186 917.586129,159.913108 C917.84267,159.79485 918.164169,159.700408 918.297374,159.706157 C918.433867,159.710263 918.655874,159.629782 918.801412,159.522201 C918.942839,159.417083 919.450166,159.190423 919.91967,159.021249 C920.389174,158.851254 920.776453,158.705896 920.774808,158.700147 C920.773164,158.693577 920.997638,158.595029 921.279669,158.478414 C921.911156,158.217262 922.820562,157.709741 923.050792,157.489651 C923.142884,157.4026 923.485761,157.249851 923.812194,157.151303 C924.207696,157.032224 924.486438,156.86962 924.649243,156.665133 C924.785736,156.492674 925.063656,156.22988 925.282374,156.068918 C925.499448,155.907136 925.658964,155.739604 925.642519,155.687045 C925.627719,155.63695 925.801213,155.538402 926.022398,155.471882 C926.715553,155.263289 927.026363,154.884701 928.102686,152.941665 C928.448031,152.317528 928.49901,152.272361 928.693061,152.416898 C928.82791,152.516267 929.012915,152.929347 929.195455,153.533774 C929.354149,154.058541 929.606579,155.096579 929.753761,155.825834 C929.900944,156.555088 930.07526,157.226035 930.137751,157.308158 C930.201887,157.391924 930.197775,157.683461 930.127884,157.970072 C930.021814,158.407788 930.038259,158.534258 930.241355,158.829902 C930.436228,159.114048 930.455139,159.222451 930.34578,159.426938 C930.247933,159.607609 930.256155,159.68809 930.377026,159.720939 C930.542298,159.765286 930.643434,160.097885 930.544764,160.276092 C930.514341,160.330294 930.515163,160.472367 930.546409,160.577485 C930.665635,160.972497 930.585054,162.535303 930.431294,162.804667 C930.312068,163.014081 930.32029,163.168473 930.465006,163.441943 M920.974615,151.880633 C920.800298,151.680252 920.644893,151.663006 920.056985,151.776336 C919.672995,151.851068 919.142645,151.894594 918.898437,151.871599 C918.650118,151.848605 918.39111,151.869957 918.322041,151.918409 C918.253794,151.966862 918.04741,151.934834 917.868982,151.847783 C917.492392,151.664649 916.818971,151.648224 916.282865,151.809186 C916.038657,151.883096 915.779649,151.837929 915.479528,151.670397 C915.228742,151.530788 914.950822,151.449486 914.838997,151.483156 C914.582455,151.560352 912.979893,150.748974 912.905891,150.505068 C912.874645,150.400772 912.789954,150.303866 912.71184,150.284978 C912.637015,150.265269 912.543279,150.145369 912.504633,150.017256 C912.467632,149.892429 912.311405,149.656735 912.169978,149.509735 C911.776943,149.100761 911.57467,148.534932 911.591938,147.895192 C911.619894,146.859618 911.803255,146.439146 912.419942,145.993217 C912.733218,145.767378 913.041562,145.603132 913.114742,145.623663 C913.182988,145.642551 913.271791,145.570283 913.298103,145.473377 C913.330171,145.358405 913.52751,145.245074 913.812831,145.179376 C914.061972,145.121068 914.388405,144.980638 914.520787,144.87552 C914.848864,144.615189 914.904777,144.596301 915.027292,144.705525 C915.084849,144.757262 915.31919,144.744123 915.540375,144.677603 C915.761559,144.611083 916.132393,144.589731 916.351112,144.629971 C916.579697,144.672675 916.795948,144.658715 916.849394,144.598765 C916.971087,144.460797 917.748112,144.672675 917.804025,144.858274 C917.829514,144.94204 917.93394,145.015951 918.037543,145.023342 C918.142791,145.029912 918.381243,145.179376 918.57776,145.360868 C918.774278,145.543182 918.988885,145.66883 919.063709,145.645836 C919.136067,145.624484 919.572681,145.710713 920.015873,145.834719 C920.820854,146.060558 920.835655,146.072056 920.905546,146.531125 C920.944191,146.785707 920.943369,147.183183 920.903079,147.406558 C920.847988,147.712878 920.896501,147.96746 921.093018,148.414211 C921.236912,148.742704 921.490987,149.372589 921.652147,149.8062 C921.933356,150.558449 921.936645,150.622505 921.71546,151.087322 C921.588012,151.354223 921.479475,151.680252 921.477008,151.805079 C921.47043,152.124539 921.219645,152.162316 920.974615,151.880633 M924.27512,145.517724 C924.54564,145.278745 924.665688,145.297633 924.755313,145.594098 C924.793136,145.718926 925.01761,145.965295 925.239617,146.126257 C925.59894,146.386588 925.695143,146.554119 925.96484,147.386028 C926.297851,148.414211 926.318407,149.083515 926.051999,150.263626 C925.833281,151.229395 925.774901,151.287703 925.398311,150.904187 C925.109702,150.610186 925.064478,150.503426 925.084212,150.155223 C925.096546,149.935954 925.059545,149.705188 925.001988,149.65345 C924.883584,149.54669 924.391879,148.277886 924.180561,147.529743 C923.969243,146.7816 924.017756,145.745205 924.27512,145.517724 M910.161225,172.306327 C910.095445,172.247198 909.945796,172.230773 909.817525,172.269371 C909.690077,172.30879 909.578251,172.298114 909.562628,172.245555 C909.51576,172.089521 908.536462,172.126477 907.943621,172.307148 C907.455206,172.455791 905.918423,172.370383 905.864977,172.192175 C905.85511,172.160147 905.470298,172.252947 905.00655,172.399947 C904.542802,172.546127 904.079053,172.648781 903.971339,172.62825 C903.867736,172.609361 903.667929,172.67506 903.54377,172.770323 C903.399876,172.880368 903.269961,172.909932 903.20007,172.84834 C903.138401,172.79496 902.969018,172.819597 902.828414,172.902541 C902.688631,172.986307 902.555427,173.006017 902.537338,172.946067 C902.519248,172.887759 902.409067,172.859016 902.302997,172.885296 C901.3459,173.120989 900.795815,173.157945 900.612454,172.999447 C900.503095,172.905826 900.335356,172.84177 900.258887,172.864765 C900.177485,172.889402 900.101015,172.864765 900.083748,172.809742 C900.067303,172.756362 899.772116,172.659457 899.435816,172.598685 C899.100339,172.537914 898.742661,172.390914 898.653036,172.276762 C898.5593,172.156862 898.357026,172.010683 898.181888,171.936772 C898.007571,171.86204 897.848055,171.711754 897.809409,171.585285 C897.774875,171.469491 897.682783,171.362731 897.614536,171.359446 C897.468998,171.354518 897.318527,170.960327 897.241235,170.387106 C897.211634,170.167837 897.139277,169.999485 897.082541,170.016731 C896.923847,170.064362 896.831756,169.673455 896.928781,169.365493 C896.978116,169.208638 897.011006,168.947486 897.003606,168.772563 C896.989627,168.434216 897.452553,167.369077 897.637559,167.313233 C897.702517,167.294345 897.793786,167.183479 897.843121,167.067685 C897.902323,166.927254 898.081573,166.826242 898.380872,166.766292 C898.657147,166.710449 898.978646,166.539632 899.217921,166.322827 C899.634801,165.94506 900.660967,165.633813 901.882006,165.516377 C902.22735,165.482706 902.675475,165.440002 902.899949,165.41865 C903.121956,165.397298 903.343963,165.41865 903.396587,165.46546 C903.446744,165.510628 903.597216,165.519662 903.713975,165.484349 C903.829912,165.449036 904.037941,165.495025 904.152234,165.580433 C904.461399,165.81202 905.864155,166.046893 906.662558,166.001725 C907.037503,165.980373 907.412449,165.989407 907.488096,166.022256 C907.566209,166.055105 907.707636,166.056748 907.812884,166.025541 C908.162339,165.920423 908.71489,166.073172 908.801226,166.299011 C908.900718,166.556878 908.887562,166.501034 909.223862,168.01046 C909.362,168.628026 909.576607,169.539594 909.698299,170.0233 C909.819992,170.506185 909.939218,170.988249 909.962241,171.085154 C909.984442,171.184523 910.087223,171.440748 910.191648,171.663302 C910.390633,172.084594 910.371721,172.49521 910.161225,172.306327 M933.882271,162.299609 C933.938184,162.0672 933.897894,161.424175 933.818135,161.266499 C933.777845,161.185197 933.787712,161.021771 933.841158,160.891195 C933.89296,160.764726 933.894605,160.49454 933.844447,160.294159 C933.722755,159.811275 933.52377,158.497303 933.539393,158.281319 C933.551727,158.112966 933.306697,157.63583 933.156225,157.533997 C933.047689,157.461729 933.009043,157.318834 933.031244,157.071643 C933.048511,156.872084 932.992598,156.480356 932.904617,156.18964 C932.817459,155.898923 932.726189,155.588497 932.699878,155.490771 C932.674388,155.393044 932.449914,154.639974 932.197484,153.803138 C931.945053,152.965481 931.663022,151.947153 931.566819,151.520112 C931.346457,150.546951 931.163095,150.009865 930.978089,149.795524 C930.954244,149.767602 930.866263,149.492489 930.784861,149.18699 C930.703458,148.882313 930.574365,148.576815 930.498718,148.512758 C930.423072,148.447881 930.281645,148.166198 930.181331,147.879588 C929.851609,146.938456 929.771029,146.797204 929.373883,146.44818 C929.158453,146.259297 928.800775,146.063022 928.568079,146.006357 C928.266314,145.932446 928.124065,145.815831 928.055818,145.589992 C928.003194,145.415891 927.86999,145.238505 927.757342,145.191694 C927.649628,145.146527 927.481067,144.983101 927.398019,144.842671 C927.315795,144.703061 927.16039,144.603692 927.067476,144.631614 C926.96305,144.663642 926.857802,144.567558 926.806001,144.393456 C926.755843,144.230852 926.669507,144.117522 926.607016,144.136411 C926.544526,144.155299 926.431878,144.074818 926.346364,143.948348 C926.146557,143.653526 925.179593,143.088518 924.505349,142.872534 C923.746414,142.629449 922.50893,142.785483 922.096161,143.177211 C921.731083,143.52295 920.95817,143.573045 920.529778,143.277402 C919.889247,142.8364 918.915704,142.393755 918.71672,142.453705 C918.599961,142.489018 918.478268,142.465203 918.460179,142.404431 C918.441267,142.342018 918.34342,142.312453 918.250505,142.340375 C918.035899,142.405253 917.450458,142.254967 916.971087,142.013525 C916.767169,141.910871 916.308355,141.859954 915.913675,141.896089 C915.530508,141.931402 915.010024,141.945362 914.760883,141.926474 C914.507631,141.906765 914.075128,141.966714 913.785696,142.061156 C913.496265,142.154777 913.091719,142.24347 912.874645,142.259073 C912.663327,142.274677 912.465988,142.346124 912.444609,142.414286 C912.423231,142.484091 912.128044,142.691042 911.77941,142.880746 C911.429955,143.070451 911.078854,143.322569 910.98594,143.449039 C910.896315,143.572224 910.735977,143.669951 910.637307,143.66256 C910.303474,143.63628 908.834116,145.910273 908.730513,146.614069 C908.529062,147.9806 908.552907,149.774172 908.778203,150.200391 C908.881807,150.398308 908.873584,150.488644 908.74778,150.527242 C908.654866,150.555164 908.626087,150.607722 908.686934,150.639751 C908.746136,150.6726 908.864539,150.681633 908.934431,150.661103 C909.009255,150.638929 909.121903,150.744047 909.190972,150.900902 C909.334043,151.224468 909.616075,151.546391 910.151358,151.993963 C910.358565,152.166422 910.647174,152.497378 910.787779,152.721575 C910.927561,152.945771 911.095299,153.117409 911.155324,153.099342 C911.215348,153.081275 911.304973,153.193784 911.350196,153.34489 C911.406932,153.533774 911.586182,153.66435 911.90357,153.748937 C912.165867,153.818741 912.493944,153.977239 912.647705,154.108636 C912.811332,154.249067 913.033339,154.309017 913.201078,154.258922 C913.352371,154.213754 913.533266,154.245782 913.596579,154.330369 C913.65907,154.412492 913.781585,154.465051 913.858877,154.441236 C913.93699,154.41742 914.145841,154.466694 914.309469,154.546353 C914.475563,154.627655 914.964801,154.760695 915.381681,154.838712 C915.798561,154.916729 916.132393,155.016098 916.111837,155.056339 C916.064969,155.152423 916.598608,155.169669 917.595173,155.106434 C917.969297,155.082618 918.344242,155.090009 918.419066,155.122859 C918.493891,155.154887 918.738099,155.127786 918.947772,155.065372 C919.202669,154.988176 919.589948,155.025132 920.06603,155.172133 C920.472221,155.297781 920.861144,155.376619 920.945014,155.351161 C921.026416,155.326524 921.080685,155.369228 921.061773,155.443139 C921.041217,155.526084 920.98037,155.568788 920.910479,155.552363 C920.846344,155.535938 920.660516,155.627917 920.496066,155.756029 C920.218968,155.972013 919.521702,156.27012 918.100856,156.780106 C917.757156,156.903291 917.333698,157.088068 917.169249,157.185795 C916.95382,157.313907 916.78937,157.328689 916.594497,157.238353 C916.417714,157.15623 916.307532,157.161979 916.282865,157.25642 C916.261486,157.334438 915.929298,157.495399 915.55682,157.607908 C915.184341,157.719596 914.856264,157.870702 914.838997,157.938043 C914.809396,158.053837 914.464874,158.237793 913.356483,158.730533 C913.076918,158.854539 912.817088,159.0155 912.773509,159.091875 C912.729929,159.16825 912.526012,159.280759 912.316338,159.343993 C912.106665,159.407228 911.922481,159.518916 911.90357,159.595291 C911.883013,159.67495 911.792566,159.755431 911.688141,159.786638 C911.586182,159.817023 911.401998,159.9747 911.264683,160.148801 C911.132301,160.315511 910.83218,160.547099 910.610173,160.653859 C910.078178,160.909262 909.625119,161.335482 909.714744,161.496444 C909.754212,161.568712 909.592229,161.801942 909.352133,162.017926 C909.112858,162.23391 908.888385,162.556655 908.853028,162.738968 C908.790537,163.054322 908.751069,163.076495 907.996245,163.225138 C907.564565,163.309725 907.141107,163.350787 907.064638,163.315474 C906.986524,163.278518 906.813852,163.282624 906.67407,163.325328 C906.534287,163.367211 906.300769,163.325328 906.144542,163.230887 C905.990781,163.137266 905.770418,163.089635 905.655304,163.124948 C905.538544,163.159439 905.398762,163.145478 905.341205,163.09292 C905.282825,163.040361 905.130709,163.028863 905.002438,163.067461 C904.874168,163.106059 904.523068,163.098668 904.217191,163.050216 C903.910493,163.001763 903.580771,162.988623 903.477168,163.019009 C903.372742,163.051037 903.227204,163.046109 903.144157,163.009154 C902.918039,162.907321 902.010276,162.954131 901.556395,163.090456 C901.323699,163.160261 901.091003,163.174222 901.032623,163.120842 C900.973421,163.067461 900.776081,163.071568 900.578742,163.130696 C900.38058,163.190646 900.114994,163.21282 899.965344,163.182434 C899.816517,163.152048 899.657824,163.177507 899.601911,163.240741 C899.547642,163.302334 898.79364,163.589765 897.927813,163.878018 C897.062807,164.16627 896.316206,164.470948 896.271804,164.553892 C896.226581,164.638479 896.126266,164.724709 896.044864,164.749345 C895.965106,164.773161 895.679786,165.031028 895.41091,165.320102 C895.142857,165.609997 894.864937,165.8654 894.795046,165.886752 C894.609218,165.942596 894.118336,166.926433 894.17836,167.125171 C894.207139,167.221255 894.114224,167.549748 893.970331,167.859353 C893.642254,168.567255 893.597852,169.327716 893.87495,169.510851 C894.024599,169.61022 894.035289,169.678383 893.929219,169.875479 C893.856038,170.011803 893.840416,170.154698 893.894684,170.20315 C893.94813,170.249961 893.983487,170.461017 893.974442,170.679465 C893.963753,170.961969 894.013088,171.125394 894.152048,171.266646 C894.286897,171.403792 894.314853,171.49577 894.244962,171.574608 C894.176715,171.650983 894.224406,171.751995 894.391322,171.891604 C894.527815,172.005756 894.795046,172.385165 894.991564,172.744865 C895.188081,173.103743 895.426533,173.453588 895.526847,173.529142 C895.625517,173.602231 895.955239,173.925797 896.256182,174.24115 C896.574392,174.576213 896.926314,174.826689 897.09652,174.837365 C897.251925,174.848041 897.473932,174.94741 897.572601,175.049243 C897.675383,175.156003 897.98537,175.259479 898.271513,175.282473 C898.558477,175.306289 898.835575,175.368702 898.898066,175.423725 C898.95809,175.476284 899.103628,175.495172 899.208876,175.463965 C899.318235,175.430295 899.585466,175.491066 899.808295,175.60029 C900.031947,175.708693 900.285199,175.77357 900.378935,175.745648 C900.469383,175.718548 900.637944,175.756324 900.739902,175.82695 C900.848439,175.900861 901.095114,175.909895 901.304787,175.84666 C901.514461,175.784246 901.757024,175.777676 901.858983,175.832699 C901.965053,175.889364 902.030833,175.895934 902.016854,175.848302 C902.002876,175.803134 902.20186,175.788352 902.463335,175.815453 C902.723988,175.841732 903.363697,175.748933 903.892403,175.60686 C904.421109,175.465608 904.886501,175.376915 904.930903,175.408943 C904.976126,175.440971 905.471942,175.393339 906.04176,175.303004 C906.610756,175.211847 907.104928,175.182283 907.145218,175.236484 C907.187153,175.292328 907.353247,175.29397 907.527563,175.241411 C907.710103,175.18721 908.14425,175.264406 908.587442,175.430295 C909.002677,175.584687 909.406401,175.690626 909.49027,175.665989 C909.571673,175.641352 909.726256,175.665167 909.823281,175.717726 C909.929351,175.774391 909.993487,175.776034 909.977042,175.721832 C909.962241,175.672558 910.095445,175.670916 910.26154,175.718548 C910.436678,175.768643 910.83218,175.800671 911.159435,175.790816 C911.73912,175.77357 911.747342,175.778497 911.997306,176.336936 C912.188068,176.762334 912.363207,176.956966 912.705262,177.12614 C912.959337,177.250967 913.2093,177.335554 913.270969,177.317487 C913.332637,177.298599 913.5604,177.370867 913.784052,177.480091 C914.006881,177.589315 914.298779,177.675544 914.439384,177.675544 C914.579166,177.675544 914.825018,177.73221 914.985357,177.802014 C915.267388,177.924378 916.124171,178.000753 916.48596,177.935875 C917.364944,177.778199 917.910917,177.771629 918.35822,177.912881 C918.840058,178.064809 918.99464,178.045099 920.496066,177.634483 C921.387383,177.390577 922.182498,177.209084 922.266367,177.231258 C922.54182,177.304347 923.480006,177.04648 923.602521,176.863346 C923.672412,176.759049 923.732436,176.704026 923.740658,176.733591 C923.749703,176.761513 923.999667,176.664607 924.286631,176.521713 C925.125325,176.102063 925.312797,175.987912 925.422156,175.824486 C925.480536,175.739078 925.865348,175.528022 926.283051,175.353099 C926.699931,175.178177 927.074054,174.949874 927.118455,174.841471 C927.161212,174.74046 927.275504,174.623845 927.356907,174.599208 C927.441599,174.573749 927.553424,174.431676 927.600293,174.291245 C927.648805,174.145066 927.802566,173.952898 927.951393,173.855171 C928.586169,173.4347 929.452818,172.545305 929.550666,172.213527 C929.638647,171.91542 929.724983,171.844794 930.044837,171.811123 C930.254511,171.78895 930.585054,171.751173 930.763482,171.729 C931.240387,171.668229 932.383312,170.553817 932.165416,170.361648 C932.118548,170.320587 932.231196,170.112815 932.409624,169.907507 C932.588874,169.702198 932.772235,169.35646 932.810881,169.152794 C932.848704,168.949128 933.032888,168.669909 933.211316,168.544261 C933.388922,168.418612 933.493347,168.27079 933.437434,168.222338 C933.37741,168.1706 933.38481,168.035097 933.454702,167.900414 C933.524593,167.764911 933.553371,167.594095 933.522126,167.493083 C933.49417,167.400284 933.509792,167.273814 933.555016,167.222898 C933.602706,167.169518 933.611751,166.901796 933.576394,166.620113 C933.537749,166.315436 933.596128,165.972161 933.722755,165.75864 C933.841981,165.557438 933.899538,165.248655 933.856781,165.04581 C933.813202,164.843787 933.81978,164.591669 933.871582,164.464378 C933.948051,164.277137 933.939828,164.247572 933.817313,164.284528 C933.72851,164.310807 933.738377,164.194192 933.841981,163.985599 C933.937361,163.791788 933.978474,163.534743 933.935717,163.392669 C933.893782,163.25306 933.904471,163.093741 933.959562,163.030506 C934.015475,162.968092 934.013008,162.812058 933.954629,162.677376 C933.896249,162.542694 933.864181,162.375162 933.882271,162.299609 M893.206462,144.737553 C893.122593,144.929721 893.091347,145.146527 893.138216,145.214689 C893.265664,145.397824 892.579909,146.57465 891.9624,147.2341 C891.632679,147.586408 891.471518,147.836884 891.487141,147.97403 C891.500297,148.085718 891.415605,148.40025 891.303779,148.656474 C891.122062,149.072839 891.046415,149.137716 890.693671,149.177957 C890.278435,149.225588 889.725062,149.059699 889.700395,148.879849 C889.657638,148.568602 890.796452,145.552215 891.026682,145.364153 C891.110551,145.295991 891.429583,144.891123 891.734637,144.464904 C892.039692,144.038684 892.392436,143.663381 892.519062,143.630531 C892.773137,143.564833 893.068324,143.770962 893.240997,144.133947 C893.310065,144.278484 893.295265,144.534708 893.206462,144.737553 M895.342664,146.780779 C895.457778,146.691265 895.544937,146.578756 895.531781,146.538516 C895.517803,146.498275 895.66663,146.044955 895.858213,145.543182 C896.132844,144.823782 896.194513,144.507608 896.1386,144.095349 C896.035819,143.338994 895.688008,142.57689 895.304018,142.265643 C895.124768,142.120285 894.787646,141.773725 894.56235,141.501897 C894.227695,141.097851 894.008977,140.947565 893.40298,140.70448 C892.687623,140.417049 892.630066,140.413764 892.066826,140.630569 C891.745327,140.753754 891.423828,140.834235 891.360514,140.805492 C891.092461,140.688877 890.595001,140.867084 890.558822,141.092102 C890.537444,141.222678 890.438774,141.371321 890.339282,141.422237 C890.238968,141.473975 890.049028,141.772904 889.911713,142.094006 C889.436453,143.209239 888.833745,144.347467 888.496623,144.770402 C888.308328,145.006096 888.099477,145.28203 888.026297,145.392075 C887.954761,145.500478 887.886515,145.585065 887.874181,145.579316 C887.801001,145.548109 887.384121,146.535231 887.417011,146.664164 C887.436745,146.74136 887.338897,147.055892 887.201582,147.352357 C887.065088,147.648822 886.969708,147.981421 886.991908,148.08079 C887.014109,148.181802 886.991086,148.379719 886.939284,148.521792 C886.88995,148.658938 886.919551,148.946369 887.002598,149.134431 C887.0914,149.335633 887.170336,149.659199 887.185137,149.881753 C887.204048,150.170006 887.338897,150.390917 887.693286,150.714483 C888.284483,151.254854 889.765352,151.953722 890.511132,152.044058 C890.800563,152.079371 891.173864,152.166422 891.331736,152.234584 C891.673791,152.384048 892.329945,152.23869 892.454105,151.986572 C892.77067,151.343547 893.431758,150.124017 893.857683,149.394762 C894.136425,148.918447 894.533571,148.179338 894.745711,147.7408 C894.959496,147.300619 895.22426,146.8744 895.342664,146.780779 M893.439158,153.916468 C893.386535,153.92468 893.170283,154.301626 892.958143,154.755768 C892.418748,155.906314 891.616234,157.261348 891.413138,157.362359 C891.317757,157.409991 891.265956,157.484723 891.288979,157.543852 C891.311179,157.599696 891.232244,157.690031 891.108906,157.751624 C890.987214,157.811574 890.752873,158.14253 890.580201,158.499766 C890.058073,159.58133 889.711906,160.16112 889.425764,160.437054 C889.271181,160.585697 889.13551,160.72777 889.111665,160.764726 C889.089464,160.799217 888.903636,160.908441 888.708763,161.002062 C888.51389,161.094861 888.314906,161.248432 888.277083,161.334661 C888.239259,161.421712 887.96874,161.574461 887.685886,161.668903 C887.403033,161.762523 887.093867,161.924306 887.009998,162.022032 C886.92284,162.123044 886.665476,162.198597 886.425379,162.19367 C886.186105,162.188743 885.969854,162.246229 885.936141,162.323425 C885.901607,162.401442 885.71249,162.513951 885.505283,162.580471 C885.276698,162.65356 885.086759,162.811237 885.007001,162.992729 C884.937932,163.151227 884.717569,163.400882 884.529274,163.534743 C884.294933,163.69981 884.19873,163.833671 884.239021,163.935504 C884.280133,164.040622 884.186397,164.236896 883.944656,164.551428 C883.747316,164.808474 883.504753,165.176386 883.39786,165.380873 C883.289324,165.587824 883.103495,165.829266 882.971936,165.932741 C882.808308,166.062496 882.729372,166.220994 882.707172,166.465721 C882.689904,166.661175 882.636458,166.830349 882.585479,166.851701 C882.440763,166.909187 881.841344,168.24369 881.792009,168.615708 L881.744319,168.976229 L881.236169,168.755317 C880.917959,168.616529 880.572615,168.352092 880.31114,168.046594 C880.083377,167.781336 879.690342,167.396178 879.446134,167.199903 L878.998831,166.839382 L879.63854,165.332421 C879.989641,164.505439 880.407343,163.55938 880.564392,163.237457 C880.834912,162.681482 880.981272,161.875853 880.931115,161.210655 C880.906448,160.880519 880.726375,160.467439 880.425432,160.049432 C880.306206,159.884364 880.207536,159.633067 880.203425,159.482782 C880.175469,158.503873 880.251116,157.756551 880.426255,157.278594 C880.538903,156.971453 880.649084,156.572334 880.676218,156.370311 C880.703352,156.174036 880.851357,155.747816 881.003473,155.432463 C881.407197,154.5907 882.208067,153.055816 882.517232,152.532691 C883.005648,151.703247 883.379771,150.963316 884.280955,149.042453 C884.771015,147.997846 885.253675,147.03454 885.353167,146.903143 C885.454304,146.770103 885.58093,146.600929 885.641776,146.520449 C885.698512,146.444074 885.770869,146.356202 885.796359,146.333208 C885.860495,146.2749 886.482114,144.979816 887.108668,143.600146 C887.382476,142.994898 887.687531,142.455348 887.782089,142.406074 C887.87747,142.3568 887.958873,142.235258 887.963806,142.135888 C887.96874,142.036519 888.166079,141.708848 888.403709,141.405813 C888.641339,141.102778 888.853479,140.744721 888.876502,140.607575 C888.951326,140.157539 890.461797,138.069145 890.652558,138.15209 C890.694493,138.170978 890.84332,138.070788 890.995436,137.920502 C891.147552,137.771038 891.302957,137.673311 891.354759,137.695484 C891.404094,137.717658 891.516742,137.651959 891.603078,137.550126 C891.714903,137.417908 891.85633,137.405589 892.091493,137.508243 C892.428615,137.655244 892.802738,137.718479 893.846994,137.804708 C894.792579,137.881904 895.182325,138.011659 895.736521,138.431309 C896.023485,138.648935 896.340051,138.915836 896.43461,139.019311 C896.529168,139.123608 896.788999,139.314134 897.01265,139.443067 C897.236302,139.572001 897.588224,139.816728 897.793786,139.986723 C897.999348,140.156718 898.27069,140.374345 898.397317,140.470429 C898.664547,140.673273 899.050182,141.625903 898.953979,141.845993 C898.916978,141.931402 898.935067,142.015988 898.995914,142.042268 C899.052649,142.066905 899.054293,142.201587 898.997558,142.328878 C898.938356,142.464381 898.904644,142.733746 898.920267,142.943981 C898.94329,143.255228 898.85942,143.470391 898.425273,144.221819 C898.038816,144.891945 897.913012,145.190873 897.940147,145.377293 C897.961525,145.522651 897.905612,145.699216 897.807765,145.796121 C897.594802,146.008821 896.666484,148.020019 896.735553,148.119388 C896.794754,148.203975 896.696085,148.387931 896.1312,149.247762 C895.916593,149.575433 895.568782,150.229956 895.35582,150.708734 C895.129701,151.220362 894.841092,151.700783 894.654442,151.878169 C894.462858,152.061304 894.346921,152.257578 894.360077,152.379121 C894.370766,152.486702 894.316498,152.67148 894.242495,152.779061 C894.166848,152.888285 893.97362,153.189677 893.81986,153.440153 C893.665277,153.690629 893.491782,153.908256 893.439158,153.916468 M880.058709,171.11554 C879.80299,171.700257 878.992253,172.684094 878.363233,173.172727 C877.891263,173.538997 877.746547,173.590734 877.497406,173.482332 C876.9613,173.24828 876.684202,172.212706 876.936632,171.381619 C877.263065,170.303341 877.647055,169.47636 877.832061,169.451723 C877.940597,169.437762 878.0294,169.397521 878.039267,169.358102 C878.103403,169.115839 878.180694,169.091202 878.465192,169.226705 C878.645264,169.311292 878.76449,169.415588 878.74229,169.467326 C878.720911,169.517421 878.799025,169.599544 878.916606,169.651282 C879.034188,169.702198 879.196171,169.824562 879.275107,169.922289 C879.354043,170.018373 879.604828,170.246676 879.82108,170.419956 C880.198492,170.72299 880.21247,170.763231 880.058709,171.11554 M891.557854,135.229323 C892.389969,134.857305 894.13807,134.951747 894.929073,135.412458 C895.030209,135.471587 895.172458,135.458447 895.248927,135.381251 C895.362398,135.266279 895.530959,135.318016 896.280849,135.698247 C896.77502,135.947902 897.691005,136.404507 898.319203,136.71329 C898.948223,137.022074 899.471995,137.336606 899.484329,137.412159 C899.497485,137.487713 899.657001,137.628143 899.843652,137.726691 C900.02948,137.825239 900.218597,138.023977 900.266287,138.171799 C900.3148,138.320442 900.422515,138.469085 900.508851,138.506862 C900.59272,138.542996 900.705368,138.73188 900.754703,138.919121 C900.805682,139.11211 900.95122,139.342877 901.085247,139.443888 C901.219273,139.545721 901.303965,139.67137 901.278475,139.73132 C901.252163,139.79127 901.329455,139.934164 901.454436,140.056528 C901.604086,140.202707 901.684666,140.54434 901.699466,141.097029 C901.7118,141.547886 901.694533,141.983139 901.660821,142.059514 C901.627109,142.137531 901.654243,142.419214 901.724134,142.70336 C901.80307,143.030211 901.789091,143.315178 901.682199,143.511453 C901.593396,143.67652 901.560506,143.877722 901.611486,143.950812 C901.673154,144.041148 901.50706,144.554418 901.121426,145.466807 C900.799104,146.228911 900.549141,146.924495 900.563119,147.022222 C900.577097,147.122412 900.504739,147.238206 900.393736,147.291586 C900.276977,147.348251 900.025369,147.779398 899.760605,148.376434 C899.519686,148.92009 899.2615,149.401332 899.187497,149.441572 C899.113495,149.483455 898.901355,149.876826 898.715527,150.317006 C898.530521,150.757187 898.174487,151.486441 897.924524,151.936477 C897.038962,153.533774 896.900002,153.798211 896.514368,154.626834 C896.298116,155.091652 896.047331,155.521156 895.958528,155.580285 C895.629628,155.798733 894.501503,157.58902 893.873306,158.892316 C893.513983,159.637995 893.175217,160.279377 893.120126,160.317975 C892.979522,160.418165 892.515773,161.186018 892.335701,161.616344 C892.255121,161.810155 892.153984,161.944015 892.106294,161.923485 C891.982956,161.869283 891.047238,162.85969 890.898411,163.202144 C890.832631,163.352429 890.507843,163.629184 890.187988,163.808213 C889.868133,163.985599 889.57788,164.185159 889.55239,164.242645 C889.527723,164.29931 889.430697,164.317377 889.345183,164.279601 C889.260492,164.242645 889.147022,164.294383 889.103442,164.390467 C888.986683,164.646691 887.955584,165.100012 887.264073,165.19856 C886.829103,165.260973 886.698366,165.331599 886.665476,165.521304 C886.642453,165.651059 886.54625,165.802987 886.457447,165.849797 C886.367822,165.897428 886.140881,166.296547 885.959987,166.726052 C885.761825,167.199082 885.56613,167.522648 885.47486,167.531681 C885.391813,167.540715 885.249564,167.719743 885.16405,167.92423 C884.829395,168.725753 883.97179,170.315659 883.471863,171.063802 C883.181609,171.497413 882.902045,172.01561 882.849421,172.216812 L882.809667,172.336819 C882.73241,172.527717 882.598909,172.674513 882.390606,172.799066 C882.192444,172.917324 881.963859,173.165336 881.884101,173.346828 C881.805165,173.529142 881.686761,173.65479 881.621804,173.626868 C881.547801,173.59484 881.474621,173.702422 881.423642,173.921691 C881.377596,174.117965 881.302771,174.250184 881.25097,174.228011 L881.224549,174.228524 C881.145902,174.249722 880.953624,174.406731 880.760087,174.611526 C879.7627,175.664346 878.918251,176.209645 878.418324,176.123415 C878.24154,176.092208 877.986643,176.093851 877.869884,176.125879 C877.55743,176.212929 876.869208,176.028152 875.876754,175.591256 C874.840721,175.135472 874.609669,174.967941 874.626936,174.684616 C874.651604,174.276463 874.570201,173.732807 874.478109,173.692567 C874.431241,173.671215 874.362994,173.457695 874.325171,173.212146 C874.287348,172.967419 874.193611,172.588831 874.113031,172.363813 C873.981471,171.992616 873.960093,171.127037 874.073563,170.718884 C874.09823,170.627727 874.10892,170.466766 874.095764,170.372324 C874.081785,170.277882 874.148388,170.159625 874.238835,170.116921 C874.337505,170.070932 874.608847,169.534667 874.894167,168.820195 C875.163042,168.149248 875.420406,167.618732 875.467274,167.640084 C875.610345,167.701676 876.079027,166.850879 876.134118,166.430408 C876.174408,166.117519 876.259922,165.961485 876.495085,165.767674 C876.743404,165.563187 876.814117,165.429326 876.856874,165.079481 C876.958833,164.25907 877.040235,164.041443 877.332956,163.800001 C877.545096,163.625078 877.649521,163.443586 877.682411,163.195574 C877.707901,163.003405 877.819727,162.74636 877.926619,162.634672 C878.17576,162.374341 878.198783,161.653299 877.967732,161.363404 C877.877284,161.250074 877.77697,160.808251 877.744902,160.38778 C877.712012,159.967309 877.586208,159.332496 877.464516,158.987579 C877.317333,158.567929 877.281976,158.218084 877.357623,157.937222 C877.420114,157.703171 877.509739,157.278594 877.558252,156.982129 C877.606765,156.685664 877.742436,156.264372 877.864128,156.035248 C877.984177,155.806945 878.13547,155.487486 878.200428,155.323239 C878.264563,155.160635 878.350899,154.941366 878.39119,154.840355 C878.669932,154.135737 880.023353,151.333692 880.115445,151.269636 C880.31854,151.128384 880.919604,150.018078 881.496822,148.718888 C881.808454,148.015913 882.135709,147.391776 882.22369,147.331826 C882.405407,147.209463 883.223544,145.823222 883.721826,144.794218 C883.902721,144.420557 884.313023,143.678984 884.629589,143.155859 C884.94451,142.631913 885.325211,141.96343 885.469926,141.678462 C885.844872,140.938531 886.639986,139.701755 886.900639,139.453743 C887.021509,139.338771 887.33643,138.881344 887.600372,138.437057 C887.864314,137.992771 888.21377,137.521383 888.376575,137.389165 C888.53938,137.256946 888.662717,137.091879 888.652028,137.01961 C888.641339,136.949805 888.68574,136.914492 888.749876,136.942414 C888.818122,136.971979 888.878969,136.934202 888.893769,136.852079 C888.94886,136.560541 889.960225,135.943796 891.557854,135.229323 Z M916.450686,169.236888 C917.00077,168.955205 917.699681,168.910038 918.045848,169.134234 C918.244832,169.262346 918.639511,169.37814 918.922365,169.39128 C919.579341,169.422487 919.72159,169.506252 919.972376,170.012132 C920.240429,170.552503 920.215762,170.748777 919.838349,171.081376 C919.156706,171.682518 918.779293,171.840195 918.238254,171.752323 C917.957867,171.706334 917.669258,171.681697 917.612523,171.698943 C917.480141,171.738362 916.764785,171.344992 916.375861,171.018141 C915.846333,170.573033 915.889912,169.52432 916.450686,169.236888 Z" id="Fill-9"></path>
        </g>
    </g>
</svg>