<?xml version="1.0" encoding="UTF-8"?>
<svg width="225px" height="168px" viewBox="0 0 225 168" version="1.1" xmlns="http://www.w3.org/2000/svg" xmlns:xlink="http://www.w3.org/1999/xlink">
    <!-- Generator: Sketch 61 (89581) - https://sketch.com -->
    <title>logo</title>
    <desc>Created with Sketch.</desc>
    <defs>
        <polygon id="path-1" points="0 0.292296223 15.3655986 0.292296223 15.3655986 6.61121094 0 6.61121094"></polygon>
    </defs>
    <g id="Page-1" stroke="none" stroke-width="1" fill="none" fill-rule="evenodd">
        <g id="200318_kodomonooka-ver2" transform="translate(-163.000000, -46.000000)">
            <g id="Group-38" transform="translate(163.000000, 46.000000)">
                <path d="M139.483298,61.3315241 L96.692625,21.3752485 L135.653971,24.9275539 L175.656375,61.3315241 L139.483298,61.3315241 Z M136.673394,12.8134374 C142.420413,13.0191292 146.929067,17.8758849 146.724837,23.6387258 C146.658202,25.5073096 146.086183,27.3177443 145.096183,28.8790923 L137.531856,21.9957954 C137.256663,21.7449729 136.906183,21.5904872 136.535798,21.557507 L126.22301,20.6167059 C127.434548,15.965642 131.73724,12.630311 136.673394,12.8134374 L136.673394,12.8134374 Z M181.245894,61.7776235 L147.656856,31.2102656 C149.17301,29.0283707 150.054837,26.4402997 150.149163,23.7610994 C150.42176,16.1045056 144.430702,9.65255391 136.796279,9.37916613 C130.054067,9.1214005 124.172048,13.8314815 122.766663,20.3025269 L92.023875,17.4983494 C92.0039712,17.4966136 91.9840673,17.4948778 91.9632981,17.4940099 C91.7010865,17.4775198 91.4466635,17.5209147 91.2173365,17.6146477 C91.0269519,17.6918906 90.8478173,17.8038494 90.6894519,17.951392 L43.7371442,61.7915099 C43.0457019,62.4380937 43.0067596,63.5255695 43.6514712,64.2198877 C43.9889712,64.5835369 44.4467596,64.7683991 44.9054135,64.7683991 C45.3233942,64.7683991 45.7431058,64.6147812 46.0736827,64.3075454 L91.8577212,21.5566391 L137.64176,64.3075454 C137.95849,64.6043664 138.375606,64.7683991 138.809163,64.7683991 L180.094933,64.7683991 C180.802817,64.7683991 181.437144,64.3309786 181.692433,63.6679048 C181.947721,63.0065667 181.770317,62.2540994 181.245894,61.7776235 L181.245894,61.7776235 Z" id="Fill-1" fill="#E85059"></path>
                <path d="M129.324288,62.0374721 C114.34275,54.0580204 100.01025,35.850394 92.7946731,25.6994622 C92.7946731,25.6985943 92.7946731,25.6985943 92.7938077,25.6977264 C92.7920769,25.6942548 92.7894808,25.6916511 92.7868846,25.6881795 C92.7739038,25.6699536 92.7574615,25.6551994 92.7436154,25.6378414 C92.74275,25.6378414 92.74275,25.6369735 92.7418846,25.6361056 C92.7228462,25.6126724 92.7072692,25.5883712 92.6856346,25.5666738 C92.6804423,25.5605985 92.67525,25.5553911 92.6709231,25.5501837 L92.6579423,25.5371653 C92.65275,25.5319579 92.6475577,25.5276184 92.6423654,25.5232789 C92.6215962,25.5024494 92.5982308,25.4868272 92.5757308,25.4686014 C92.5714038,25.4651298 92.5679423,25.4616582 92.5636154,25.4590545 C92.5489038,25.4469039 92.5359231,25.4321497 92.5203462,25.420867 C92.5194808,25.4199991 92.51775,25.4191312 92.5168846,25.4182633 L92.5013077,25.4078485 C92.4961154,25.4043769 92.4909231,25.4017732 92.4874615,25.3983016 C92.4805385,25.3939622 92.4744808,25.3904906 92.4675577,25.387019 C92.4424615,25.3705289 92.4147692,25.3583783 92.3870769,25.344492 C92.3792885,25.3401525 92.3706346,25.3340772 92.3619808,25.3297377 C92.3472692,25.3219266 92.3325577,25.3123798 92.3169808,25.3045687 C92.3135192,25.3037008 92.3109231,25.3028329 92.3083269,25.3010971 C92.3031346,25.2984934 92.2979423,25.2967576 92.29275,25.2950218 C92.2849615,25.2915502 92.2771731,25.2898144 92.27025,25.2863428 C92.2416923,25.2759281 92.214,25.2698528 92.1854423,25.2611738 C92.1568846,25.2524948 92.1291923,25.2412122 92.0997692,25.234269 C92.0971731,25.234269 92.0954423,25.2334011 92.0945769,25.2325332 L92.0911154,25.2325332 C92.0876538,25.2316653 92.0850577,25.2316653 92.0815962,25.2307974 C92.0729423,25.2290616 92.0642885,25.2281937 92.0573654,25.2264579 C92.0279423,25.2212505 91.9985192,25.2212505 91.9699615,25.2177789 C91.9388077,25.2151752 91.9076538,25.2090999 91.8765,25.208232 C91.8713077,25.208232 91.86525,25.2073641 91.8591923,25.2073641 L91.8574615,25.2073641 L91.8557308,25.2073641 C91.8496731,25.2073641 91.84275,25.208232 91.8375577,25.208232 C91.8064038,25.2090999 91.77525,25.2151752 91.7440962,25.2177789 C91.7155385,25.2212505 91.6861154,25.2212505 91.6575577,25.2273258 C91.6489038,25.2281937 91.6411154,25.2290616 91.6324615,25.2307974 C91.6298654,25.2316653 91.6264038,25.2316653 91.6246731,25.2325332 L91.6212115,25.2325332 C91.6186154,25.2334011 91.6168846,25.234269 91.6151538,25.234269 C91.5857308,25.2412122 91.5571731,25.2524948 91.52775,25.2611738 C91.5000577,25.2698528 91.4723654,25.276796 91.4446731,25.2863428 C91.4368846,25.2898144 91.4290962,25.2915502 91.4213077,25.2950218 C91.4161154,25.2976255 91.4109231,25.2993613 91.4074615,25.3010971 C91.404,25.3028329 91.4005385,25.3037008 91.3979423,25.3045687 C91.3806346,25.3123798 91.3659231,25.3227945 91.3494808,25.3314735 L91.3269808,25.344492 C91.3001538,25.3583783 91.2724615,25.3705289 91.2473654,25.387019 C91.2404423,25.3904906 91.2335192,25.3939622 91.2274615,25.3991695 C91.2222692,25.4017732 91.2179423,25.4052448 91.21275,25.4078485 C91.2084231,25.4113201 91.2032308,25.4147917 91.1980385,25.4182633 C91.1963077,25.4191312 91.1954423,25.4199991 91.1937115,25.420867 C91.1781346,25.4321497 91.1651538,25.4469039 91.1504423,25.4590545 C91.1461154,25.4625261 91.1426538,25.4659977 91.1383269,25.4694693 C91.1166923,25.4876951 91.0933269,25.5024494 91.0725577,25.522411 C91.0673654,25.5276184 91.0613077,25.5319579 91.0561154,25.5380332 C91.0517885,25.5415048 91.0483269,25.5458443 91.0448654,25.5501837 C91.0388077,25.5553911 91.0336154,25.5605985 91.0284231,25.5666738 C91.0085192,25.5875033 90.9920769,25.6118045 90.9747692,25.6343698 C90.9713077,25.6378414 90.9687115,25.6404451 90.9661154,25.6439167 C90.9531346,25.6604068 90.9392885,25.6725573 90.9271731,25.6881795 C90.9254423,25.6907832 90.9228462,25.6942548 90.9211154,25.6968585 C90.92025,25.6977264 90.9193846,25.6994622 90.9185192,25.70033 C83.7029423,35.8512619 69.3713077,54.0580204 54.3897692,62.0374721 C53.8333269,62.335161 53.6213077,63.0286113 53.9172692,63.5866695 C54.1223654,63.9746198 54.5178462,64.1950658 54.9263077,64.1950658 C55.1071731,64.1950658 55.2906346,64.1525389 55.4611154,64.0614096 C62.9008269,60.0994565 74.5489038,51.3597264 89.0198654,32.1626965 C85.3947692,42.5705261 77.5189038,56.0455062 65.6207308,62.0253215 C65.0556346,62.3082562 64.8289038,62.9964991 65.1110192,63.5623684 C65.3109231,63.964205 65.7141923,64.1950658 66.1330385,64.1950658 C66.30525,64.1950658 66.4791923,64.1560104 66.6436154,64.0744281 C78.1869808,58.2725318 86.1087115,45.8320857 90.2357308,35.4181809 C88.2643846,53.2274423 80.6619808,59.9015758 77.1216923,62.072188 C76.5834231,62.4019891 76.4138077,63.1067221 76.7426538,63.6465545 C76.9581346,64.0006568 77.3337115,64.1950658 77.7188077,64.1950658 C77.9221731,64.1950658 78.1281346,64.1412562 78.3141923,64.0266937 C86.6149615,58.9364735 90.279,48.825465 91.8574615,39.8618173 C93.4359231,48.825465 97.0990962,58.9364735 105.400731,64.0266937 C105.586788,64.1412562 105.79275,64.1950658 105.99525,64.1950658 C106.380346,64.1950658 106.755923,64.0006568 106.971404,63.6465545 C107.301115,63.1067221 107.130635,62.4019891 106.592365,62.072188 C103.052942,59.9015758 95.4505385,53.2274423 93.4783269,35.4181809 C97.6062115,45.8320857 105.527942,58.2725318 117.071308,64.0744281 C117.234865,64.1560104 117.409673,64.1950658 117.581885,64.1950658 C117.999865,64.1950658 118.404,63.964205 118.603904,63.5623684 C118.886019,62.9964991 118.658423,62.3082562 118.094192,62.0253215 C106.196019,56.0455062 98.3192885,42.5705261 94.6941923,32.1626965 C109.166019,51.3597264 120.814096,60.0994565 128.252942,64.0614096 C128.423423,64.1525389 128.606885,64.1950658 128.78775,64.1950658 C129.197077,64.1950658 129.592558,63.9737519 129.797654,63.5866695 C130.093615,63.0286113 129.882462,62.335161 129.324288,62.0374721" id="Fill-3" fill="#E85059"></path>
                <path d="M153.890567,28.8166904 C153.300375,28.5979802 152.643548,28.9069518 152.427202,29.5005938 C152.211721,30.0959717 152.516337,30.7529702 153.10999,30.9682089 L157.301048,32.4991805 C157.430856,32.5469148 157.562394,32.5694802 157.693067,32.5694802 C158.15951,32.5694802 158.596529,32.2804702 158.766144,31.8152771 C158.981625,31.2207671 158.676144,30.5629006 158.083356,30.347662 L153.890567,28.8166904 Z" id="Fill-5" fill="#E85059"></path>
                <path d="M114.539192,16.8898663 L118.731981,18.4208379 C118.860923,18.4677043 118.992462,18.4911376 119.123135,18.4911376 C119.589577,18.4911376 120.027462,18.2021276 120.196212,17.7369345 C120.411692,17.1415566 120.107077,16.4836901 119.513423,16.2684515 L115.320635,14.7383478 C114.729577,14.5205055 114.07275,14.8277413 113.857269,15.4222512 C113.640923,16.0167612 113.946404,16.6746276 114.539192,16.8898663" id="Fill-7" fill="#E85059"></path>
                <path d="M123.679038,10.3018282 C123.904904,10.5726123 124.228558,10.7114759 124.554808,10.7114759 C124.813558,10.7114759 125.074038,10.6229504 125.287788,10.4432955 C125.771538,10.0362515 125.834712,9.31329269 125.428846,8.82987366 L122.560962,5.40167763 C122.155096,4.9173907 121.435096,4.85403417 120.952212,5.2602103 C120.468462,5.66725434 120.405288,6.39021315 120.811154,6.87450008 L123.679038,10.3018282 Z" id="Fill-9" fill="#E85059"></path>
                <path d="M132.01001,5.75126684 C132.107798,6.30758928 132.589817,6.69814326 133.134144,6.69814326 C133.199913,6.69814326 133.266548,6.69293587 133.333183,6.6807853 C133.954529,6.57056229 134.369913,5.97692025 134.260875,5.35376968 L133.48549,0.94658502 C133.375587,0.323434452 132.781933,-0.0931564572 132.162317,0.0179344519 C131.540971,0.128157463 131.126452,0.721799509 131.234625,1.34495008 L132.01001,5.75126684 Z" id="Fill-11" fill="#E85059"></path>
                <path d="M142.176635,7.45573118 C142.305577,7.50433346 142.437981,7.5260309 142.567788,7.5260309 C143.034231,7.5260309 143.472115,7.23702096 143.640865,6.77182778 L145.167404,2.56773118 C145.382885,1.97322124 145.077404,1.31535476 144.484615,1.09924823 C143.892692,0.881405901 143.236731,1.1886417 143.020385,1.78315164 L141.494712,5.98811613 C141.278365,6.58262607 141.583846,7.24049255 142.176635,7.45573118" id="Fill-13" fill="#E85059"></path>
                <path d="M150.324231,12.9724363 C150.583846,12.9724363 150.844327,12.8839107 151.058077,12.7042559 L154.475481,9.82891073 C154.958365,9.4218667 155.022404,8.69890789 154.616538,8.21462096 C154.210673,7.72946613 153.490673,7.66697749 153.007788,8.07228573 L149.588654,10.9493667 C149.106635,11.3555428 149.043462,12.0785016 149.448462,12.5627886 C149.674327,12.8327048 149.997981,12.9724363 150.324231,12.9724363" id="Fill-15" fill="#E85059"></path>
                <path d="M153.200077,20.6318073 C153.297865,21.1881298 153.779885,21.5786837 154.324212,21.5786837 C154.389981,21.5786837 154.456615,21.5726085 154.52325,21.5613258 L158.916808,20.7845573 C159.538154,20.6743343 159.953538,20.0798244 159.8445,19.4566738 C159.734596,18.8343911 159.140077,18.419536 158.520462,18.5271553 L154.126904,19.3047917 C153.506423,19.4150147 153.091038,20.0086568 153.200077,20.6318073" id="Fill-17" fill="#E85059"></path>
                <path d="M96.9433269,126.116965 C96.9433269,125.865275 97.1363077,125.654376 97.3864038,125.63181 L103.463135,125.047715 C103.598135,125.035564 103.734,125.081563 103.834385,125.17356 C103.934769,125.266425 103.991885,125.39661 103.991885,125.53287 L103.991885,136.567322 C103.991885,136.83637 103.774673,137.05508 103.506404,137.05508 L97.4296731,137.05508 C97.1614038,137.05508 96.9433269,136.83637 96.9433269,136.567322 L96.9433269,126.116965 Z M110.709865,137.05508 L107.715635,137.05508 C107.448231,137.05508 107.230154,136.83637 107.230154,136.567322 L107.230154,125.158806 C107.230154,124.90538 107.422269,124.694481 107.672365,124.672783 L108.546404,124.594672 C109.43775,124.515694 110.094577,123.727643 110.014962,122.834576 C109.937077,121.940641 109.159962,121.279303 108.259962,121.360885 L97.4720769,122.365043 C97.3362115,122.376326 97.2020769,122.331195 97.1016923,122.23833 C97.0004423,122.146333 96.9433269,122.01528 96.9433269,121.87902 L96.9433269,120.433103 C96.9433269,119.536564 96.2181346,118.809266 95.3241923,118.809266 C94.43025,118.809266 93.7050577,119.536564 93.7050577,120.433103 L93.7050577,136.567322 C93.7050577,136.83637 93.4878462,137.05508 93.2195769,137.05508 L90.8103462,137.05508 C89.9164038,137.05508 89.1912115,137.78151 89.1912115,138.678917 C89.1912115,139.575455 89.9164038,140.302753 90.8103462,140.302753 L110.709865,140.302753 C111.603808,140.302753 112.329,139.575455 112.329,138.678917 C112.329,137.78151 111.603808,137.05508 110.709865,137.05508 L110.709865,137.05508 Z" id="Fill-19" fill="#E85059"></path>
                <path d="M95.3157115,116.987983 C95.5848462,117.003605 95.8591731,116.950663 96.1179231,116.82395 L107.724462,111.095825 C108.527538,110.700064 108.85725,109.726282 108.462635,108.921741 C108.068019,108.116332 107.097923,107.785663 106.295712,108.182292 L94.6883077,113.90955 C93.8869615,114.305311 93.5555192,115.278224 93.9501346,116.083633 C94.2175385,116.629541 94.7506154,116.956738 95.3157115,116.987983" id="Fill-21" fill="#E85059"></path>
                <path d="M2.85897115,116.151416 C4.57849038,115.696638 8.59647115,115.172427 10.0433942,116.462124 C11.2272404,117.516619 11.1831058,118.998989 11.181375,119.043251 C11.125125,119.938054 11.8009904,120.710483 12.6932019,120.767764 C12.7286827,120.7695 12.7632981,120.771236 12.7987788,120.771236 C13.6459904,120.771236 14.3582019,120.110766 14.4135865,119.250679 C14.4862788,118.113733 14.1003173,115.734825 12.1947404,114.035481 C9.07329808,111.251266 2.743875,112.823896 2.03252885,113.01223 C1.16800962,113.240487 0.651375,114.130082 0.880701923,114.996244 C1.10829808,115.863274 1.99445192,116.382277 2.85897115,116.151416" id="Fill-23" fill="#E85059"></path>
                <g id="Group-27" transform="translate(0.000000, 133.647540)">
                    <mask id="mask-2" fill="white">
                        <use xlink:href="#path-1"></use>
                    </mask>
                    <g id="Clip-26"></g>
                    <path d="M13.3939904,2.87404332 C8.66293269,3.93374645 4.72975962,3.19429759 2.87870192,0.896104403 C2.31620192,0.199182528 1.29764423,0.088959517 0.601875,0.652225142 C-0.0938942308,1.21722656 -0.202067308,2.23961009 0.358701923,2.93653196 C1.36514423,4.18370099 4.00629808,6.61121094 9.331875,6.61121094 C10.7294712,6.61121094 12.3122596,6.44370668 14.0984135,6.04360582 C14.9715865,5.84919673 15.5211058,4.98043111 15.3263942,4.1055902 C15.1316827,3.22901349 14.2619712,2.68137003 13.3939904,2.87404332" id="Fill-25" fill="#E85059" mask="url(#mask-2)"></path>
                </g>
                <path d="M33.42375,121.805509 C34.1930769,121.304732 34.9182692,120.83086 35.5482692,120.378686 C36.2760577,119.857947 36.4439423,118.843375 35.9238462,118.11434 C35.4046154,117.383571 34.3921154,117.216934 33.6651923,117.737673 C33.0931731,118.147321 32.3965385,118.602099 31.6583654,119.082914 C30.7583654,119.670481 29.3564423,120.639055 29.3564423,120.639055 C29.2231731,120.729316 29.0535577,120.746674 28.9038462,120.686789 C28.7541346,120.626904 28.6450962,120.495852 28.6104808,120.338762 L26.8096154,112.046 C26.6200962,111.169423 25.7564423,110.612232 24.8832692,110.804906 C24.0100962,110.995843 23.4553846,111.860269 23.6457692,112.737714 L25.7841346,122.609183 C25.8784615,123.181127 25.8784615,123.418931 25.6569231,123.672357 C25.6569231,123.672357 24.3458654,124.742475 23.2269231,126.73864 C22.1079808,128.733937 21.4122115,131.441778 21.8102885,133.635823 C22.7959615,139.056713 27.9051923,140.47399 31.9699038,140.47399 C33.0507692,140.47399 34.0589423,140.373313 34.8949038,140.221431 C35.775,140.061738 36.3574038,139.218142 36.1990385,138.337225 C36.0415385,137.455441 35.1951923,136.866139 34.3211538,137.024964 C33.9819231,137.084849 25.97625,138.44658 24.9966346,133.053464 C24.0628846,127.910302 29.2534615,124.526369 33.42375,121.805509" id="Fill-28" fill="#E85059"></path>
                <path d="M58.4370865,132.334671 C57.5742981,132.095999 56.6838173,132.603719 56.4458365,133.468146 C56.4354519,133.506333 55.3242981,137.205313 53.2317981,137.205313 C52.1665096,137.205313 50.1821827,137.205313 50.1821827,132.904012 C50.1821827,131.541413 50.4045865,127.805981 50.4045865,127.805981 C50.4149712,127.545611 50.6295865,127.340788 50.8892019,127.340788 L55.7042019,127.340788 C56.5981442,127.340788 57.3233365,126.613489 57.3233365,125.716951 C57.3233365,124.820413 56.5981442,124.093114 55.7042019,124.093114 L51.1851635,124.093114 C51.0492981,124.093114 50.9194904,124.034965 50.8277596,123.935157 C50.7360288,123.835349 50.6901635,123.701692 50.7014135,123.565432 L51.0207404,119.699816 C51.0415096,119.447258 51.2517981,119.253717 51.5044904,119.253717 L55.7042019,119.253717 C56.5981442,119.253717 57.3233365,118.526418 57.3233365,117.62988 C57.3233365,116.732474 56.5981442,116.006043 55.7042019,116.006043 L51.8852596,116.006043 C51.7485288,116.006043 51.6169904,115.947894 51.5252596,115.84635 C51.4326635,115.744806 51.3876635,115.609414 51.4006442,115.471418 C51.4006442,115.471418 51.6758365,112.598677 51.6792981,112.553546 C51.7692981,111.661347 51.1202596,110.865485 50.2315096,110.776092 C49.3470865,110.68583 48.5466058,111.337621 48.4583365,112.228952 C48.4392981,112.417286 48.139875,115.565151 48.139875,115.565151 C48.1147788,115.815106 47.9062212,116.006043 47.6552596,116.006043 L44.8747788,116.006043 C43.9808365,116.006043 43.2556442,116.732474 43.2556442,117.62988 C43.2556442,118.526418 43.9808365,119.253717 44.8747788,119.253717 L47.2779519,119.253717 C47.4138173,119.253717 47.5427596,119.31013 47.6353558,119.409938 C47.7270865,119.510614 47.7729519,119.645138 47.7617019,119.78053 L47.4449712,123.645279 C47.4242019,123.897837 47.2130481,124.093114 46.9603558,124.093114 L44.8747788,124.093114 C43.9808365,124.093114 43.2556442,124.820413 43.2556442,125.716951 C43.2556442,126.613489 43.9808365,127.340788 44.8747788,127.340788 L46.6713173,127.340788 C46.8045865,127.340788 46.9309327,127.395465 47.0226635,127.490934 C47.1135288,127.586403 47.1628558,127.715719 47.1567981,127.848508 C47.1567981,127.848508 46.9439135,131.511904 46.9439135,132.904012 C46.9439135,139.47313 50.8831442,140.452986 53.2317981,140.452986 C56.9044904,140.452986 58.9424712,136.605596 59.5672788,134.331704 C59.8052596,133.467278 59.2990096,132.572475 58.4370865,132.334671" id="Fill-30" fill="#E85059"></path>
                <path d="M75.7034135,112.767136 C71.1177404,112.767136 67.9374519,116.466116 66.9794712,122.914596 C66.6488942,125.144225 65.7757212,132.66022 68.4402404,135.76035 C69.2277404,136.675114 70.2610096,137.158533 71.4301442,137.158533 C77.2282212,137.158533 77.2541827,127.032771 77.2541827,121.248232 C77.2541827,120.351694 76.5289904,119.624396 75.6350481,119.624396 C74.7411058,119.624396 74.0159135,120.351694 74.0159135,121.248232 C74.0159135,124.27112 73.9899519,133.91086 71.4301442,133.91086 C71.2423558,133.91086 71.0883173,133.866597 70.8927404,133.640076 C69.8084135,132.378153 69.5029327,127.972704 70.1822596,123.392808 C70.5915865,120.637232 71.8533173,116.014809 75.7034135,116.014809 C76.8630288,116.014809 77.7162981,116.343742 78.3895673,117.051079 C79.3882212,118.09516 80.5210096,120.600781 80.2587981,126.606633 C79.914375,134.476729 77.6894712,136.102302 76.8907212,137.479656 C76.5878365,137.999526 76.1845673,139.111303 76.7877404,139.773509 C77.1062019,140.12414 77.5440865,140.302927 77.9837019,140.302927 C78.373125,140.302927 78.7642788,140.16146 79.0749519,139.876789 C79.2385096,139.726643 83.0851442,136.100566 83.4944712,126.7481 C83.7480288,120.92711 82.8445673,117.019835 80.7304327,114.80496 C79.4392788,113.452775 77.7483173,112.767136 75.7034135,112.767136" id="Fill-32" fill="#E85059"></path>
                <path d="M30.3036923,115.459788 C30.44475,115.967509 30.9034038,116.299913 31.4035962,116.299913 C31.5048462,116.299913 31.6078269,116.286027 31.7099423,116.257386 C32.3174423,116.088146 32.6739808,115.457185 32.5052308,114.847053 L31.5550385,111.417989 C31.3862885,110.808725 30.7571538,110.451151 30.1487885,110.621259 C29.5404231,110.790499 29.18475,111.42146 29.3535,112.031592 L30.3036923,115.459788 Z" id="Fill-34" fill="#E85059"></path>
                <path d="M35.3641154,111.417815 C35.1962308,110.808551 34.5662308,110.451845 33.9587308,110.621085 C33.3503654,110.790325 32.9946923,111.421287 33.1634423,112.031419 L34.1136346,115.459615 C34.2538269,115.967335 34.7133462,116.29974 35.2135385,116.29974 C35.3139231,116.29974 35.4177692,116.285853 35.5198846,116.257213 C36.1273846,116.087973 36.4830577,115.457011 36.3143077,114.846879 L35.3641154,111.417815 Z" id="Fill-36" fill="#E85059"></path>
                <path d="M138.969433,119.24417 L134.909913,119.24417 C134.64424,119.24417 134.427894,119.029799 134.424433,118.762486 C134.424433,118.762486 134.352606,112.787878 134.348279,112.550942 C134.332702,111.664819 133.610971,110.957482 132.73001,110.957482 C132.72049,110.957482 132.710106,110.957482 132.699721,110.95835 C131.805779,110.975708 131.094433,111.715157 131.110875,112.611695 C131.11174,112.669844 131.185298,118.751204 131.185298,118.751204 C131.187029,118.881388 131.135971,119.007234 131.045106,119.099231 C130.953375,119.191228 130.829625,119.24417 130.699817,119.24417 L124.942413,119.24417 C124.048471,119.24417 123.323279,119.971468 123.323279,120.868006 C123.323279,121.764545 124.048471,122.491843 124.942413,122.491843 L130.700683,122.491843 C130.832221,122.491843 130.956837,122.544785 131.048567,122.63765 C131.139433,122.732251 131.189625,122.858096 131.187029,122.989148 C131.187029,122.989148 131.16626,125.590238 131.113471,126.485908 C130.838279,131.114407 128.892894,134.811651 125.168279,137.789408 C124.468183,138.348334 124.353087,139.36985 124.91126,140.071111 C125.230587,140.473816 125.702221,140.682979 126.178183,140.682979 C126.532125,140.682979 126.887798,140.566681 127.186356,140.328877 C131.608471,136.79393 134.017702,132.201883 134.345683,126.67945 C134.402798,125.722158 134.425298,122.968319 134.425298,122.968319 C134.43049,122.70361 134.646837,122.491843 134.910779,122.491843 L138.969433,122.491843 C139.863375,122.491843 140.588567,121.764545 140.588567,120.868006 C140.588567,119.971468 139.863375,119.24417 138.969433,119.24417" id="Fill-38" fill="#E85059"></path>
                <path d="M180.641423,117.625367 L179.422096,117.625367 C179.153827,117.625367 178.936615,117.406657 178.936615,117.137608 L178.936615,112.581145 C178.936615,111.684607 178.211423,110.957309 177.317481,110.957309 C176.423538,110.957309 175.698346,111.684607 175.698346,112.581145 L175.698346,117.137608 C175.698346,117.406657 175.480269,117.625367 175.212865,117.625367 L172.014404,117.625367 C171.747,117.625367 171.529788,117.406657 171.529788,117.137608 L171.529788,112.581145 C171.529788,111.684607 170.804596,110.957309 169.910654,110.957309 C169.015846,110.957309 168.291519,111.684607 168.291519,112.581145 L168.291519,117.137608 C168.291519,117.406657 168.073442,117.625367 167.805173,117.625367 L166.614404,117.625367 C165.720462,117.625367 164.995269,118.352665 164.995269,119.249203 C164.995269,120.145742 165.720462,120.87304 166.614404,120.87304 L167.805173,120.87304 C168.073442,120.87304 168.291519,121.090882 168.291519,121.359931 L168.291519,127.141865 C168.291519,128.038404 169.015846,128.765702 169.910654,128.765702 C170.804596,128.765702 171.529788,128.038404 171.529788,127.141865 L171.529788,121.359931 C171.529788,121.090882 171.747,120.87304 172.014404,120.87304 L175.212865,120.87304 C175.480269,120.87304 175.698346,121.090882 175.698346,121.359931 L175.698346,123.772686 C175.698346,124.18407 175.662865,127.880446 174.432288,131.039594 C173.354019,133.809924 171.384404,136.078608 169.599981,137.93157 C168.977769,138.577286 168.996808,139.604877 169.639788,140.227159 C169.953923,140.531792 170.359788,140.682806 170.764788,140.682806 C171.187962,140.682806 171.611135,140.517037 171.929596,140.187236 C173.818731,138.224051 176.153538,135.544851 177.449019,132.220803 C178.863923,128.584311 178.936615,124.545983 178.936615,123.772686 L178.936615,121.359931 C178.936615,121.090882 179.153827,120.87304 179.422096,120.87304 L180.641423,120.87304 C181.535365,120.87304 182.260558,120.145742 182.260558,119.249203 C182.260558,118.352665 181.535365,117.625367 180.641423,117.625367" id="Fill-40" fill="#E85059"></path>
                <path d="M158.487923,126.834022 L144.946385,126.834022 C144.051577,126.834022 143.326385,127.56132 143.326385,128.457859 C143.326385,129.354397 144.051577,130.081695 144.946385,130.081695 L158.487923,130.081695 C159.381865,130.081695 160.107058,129.354397 160.107058,128.457859 C160.107058,127.56132 159.381865,126.834022 158.487923,126.834022" id="Fill-42" fill="#E85059"></path>
                <path d="M223.380779,126.834022 L209.840106,126.834022 C208.945298,126.834022 208.220106,127.56132 208.220106,128.457859 C208.220106,129.354397 208.945298,130.081695 209.840106,130.081695 L223.380779,130.081695 C224.274721,130.081695 224.999913,129.354397 224.999913,128.457859 C224.999913,127.56132 224.274721,126.834022 223.380779,126.834022" id="Fill-44" fill="#E85059"></path>
                <path d="M199.831154,110.957569 C198.937212,110.957569 198.212019,111.684867 198.212019,112.581406 L198.212019,123.772947 C198.212019,124.183462 198.177404,127.880707 196.946827,131.039854 C195.867692,133.810184 193.898942,136.078001 192.113654,137.93183 C191.492308,138.576678 191.511346,139.605137 192.154327,140.22742 C192.467596,140.531184 192.873462,140.683066 193.278462,140.683066 C193.7025,140.683066 194.125673,140.517298 194.443269,140.187497 C196.333269,138.224312 198.668077,135.545112 199.962692,132.221063 C201.378462,128.584572 201.450288,124.545376 201.450288,123.772947 L201.450288,112.581406 C201.450288,111.684867 200.725096,110.957569 199.831154,110.957569" id="Fill-46" fill="#E85059"></path>
                <path d="M191.691173,112.581492 C191.691173,111.684954 190.965981,110.957656 190.072038,110.957656 C189.178096,110.957656 188.452904,111.684954 188.452904,112.581492 L188.452904,127.141345 C188.452904,128.038751 189.178096,128.765181 190.072038,128.765181 C190.965981,128.765181 191.691173,128.038751 191.691173,127.141345 L191.691173,112.581492 Z" id="Fill-48" fill="#E85059"></path>
                <path d="M58.186125,86.5233839 C58.186125,86.233506 58.456125,86.098114 58.7157404,86.098114 C58.9866058,86.098114 59.2470865,86.233506 59.2470865,86.5233839 L59.2470865,89.1913015 L60.5287212,89.1913015 L60.5287212,84.7737021 C60.5287212,84.4838242 60.7978558,84.3388853 61.0583365,84.3388853 C61.3283365,84.3388853 61.5896827,84.4838242 61.5896827,84.7737021 L61.5896827,86.378445 L63.5359327,86.378445 C63.7955481,86.378445 63.9305481,86.6110416 63.9305481,86.8523171 C63.9305481,87.0840458 63.7955481,87.3253214 63.5359327,87.3253214 L61.5896827,87.3253214 L61.5896827,89.1913015 L64.8660288,89.1913015 C65.1351635,89.1913015 65.2615096,89.4230302 65.2615096,89.6651737 C65.2615096,89.8977702 65.1351635,90.1390458 64.8660288,90.1390458 L57.0680481,90.1390458 C56.8084327,90.1390458 56.6725673,89.8977702 56.6725673,89.6651737 C56.6725673,89.4230302 56.8084327,89.1913015 57.0680481,89.1913015 L58.186125,89.1913015 L58.186125,86.5233839 Z M65.2121827,84.9576964 C65.453625,85.0835416 65.5600673,85.2961765 65.5600673,85.4897177 C65.5600673,85.7700487 65.3471827,86.0312859 65.0391058,86.0312859 C64.9326635,86.0312859 64.8071827,85.9922305 64.6817019,85.9245345 C63.3040096,85.1607845 61.8968942,84.0194989 60.9042981,82.8122532 C59.9117019,84.0481396 58.5712212,85.2189336 57.1554519,86.0781523 C57.0585288,86.1371694 56.9520865,86.16581 56.8655481,86.16581 C56.5860288,86.16581 56.3653558,85.9245345 56.3653558,85.6537504 C56.3653558,85.4897177 56.4415096,85.3144023 56.6535288,85.190293 C58.1766058,84.2520955 59.5447788,83.0240202 60.4802596,81.6423271 C60.604875,81.4687475 60.7788173,81.3906367 60.9622788,81.3906367 C61.2322788,81.3906367 61.4918942,81.574631 61.4918942,81.8445472 C61.4918942,81.8940174 61.4832404,81.9426197 61.4728558,81.9999009 C62.3979519,83.1411864 63.7765096,84.1939464 65.2121827,84.9576964 L65.2121827,84.9576964 Z" id="Fill-50" fill="#E85059"></path>
                <path d="M74.0520865,84.7647627 C74.2156442,84.5226193 74.3705481,84.2518352 74.4856442,83.9914658 C74.5341058,83.8942613 74.5920865,83.8265653 74.6587212,83.7788309 L72.4329519,83.7788309 C72.4718942,83.7987925 72.5004519,83.8265653 72.5290096,83.8552059 C72.6544904,84.0096917 72.7410288,84.1268579 72.8466058,84.3004374 C72.8950673,84.3785482 72.9149712,84.4549232 72.9149712,84.5226193 C72.9149712,84.6102769 72.8768942,84.6970667 72.8180481,84.7647627 L74.0520865,84.7647627 Z M70.0817019,85.577115 C69.8506442,85.577115 69.7338173,85.373159 69.7338173,85.1709389 C69.7338173,84.9669829 69.8506442,84.7647627 70.0817019,84.7647627 L72.0668942,84.7647627 L72.0478558,84.7352542 C71.9509327,84.5911832 71.8643942,84.4549232 71.7674712,84.3290781 C71.6999712,84.2414204 71.6714135,84.1554985 71.6714135,84.0782556 C71.6714135,83.9524104 71.7389135,83.845659 71.8444904,83.7788309 L69.6377596,83.7788309 C69.4067019,83.7788309 69.2812212,83.566196 69.2812212,83.353561 C69.2812212,83.1504729 69.4067019,82.937838 69.6377596,82.937838 L71.1028558,82.937838 C71.0258365,82.8996505 70.9583365,82.8406335 70.9003558,82.7547116 C70.8138173,82.6089048 70.6987212,82.4735127 70.5342981,82.2808394 C70.4572788,82.1931818 70.4287212,82.106392 70.4287212,82.0291491 C70.4287212,81.8069673 70.6493942,81.6134261 70.9003558,81.6134261 C71.0258365,81.6134261 71.1504519,81.6620283 71.2577596,81.7679119 C71.4109327,81.9137187 71.5372788,82.0577897 71.6618942,82.241784 C71.7389135,82.3580823 71.7769904,82.4639658 71.7769904,82.5611704 C71.7769904,82.7252031 71.6618942,82.8692741 71.517375,82.937838 L72.2399712,82.937838 L72.2399712,81.7479502 C72.2399712,81.478034 72.4814135,81.351321 72.7219904,81.351321 C72.9634327,81.351321 73.2040096,81.478034 73.2040096,81.7479502 L73.2040096,82.937838 L73.8781442,82.937838 L73.8781442,81.7479502 C73.8781442,81.478034 74.1195865,81.351321 74.3705481,81.351321 C74.611125,81.351321 74.8517019,81.478034 74.8517019,81.7479502 L74.8517019,82.937838 L75.6227596,82.937838 C75.477375,82.8692741 75.3717981,82.7347499 75.3717981,82.5698494 C75.3717981,82.4735127 75.4020865,82.3867229 75.477375,82.2895184 C75.6037212,82.1445795 75.7196827,81.9900937 75.8356442,81.7965525 C75.9317019,81.6325198 76.0857404,81.5639559 76.2397788,81.5639559 C76.4812212,81.5639559 76.7313173,81.7479502 76.7313173,81.9900937 C76.7313173,82.0577897 76.7027596,82.1359005 76.6551635,82.2218224 C76.5192981,82.4344573 76.3747788,82.6479602 76.2112212,82.8215397 C76.1618942,82.8692741 76.1142981,82.9083295 76.0571827,82.937838 L77.5404519,82.937838 C77.7914135,82.937838 77.907375,83.1504729 77.907375,83.353561 C77.907375,83.566196 77.7914135,83.7788309 77.5404519,83.7788309 L75.3146827,83.7788309 C75.4107404,83.845659 75.477375,83.9428636 75.477375,84.0678408 C75.477375,84.1355369 75.4583365,84.2041008 75.421125,84.2717968 C75.3242019,84.4549232 75.2281442,84.6102769 75.1217019,84.7647627 L77.2427596,84.7647627 C77.4738173,84.7647627 77.5889135,84.9669829 77.5889135,85.1709389 C77.5889135,85.373159 77.4738173,85.577115 77.2427596,85.577115 L74.0616058,85.577115 L74.0616058,86.0700809 L76.4517981,86.0700809 C76.6837212,86.0700809 76.7892981,86.2636221 76.7892981,86.4658423 C76.7892981,86.6593835 76.6837212,86.8624715 76.4517981,86.8624715 L74.0616058,86.8624715 L74.0616058,87.3745312 L77.4253558,87.3745312 C77.6667981,87.3745312 77.7818942,87.5767514 77.7818942,87.7807073 C77.7818942,87.9829275 77.6667981,88.1860156 77.4253558,88.1860156 L74.6872788,88.1860156 C75.5267019,88.640794 76.5668942,89.0079147 77.6858365,89.2491903 C77.9549712,89.3073394 78.0717981,89.5112954 78.0717981,89.7135156 C78.0717981,89.9547911 77.907375,90.1873877 77.6079519,90.1873877 C77.5603558,90.1873877 77.502375,90.1778408 77.4452596,90.168294 C76.1817981,89.8480397 74.9382404,89.3168863 74.0140096,88.6885283 L74.0616058,89.6067641 L74.0616058,90.1873877 C74.0616058,90.4382102 73.8201635,90.5649232 73.5700673,90.5649232 C73.3294904,90.5649232 73.0785288,90.4382102 73.0785288,90.1873877 L73.0785288,89.6067641 L73.1174712,88.7275837 C72.1716058,89.3750354 70.9479519,89.9070568 69.7338173,90.244669 C69.6767019,90.2542158 69.6282404,90.2646306 69.5797788,90.2646306 C69.3002596,90.2646306 69.1358365,90.0415809 69.1358365,89.8193991 C69.1358365,89.6354048 69.2422788,89.4618252 69.492375,89.3941292 C70.5342981,89.1337599 71.5649712,88.70849 72.4424712,88.1860156 L69.7433365,88.1860156 C69.5122788,88.1860156 69.3867981,87.9829275 69.3867981,87.7807073 C69.3867981,87.5767514 69.5122788,87.3745312 69.7433365,87.3745312 L73.0785288,87.3745312 L73.0785288,86.8624715 L70.7463173,86.8624715 C70.5239135,86.8624715 70.4088173,86.6593835 70.4088173,86.4658423 C70.4088173,86.2636221 70.5239135,86.0700809 70.7463173,86.0700809 L73.0785288,86.0700809 L73.0785288,85.577115 L70.0817019,85.577115 Z" id="Fill-52" fill="#E85059"></path>
                <path d="M86.6863558,82.1635864 C86.8317404,82.2998464 86.8888558,82.4543322 86.8888558,82.5992711 C86.8888558,82.8995637 86.6301058,83.1503862 86.3306827,83.1503862 C86.2052019,83.1503862 86.0702019,83.1017839 85.9542404,82.9854856 C85.694625,82.7346631 85.3476058,82.4439174 85.1165481,82.2807526 C84.9426058,82.1540396 84.8655865,82.0004217 84.8655865,81.8554827 C84.8655865,81.5838308 85.1061635,81.3321404 85.4064519,81.3321404 C85.5016442,81.3321404 85.6080865,81.3616489 85.7032788,81.420666 C86.0416442,81.6133393 86.3886635,81.8745765 86.6863558,82.1635864 L86.6863558,82.1635864 Z M85.6556827,87.0264174 L83.2654904,87.0264174 C82.9669327,87.0264174 82.8120288,86.7747271 82.8120288,86.5325836 C82.8120288,86.2817612 82.9669327,86.0404856 83.2654904,86.0404856 L85.6556827,86.0404856 L85.6556827,84.3880083 L82.7549135,84.3880083 C82.4554904,84.3880083 82.3023173,84.1354501 82.3023173,83.8941745 C82.3023173,83.6424842 82.4554904,83.4012086 82.7549135,83.4012086 L89.7619327,83.4012086 C90.0700096,83.4012086 90.2145288,83.6424842 90.2145288,83.8941745 C90.2145288,84.1354501 90.0700096,84.3880083 89.7619327,84.3880083 L86.7547212,84.3880083 L86.7547212,86.0404856 L89.2799135,86.0404856 C89.5879904,86.0404856 89.733375,86.2817612 89.733375,86.5325836 C89.733375,86.7747271 89.5879904,87.0264174 89.2799135,87.0264174 L86.7547212,87.0264174 L86.7547212,88.9791873 L90.1478942,88.9791873 C90.4551058,88.9791873 90.599625,89.2204629 90.599625,89.4721532 C90.599625,89.7134288 90.4551058,89.9651191 90.1478942,89.9651191 L82.3689519,89.9651191 C82.0703942,89.9651191 81.9163558,89.7134288 81.9163558,89.4721532 C81.9163558,89.2204629 82.0703942,88.9791873 82.3689519,88.9791873 L85.6556827,88.9791873 L85.6556827,87.0264174 Z" id="Fill-54" fill="#E85059"></path>
                <path d="M101.142692,85.8852187 C101.315769,85.8852187 101.383269,85.8279374 101.383269,85.7020923 L101.383269,85.5380596 L98.4920192,85.5380596 L98.4920192,85.7020923 C98.4920192,85.8470312 98.6071154,85.8852187 98.7334615,85.8852187 L101.142692,85.8852187 Z M98.4920192,85.0355468 L101.384135,85.0355468 L101.384135,84.7066136 L98.4920192,84.7066136 L98.4920192,85.0355468 Z M101.383269,84.0678408 C101.383269,83.9428636 101.325288,83.8847144 101.152212,83.8847144 L98.7230769,83.8847144 C98.55,83.8847144 98.4920192,83.9428636 98.4920192,84.0678408 L98.4920192,84.2041008 L101.383269,84.2041008 L101.383269,84.0678408 Z M101.276827,83.3049587 C102.067788,83.3049587 102.308365,83.5757428 102.308365,84.0878025 L102.308365,85.6916775 C102.308365,86.3695056 101.866154,86.4840681 101.276827,86.4840681 L98.5975962,86.4840681 C97.8075,86.4840681 97.5660577,86.2245667 97.5660577,85.7116391 L97.5660577,84.0878025 C97.5660577,83.5757428 97.8075,83.3049587 98.5975962,83.3049587 L99.1185577,83.3049587 C99.1575,83.1982073 99.1947115,83.0923238 99.2241346,82.9855724 L97.2874038,82.9855724 C97.0658654,82.9855724 96.9594231,82.8015781 96.9594231,82.6279985 C96.9594231,82.4440042 97.0658654,82.2704247 97.2874038,82.2704247 L98.55,82.2704247 C98.4825,82.174088 98.4046154,82.0872982 98.3284615,81.9900937 C98.2704808,81.9232656 98.2505769,81.8451548 98.2505769,81.7774587 C98.2505769,81.5743707 98.4825,81.4007911 98.7135577,81.4007911 C98.8286538,81.4007911 98.9454808,81.4389786 99.0320192,81.5353153 C99.1947115,81.7097627 99.2725962,81.8069673 99.3790385,81.9423593 C99.4361538,82.0187343 99.4560577,82.0968451 99.4560577,82.1636732 C99.4560577,82.2027286 99.4456731,82.241784 99.4361538,82.2704247 L100.352596,82.2704247 C100.486731,82.0577897 100.602692,81.8451548 100.708269,81.6325198 C100.795673,81.4684872 100.949712,81.3903764 101.113269,81.3903764 C101.354712,81.3903764 101.615192,81.5639559 101.615192,81.7965525 C101.615192,81.8547016 101.595288,81.9137187 101.557212,81.9805468 C101.498365,82.0872982 101.442115,82.182767 101.383269,82.2704247 L102.732404,82.2704247 C102.953942,82.2704247 103.070769,82.4440042 103.070769,82.6279985 C103.070769,82.8015781 102.953942,82.9855724 102.732404,82.9855724 L100.188173,82.9855724 L100.072212,83.3049587 L101.276827,83.3049587 Z M96.3908654,82.5889431 C96.5068269,82.7156562 96.5544231,82.8501803 96.5544231,82.9673465 C96.5544231,83.2268479 96.3320192,83.4403508 96.0732692,83.4403508 C95.9374038,83.4403508 95.8024038,83.3917485 95.6873077,83.2659033 C95.4752885,83.0532684 95.2831731,82.8605951 95.0702885,82.6861477 C94.9448077,82.5793962 94.8963462,82.4639658 94.8963462,82.3485354 C94.8963462,82.106392 95.1178846,81.893757 95.3974038,81.893757 C95.5029808,81.893757 95.6198077,81.9328124 95.7349038,82.0091874 C95.9858654,82.1931818 96.2074038,82.3954019 96.3908654,82.5889431 L96.3908654,82.5889431 Z M96.6894231,86.1950582 C97.2778846,86.6107812 98.145,86.832963 99.8697115,86.832963 C100.76625,86.832963 101.566731,86.8043224 102.298846,86.7557201 C102.463269,86.7453053 102.684808,86.7262116 102.780865,86.7262116 C103.041346,86.7262116 103.185,86.9388465 103.185,87.1419346 C103.185,87.3450227 103.06125,87.537696 102.810288,87.5576576 C101.98125,87.6158068 101.064808,87.6444474 99.9086538,87.6444474 C98.0290385,87.6444474 96.9879808,87.4135866 96.2852885,86.8624715 C95.8993269,87.2295923 95.5419231,87.5186022 95.1758654,87.7503309 C95.0893269,87.8093479 94.9941346,87.8379886 94.9058654,87.8379886 C94.64625,87.8379886 94.4446154,87.6158068 94.4446154,87.3745312 C94.4446154,87.2391391 94.51125,87.0950681 94.6938462,86.9779019 C95.0226923,86.7748139 95.3688462,86.5040298 95.7253846,86.204605 L95.7253846,85.3245568 C95.7253846,85.1709389 95.6682692,85.1214687 95.4657692,85.1214687 L94.9551923,85.1214687 C94.6938462,85.1214687 94.5692308,84.9097016 94.5692308,84.6970667 C94.5692308,84.4844318 94.6938462,84.2717968 94.9551923,84.2717968 L95.6873077,84.2717968 C96.4583654,84.2717968 96.6894231,84.5321661 96.6894231,85.1509772 L96.6894231,86.1950582 Z M99.9475962,88.0506235 C99.9475962,87.8188948 100.208077,87.7034644 100.458173,87.7034644 C100.718654,87.7034644 100.969615,87.8188948 100.969615,88.0506235 L100.969615,88.1764687 L102.934904,88.1764687 C103.156442,88.1764687 103.272404,88.369142 103.272404,88.5626832 C103.272404,88.7562244 103.156442,88.9497656 102.934904,88.9497656 L100.969615,88.9497656 L100.969615,89.6267258 C100.969615,90.2542158 100.632115,90.5649232 99.8991346,90.5649232 C99.7450962,90.5649232 99.5521154,90.5649232 99.3305769,90.5258678 C99.0796154,90.4868124 98.9740385,90.2932712 98.9740385,90.09973 C98.9740385,89.8784161 99.1185577,89.6649133 99.3695192,89.6649133 C99.3980769,89.6649133 99.4171154,89.6744602 99.4456731,89.6744602 C99.5330769,89.6848749 99.6576923,89.7039687 99.7641346,89.7039687 C99.9181731,89.7039687 99.9475962,89.6744602 99.9475962,89.5295212 L99.9475962,88.9497656 L97.3929808,88.9497656 L97.4120192,88.9593124 C97.5859615,89.0469701 97.8075,89.2205497 97.9805769,89.3750354 C98.1060577,89.4817869 98.1649038,89.6067641 98.1649038,89.7334772 C98.1649038,89.9747528 97.9433654,90.1873877 97.6828846,90.1873877 C97.5755769,90.1873877 97.4708654,90.1587471 97.3644231,90.0710894 C97.1610577,89.9070568 96.9689423,89.7421562 96.7958654,89.616311 C96.6703846,89.5199744 96.6124038,89.4036761 96.6124038,89.2882457 C96.6124038,89.1624005 96.6894231,89.0270085 96.8045192,88.9497656 L94.6272115,88.9497656 C94.4151923,88.9497656 94.2992308,88.7562244 94.2992308,88.5626832 C94.2992308,88.369142 94.4151923,88.1764687 94.6272115,88.1764687 L99.9475962,88.1764687 L99.9475962,88.0506235 Z" id="Fill-56" fill="#E85059"></path>
                <path d="M115.338721,85.9046596 C115.338721,86.6788244 114.982183,86.9773812 114.21026,86.9773812 C114.06574,86.9773812 113.882279,86.9687022 113.709202,86.9383258 C113.420163,86.8914593 113.285163,86.6788244 113.285163,86.4653215 C113.285163,86.2144991 113.448721,85.9827704 113.748144,85.9827704 C113.777567,85.9827704 113.806125,85.9923173 113.834683,85.9923173 C113.960163,86.011411 114.00776,86.0218258 114.104683,86.0218258 C114.258721,86.0218258 114.316702,85.9723556 114.316702,85.7892292 L114.316702,82.116286 C114.316702,81.844634 114.567663,81.7101099 114.81776,81.7101099 C115.077375,81.7101099 115.338721,81.844634 115.338721,82.1258329 L115.338721,85.9046596 Z M112.544394,82.5511028 C112.544394,82.2803187 112.793625,82.1449266 113.044587,82.1449266 C113.295548,82.1449266 113.54651,82.2803187 113.54651,82.5511028 L113.54651,85.0836283 C113.54651,85.3535445 113.295548,85.4889366 113.044587,85.4889366 C112.793625,85.4889366 112.544394,85.3535445 112.544394,85.0836283 L112.544394,82.5511028 Z M109.198817,83.8355914 L110.037375,83.8355914 L110.037375,82.7437761 L109.198817,82.7437761 L109.198817,83.8355914 Z M110.77901,88.5630303 L108.437279,88.5630303 C108.207087,88.5630303 108.08074,88.3495275 108.08074,88.1473073 C108.08074,87.9346724 108.207087,87.7307164 108.437279,87.7307164 L110.77901,87.7307164 L110.77901,87.2776738 C110.77901,86.9973428 111.03949,86.8628187 111.290452,86.8628187 C111.550067,86.8628187 111.801029,86.9973428 111.801029,87.2776738 L111.801029,87.7307164 L114.20074,87.7307164 C114.442183,87.7307164 114.558144,87.9346724 114.558144,88.1473073 C114.558144,88.3495275 114.442183,88.5630303 114.20074,88.5630303 L111.801029,88.5630303 L111.801029,89.346742 L115.251317,89.346742 C115.49276,89.346742 115.61824,89.5593769 115.61824,89.7720119 C115.61824,89.9846468 115.49276,90.195546 115.251317,90.195546 L107.358144,90.195546 C107.116702,90.195546 107.001606,89.9846468 107.001606,89.7720119 C107.001606,89.5593769 107.116702,89.346742 107.358144,89.346742 L110.77901,89.346742 L110.77901,88.5630303 Z M109.131317,84.6670374 C108.997183,85.6052349 108.612087,86.3785318 108.003721,86.987796 C107.868721,87.1223201 107.724202,87.1709224 107.599587,87.1709224 C107.339106,87.1709224 107.127087,86.9687022 107.127087,86.7170119 C107.127087,86.5911667 107.174683,86.4653215 107.290644,86.3394764 C107.713817,85.8951127 108.003721,85.3735062 108.138721,84.6670374 L107.339106,84.6670374 C107.098529,84.6670374 106.982567,84.4544025 106.982567,84.2521823 C106.982567,84.0395474 107.098529,83.8355914 107.339106,83.8355914 L108.216606,83.8355914 L108.216606,82.7437761 L107.627279,82.7437761 C107.387567,82.7437761 107.271606,82.532009 107.271606,82.328921 C107.271606,82.116286 107.387567,81.9131979 107.627279,81.9131979 L111.550067,81.9131979 C111.790644,81.9131979 111.91699,82.116286 111.91699,82.328921 C111.91699,82.532009 111.790644,82.7437761 111.550067,82.7437761 L111.020452,82.7437761 L111.020452,83.8355914 L111.772471,83.8355914 C112.013048,83.8355914 112.139394,84.0395474 112.139394,84.2521823 C112.139394,84.4544025 112.013048,84.6670374 111.772471,84.6670374 L111.020452,84.6670374 L111.020452,86.4462278 C111.020452,86.7170119 110.77901,86.8524039 110.528048,86.8524039 C110.288337,86.8524039 110.037375,86.7170119 110.037375,86.4462278 L110.037375,84.6670374 L109.131317,84.6670374 Z" id="Fill-58" fill="#E85059"></path>
                <path d="M126.04526,84.1460384 C126.286702,84.1460384 126.354202,84.0783424 126.354202,83.8162373 L126.354202,83.0342614 C126.354202,82.7730242 126.286702,82.7061961 126.04526,82.7061961 L124.021125,82.7061961 C123.780548,82.7061961 123.713048,82.7730242 123.713048,82.9674333 L123.713048,83.8848012 C123.713048,84.106983 123.81949,84.1460384 124.021125,84.1460384 L126.04526,84.1460384 Z M123.828144,85.0347657 C123.038048,85.0347657 122.691029,84.7067004 122.691029,84.039287 L122.691029,82.8120796 C122.691029,82.1446663 123.038048,81.815733 123.828144,81.815733 L126.23824,81.815733 C127.028337,81.815733 127.376221,82.1446663 127.376221,82.8120796 L127.376221,84.039287 C127.376221,84.8039049 126.932279,85.0347657 126.23824,85.0347657 L123.828144,85.0347657 Z M125.515644,89.1433935 L125.515644,90.0520825 C125.515644,90.3324134 125.265548,90.4669376 125.004202,90.4669376 C124.754106,90.4669376 124.49449,90.3324134 124.49449,90.0520825 L124.49449,89.1433935 L124.531702,87.8675839 C123.972663,88.56277 123.269971,89.2102217 122.556894,89.6650001 C122.451317,89.7326961 122.344875,89.7622046 122.247952,89.7622046 C121.978817,89.7622046 121.766798,89.529608 121.766798,89.2787856 C121.766798,89.1338467 121.842952,88.978493 122.026413,88.8726095 C122.74901,88.4369248 123.520067,87.7608325 124.079971,87.0170441 L122.451317,87.0170441 C122.209875,87.0170441 122.084394,86.7844475 122.084394,86.5622657 C122.084394,86.330537 122.209875,86.1074873 122.451317,86.1074873 L124.49449,86.1074873 L124.49449,85.6448978 C124.49449,85.3732458 124.754106,85.2387217 125.004202,85.2387217 C125.265548,85.2387217 125.515644,85.3732458 125.515644,85.6448978 L125.515644,86.1074873 L127.684298,86.1074873 C127.93526,86.1074873 128.059875,86.330537 128.059875,86.5622657 C128.059875,86.7844475 127.93526,87.0170441 127.684298,87.0170441 L125.901606,87.0170441 C126.469298,87.6358552 127.269779,88.2347046 128.040837,88.6599745 C128.262375,88.7858197 128.348913,88.9593992 128.348913,89.1338467 C128.348913,89.394216 128.136894,89.6459063 127.857375,89.6459063 C127.770837,89.6459063 127.674779,89.6163978 127.577856,89.5591166 C126.777375,89.0947913 126.04526,88.4673012 125.477567,87.8094347 L125.515644,89.1433935 Z M120.445356,85.779422 L120.242856,86.0979404 C120.11824,86.2914816 119.944298,86.3695924 119.781606,86.3695924 C119.51074,86.3695924 119.270163,86.1656364 119.270163,85.8853055 C119.270163,85.779422 119.298721,85.6726705 119.37574,85.5572401 C120.002279,84.6103637 120.542279,83.2173879 120.839971,81.9033907 C120.898817,81.6517004 121.129875,81.5267231 121.361798,81.5267231 C121.640452,81.5267231 121.919971,81.7011705 121.919971,82.0188211 C121.919971,82.0578765 121.910452,82.1064788 121.900933,82.1542131 C121.717471,82.9370569 121.419779,83.7884646 121.062375,84.5808552 C121.283913,84.6103637 121.476894,84.7448879 121.476894,84.9670697 L121.476894,90.0998168 C121.476894,90.3610541 121.217279,90.4868992 120.966317,90.4868992 C120.705837,90.4868992 120.445356,90.3610541 120.445356,90.0998168 L120.445356,85.779422 Z" id="Fill-60" fill="#E85059"></path>
                <path d="M135.663404,83.1213116 C135.509365,83.4207363 135.345808,83.711482 135.162346,84.0013599 C135.962827,83.9527576 136.752923,83.8946085 137.543019,83.8260445 C137.476385,83.7687633 137.408885,83.720161 137.339654,83.6724266 C137.225423,83.5856369 137.166577,83.4788854 137.166577,83.3730019 C137.166577,83.2853443 137.205519,83.1881397 137.273019,83.1213116 L135.663404,83.1213116 Z M134.284846,88.0414238 L137.919462,88.0414238 L137.919462,87.4616681 L134.284846,87.4616681 L134.284846,88.0414238 Z M134.708885,86.1268414 C134.362731,86.1268414 134.284846,86.1954053 134.284846,86.4366809 L134.284846,86.6883712 L137.919462,86.6883712 L137.919462,86.4366809 C137.919462,86.1954053 137.842442,86.1268414 137.495423,86.1268414 L134.708885,86.1268414 Z M137.629558,85.2962633 C138.603115,85.2962633 138.950135,85.5965559 138.950135,86.3203826 L138.950135,89.3944764 C138.950135,90.1391326 138.603115,90.4776127 137.832058,90.4776127 C137.649462,90.4776127 137.3985,90.4671979 137.196,90.4472363 C136.897442,90.4081809 136.762442,90.195546 136.762442,89.974232 C136.762442,89.7425033 136.926,89.5012278 137.205519,89.5012278 L137.273019,89.5012278 C137.427058,89.5203215 137.581962,89.5298684 137.697923,89.5298684 C137.842442,89.5298684 137.919462,89.4717193 137.919462,89.2590843 L137.919462,88.8147207 L134.284846,88.8147207 L134.284846,90.1582264 C134.284846,90.4081809 134.024365,90.5453087 133.774269,90.5453087 C133.514654,90.5453087 133.254173,90.4081809 133.254173,90.1582264 L133.254173,86.3203826 C133.254173,85.5965559 133.610712,85.2962633 134.57475,85.2962633 L137.629558,85.2962633 Z M135.499846,81.776938 C135.499846,81.4974749 135.759462,81.3620829 136.030327,81.3620829 C136.289942,81.3620829 136.549558,81.4974749 136.549558,81.776938 L136.549558,82.2898656 L140.01975,82.2898656 C140.251673,82.2898656 140.367635,82.4929536 140.367635,82.7055886 C140.367635,82.9086766 140.251673,83.1213116 140.01975,83.1213116 L138.0735,83.1213116 C138.612635,83.4988471 139.162154,83.9527576 139.595712,84.3875744 C139.721192,84.5134195 139.769654,84.6479437 139.769654,84.7737889 C139.769654,85.0350261 139.548115,85.2467931 139.287635,85.2467931 C139.162154,85.2467931 139.017635,85.1999266 138.892154,85.0636667 C138.728596,84.899634 138.535615,84.7060928 138.333981,84.5220985 C136.454365,84.7737889 134.37225,84.9187278 132.541962,84.9473684 C132.252058,84.9577832 132.107538,84.7260545 132.107538,84.5038727 C132.107538,84.2912377 132.241673,84.0786028 132.522058,84.0786028 C133.012731,84.0786028 133.524173,84.068188 134.024365,84.0482264 C134.226865,83.7496695 134.401673,83.43983 134.564365,83.1213116 L132.098019,83.1213116 C131.866096,83.1213116 131.741481,82.9086766 131.741481,82.7055886 C131.741481,82.4929536 131.866096,82.2898656 132.098019,82.2898656 L135.499846,82.2898656 L135.499846,81.776938 Z" id="Fill-62" fill="#E85059"></path>
                <path d="M149.023644,87.848143 L149.023644,88.2543191 L150.507779,88.2543191 C150.854798,88.2543191 150.912779,88.2248106 150.912779,88.0312694 L150.912779,87.848143 L149.023644,87.848143 Z M149.023644,87.0357907 L150.912779,87.0357907 L150.912779,86.8622112 C150.912779,86.6695379 150.854798,86.6391614 150.507779,86.6391614 L149.023644,86.6391614 L149.023644,87.0357907 Z M149.023644,84.7740492 L150.373644,84.7740492 C150.576144,84.7740492 150.624606,84.716768 150.624606,84.580508 L150.624606,84.3973816 C150.624606,84.2611217 150.576144,84.2047083 150.373644,84.2047083 L149.023644,84.2047083 L149.023644,84.7740492 Z M148.040567,84.7740492 L148.040567,84.2047083 L146.806529,84.2047083 C146.604894,84.2047083 146.555567,84.2611217 146.555567,84.3973816 L146.555567,84.580508 C146.555567,84.7549555 146.653356,84.7740492 146.806529,84.7740492 L148.040567,84.7740492 Z M146.480279,85.4987438 C145.987875,85.4987438 145.612298,85.2965237 145.612298,84.7549555 L145.612298,84.2220663 C145.612298,83.749062 145.901337,83.4791458 146.480279,83.4791458 L148.040567,83.4791458 L148.040567,83.1016103 L144.763356,83.1016103 C144.51326,83.1016103 144.37826,82.8698816 144.37826,82.6572467 C144.37826,82.4541586 144.502875,82.2311089 144.763356,82.2311089 L148.040567,82.2311089 L148.040567,81.729464 C148.040567,81.4586799 148.28201,81.3232879 148.523452,81.3232879 C148.773548,81.3232879 149.023644,81.4682268 149.023644,81.7390109 L149.023644,82.2311089 L152.435856,82.2311089 C152.695471,82.2311089 152.830471,82.4437438 152.830471,82.6667935 C152.830471,82.8794285 152.695471,83.1016103 152.435856,83.1016103 L149.023644,83.1016103 L149.023644,83.4791458 L150.70076,83.4791458 C151.278837,83.4791458 151.567875,83.749062 151.567875,84.2220663 L151.567875,84.7549555 C151.567875,85.2288276 151.278837,85.4987438 150.70076,85.4987438 L149.023644,85.4987438 L149.023644,85.8658646 L150.585663,85.8658646 C151.626721,85.8658646 151.89499,86.1175549 151.89499,86.7554597 L151.89499,87.0357907 L152.647875,87.0357907 C152.90749,87.0357907 153.043356,87.2388788 153.043356,87.4419668 C153.043356,87.6450549 152.90749,87.848143 152.647875,87.848143 L151.89499,87.848143 L151.89499,88.1371529 C151.89499,88.7750577 151.626721,89.0267481 150.585663,89.0267481 L149.023644,89.0267481 L149.023644,89.4919413 C149.023644,90.3129725 148.618644,90.5742097 147.925471,90.5742097 C147.616529,90.5742097 147.39499,90.5542481 147.202875,90.5151927 C146.923356,90.4674583 146.797875,90.2539555 146.797875,90.0413205 C146.797875,89.800045 146.970952,89.5492225 147.279029,89.5492225 C147.309317,89.5492225 147.346529,89.5492225 147.384606,89.5596373 C147.53951,89.58741 147.645087,89.5978248 147.780087,89.5978248 C147.992971,89.5978248 148.040567,89.5292609 148.040567,89.3470023 L148.040567,89.0267481 L145.341433,89.0267481 C145.11124,89.0267481 144.995279,88.8340748 144.995279,88.6405336 C144.995279,88.4469924 145.11124,88.2543191 145.341433,88.2543191 L148.040567,88.2543191 L148.040567,87.848143 L144.483837,87.848143 C144.234606,87.848143 144.10826,87.635508 144.10826,87.4419668 C144.10826,87.2492935 144.234606,87.0357907 144.483837,87.0357907 L148.040567,87.0357907 L148.040567,86.6391614 L145.341433,86.6391614 C145.11124,86.6391614 144.995279,86.4464881 144.995279,86.252947 C144.995279,86.0594058 145.11124,85.8658646 145.341433,85.8658646 L148.040567,85.8658646 L148.040567,85.4987438 L146.480279,85.4987438 Z" id="Fill-64" fill="#E85059"></path>
                <path d="M161.613087,84.7647627 C161.77751,84.5226193 161.931548,84.2518352 162.046644,83.9914658 C162.095971,83.8942613 162.153087,83.8265653 162.219721,83.7788309 L159.993952,83.7788309 C160.032894,83.7987925 160.061452,83.8265653 160.090875,83.8552059 C160.216356,84.0096917 160.302894,84.1268579 160.408471,84.3004374 C160.456933,84.3785482 160.476837,84.4549232 160.476837,84.5226193 C160.476837,84.6102769 160.437894,84.6970667 160.379048,84.7647627 L161.613087,84.7647627 Z M157.642702,85.577115 C157.411644,85.577115 157.295683,85.373159 157.295683,85.1709389 C157.295683,84.9669829 157.411644,84.7647627 157.642702,84.7647627 L159.627894,84.7647627 L159.608856,84.7352542 C159.512798,84.5911832 159.42626,84.4549232 159.328471,84.3290781 C159.261837,84.2414204 159.233279,84.1554985 159.233279,84.0782556 C159.233279,83.9524104 159.300779,83.845659 159.406356,83.7788309 L157.19876,83.7788309 C156.967702,83.7788309 156.843087,83.566196 156.843087,83.353561 C156.843087,83.1504729 156.967702,82.937838 157.19876,82.937838 L158.664721,82.937838 C158.586837,82.8996505 158.519337,82.8406335 158.461356,82.7547116 C158.374817,82.6089048 158.259721,82.4735127 158.095298,82.2808394 C158.019144,82.1931818 157.989721,82.106392 157.989721,82.0291491 C157.989721,81.8069673 158.21126,81.6134261 158.461356,81.6134261 C158.586837,81.6134261 158.711452,81.6620283 158.81876,81.7679119 C158.971933,81.9137187 159.098279,82.0577897 159.222894,82.241784 C159.300779,82.3580823 159.33799,82.4639658 159.33799,82.5611704 C159.33799,82.7252031 159.222894,82.8692741 159.078375,82.937838 L159.800971,82.937838 L159.800971,81.7479502 C159.800971,81.478034 160.042413,81.351321 160.283856,81.351321 C160.524433,81.351321 160.76501,81.478034 160.76501,81.7479502 L160.76501,82.937838 L161.44001,82.937838 L161.44001,81.7479502 C161.44001,81.478034 161.680587,81.351321 161.931548,81.351321 C162.172125,81.351321 162.412702,81.478034 162.412702,81.7479502 L162.412702,82.937838 L163.184625,82.937838 C163.03924,82.8692741 162.933663,82.7347499 162.933663,82.5698494 C162.933663,82.4735127 162.963087,82.3867229 163.03924,82.2895184 C163.165587,82.1445795 163.280683,81.9900937 163.39751,81.7965525 C163.492702,81.6325198 163.64674,81.5639559 163.801644,81.5639559 C164.042221,81.5639559 164.293183,81.7479502 164.293183,81.9900937 C164.293183,82.0577897 164.26376,82.1359005 164.216163,82.2218224 C164.081163,82.4344573 163.936644,82.6479602 163.772221,82.8215397 C163.72376,82.8692741 163.676163,82.9083295 163.618183,82.937838 L165.101452,82.937838 C165.352413,82.937838 165.46924,83.1504729 165.46924,83.353561 C165.46924,83.566196 165.352413,83.7788309 165.101452,83.7788309 L162.875683,83.7788309 C162.972606,83.845659 163.03924,83.9428636 163.03924,84.0678408 C163.03924,84.1355369 163.020202,84.2041008 162.982125,84.2717968 C162.886067,84.4549232 162.789144,84.6102769 162.682702,84.7647627 L164.804625,84.7647627 C165.034817,84.7647627 165.150779,84.9669829 165.150779,85.1709389 C165.150779,85.373159 165.034817,85.577115 164.804625,85.577115 L161.622606,85.577115 L161.622606,86.0700809 L164.013663,86.0700809 C164.244721,86.0700809 164.350298,86.2636221 164.350298,86.4658423 C164.350298,86.6593835 164.244721,86.8624715 164.013663,86.8624715 L161.622606,86.8624715 L161.622606,87.3745312 L164.986356,87.3745312 C165.227798,87.3745312 165.34376,87.5767514 165.34376,87.7807073 C165.34376,87.9829275 165.227798,88.1860156 164.986356,88.1860156 L162.249144,88.1860156 C163.087702,88.640794 164.12876,89.0079147 165.246837,89.2491903 C165.516837,89.3073394 165.632798,89.5112954 165.632798,89.7135156 C165.632798,89.9547911 165.46924,90.1873877 165.169817,90.1873877 C165.121356,90.1873877 165.06424,90.1778408 165.00626,90.168294 C163.743663,89.8480397 162.500106,89.3168863 161.574144,88.6885283 L161.622606,89.6067641 L161.622606,90.1873877 C161.622606,90.4382102 161.381163,90.5649232 161.131933,90.5649232 C160.89049,90.5649232 160.639529,90.4382102 160.639529,90.1873877 L160.639529,89.6067641 L160.678471,88.7275837 C159.733471,89.3750354 158.509817,89.9070568 157.295683,90.244669 C157.237702,90.2542158 157.190106,90.2646306 157.141644,90.2646306 C156.86126,90.2646306 156.697702,90.0415809 156.697702,89.8193991 C156.697702,89.6354048 156.804144,89.4618252 157.053375,89.3941292 C158.095298,89.1337599 159.125971,88.70849 160.004337,88.1860156 L157.304337,88.1860156 C157.073279,88.1860156 156.947798,87.9829275 156.947798,87.7807073 C156.947798,87.5767514 157.073279,87.3745312 157.304337,87.3745312 L160.639529,87.3745312 L160.639529,86.8624715 L158.307317,86.8624715 C158.085779,86.8624715 157.969817,86.6593835 157.969817,86.4658423 C157.969817,86.2636221 158.085779,86.0700809 158.307317,86.0700809 L160.639529,86.0700809 L160.639529,85.577115 L157.642702,85.577115 Z" id="Fill-66" fill="#E85059"></path>
                <path d="M59.5915096,162.175425 C59.8372788,162.874083 60.1592019,163.529346 60.5780481,164.152496 C61.0912212,164.925793 61.7342019,165.601885 62.4732404,166.172094 C62.7743942,166.408162 63.0945865,166.601703 63.4268942,166.805659 C63.6839135,166.956674 63.7912212,167.171044 63.7912212,167.375868 C63.7912212,167.69699 63.5229519,168.009434 63.169875,168.009434 C63.0513173,168.009434 62.933625,167.977321 62.8167981,167.912229 C61.1881442,166.967088 59.7741058,165.334573 59.0134327,163.410444 C58.7555481,164.227135 58.4232404,164.861569 58.0069904,165.441324 C57.2887212,166.451557 56.1844904,167.429678 55.0603558,167.987736 C54.9314135,168.051961 54.8137212,168.074526 54.7167981,168.074526 C54.3637212,168.074526 54.1283365,167.78378 54.1283365,167.472205 C54.1283365,167.267381 54.2365096,167.05301 54.4822788,166.924561 C55.4991058,166.408162 56.4207404,165.64528 57.0420865,164.764364 C57.5457404,164.055292 57.8884327,163.347087 58.0814135,162.175425 L54.8777596,162.175425 C54.5575673,162.175425 54.3966058,161.89683 54.3966058,161.606084 C54.3966058,161.325753 54.5575673,161.047158 54.8777596,161.047158 L58.2094904,161.047158 C58.2631442,160.424007 58.2839135,159.694105 58.2839135,158.813189 C58.2839135,158.459087 58.5954519,158.287243 58.894875,158.287243 C59.2064135,158.287243 59.5049712,158.459087 59.5049712,158.813189 C59.5049712,159.661993 59.4729519,160.403178 59.4201635,161.047158 L63.0729519,161.047158 C63.394875,161.047158 63.5549712,161.325753 63.5549712,161.606084 C63.5549712,161.89683 63.394875,162.175425 63.0729519,162.175425 L59.5915096,162.175425 Z" id="Fill-68" fill="#E85059"></path>
                <path d="M71.5995865,162.572922 C71.3962212,162.91661 71.1824712,163.249882 70.9453558,163.571005 C71.6099712,163.53976 72.2737212,163.496365 72.9279519,163.443424 C72.8639135,163.388746 72.788625,163.335804 72.7245865,163.293277 C72.5852596,163.206488 72.5316058,163.089321 72.5316058,162.970419 C72.5316058,162.80899 72.6492981,162.648429 72.8422788,162.572922 L71.5995865,162.572922 Z M73.7846827,160.231334 C74.0849712,160.231334 74.1282404,160.16711 74.1282404,160.016096 L74.1282404,159.735765 C74.1282404,159.575203 74.0849712,159.521394 73.7846827,159.521394 L68.7178558,159.521394 C68.3959327,159.521394 68.3215096,159.586486 68.3215096,159.790442 L68.3215096,160.231334 L73.7846827,160.231334 Z M71.1712212,166.376918 L69.1462212,166.376918 C68.8892019,166.376918 68.7507404,166.139114 68.7507404,165.914328 C68.7507404,165.67826 68.8892019,165.451739 69.1462212,165.451739 L71.1712212,165.451739 L71.1712212,165.065525 C71.1712212,164.786061 71.4602596,164.656745 71.7389135,164.656745 C72.0279519,164.656745 72.3057404,164.786061 72.3057404,165.065525 L72.3057404,165.451739 L74.588625,165.451739 C74.8560288,165.451739 74.9849712,165.67826 74.9849712,165.914328 C74.9849712,166.139114 74.8560288,166.376918 74.588625,166.376918 L72.3057404,166.376918 L72.3057404,167.042596 L75.5414135,167.042596 C75.8096827,167.042596 75.9377596,167.278664 75.9377596,167.514732 C75.9377596,167.751668 75.8096827,167.987736 75.5414135,167.987736 L68.2029519,167.987736 C67.9467981,167.987736 67.8074712,167.751668 67.8074712,167.514732 C67.8074712,167.278664 67.9467981,167.042596 68.2029519,167.042596 L71.1712212,167.042596 L71.1712212,166.376918 Z M75.3060288,161.670309 C75.5838173,161.670309 75.7240096,161.89683 75.7240096,162.121615 C75.7240096,162.347269 75.5838173,162.572922 75.3060288,162.572922 L73.3770865,162.572922 L73.5060288,162.637147 C73.9456442,162.91661 74.577375,163.443424 74.9321827,163.820091 C75.0593942,163.959823 75.1242981,164.109969 75.1242981,164.23755 C75.1242981,164.528296 74.8664135,164.764364 74.5669904,164.764364 C74.4051635,164.764364 74.2355481,164.688857 74.0849712,164.528296 C74.0096827,164.441506 73.924875,164.346037 73.8270865,164.248833 C72.2849712,164.453657 70.5922788,164.570823 69.0285288,164.614218 C68.6962212,164.6255 68.524875,164.366867 68.524875,164.120384 C68.524875,163.873033 68.6858365,163.62655 69.0068942,163.62655 C69.2318942,163.62655 69.447375,163.615267 69.6706442,163.615267 C69.9172788,163.281995 70.1422788,162.927892 70.3568942,162.572922 L68.299875,162.572922 C68.1925673,164.807759 67.7962212,166.332655 67.1532404,167.546844 C67.0251635,167.795063 66.8114135,167.902682 66.6071827,167.902682 C66.3077596,167.902682 66.0187212,167.686576 66.0187212,167.375868 C66.0187212,167.278664 66.0507404,167.171044 66.1035288,167.064293 C66.8114135,165.741617 67.1852596,164.109969 67.1852596,161.251982 L67.1852596,159.726218 C67.1852596,159.00673 67.5288173,158.662175 68.5672788,158.662175 L73.9889135,158.662175 C74.9321827,158.662175 75.2203558,158.974618 75.2203558,159.532676 L75.2203558,160.199222 C75.2203558,160.971651 74.6422788,161.069723 73.9889135,161.069723 L68.3215096,161.069723 L68.3215096,161.670309 L75.3060288,161.670309 Z" id="Fill-70" fill="#E85059"></path>
                <path d="M85.6705673,162.37886 C85.8964327,162.37886 85.9604712,162.315504 85.9604712,162.121963 L85.9604712,161.456285 L83.6247981,161.456285 L83.6247981,162.37886 L85.6705673,162.37886 Z M85.9604712,159.898409 C85.9604712,159.704867 85.8964327,159.640643 85.6705673,159.640643 L83.9242212,159.640643 C83.7000865,159.640643 83.6247981,159.704867 83.6247981,159.898409 L83.6247981,160.531974 L85.9604712,160.531974 L85.9604712,159.898409 Z M85.3495096,163.346566 C85.4455673,163.743196 85.564125,164.141561 85.7242212,164.528643 C86.0885481,164.259595 86.4321058,163.981 86.7410481,163.668556 C86.8708558,163.540107 87.0101827,163.486298 87.1495096,163.486298 C87.4497981,163.486298 87.7059519,163.733649 87.7059519,164.013112 C87.7059519,164.131146 87.6522981,164.259595 87.5346058,164.377629 C87.1062404,164.775126 86.6458558,165.141379 86.1949904,165.408691 C86.5697019,166.000598 87.0413365,166.483149 87.5770096,166.847666 C87.802875,166.99868 87.8989327,167.192221 87.8989327,167.376215 C87.8989327,167.676508 87.6522981,167.934274 87.3312404,167.934274 C87.2031635,167.934274 87.0733558,167.891747 86.9348942,167.794542 C85.6497981,166.871099 84.6952788,165.313223 84.2781635,163.346566 L83.6247981,163.346566 L83.6247981,166.569938 C83.9458558,166.483149 84.2677788,166.386812 84.5775865,166.279193 C84.6424904,166.258363 84.7073942,166.24708 84.7601827,166.24708 C85.0717212,166.24708 85.2949904,166.516997 85.2949904,166.784309 C85.2949904,166.966568 85.1876827,167.138411 84.9419135,167.236484 C84.0427788,167.579303 82.9705673,167.891747 81.9321058,168.08442 C81.8888365,168.095703 81.8576827,168.095703 81.8256635,168.095703 C81.4933558,168.095703 81.2899904,167.794542 81.2899904,167.515079 C81.2899904,167.289426 81.4172019,167.074187 81.6958558,167.020377 C81.952875,166.966568 82.2211442,166.913626 82.4894135,166.859816 L82.4894135,159.790789 C82.4894135,159.00621 82.8537404,158.652107 83.764125,158.652107 L85.8098942,158.652107 C86.7315288,158.652107 87.0949904,159.00621 87.0949904,159.790789 L87.0949904,162.229582 C87.0949904,163.131328 86.666625,163.346566 85.8315288,163.346566 L85.3495096,163.346566 Z M78.4402788,161.703636 C78.1607596,161.703636 78.0335481,161.445002 78.0335481,161.187237 C78.0335481,160.929471 78.1607596,160.671705 78.4290288,160.671705 L79.500375,160.671705 L79.500375,158.683352 C79.500375,158.393474 79.7790288,158.253742 80.0568173,158.253742 C80.3250865,158.253742 80.6046058,158.393474 80.6046058,158.683352 L80.6046058,160.671705 L81.3964327,160.671705 C81.6750865,160.671705 81.8040288,160.929471 81.8040288,161.187237 C81.8040288,161.445002 81.6750865,161.703636 81.3964327,161.703636 L80.6046058,161.703636 L80.6046058,162.637494 C81.0104712,162.949069 81.4717212,163.400376 81.7823942,163.808288 C81.8784519,163.926322 81.9104712,164.044356 81.9104712,164.152843 C81.9104712,164.421024 81.6750865,164.625848 81.4284519,164.625848 C81.2899904,164.625848 81.1497981,164.560755 81.0424904,164.409741 C80.9144135,164.227482 80.7647019,164.033941 80.6046058,163.862098 L80.6046058,167.837069 C80.6046058,168.148644 80.3250865,168.310073 80.0568173,168.310073 C79.7790288,168.310073 79.500375,168.148644 79.500375,167.837069 L79.500375,166.30089 L79.5315288,164.076468 C79.3177788,164.646677 79.061625,165.183906 78.7717212,165.634345 C78.6540288,165.806188 78.5043173,165.881696 78.3546058,165.881696 C78.0967212,165.881696 77.8622019,165.667325 77.8622019,165.398276 C77.8622019,165.301072 77.8942212,165.205603 77.9573942,165.097984 C78.5372019,164.205785 79.0287404,163.055821 79.3826827,161.703636 L78.4402788,161.703636 Z" id="Fill-72" fill="#E85059"></path>
                <path d="M91.4662212,164.044269 C91.4662212,165.033673 91.8513173,165.399058 92.2372788,165.399058 C92.5687212,165.399058 92.858625,165.226346 93.1692981,164.678702 C93.7162212,163.722279 94.1117019,162.336247 94.2406442,160.757541 C92.6440096,161.069116 91.4662212,162.455149 91.4662212,164.044269 M90.2339135,164.044269 C90.2339135,161.59593 92.2580481,159.585879 95.2046827,159.585879 C97.8190096,159.585879 99.3291058,161.230545 99.3291058,163.368177 C99.3291058,165.313136 98.1824712,166.740827 96.3400673,167.331866 C96.2543942,167.363978 96.1687212,167.376129 96.0942981,167.376129 C95.7299712,167.376129 95.4928558,167.0741 95.4928558,166.763393 C95.4928558,166.526457 95.6226635,166.290389 95.9437212,166.172354 C97.4650673,165.623843 98.0751635,164.7004 98.0751635,163.368177 C98.0751635,161.960447 97.122375,160.800068 95.4928558,160.682901 C95.3864135,162.465563 94.9467981,164.076381 94.2830481,165.248043 C93.6937212,166.290389 93.0619904,166.601096 92.2372788,166.601096 C91.1442981,166.601096 90.2339135,165.721048 90.2339135,164.044269" id="Fill-74" fill="#E85059"></path>
                <path d="M106.313019,161.531271 C107.265808,161.809867 108.370038,162.262041 109.205135,162.755875 C109.482923,162.917304 109.601481,163.14209 109.601481,163.367743 C109.601481,163.701016 109.322827,164.002176 108.968885,164.002176 C108.839942,164.002176 108.711865,163.970064 108.572538,163.883274 C107.855135,163.432835 107.072827,163.056168 106.313019,162.755875 L106.313019,167.783607 C106.313019,168.128162 106.012731,168.299138 105.712442,168.299138 C105.412154,168.299138 105.112731,168.128162 105.112731,167.783607 L105.112731,160.123541 L101.481577,160.123541 C101.160519,160.123541 100.999558,159.844946 100.999558,159.564615 C100.999558,159.285152 101.160519,159.006557 101.481577,159.006557 L110.286865,159.006557 C110.608788,159.006557 110.768885,159.285152 110.768885,159.564615 C110.768885,159.844946 110.608788,160.123541 110.286865,160.123541 L106.313019,160.123541 L106.313019,161.531271 Z" id="Fill-76" fill="#E85059"></path>
                <path d="M113.88176,164.044269 C113.88176,165.033673 114.266856,165.399058 114.652817,165.399058 C114.98426,165.399058 115.273298,165.226346 115.584837,164.678702 C116.13176,163.722279 116.52724,162.336247 116.656183,160.757541 C115.059548,161.069116 113.88176,162.455149 113.88176,164.044269 M112.649452,164.044269 C112.649452,161.59593 114.673587,159.585879 117.620221,159.585879 C120.233683,159.585879 121.744644,161.230545 121.744644,163.368177 C121.744644,165.313136 120.59801,166.740827 118.755606,167.331866 C118.669933,167.363978 118.58426,167.376129 118.509837,167.376129 C118.14551,167.376129 117.908394,167.0741 117.908394,166.763393 C117.908394,166.526457 118.038202,166.290389 118.35926,166.172354 C119.880606,165.623843 120.490702,164.7004 120.490702,163.368177 C120.490702,161.960447 119.537913,160.800068 117.908394,160.682901 C117.801952,162.465563 117.362337,164.076381 116.698587,165.248043 C116.10926,166.290389 115.477529,166.601096 114.652817,166.601096 C113.559837,166.601096 112.649452,165.721048 112.649452,164.044269" id="Fill-78" fill="#E85059"></path>
                <path d="M129.909981,162.873822 C129.631327,162.873822 129.48075,162.627339 129.48075,162.379121 C129.48075,162.132638 129.631327,161.885287 129.909981,161.885287 L132.523442,161.885287 C132.812481,161.885287 132.961327,162.132638 132.961327,162.379121 C132.961327,162.627339 132.812481,162.873822 132.523442,162.873822 L129.909981,162.873822 Z M131.022865,164.667767 C130.809115,165.334312 130.562481,166.000858 130.295077,166.644838 C130.862769,166.558916 131.441712,166.472126 132.009404,166.365375 C131.911615,166.204814 131.816423,166.065082 131.709115,165.914068 C131.633827,165.806449 131.601808,165.699697 131.601808,165.602493 C131.601808,165.323898 131.858827,165.129489 132.148731,165.129489 C132.308827,165.129489 132.491423,165.194581 132.6195,165.366425 C133.047865,165.914068 133.423442,166.558916 133.734115,167.170784 C133.786904,167.278403 133.808538,167.375608 133.808538,167.46153 C133.808538,167.78352 133.509115,168.009173 133.219212,168.009173 C133.027096,168.009173 132.834115,167.912837 132.726808,167.686315 C132.652385,167.536169 132.576231,167.386023 132.501808,167.225462 C131.344788,167.524886 130.3695,167.719295 129.319788,167.826047 C129.095654,167.847744 128.848154,167.869442 128.752096,167.869442 C128.399019,167.869442 128.217288,167.601261 128.217288,167.321798 C128.217288,167.074447 128.377385,166.837511 128.720942,166.805399 L129.095654,166.773287 C129.395077,166.085912 129.663346,165.377707 129.877096,164.667767 L128.891423,164.667767 C128.612769,164.667767 128.463058,164.420416 128.463058,164.173933 C128.463058,163.926582 128.612769,163.680099 128.891423,163.680099 L133.476231,163.680099 C133.765269,163.680099 133.915846,163.926582 133.915846,164.173933 C133.915846,164.420416 133.765269,164.667767 133.476231,164.667767 L131.022865,164.667767 Z M133.979885,161.164932 C134.172865,161.294249 134.258538,161.466092 134.258538,161.626653 C134.258538,161.928682 133.990269,162.21856 133.669212,162.21856 C133.551519,162.21856 133.423442,162.175165 133.304885,162.090111 C132.597865,161.573712 131.762769,160.746605 131.131038,159.897801 C130.530462,160.79 129.791423,161.617106 129.042,162.250672 C128.923442,162.347876 128.795365,162.390403 128.676808,162.390403 C128.377385,162.390403 128.13075,162.143052 128.13075,161.852307 C128.13075,161.691746 128.196519,161.531185 128.377385,161.38017 C129.212481,160.683249 130.037192,159.682562 130.595365,158.673197 C130.722577,158.447544 130.938058,158.350339 131.141423,158.350339 C131.430462,158.350339 131.697865,158.533466 131.697865,158.823344 C131.697865,158.877153 131.687481,158.91968 131.665846,158.974358 C132.297577,159.800597 133.198442,160.638986 133.979885,161.164932 L133.979885,161.164932 Z M128.227673,166.172702 C128.227673,166.204814 128.238058,166.225643 128.238058,166.257756 C128.238058,166.538087 128.001808,166.67695 127.777673,166.67695 C127.584692,166.67695 127.381327,166.570199 127.349308,166.332395 C127.284404,165.871541 127.167577,165.323898 127.02825,164.861308 C127.017,164.818781 127.006615,164.785801 127.006615,164.753689 C127.006615,164.528035 127.23075,164.367474 127.45575,164.367474 C127.616712,164.367474 127.777673,164.453396 127.852962,164.657352 C128.024308,165.140771 128.162769,165.720527 128.227673,166.172702 L128.227673,166.172702 Z M125.152962,164.495923 C125.377962,164.495923 125.602096,164.635655 125.602096,164.904703 L125.602096,164.935947 C125.528538,165.688415 125.345942,166.461712 125.152962,166.956413 C125.066423,167.170784 124.884692,167.267121 124.702962,167.267121 C124.478827,167.267121 124.242577,167.10656 124.242577,166.860077 C124.242577,166.794984 124.253827,166.73076 124.285846,166.665668 C124.456327,166.247341 124.638923,165.506156 124.713346,164.850026 C124.745365,164.613957 124.950462,164.495923 125.152962,164.495923 L125.152962,164.495923 Z M125.763058,163.9153 C125.367577,163.94828 124.992,163.969977 124.627673,163.980392 C124.317,163.990807 124.167288,163.733041 124.167288,163.475276 C124.167288,163.21751 124.306615,162.970159 124.606904,162.970159 C124.756615,162.970159 124.916712,162.960612 125.077673,162.960612 C125.303538,162.627339 125.506904,162.304481 125.720654,161.971209 C125.356327,161.509487 124.928827,161.037351 124.531615,160.638986 C124.425173,160.532234 124.381038,160.424615 124.381038,160.305713 C124.381038,160.047947 124.627673,159.812747 124.895942,159.812747 C125.00325,159.812747 125.121808,159.854406 125.22825,159.951611 C125.442,159.542831 125.635846,159.081109 125.807192,158.652368 C125.892,158.425847 126.084981,158.319095 126.287481,158.319095 C126.556615,158.319095 126.824885,158.501354 126.824885,158.792099 C126.824885,158.845041 126.812769,158.909266 126.791135,158.974358 C126.577385,159.511587 126.277962,160.123454 125.934404,160.692795 C126.041712,160.810829 126.149019,160.939278 126.245942,161.05818 C126.438058,160.724908 126.610269,160.392503 126.749596,160.101757 C126.835269,159.908216 127.006615,159.822294 127.177962,159.822294 C127.445365,159.822294 127.724885,160.027118 127.724885,160.305713 C127.724885,160.370805 127.702385,160.456727 127.659115,160.532234 C127.295654,161.251722 126.738346,162.16475 126.234692,162.884237 C126.534981,162.86254 126.824885,162.830427 127.123442,162.798315 C127.060269,162.680281 127.006615,162.572662 126.941712,162.465043 C126.909692,162.401686 126.888923,162.336594 126.888923,162.272369 C126.888923,162.057999 127.113923,161.87574 127.338923,161.87574 C127.487769,161.87574 127.627096,161.939097 127.734404,162.099658 C127.981038,162.476325 128.238058,163.013554 128.399019,163.475276 C128.419788,163.540368 128.431038,163.594177 128.431038,163.647987 C128.431038,163.926582 128.173154,164.087143 127.938635,164.087143 C127.756038,164.087143 127.595077,164.002089 127.520654,163.797266 L127.487769,163.711344 C127.274019,163.743456 127.049019,163.776436 126.835269,163.797266 L126.835269,167.902422 C126.835269,168.170602 126.567,168.310334 126.299596,168.310334 C126.032192,168.310334 125.763058,168.170602 125.763058,167.902422 L125.763058,163.9153 Z" id="Fill-80" fill="#E85059"></path>
                <path d="M141.626423,164.323993 L141.626423,165.258719 L143.137385,165.258719 C143.395269,165.258719 143.522481,165.517352 143.522481,165.77425 C143.522481,166.032883 143.395269,166.290649 143.137385,166.290649 L141.626423,166.290649 L141.626423,167.91275 C141.626423,168.212175 141.33825,168.363189 141.048346,168.363189 C140.759308,168.363189 140.470269,168.212175 140.470269,167.91275 L140.470269,166.290649 L139.055365,166.290649 C138.799212,166.290649 138.659885,166.032883 138.659885,165.77425 C138.659885,165.517352 138.799212,165.258719 139.055365,165.258719 L140.470269,165.258719 L140.470269,164.323993 L140.513538,162.658497 C139.677577,164.002003 138.381231,165.345508 136.956808,166.300196 C136.83825,166.376571 136.710173,166.419098 136.602865,166.419098 C136.303442,166.419098 136.067192,166.160464 136.067192,165.881869 C136.067192,165.72044 136.152865,165.548596 136.344981,165.420148 C137.791904,164.48629 139.087385,163.088974 140.041904,161.519815 L137.064115,161.519815 C136.775077,161.519815 136.634885,161.251635 136.634885,160.993001 C136.634885,160.725689 136.775077,160.467055 137.064115,160.467055 L140.470269,160.467055 L140.470269,158.596736 C140.470269,158.297311 140.759308,158.157579 141.048346,158.157579 C141.33825,158.157579 141.626423,158.297311 141.626423,158.596736 L141.626423,160.467055 L145.172769,160.467055 C145.462673,160.467055 145.612385,160.725689 145.612385,160.993001 C145.612385,161.251635 145.462673,161.519815 145.172769,161.519815 L141.980365,161.519815 C143.030942,163.100257 144.390462,164.281466 145.761231,165.065177 C146.019115,165.215324 146.126423,165.430562 146.126423,165.634518 C146.126423,165.946094 145.868538,166.247254 145.526712,166.247254 C145.408154,166.247254 145.290462,166.215142 145.162385,166.139635 C143.737096,165.258719 142.473635,163.980305 141.584019,162.550878 L141.626423,164.323993 Z" id="Fill-82" fill="#E85059"></path>
                <path d="M149.650702,164.044269 C149.650702,165.033673 150.035798,165.399058 150.42176,165.399058 C150.753202,165.399058 151.043106,165.226346 151.353779,164.678702 C151.900702,163.722279 152.296183,162.336247 152.425125,160.757541 C150.82849,161.069116 149.650702,162.455149 149.650702,164.044269 M148.418394,164.044269 C148.418394,161.59593 150.442529,159.585879 153.389163,159.585879 C156.00349,159.585879 157.513587,161.230545 157.513587,163.368177 C157.513587,165.313136 156.366952,166.740827 154.524548,167.331866 C154.438875,167.363978 154.353202,167.376129 154.278779,167.376129 C153.914452,167.376129 153.677337,167.0741 153.677337,166.763393 C153.677337,166.526457 153.807144,166.290389 154.128202,166.172354 C155.649548,165.623843 156.259644,164.7004 156.259644,163.368177 C156.259644,161.960447 155.306856,160.800068 153.677337,160.682901 C153.570894,162.465563 153.131279,164.076381 152.467529,165.248043 C151.878202,166.290389 151.246471,166.601096 150.42176,166.601096 C149.328779,166.601096 148.418394,165.721048 148.418394,164.044269" id="Fill-84" fill="#E85059"></path>
                <path d="M169.035663,163.808722 C169.314317,163.808722 169.444125,164.034375 169.444125,164.260029 C169.444125,164.496097 169.314317,164.72175 169.035663,164.72175 L167.792971,164.72175 C168.296625,165.334486 168.96124,165.924656 169.582587,166.397661 C169.742683,166.526977 169.817971,166.677124 169.817971,166.82727 C169.817971,167.106733 169.582587,167.364499 169.293548,167.364499 C169.18624,167.364499 169.057298,167.321972 168.940471,167.225635 C168.393548,166.77346 167.86826,166.2371 167.461529,165.710286 L167.503933,167.052924 L167.503933,167.879162 C167.503933,168.159493 167.236529,168.310507 166.96826,168.310507 C166.689606,168.310507 166.422202,168.159493 166.422202,167.879162 L166.422202,167.052924 L166.455087,165.79534 C166.069125,166.322154 165.575856,166.870665 165.018548,167.321972 C164.901721,167.418308 164.783163,167.461703 164.676721,167.461703 C164.407587,167.461703 164.184317,167.225635 164.184317,166.977416 C164.184317,166.837685 164.24749,166.698821 164.398067,166.579919 C165.029798,166.074803 165.639894,165.409125 166.133163,164.72175 L165.297202,164.72175 C165.018548,164.72175 164.890471,164.496097 164.890471,164.260029 C164.890471,164.034375 165.018548,163.808722 165.286817,163.808722 L166.422202,163.808722 L166.422202,163.131762 C166.422202,162.841884 166.689606,162.702152 166.96826,162.702152 C167.236529,162.702152 167.503933,162.841884 167.503933,163.131762 L167.503933,163.808722 L169.035663,163.808722 Z M165.307587,162.024324 L165.307587,162.755962 C165.307587,163.056254 165.029798,163.207269 164.739894,163.207269 C164.462971,163.207269 164.173067,163.056254 164.173067,162.755962 L164.173067,162.024324 L164.215471,160.90734 C163.294702,161.745729 162.136817,162.497328 160.884606,163.034557 C160.798067,163.077952 160.71326,163.089235 160.626721,163.089235 C160.327298,163.089235 160.112683,162.841884 160.112683,162.584118 C160.112683,162.40186 160.21999,162.218733 160.455375,162.122397 C161.58124,161.649392 162.630952,161.015827 163.519702,160.273774 L160.840471,160.273774 C160.573933,160.273774 160.434606,160.027291 160.434606,159.790355 C160.434606,159.543004 160.573933,159.306936 160.840471,159.306936 L164.173067,159.306936 L164.173067,158.533639 C164.173067,158.242894 164.462971,158.10403 164.739894,158.10403 C165.029798,158.10403 165.307587,158.242894 165.307587,158.533639 L165.307587,159.306936 L168.789894,159.306936 C169.067683,159.306936 169.20701,159.543004 169.20701,159.790355 C169.20701,160.027291 169.067683,160.273774 168.789894,160.273774 L165.972202,160.273774 C166.904221,160.982847 168.04999,161.56347 169.164606,161.949685 C169.444125,162.046889 169.560087,162.262128 169.560087,162.465216 C169.560087,162.735132 169.357587,163.013727 169.046913,163.013727 C168.97249,163.013727 168.907587,162.99203 168.833163,162.970333 C167.536817,162.497328 166.198067,161.691919 165.243548,160.864813 L165.307587,162.024324 Z M162.00874,165.871715 C161.612394,166.408076 161.11999,166.924475 160.573933,167.364499 C160.455375,167.461703 160.336817,167.50423 160.21999,167.50423 C159.951721,167.50423 159.726721,167.267294 159.726721,167.009529 C159.726721,166.870665 159.79076,166.730933 159.941337,166.612031 C160.605952,166.086085 161.216913,165.430823 161.687683,164.72175 L160.487394,164.72175 C160.209606,164.72175 160.080663,164.496097 160.080663,164.260029 C160.080663,164.034375 160.209606,163.808722 160.476144,163.808722 L161.976721,163.808722 L161.976721,163.121347 C161.976721,162.841884 162.24499,162.702152 162.523644,162.702152 C162.791048,162.702152 163.058452,162.841884 163.058452,163.121347 L163.058452,163.808722 L164.130663,163.808722 C164.407587,163.808722 164.537394,164.034375 164.537394,164.260029 C164.537394,164.496097 164.407587,164.72175 164.130663,164.72175 L163.058452,164.72175 L163.058452,165.065438 C163.444413,165.237281 163.787971,165.45252 164.097779,165.657344 C164.26826,165.77451 164.333163,165.935071 164.333163,166.086085 C164.333163,166.322154 164.141048,166.547807 163.894413,166.547807 C163.787971,166.547807 163.680663,166.516563 163.573356,166.430641 C163.422779,166.300456 163.250567,166.172875 163.058452,166.043558 L163.058452,167.869615 C163.058452,168.169908 162.791048,168.320922 162.523644,168.320922 C162.24499,168.320922 161.976721,168.169908 161.976721,167.869615 L161.976721,166.967002 L162.00874,165.871715 Z" id="Fill-86" fill="#E85059"></path>
            </g>
        </g>
    </g>
</svg>