<?xml version="1.0" encoding="UTF-8"?>
<svg width="235px" height="175px" viewBox="0 0 235 175" version="1.1" xmlns="http://www.w3.org/2000/svg" xmlns:xlink="http://www.w3.org/1999/xlink">
    <!-- Generator: Sketch 61 (89581) - https://sketch.com -->
    <title>logo-white</title>
    <desc>Created with Sketch.</desc>
    <defs>
        <polygon id="path-1" points="0 0.30380224 16.0485141 0.30380224 16.0485141 6.87145619 0 6.87145619"></polygon>
    </defs>
    <g id="Page-1" stroke="none" stroke-width="1" fill="none" fill-rule="evenodd">
        <g id="200318_kodomonooka-ver2" transform="translate(-206.000000, -6152.000000)">
            <g id="logo-white" transform="translate(206.000000, 6152.000000)">
                <path d="M145.682556,63.7458247 L100.990075,22.216701 L141.683037,25.9088402 L183.463325,63.7458247 L145.682556,63.7458247 Z M142.747767,13.3178608 C148.75021,13.5316495 153.459248,18.5795876 153.24594,24.5692784 C153.176344,26.5114175 152.578902,28.3931186 151.544902,30.0159278 L143.644383,22.8616753 C143.35696,22.6009794 142.990902,22.4404124 142.604056,22.406134 L131.832921,21.428299 C133.098306,16.5941495 137.592229,13.1275258 142.747767,13.3178608 L142.747767,13.3178608 Z M189.301267,64.2094845 L154.219383,32.438866 C155.802921,30.1710825 156.72394,27.481134 156.82246,24.6964691 C157.107171,16.7384794 150.849844,10.0325515 142.876113,9.74840206 C135.834248,9.48048969 129.690806,14.3759794 128.22296,21.1017526 L96.113825,18.1871907 C96.0930365,18.1853866 96.0722481,18.1835825 96.0505558,18.1826804 C95.7766904,18.1655412 95.5109596,18.2106443 95.2714404,18.308067 C95.0725942,18.3883505 94.8854981,18.5047165 94.7200942,18.658067 L45.6810173,64.2239175 C44.9588442,64.8959536 44.9181712,66.0262371 45.5915365,66.7478866 C45.9440365,67.1258505 46.4221712,67.3179897 46.9012096,67.3179897 C47.3377673,67.3179897 47.7761327,67.1583247 48.1214019,66.8389948 L95.9402865,22.405232 L143.759171,66.8389948 C144.089979,67.1475 144.525633,67.3179897 144.97846,67.3179897 L188.099152,67.3179897 C188.838498,67.3179897 189.501017,66.8633505 189.767652,66.1741753 C190.034287,65.4868041 189.848998,64.7047165 189.301267,64.2094845 L189.301267,64.2094845 Z" id="Fill-1" fill="#FFFFFF"></path>
                <path d="M135.072035,64.4795619 C119.42465,56.1860052 104.45515,37.2616495 96.9188808,26.711134 C96.9188808,26.710232 96.9188808,26.710232 96.9179769,26.7093299 C96.9161692,26.7057216 96.9134577,26.7030155 96.9107462,26.6994072 C96.8971885,26.6804639 96.8800154,26.6651289 96.8655538,26.6470876 C96.86465,26.6470876 96.86465,26.6461856 96.8637462,26.6452835 C96.8438615,26.6209278 96.8275923,26.5956701 96.8049962,26.5731186 C96.7995731,26.5668041 96.79415,26.5613918 96.7896308,26.5559794 L96.7760731,26.5424485 C96.77065,26.5370361 96.7652269,26.5325258 96.7598038,26.5280155 C96.7381115,26.506366 96.7137077,26.4901289 96.6902077,26.4711856 C96.6856885,26.4675773 96.6820731,26.4639691 96.6775538,26.4612629 C96.6621885,26.448634 96.6486308,26.433299 96.6323615,26.4215722 C96.6314577,26.4206701 96.62965,26.419768 96.6287462,26.418866 L96.6124769,26.4080412 C96.6070538,26.404433 96.6016308,26.4017268 96.5980154,26.3981186 C96.5907846,26.3936082 96.5844577,26.39 96.5772269,26.3863918 C96.5510154,26.3692526 96.5220923,26.3566237 96.4931692,26.3421907 C96.4850346,26.3376804 96.4759962,26.331366 96.4669577,26.3268557 C96.4515923,26.3187371 96.4362269,26.3088144 96.4199577,26.3006959 C96.4163423,26.2997938 96.4136308,26.2988918 96.4109192,26.2970876 C96.4054962,26.2943814 96.4000731,26.2925773 96.39465,26.2907732 C96.3865154,26.2871649 96.3783808,26.2853608 96.37115,26.2817526 C96.3413231,26.2709278 96.3124,26.2646134 96.2825731,26.2555928 C96.2527462,26.2465722 96.2238231,26.2348454 96.1930923,26.2276289 C96.1903808,26.2276289 96.1885731,26.2267268 96.1876692,26.2258247 L96.1840538,26.2258247 C96.1804385,26.2249227 96.1777269,26.2249227 96.1741115,26.2240206 C96.1650731,26.2222165 96.1560346,26.2213144 96.1488038,26.2195103 C96.1180731,26.2140979 96.0873423,26.2140979 96.0575154,26.2104897 C96.0249769,26.2077835 95.9924385,26.2014691 95.9599,26.200567 C95.9544769,26.200567 95.94815,26.1996649 95.9418231,26.1996649 L95.9400154,26.1996649 L95.9382077,26.1996649 C95.9318808,26.1996649 95.92465,26.200567 95.9192269,26.200567 C95.8866885,26.2014691 95.85415,26.2077835 95.8216115,26.2104897 C95.7917846,26.2140979 95.7610538,26.2140979 95.7312269,26.2204124 C95.7221885,26.2213144 95.7140538,26.2222165 95.7050154,26.2240206 C95.7023038,26.2249227 95.6986885,26.2249227 95.6968808,26.2258247 L95.6932654,26.2258247 C95.6905538,26.2267268 95.6887462,26.2276289 95.6869385,26.2276289 C95.6562077,26.2348454 95.6263808,26.2465722 95.59565,26.2555928 C95.5667269,26.2646134 95.5378038,26.2718299 95.5088808,26.2817526 C95.5007462,26.2853608 95.4926115,26.2871649 95.4844769,26.2907732 C95.4790538,26.2934794 95.4736308,26.2952835 95.4700154,26.2970876 C95.4664,26.2988918 95.4627846,26.2997938 95.4600731,26.3006959 C95.4419962,26.3088144 95.4266308,26.3196392 95.4094577,26.3286598 L95.3859577,26.3421907 C95.3579385,26.3566237 95.3290154,26.3692526 95.3028038,26.3863918 C95.2955731,26.39 95.2883423,26.3936082 95.2820154,26.3990206 C95.2765923,26.4017268 95.2720731,26.4053351 95.26665,26.4080412 C95.2621308,26.4116495 95.2567077,26.4152577 95.2512846,26.418866 C95.2494769,26.419768 95.2485731,26.4206701 95.2467654,26.4215722 C95.2304962,26.433299 95.2169385,26.448634 95.2015731,26.4612629 C95.1970538,26.4648711 95.1934385,26.4684794 95.1889192,26.4720876 C95.1663231,26.4910309 95.1419192,26.506366 95.1202269,26.5271134 C95.1148038,26.5325258 95.1084769,26.5370361 95.1030538,26.5433505 C95.0985346,26.5469588 95.0949192,26.5514691 95.0913038,26.5559794 C95.0849769,26.5613918 95.0795538,26.5668041 95.0741308,26.5731186 C95.0533423,26.594768 95.0361692,26.6200258 95.0180923,26.6434794 C95.0144769,26.6470876 95.0117654,26.6497938 95.0090538,26.6534021 C94.9954962,26.6705412 94.9810346,26.6831701 94.9683808,26.6994072 C94.9665731,26.7021134 94.9638615,26.7057216 94.9620538,26.7084278 C94.96115,26.7093299 94.9602462,26.711134 94.9593423,26.7120361 C87.4230731,37.2625515 72.4544769,56.1860052 56.8070923,64.4795619 C56.2259192,64.7889691 56.0044769,65.5097165 56.3135923,66.0897423 C56.5278038,66.4929639 56.9408615,66.7220876 57.3674769,66.7220876 C57.5563808,66.7220876 57.7479962,66.6778866 57.9260538,66.5831701 C65.6964192,62.4652577 77.8621885,53.3814948 92.9763038,33.4287887 C89.1900923,44.2463144 80.9641885,58.2517268 68.5372077,64.466933 C67.9469962,64.7610052 67.7101885,65.4763402 68.0048423,66.0644845 C68.2136308,66.4821392 68.6348231,66.7220876 69.0722846,66.7220876 C69.25215,66.7220876 69.4338231,66.6814948 69.6055538,66.596701 C81.6619577,60.5664175 89.9357654,47.6362629 94.2462077,36.8124227 C92.1872462,55.322732 84.2469577,62.2595876 80.5493231,64.5156443 C79.9871308,64.8584278 79.8099769,65.5909021 80.1534385,66.1519845 C80.3784962,66.5200258 80.7707654,66.7220876 81.1729769,66.7220876 C81.3853808,66.7220876 81.6004962,66.6661598 81.7948231,66.5470876 C90.4645154,61.2564948 94.2914,50.7474742 95.9400154,41.4309794 C97.5886308,50.7474742 101.414612,61.2564948 110.085208,66.5470876 C110.279535,66.6661598 110.49465,66.7220876 110.70615,66.7220876 C111.108362,66.7220876 111.500631,66.5200258 111.725688,66.1519845 C112.070054,65.5909021 111.891996,64.8584278 111.329804,64.5156443 C107.633073,62.2595876 99.6927846,55.322732 97.6329192,36.8124227 C101.944265,47.6362629 110.218073,60.5664175 122.274477,66.596701 C122.445304,66.6814948 122.627881,66.7220876 122.807746,66.7220876 C123.244304,66.7220876 123.6664,66.4821392 123.875188,66.0644845 C124.169842,65.4763402 123.932131,64.7610052 123.342823,64.466933 C110.915842,58.2517268 102.689035,44.2463144 98.9028231,33.4287887 C114.017842,53.3814948 126.183612,62.4652577 133.953073,66.5831701 C134.131131,66.6778866 134.322746,66.7220876 134.51165,66.7220876 C134.939169,66.7220876 135.352227,66.4920619 135.566438,66.0897423 C135.875554,65.5097165 135.655015,64.7889691 135.072035,64.4795619" id="Fill-3" fill="#FFFFFF"></path>
                <path d="M160.730148,29.9510696 C160.113725,29.72375 159.427706,30.044884 159.201744,30.6618943 C158.976687,31.2807088 159.29484,31.9635696 159.914879,32.1872809 L164.292206,33.778518 C164.427783,33.8281314 164.565167,33.8515851 164.701648,33.8515851 C165.188821,33.8515851 165.645263,33.5511985 165.822417,33.0676933 C166.047475,32.4497809 165.728417,31.766018 165.109283,31.5423067 L160.730148,29.9510696 Z" id="Fill-5" fill="#FFFFFF"></path>
                <path d="M119.629823,17.5547552 L124.008958,19.1459923 C124.143631,19.1947036 124.281015,19.2190593 124.417496,19.2190593 C124.904669,19.2190593 125.362015,18.9186727 125.538265,18.4351675 C125.763323,17.8163531 125.445169,17.1325902 124.825131,16.9088789 L120.445996,15.3185438 C119.828669,15.0921263 119.14265,15.4114562 118.917592,16.0293686 C118.691631,16.6472809 119.010688,17.3310438 119.629823,17.5547552" id="Fill-7" fill="#FFFFFF"></path>
                <path d="M129.175885,10.707384 C129.411788,10.9888273 129.749827,11.1331572 130.090577,11.1331572 C130.360827,11.1331572 130.632885,11.0411469 130.856135,10.8544201 C131.361385,10.4313531 131.427365,9.67993557 131.003462,9.17748711 L128.008115,5.61434278 C127.584212,5.11099227 126.832212,5.04514175 126.327865,5.4673067 C125.822615,5.89037371 125.756635,6.64179124 126.180538,7.14514175 L129.175885,10.707384 Z" id="Fill-9" fill="#FFFFFF"></path>
                <path d="M137.877121,5.9776933 C137.979256,6.55591495 138.482698,6.96184278 139.051217,6.96184278 C139.11991,6.96184278 139.189506,6.95643041 139.259102,6.94380155 C139.908063,6.82923969 140.34191,6.21222938 140.228025,5.56454897 L139.418179,0.983878866 C139.30339,0.336198454 138.683352,-0.0967912371 138.036198,0.0186726804 C137.387237,0.133234536 136.954294,0.750244845 137.067275,1.39792526 L137.877121,5.9776933 Z" id="Fill-11" fill="#FFFFFF"></path>
                <path d="M148.495596,7.74925258 C148.630269,7.79976804 148.768558,7.82231959 148.904135,7.82231959 C149.391308,7.82231959 149.848654,7.52193299 150.024904,7.03842784 L151.619288,2.66884021 C151.844346,2.05092784 151.525288,1.36716495 150.906154,1.14255155 C150.287923,0.916134021 149.602808,1.23546392 149.376846,1.85337629 L147.783365,6.22386598 C147.557404,6.84177835 147.876462,7.52554124 148.495596,7.74925258" id="Fill-13" fill="#FFFFFF"></path>
                <path d="M157.005308,13.4831186 C157.276462,13.4831186 157.548519,13.3911082 157.771769,13.2043814 L161.341058,10.2158505 C161.845404,9.79278351 161.912288,9.04136598 161.488385,8.53801546 C161.064481,8.03376289 160.312481,7.96881443 159.808135,8.39007732 L156.237038,11.3804124 C155.733596,11.8025773 155.667615,12.5539948 156.090615,13.0573454 C156.326519,13.3378866 156.664558,13.4831186 157.005308,13.4831186" id="Fill-15" fill="#FFFFFF"></path>
                <path d="M160.008969,21.4439948 C160.111104,22.0222165 160.614546,22.4281443 161.183065,22.4281443 C161.251758,22.4281443 161.321354,22.4218299 161.39095,22.4101031 L165.979777,21.6027577 C166.628738,21.4881959 167.062585,20.8702835 166.9487,20.2226031 C166.833912,19.5758247 166.212969,19.1446392 165.565815,19.2564948 L160.976988,20.0647423 C160.328931,20.1793041 159.895085,20.7963144 160.008969,21.4439948" id="Fill-17" fill="#FFFFFF"></path>
                <path d="M101.251919,131.081495 C101.251919,130.819897 101.453477,130.600696 101.714688,130.577242 L108.061496,129.970155 C108.202496,129.957526 108.3444,130.005335 108.449246,130.100954 C108.554092,130.197474 108.613746,130.332784 108.613746,130.474407 L108.613746,141.943222 C108.613746,142.222861 108.386881,142.45018 108.106688,142.45018 L101.759881,142.45018 C101.479688,142.45018 101.251919,142.222861 101.251919,141.943222 L101.251919,131.081495 Z M115.630304,142.45018 L112.502996,142.45018 C112.223708,142.45018 111.995938,142.222861 111.995938,141.943222 L111.995938,130.085619 C111.995938,129.822216 112.196592,129.603015 112.457804,129.580464 L113.370688,129.499278 C114.30165,129.417191 114.987669,128.598119 114.904515,127.669897 C114.823169,126.740773 114.011515,126.053402 113.071515,126.138196 L101.804169,127.181881 C101.662265,127.193608 101.522169,127.146701 101.417323,127.05018 C101.311573,126.954562 101.251919,126.818351 101.251919,126.676727 L101.251919,125.173892 C101.251919,124.242062 100.494496,123.486134 99.5608231,123.486134 C98.62715,123.486134 97.8697269,124.242062 97.8697269,125.173892 L97.8697269,141.943222 C97.8697269,142.222861 97.6428615,142.45018 97.3626692,142.45018 L94.8463615,142.45018 C93.9126885,142.45018 93.1552654,143.205206 93.1552654,144.137938 C93.1552654,145.069768 93.9126885,145.825696 94.8463615,145.825696 L115.630304,145.825696 C116.563977,145.825696 117.3214,145.069768 117.3214,144.137938 C117.3214,143.205206 116.563977,142.45018 115.630304,142.45018 L115.630304,142.45018 Z" id="Fill-19" fill="#FFFFFF"></path>
                <path d="M99.5519654,121.593157 C99.8330615,121.609394 100.119581,121.554369 100.389831,121.422668 L112.512215,115.469059 C113.350985,115.057719 113.69535,114.045606 113.283196,113.209394 C112.871042,112.372281 111.857831,112.028595 111.019965,112.440838 L98.8966769,118.393544 C98.0597154,118.804884 97.7135423,119.816095 98.1256962,120.653209 C98.4049846,121.220606 98.9617538,121.560683 99.5519654,121.593157" id="Fill-21" fill="#FFFFFF"></path>
                <path d="M2.98603654,120.72366 C4.78197885,120.250979 8.97853654,119.706134 10.4897673,121.046598 C11.7262288,122.142603 11.6801327,123.683325 11.678325,123.72933 C11.619575,124.659356 12.3254788,125.462191 13.2573442,125.521727 C13.2944019,125.523531 13.3305558,125.525335 13.3676135,125.525335 C14.2524788,125.525335 14.9963442,124.838866 15.0541904,123.944923 C15.1301135,122.763222 14.7269981,120.29067 12.7367288,118.524433 C9.47655577,115.630619 2.865825,117.265155 2.12286346,117.460902 C1.21992115,117.698144 0.680325,118.622758 0.919844231,119.523015 C1.15755577,120.424175 2.08309423,120.963608 2.98603654,120.72366" id="Fill-23" fill="#FFFFFF"></path>
                <g id="Group-27" transform="translate(0.000000, 138.908505)">
                    <mask id="mask-2" fill="white">
                        <use xlink:href="#path-1"></use>
                    </mask>
                    <g id="Clip-26"></g>
                    <path d="M13.9892788,2.98717784 C9.04795192,4.08859536 4.93997115,3.32003866 3.00664423,0.931378866 C2.41914423,0.207023196 1.35531731,0.0924613402 0.628625,0.677899485 C-0.0980673077,1.26514175 -0.211048077,2.32777062 0.374644231,3.05212629 C1.42581731,4.34838918 4.18435577,6.87145619 9.746625,6.87145619 C11.2063365,6.87145619 12.8594712,6.69735825 14.7250096,6.28150773 C15.6369904,6.07944588 16.2109327,5.17648196 16.0075673,4.26720361 C15.8042019,3.35612113 14.8958365,2.7869201 13.9892788,2.98717784" id="Fill-25" fill="#FFFFFF" mask="url(#mask-2)"></path>
                </g>
                <path d="M34.90925,126.600322 C35.7127692,126.079832 36.4701923,125.587307 37.1281923,125.117332 C37.8883269,124.576095 38.0636731,123.521585 37.5204615,122.763853 C36.9781538,122.004317 35.9206538,121.831121 35.1614231,122.372358 C34.5639808,122.798131 33.8363846,123.270812 33.0654038,123.770554 C32.1254038,124.38125 30.6611731,125.387951 30.6611731,125.387951 C30.5219808,125.481765 30.3448269,125.499807 30.1884615,125.437564 C30.0320962,125.375322 29.9182115,125.239111 29.8820577,125.075838 L28.0011538,116.456637 C27.8032115,115.545554 26.9011731,114.96643 25.9891923,115.166688 C25.0772115,115.365142 24.4978462,116.263595 24.6966923,117.17558 L26.9300962,127.435631 C27.0286154,128.03009 27.0286154,128.277255 26.7972308,128.540657 C26.7972308,128.540657 25.4279038,129.652899 24.2592308,131.727642 C23.0905577,133.801482 22.3638654,136.615915 22.7796346,138.896327 C23.8091154,144.530606 29.1454231,146.003673 33.3907885,146.003673 C34.5196923,146.003673 35.5726731,145.899034 36.4457885,145.741173 C37.365,145.575193 37.9732885,144.698389 37.8078846,143.782796 C37.6433846,142.866302 36.7594231,142.253802 35.8465385,142.418879 C35.4922308,142.481121 27.13075,143.896456 26.1075962,138.291044 C25.1323462,132.945425 30.5536154,129.428286 34.90925,126.600322" id="Fill-28" fill="#FFFFFF"></path>
                <path d="M61.0342904,137.543956 C60.1331558,137.295889 59.2030981,137.823595 58.9545404,138.722049 C58.9436942,138.76174 57.7831558,142.606327 55.5976558,142.606327 C54.4850212,142.606327 52.4125019,142.606327 52.4125019,138.135709 C52.4125019,136.719472 52.6447904,132.836997 52.6447904,132.836997 C52.6556365,132.566379 52.8797904,132.353492 53.1509442,132.353492 L58.1799442,132.353492 C59.1136173,132.353492 59.8710404,131.597564 59.8710404,130.665735 C59.8710404,129.733905 59.1136173,128.977977 58.1799442,128.977977 L53.4600596,128.977977 C53.3181558,128.977977 53.1825788,128.917539 53.0867712,128.813802 C52.9909635,128.710064 52.9430596,128.571147 52.9548096,128.429523 L53.2883288,124.41174 C53.3100212,124.14924 53.5296558,123.94808 53.7935788,123.94808 L58.1799442,123.94808 C59.1136173,123.94808 59.8710404,123.192152 59.8710404,122.260322 C59.8710404,121.32759 59.1136173,120.572564 58.1799442,120.572564 L54.1912712,120.572564 C54.0484635,120.572564 53.9110788,120.512126 53.8152712,120.406585 C53.7185596,120.301044 53.6715596,120.160322 53.6851173,120.016894 C53.6851173,120.016894 53.9725404,117.03107 53.9761558,116.984162 C54.0701558,116.056843 53.3922712,115.229652 52.4640212,115.13674 C51.5402904,115.042925 50.7042327,115.720374 50.6120404,116.646791 C50.5921558,116.842539 50.279425,120.114317 50.279425,120.114317 C50.2532135,120.374111 50.0353865,120.572564 49.7732712,120.572564 L46.8692135,120.572564 C45.9355404,120.572564 45.1781173,121.32759 45.1781173,122.260322 C45.1781173,123.192152 45.9355404,123.94808 46.8692135,123.94808 L49.3791942,123.94808 C49.5210981,123.94808 49.6557712,124.006714 49.7524827,124.110451 C49.8482904,124.21509 49.8961942,124.35491 49.8844442,124.495631 L49.5536365,128.512513 C49.5319442,128.775013 49.3114058,128.977977 49.0474827,128.977977 L46.8692135,128.977977 C45.9355404,128.977977 45.1781173,129.733905 45.1781173,130.665735 C45.1781173,131.597564 45.9355404,132.353492 46.8692135,132.353492 L48.7455981,132.353492 C48.8847904,132.353492 49.0167519,132.410322 49.1125596,132.509549 C49.2074635,132.608776 49.2589827,132.743183 49.2526558,132.881198 C49.2526558,132.881198 49.0303096,136.688802 49.0303096,138.135709 C49.0303096,144.963415 53.1446173,145.981843 55.5976558,145.981843 C59.4335788,145.981843 61.5621365,141.983003 62.2147135,139.619601 C62.4632712,138.721147 61.9345212,137.791121 61.0342904,137.543956" id="Fill-30" fill="#FFFFFF"></path>
                <path d="M79.0680096,117.20616 C74.2785288,117.20616 70.9568942,121.050747 69.9563365,127.753067 C69.6110673,130.070464 68.6990865,137.88232 71.4820288,141.104485 C72.3045288,142.055258 73.3837212,142.557706 74.6048173,142.557706 C80.6605865,142.557706 80.6877019,132.033351 80.6877019,126.021108 C80.6877019,125.089278 79.9302788,124.333351 78.9966058,124.333351 C78.0629327,124.333351 77.3055096,125.089278 77.3055096,126.021108 C77.3055096,129.16299 77.2783942,139.182191 74.6048173,139.182191 C74.4086827,139.182191 74.2477981,139.136186 74.0435288,138.900747 C72.9110096,137.589149 72.5919519,133.010284 73.3014712,128.250103 C73.7289904,125.386057 75.0467981,120.581675 79.0680096,120.581675 C80.2791635,120.581675 81.1703558,120.923557 81.8735481,121.658737 C82.9165865,122.743918 84.0997212,125.34817 83.8258558,131.590438 C83.466125,139.770335 81.1423365,141.459897 80.3080865,142.891469 C79.9917404,143.431804 79.5705481,144.587345 80.2005288,145.275619 C80.5331442,145.640052 80.9904904,145.825876 81.4496442,145.825876 C81.856375,145.825876 82.2649135,145.67884 82.5893942,145.382964 C82.7602212,145.226907 86.7778173,141.458093 87.2053365,131.737474 C87.4701635,125.687345 86.5265481,121.626263 84.3184519,119.324201 C82.9699135,117.918789 81.2037981,117.20616 79.0680096,117.20616" id="Fill-32" fill="#FFFFFF"></path>
                <path d="M31.6505231,120.004807 C31.79785,120.532513 32.2768885,120.878003 32.7993115,120.878003 C32.9050615,120.878003 33.0126192,120.86357 33.1192731,120.833802 C33.7537731,120.657899 34.1261577,120.002101 33.9499077,119.367951 L32.9574846,115.803905 C32.7812346,115.170657 32.1241385,114.799008 31.4887346,114.975812 C30.8533308,115.151714 30.48185,115.807513 30.6581,116.441662 L31.6505231,120.004807 Z" id="Fill-34" fill="#FFFFFF"></path>
                <path d="M36.9358538,115.803724 C36.7605077,115.170477 36.1025077,114.799729 35.4680077,114.975631 C34.8326038,115.151534 34.4611231,115.807332 34.6373731,116.441482 L35.6297962,120.004626 C35.7762192,120.532332 36.2561615,120.877822 36.7785846,120.877822 C36.8834308,120.877822 36.9918923,120.863389 37.0985462,120.833621 C37.7330462,120.657719 38.1045269,120.00192 37.9282769,119.367771 L36.9358538,115.803724 Z" id="Fill-36" fill="#FFFFFF"></path>
                <path d="M145.145852,123.938157 L140.90591,123.938157 C140.628429,123.938157 140.402467,123.715348 140.398852,123.437513 C140.398852,123.437513 140.323833,117.227719 140.319313,116.981456 C140.303044,116.060451 139.549237,115.325271 138.629121,115.325271 C138.619179,115.325271 138.608333,115.325271 138.597487,115.326173 C137.663813,115.344214 136.920852,116.112771 136.938025,117.044601 C136.938929,117.105039 137.015756,123.425786 137.015756,123.425786 C137.017563,123.561095 136.964237,123.691894 136.869333,123.787513 C136.773525,123.883131 136.644275,123.938157 136.508698,123.938157 L130.49541,123.938157 C129.561737,123.938157 128.804313,124.694085 128.804313,125.625915 C128.804313,126.557745 129.561737,127.313673 130.49541,127.313673 L136.509602,127.313673 C136.646987,127.313673 136.77714,127.368698 136.872948,127.465219 C136.967852,127.563544 137.020275,127.694343 137.017563,127.830554 C137.017563,127.830554 136.995871,130.534034 136.940737,131.464961 C136.653313,136.275657 134.621467,140.118441 130.731313,143.213415 C130.000102,143.794343 129.87989,144.85607 130.462871,145.584936 C130.79639,146.003492 131.288987,146.220889 131.786102,146.220889 C132.155775,146.220889 132.527256,146.100013 132.839083,145.852848 C137.457737,142.17875 139.974044,137.405941 140.316602,131.666121 C140.376256,130.671147 140.399756,127.808905 140.399756,127.808905 C140.405179,127.533776 140.63114,127.313673 140.906813,127.313673 L145.145852,127.313673 C146.079525,127.313673 146.836948,126.557745 146.836948,125.625915 C146.836948,124.694085 146.079525,123.938157 145.145852,123.938157" id="Fill-38" fill="#FFFFFF"></path>
                <path d="M188.669931,122.255631 L187.396412,122.255631 C187.116219,122.255631 186.889354,122.028312 186.889354,121.748673 L186.889354,117.012848 C186.889354,116.081018 186.131931,115.32509 185.198258,115.32509 C184.264585,115.32509 183.507162,116.081018 183.507162,117.012848 L183.507162,121.748673 C183.507162,122.028312 183.279392,122.255631 183.000104,122.255631 L179.659488,122.255631 C179.3802,122.255631 179.153335,122.028312 179.153335,121.748673 L179.153335,117.012848 C179.153335,116.081018 178.395912,115.32509 177.462238,115.32509 C176.527662,115.32509 175.771142,116.081018 175.771142,117.012848 L175.771142,121.748673 C175.771142,122.028312 175.543373,122.255631 175.263181,122.255631 L174.019488,122.255631 C173.085815,122.255631 172.328392,123.011559 172.328392,123.943389 C172.328392,124.875219 173.085815,125.631147 174.019488,125.631147 L175.263181,125.631147 C175.543373,125.631147 175.771142,125.857564 175.771142,126.137204 L175.771142,132.14674 C175.771142,133.07857 176.527662,133.834497 177.462238,133.834497 C178.395912,133.834497 179.153335,133.07857 179.153335,132.14674 L179.153335,126.137204 C179.153335,125.857564 179.3802,125.631147 179.659488,125.631147 L183.000104,125.631147 C183.279392,125.631147 183.507162,125.857564 183.507162,126.137204 L183.507162,128.644936 C183.507162,129.072513 183.470104,132.914394 182.184835,136.197899 C181.058642,139.077281 179.001488,141.435271 177.137758,143.361173 C176.487892,144.032307 176.507777,145.100348 177.179335,145.747126 C177.507431,146.06375 177.931335,146.220709 178.354335,146.220709 C178.796315,146.220709 179.238296,146.048415 179.570912,145.705631 C181.544008,143.665168 183.982585,140.880503 185.335642,137.425606 C186.813431,133.645966 186.889354,129.448673 186.889354,128.644936 L186.889354,126.137204 C186.889354,125.857564 187.116219,125.631147 187.396412,125.631147 L188.669931,125.631147 C189.603604,125.631147 190.361027,124.875219 190.361027,123.943389 C190.361027,123.011559 189.603604,122.255631 188.669931,122.255631" id="Fill-40" fill="#FFFFFF"></path>
                <path d="M165.531831,131.826778 L151.388446,131.826778 C150.453869,131.826778 149.696446,132.582706 149.696446,133.514536 C149.696446,134.446366 150.453869,135.202294 151.388446,135.202294 L165.531831,135.202294 C166.465504,135.202294 167.222927,134.446366 167.222927,133.514536 C167.222927,132.582706 166.465504,131.826778 165.531831,131.826778" id="Fill-42" fill="#FFFFFF"></path>
                <path d="M233.308813,131.826778 L219.166333,131.826778 C218.231756,131.826778 217.474333,132.582706 217.474333,133.514536 C217.474333,134.446366 218.231756,135.202294 219.166333,135.202294 L233.308813,135.202294 C234.242487,135.202294 234.99991,134.446366 234.99991,133.514536 C234.99991,132.582706 234.242487,131.826778 233.308813,131.826778" id="Fill-44" fill="#FFFFFF"></path>
                <path d="M208.712538,115.325361 C207.778865,115.325361 207.021442,116.081289 207.021442,117.013119 L207.021442,128.645206 C207.021442,129.071881 206.985288,132.914665 205.700019,136.19817 C204.572923,139.077552 202.516673,141.434639 200.652038,143.361443 C200.003077,144.031675 200.022962,145.100619 200.694519,145.747397 C201.021712,146.063119 201.445615,146.220979 201.868615,146.220979 C202.3115,146.220979 202.753481,146.048686 203.085192,145.705902 C205.059192,143.665438 207.497769,140.880773 208.849923,137.425876 C210.328615,133.646237 210.403635,129.448041 210.403635,128.645206 L210.403635,117.013119 C210.403635,116.081289 209.646212,115.325361 208.712538,115.325361" id="Fill-46" fill="#FFFFFF"></path>
                <path d="M200.210781,117.013209 C200.210781,116.081379 199.453358,115.325451 198.519685,115.325451 C197.586012,115.325451 196.828588,116.081379 196.828588,117.013209 L196.828588,132.146198 C196.828588,133.07893 197.586012,133.833956 198.519685,133.833956 C199.453358,133.833956 200.210781,133.07893 200.210781,132.146198 L200.210781,117.013209 Z" id="Fill-48" fill="#FFFFFF"></path>
                <path d="M60.772175,89.9293428 C60.772175,89.6280541 61.054175,89.4873325 61.3253288,89.4873325 C61.6082327,89.4873325 61.8802904,89.6280541 61.8802904,89.9293428 L61.8802904,92.7022809 L63.2188865,92.7022809 L63.2188865,88.1107861 C63.2188865,87.8094974 63.4999827,87.6588531 63.7720404,87.6588531 C64.0540404,87.6588531 64.3270019,87.8094974 64.3270019,88.1107861 L64.3270019,89.7786985 L66.3597519,89.7786985 C66.6309058,89.7786985 66.7719058,90.020451 66.7719058,90.2712242 C66.7719058,90.5120747 66.6309058,90.7628479 66.3597519,90.7628479 L64.3270019,90.7628479 L64.3270019,92.7022809 L67.7489635,92.7022809 C68.0300596,92.7022809 68.1620212,92.9431314 68.1620212,93.1948067 C68.1620212,93.4365593 68.0300596,93.6873325 67.7489635,93.6873325 L59.6044058,93.6873325 C59.3332519,93.6873325 59.1913481,93.4365593 59.1913481,93.1948067 C59.1913481,92.9431314 59.3332519,92.7022809 59.6044058,92.7022809 L60.772175,92.7022809 L60.772175,89.9293428 Z M68.1105019,88.3020232 C68.362675,88.4328222 68.4738481,88.6538273 68.4738481,88.8549871 C68.4738481,89.1463531 68.2515019,89.4178737 67.9297327,89.4178737 C67.8185596,89.4178737 67.6875019,89.3772809 67.5564442,89.3069201 C66.1175212,88.5131057 64.6478673,87.3268943 63.6111558,86.0721263 C62.5744442,87.3566624 61.1743865,88.5735438 59.6956942,89.4665851 C59.5944635,89.5279253 59.4832904,89.5576933 59.3929058,89.5576933 C59.1009635,89.5576933 58.8704827,89.3069201 58.8704827,89.0254768 C58.8704827,88.8549871 58.9500212,88.6727706 59.1714635,88.5437758 C60.7622327,87.5686469 62.1912135,86.2922294 63.1682712,84.8561469 C63.298425,84.6757345 63.4800981,84.594549 63.6717135,84.594549 C63.9537135,84.594549 64.2248673,84.7857861 64.2248673,85.0663273 C64.2248673,85.1177448 64.2158288,85.1682603 64.2049827,85.2277964 C65.1711942,86.4140077 66.6110212,87.5082088 68.1105019,88.3020232 L68.1105019,88.3020232 Z" id="Fill-50" fill="#FFFFFF"></path>
                <path d="M77.3432904,88.1014948 C77.5141173,87.8498196 77.6759058,87.5683763 77.7961173,87.2977577 C77.8467327,87.1967268 77.9072904,87.126366 77.9768865,87.0767526 L75.6521942,87.0767526 C75.6928673,87.0975 75.7226942,87.126366 75.7525212,87.156134 C75.8835788,87.316701 75.9739635,87.4384794 76.0842327,87.6188918 C76.1348481,87.7000773 76.1556365,87.7794588 76.1556365,87.8498196 C76.1556365,87.9409278 76.1158673,88.031134 76.0544058,88.1014948 L77.3432904,88.1014948 Z M73.1964442,88.9458247 C72.9551173,88.9458247 72.8330981,88.7338402 72.8330981,88.5236598 C72.8330981,88.3116753 72.9551173,88.1014948 73.1964442,88.1014948 L75.2698673,88.1014948 L75.2499827,88.0708247 C75.1487519,87.9210825 75.0583673,87.7794588 74.9571365,87.6486598 C74.8866365,87.5575515 74.8568096,87.4682474 74.8568096,87.3879639 C74.8568096,87.2571649 74.9273096,87.1462113 75.0375788,87.0767526 L72.7327712,87.0767526 C72.4914442,87.0767526 72.3603865,86.8557474 72.3603865,86.6347423 C72.3603865,86.4236598 72.4914442,86.2026546 72.7327712,86.2026546 L74.2629827,86.2026546 C74.1825404,86.1629639 74.1120404,86.1016237 74.0514827,86.0123196 C73.9610981,85.8607732 73.8408865,85.7200515 73.6691558,85.5197938 C73.5887135,85.4286856 73.5588865,85.3384794 73.5588865,85.2581959 C73.5588865,85.027268 73.7893673,84.8261082 74.0514827,84.8261082 C74.1825404,84.8261082 74.3126942,84.8766237 74.4247712,84.9866753 C74.5847519,85.1382216 74.7167135,85.2879639 74.8468673,85.479201 C74.9273096,85.6000773 74.9670788,85.7101289 74.9670788,85.8111598 C74.9670788,85.9816495 74.8468673,86.1313918 74.695925,86.2026546 L75.4506365,86.2026546 L75.4506365,84.9659278 C75.4506365,84.6853866 75.7028096,84.5536856 75.9540788,84.5536856 C76.2062519,84.5536856 76.4575212,84.6853866 76.4575212,84.9659278 L76.4575212,86.2026546 L77.1616173,86.2026546 L77.1616173,84.9659278 C77.1616173,84.6853866 77.4137904,84.5536856 77.6759058,84.5536856 C77.927175,84.5536856 78.1784442,84.6853866 78.1784442,84.9659278 L78.1784442,86.2026546 L78.9837712,86.2026546 C78.831925,86.1313918 78.7216558,85.9915722 78.7216558,85.8201804 C78.7216558,85.7200515 78.7532904,85.6298454 78.831925,85.5288144 C78.9638865,85.3781701 79.0850019,85.2176031 79.2061173,85.0164433 C79.3064442,84.8459536 79.4673288,84.7746907 79.6282135,84.7746907 C79.8803865,84.7746907 80.1415981,84.9659278 80.1415981,85.2176031 C80.1415981,85.2879639 80.1117712,85.3691495 80.0620596,85.4584536 C79.9201558,85.6794588 79.7692135,85.901366 79.5983865,86.0817784 C79.5468673,86.1313918 79.4971558,86.1719845 79.4375019,86.2026546 L80.9866942,86.2026546 C81.2488096,86.2026546 81.369925,86.4236598 81.369925,86.6347423 C81.369925,86.8557474 81.2488096,87.0767526 80.9866942,87.0767526 L78.6620019,87.0767526 C78.7623288,87.1462113 78.831925,87.2472423 78.831925,87.3771392 C78.831925,87.4475 78.8120404,87.5187629 78.773175,87.5891237 C78.6719442,87.7794588 78.5716173,87.9409278 78.4604442,88.1014948 L80.6757712,88.1014948 C80.9170981,88.1014948 81.0373096,88.3116753 81.0373096,88.5236598 C81.0373096,88.7338402 80.9170981,88.9458247 80.6757712,88.9458247 L77.3532327,88.9458247 L77.3532327,89.4581959 L79.8496558,89.4581959 C80.0918865,89.4581959 80.2021558,89.6593557 80.2021558,89.8695361 C80.2021558,90.0706959 80.0918865,90.2817784 79.8496558,90.2817784 L77.3532327,90.2817784 L77.3532327,90.8139948 L80.8664827,90.8139948 C81.1186558,90.8139948 81.2388673,91.0241753 81.2388673,91.2361598 C81.2388673,91.4463402 81.1186558,91.6574227 80.8664827,91.6574227 L78.0067135,91.6574227 C78.8834442,92.1301031 79.9698673,92.5116753 81.1385404,92.7624485 C81.4196365,92.8228866 81.5416558,93.0348711 81.5416558,93.2450515 C81.5416558,93.4958247 81.369925,93.7375773 81.0571942,93.7375773 C81.0074827,93.7375773 80.946925,93.7276546 80.8872712,93.717732 C79.5676558,93.3848711 78.2688288,92.8328093 77.3035212,92.1797165 L77.3532327,93.1340979 L77.3532327,93.7375773 C77.3532327,93.9982732 77.1010596,94.1299742 76.8398481,94.1299742 C76.5885788,94.1299742 76.3264635,93.9982732 76.3264635,93.7375773 L76.3264635,93.1340979 L76.3671365,92.2203093 C75.3792327,92.8932474 74.1011942,93.4462113 72.8330981,93.7971134 C72.7734442,93.8070361 72.7228288,93.8178608 72.6722135,93.8178608 C72.3802712,93.8178608 72.2085404,93.5860309 72.2085404,93.3551031 C72.2085404,93.163866 72.3197135,92.9834536 72.580925,92.9130928 C73.6691558,92.6424742 74.7456365,92.2004639 75.6621365,91.6574227 L72.8430404,91.6574227 C72.6017135,91.6574227 72.4706558,91.4463402 72.4706558,91.2361598 C72.4706558,91.0241753 72.6017135,90.8139948 72.8430404,90.8139948 L76.3264635,90.8139948 L76.3264635,90.2817784 L73.8905981,90.2817784 C73.6583096,90.2817784 73.5380981,90.0706959 73.5380981,89.8695361 C73.5380981,89.6593557 73.6583096,89.4581959 73.8905981,89.4581959 L76.3264635,89.4581959 L76.3264635,88.9458247 L73.1964442,88.9458247 Z" id="Fill-52" fill="#FFFFFF"></path>
                <path d="M90.5390827,85.3979253 C90.6909288,85.539549 90.7505827,85.700116 90.7505827,85.8507603 C90.7505827,86.1628737 90.4803327,86.4235696 90.1676019,86.4235696 C90.0365442,86.4235696 89.8955442,86.3730541 89.7744288,86.2521778 C89.503275,85.991482 89.1408327,85.6892912 88.8995058,85.5197036 C88.7178327,85.3880026 88.6373904,85.2283376 88.6373904,85.0776933 C88.6373904,84.7953479 88.8886596,84.53375 89.2022942,84.53375 C89.3017173,84.53375 89.4128904,84.5644201 89.5123135,84.6257603 C89.8657173,84.826018 90.2281596,85.0975387 90.5390827,85.3979253 L90.5390827,85.3979253 Z M89.4626019,90.4521778 L86.9661788,90.4521778 C86.6543519,90.4521778 86.4925635,90.1905799 86.4925635,89.9389046 C86.4925635,89.6782088 86.6543519,89.4274356 86.9661788,89.4274356 L89.4626019,89.4274356 L89.4626019,87.7099098 L86.4329096,87.7099098 C86.1201788,87.7099098 85.9601981,87.4474098 85.9601981,87.1966366 C85.9601981,86.9350387 86.1201788,86.6842655 86.4329096,86.6842655 L93.7513519,86.6842655 C94.0731212,86.6842655 94.2240635,86.9350387 94.2240635,87.1966366 C94.2240635,87.4474098 94.0731212,87.7099098 93.7513519,87.7099098 L90.6104865,87.7099098 L90.6104865,89.4274356 L93.2479096,89.4274356 C93.5696788,89.4274356 93.721525,89.6782088 93.721525,89.9389046 C93.721525,90.1905799 93.5696788,90.4521778 93.2479096,90.4521778 L90.6104865,90.4521778 L90.6104865,92.481817 L94.1544673,92.481817 C94.4753327,92.481817 94.626275,92.7325902 94.626275,92.9941881 C94.626275,93.2449613 94.4753327,93.5065593 94.1544673,93.5065593 L86.0297942,93.5065593 C85.7179673,93.5065593 85.5570827,93.2449613 85.5570827,92.9941881 C85.5570827,92.7325902 85.7179673,92.481817 86.0297942,92.481817 L89.4626019,92.481817 L89.4626019,90.4521778 Z" id="Fill-54" fill="#FFFFFF"></path>
                <path d="M105.637923,89.2660567 C105.818692,89.2660567 105.889192,89.2065206 105.889192,89.0757216 L105.889192,88.905232 L102.869442,88.905232 L102.869442,89.0757216 C102.869442,89.226366 102.989654,89.2660567 103.121615,89.2660567 L105.637923,89.2660567 Z M102.869442,88.3829381 L105.890096,88.3829381 L105.890096,88.0410567 L102.869442,88.0410567 L102.869442,88.3829381 Z M105.889192,87.3771392 C105.889192,87.2472423 105.828635,87.1868041 105.647865,87.1868041 L103.110769,87.1868041 C102.93,87.1868041 102.869442,87.2472423 102.869442,87.3771392 L102.869442,87.5187629 L105.889192,87.5187629 L105.889192,87.3771392 Z M105.778019,86.5842268 C106.604135,86.5842268 106.855404,86.8656701 106.855404,87.3978866 L106.855404,89.0648969 C106.855404,89.7694072 106.393538,89.8884794 105.778019,89.8884794 L102.979712,89.8884794 C102.1545,89.8884794 101.902327,89.6187629 101.902327,89.0856443 L101.902327,87.3978866 C101.902327,86.8656701 102.1545,86.5842268 102.979712,86.5842268 L103.523827,86.5842268 C103.5645,86.4732732 103.603365,86.3632216 103.634096,86.252268 L101.611288,86.252268 C101.379904,86.252268 101.268731,86.0610309 101.268731,85.8806186 C101.268731,85.6893814 101.379904,85.5089691 101.611288,85.5089691 L102.93,85.5089691 C102.8595,85.4088402 102.778154,85.318634 102.698615,85.2176031 C102.638058,85.1481443 102.617269,85.0669588 102.617269,84.9965979 C102.617269,84.7855155 102.8595,84.6051031 103.100827,84.6051031 C103.221038,84.6051031 103.343058,84.6447938 103.433442,84.7449227 C103.603365,84.9262371 103.684712,85.027268 103.795885,85.1679897 C103.855538,85.2473711 103.876327,85.3285567 103.876327,85.3980155 C103.876327,85.4386082 103.865481,85.479201 103.855538,85.5089691 L104.812712,85.5089691 C104.952808,85.2879639 105.073923,85.0669588 105.184192,84.8459536 C105.275481,84.6754639 105.436365,84.5942784 105.607192,84.5942784 C105.859365,84.5942784 106.131423,84.7746907 106.131423,85.0164433 C106.131423,85.0768814 106.110635,85.1382216 106.070865,85.2076804 C106.009404,85.318634 105.950654,85.4178608 105.889192,85.5089691 L107.298288,85.5089691 C107.529673,85.5089691 107.651692,85.6893814 107.651692,85.8806186 C107.651692,86.0610309 107.529673,86.252268 107.298288,86.252268 L104.640981,86.252268 L104.519865,86.5842268 L105.778019,86.5842268 Z M100.674904,85.8400258 C100.796019,85.9717268 100.845731,86.1115464 100.845731,86.2333247 C100.845731,86.5030412 100.613442,86.7249485 100.343192,86.7249485 C100.201288,86.7249485 100.060288,86.674433 99.9400769,86.543634 C99.7186346,86.3226289 99.5179808,86.1223711 99.2956346,85.9410567 C99.1645769,85.8301031 99.1139615,85.7101289 99.1139615,85.5901546 C99.1139615,85.3384794 99.3453462,85.1174742 99.6372885,85.1174742 C99.7475577,85.1174742 99.8695769,85.158067 99.9897885,85.2374485 C100.251904,85.4286856 100.483288,85.638866 100.674904,85.8400258 L100.674904,85.8400258 Z M100.986731,89.5880928 C101.601346,90.0201804 102.507,90.2511082 104.308365,90.2511082 C105.24475,90.2511082 106.080808,90.2213402 106.845462,90.1708247 C107.017192,90.16 107.248577,90.1401546 107.348904,90.1401546 C107.620962,90.1401546 107.771,90.3611598 107.771,90.5722423 C107.771,90.7833247 107.64175,90.9835825 107.379635,91.0043299 C106.51375,91.064768 105.556577,91.0945361 104.349038,91.0945361 C102.385885,91.0945361 101.298558,90.8545876 100.564635,90.2817784 C100.161519,90.6633505 99.7882308,90.9637371 99.4059038,91.2045876 C99.3155192,91.2659278 99.2160962,91.2956959 99.1239038,91.2956959 C98.85275,91.2956959 98.6421538,91.064768 98.6421538,90.8139948 C98.6421538,90.6732732 98.71175,90.5235309 98.9024615,90.4017526 C99.2459231,90.1906701 99.6074615,89.9092268 99.9798462,89.5980155 L99.9798462,88.6833247 C99.9798462,88.5236598 99.9201923,88.4722423 99.7086923,88.4722423 L99.1754231,88.4722423 C98.9024615,88.4722423 98.7723077,88.2521392 98.7723077,88.031134 C98.7723077,87.8101289 98.9024615,87.5891237 99.1754231,87.5891237 L99.9400769,87.5891237 C100.745404,87.5891237 100.986731,87.8597423 100.986731,88.5029124 L100.986731,89.5880928 Z M104.389712,91.516701 C104.389712,91.2758505 104.661769,91.1558763 104.922981,91.1558763 C105.195038,91.1558763 105.457154,91.2758505 105.457154,91.516701 L105.457154,91.6475 L107.509788,91.6475 C107.741173,91.6475 107.862288,91.8477577 107.862288,92.0489175 C107.862288,92.2500773 107.741173,92.4512371 107.509788,92.4512371 L105.457154,92.4512371 L105.457154,93.1548454 C105.457154,93.8070361 105.104654,94.1299742 104.339096,94.1299742 C104.178212,94.1299742 103.976654,94.1299742 103.745269,94.0893814 C103.483154,94.0487887 103.372885,93.8476289 103.372885,93.6464691 C103.372885,93.4164433 103.523827,93.1945361 103.785942,93.1945361 C103.815769,93.1945361 103.835654,93.2044588 103.865481,93.2044588 C103.956769,93.2152835 104.086923,93.2351289 104.198096,93.2351289 C104.358981,93.2351289 104.389712,93.2044588 104.389712,93.0538144 L104.389712,92.4512371 L101.721558,92.4512371 L101.741442,92.4611598 C101.923115,92.552268 102.1545,92.7326804 102.335269,92.8932474 C102.466327,93.004201 102.527788,93.1340979 102.527788,93.265799 C102.527788,93.5165722 102.296404,93.7375773 102.024346,93.7375773 C101.912269,93.7375773 101.802904,93.7078093 101.691731,93.616701 C101.479327,93.4462113 101.278673,93.2748196 101.097904,93.1440206 C100.966846,93.0438918 100.906288,92.9230155 100.906288,92.8030412 C100.906288,92.6722423 100.986731,92.5315206 101.106942,92.4512371 L98.8328654,92.4512371 C98.6114231,92.4512371 98.4903077,92.2500773 98.4903077,92.0489175 C98.4903077,91.8477577 98.6114231,91.6475 98.8328654,91.6475 L104.389712,91.6475 L104.389712,91.516701 Z" id="Fill-56" fill="#FFFFFF"></path>
                <path d="M120.464887,89.2862629 C120.464887,90.0909021 120.092502,90.4012113 119.286271,90.4012113 C119.135329,90.4012113 118.943713,90.3921907 118.762944,90.3606186 C118.46106,90.3119072 118.32006,90.0909021 118.32006,89.8689948 C118.32006,89.608299 118.490887,89.3674485 118.803617,89.3674485 C118.834348,89.3674485 118.864175,89.3773711 118.894002,89.3773711 C119.02506,89.3972165 119.074771,89.4080412 119.176002,89.4080412 C119.336887,89.4080412 119.397444,89.3566237 119.397444,89.1662887 L119.397444,85.3487629 C119.397444,85.0664175 119.65956,84.9265979 119.920771,84.9265979 C120.191925,84.9265979 120.464887,85.0664175 120.464887,85.3586856 L120.464887,89.2862629 Z M117.546367,85.8006959 C117.546367,85.5192526 117.806675,85.3785309 118.06879,85.3785309 C118.330906,85.3785309 118.593021,85.5192526 118.593021,85.8006959 L118.593021,88.4329124 C118.593021,88.7134536 118.330906,88.8541753 118.06879,88.8541753 C117.806675,88.8541753 117.546367,88.7134536 117.546367,88.4329124 L117.546367,85.8006959 Z M114.052098,87.1357474 L114.927925,87.1357474 L114.927925,86.0009536 L114.052098,86.0009536 L114.052098,87.1357474 Z M115.702521,92.0492784 L113.256713,92.0492784 C113.01629,92.0492784 112.884329,91.8273711 112.884329,91.6171907 C112.884329,91.3961856 113.01629,91.184201 113.256713,91.184201 L115.702521,91.184201 L115.702521,90.7133247 C115.702521,90.4219588 115.974579,90.2821392 116.236694,90.2821392 C116.507848,90.2821392 116.769963,90.4219588 116.769963,90.7133247 L116.769963,91.184201 L119.276329,91.184201 C119.528502,91.184201 119.649617,91.3961856 119.649617,91.6171907 C119.649617,91.8273711 119.528502,92.0492784 119.276329,92.0492784 L116.769963,92.0492784 L116.769963,92.8638402 L120.373598,92.8638402 C120.625771,92.8638402 120.756829,93.0848454 120.756829,93.3058505 C120.756829,93.5268557 120.625771,93.7460567 120.373598,93.7460567 L112.129617,93.7460567 C111.877444,93.7460567 111.757233,93.5268557 111.757233,93.3058505 C111.757233,93.0848454 111.877444,92.8638402 112.129617,92.8638402 L115.702521,92.8638402 L115.702521,92.0492784 Z M113.981598,87.9999227 C113.841502,88.9750515 113.43929,89.7787887 112.803887,90.4120361 C112.662887,90.5518557 112.511944,90.6023711 112.38179,90.6023711 C112.109733,90.6023711 111.88829,90.3921907 111.88829,90.1305928 C111.88829,89.9997938 111.938002,89.8689948 112.059117,89.7381959 C112.501098,89.2763402 112.803887,88.734201 112.944887,87.9999227 L112.109733,87.9999227 C111.858463,87.9999227 111.737348,87.7789175 111.737348,87.5687371 C111.737348,87.347732 111.858463,87.1357474 112.109733,87.1357474 L113.026233,87.1357474 L113.026233,86.0009536 L112.410713,86.0009536 C112.160348,86.0009536 112.039233,85.7808505 112.039233,85.569768 C112.039233,85.3487629 112.160348,85.1376804 112.410713,85.1376804 L116.507848,85.1376804 C116.759117,85.1376804 116.891079,85.3487629 116.891079,85.569768 C116.891079,85.7808505 116.759117,86.0009536 116.507848,86.0009536 L115.954694,86.0009536 L115.954694,87.1357474 L116.740137,87.1357474 C116.991406,87.1357474 117.123367,87.347732 117.123367,87.5687371 C117.123367,87.7789175 116.991406,87.9999227 116.740137,87.9999227 L115.954694,87.9999227 L115.954694,89.8491495 C115.954694,90.1305928 115.702521,90.2713144 115.440406,90.2713144 C115.19004,90.2713144 114.927925,90.1305928 114.927925,89.8491495 L114.927925,87.9999227 L113.981598,87.9999227 Z" id="Fill-58" fill="#FFFFFF"></path>
                <path d="M131.647271,87.4584149 C131.899444,87.4584149 131.969944,87.3880541 131.969944,87.1156314 L131.969944,86.3028737 C131.969944,86.0313531 131.899444,85.9618943 131.647271,85.9618943 L129.533175,85.9618943 C129.281906,85.9618943 129.211406,86.0313531 129.211406,86.2334149 L129.211406,87.1868943 C129.211406,87.4178222 129.322579,87.4584149 129.533175,87.4584149 L131.647271,87.4584149 Z M129.331617,88.3821263 C128.506406,88.3821263 128.143963,88.0411469 128.143963,87.3474613 L128.143963,86.0719459 C128.143963,85.3782603 128.506406,85.0363789 129.331617,85.0363789 L131.848829,85.0363789 C132.67404,85.0363789 133.037387,85.3782603 133.037387,86.0719459 L133.037387,87.3474613 C133.037387,88.1421778 132.573713,88.3821263 131.848829,88.3821263 L129.331617,88.3821263 Z M131.094117,92.6524871 L131.094117,93.5969459 C131.094117,93.8883119 130.832906,94.0281314 130.559944,94.0281314 C130.298733,94.0281314 130.027579,93.8883119 130.027579,93.5969459 L130.027579,92.6524871 L130.066444,91.3264562 C129.48256,92.0490077 128.748637,92.7219459 128.003867,93.1946263 C127.893598,93.2649871 127.782425,93.2956572 127.681194,93.2956572 C127.400098,93.2956572 127.178656,93.0539046 127.178656,92.7932088 C127.178656,92.6425644 127.258194,92.4810954 127.44981,92.3710438 C128.204521,91.9182088 129.009848,91.2155026 129.594637,90.4424356 L127.893598,90.4424356 C127.641425,90.4424356 127.510367,90.200683 127.510367,89.9697552 C127.510367,89.7289046 127.641425,89.4970747 127.893598,89.4970747 L130.027579,89.4970747 L130.027579,89.0162758 C130.027579,88.7339304 130.298733,88.5941108 130.559944,88.5941108 C130.832906,88.5941108 131.094117,88.7339304 131.094117,89.0162758 L131.094117,89.4970747 L133.359156,89.4970747 C133.621271,89.4970747 133.751425,89.7289046 133.751425,89.9697552 C133.751425,90.200683 133.621271,90.4424356 133.359156,90.4424356 L131.497233,90.4424356 C132.090156,91.0856057 132.926213,91.7080284 133.73154,92.1500387 C133.962925,92.2808376 134.05331,92.46125 134.05331,92.6425644 C134.05331,92.913183 133.831867,93.1747809 133.539925,93.1747809 C133.44954,93.1747809 133.349213,93.1441108 133.247983,93.0845747 C132.411925,92.6019716 131.647271,91.9497809 131.054348,91.266018 L131.094117,92.6524871 Z M125.798483,89.1560954 L125.586983,89.4871521 C125.456829,89.6883119 125.275156,89.7694974 125.105233,89.7694974 C124.822329,89.7694974 124.57106,89.5575129 124.57106,89.2661469 C124.57106,89.1560954 124.600887,89.0451418 124.681329,88.9251675 C125.335713,87.941018 125.899713,86.4932088 126.210637,85.1274871 C126.272098,84.8658892 126.513425,84.7359923 126.755656,84.7359923 C127.046694,84.7359923 127.338637,84.9173067 127.338637,85.2474613 C127.338637,85.2880541 127.328694,85.3385696 127.318752,85.388183 C127.127137,86.2018428 126.816213,87.0867655 126.442925,87.9103479 C126.67431,87.941018 126.875867,88.0808376 126.875867,88.3117655 L126.875867,93.6465593 C126.875867,93.9180799 126.604713,94.0488789 126.342598,94.0488789 C126.07054,94.0488789 125.798483,93.9180799 125.798483,93.6465593 L125.798483,89.1560954 Z" id="Fill-60" fill="#FFFFFF"></path>
                <path d="M141.692888,86.3933505 C141.532004,86.7045619 141.361177,87.0067526 141.169562,87.3080412 C142.005619,87.2575258 142.830831,87.1970876 143.656042,87.1258247 C143.586446,87.0662887 143.515946,87.0157732 143.443638,86.9661598 C143.324331,86.8759536 143.262869,86.765 143.262869,86.6549485 C143.262869,86.5638402 143.303542,86.4628093 143.374042,86.3933505 L141.692888,86.3933505 Z M140.253062,91.5071392 L144.049215,91.5071392 L144.049215,90.9045619 L140.253062,90.9045619 L140.253062,91.5071392 Z M140.695946,89.5171907 C140.334408,89.5171907 140.253062,89.5884536 140.253062,89.8392268 L140.253062,90.1008247 L144.049215,90.1008247 L144.049215,89.8392268 C144.049215,89.5884536 143.968773,89.5171907 143.606331,89.5171907 L140.695946,89.5171907 Z M143.746427,88.6539175 C144.763254,88.6539175 145.125696,88.9660309 145.125696,89.7183505 L145.125696,92.9134536 C145.125696,93.6874227 144.763254,94.0392268 143.957927,94.0392268 C143.767215,94.0392268 143.5051,94.0284021 143.2936,94.0076546 C142.981773,93.9670619 142.840773,93.7460567 142.840773,93.5160309 C142.840773,93.2751804 143.0116,93.0244072 143.303542,93.0244072 L143.374042,93.0244072 C143.534927,93.0442526 143.696715,93.0541753 143.817831,93.0541753 C143.968773,93.0541753 144.049215,92.9937371 144.049215,92.772732 L144.049215,92.3108763 L140.253062,92.3108763 L140.253062,93.707268 C140.253062,93.9670619 139.981004,94.1095876 139.719792,94.1095876 C139.448638,94.1095876 139.176581,93.9670619 139.176581,93.707268 L139.176581,89.7183505 C139.176581,88.9660309 139.548965,88.6539175 140.55585,88.6539175 L143.746427,88.6539175 Z M141.522062,84.9960567 C141.522062,84.7055928 141.793215,84.5648711 142.076119,84.5648711 C142.347273,84.5648711 142.618427,84.7055928 142.618427,84.9960567 L142.618427,85.5291753 L146.24285,85.5291753 C146.485081,85.5291753 146.606196,85.7402577 146.606196,85.9612629 C146.606196,86.1723454 146.485081,86.3933505 146.24285,86.3933505 L144.2101,86.3933505 C144.773196,86.7857474 145.347138,87.2575258 145.799965,87.7094588 C145.931023,87.8402577 145.981638,87.9800773 145.981638,88.1108763 C145.981638,88.3823969 145.750254,88.6025 145.478196,88.6025 C145.347138,88.6025 145.196196,88.5537887 145.065138,88.4121649 C144.894312,88.2416753 144.692754,88.0405155 144.482158,87.8492784 C142.519004,88.1108763 140.34435,88.2615206 138.432715,88.2912887 C138.129927,88.3021134 137.978985,88.0612629 137.978985,87.8303351 C137.978985,87.6093299 138.119081,87.3883247 138.411927,87.3883247 C138.924408,87.3883247 139.458581,87.3775 139.981004,87.3567526 C140.192504,87.0464433 140.375081,86.7244072 140.545004,86.3933505 L137.969042,86.3933505 C137.726812,86.3933505 137.596658,86.1723454 137.596658,85.9612629 C137.596658,85.7402577 137.726812,85.5291753 137.969042,85.5291753 L141.522062,85.5291753 L141.522062,84.9960567 Z" id="Fill-62" fill="#FFFFFF"></path>
                <path d="M155.646917,91.30625 L155.646917,91.7284149 L157.197013,91.7284149 C157.559456,91.7284149 157.620013,91.6977448 157.620013,91.4965851 L157.620013,91.30625 L155.646917,91.30625 Z M155.646917,90.4619201 L157.620013,90.4619201 L157.620013,90.2815077 C157.620013,90.08125 157.559456,90.0496778 157.197013,90.0496778 L155.646917,90.0496778 L155.646917,90.4619201 Z M155.646917,88.1111469 L157.056917,88.1111469 C157.268417,88.1111469 157.319033,88.0516108 157.319033,87.9099871 L157.319033,87.7196521 C157.319033,87.5780284 157.268417,87.5193943 157.056917,87.5193943 L155.646917,87.5193943 L155.646917,88.1111469 Z M154.620148,88.1111469 L154.620148,87.5193943 L153.331263,87.5193943 C153.120667,87.5193943 153.069148,87.5780284 153.069148,87.7196521 L153.069148,87.9099871 C153.069148,88.0913015 153.171283,88.1111469 153.331263,88.1111469 L154.620148,88.1111469 Z M152.990513,88.8643686 C152.476225,88.8643686 152.083956,88.6541881 152.083956,88.0913015 L152.083956,87.5374356 C152.083956,87.0458119 152.38584,86.7652706 152.990513,86.7652706 L154.620148,86.7652706 L154.620148,86.3728737 L151.197283,86.3728737 C150.936071,86.3728737 150.795071,86.1320232 150.795071,85.911018 C150.795071,85.6999356 150.925225,85.4681057 151.197283,85.4681057 L154.620148,85.4681057 L154.620148,84.9467139 C154.620148,84.6652706 154.872321,84.524549 155.124494,84.524549 C155.385706,84.524549 155.646917,84.6751933 155.646917,84.9566366 L155.646917,85.4681057 L159.210783,85.4681057 C159.481937,85.4681057 159.622937,85.6891108 159.622937,85.9209407 C159.622937,86.1419459 159.481937,86.3728737 159.210783,86.3728737 L155.646917,86.3728737 L155.646917,86.7652706 L157.398571,86.7652706 C158.00234,86.7652706 158.304225,87.0458119 158.304225,87.5374356 L158.304225,88.0913015 C158.304225,88.5838273 158.00234,88.8643686 157.398571,88.8643686 L155.646917,88.8643686 L155.646917,89.2459407 L157.27836,89.2459407 C158.365687,89.2459407 158.645879,89.5075387 158.645879,90.1705541 L158.645879,90.4619201 L159.432225,90.4619201 C159.703379,90.4619201 159.845283,90.6730026 159.845283,90.8840851 C159.845283,91.0951675 159.703379,91.30625 159.432225,91.30625 L158.645879,91.30625 L158.645879,91.6066366 C158.645879,92.2696521 158.365687,92.53125 157.27836,92.53125 L155.646917,92.53125 L155.646917,93.0147552 C155.646917,93.8681057 155.223917,94.1396263 154.499937,94.1396263 C154.177263,94.1396263 153.945879,94.1188789 153.745225,94.0782861 C153.453283,94.0286727 153.322225,93.8067655 153.322225,93.5857603 C153.322225,93.3349871 153.502994,93.0742912 153.824763,93.0742912 C153.856398,93.0742912 153.895263,93.0742912 153.935033,93.085116 C154.096821,93.113982 154.20709,93.1248067 154.34809,93.1248067 C154.570437,93.1248067 154.620148,93.0535438 154.620148,92.8641108 L154.620148,92.53125 L151.801052,92.53125 C151.560629,92.53125 151.439513,92.3309923 151.439513,92.1298325 C151.439513,91.9286727 151.560629,91.7284149 151.801052,91.7284149 L154.620148,91.7284149 L154.620148,91.30625 L150.90534,91.30625 C150.645033,91.30625 150.513071,91.0852448 150.513071,90.8840851 C150.513071,90.6838273 150.645033,90.4619201 150.90534,90.4619201 L154.620148,90.4619201 L154.620148,90.0496778 L151.801052,90.0496778 C151.560629,90.0496778 151.439513,89.8494201 151.439513,89.6482603 C151.439513,89.4471005 151.560629,89.2459407 151.801052,89.2459407 L154.620148,89.2459407 L154.620148,88.8643686 L152.990513,88.8643686 Z" id="Fill-64" fill="#FFFFFF"></path>
                <path d="M168.79589,88.1014948 C168.967621,87.8498196 169.128506,87.5683763 169.248717,87.2977577 C169.300237,87.1967268 169.35989,87.126366 169.429487,87.0767526 L167.104794,87.0767526 C167.145467,87.0975 167.175294,87.126366 167.206025,87.156134 C167.337083,87.316701 167.427467,87.4384794 167.537737,87.6188918 C167.588352,87.7000773 167.60914,87.7794588 167.60914,87.8498196 C167.60914,87.9409278 167.568467,88.031134 167.507006,88.1014948 L168.79589,88.1014948 Z M164.649044,88.9458247 C164.407717,88.9458247 164.286602,88.7338402 164.286602,88.5236598 C164.286602,88.3116753 164.407717,88.1014948 164.649044,88.1014948 L166.722467,88.1014948 L166.702583,88.0708247 C166.602256,87.9210825 166.511871,87.7794588 166.409737,87.6486598 C166.34014,87.5575515 166.310313,87.4682474 166.310313,87.3879639 C166.310313,87.2571649 166.380813,87.1462113 166.491083,87.0767526 L164.185371,87.0767526 C163.944044,87.0767526 163.81389,86.8557474 163.81389,86.6347423 C163.81389,86.4236598 163.944044,86.2026546 164.185371,86.2026546 L165.716487,86.2026546 C165.63514,86.1629639 165.56464,86.1016237 165.504083,86.0123196 C165.413698,85.8607732 165.293487,85.7200515 165.121756,85.5197938 C165.042217,85.4286856 165.011487,85.3384794 165.011487,85.2581959 C165.011487,85.027268 165.242871,84.8261082 165.504083,84.8261082 C165.63514,84.8261082 165.765294,84.8766237 165.877371,84.9866753 C166.037352,85.1382216 166.169313,85.2879639 166.299467,85.479201 C166.380813,85.6000773 166.419679,85.7101289 166.419679,85.8111598 C166.419679,85.9816495 166.299467,86.1313918 166.148525,86.2026546 L166.903237,86.2026546 L166.903237,84.9659278 C166.903237,84.6853866 167.15541,84.5536856 167.407583,84.5536856 C167.658852,84.5536856 167.910121,84.6853866 167.910121,84.9659278 L167.910121,86.2026546 L168.615121,86.2026546 L168.615121,84.9659278 C168.615121,84.6853866 168.86639,84.5536856 169.128506,84.5536856 C169.379775,84.5536856 169.631044,84.6853866 169.631044,84.9659278 L169.631044,86.2026546 L170.437275,86.2026546 C170.285429,86.1313918 170.17516,85.9915722 170.17516,85.8201804 C170.17516,85.7200515 170.20589,85.6298454 170.285429,85.5288144 C170.41739,85.3781701 170.537602,85.2176031 170.659621,85.0164433 C170.759044,84.8459536 170.919929,84.7746907 171.081717,84.7746907 C171.332987,84.7746907 171.595102,84.9659278 171.595102,85.2176031 C171.595102,85.2879639 171.564371,85.3691495 171.51466,85.4584536 C171.37366,85.6794588 171.222717,85.901366 171.050987,86.0817784 C171.000371,86.1313918 170.95066,86.1719845 170.890102,86.2026546 L172.439294,86.2026546 C172.70141,86.2026546 172.823429,86.4236598 172.823429,86.6347423 C172.823429,86.8557474 172.70141,87.0767526 172.439294,87.0767526 L170.114602,87.0767526 C170.215833,87.1462113 170.285429,87.2472423 170.285429,87.3771392 C170.285429,87.4475 170.265544,87.5187629 170.225775,87.5891237 C170.125448,87.7794588 170.024217,87.9409278 169.913044,88.1014948 L172.129275,88.1014948 C172.369698,88.1014948 172.490813,88.3116753 172.490813,88.5236598 C172.490813,88.7338402 172.369698,88.9458247 172.129275,88.9458247 L168.805833,88.9458247 L168.805833,89.4581959 L171.30316,89.4581959 C171.544487,89.4581959 171.654756,89.6593557 171.654756,89.8695361 C171.654756,90.0706959 171.544487,90.2817784 171.30316,90.2817784 L168.805833,90.2817784 L168.805833,90.8139948 L172.319083,90.8139948 C172.571256,90.8139948 172.692371,91.0241753 172.692371,91.2361598 C172.692371,91.4463402 172.571256,91.6574227 172.319083,91.6574227 L169.460217,91.6574227 C170.336044,92.1301031 171.423371,92.5116753 172.59114,92.7624485 C172.87314,92.8228866 172.994256,93.0348711 172.994256,93.2450515 C172.994256,93.4958247 172.823429,93.7375773 172.510698,93.7375773 C172.460083,93.7375773 172.400429,93.7276546 172.339871,93.717732 C171.02116,93.3848711 169.722333,92.8328093 168.755217,92.1797165 L168.805833,93.1340979 L168.805833,93.7375773 C168.805833,93.9982732 168.55366,94.1299742 168.293352,94.1299742 C168.041179,94.1299742 167.779063,93.9982732 167.779063,93.7375773 L167.779063,93.1340979 L167.819737,92.2203093 C166.832737,92.8932474 165.554698,93.4462113 164.286602,93.7971134 C164.226044,93.8070361 164.176333,93.8178608 164.125717,93.8178608 C163.832871,93.8178608 163.662044,93.5860309 163.662044,93.3551031 C163.662044,93.163866 163.773217,92.9834536 164.033525,92.9130928 C165.121756,92.6424742 166.198237,92.2004639 167.11564,91.6574227 L164.29564,91.6574227 C164.054313,91.6574227 163.923256,91.4463402 163.923256,91.2361598 C163.923256,91.0241753 164.054313,90.8139948 164.29564,90.8139948 L167.779063,90.8139948 L167.779063,90.2817784 L165.343198,90.2817784 C165.111813,90.2817784 164.990698,90.0706959 164.990698,89.8695361 C164.990698,89.6593557 165.111813,89.4581959 165.343198,89.4581959 L167.779063,89.4581959 L167.779063,88.9458247 L164.649044,88.9458247 Z" id="Fill-66" fill="#FFFFFF"></path>
                <path d="M62.2400212,168.559369 C62.4967135,169.285528 62.8329442,169.966585 63.2704058,170.614265 C63.8063865,171.418003 64.4779442,172.120709 65.2498288,172.713363 C65.5643673,172.958724 65.8987904,173.159884 66.2458673,173.371869 C66.5143096,173.528827 66.6263865,173.751637 66.6263865,173.964523 C66.6263865,174.298286 66.3461942,174.623028 65.977425,174.623028 C65.8535981,174.623028 65.730675,174.589652 65.6086558,174.521997 C63.9076173,173.539652 62.4307327,171.842874 61.6362519,169.843003 C61.3669058,170.691843 61.0198288,171.35125 60.5850788,171.953827 C59.8348865,173.003827 58.6815788,174.020451 57.5074827,174.600477 C57.3728096,174.667229 57.2498865,174.690683 57.1486558,174.690683 C56.7798865,174.690683 56.5340404,174.388492 56.5340404,174.064652 C56.5340404,173.851765 56.6470212,173.628956 56.9037135,173.495451 C57.9657327,172.958724 58.9283288,172.165812 59.5772904,171.250219 C60.1033288,170.513235 60.4612519,169.777152 60.6628096,168.559369 L57.3167712,168.559369 C56.9823481,168.559369 56.8142327,168.269807 56.8142327,167.967616 C56.8142327,167.67625 56.9823481,167.386688 57.3167712,167.386688 L60.7965788,167.386688 C60.8526173,166.739008 60.8743096,165.980374 60.8743096,165.064781 C60.8743096,164.69674 61.1996942,164.518131 61.512425,164.518131 C61.8378096,164.518131 62.1496365,164.69674 62.1496365,165.064781 C62.1496365,165.946997 62.1161942,166.717358 62.0610596,167.386688 L65.8761942,167.386688 C66.212425,167.386688 66.3796365,167.67625 66.3796365,167.967616 C66.3796365,168.269807 66.212425,168.559369 65.8761942,168.559369 L62.2400212,168.559369 Z" id="Fill-68" fill="#FFFFFF"></path>
                <path d="M74.7817904,168.972513 C74.5693865,169.329729 74.3461365,169.676121 74.0984827,170.009884 C74.7926365,169.97741 75.4858865,169.932307 76.1691942,169.877281 C76.1023096,169.820451 76.023675,169.765425 75.9567904,169.721224 C75.8112712,169.631018 75.7552327,169.50924 75.7552327,169.385657 C75.7552327,169.217874 75.8781558,169.050992 76.0797135,168.972513 L74.7817904,168.972513 Z M77.0640019,166.53875 C77.3776365,166.53875 77.4228288,166.471997 77.4228288,166.315039 L77.4228288,166.023673 C77.4228288,165.856791 77.3776365,165.800863 77.0640019,165.800863 L71.7719827,165.800863 C71.4357519,165.800863 71.3580212,165.868518 71.3580212,166.080503 L71.3580212,166.53875 L77.0640019,166.53875 Z M74.3343865,172.92625 L72.2193865,172.92625 C71.9509442,172.92625 71.8063288,172.679085 71.8063288,172.445451 C71.8063288,172.20009 71.9509442,171.964652 72.2193865,171.964652 L74.3343865,171.964652 L74.3343865,171.563235 C74.3343865,171.272771 74.6362712,171.138363 74.9273096,171.138363 C75.2291942,171.138363 75.5193288,171.272771 75.5193288,171.563235 L75.5193288,171.964652 L77.903675,171.964652 C78.1829635,171.964652 78.3176365,172.20009 78.3176365,172.445451 C78.3176365,172.679085 78.1829635,172.92625 77.903675,172.92625 L75.5193288,172.92625 L75.5193288,173.618131 L78.8988096,173.618131 C79.1790019,173.618131 79.3127712,173.863492 79.3127712,174.108853 C79.3127712,174.355116 79.1790019,174.600477 78.8988096,174.600477 L71.2341942,174.600477 C70.9666558,174.600477 70.8211365,174.355116 70.8211365,174.108853 C70.8211365,173.863492 70.9666558,173.618131 71.2341942,173.618131 L74.3343865,173.618131 L74.3343865,172.92625 Z M78.6529635,168.034369 C78.9430981,168.034369 79.0895212,168.269807 79.0895212,168.503441 C79.0895212,168.737977 78.9430981,168.972513 78.6529635,168.972513 L76.6382904,168.972513 L76.7729635,169.039265 C77.2321173,169.329729 77.891925,169.877281 78.2625019,170.268776 C78.3953673,170.414008 78.4631558,170.570064 78.4631558,170.702668 C78.4631558,171.004858 78.1938096,171.250219 77.8810788,171.250219 C77.7120596,171.250219 77.5349058,171.17174 77.3776365,171.004858 C77.2990019,170.914652 77.210425,170.815425 77.1082904,170.714394 C75.4976365,170.927281 73.7297135,171.049059 72.0964635,171.094162 C71.7493865,171.105889 71.570425,170.837075 71.570425,170.580889 C71.570425,170.323802 71.7385404,170.067616 72.0738673,170.067616 C72.3088673,170.067616 72.533925,170.055889 72.7671173,170.055889 C73.0247135,169.709497 73.2597135,169.341456 73.4838673,168.972513 L71.335425,168.972513 C71.2233481,171.295322 70.8093865,172.880245 70.1378288,174.142229 C70.0040596,174.400219 69.7808096,174.512075 69.5675019,174.512075 C69.2547712,174.512075 68.9528865,174.287461 68.9528865,173.964523 C68.9528865,173.863492 68.9863288,173.751637 69.0414635,173.640683 C69.7808096,172.265941 70.1712712,170.570064 70.1712712,167.599575 L70.1712712,166.01375 C70.1712712,165.265941 70.5300981,164.907822 71.6147135,164.907822 L77.2773096,164.907822 C78.2625019,164.907822 78.5634827,165.232564 78.5634827,165.81259 L78.5634827,166.505374 C78.5634827,167.308209 77.9597135,167.410142 77.2773096,167.410142 L71.3580212,167.410142 L71.3580212,168.034369 L78.6529635,168.034369 Z" id="Fill-70" fill="#FFFFFF"></path>
                <path d="M89.4781481,168.770812 C89.7140519,168.770812 89.7809365,168.704961 89.7809365,168.503802 L89.7809365,167.81192 L87.3414558,167.81192 L87.3414558,168.770812 L89.4781481,168.770812 Z M89.7809365,166.192719 C89.7809365,165.991559 89.7140519,165.924807 89.4781481,165.924807 L87.6541865,165.924807 C87.4200904,165.924807 87.3414558,165.991559 87.3414558,166.192719 L87.3414558,166.851224 L89.7809365,166.851224 L89.7809365,166.192719 Z M89.1428212,169.776611 C89.2431481,170.188853 89.366975,170.602899 89.5341865,171.005219 C89.9147058,170.72558 90.2735327,170.436018 90.5962058,170.111276 C90.7317827,169.977771 90.8773019,169.921843 91.0228212,169.921843 C91.3364558,169.921843 91.6039942,170.17893 91.6039942,170.469394 C91.6039942,170.592075 91.5479558,170.72558 91.4250327,170.84826 C90.9776288,171.261405 90.4967827,171.642075 90.0258788,171.91991 C90.4172442,172.535116 90.9098404,173.036662 91.4693212,173.415528 C91.705225,173.572487 91.8055519,173.773647 91.8055519,173.964884 C91.8055519,174.276997 91.5479558,174.54491 91.2126288,174.54491 C91.0788596,174.54491 90.9432827,174.500709 90.7986673,174.399678 C89.4564558,173.439884 88.4595135,171.820683 88.0238596,169.776611 L87.3414558,169.776611 L87.3414558,173.126869 C87.6767827,173.036662 88.0130135,172.936534 88.3365904,172.824678 C88.4043788,172.803028 88.4721673,172.791302 88.5273019,172.791302 C88.8526865,172.791302 89.0858788,173.071843 89.0858788,173.349678 C89.0858788,173.539111 88.9738019,173.717719 88.7171096,173.819652 C87.7780135,174.175966 86.6581481,174.500709 85.5735327,174.700966 C85.5283404,174.712693 85.4958019,174.712693 85.4623596,174.712693 C85.1152827,174.712693 84.9028788,174.399678 84.9028788,174.109214 C84.9028788,173.874678 85.0357442,173.650966 85.3267827,173.595039 C85.595225,173.539111 85.8754173,173.484085 86.1556096,173.428157 L86.1556096,166.080863 C86.1556096,165.265399 86.5361288,164.897358 87.486975,164.897358 L89.6236673,164.897358 C90.5862635,164.897358 90.9658788,165.265399 90.9658788,166.080863 L90.9658788,168.615657 C90.9658788,169.552899 90.518475,169.776611 89.6462635,169.776611 L89.1428212,169.776611 Z M81.9265135,168.069008 C81.6345712,168.069008 81.5017058,167.800193 81.5017058,167.532281 C81.5017058,167.264369 81.6345712,166.996456 81.9147635,166.996456 L83.033725,166.996456 L83.033725,164.929832 C83.033725,164.628544 83.3247635,164.483312 83.6148981,164.483312 C83.8950904,164.483312 84.1870327,164.628544 84.1870327,164.929832 L84.1870327,166.996456 L85.0140519,166.996456 C85.3050904,166.996456 85.4397635,167.264369 85.4397635,167.532281 C85.4397635,167.800193 85.3050904,168.069008 85.0140519,168.069008 L84.1870327,168.069008 L84.1870327,169.039626 C84.6109365,169.363466 85.0926865,169.832539 85.4171673,170.256508 C85.5174942,170.379188 85.5509365,170.501869 85.5509365,170.614626 C85.5509365,170.893363 85.3050904,171.10625 85.0474942,171.10625 C84.9028788,171.10625 84.7564558,171.038595 84.6443788,170.881637 C84.5106096,170.692204 84.3542442,170.491044 84.1870327,170.312436 L84.1870327,174.443879 C84.1870327,174.767719 83.8950904,174.935503 83.6148981,174.935503 C83.3247635,174.935503 83.033725,174.767719 83.033725,174.443879 L83.033725,172.847229 L83.0662635,170.535245 C82.8430135,171.127899 82.575475,171.686276 82.2726865,172.154446 C82.1497635,172.333054 81.9933981,172.411534 81.8370327,172.411534 C81.5676865,172.411534 81.3227442,172.188724 81.3227442,171.909085 C81.3227442,171.808054 81.3561865,171.708827 81.4221673,171.596972 C82.0277442,170.669652 82.5411288,169.47442 82.9108019,168.069008 L81.9265135,168.069008 Z" id="Fill-72" fill="#FFFFFF"></path>
                <path d="M95.5313865,170.501778 C95.5313865,171.530129 95.9335981,171.909897 96.3367135,171.909897 C96.6828865,171.909897 96.985675,171.730387 97.3101558,171.161186 C97.8813865,170.167113 98.2944442,168.726521 98.4291173,167.08567 C96.7615212,167.40951 95.5313865,168.850103 95.5313865,170.501778 M94.2443096,170.501778 C94.2443096,167.957062 96.3584058,165.867887 99.4360019,165.867887 C102.166521,165.867887 103.743733,167.577294 103.743733,169.799072 C103.743733,171.820593 102.546137,173.304485 100.621848,173.918789 C100.532367,173.952165 100.442887,173.964794 100.365156,173.964794 C99.9846365,173.964794 99.7369827,173.650876 99.7369827,173.327938 C99.7369827,173.081675 99.8725596,172.836314 100.207887,172.713634 C101.796848,172.143531 102.43406,171.183737 102.43406,169.799072 C102.43406,168.335928 101.438925,167.129871 99.7369827,167.008093 C99.6258096,168.860928 99.1666558,170.535155 98.4734058,171.752938 C97.8578865,172.836314 97.1980788,173.159253 96.3367135,173.159253 C95.1951558,173.159253 94.2443096,172.244562 94.2443096,170.501778" id="Fill-74" fill="#FFFFFF"></path>
                <path d="M111.038042,167.889858 C112.033177,168.17942 113.186485,168.649394 114.058696,169.162668 C114.348831,169.330451 114.472658,169.564085 114.472658,169.798621 C114.472658,170.145013 114.181619,170.458028 113.811946,170.458028 C113.677273,170.458028 113.543504,170.424652 113.397985,170.334446 C112.648696,169.866276 111.831619,169.474781 111.038042,169.162668 L111.038042,174.388312 C111.038042,174.74643 110.724408,174.924137 110.410773,174.924137 C110.097138,174.924137 109.784408,174.74643 109.784408,174.388312 L109.784408,166.426714 L105.991869,166.426714 C105.656542,166.426714 105.488427,166.137152 105.488427,165.845786 C105.488427,165.555322 105.656542,165.26576 105.991869,165.26576 L115.188504,165.26576 C115.524735,165.26576 115.691946,165.555322 115.691946,165.845786 C115.691946,166.137152 115.524735,166.426714 115.188504,166.426714 L111.038042,166.426714 L111.038042,167.889858 Z" id="Fill-76" fill="#FFFFFF"></path>
                <path d="M118.943171,170.501778 C118.943171,171.530129 119.345383,171.909897 119.748498,171.909897 C120.094671,171.909897 120.396556,171.730387 120.72194,171.161186 C121.293171,170.167113 121.706229,168.726521 121.840902,167.08567 C120.173306,167.40951 118.943171,168.850103 118.943171,170.501778 M117.656094,170.501778 C117.656094,167.957062 119.77019,165.867887 122.847787,165.867887 C125.577402,165.867887 127.155517,167.577294 127.155517,169.799072 C127.155517,171.820593 125.957921,173.304485 124.033633,173.918789 C123.944152,173.952165 123.854671,173.964794 123.77694,173.964794 C123.396421,173.964794 123.148767,173.650876 123.148767,173.327938 C123.148767,173.081675 123.284344,172.836314 123.619671,172.713634 C125.208633,172.143531 125.845844,171.183737 125.845844,169.799072 C125.845844,168.335928 124.85071,167.129871 123.148767,167.008093 C123.037594,168.860928 122.57844,170.535155 121.88519,171.752938 C121.269671,172.836314 120.609863,173.159253 119.748498,173.159253 C118.60694,173.159253 117.656094,172.244562 117.656094,170.501778" id="Fill-78" fill="#FFFFFF"></path>
                <path d="M135.683758,169.285258 C135.392719,169.285258 135.23545,169.029072 135.23545,168.771082 C135.23545,168.514897 135.392719,168.257809 135.683758,168.257809 L138.413373,168.257809 C138.715258,168.257809 138.870719,168.514897 138.870719,168.771082 C138.870719,169.029072 138.715258,169.285258 138.413373,169.285258 L135.683758,169.285258 Z M136.846104,171.14982 C136.622854,171.842603 136.365258,172.535387 136.085969,173.204716 C136.678892,173.115412 137.283565,173.025206 137.876488,172.914253 C137.774354,172.747371 137.674931,172.602139 137.562854,172.44518 C137.484219,172.333325 137.450777,172.222371 137.450777,172.12134 C137.450777,171.831778 137.719219,171.629716 138.022008,171.629716 C138.189219,171.629716 138.379931,171.697371 138.5137,171.875979 C138.961104,172.44518 139.353373,173.115412 139.677854,173.751366 C139.732988,173.863222 139.755585,173.964253 139.755585,174.053557 C139.755585,174.388222 139.442854,174.622758 139.140065,174.622758 C138.939412,174.622758 138.737854,174.522629 138.625777,174.287191 C138.548046,174.131134 138.468508,173.975077 138.390777,173.808196 C137.182335,174.119407 136.1637,174.321469 135.067335,174.432423 C134.833238,174.454974 134.574738,174.477526 134.474412,174.477526 C134.105642,174.477526 133.915835,174.198789 133.915835,173.908325 C133.915835,173.651237 134.083046,173.404974 134.441873,173.371598 L134.833238,173.338222 C135.145969,172.623789 135.426162,171.887706 135.649412,171.14982 L134.619931,171.14982 C134.328892,171.14982 134.172527,170.892732 134.172527,170.636546 C134.172527,170.379459 134.328892,170.123273 134.619931,170.123273 L139.408508,170.123273 C139.710392,170.123273 139.867662,170.379459 139.867662,170.636546 C139.867662,170.892732 139.710392,171.14982 139.408508,171.14982 L136.846104,171.14982 Z M139.934546,167.509098 C140.136104,167.643505 140.225585,167.822113 140.225585,167.988995 C140.225585,168.302912 139.945392,168.604201 139.610065,168.604201 C139.487142,168.604201 139.353373,168.559098 139.229546,168.470696 C138.491104,167.933969 137.618892,167.074304 136.959085,166.192088 C136.331815,167.119407 135.559931,167.979072 134.7772,168.637577 C134.653373,168.738608 134.519604,168.782809 134.395777,168.782809 C134.083046,168.782809 133.82545,168.525722 133.82545,168.223531 C133.82545,168.056649 133.894142,167.889768 134.083046,167.732809 C134.955258,167.008454 135.816623,165.968376 136.399604,164.919278 C136.532469,164.684742 136.757527,164.583711 136.969931,164.583711 C137.271815,164.583711 137.551104,164.774046 137.551104,165.075335 C137.551104,165.131263 137.540258,165.175464 137.517662,165.232294 C138.177469,166.091057 139.118373,166.962448 139.934546,167.509098 L139.934546,167.509098 Z M133.926681,172.713995 C133.926681,172.747371 133.937527,172.769021 133.937527,172.802397 C133.937527,173.093763 133.690777,173.238093 133.456681,173.238093 C133.255123,173.238093 133.042719,173.127139 133.009277,172.879974 C132.941488,172.400979 132.819469,171.831778 132.67395,171.350979 C132.6622,171.306778 132.651354,171.2725 132.651354,171.239124 C132.651354,171.004588 132.88545,170.837706 133.12045,170.837706 C133.288565,170.837706 133.456681,170.92701 133.535315,171.138995 C133.714277,171.641443 133.858892,172.244021 133.926681,172.713995 L133.926681,172.713995 Z M130.715315,170.971211 C130.950315,170.971211 131.184412,171.116443 131.184412,171.396082 L131.184412,171.428557 C131.107585,172.210644 130.916873,173.014381 130.715315,173.528557 C130.624931,173.751366 130.435123,173.851495 130.245315,173.851495 C130.011219,173.851495 129.764469,173.684613 129.764469,173.428428 C129.764469,173.360773 129.776219,173.294021 129.809662,173.226366 C129.987719,172.791572 130.178431,172.021211 130.256162,171.339253 C130.289604,171.093892 130.503815,170.971211 130.715315,170.971211 L130.715315,170.971211 Z M131.352527,170.367732 C130.939469,170.40201 130.5472,170.424562 130.166681,170.435387 C129.8422,170.446211 129.685835,170.178299 129.685835,169.910387 C129.685835,169.642474 129.831354,169.385387 130.144988,169.385387 C130.301354,169.385387 130.468565,169.375464 130.636681,169.375464 C130.872585,169.029072 131.084988,168.693505 131.308238,168.347113 C130.927719,167.867216 130.481219,167.376495 130.066354,166.962448 C129.955181,166.851495 129.909085,166.739639 129.909085,166.616057 C129.909085,166.348144 130.166681,166.103686 130.446873,166.103686 C130.55895,166.103686 130.682777,166.146985 130.79395,166.248015 C131.0172,165.823144 131.219662,165.343247 131.398623,164.897629 C131.4872,164.662191 131.688758,164.551237 131.900258,164.551237 C132.181354,164.551237 132.461546,164.74067 132.461546,165.042861 C132.461546,165.097887 132.448892,165.164639 132.426296,165.232294 C132.203046,165.79067 131.890315,166.426624 131.531488,167.018376 C131.643565,167.141057 131.755642,167.274562 131.856873,167.398144 C132.057527,167.051753 132.237392,166.706263 132.382912,166.404072 C132.472392,166.202912 132.651354,166.113608 132.830315,166.113608 C133.109604,166.113608 133.401546,166.326495 133.401546,166.616057 C133.401546,166.683711 133.378046,166.773015 133.332854,166.851495 C132.953238,167.599304 132.371162,168.548273 131.845123,169.296082 C132.158758,169.273531 132.461546,169.240155 132.773373,169.206778 C132.707392,169.084098 132.651354,168.972242 132.583565,168.860387 C132.550123,168.794536 132.528431,168.726881 132.528431,168.660129 C132.528431,168.43732 132.763431,168.247887 132.998431,168.247887 C133.153892,168.247887 133.299412,168.313737 133.411488,168.480619 C133.669085,168.872113 133.937527,169.43049 134.105642,169.910387 C134.127335,169.978041 134.139085,170.033969 134.139085,170.089897 C134.139085,170.379459 133.869738,170.54634 133.624796,170.54634 C133.434085,170.54634 133.265969,170.457938 133.188238,170.245052 L133.153892,170.155747 C132.930642,170.189124 132.695642,170.223402 132.472392,170.245052 L132.472392,174.511804 C132.472392,174.790541 132.1922,174.935773 131.912912,174.935773 C131.633623,174.935773 131.352527,174.790541 131.352527,174.511804 L131.352527,170.367732 Z" id="Fill-80" fill="#FFFFFF"></path>
                <path d="M147.920931,170.792513 L147.920931,171.764034 L149.499046,171.764034 C149.768392,171.764034 149.901258,172.032848 149.901258,172.299858 C149.901258,172.568673 149.768392,172.836585 149.499046,172.836585 L147.920931,172.836585 L147.920931,174.522539 C147.920931,174.83375 147.61995,174.990709 147.317162,174.990709 C147.015277,174.990709 146.713392,174.83375 146.713392,174.522539 L146.713392,172.836585 L145.235604,172.836585 C144.968065,172.836585 144.822546,172.568673 144.822546,172.299858 C144.822546,172.032848 144.968065,171.764034 145.235604,171.764034 L146.713392,171.764034 L146.713392,170.792513 L146.758585,169.061456 C145.885469,170.457848 144.531508,171.85424 143.043777,172.846508 C142.91995,172.925889 142.786181,172.97009 142.674104,172.97009 C142.361373,172.97009 142.114623,172.701276 142.114623,172.411714 C142.114623,172.24393 142.204104,172.065322 142.404758,171.931817 C143.915988,170.961198 145.269046,169.508879 146.265988,167.877951 L143.155854,167.877951 C142.853969,167.877951 142.707546,167.599214 142.707546,167.330399 C142.707546,167.052564 142.853969,166.78375 143.155854,166.78375 L146.713392,166.78375 L146.713392,164.839807 C146.713392,164.528595 147.015277,164.383363 147.317162,164.383363 C147.61995,164.383363 147.920931,164.528595 147.920931,164.839807 L147.920931,166.78375 L151.624892,166.78375 C151.927681,166.78375 152.084046,167.052564 152.084046,167.330399 C152.084046,167.599214 151.927681,167.877951 151.624892,167.877951 L148.290604,167.877951 C149.387873,169.520606 150.807815,170.748312 152.239508,171.562874 C152.508854,171.71893 152.620931,171.942642 152.620931,172.154626 C152.620931,172.478466 152.351585,172.791482 151.994565,172.791482 C151.870738,172.791482 151.747815,172.758106 151.614046,172.679626 C150.125412,171.764034 148.805796,170.435296 147.876642,168.949601 L147.920931,170.792513 Z" id="Fill-82" fill="#FFFFFF"></path>
                <path d="M156.301844,170.501778 C156.301844,171.530129 156.704056,171.909897 157.107171,171.909897 C157.453344,171.909897 157.756133,171.730387 158.080613,171.161186 C158.651844,170.167113 159.064902,168.726521 159.199575,167.08567 C157.531979,167.40951 156.301844,168.850103 156.301844,170.501778 M155.014767,170.501778 C155.014767,167.957062 157.128863,165.867887 160.20646,165.867887 C162.936979,165.867887 164.51419,167.577294 164.51419,169.799072 C164.51419,171.820593 163.316594,173.304485 161.392306,173.918789 C161.302825,173.952165 161.213344,173.964794 161.135613,173.964794 C160.755094,173.964794 160.50744,173.650876 160.50744,173.327938 C160.50744,173.081675 160.643017,172.836314 160.978344,172.713634 C162.567306,172.143531 163.204517,171.183737 163.204517,169.799072 C163.204517,168.335928 162.209383,167.129871 160.50744,167.008093 C160.396267,168.860928 159.937113,170.535155 159.243863,171.752938 C158.628344,172.836314 157.968537,173.159253 157.107171,173.159253 C155.965613,173.159253 155.014767,172.244562 155.014767,170.501778" id="Fill-84" fill="#FFFFFF"></path>
                <path d="M176.54836,170.256959 C176.839398,170.256959 176.974975,170.491495 176.974975,170.726031 C176.974975,170.971392 176.839398,171.205928 176.54836,171.205928 L175.250437,171.205928 C175.776475,171.842784 176.470629,172.456186 177.11959,172.947809 C177.286802,173.082216 177.365437,173.238273 177.365437,173.39433 C177.365437,173.684794 177.11959,173.952706 176.817706,173.952706 C176.705629,173.952706 176.570956,173.908505 176.448937,173.808376 C175.877706,173.338402 175.329071,172.780928 174.904263,172.233376 L174.948552,173.628866 L174.948552,174.487629 C174.948552,174.778995 174.669263,174.935954 174.389071,174.935954 C174.098033,174.935954 173.818744,174.778995 173.818744,174.487629 L173.818744,173.628866 L173.85309,172.321778 C173.449975,172.86933 172.934783,173.439433 172.352706,173.908505 C172.230687,174.008634 172.10686,174.053737 171.995687,174.053737 C171.71459,174.053737 171.481398,173.808376 171.481398,173.550387 C171.481398,173.405155 171.547379,173.260825 171.704648,173.137242 C172.364456,172.612242 173.001667,171.920361 173.51686,171.205928 L172.643744,171.205928 C172.352706,171.205928 172.218937,170.971392 172.218937,170.726031 C172.218937,170.491495 172.352706,170.256959 172.632898,170.256959 L173.818744,170.256959 L173.818744,169.553351 C173.818744,169.252062 174.098033,169.10683 174.389071,169.10683 C174.669263,169.10683 174.948552,169.252062 174.948552,169.553351 L174.948552,170.256959 L176.54836,170.256959 Z M172.65459,168.40232 L172.65459,169.162758 C172.65459,169.474871 172.364456,169.63183 172.061667,169.63183 C171.772437,169.63183 171.469648,169.474871 171.469648,169.162758 L171.469648,168.40232 L171.513937,167.241366 C170.552244,168.112758 169.342898,168.893943 168.035033,169.45232 C167.944648,169.497423 167.856071,169.509149 167.765687,169.509149 C167.452956,169.509149 167.228802,169.252062 167.228802,168.984149 C167.228802,168.794716 167.340879,168.604381 167.586725,168.504253 C168.762629,168.012629 169.858994,167.354124 170.787244,166.582861 L167.988937,166.582861 C167.710552,166.582861 167.565033,166.326675 167.565033,166.080412 C167.565033,165.823325 167.710552,165.577964 167.988937,165.577964 L171.469648,165.577964 L171.469648,164.774227 C171.469648,164.472036 171.772437,164.327706 172.061667,164.327706 C172.364456,164.327706 172.65459,164.472036 172.65459,164.774227 L172.65459,165.577964 L176.291667,165.577964 C176.581802,165.577964 176.727321,165.823325 176.727321,166.080412 C176.727321,166.326675 176.581802,166.582861 176.291667,166.582861 L173.348744,166.582861 C174.322187,167.319845 175.518879,167.923325 176.683033,168.324742 C176.974975,168.425773 177.09609,168.649485 177.09609,168.860567 C177.09609,169.141108 176.88459,169.43067 176.56011,169.43067 C176.482379,169.43067 176.41459,169.408119 176.33686,169.385567 C174.982898,168.893943 173.584648,168.05683 172.587706,167.197165 L172.65459,168.40232 Z M169.209129,172.40116 C168.795167,172.958634 168.280879,173.495361 167.710552,173.952706 C167.586725,174.053737 167.462898,174.097938 167.340879,174.097938 C167.060687,174.097938 166.825687,173.851675 166.825687,173.583763 C166.825687,173.439433 166.892571,173.294201 167.04984,173.170619 C167.743994,172.623969 168.38211,171.942912 168.873802,171.205928 L167.620167,171.205928 C167.330033,171.205928 167.19536,170.971392 167.19536,170.726031 C167.19536,170.491495 167.330033,170.256959 167.608417,170.256959 L169.175687,170.256959 L169.175687,169.542526 C169.175687,169.252062 169.455879,169.10683 169.746917,169.10683 C170.026206,169.10683 170.305494,169.252062 170.305494,169.542526 L170.305494,170.256959 L171.42536,170.256959 C171.71459,170.256959 171.850167,170.491495 171.850167,170.726031 C171.850167,170.971392 171.71459,171.205928 171.42536,171.205928 L170.305494,171.205928 L170.305494,171.563144 C170.70861,171.741753 171.067437,171.965464 171.391013,172.178351 C171.569071,172.300129 171.63686,172.46701 171.63686,172.623969 C171.63686,172.86933 171.436206,173.103866 171.17861,173.103866 C171.067437,173.103866 170.95536,173.071392 170.843283,172.982088 C170.686013,172.846778 170.506148,172.714175 170.305494,172.579768 L170.305494,174.477706 C170.305494,174.78982 170.026206,174.946778 169.746917,174.946778 C169.455879,174.946778 169.175687,174.78982 169.175687,174.477706 L169.175687,173.539562 L169.209129,172.40116 Z" id="Fill-86" fill="#FFFFFF"></path>
            </g>
        </g>
    </g>
</svg>